<svg xmlns="http://www.w3.org/2000/svg" xmlns:xlink="http://www.w3.org/1999/xlink" width="297.631" height="350.058" viewBox="0 0 297.631 350.058">
  <defs>
    <linearGradient id="linear-gradient" x1="0.5" x2="0.5" y2="1" gradientUnits="objectBoundingBox">
      <stop offset="0" stop-color="#e9f2fe"/>
      <stop offset="1" stop-color="#c6d9fb"/>
    </linearGradient>
    <linearGradient id="linear-gradient-5" x1="1" y1="0.5" x2="0" y2="0.5" gradientUnits="objectBoundingBox">
      <stop offset="0" stop-color="#ea4335"/>
      <stop offset="0.44" stop-color="#ea4335"/>
      <stop offset="0.68" stop-color="#ee3222"/>
      <stop offset="0.87" stop-color="#f22d1d"/>
      <stop offset="1" stop-color="#ff200d"/>
    </linearGradient>
    <linearGradient id="linear-gradient-6" x1="1" y1="0.5" x2="0" y2="0.5" gradientUnits="objectBoundingBox">
      <stop offset="0" stop-color="#be332c"/>
      <stop offset="0.44" stop-color="#bf352c"/>
      <stop offset="0.68" stop-color="#c33d2e"/>
      <stop offset="0.87" stop-color="#ca4b30"/>
      <stop offset="1" stop-color="#d15933"/>
    </linearGradient>
    <linearGradient id="linear-gradient-7" x1="1" y1="0.5" x2="0" y2="0.5" xlink:href="#linear-gradient-6"/>
    <linearGradient id="linear-gradient-8" y1="0.5" x2="1" y2="0.5" gradientUnits="objectBoundingBox">
      <stop offset="0" stop-color="#34a853"/>
      <stop offset="1" stop-color="#4ab166"/>
    </linearGradient>
    <linearGradient id="linear-gradient-13" y1="0.5" x2="1" y2="0.5" gradientUnits="objectBoundingBox">
      <stop offset="0" stop-color="#d6ddef"/>
      <stop offset="0.64" stop-color="#e7ebf5"/>
      <stop offset="1" stop-color="#f2f5fa"/>
    </linearGradient>
    <linearGradient id="linear-gradient-15" y1="0.499" x2="1" y2="0.499" gradientUnits="objectBoundingBox">
      <stop offset="0" stop-color="#d15933"/>
      <stop offset="1" stop-color="#be332c"/>
    </linearGradient>
    <linearGradient id="linear-gradient-16" x1="0" y1="0.5" x2="1" y2="0.5" xlink:href="#linear-gradient-15"/>
  </defs>
  <g id="Group_4853" data-name="Group 4853" transform="translate(-797.631 1119.104)">
    <g id="_Group_" data-name="&lt;Group&gt;" transform="translate(853.5 -861.484)">
      <ellipse id="Ellipse_226" data-name="Ellipse 226" cx="104.441" cy="22.137" rx="104.441" ry="22.137" fill="url(#linear-gradient)"/>
    </g>
    <g id="_Group_2" data-name="&lt;Group&gt;" transform="translate(1036.603 -798.484)">
      <ellipse id="Ellipse_226-2" data-name="Ellipse 226" cx="29.33" cy="14.719" rx="29.33" ry="14.719" fill="url(#linear-gradient)"/>
    </g>
    <g id="_Group_3" data-name="&lt;Group&gt;" transform="translate(859.603 -832.484)">
      <ellipse id="Ellipse_226-3" data-name="Ellipse 226" cx="36.332" cy="18.233" rx="36.332" ry="18.233" fill="url(#linear-gradient)"/>
    </g>
    <g id="_Group_4" data-name="&lt;Group&gt;" transform="translate(797.631 -1000.65)">
      <g id="_Group_5" data-name="&lt;Group&gt;" transform="translate(6.695 46.088)">
        <path id="Path_6535" data-name="Path 6535" d="M2414.228,907.75l-3.858,7.448,6,5.416,5.5-9.179Z" transform="translate(-2410.37 -907.75)" fill="#dc8e8e"/>
      </g>
      <g id="_Group_6" data-name="&lt;Group&gt;" transform="translate(9.558 29.487)">
        <path id="Path_6536" data-name="Path 6536" d="M4280.231,1934.15c-3.826.041-8.039,1.506-9.489,4.665s-5.982,13-5.982,13,3.383,5.214,8.747,4.846Z" transform="translate(-4264.76 -1934.15)" fill="#dca400"/>
      </g>
      <g id="_Group_7" data-name="&lt;Group&gt;" transform="translate(0 50.607)">
        <path id="Path_6537" data-name="Path 6537" d="M4338.969,2072.154c-1.122-2.2-1.4-2.293-2.065-2.776s-4.756-1.124-6.454-1.276c-2-.177-2.706.21-2.15,2.017a94.292,94.292,0,0,0,5.6,13.221c.531.743.639,1.435,2.884,1.666,2.1.215,4.726.336,5.5.385s1.845.252,1.152-2.146a81.825,81.825,0,0,0-3.066-7.97C4339.5,2073.295,4338.969,2072.154,4338.969,2072.154Z" transform="translate(-4328.117 -2068.064)" fill="#34a853"/>
      </g>
      <g id="_Group_8" data-name="&lt;Group&gt;" transform="translate(2.971 136.166)">
        <ellipse id="Ellipse_226-4" data-name="Ellipse 226" cx="29.33" cy="14.719" rx="29.33" ry="14.719" fill="url(#linear-gradient)"/>
      </g>
      <g id="_Group_9" data-name="&lt;Group&gt;" transform="translate(43.768 128.46)">
        <path id="Path_6538" data-name="Path 6538" d="M4045.143,2561.837c.953-.515,1.557.757,2.421,1.781a7.584,7.584,0,0,1,1.691,2.668c.207,1.208-.826,3.112-1.974,4.161s-2.476,1.8-2.893,4.1a5.556,5.556,0,0,1-3.53,4.7c-2.481,1.128-5.805.767-6.932,0-1.336-.908-.117-1.905,1.756-4.731,2.441-3.681,4.343-6.308,4.343-9.742Z" transform="translate(-4033.363 -2561.719)" fill="#34a853"/>
      </g>
      <g id="_Group_10" data-name="&lt;Group&gt;" transform="translate(47.885 125.565)">
        <path id="Path_6539" data-name="Path 6539" d="M4063.022,2543.36l2.005,3.1a3.071,3.071,0,0,1-.677,4.122l-.063.044a2.923,2.923,0,0,1-3.838-.631l-3.13-3.6Z" transform="translate(-4057.319 -2543.36)" fill="#e3a5a6"/>
      </g>
      <g id="_Group_11" data-name="&lt;Group&gt;" transform="translate(16.739 65.158)">
        <path id="Path_6540" data-name="Path 6540" d="M4070.92,2160.33c-.125,3.943.932,19.889,3.52,26.943s4.085,11.437,4.9,12.905,24.278,25.521,24.278,25.521a5.182,5.182,0,0,0,4.616-4.373s-9.615-17.209-11.7-20.739-9.456-8.942-9.456-8.942l.67-30.871Z" transform="translate(-4070.91 -2160.33)" fill="url(#linear-gradient-5)"/>
      </g>
      <g id="_Group_12" data-name="&lt;Group&gt;" transform="translate(6.663)">
        <g id="_Group_13" data-name="&lt;Group&gt;" transform="translate(34.578 49.235)">
          <path id="Path_6541" data-name="Path 6541" d="M4098.19,2071.455c-.047-.685-2-8.477-3-12.085l-7.267,2.635,1.706,5.677,6.4,6.964A2.82,2.82,0,0,0,4098.19,2071.455Z" transform="translate(-4087.927 -2059.37)" fill="#e3a5a6"/>
        </g>
        <g id="_Group_14" data-name="&lt;Group&gt;" transform="translate(10.225 140.467)">
          <path id="Path_6612" data-name="Path 6612" d="M.085,7.783l5.1.058L5.1.058,0,0Z" transform="translate(5.057 8.795) rotate(-167.19)" fill="#e3a5a6"/>
        </g>
        <g id="_Group_15" data-name="&lt;Group&gt;" transform="translate(10.086 65.158)">
          <path id="Path_6542" data-name="Path 6542" d="M4155.164,2160.33h23.793a93.3,93.3,0,0,1,.9,11.04c.184,10.865-9.408,30.6-9.408,30.6a43.574,43.574,0,0,1-.623,13.143c-2.1,8.654-7.837,23.3-7.837,23.3s-3.594.539-5.376-1.65c0,0,3.175-29.731,4.031-37.348.925-8.242,3.3-23.3,3.3-23.3a37.552,37.552,0,0,1-4.257-5.373,27.577,27.577,0,0,1-4.52-10.409" transform="translate(-4155.164 -2160.33)" fill="#ea4335"/>
        </g>
        <g id="_Group_16" data-name="&lt;Group&gt;" transform="translate(10.09 29.487)">
          <path id="Path_6543" data-name="Path 6543" d="M4115.132,1934.393c4.562,1.156,10.783,2.66,12.582,7.866,1.784,5.149,4.389,14.419,4.389,14.419-1,1.826-6.5,3.344-8.409,2.282l-.9-3.123v13.981c-3.568,4.086-16,5.993-23.794,0v-26.112c0-4.173,2.2-9.185,8.281-9.557Z" transform="translate(-4099 -1934.15)" fill="#fbbc05"/>
        </g>
        <g id="_Group_17" data-name="&lt;Group&gt;" transform="translate(31.592 43.594)">
          <path id="Path_6544" data-name="Path 6544" d="M2263.438,899.523l-2.288-7.583,2.288,10.977Z" transform="translate(-2261.15 -891.94)" fill="#eebe31"/>
        </g>
        <g id="_Group_18" data-name="&lt;Group&gt;" transform="translate(7.803)">
          <g id="_Group_19" data-name="&lt;Group&gt;" transform="translate(0)">
            <g id="_Group_20" data-name="&lt;Group&gt;" transform="translate(19.402 8.355)">
              <path id="Path_6545" data-name="Path 6545" d="M4182.263,1800.175a2.632,2.632,0,0,1,2.247.829c.963,1.037.764,2.958,0,7.371l-2.978.36Z" transform="translate(-4181.532 -1800.156)" fill="#707070"/>
            </g>
            <g id="_Group_21" data-name="&lt;Group&gt;" transform="translate(0 6.551)">
              <path id="Path_6546" data-name="Path 6546" d="M4307.572,1789.26a4.484,4.484,0,0,1-1.862-.4c-.915-.554-1.153.541-.652,1.49a4.268,4.268,0,0,0,3.454,2.424c.027-.137.855-2.449.855-2.449Z" transform="translate(-4304.8 -1788.713)" fill="#707070"/>
            </g>
            <g id="_Group_22" data-name="&lt;Group&gt;" transform="translate(2.85 4.846)">
              <path id="Path_6547" data-name="Path 6547" d="M4192.356,1790c.443.278,1.072-.617,1.618-1.216a1.873,1.873,0,0,1,3.213.547c.9,2.008-1.149,4.678-2.354,5.559a2.031,2.031,0,0,1-2.476.225l-.316,7.677a7.9,7.9,0,0,1-5.862,4.684c-4.28.612-3.4-3.1-1.993-4.927v-2.791a9.553,9.553,0,0,1-3.255.177c-.559-.158-1.89-1.853-2.748-3.75-.965-2.129-2.572-5.911-1.143-12.3,1.537-6.87,8.544-7.08,12.731-4.31S4192.356,1790,4192.356,1790Z" transform="translate(-4176.472 -1777.905)" fill="#e3a5a6"/>
            </g>
            <g id="_Group_23" data-name="&lt;Group&gt;" transform="translate(1.325)">
              <path id="Path_6548" data-name="Path 6548" d="M4214.875,1764.9c.221,0,1.068-1.473,1.617-2,.762-.732-.22-7.346-.22-7.346s.77-2.509-.737-4.174-4.425-1.382-6.562-1.464a18.374,18.374,0,0,1-7.638-1.612c-3.038-1.386-3.259-1.552-3.635-.158s-.519,4.615,1.291,6.767l.982,1.694s.923.815,3.745,1.178,7.649-1.238,8.251-1.325c.821-.117.995.719,1.438,3.006C4213.805,1761.48,4214.128,1764.881,4214.875,1764.9Z" transform="translate(-4197.465 -1747.177)" fill="#707070"/>
            </g>
            <g id="_Group_24" data-name="&lt;Group&gt;" transform="translate(19.96 6.492)">
              <path id="Path_6549" data-name="Path 6549" d="M4183.229,1790.736l2.672-1.511a1.5,1.5,0,0,0-.869-.808,1.4,1.4,0,0,0-1.154.1A1.726,1.726,0,0,0,4183.229,1790.736Z" transform="translate(-4183.061 -1788.338)" fill="#707070"/>
            </g>
            <g id="_Group_25" data-name="&lt;Group&gt;" transform="translate(10.569 23.084)">
              <path id="Path_6550" data-name="Path 6550" d="M4216.21,1897.162a29.2,29.2,0,0,0,5.35-1.616,4.7,4.7,0,0,0,1.916-2,6.717,6.717,0,0,1-1.087,2.353c-1.014,1.364-6.179,2.366-6.179,2.366Z" transform="translate(-4216.21 -1893.55)" fill="#dc8e8e"/>
            </g>
          </g>
        </g>
        <g id="_Group_26" data-name="&lt;Group&gt;" transform="translate(0 144.696)">
          <path id="Path_6551" data-name="Path 6551" d="M4288.948,2665.416l.16-.746c-.521.1-2.747,4-4.957,5.69-2.419,1.852-4.519,2.947-5.6,3.785-1.445,1.117.647,3.4,4.207,3.608,1.766.1,4.983-.465,5.975-1.456s1.709-2.631,2.494-3.342,2.375-1.336,2.915-2.249a6.707,6.707,0,0,0,.309-2.81c-.031-.978-.061-2.05-.378-2.038-.026.113-.123.57-.123.57a5.906,5.906,0,0,1-3.018.7C4290.092,2667.088,4288.533,2666.881,4288.948,2665.416Z" transform="translate(-4278.087 -2664.67)" fill="#34a853"/>
        </g>
      </g>
      <g id="_Group_27" data-name="&lt;Group&gt;" transform="translate(20.827 77.405)">
        <path id="Path_6552" data-name="Path 6552" d="M4263.472,2259.781s2.113-15.8,2.676-18.25a23.666,23.666,0,0,1-4.7-3.541,40.31,40.31,0,0,0,3.212,4.228Z" transform="translate(-4261.45 -2237.99)" fill="url(#linear-gradient-6)"/>
      </g>
      <g id="_Group_28" data-name="&lt;Group&gt;" transform="translate(32.029 98.671)">
        <path id="Path_6553" data-name="Path 6553" d="M4197.812,2372.83s-2.536,6.654-3.562,8.126c0,0,.256,5.071.22,6.094l1.333,1.224a33.274,33.274,0,0,0-.6-6.84A42.564,42.564,0,0,0,4197.812,2372.83Z" transform="translate(-4194.25 -2372.83)" fill="url(#linear-gradient-7)"/>
      </g>
      <g id="_Group_29" data-name="&lt;Group&gt;" transform="translate(38.737 95.999)">
        <path id="Path_6554" data-name="Path 6554" d="M4173.24,2355.89" transform="translate(-4173.24 -2355.89)" fill="#414f9e"/>
      </g>
      <g id="_Group_30" data-name="&lt;Group&gt;" transform="translate(3.96 53.845)">
        <path id="Path_6555" data-name="Path 6555" d="M4140.97,2092.291s-20.012,2.257-22.359,1.489-5.5-3.239-7.2-4.258-2.914-1.1-2.914-.683,1.449,2.761,1.78,3.725-1.564.97-4.044.367-3.479-2.125-4.128-1.233,1.377,5.239,5.505,6.858,7.188.551,10.6.7,24.43,1.567,29.167,0a4.548,4.548,0,0,0-1.638-4.246A14.949,14.949,0,0,0,4140.97,2092.291Z" transform="translate(-4101.982 -2088.601)" fill="#e3a5a6"/>
      </g>
    </g>
    <g id="Group_4833" data-name="Group 4833" transform="translate(-1191.563 -457)">
      <path id="Rectangle_1012" data-name="Rectangle 1012" d="M15.828,0H120.257a16.026,16.026,0,0,1,15.828,16.218V265.407a16.027,16.027,0,0,1-15.828,16.218H15.828A16.026,16.026,0,0,1,0,265.406V16.218A16.026,16.026,0,0,1,15.828,0Z" transform="translate(2088.274 -662.104)" fill="#213458"/>
      <path id="Path_11118" data-name="Path 11118" d="M13.9,0H120.808a13.9,13.9,0,0,1,13.9,13.9V264.439a13.9,13.9,0,0,1-13.9,13.9H13.9A13.9,13.9,0,0,1,0,264.439V13.9A13.9,13.9,0,0,1,13.9,0Z" transform="translate(2086.563 -658.816)" fill="#4285f4"/>
      <path id="Path_11117" data-name="Path 11117" d="M1.217,0H119.711a1.217,1.217,0,0,1,1.217,1.217V218.252a1.217,1.217,0,0,1-1.217,1.217H1.217A1.217,1.217,0,0,1,0,218.251V1.217A1.217,1.217,0,0,1,1.217,0Z" transform="translate(2093.563 -629.986)" fill="#fff"/>
      <path id="Path_7953" data-name="Path 7953" d="M7.743,2.984A1.492,1.492,0,1,1,7.743,0H35.379a1.492,1.492,0,1,1,0,2.984ZM2.764,0a1.492,1.492,0,0,1,0,2.984H1.493A1.492,1.492,0,1,1,1.493,0Z" transform="translate(2135.48 -644.143)" fill="#e6e0de" fill-rule="evenodd"/>
      <path id="Path_7954" data-name="Path 7954" d="M9.762,19.524A9.761,9.761,0,1,0,0,9.762a9.761,9.761,0,0,0,9.762,9.762Z" transform="translate(2144.154 -406.191)" fill="#fff" fill-rule="evenodd"/>
      <g id="Group_1705" data-name="Group 1705" transform="translate(2101.169 -625.024)">
        <path id="Path_7967" data-name="Path 7967" d="M.36.726A.363.363,0,1,1,.36,0H8.3a.363.363,0,0,1,0,.726Zm0,5.214a.361.361,0,0,1,0-.723H8.3a.361.361,0,1,1,0,.723Zm0-2.607a.361.361,0,1,1,0-.723H8.3a.363.363,0,0,1,0,.726Z" transform="translate(0.003 0)" fill="#4285f4" fill-rule="evenodd"/>
        <path id="Path_7968" data-name="Path 7968" d="M10.647.324ZM1.1.723H5.762V4.475H1.1a.366.366,0,0,1-.264-.11A.372.372,0,0,1,.723,4.1v-3A.378.378,0,0,1,1.1.723ZM9.869,0H1.1A1.1,1.1,0,0,0,0,1.1v3A1.1,1.1,0,0,0,1.1,5.2H9.869a1.1,1.1,0,0,0,.753-.3l.025-.022A1.1,1.1,0,0,0,10.97,4.1v-3A1.1,1.1,0,0,0,9.869,0Z" transform="translate(94.523 0.37)" fill="#4285f4" fill-rule="evenodd"/>
      </g>
      <circle id="Ellipse_383" data-name="Ellipse 383" cx="11.94" cy="11.94" r="11.94" transform="translate(2137.42 -437.55) rotate(-45)" fill="#ea4335"/>
      <path id="Path_10758" data-name="Path 10758" d="M913.641,812.527a8.221,8.221,0,0,0-6.97-3.373c-4.928-.02-7.176,2.657-7.427,3.087a2.8,2.8,0,0,0,.241,2.289.821.821,0,0,0,.9.41l2.6-.555a.639.639,0,0,0,.494-.7l-.2-1.4a4.341,4.341,0,0,1,3.166-.979,5.35,5.35,0,0,1,3.072,1.017l-.116,1.4a.713.713,0,0,0,.582.755l2.49.443a.714.714,0,0,0,.76-.387C913.506,813.977,913.879,813.05,913.641,812.527Z" transform="translate(1247.894 -1249.602)" fill="#fff"/>
      <ellipse id="Ellipse_384" data-name="Ellipse 384" cx="11.94" cy="11.94" rx="11.94" ry="11.94" transform="translate(2102.305 -444.007) rotate(-22.5)" fill="#34a853"/>
      <path id="Path_10759" data-name="Path 10759" d="M837.788,807.6H835.35l-.466-.685a.285.285,0,0,0-.238-.126h-3.73a.293.293,0,0,0-.241.126l-.466.685h-2.443a.294.294,0,0,0-.294.294v6.61a.294.294,0,0,0,.294.294h10.022a.293.293,0,0,0,.289-.294V807.9a.294.294,0,0,0-.289-.294Zm-.28,6.611h-9.456V808.19h2.3a.3.3,0,0,0,.241-.126l.466-.69h3.413l.466.69a.308.308,0,0,0,.241.126h2.331Z" transform="translate(1285.126 -1248.341)" fill="#fff"/>
      <path id="Path_10760" data-name="Path 10760" d="M836.286,810.59a2.233,2.233,0,1,0,1.194,4.117.289.289,0,0,0,.089-.4.293.293,0,0,0-.4-.093,1.65,1.65,0,1,1,.718-1.758l-.289-.368a.294.294,0,0,0-.41-.047.289.289,0,0,0-.046.41l.872,1.105a.294.294,0,0,0,.228.112.284.284,0,0,0,.233-.117l.839-1.1a.293.293,0,0,0-.466-.354l-.361.466A2.224,2.224,0,0,0,836.286,810.59Z" transform="translate(1281.616 -1250.369)" fill="#fff"/>
      <ellipse id="Ellipse_385" data-name="Ellipse 385" cx="11.94" cy="11.94" rx="11.94" ry="11.94" transform="translate(2174.098 -444.009) rotate(-22.5)" fill="#34a853"/>
      <path id="Path_10761" data-name="Path 10761" d="M990.115,817.908a3.167,3.167,0,0,0,3.167-3.167v-5.006a3.167,3.167,0,1,0-6.316,0v5.005a3.167,3.167,0,0,0,3.15,3.167Zm-2.1-8.167a2.114,2.114,0,1,1,4.228,0v5.005a2.113,2.113,0,1,1-4.227,0Z" transform="translate(1199.858 -1251.719)" fill="#fff"/>
      <path id="Path_10762" data-name="Path 10762" d="M990.5,821.021a4,4,0,0,0,3.991-3.991.533.533,0,0,0-1.065,0,2.933,2.933,0,0,1-2.926,2.935h-1.311a2.942,2.942,0,0,1-2.933-2.933.533.533,0,1,0-1.057,0,4,4,0,0,0,3.991,3.991h.127v.9h-1.867a.533.533,0,1,0,0,1.057h4.793a.533.533,0,1,0,0-1.057h-1.867v-.9Z" transform="translate(1200.133 -1253.259)" fill="#fff"/>
    </g>
    <path id="Icon_awesome-user-circle" data-name="Icon awesome-user-circle" d="M35,.563a35,35,0,1,0,35,35A34.994,34.994,0,0,0,35,.563Zm0,13.548A12.419,12.419,0,1,1,22.581,26.53,12.42,12.42,0,0,1,35,14.111Zm0,48.548a27.044,27.044,0,0,1-20.675-9.625,15.735,15.735,0,0,1,13.9-8.44,3.453,3.453,0,0,1,1,.155A18.686,18.686,0,0,0,35,45.724a18.615,18.615,0,0,0,5.772-.974,3.453,3.453,0,0,1,1-.155,15.735,15.735,0,0,1,13.9,8.44A27.044,27.044,0,0,1,35,62.659Z" transform="translate(928.626 -1057.292)" fill="#707070"/>
    <rect id="Rectangle_1097" data-name="Rectangle 1097" width="66" height="12" rx="6" transform="translate(929 -978)" fill="#707070"/>
    <rect id="Rectangle_1098" data-name="Rectangle 1098" width="87" height="8" rx="4" transform="translate(919 -961)" fill="#707070"/>
    <g id="Group_4852" data-name="Group 4852" transform="translate(68 -59)">
      <path id="Path_6578" data-name="Path 6578" d="M2744.2,2804.438c.383,1.66,0,9.849,0,9.849l-.44.226c-2.355-5.2-6.492-12.1-6.492-12.1a2.787,2.787,0,0,0,2.471-1.229h0C2740.265,2801.186,2743.826,2802.777,2744.2,2804.438Z" transform="translate(-1909.165 -3624.583)" fill="#f5b907"/>
      <path id="Path_6579" data-name="Path 6579" d="M2601.432,2826.584l2.316,10.791a32.223,32.223,0,0,0-7.749-2.957c.656-1.876,4.91-14.136,6.682-19.6,1.225-3.776-.6-6.466-3.061-7.423a5.515,5.515,0,0,0-3.25-.225l-.039-.143s10.295-5.58,11.021-5.765c0,0,5.675,9.1,12.946,10.375,0,0,.668-5.9,0-9.09l.026-.15a6.07,6.07,0,0,0,.85.087s4.137,6.9,6.492,12.1c1.084,2.39,1.782,4.426,1.55,5.272-.616,2.2-2.992,4.583-5.345,5.84a8.293,8.293,0,0,1-1.6.675c-2.51,1.2-7.979,3.743-12.668,4.447C2605.039,2831.493,2601.742,2827.477,2601.432,2826.584Z" transform="translate(-1790.395 -3624.648)" fill="#fbbc05"/>
      <path id="Path_6580" data-name="Path 6580" d="M2898.77,3126.034c2.127,4.8-3.6,8.326-11.6,7.575-.558-.055-1.1-.109-1.6-.15,5.8-.949,7.323-2.39,7.323-2.39a9.618,9.618,0,0,1,0-5.561c-.636-1.3-4.236-1.6-4.236-1.6C2891.784,3123.05,2896.955,3121.923,2898.77,3126.034Z" transform="translate(-2035.112 -3886.098)" fill="#34a853"/>
      <path id="Path_6581" data-name="Path 6581" d="M2919.581,2942.24s6.212,1.735,4.6,6.681-7.369,10.114-7.369,10.114Z" transform="translate(-2061.294 -3739.179)" fill="url(#linear-gradient-8)"/>
      <path id="Path_6582" data-name="Path 6582" d="M848.533,1797.568l11.531-6.782,10.373-6.086-.805,4.857-2.769,16.794-.449,2.732L860.8,1812.4l-18.077,10.675L834.36,1828l1.778-14.542,1.051-8.647.077-.621,1.388-.82Z" transform="translate(-7.909 -2586.494)" fill="#cfcee2"/>
      <path id="Path_6583" data-name="Path 6583" d="M2851.852,3129.085a9.625,9.625,0,0,0,0,5.561s-1.525,1.44-7.323,2.39c-6.74-.6-8.9-.554-8.9-.554q.034-1.573.221-3.135c.226-1.723.668-3.463,1.5-4.276a75.113,75.113,0,0,0,8.865-1.208c.39-.11.864-.24,1.4-.375C2847.617,3127.479,2851.216,3127.772,2851.852,3129.085Z" transform="translate(-1992.906 -3889.673)" fill="#f5e1ce"/>
      <path id="Path_6584" data-name="Path 6584" d="M899.367,1932.32l-9.9,12.69-8.173-2.015Z" transform="translate(-46.922 -2706.419)" fill="url(#linear-gradient-8)"/>
      <path id="Path_6585" data-name="Path 6585" d="M2817.45,2948.8l-11.533,6.792-1.737-1.052a95.818,95.818,0,0,1,10.248-4.584Z" transform="translate(-1966.118 -3744.508)" fill="url(#linear-gradient-8)"/>
      <path id="Path_6586" data-name="Path 6586" d="M2622.422,3087.292l3.223.807c-.83.813-1.272,2.554-1.5,4.275l-.221-.041s-24.7.75-32.768,0-13.128-11.795-13.128-11.795c1.174-2.251,3.555-3.7,7.662-3.457l20.2,13.133,8.361-4.932Z" transform="translate(-1775.675 -3848.702)" fill="url(#linear-gradient-8)"/>
      <path id="Path_6587" data-name="Path 6587" d="M2619.716,3107.415l.22.041q-.186,1.561-.22,3.135c-.02.8,0,1.338,0,1.338s-2.27.137-10.929.075l-3.289-.02c-.791-.014-1.634-.019-2.516-.04-.429,0-.864,0-1.3-.016-1.407-.02-2.717-.041-3.93-.075-11.307-.308-14.127-1.058-14.127-1.058s-9.541-2.985-10.482-8.4a10.833,10.833,0,0,1,.681-6.775s5.06,11.05,13.127,11.795S2619.716,3107.415,2619.716,3107.415Z" transform="translate(-1771.302 -3863.783)" fill="url(#linear-gradient-8)"/>
      <path id="Path_6588" data-name="Path 6588" d="M2752.509,3188.155c1.545,2.24,2.764,4.91,2.375,7.465,0-1.058-.968-2.439-2.672-3.968-2.543-2.3-8.433-7.52-10.5-9.021.882.02,1.725.026,2.516.039C2746.395,3185.138,2752.509,3188.155,2752.509,3188.155Z" transform="translate(-1913.175 -3934.47)" fill="#34a853"/>
      <path id="Path_6589" data-name="Path 6589" d="M2727.842,3195.23v.034a1.771,1.771,0,0,1-1.156,1.55c-2.056,1.011-6.011-1.331-8.315-3.578s-4.176-2.4-7.6-5.129a4.437,4.437,0,0,1-1.336-5.957c1.213.034,2.523.055,3.93.075.439,0,.875.015,1.3.015,2.068,1.5,7.958,6.726,10.5,9.022C2726.874,3192.8,2727.842,3194.172,2727.842,3195.23Z" transform="translate(-1885.519 -3934.08)" fill="url(#linear-gradient-13)"/>
      <path id="Path_6590" data-name="Path 6590" d="M2763.1,2979.34l1.737,1.052-9.878,5.805a8.081,8.081,0,0,1-.766-1.591l1.532-.983c1.069-.683,2.139-1.34,3.229-1.982l4.1-2.268Z" transform="translate(-1923.644 -3769.319)" fill="url(#linear-gradient-8)"/>
      <path id="Path_6591" data-name="Path 6591" d="M2754.611,2940.089l-.331.356-.032.034c-1.388.724-2.749,1.482-4.1,2.273l-6.161-3.585c-.454-3.668-.519-7.022-.519-7.022a8.339,8.339,0,0,0,1.6-.676Z" transform="translate(-1914.581 -3730.429)" fill="#f5b907"/>
      <path id="Path_6593" data-name="Path 6593" d="M2709.725,2667.118a5.679,5.679,0,0,1-3.029,5.465l-.162-.015q.182-2.135.155-4.281s-7.9,7.5-14.49,5.587h-.04a4.273,4.273,0,0,0,.085-.5,6.376,6.376,0,0,0,.025-1.229,5.268,5.268,0,0,0-1.569-3.593c.694-5.949,8.16-7.185,11.7-8.859s4.632-.771,4.632-.771l.013-.036.064.015C2709.207,2659.111,2709.432,2663.22,2709.725,2667.118Z" transform="translate(-1870.171 -3508.813)" fill="#707070"/>
      <path id="Path_6594" data-name="Path 6594" d="M2759.095,3182.911a29.653,29.653,0,0,1,4.989,5.465s-6.117-3.019-8.284-5.486Z" transform="translate(-1924.911 -3934.68)" fill="#f3d5a7"/>
      <path id="Path_6595" data-name="Path 6595" d="M2694.76,2647.9c4.391-.274,3.885,1.9,3.794,2.212l-.012.036s-1.1-.9-4.632.771-11.008,2.91-11.7,8.859a2.5,2.5,0,0,0-1.847-.7s.253-4.336,1.842-5.559c1.491-1.14,7.193-4.774,11.669-5.519.11-.021.226-.033.336-.047A3.35,3.35,0,0,1,2694.76,2647.9Z" transform="translate(-1861.375 -3500.038)" fill="url(#linear-gradient-15)"/>
      <path id="Path_6596" data-name="Path 6596" d="M2700.295,2709.91q.027,2.143-.155,4.281c-.234,2.889-.811,6.544-2.232,8.607-1.33,1.932-2.088,3.332-2.833,4.234a2.775,2.775,0,0,1-2.471,1.229,6.257,6.257,0,0,1-.85-.088,8.325,8.325,0,0,1-1.351-.356c-2.6-.895-6.058-3.311-7.483-8.728l.014-.563h.167c1.292-.1,2.316-1.353,2.673-3.034h.039C2692.4,2717.417,2700.295,2709.91,2700.295,2709.91Z" transform="translate(-1863.511 -3550.436)" fill="#f5e1ce"/>
      <path id="Path_6597" data-name="Path 6597" d="M2647.8,2942.092a30.713,30.713,0,0,0,1.4,6.549,8.012,8.012,0,0,0,.766,1.591l-1.388.82-.079.621a17.056,17.056,0,0,0-5.733-1.8c-2.518-.114-6.707,0-6.707,0a73.5,73.5,0,0,1-7.3-3.79l-2.316-10.792c.31.9,3.606,4.91,8.166,4.227,4.689-.7,10.155-3.251,12.667-4.447C2647.282,2935.07,2647.346,2938.434,2647.8,2942.092Z" transform="translate(-1815.858 -3733.354)" fill="#fbbc05"/>
      <path id="Path_6598" data-name="Path 6598" d="M2601.819,2634.377l.032.279c-.11.013-.226.027-.336.047-4.476.751-10.177,4.379-11.669,5.52-1.589,1.223-1.842,5.56-1.842,5.56-1.707.136-2.952,2.275-2.776,4.774a6.087,6.087,0,0,0,.472,2,3.288,3.288,0,0,0,2.778,2.287l-.014.563s-.344,5.613-4.137,7.949c-.727.188-11.022,5.766-11.022,5.766l.04.143a5.378,5.378,0,0,0-1.084.411c-1.069.563-2.191,2.439-3.254,4.878,0,0-2.29-1.995,0-5.606s3.34-1.96,3.488-7.056,1.486-7.581,4.606-10.131,3.847-16.058,7.227-17.806S2589.457,2629.281,2601.819,2634.377Z" transform="translate(-1766.65 -3486.752)" fill="#707070"/>
      <path id="Path_6599" data-name="Path 6599" d="M2692.879,3015.568l-1.051,8.647a4.108,4.108,0,0,1-2.27,0c-1.557-.315-2.783-1.659-4.825-3.244a19.3,19.3,0,0,0-3.854-1.666c-.13-.049-.266-.09-.408-.13,1.109-4.14-.031-5.411-.031-5.411s4.188-.1,6.706,0A16.755,16.755,0,0,1,2692.879,3015.568Z" transform="translate(-1861.22 -3797.249)" fill="#f5e1ce"/>
      <path id="Path_6600" data-name="Path 6600" d="M2642.971,3048.376l-1.782,14.542-20.2-13.133,5.611-3.176,5.377-3.039.039-.109a19.536,19.536,0,0,1,3.854,1.667c2.042,1.585,3.287,2.93,4.824,3.243A4.242,4.242,0,0,0,2642.971,3048.376Z" transform="translate(-1811.18 -3821.41)" fill="#aca9d1"/>
      <path id="Path_6601" data-name="Path 6601" d="M2725.47,2805.9c.668,3.189,0,9.09,0,9.09-2.187-3.777-1.324-9.589-1.324-9.589h0a8.273,8.273,0,0,0,1.35.356Z" transform="translate(-1897.699 -3628.011)" fill="#edc7a6"/>
      <path id="Path_6602" data-name="Path 6602" d="M2671.312,2767.535h0s-.862,5.816,1.324,9.589c-7.271-1.278-12.946-10.375-12.946-10.375,3.793-2.336,4.137-7.949,4.137-7.949C2665.254,2764.224,2668.712,2766.64,2671.312,2767.535Z" transform="translate(-1843.654 -3590.154)" fill="#edc7a6"/>
      <path id="Path_6603" data-name="Path 6603" d="M2670.365,2709.7c.192,2.666-1.183,4.94-3.042,5.084s-3.549-1.9-3.727-4.562,1.169-4.94,3.04-5.084S2670.173,2707.035,2670.365,2709.7Z" transform="translate(-1846.726 -3546.554)" fill="url(#linear-gradient-16)"/>
      <path id="Path_6604" data-name="Path 6604" d="M2607.386,3033.832c.143.039.278.08.408.129l-.039.109-5.377,3.039a94.719,94.719,0,0,1-10.868,0,24.336,24.336,0,0,1,4.513-5.349A48.238,48.238,0,0,1,2607.386,3033.832Z" transform="translate(-1785.988 -3811.904)" fill="#ffb117"/>
      <path id="Path_6605" data-name="Path 6605" d="M2544.38,2859.326a32.243,32.243,0,0,1,7.739,2.958,73.123,73.123,0,0,0,7.3,3.79s1.141,1.27.032,5.41a47.932,47.932,0,0,0-11.358-2.064s-1.945,0-4.422-.177c-4.036-.28-9.476-.99-10.216-2.8-1.2-2.923,1.978-13.57,1.978-13.57a116.655,116.655,0,0,1,4.969-15.519c1.069-2.424,2.192-4.315,3.255-4.878a5.392,5.392,0,0,1,1.084-.41,5.514,5.514,0,0,1,3.25.225c1.835.867.835,5.816.835,5.816l-6.868,20.757C2542.794,2858.991,2543.6,2859.139,2544.38,2859.326Z" transform="translate(-1736.887 -3649.556)" fill="#f5b907"/>
      <path id="Path_6606" data-name="Path 6606" d="M2591.276,3060.27l-5.614,3.176c-4.1-.246-6.486,1.2-7.662,3.456a15.907,15.907,0,0,1,2.407-6.632A94.5,94.5,0,0,0,2591.276,3060.27Z" transform="translate(-1774.436 -3835.065)" fill="url(#linear-gradient-8)"/>
      <path id="Path_6607" data-name="Path 6607" d="M2588.5,2833.94c2.459.957,4.287,3.647,3.061,7.424-1.771,5.465-6.025,17.723-6.681,19.6a23.321,23.321,0,0,0-2.413-.442l6.865-20.755S2590.338,2834.807,2588.5,2833.94Z" transform="translate(-1778.099 -3651.197)" fill="#ffb117"/>
      <path id="Path_6608" data-name="Path 6608" d="M2596.053,3031a24.3,24.3,0,0,0-4.513,5.349h0l.1-5.525C2594.116,3030.99,2596.053,3031,2596.053,3031Z" transform="translate(-1785.62 -3811.141)" fill="#fbbc05"/>
    </g>
    <g id="_Group_31" data-name="&lt;Group&gt;" transform="translate(1029.374 -961.495)">
      <g id="_Group_32" data-name="&lt;Group&gt;" transform="translate(0 25.812)">
        <g id="_Group_33" data-name="&lt;Group&gt;" transform="translate(0.317)">
          <g id="_Group_34" data-name="&lt;Group&gt;">
            <path id="Path_6556" data-name="Path 6556" d="M3638.907,2532.475c.1.165,1.077,1.83,1.077,1.83l4.391,6.626,4.273,6.765a1.05,1.05,0,0,0,1.246.459c.093-.032.179-.064.291-.107,1.484-.581,3.71-1.554,6.669-3,2.376-1.16,2.269-1.529,2.269-1.955a5.212,5.212,0,0,0-.041-1.017v-.023h-.011c-.488-.972-1.975-3.4-3.989-6.463-3.59-5.466-5.3-7.9-6.369-9.48a1.09,1.09,0,0,0-1.4-.4c-1.92.679-5.823,2.439-7.829,3.314a1,1,0,0,0-.09.061C3638.282,2529.695,3638.888,2532.432,3638.907,2532.475Z" transform="translate(-3638.725 -2525.621)" fill="#2f7bf9"/>
          </g>
        </g>
        <g id="_Group_35" data-name="&lt;Group&gt;" transform="translate(0 3.412)">
          <g id="_Group_36" data-name="&lt;Group&gt;">
            <path id="Path_6557" data-name="Path 6557" d="M3637.346,2546.906c0,.043,1.182,2.036,1.182,2.036l4.235,6.805,4.438,6.586a1.05,1.05,0,0,0,1.246.459c.093-.032.18-.064.291-.108,1.485-.581,3.711-1.554,6.67-3,2.376-1.16,2.269-1.529,2.269-1.954a5.222,5.222,0,0,0-.042-1.017v-.022h-.011c-2.274,1.04-9.36,4.6-9.6,4.471-.57-.286-5.386-8.435-7.95-12.59-1.278-2.07-1.862-2.949-2.288-3.66a.809.809,0,0,1,.159-1.185c.032-.018.056-.046.089-.061a2.462,2.462,0,0,0-.687,3.237Z" transform="translate(-3636.96 -2543.669)" fill="#1a70ff"/>
          </g>
        </g>
        <g id="_Group_37" data-name="&lt;Group&gt;" transform="translate(2.395 2.075)">
          <g id="_Group_38" data-name="&lt;Group&gt;">
            <path id="Path_6558" data-name="Path 6558" d="M1758.169,1404.94l-7.9,3.484,8.414,13.163,7.847-3.806Z" transform="translate(-1750.27 -1404.94)" fill="#cce2f6"/>
          </g>
        </g>
      </g>
      <g id="_Group_39" data-name="&lt;Group&gt;" transform="translate(0.759 33.355)">
        <g id="_Group_40" data-name="&lt;Group&gt;">
          <path id="Path_6559" data-name="Path 6559" d="M3652.933,2605.932c-2.154-.648-5.42-9.1-7.9-18.686s-3.742-11.72-3.826-14.745.125-6.981.125-6.981l4.268,6.574a12.564,12.564,0,0,1,1.077-3.64c.547-1.186,1.578-2.116,2.422-1.406.452.378-.734,2-.481,5.629a19.879,19.879,0,0,1-.253,4.348l7.937,20.242Z" transform="translate(-3641.188 -2565.52)" fill="#e3a5a6"/>
        </g>
      </g>
      <g id="_Group_41" data-name="&lt;Group&gt;" transform="translate(42.825 31.555)">
        <path id="Path_6560" data-name="Path 6560" d="M3877.138,2556.187c2.5-.743,4.626.661,5.809,4.867a172.881,172.881,0,0,1,4.51,24.123c.335,2.928.719,6.479-1.937,6.757-2.025.211-7.838-.974-8.886-2.038-1.377-1.4-1.1-7.032-1.1-7.032h3s-.65-4.448-.848-5.788c-.673-4.537-1.673-10.255-1.673-10.255Z" transform="translate(-3875.511 -2555.998)" fill="#dc8e8e"/>
      </g>
      <g id="_Group_42" data-name="&lt;Group&gt;" transform="translate(11.137)">
        <g id="_Group_43" data-name="&lt;Group&gt;" transform="translate(18.594 25.612)">
          <path id="Path_6561" data-name="Path 6561" d="M1902.54,1394.921l1.025,9.486,8.877,1.079-1.28-12.586Z" transform="translate(-1902.54 -1392.9)" fill="#e3a5a6"/>
        </g>
        <g id="_Group_44" data-name="&lt;Group&gt;" transform="translate(10.586)">
          <g id="_Group_45" data-name="&lt;Group&gt;" transform="translate(0.473)">
            <path id="Path_6562" data-name="Path 6562" d="M3787.144,2402.859c-.732-8.758-5.24-12.365-8.726-13.232-7.036-1.745-13.985.746-16.83,5.935a13.672,13.672,0,0,0,0,10.257c1.527,3.675,25.556-2.962,25.556-2.962" transform="translate(-3760.597 -2389.073)" fill="#707070"/>
          </g>
          <g id="_Group_46" data-name="&lt;Group&gt;" transform="translate(0 18.495)">
            <path id="Path_6563" data-name="Path 6563" d="M3758.954,2486.91s-1.266,3.618-.936,3.885a4.638,4.638,0,0,0,1.659.312Z" transform="translate(-3757.963 -2486.91)" fill="#e3a5a6"/>
          </g>
          <g id="_Group_47" data-name="&lt;Group&gt;" transform="translate(0.897 4.912)">
            <path id="Path_6564" data-name="Path 6564" d="M3766.848,2417.232c-1.678,1.512-4.553,4.253-3.747,11.879.83,7.826,2.634,9.95,3.842,10.705.815.508,4.4-.378,6.059-1.4,2.077-1.287,6.664-4.616,8.061-9.108,1.644-5.293.82-11.583-2.808-13.232A11.372,11.372,0,0,0,3766.848,2417.232Z" transform="translate(-3762.961 -2415.056)" fill="#e3a5a6"/>
          </g>
          <g id="_Group_48" data-name="&lt;Group&gt;" transform="translate(2.696 2.792)">
            <path id="Path_6565" data-name="Path 6565" d="M3772.994,2408.336a14.359,14.359,0,0,0,4.751,10.994s1.047-2.852,3.359-2.193,2.294,3.883.587,5.631a3.276,3.276,0,0,1-3.5,1.005,10.912,10.912,0,0,0,2.844,5.953,12.755,12.755,0,0,0,13.261-4.852c5.145-6.5,3.624-16.824-4.4-19.862A15.51,15.51,0,0,0,3772.994,2408.336Z" transform="translate(-3772.98 -2403.841)" fill="#707070"/>
          </g>
        </g>
        <g id="_Group_49" data-name="&lt;Group&gt;" transform="translate(25.73 170.135)">
          <path id="Path_6566" data-name="Path 6566" d="M3846.155,3289.262l-3.835,5.61a12.29,12.29,0,0,0,5.565,1.249c3.432.14,4.375-1.048,4.5-1.333.58-1.308-.323-3.667-.573-5.7Z" transform="translate(-3842.32 -3289.09)" fill="#34a853"/>
        </g>
        <g id="_Group_50" data-name="&lt;Group&gt;" transform="translate(12.954 172.409)">
          <path id="Path_6567" data-name="Path 6567" d="M3784.145,3301.926s-4.646-.313-7.858-.739-5.755,1.225-5,2.618,2.513,2.55,5.276,3.525c2.359.835,5.187,1.444,7.648,2.219,2.524.8,4.14,1.7,5.565,1.189,1.594-.58,2.278-1.25,2.142-2.472s-1.291-5.157-1.291-5.157Z" transform="translate(-3771.153 -3301.119)" fill="#34a853"/>
        </g>
        <g id="_Group_51" data-name="&lt;Group&gt;" transform="translate(29.419 164.059)">
          <path id="Path_6568" data-name="Path 6568" d="M3869.25,3257.551s-.58,5.1-.625,6.191-4.724,1.444-5.61-.554l-.145-6.238Z" transform="translate(-3862.871 -3256.95)" fill="#dc8e8e"/>
        </g>
        <g id="_Group_52" data-name="&lt;Group&gt;" transform="translate(17.634 167.797)">
          <path id="Path_6569" data-name="Path 6569" d="M3810.669,3276.719l1.675,7.73s.158.945-3.668,1.544-9.821-2.106-10.841-2.658-1.144-1.643,2.612-1.425,5.086.229,5.086.229l-1.219-3.427Z" transform="translate(-3797.221 -3276.719)" fill="#e3a5a6"/>
        </g>
        <g id="_Group_53" data-name="&lt;Group&gt;" transform="translate(25.414 64.285)">
          <path id="Path_6570" data-name="Path 6570" d="M3850.944,2729.14c3.2,5.246,6.246,9.868,6.894,15.764,1.373,12.453-3.127,26.688-4.08,35.9a17.187,17.187,0,0,1,3.018,9c0,3.8-5.831,39.72-5.831,39.72s-4.238,1.361-6.38-.594l-4.005-66.072,2.109-8.044Z" transform="translate(-3840.559 -2729.14)" fill="#4285f4"/>
        </g>
        <g id="_Group_54" data-name="&lt;Group&gt;" transform="translate(25.414 85.177)">
          <path id="Path_6571" data-name="Path 6571" d="M3840.56,2852.479l2.109-8.043a49.534,49.534,0,0,0,11.434-4.775s-2.165,4.138-8.364,6.41l-3.231,10.34-.276,23.661Z" transform="translate(-3840.56 -2839.66)" fill="#337af1"/>
        </g>
        <g id="_Group_55" data-name="&lt;Group&gt;" transform="translate(5.11 64.285)">
          <path id="Path_6572" data-name="Path 6572" d="M3758.15,2729.14c1.712,2.943,5.807,7.979,4.937,12.817-1.056,5.86-4.05,9.983-13.213,12.854l-8.594,32.772s4.476,4.41,5.842,8.606,6.31,36.467,6.31,36.467-1.527,2.627-6.355,1.993c0,0-16.83-40.48-18.019-43.085a13.706,13.706,0,0,1-1.425-8.8c.533-4.243,6.269-50.676,6.269-50.676Z" transform="translate(-3727.461 -2729.14)" fill="#4285f4"/>
        </g>
        <g id="_Group_56" data-name="&lt;Group&gt;" transform="translate(9.481 31.745)">
          <path id="Path_6573" data-name="Path 6573" d="M3779.69,2559.979c-.669-1.863-2.791-3.412-4.694-2.866-5.991,1.719-15.312,3.97-17.082,4.526h0s.795,12.159-6.1,16.446c.326,2.707,2.076,14.4,2.076,14.4s8.3,4.234,15.126,2.147,9.122-5.091,9.122-5.091l-3.41-5.86c.732-1.905,3.55-8.374,5.374-14.389C3780.947,2566.454,3780.36,2561.843,3779.69,2559.979Z" transform="translate(-3751.81 -2557.002)" fill="#ea4335"/>
        </g>
        <g id="_Group_57" data-name="&lt;Group&gt;" transform="translate(24.423 56.115)">
          <path id="Path_6574" data-name="Path 6574" d="M3843.932,2685.92a58.832,58.832,0,0,1-8.892,4.627,15.985,15.985,0,0,0,7.959-2.322Z" transform="translate(-3835.04 -2685.92)" fill="#eb2211"/>
        </g>
        <g id="_Group_58" data-name="&lt;Group&gt;" transform="translate(9.675 46.205)">
          <path id="Path_6575" data-name="Path 6575" d="M3752.89,2639.188a12.6,12.6,0,0,0,5.744-5.688,12.694,12.694,0,0,1-5.744,9.376Z" transform="translate(-3752.89 -2633.5)" fill="#b7572e"/>
        </g>
        <g id="_Group_59" data-name="&lt;Group&gt;" transform="translate(0 36.381)">
          <path id="Path_6576" data-name="Path 6576" d="M3714.58,2581.53c-3.77,1.191-6.1,1.562-8.143,3.482-2.681,2.523-5.439,16.864-6,19.815-.98,5.132-2.061,10.461-1,12.854.767,1.729,4.92,3.025,6.744-2.572.39-1.195.461-1.723.8-2.792,1.714-5.35,4.308-15.582,4.308-15.582S3716.371,2593.768,3714.58,2581.53Z" transform="translate(-3698.996 -2581.53)" fill="#e3a5a6"/>
        </g>
      </g>
      <g id="_Group_60" data-name="&lt;Group&gt;" transform="translate(25.313 3.924)">
        <path id="Path_6577" data-name="Path 6577" d="M3797.643,2409.83c1.347.82,3.771,1.607,5.264,9.006a119.92,119.92,0,0,1,2.165,18.814c-.056,2.3-4.577,8.7-14.115,8.078s-13-6.488-13-6.488,4.682-2.011,4.321-10.609c0,0,1.643,3.427,6.179,1.713S3797.643,2409.83,3797.643,2409.83Z" transform="translate(-3777.96 -2409.83)" fill="#707070"/>
      </g>
    </g>
  </g>
</svg>
