<svg xmlns="http://www.w3.org/2000/svg" width="75.465" height="77.121" viewBox="0 0 75.465 77.121">
  <g id="Group_4680" data-name="Group 4680" transform="translate(-3671.741 -1035.091)">
    <g id="telephone" transform="translate(3671.741 1035.091)">
      <g id="Group_4672" data-name="Group 4672">
        <path id="Path_1366" data-name="Path 1366" d="M176.578,78.141a4.788,4.788,0,0,0-1.585-5.5l0,0a4.8,4.8,0,0,0-6.135.31,27.636,27.636,0,0,0-23.135.606,23,23,0,0,0-11.945,13.557,20.383,20.383,0,0,0,1.683,16.232l-1.59,8.394a1.533,1.533,0,0,0,1.659,1.81l9.425-.946a26.839,26.839,0,0,0,6.218,2.41,27.871,27.871,0,0,0,16.808-1.046,1.533,1.533,0,0,0-1.119-2.854,24.751,24.751,0,0,1-14.942.927,23.681,23.681,0,0,1-5.894-2.347,1.524,1.524,0,0,0-1.014-.177l-7.749.778,1.314-6.935a1.531,1.531,0,0,0-.187-1.066A17.392,17.392,0,0,1,136.7,88.031c3.286-10.407,15.513-16.471,27.26-13.519a24.249,24.249,0,0,1,3.438,1.142,4.781,4.781,0,0,0,7.221,4.86,17.9,17.9,0,0,1,4.561,18,18.543,18.543,0,0,1-3.473,6.316,1.533,1.533,0,0,0,2.356,1.961,21.591,21.591,0,0,0,4.04-7.355,20.954,20.954,0,0,0-5.524-21.3Zm-5.506-.327a1.715,1.715,0,1,1,2.405-.332,1.717,1.717,0,0,1-2.405.332Zm0,0" transform="translate(-112.807 -60.046)" fill="#1a73e8"/>
        <path id="Path_1367" data-name="Path 1367" d="M372.24,40.215a7.762,7.762,0,0,1,6.344,1.4,7.684,7.684,0,0,1,3.082,6.263,1.533,1.533,0,0,0,1.519,1.547h.014a1.532,1.532,0,0,0,1.532-1.519A10.838,10.838,0,0,0,371.59,37.219a1.533,1.533,0,1,0,.65,3Zm0,0" transform="translate(-314.591 -31.402)" fill="#1a73e8"/>
        <path id="Path_1368" data-name="Path 1368" d="M382.849,3.115A15.379,15.379,0,0,0,370.294.352a1.533,1.533,0,0,0,.651,3A12.324,12.324,0,0,1,385.891,15.5a1.532,1.532,0,0,0,1.52,1.545h.013a1.532,1.532,0,0,0,1.532-1.52,15.455,15.455,0,0,0-6.107-12.407Zm0,0" transform="translate(-313.492 0)" fill="#1a73e8"/>
        <path id="Path_1369" data-name="Path 1369" d="M37.413,227.6c-4.066-2.871-6.6-3.784-9.988-1.221a1.476,1.476,0,0,0-.2.177c-.7.089-3.306-.754-6.009-3.455-.623-.623-1.259-1.327-1.88-2.083-.631-.782-1.193-1.547-1.671-2.276-2.1-3.186-2.4-5.908-2.172-6.577a1.556,1.556,0,0,0,.211-.155c3.2-2.8,2.82-5.466.83-10.026-1.176-2.9-2.51-5.8-4.711-6.7-1.684-.69-4.185.288-5,.722a13.036,13.036,0,0,0-4.954,4.993c-2.113,3.789-2.154,8.593-1.487,11.824,2.026,9.833,13.924,24.43,23.144,28.4a19.745,19.745,0,0,0,7.566,1.566,14.463,14.463,0,0,0,4.323-.625,12.857,12.857,0,0,0,5.9-3.836c.592-.714,2.055-2.961,1.72-4.752-.437-2.338-3.011-4.231-5.616-5.97Zm1.532,8.771a9.975,9.975,0,0,1-4.448,2.863c-3.35,1.051-7.35.209-9.758-.831-3.892-1.675-8.789-5.833-13.1-11.122s-7.4-10.929-8.255-15.081h0c-.53-2.569-.544-6.654,1.164-9.715a9.962,9.962,0,0,1,3.707-3.773,5.87,5.87,0,0,1,2.209-.618.723.723,0,0,1,.2.022c1.2.492,2.489,3.679,3.041,5.04l.016.038c1.911,4.374,1.479,5.17.1,6.393a2.811,2.811,0,0,0-1.26,1.71c-.641,2.174.382,5.843,2.545,9.129.532.81,1.154,1.657,1.856,2.528.693.844,1.4,1.623,2.09,2.316,2.783,2.781,6.169,4.525,8.427,4.338a2.819,2.819,0,0,0,1.935-.889c1.476-1.1,2.343-1.36,6.246,1.4l.034.024c1.223.815,4.085,2.724,4.319,3.982a4.936,4.936,0,0,1-1.069,2.251Zm0,0" transform="translate(0.001 -165.658)" fill="#1a73e8"/>
        <path id="Path_1370" data-name="Path 1370" d="M183.7,184.31l-1.663,4.5-1.663-4.5,0-.009a1.546,1.546,0,0,0-1.507-1.054,1.654,1.654,0,0,0-1.164.464,1.544,1.544,0,0,0-.495,1.133,2,2,0,0,0,.039.391c.026.1.052.2.087.3l0,.014,3.127,7.847,0,0a2.471,2.471,0,0,0,.6.916,1.576,1.576,0,0,0,1.012.291,1.675,1.675,0,0,0,1.537-1.22l3.118-7.826a1.91,1.91,0,0,0,.135-.716,1.545,1.545,0,0,0-.487-1.137,1.653,1.653,0,0,0-1.168-.46,1.529,1.529,0,0,0-1.516,1.063Zm0,0" transform="translate(-150.508 -155.644)" fill="#1a73e8"/>
        <path id="Path_1371" data-name="Path 1371" d="M373.438,184.051a4.072,4.072,0,0,0-2.923-1.094h-2.671a1.668,1.668,0,0,0-1.672,1.684v7.9a1.615,1.615,0,0,0,.482,1.176,1.6,1.6,0,0,0,2.293,0,1.566,1.566,0,0,0,.482-1.146v-1.8h1.225a3.9,3.9,0,0,0,2.849-1.077,4.113,4.113,0,0,0-.065-5.638ZM371,187.528a.835.835,0,0,1-.608.265h-.96v-1.819h.973a.783.783,0,0,1,.6.261.928.928,0,0,1,.257.668A.851.851,0,0,1,371,187.528Zm0,0" transform="translate(-311.016 -155.399)" fill="#1a73e8"/>
        <path id="Path_1372" data-name="Path 1372" d="M251.993,182.7a5.194,5.194,0,0,0-3.926,1.619,5.744,5.744,0,0,0-1.525,4.093,5.818,5.818,0,0,0,1.533,4.136,5.467,5.467,0,0,0,7.818-.018,6.268,6.268,0,0,0,0-8.195A5.134,5.134,0,0,0,251.993,182.7Zm1.467,7.773a1.915,1.915,0,0,1-2.966.009,3.25,3.25,0,0,1-.595-2.053,3.074,3.074,0,0,1,.608-2,1.806,1.806,0,0,1,1.473-.7,1.777,1.777,0,0,1,1.485.7,3.2,3.2,0,0,1,.595,2.027A3.169,3.169,0,0,1,253.461,190.472Zm0,0" transform="translate(-209.406 -155.179)" fill="#1a73e8"/>
        <path id="Path_1373" data-name="Path 1373" d="M331.654,182.719a1.626,1.626,0,0,0-.482,1.146v8.064a1.631,1.631,0,0,0,2.784,1.15,1.556,1.556,0,0,0,.474-1.137v-8.077a1.633,1.633,0,0,0-.465-1.163,1.577,1.577,0,0,0-2.311.018Zm0,0" transform="translate(-281.288 -154.761)" fill="#1a73e8"/>
        <path id="Path_1374" data-name="Path 1374" d="M385.885,321.063l-.026.017a1.533,1.533,0,1,0,1.7,2.551l.026-.017a1.533,1.533,0,0,0-1.7-2.551Zm0,0" transform="translate(-327.158 -272.483)" fill="#1a73e8"/>
      </g>
    </g>
  </g>
</svg>
