<svg xmlns="http://www.w3.org/2000/svg" xmlns:xlink="http://www.w3.org/1999/xlink" width="375.507" height="304.212" viewBox="0 0 375.507 304.212">
  <defs>
    <linearGradient id="linear-gradient" x1="0.5" x2="0.5" y2="1" gradientUnits="objectBoundingBox">
      <stop offset="0" stop-color="#e9f2fe"/>
      <stop offset="1" stop-color="#c6d9fb"/>
    </linearGradient>
    <linearGradient id="linear-gradient-2" x1="4.932" y1="2.371" x2="-1.218" y2="-0.318" gradientUnits="objectBoundingBox">
      <stop offset="0" stop-color="#15c1c3"/>
      <stop offset="0.28" stop-color="#1badb5"/>
      <stop offset="0.73" stop-color="#2391a1"/>
      <stop offset="1" stop-color="#26879a"/>
    </linearGradient>
    <linearGradient id="linear-gradient-3" x1="3.989" y1="1.816" x2="-2.783" y2="-0.799" xlink:href="#linear-gradient-2"/>
    <linearGradient id="linear-gradient-4" y1="0.5" x2="1" y2="0.5" gradientUnits="objectBoundingBox">
      <stop offset="0" stop-color="#fbbc05"/>
      <stop offset="0.06" stop-color="#fbbc05"/>
      <stop offset="1" stop-color="#f1b507"/>
    </linearGradient>
    <linearGradient id="linear-gradient-5" x1="-0.001" y1="0.5" x2="0.999" y2="0.5" gradientUnits="objectBoundingBox">
      <stop offset="0" stop-color="#73a7fe"/>
      <stop offset="0.06" stop-color="#7da9f3"/>
      <stop offset="1" stop-color="#4285f4"/>
    </linearGradient>
    <linearGradient id="linear-gradient-6" y1="0.5" x2="0.999" y2="0.5" gradientUnits="objectBoundingBox">
      <stop offset="0" stop-color="#86aef1"/>
      <stop offset="0.06" stop-color="#70a6fe"/>
      <stop offset="1" stop-color="#4285f4"/>
    </linearGradient>
    <clipPath id="clip-path">
      <circle id="Ellipse_405" data-name="Ellipse 405" cx="50.204" cy="50.204" r="50.204" transform="translate(0 100.361) rotate(-88.24)" fill="#fbbc05"/>
    </clipPath>
    <clipPath id="clip-path-2">
      <path id="_Clipping_Path_" data-name="&lt;Clipping Path&gt;" d="M262.57,174.737l-.49,11.626,10.741,7.129a.731.731,0,0,0,1.075-.461l1.77-9.454L265.188,170.81Z" transform="translate(-262.08 -170.81)" fill="#f7b59c"/>
    </clipPath>
    <clipPath id="clip-path-3">
      <circle id="Ellipse_407" data-name="Ellipse 407" cx="47.733" cy="47.733" r="47.733" transform="translate(0 67.505) rotate(-45)" fill="#707070"/>
    </clipPath>
    <clipPath id="clip-path-4">
      <path id="_Clipping_Path_2" data-name="&lt;Clipping Path&gt;" d="M384.174,325.689c-3.656,8.314-10.017,15.129-14.917,8.526-3.656-4.921-.8-11.626.9-14.719a64.344,64.344,0,0,1,10.3-2.325h4.862s2.881,0,6.478.227A17.344,17.344,0,0,0,384.174,325.689Z" transform="translate(-367.484 -317.17)" fill="#f7b59c"/>
    </clipPath>
    <clipPath id="clip-path-5">
      <path id="_Clipping_Path_3" data-name="&lt;Clipping Path&gt;" d="M380.472,267.86s-3.407-4.9-11.7-1.06-18.748,22.587-5.747,39.207c0,0,2.764-4.051,12.781-5.118S380.472,267.86,380.472,267.86Z" transform="translate(-356.893 -265.331)" fill="#af73b1"/>
    </clipPath>
    <clipPath id="clip-path-6">
      <path id="_Clipping_Path_4" data-name="&lt;Clipping Path&gt;" d="M388.143,298.781l.519,12.328-11.392,7.561a.731.731,0,0,1-1.141-.49l-1.879-10.025,11.114-13.535Z" transform="translate(-374.25 -294.62)" fill="#f7b59c"/>
    </clipPath>
    <clipPath id="clip-path-7">
      <path id="_Clipping_Path_5" data-name="&lt;Clipping Path&gt;" d="M361.443,292.84a56.922,56.922,0,0,1,2.42-10.61c.1-.461,1.133-5.221,3.115-6.208s10.763,1.733,10.763,2.779c0,.826.446,6.69,3.415,9.242a4.7,4.7,0,0,0,2.837,1.17,6,6,0,0,1,4.519,2.559,59.28,59.28,0,0,1-6.259.219c-2.7,15.355-12.759,13.63-15.7,13.206S361.011,298.85,361.443,292.84Z" transform="translate(-361.396 -275.81)" fill="#f7b59c"/>
    </clipPath>
  </defs>
  <g id="Group_4880" data-name="Group 4880" transform="translate(-1921.547 1161.104)">
    <g id="Group_4715" data-name="Group 4715" transform="translate(1759 -2279)">
      <rect id="Rectangle_269" data-name="Rectangle 269" width="12.678" height="5.468" rx="2.734" transform="translate(256.957 1177.434) rotate(180)" fill="#4285f4"/>
      <path id="Path_1391" data-name="Path 1391" d="M719.226,400.58H747.58a2.736,2.736,0,0,1,2.732,2.736h0a2.732,2.732,0,0,1-2.732,2.732H719.226a2.736,2.736,0,0,1-2.736-2.732h0A2.736,2.736,0,0,1,719.226,400.58Z" transform="translate(-454.533 771.386)" fill="#ffb028"/>
      <path id="Path_1392" data-name="Path 1392" d="M2.736,0h25.2a2.732,2.732,0,0,1,2.732,2.732h0A2.732,2.732,0,0,1,27.94,5.468H2.736A2.736,2.736,0,0,1,0,2.732H0A2.732,2.732,0,0,1,2.732,0Z" transform="translate(306.868 1168.019) rotate(180)" fill="#22377a"/>
      <path id="Path_1393" data-name="Path 1393" d="M2.736,0H19.172A2.732,2.732,0,0,1,21.9,2.732h0a2.736,2.736,0,0,1-2.736,2.736H2.736A2.736,2.736,0,0,1,0,2.732H0A2.736,2.736,0,0,1,2.736,0Z" transform="translate(269.82 1168.014) rotate(180)" fill="#fbbc05"/>
      <rect id="Rectangle_270" data-name="Rectangle 270" width="12.678" height="5.468" rx="2.734" transform="translate(456.314 1212.444) rotate(180)" fill="#4285f4"/>
      <path id="Path_1395" data-name="Path 1395" d="M1036.032,478.37h28.354a2.736,2.736,0,0,1,2.736,2.736h0a2.736,2.736,0,0,1-2.736,2.732h-28.354a2.732,2.732,0,0,1-2.732-2.732h0A2.736,2.736,0,0,1,1036.032,478.37Z" transform="translate(-628.76 728.606)" fill="#fbbc05"/>
      <path id="Path_1396" data-name="Path 1396" d="M2.736,0h25.2a2.736,2.736,0,0,1,2.736,2.736h0A2.736,2.736,0,0,1,27.94,5.473H2.736A2.736,2.736,0,0,1,0,2.736H0A2.732,2.732,0,0,1,2.732,0Z" transform="translate(449.46 1203.024) rotate(180)" fill="#4285f4"/>
    </g>
    <ellipse id="floor" cx="187.754" cy="20.755" rx="187.754" ry="20.755" transform="translate(1921.547 -898.402)" fill="url(#linear-gradient)"/>
    <path id="Path_6628" data-name="Path 6628" d="M221.909,187.207c-15.026-5.85-12.189,16.35,3.656,30.06C225.58,217.266,236.928,193.027,221.909,187.207Z" transform="translate(1799.756 -1256.292)" fill="url(#linear-gradient-2)"/>
    <path id="Path_6630" data-name="Path 6630" d="M251.5,208.675c-11.107-4.607-11.407,16.693,2.311,31.252C253.808,239.926,267.73,215.395,251.5,208.675Z" transform="translate(1791.344 -1262.149)" fill="url(#linear-gradient-3)"/>
    <path id="Path_6636" data-name="Path 6636" d="M365.626,71.86H342.381v1.982a8.577,8.577,0,0,1-8.577,8.57H287.081a8.577,8.577,0,0,1-8.577-8.57V71.86H255.251a12.109,12.109,0,0,0-12.1,12.1V328.548a12.094,12.094,0,0,0,12.1,12.1H365.663a12.094,12.094,0,0,0,12.094-12.087V83.961a12.109,12.109,0,0,0-12.1-12.1Z" transform="translate(1791.392 -1225.545)" fill="none"/>
    <circle id="Ellipse_228" data-name="Ellipse 228" cx="50.204" cy="50.204" r="50.204" transform="translate(2003.527 -1021.406) rotate(-88.24)" fill="#34a853"/>
    <path id="Path_6667" data-name="Path 6667" d="M155.564,376.159c-8.5-5.045-6.537,34.849-4.095,44.925s4.073-.643,5.418-16.986S158.913,378.118,155.564,376.159Z" transform="translate(1816.599 -1307.222)" fill="#e8c8a1"/>
    <path id="Path_6668" data-name="Path 6668" d="M161.259,321.852a5.952,5.952,0,0,1,6.471,5.85,38.944,38.944,0,0,1-1.594,11.041c-3.21,11.509-3.81,25.592-8.482,27.186s-8.994-5.513-8.043-17.059c.848-10.442.336-23.559,3.554-25.343C154.781,322.627,158.24,322.129,161.259,321.852Z" transform="translate(1816.57 -1292.736)" fill="none" stroke="#e0bd96" stroke-miterlimit="10" stroke-width="0.94"/>
    <path id="Path_6669" data-name="Path 6669" d="M182.589,376c8.255-5.265,7.2,34.659,5.031,44.793s-4.022-.541-5.711-16.818S179.38,378.064,182.589,376Z" transform="translate(1808.256 -1307.168)" fill="#e8c8a1"/>
    <path id="Path_6670" data-name="Path 6670" d="M174.811,321.852a5.952,5.952,0,0,0-6.471,5.85,38.945,38.945,0,0,0,1.594,11.041c3.21,11.509,3.81,25.592,8.482,27.186s8.986-5.513,8.043-17.059c-.856-10.442-.344-23.559-3.554-25.343C181.253,322.627,177.824,322.129,174.811,321.852Z" transform="translate(1811.5 -1292.736)" fill="none" stroke="#e0bd96" stroke-miterlimit="10" stroke-width="0.94"/>
    <path id="Path_6671" data-name="Path 6671" d="M185.105,258.431a4.387,4.387,0,0,0-.168,4.256c2.925,5.908,13.045,25.512,17.256,23.259,4.943-2.654-4.994-19.413-8.445-23.837C190.867,258.424,187.116,255.382,185.105,258.431Z" transform="translate(1807.166 -1275.359)" fill="#e63729" stroke="#e0bd96" stroke-miterlimit="10" stroke-width="1.03"/>
    <path id="Path_6672" data-name="Path 6672" d="M149.673,258.431a4.387,4.387,0,0,1,.168,4.256c-2.925,5.908-13.045,25.512-17.249,23.26-4.95-2.654,4.994-19.413,8.445-23.837C143.911,258.424,147.669,255.382,149.673,258.431Z" transform="translate(1821.474 -1275.359)" fill="#e0bd96"/>
    <path id="Path_6673" data-name="Path 6673" d="M173.372,254.514a29.774,29.774,0,0,0-17.549,0c-9.571,3.268-7.261,10.529-7.151,16.584s.614,34.637,1.462,37.291c.431,1.323,7.378,2.245,14.47,2.267s14.032-.943,14.463-2.267c.848-2.669,1.338-31.244,1.462-37.291S182.943,257.76,173.372,254.514Z" transform="translate(1816.874 -1274.287)" fill="none" stroke="#e0bd96" stroke-miterlimit="10" stroke-width="1.03"/>
    <rect id="Rectangle_366" data-name="Rectangle 366" width="6.288" height="7.422" transform="translate(1978.751 -1026.156)" fill="#e8c8a1"/>
    <path id="Path_6674" data-name="Path 6674" d="M175.752,234.368c0,4.709-3.247,8.526-7.246,8.526s-7.246-3.817-7.246-8.526,3.247-8.518,7.246-8.518S175.752,229.667,175.752,234.368Z" transform="translate(1813.404 -1266.937)" fill="#e8c8a1"/>
    <line id="Line_87" data-name="Line 87" x1="0.278" y2="0.051" transform="translate(1999.137 -997.215)" fill="none"/>
    <line id="Line_88" data-name="Line 88" x1="0.278" y1="0.102" transform="translate(1964.244 -997.179)" fill="none"/>
    <g id="_Group_" data-name="&lt;Group&gt;" transform="translate(1951.91 -1022.844)">
      <path id="Path_6675" data-name="Path 6675" d="M187.535,285.08l4.351,1.031c0,1.462,0,3.612-.066,6.149-3.1-1.309-5.55-2.479-5.55-2.479Z" transform="translate(-145.229 -260.014)" fill="blue"/>
      <path id="Path_6676" data-name="Path 6676" d="M191.8,293.989v.943a24.487,24.487,0,0,1-5.535-3.422S188.695,292.68,191.8,293.989Z" transform="translate(-145.226 -261.743)" fill="#e63729"/>
      <path id="Path_6677" data-name="Path 6677" d="M192.145,280.791v1.046c-2.486-2.545-4.877-9.074-5.045-9.557C188.182,274.2,190.6,278.261,192.145,280.791Z" transform="translate(-145.452 -256.574)" fill="#e63729"/>
      <path id="Path_6678" data-name="Path 6678" d="M153.241,272.28c-.161.483-2.559,7.012-5.031,9.557v-1.046h0C149.709,278.247,152.115,274.2,153.241,272.28Z" transform="translate(-134.998 -256.574)" fill="#e63729"/>
      <path id="Path_6679" data-name="Path 6679" d="M153.87,291.49a24.416,24.416,0,0,1-5.55,3.451c0-.336,0-.651,0-.958C151.413,292.675,153.87,291.49,153.87,291.49Z" transform="translate(-135.028 -261.737)" fill="#e63729"/>
      <path id="Path_6680" data-name="Path 6680" d="M152.561,285.08l1.28,4.687s-2.457,1.185-5.564,2.493c0-2.537-.051-4.7-.066-6.149Z" transform="translate(-134.998 -260.014)" fill="blue"/>
      <path id="Path_6681" data-name="Path 6681" d="M176.843,275.017c-1.514-2.53-3.934-6.581-5.06-8.511.168.483,2.559,7.012,5.045,9.557v.834l-4.373-1.031-1.265,4.7a24.489,24.489,0,0,0,5.535,3.422c-.139,9.2-.475,22.4-1.141,24.334-.526,1.528-7.773,2.574-15.18,2.852H159.8c-7.4-.278-14.668-1.323-15.194-2.852-.665-1.938-.987-15.136-1.141-24.32a24.413,24.413,0,0,0,5.55-3.451l-1.28-4.687-4.351,1.031v-.834c2.471-2.545,4.87-9.074,5.031-9.557-1.126,1.916-3.532,5.967-5.045,8.5h0c-.782,1.294-1.309,2.194-1.309,2.194l1.323-.307c0,1.462,0,3.612.066,6.149-4.855,2.04-11.3,4.387-12.43,3.144-1.908-2.091-.351-8.774,2.267-14.9s6.186-11.59,10.917-15.509c4.234-3.5,16.2-4.972,16.2-4.972h.161c1.163.044,11.392,1.572,15.494,4.965a40.167,40.167,0,0,1,10.917,15.509c2.6,6.149,4.175,12.811,2.267,14.9-1.163,1.28-7.619-1.1-12.474-3.144.044-2.537.066-4.7.066-6.149l1.338.307S177.574,276.312,176.843,275.017Z" transform="translate(-130.149 -250.8)" fill="#ea4335"/>
      <path id="Path_6682" data-name="Path 6682" d="M201.2,294.149a3.13,3.13,0,0,1-2.4.124c-3.429-1.331-15.794-6.23-15.4-7.736.461-1.755,18.887,4.548,18.872,5.462C202.272,292.7,202.5,293.542,201.2,294.149Z" transform="translate(-144.456 -260.324)" fill="#e8c8a1"/>
      <path id="Path_6683" data-name="Path 6683" d="M133.6,294.149a3.137,3.137,0,0,0,2.4.124c3.437-1.331,15.8-6.23,15.4-7.736-.461-1.755-18.887,4.548-18.872,5.462C132.567,292.7,132.34,293.542,133.6,294.149Z" transform="translate(-130.783 -260.324)" fill="#e8c8a1"/>
      <path id="Path_6684" data-name="Path 6684" d="M156.148,286.906c-.475-.885,1.148-1.528,1.711-1.726a2.513,2.513,0,0,1,2.362.344c.168.344-2.011.951-2.011,1.082s1.024-.088,1.111.263-1.28.8-1.894.731A1.287,1.287,0,0,1,156.148,286.906Z" transform="translate(-137.109 -260.005)" fill="#e8c8a1"/>
      <path id="Path_6685" data-name="Path 6685" d="M183.8,286.846c.475-.885-1.148-1.528-1.7-1.726-.914-.329-2.23,0-2.362.344s1.982.98,2.025,1.082-1.024-.088-1.119.263,1.28.8,1.894.731a1.272,1.272,0,0,0,1.265-.695Z" transform="translate(-143.471 -259.989)" fill="#e8c8a1"/>
      <path id="Path_6686" data-name="Path 6686" d="M187,272.24h0c.168.483,2.559,7.012,5.045,9.557h0" transform="translate(-145.425 -256.563)" fill="none"/>
      <path id="Path_6687" data-name="Path 6687" d="M171.67,250.82c.636.08,11.392,1.572,15.494,4.965a40.167,40.167,0,0,1,10.917,15.509c2.6,6.149,4.175,12.811,2.267,14.9-1.163,1.28-7.619-1.1-12.474-3.144-3.1-1.309-5.55-2.479-5.55-2.479l1.265-4.7,4.351,1.031,1.338.307s-.526-.892-1.309-2.194c-1.514-2.53-3.934-6.581-5.06-8.511" transform="translate(-141.304 -250.805)" fill="none"/>
      <path id="Path_6688" data-name="Path 6688" d="M181.724,283.88h0v1.879c0,1.462,0,3.612-.066,6.149v.943c-.139,9.2-.475,22.4-1.141,24.334-.526,1.528-7.773,2.574-15.18,2.852h-.607c-7.4-.278-14.668-1.323-15.194-2.852-.665-1.938-.987-15.136-1.141-24.32v-.958c0-2.537-.051-4.7-.066-6.149V283.88" transform="translate(-135.03 -259.692)" fill="none"/>
      <path id="Path_6690" data-name="Path 6690" d="M148.384,266.514c-1.126,1.916-3.532,5.967-5.045,8.5h0c-.782,1.294-1.309,2.194-1.309,2.194l1.323-.307,4.351-1.031,1.28,4.687s-2.457,1.185-5.564,2.493c-4.855,2.04-11.3,4.387-12.43,3.144-1.908-2.091-.351-8.774,2.267-14.9s6.186-11.59,10.917-15.509c4.234-3.5,16.145-4.95,16.145-4.95" transform="translate(-130.141 -250.808)" fill="none"/>
      <path id="Path_6691" data-name="Path 6691" d="M148.19,281.857h0c2.471-2.545,4.87-9.074,5.031-9.557h0" transform="translate(-134.993 -256.579)" fill="none"/>
    </g>
    <path id="Path_6693" data-name="Path 6693" d="M206.3,294.754c-1.163,1.28-7.619-1.1-12.474-3.144.044-2.537.066-4.7.066-6.149l1.338.307s-.168-.292-.475-.782l10.4-2.325C207.043,287.925,207.92,292.985,206.3,294.754Z" transform="translate(1804.649 -1282.208)" fill="#e63729"/>
    <path id="Path_6694" data-name="Path 6694" d="M191.856,286.111c0,1.462,0,3.612-.066,6.149-3.1-1.309-5.55-2.479-5.55-2.479l1.265-4.7Z" transform="translate(1806.689 -1282.858)" fill="#e63729"/>
    <path id="Path_6695" data-name="Path 6695" d="M153.84,289.767s-2.457,1.185-5.564,2.493c0-2.537-.051-4.7-.066-6.149l4.351-1.031Z" transform="translate(1816.911 -1282.858)" fill="#e63729"/>
    <path id="Path_6696" data-name="Path 6696" d="M143.4,291.217c-4.855,2.04-11.3,4.387-12.43,3.144a4.614,4.614,0,0,1-.877-3.071,8.715,8.715,0,0,1,.037-.958,24.051,24.051,0,0,1,.812-4.387c.037-.212.11-.417.168-.629.139-.475.278-.958.439-1.462l.409-1.192c.161-.49.344-.98.541-1.462l9.952,3.437-.446.731,1.323-.307C143.352,286.516,143.374,288.68,143.4,291.217Z" transform="translate(1821.784 -1281.815)" fill="#e63729"/>
    <g id="_Group_2" data-name="&lt;Group&gt;" transform="translate(1964.809 -965.32)">
      <path id="Path_6697" data-name="Path 6697" d="M164.971,349.457c-4.387,19.391-10.061,57.326-10.061,57.326h-4.49c-2.384-22.733-2.259-27.669-2.325-39.3,0-1.514-.263-9.294-.292-10.559-.227-10.968,1.514-27.413,1.514-27.413H180.3s1.74,16.408,1.514,27.413c0,1.265-.278,9.045-.292,10.559-.066,11.633.278,16.335-2.1,39.061l-4.629-.066S169.366,368.849,164.971,349.457Z" transform="translate(-147.782 -329.481)" fill="url(#linear-gradient-4)"/>
    </g>
    <path id="Path_6698" data-name="Path 6698" d="M48.1,223.451H29.04l1-12.621H47.093Z" transform="translate(1943.203 -1218.077)" fill="#fff"/>
    <path id="Path_6699" data-name="Path 6699" d="M180.181,234.628s2.333-1.272,2.574.8-2.625,4.124-2.625,4.124" transform="translate(1808.331 -1269.193)" fill="#e8c8a1"/>
    <path id="Path_6700" data-name="Path 6700" d="M161.4,234.628s-2.325-1.272-2.574.8,2.625,4.124,2.625,4.124" transform="translate(1814.062 -1269.193)" fill="#e8c8a1"/>
    <path id="Path_6701" data-name="Path 6701" d="M160.793,227.617a3.5,3.5,0,0,1,.161-1.462,2.64,2.64,0,0,1,1.068-1.141,1.93,1.93,0,0,0,.548-.446,3.371,3.371,0,0,0,.336-1.024,1.879,1.879,0,0,1,1.536-1.294,11.49,11.49,0,0,1,2.194.38,5,5,0,0,0,2.047-.409l1.667-.578c.79-.271,1.74-.512,2.369.044s.578,1.382.863,2.091a2.566,2.566,0,0,0,2.194,1.565,2.376,2.376,0,0,1,1.309.2,1.674,1.674,0,0,1,.5,1.133,7.217,7.217,0,0,1,.051,2.442,3.129,3.129,0,0,1-1.2,2.04.943.943,0,0,0-.307.256.811.811,0,0,0-.088.322c-.124.892-.249,1.784-.38,2.676a.366.366,0,0,1-.351-.271,1.221,1.221,0,0,1,0-.49,7.743,7.743,0,0,0-1.682-5.491,2.194,2.194,0,0,0-.636-.563,2.011,2.011,0,0,0-.877-.183,7.641,7.641,0,0,0-2,.183,6.392,6.392,0,0,1-2.983.388c-.446-.117-.848-.373-1.3-.461a3.693,3.693,0,0,0-2.194.439,3.32,3.32,0,0,0-1.331.855,3.656,3.656,0,0,0-.6,1.462,10.58,10.58,0,0,0-.417,2.384,5.761,5.761,0,0,1-.1,1.587c-.453-.409-.219-2.493-.241-3.13Z" transform="translate(1813.534 -1265.728)" fill="#707070"/>
    <path id="Path_6702" data-name="Path 6702" d="M184.96,438.378a6.873,6.873,0,0,1-.775,3.5c-1.294,2.194-1.294,1.77-.994,2.574s5.55.124,5.55.124l-.475-6.244A21.557,21.557,0,0,0,184.96,438.378Z" transform="translate(1807.553 -1324.041)" fill="#343563"/>
    <path id="Path_6703" data-name="Path 6703" d="M151.549,438.378a6.837,6.837,0,0,1-.782,3.5c-1.287,2.194-1.287,1.77-.987,2.574s5.543.124,5.543.124l-.468-6.244A21.557,21.557,0,0,0,151.549,438.378Z" transform="translate(1816.533 -1324.041)" fill="#343563"/>
    <path id="Path_6704" data-name="Path 6704" d="M563.114,353.766c0-13.454-13.732-24.356-30.674-24.356s-30.71,10.9-30.71,24.356c0,12.021,10.968,22.009,25.38,24h-.044a15.2,15.2,0,0,1-4.19,13.162,15.034,15.034,0,0,0,14.858-13.162h0C552.146,375.775,563.114,365.787,563.114,353.766Z" transform="translate(1721.886 -1294.774)" fill="#fbbc05"/>
    <circle id="Ellipse_233" data-name="Ellipse 233" cx="2.15" cy="2.15" r="2.15" transform="translate(2241.369 -943.15)" fill="#fff"/>
    <circle id="Ellipse_234" data-name="Ellipse 234" cx="2.15" cy="2.15" r="2.15" transform="translate(2262.991 -943.15)" fill="#fff"/>
    <circle id="Ellipse_235" data-name="Ellipse 235" cx="2.15" cy="2.15" r="2.15" transform="translate(2252.176 -943.15)" fill="#fff"/>
    <path id="Path_6706" data-name="Path 6706" d="M561.657,257.99c-.877-.168-4.3.483-4.972,1.075-2.925,2.545-8.189,8.774-7.948,14.046.292,6.442,2.735,7.509,2.735,12.1s-1.762,13.754-1.762,14.924,18.836.68,19.223.2-.212-34.264-1.367-37.562S565.387,258.721,561.657,257.99Z" transform="translate(1709.252 -1275.569)" fill="none" stroke="#e0bd96" stroke-miterlimit="10" stroke-width="0.83"/>
    <path id="Path_6707" data-name="Path 6707" d="M558.749,323.07a5.221,5.221,0,0,1-4.387,6.281,34.052,34.052,0,0,1-9.8-.168c-10.383-1.535-22.726-.5-24.627-4.387s3.817-8.445,13.988-8.9c9.184-.4,20.561-2.3,22.47.307C557.36,317.513,558.179,320.474,558.749,323.07Z" transform="translate(1717.089 -1290.862)" fill="none" stroke="#e0bd96" stroke-miterlimit="10" stroke-width="0.82"/>
    <path id="Path_6708" data-name="Path 6708" d="M554.646,318.418a5.221,5.221,0,0,1-2.318,7.312,34.2,34.2,0,0,1-9.411,2.757c-10.368,1.623-21.848,6.281-24.817,3.122s1.133-9.191,10.7-12.65c8.65-3.122,18.953-8.306,21.548-6.391C551.67,313.5,553.33,316.107,554.646,318.418Z" transform="translate(1717.741 -1290.136)" fill="none" stroke="#e0bd96" stroke-miterlimit="10" stroke-width="0.82"/>
    <path id="Path_6709" data-name="Path 6709" d="M564.2,251.511c1.185-2.866,1.17-6.127,1.36-9.177a24.283,24.283,0,0,0-.951-9.506c-1.462-4.256-4.526-7.795-9.25-8.2a7.831,7.831,0,0,0-3.949.585,6.025,6.025,0,0,0-2.815,2.713c-.731,1.367-.848,2.925-1.521,4.307a28.1,28.1,0,0,0-1.631,3.656,13.486,13.486,0,0,1-1.316,3.327,10.714,10.714,0,0,1-2.676,2.618c-1.462,1.089-3.32,2.325-3.093,4.387.11,1.038.731,1.923.9,2.925a7.823,7.823,0,0,1-.439,3.524,6.164,6.164,0,0,0,1.7,5.63,7.034,7.034,0,0,0,4.987,1.989,16,16,0,0,0,3.29-.168,4.168,4.168,0,0,0,2.669-1.813l5.989-7.2,1.462-1.733a5.278,5.278,0,0,1,.775-.929c.5-.351.175-.322.731-.073C561.732,248.974,563.056,250.561,564.2,251.511Z" transform="translate(1712.044 -1266.597)" fill="#707070"/>
    <rect id="Rectangle_367" data-name="Rectangle 367" width="4.636" height="6.829" transform="translate(2270.04 -1015.283) rotate(180)" fill="#e8c8a1"/>
    <path id="Path_6710" data-name="Path 6710" d="M556.037,247.328s-4.387.395-4.972-1.024-.877-8.972,2.34-12.387,8.979-2.588,11.027.534-2.3,12.833-4.833,12.928a23.025,23.025,0,0,1-3.561-.051Z" transform="translate(1708.724 -1268.512)" fill="#e8c8a1"/>
    <path id="Path_6711" data-name="Path 6711" d="M551.27,279.2" transform="translate(1708.569 -1281.278)" fill="none" stroke="#e0bd96" stroke-miterlimit="10" stroke-width="0.83"/>
    <path id="Path_6712" data-name="Path 6712" d="M570.35,258.55" transform="translate(1703.441 -1275.727)" fill="#30a597"/>
    <path id="Path_6713" data-name="Path 6713" d="M574.62,261.35" transform="translate(1702.293 -1276.48)" fill="#e8c8a1"/>
    <path id="Path_6714" data-name="Path 6714" d="M519.551,322.333c6.647-5.9,14.266,25.775,14.4,34.22s-3.9.431-9.008-12.05S516.941,324.658,519.551,322.333Z" transform="translate(1717.358 -1292.676)" fill="#e8c8a1"/>
    <path id="Path_6715" data-name="Path 6715" d="M534.847,371.6a16.416,16.416,0,0,1-1.85,3.312c-1.367,1.982-1.945,1.843-1.813,2.369s7.583-2.406,7.583-2.406l-1.506-4.2A19.323,19.323,0,0,0,534.847,371.6Z" transform="translate(1713.974 -1305.865)" fill="#4285f4"/>
    <path id="Path_6716" data-name="Path 6716" d="M517.159,331.393c8.7-1.8-.5,29.453-4.592,36.838s-3.6-1.572-1.8-14.931S513.751,332.1,517.159,331.393Z" transform="translate(1719.816 -1295.287)" fill="#e8c8a1"/>
    <path id="Path_6717" data-name="Path 6717" d="M507.307,382.3a16.714,16.714,0,0,1-3.261,1.952c-2.194,1.038-2.6.622-2.757,1.148s7.773,1.7,7.773,1.7l.8-4.387A19.923,19.923,0,0,0,507.307,382.3Z" transform="translate(1722.005 -1308.991)" fill="#4285f4"/>
    <path id="Path_6718" data-name="Path 6718" d="M535.587,307.36h-21.2l-9.03-19.413a1.338,1.338,0,1,1,2.42-1.133l8.321,17.871h19.472a1.338,1.338,0,1,1,0,2.676Z" transform="translate(1720.954 -1283.1)" fill="#ea4335"/>
    <path id="Path_6719" data-name="Path 6719" d="M560.78,256.49s7.648-.292,8.007,8.241c0,0,1.462,34.886.994,35.778s-20.8.892-21.249-.146,3.005-13.673,1.894-18.017-2.727-7.97-2.676-11.765C547.793,267.458,552.861,257.389,560.78,256.49Z" transform="translate(1709.516 -1275.173)" fill="#fbbc05"/>
    <path id="Path_6720" data-name="Path 6720" d="M537.848,316.49s-19.742,5.053-23.077,9.732S508,360.889,508,360.889l5.681,1.221c3.656-7.685,8.138-25.636,10.032-26.323s20.547-4.533,20.547-4.533l.292-10.851Z" transform="translate(1720.2 -1291.301)" fill="url(#linear-gradient-5)"/>
    <path id="Path_6721" data-name="Path 6721" d="M540.154,315.513c-7.919-1-21.687-1.711-22.952,3.144-2.1,8.043,11.911,36.085,11.911,36.085l4.8-1.667c-1.557-13.264-5.389-23.969-4.8-24.861s14.119,4.906,25.592,3.568,6.318-15.355,6.318-15.355Z" transform="translate(1717.785 -1290.844)" fill="url(#linear-gradient-6)"/>
    <path id="Path_6722" data-name="Path 6722" d="M561.789,265.7a3.356,3.356,0,0,1,3.159,1.6c3.071,4.775,13.1,20.942,9.718,23.4-3.978,2.925-12.014-11.962-13.79-16.547C559.4,270.3,558.747,266.061,561.789,265.7Z" transform="translate(1706.321 -1277.644)" fill="#e8c8a1"/>
    <path id="Path_6723" data-name="Path 6723" d="M567.4,294.8a3.576,3.576,0,0,0-3.261-.877c-5.85,1.163-26.952,5.557-27.566,8.1-.731,2.925,29.979-1.989,30.667-3.459C567.776,297.428,568.748,296.149,567.4,294.8Z" transform="translate(1712.523 -1285.211)" fill="#e8c8a1"/>
    <path id="Path_6724" data-name="Path 6724" d="M537.911,303.679c-.336-1.821-3.415-.892-4.453-.541-1.689.585-3.225,2.537-3.005,3.217s3.985-.877,4.168-.768-1.587,1.046-1.316,1.66,2.764-.322,3.6-1.075A2.368,2.368,0,0,0,537.911,303.679Z" transform="translate(1714.171 -1287.564)" fill="#e8c8a1"/>
    <path id="Path_6725" data-name="Path 6725" d="M567.929,251.475s.461-6.581-2.552-8.694-10.039-5.243-11.977-10.113c0,0,.388-6.515,5.491-6.106s9.381,7.626,9.5,10.551S567.929,251.475,567.929,251.475Z" transform="translate(1707.997 -1267.124)" fill="#707070"/>
    <g id="Group_4869" data-name="Group 4869" transform="translate(107 480)">
      <path id="Rectangle_1012" data-name="Rectangle 1012" d="M15.828,0H120.257a16.026,16.026,0,0,1,15.828,16.218V265.407a16.027,16.027,0,0,1-15.828,16.218H15.828A16.026,16.026,0,0,1,0,265.406V16.218A16.026,16.026,0,0,1,15.828,0Z" transform="translate(1933.274 -1641.104)" fill="#213458"/>
      <path id="Path_11118" data-name="Path 11118" d="M13.9,0H120.808a13.9,13.9,0,0,1,13.9,13.9V264.439a13.9,13.9,0,0,1-13.9,13.9H13.9A13.9,13.9,0,0,1,0,264.439V13.9A13.9,13.9,0,0,1,13.9,0Z" transform="translate(1931.563 -1637.816)" fill="#4285f4"/>
      <path id="Path_11117" data-name="Path 11117" d="M1.217,0H119.711a1.217,1.217,0,0,1,1.217,1.217V218.252a1.217,1.217,0,0,1-1.217,1.217H1.217A1.217,1.217,0,0,1,0,218.251V1.217A1.217,1.217,0,0,1,1.217,0Z" transform="translate(1938.452 -1608.986)" fill="#fff"/>
      <path id="Path_7953" data-name="Path 7953" d="M7.743,2.984A1.492,1.492,0,1,1,7.743,0H35.379a1.492,1.492,0,1,1,0,2.984ZM2.764,0a1.492,1.492,0,0,1,0,2.984H1.493A1.492,1.492,0,1,1,1.493,0Z" transform="translate(1980.48 -1623.143)" fill="#e6e0de" fill-rule="evenodd"/>
      <path id="Path_7954" data-name="Path 7954" d="M9.762,19.524A9.761,9.761,0,1,0,0,9.762a9.761,9.761,0,0,0,9.762,9.762Z" transform="translate(1989.154 -1385.191)" fill="#fff" fill-rule="evenodd"/>
      <g id="Group_1705" data-name="Group 1705" transform="translate(1946.169 -1604.024)">
        <path id="Path_7967" data-name="Path 7967" d="M.36.726A.363.363,0,1,1,.36,0H8.3a.363.363,0,0,1,0,.726Zm0,5.214a.361.361,0,0,1,0-.723H8.3a.361.361,0,1,1,0,.723Zm0-2.607a.361.361,0,1,1,0-.723H8.3a.363.363,0,0,1,0,.726Z" transform="translate(0.003 0)" fill="#4285f4" fill-rule="evenodd"/>
        <path id="Path_7968" data-name="Path 7968" d="M10.647.324ZM1.1.723H5.762V4.475H1.1a.366.366,0,0,1-.264-.11A.372.372,0,0,1,.723,4.1v-3A.378.378,0,0,1,1.1.723ZM9.869,0H1.1A1.1,1.1,0,0,0,0,1.1v3A1.1,1.1,0,0,0,1.1,5.2H9.869a1.1,1.1,0,0,0,.753-.3l.025-.022A1.1,1.1,0,0,0,10.97,4.1v-3A1.1,1.1,0,0,0,9.869,0Z" transform="translate(94.523 0.37)" fill="#4285f4" fill-rule="evenodd"/>
      </g>
      <ellipse id="Ellipse_385" data-name="Ellipse 385" cx="11.94" cy="11.94" rx="11.94" ry="11.94" transform="translate(2019.099 -1423.009) rotate(-22.5)" fill="#34a853"/>
      <path id="Path_10761" data-name="Path 10761" d="M990.115,817.908a3.167,3.167,0,0,0,3.167-3.167v-5.006a3.167,3.167,0,1,0-6.316,0v5.005a3.167,3.167,0,0,0,3.15,3.167Zm-2.1-8.167a2.114,2.114,0,1,1,4.228,0v5.005a2.113,2.113,0,1,1-4.227,0Z" transform="translate(1044.858 -2230.719)" fill="#fff"/>
      <path id="Path_10762" data-name="Path 10762" d="M990.5,821.021a4,4,0,0,0,3.991-3.991.533.533,0,0,0-1.065,0,2.933,2.933,0,0,1-2.926,2.935h-1.311a2.942,2.942,0,0,1-2.933-2.933.533.533,0,1,0-1.057,0,4,4,0,0,0,3.991,3.991h.127v.9h-1.867a.533.533,0,1,0,0,1.057h4.793a.533.533,0,1,0,0-1.057h-1.867v-.9Z" transform="translate(1045.133 -2232.259)" fill="#fff"/>
    </g>
    <g id="Group_4874" data-name="Group 4874" transform="translate(2003.527 -1121.767)" clip-path="url(#clip-path)">
      <path id="Path_11169" data-name="Path 11169" d="M61.165,0A61.165,61.165,0,1,1,0,61.165,61.165,61.165,0,0,1,61.165,0Z" transform="translate(-34.769 51.732) rotate(-45)" fill="#fbbc05"/>
      <path id="Path_11170" data-name="Path 11170" d="M255.175,192.08s-13.1,0-17.688,2.289-6.873,8.189-5.893,12.116-4.256,13.754,1.309,19.011c5,4.7,8.943,4.131,10.646,3.488.19-.073.358-.146.49-.212,1.309-.658,0,17.351,0,17.351s33.072,1.967,35.039,0,2.618-43.221-1.967-47.806-17.351-6.223-17.351-6.223Z" transform="translate(-208.68 -136.093)" fill="#4285f4"/>
      <path id="_Clipping_Path_6" data-name="&lt;Clipping Path&gt;" d="M262.57,174.737l-.49,11.626,10.741,7.129a.731.731,0,0,0,1.075-.461l1.77-9.454L265.188,170.81Z" transform="translate(-217.223 -130.376)" fill="#f7b59c"/>
      <g id="Group_4873" data-name="Group 4873" transform="translate(44.857 40.434)" clip-path="url(#clip-path-2)">
        <path id="Path_11171" data-name="Path 11171" d="M261.388,183.5s1.638,1.309,2.925,0c0,0,7.531,12.767,14.083,10.478s-6.881-12.774-6.881-12.774L264.678,176l-3.948,2.925Z" transform="translate(-261.717 -172.205)" fill="#f7b59c" opacity="0.45"/>
      </g>
      <path id="Path_11172" data-name="Path 11172" d="M259.274,160.346c5.243-.329,5.893-8.84,5.893-9.827s8.189-3.6,10.156-2.618,2.362,6.939,2.457,7.371c2.874-1.748,5.4-7.963,4.087-11.626-1.631-4.585-3.6-2.925-4.906-1.967s-1.309-3.6-8.189-7.531.98,4.585-7.2,3.934-8.84,7.531-8.84,7.531c-4.256,0-7.21,3.6-3.934,7.2s.658,3.927,0,7.2c-.336,1.711,2.969,2.435,6.215,2.742A5.667,5.667,0,0,1,259.274,160.346Z" transform="translate(-213.276 -120.24)" fill="#707070"/>
      <path id="Path_11173" data-name="Path 11173" d="M273.15,170.631c6.025,2.618,11.626-.417,13.63-1.74-1.462-2.3-2.713-4.621-2.822-6.778a17.551,17.551,0,0,0-.417-2.925l.08-.051c-.1-.431-1.068-4.921-2.925-5.85s-10.156,1.638-10.156,2.618c0,.782-.409,6.318-3.21,8.723A11.151,11.151,0,0,0,273.15,170.631Z" transform="translate(-218.634 -125.612)" fill="#f7b59c"/>
      <path id="Path_11174" data-name="Path 11174" d="M284.216,173.128c-2,1.323-7.6,4.387-13.63,1.74a11.151,11.151,0,0,1-5.85-6.018,4.453,4.453,0,0,1-2.683,1.1,5.667,5.667,0,0,0-4.263,2.413,57.1,57.1,0,0,0,5.9.2c1.638,18.668,21.285,17.359,24.561,12.43C290.409,181.807,286.95,177.478,284.216,173.128Z" transform="translate(-216.07 -129.849)" fill="#707070"/>
      <path id="Path_11175" data-name="Path 11175" d="M0,0H15.063V7.736H0Z" transform="matrix(-0.998, -0.055, 0.055, -0.998, 50.532, 46.64)" fill="#ea4335"/>
      <path id="Path_11176" data-name="Path 11176" d="M248.417,180.381s0-10.149,1.638-11.458,5.564-6.223,7.531-4.914.98,1.967,2.289,2.618.658,1.638,1.638,2.3,2.3,3.276,1.638,3.276h-2.925s-4.585,8.511-6.581,8.182l-.329,1.309H248.41Z" transform="translate(-213.549 -128.489)" fill="#f7b59c"/>
      <path id="Path_11177" data-name="Path 11177" d="M250.616,186.961s.658,32.414-2.289,34.366-10.807-.329-9.169-6.873S246.69,184,246.69,184Z" transform="translate(-211.002 -133.921)" fill="#f7b59c"/>
    </g>
    <g id="Group_4879" data-name="Group 4879" transform="translate(2070.593 -1038.408)" clip-path="url(#clip-path-3)">
      <circle id="Ellipse_406" data-name="Ellipse 406" cx="59.023" cy="59.023" r="59.023" transform="translate(-15.966 67.505) rotate(-45)" fill="#ea4335"/>
      <path id="_Clipping_Path_7" data-name="&lt;Clipping Path&gt;" d="M384.174,325.689c-3.656,8.314-10.017,15.129-14.917,8.526-3.656-4.921-.8-11.626.9-14.719a64.344,64.344,0,0,1,10.3-2.325h4.862s2.881,0,6.478.227A17.344,17.344,0,0,0,384.174,325.689Z" transform="translate(-312.622 -253.076)" fill="#f7b59c"/>
      <g id="Group_4875" data-name="Group 4875" transform="translate(54.862 64.094)" clip-path="url(#clip-path-4)">
        <path id="Path_11178" data-name="Path 11178" d="M375.626,317.17c0,.424-.212,7.027-.212,7.027l-4.044-6.815Z" transform="translate(-368.528 -317.17)" fill="#f7b59c" opacity="0.45"/>
      </g>
      <path id="Path_11179" data-name="Path 11179" d="M358.715,323.849c1.85-1.85,4.958-3.247,8.1-4.27-1.7,3.093-4.555,9.8-.9,14.719,4.9,6.581,11.29-.212,14.916-8.526a17.344,17.344,0,0,1,7.626-8.292c4.3.278,9.623.877,12.27,2.194,4.862,2.428,7.312,8.679,6.252,12.847s4.512,14.58-1.389,20.137c-5.3,4.987-9.506,4.387-11.29,3.7-.2-.08-.373-.154-.519-.227-1.389-.731,0,18.4,0,18.4s-35.1,2.084-37.152,0S353.86,328.711,358.715,323.849Z" transform="translate(-309.281 -253.159)" fill="#ffca33"/>
      <path id="_Clipping_Path_8" data-name="&lt;Clipping Path&gt;" d="M380.472,267.86s-3.407-4.9-11.7-1.06-18.748,22.587-5.747,39.207c0,0,2.764-4.051,12.781-5.118S380.472,267.86,380.472,267.86Z" transform="translate(-309.775 -239.142)" fill="#707070"/>
      <g id="Group_4876" data-name="Group 4876" transform="translate(47.118 26.189)" clip-path="url(#clip-path-5)">
        <path id="Path_11180" data-name="Path 11180" d="M259.2,204.856l-9.169,3.619,6.4-4.475Z" transform="translate(-233.909 -204.023)" fill="#707070" opacity="0.52"/>
        <path id="Path_11181" data-name="Path 11181" d="M362.8,288.16s-8.445,21.424,6.471,21.848S362.8,288.16,362.8,288.16" transform="translate(-357.842 -271.468)" fill="#707070" opacity="0.52"/>
      </g>
      <path id="_Clipping_Path_9" data-name="&lt;Clipping Path&gt;" d="M388.143,298.781l.519,12.328-11.392,7.561a.731.731,0,0,1-1.141-.49l-1.879-10.025,11.114-13.535Z" transform="translate(-314.44 -247.015)" fill="#f7b59c"/>
      <g id="Group_4877" data-name="Group 4877" transform="translate(59.81 47.605)" clip-path="url(#clip-path-6)">
        <path id="Path_11182" data-name="Path 11182" d="M387.088,308.084s-2.062-1.77-3.451-3.159c0,0-3.656,10.442-14.485,9.162-7.312-.863,7.173-8.438,7.173-8.438l7.268-5.5,4.19,3.071Z" transform="translate(-372.325 -296.106)" fill="#f7b59c" opacity="0.45"/>
      </g>
      <path id="_Clipping_Path_10" data-name="&lt;Clipping Path&gt;" d="M361.443,292.84a56.922,56.922,0,0,1,2.42-10.61c.1-.461,1.133-5.221,3.115-6.208s10.763,1.733,10.763,2.779c0,.826.446,6.69,3.415,9.242a4.7,4.7,0,0,0,2.837,1.17,6,6,0,0,1,4.519,2.559,59.28,59.28,0,0,1-6.259.219c-2.7,15.355-12.759,13.63-15.7,13.206S361.011,298.85,361.443,292.84Z" transform="translate(-310.985 -241.958)" fill="#f7b59c"/>
      <g id="Group_4878" data-name="Group 4878" transform="translate(50.41 33.851)" clip-path="url(#clip-path-7)">
        <path id="Path_11183" data-name="Path 11183" d="M374.28,274.62c.636,0,.731,13.483,13.264,15.692s-4.526-12.92-4.526-12.92Z" transform="translate(-364.859 -275.49)" fill="#f7b59c" opacity="0.45"/>
      </g>
      <path id="Path_11184" data-name="Path 11184" d="M371.3,275.158s3.656,12.569,13.959,13.637-8.416-15.355-8.416-15.355H366.405l-3.2,7.882S369.389,279.414,371.3,275.158Z" transform="translate(-311.473 -241.321)" fill="#707070"/>
      <path id="Path_11185" data-name="Path 11185" d="M374.25,271.822c.234,0,10.237-5.542,14.514-4.263s13.849,14.7,12.569,28.122-19.391,11.509-19.391,11.509,9.374-12.145.856-25.994l-6.4-5.967Z" transform="translate(-314.44 -239.689)" fill="#707070"/>
      <rect id="Rectangle_1099" data-name="Rectangle 1099" width="15.969" height="8.204" transform="matrix(0.577, -0.817, 0.817, 0.577, 68.429, 55.307)" fill="#ea4335"/>
      <path id="Path_11186" data-name="Path 11186" d="M402.835,305.317s0-9.323-1.506-10.529-5.118-5.711-6.917-4.512-.9,1.806-2.1,2.406-.607,1.506-1.506,2.106S388.7,297.8,389.3,297.8h2.706s4.212,7.817,6.018,7.517l.3,1.2h4.512Z" transform="translate(-318.443 -245.793)" fill="#f7b59c"/>
      <path id="Path_11187" data-name="Path 11187" d="M400.8,308.42s-.139,37.65,2.983,39.733,11.458-.351,9.725-7.312-7.985-32.29-7.985-32.29Z" transform="translate(-321.577 -250.724)" fill="#f7b59c"/>
      <path id="Path_11188" data-name="Path 11188" d="M373.55,273.46v.943c0,.329.037.658.066.98a17.1,17.1,0,0,0,.307,1.93,15.53,15.53,0,0,0,1.316,3.656,15.355,15.355,0,0,0,2.194,3.173,17.322,17.322,0,0,0,2.852,2.53,17.1,17.1,0,0,1-2.647-2.7,15.273,15.273,0,0,1-1.894-3.232,14.923,14.923,0,0,1-1.009-3.568,15.694,15.694,0,0,1-.168-1.843c0-.307,0-.614,0-.914v-.461l.044-.49Z" transform="translate(-314.252 -241.327)" fill="#707070"/>
    </g>
    <path id="Path_11189" data-name="Path 11189" d="M519.56,415.235a122.387,122.387,0,0,0-9.615-8.57l-7.246,7.246-28.985-28.992,7.246-7.239A110.053,110.053,0,0,0,462.8,359.51s-8.687,7.985-9.264,14.324c-.782,8.475,8.189,23.888,22.28,37.979s29.5,23.062,37.979,22.28c6.332-.585,14.324-9.264,14.324-9.264A123.39,123.39,0,0,0,519.56,415.235Z" transform="translate(1734.854 -1302.865)" fill="#34a853"/>
  </g>
</svg>
