<svg xmlns="http://www.w3.org/2000/svg" xmlns:xlink="http://www.w3.org/1999/xlink" width="453.406" height="381.108" viewBox="0 0 453.406 381.108">
  <defs>
    <linearGradient id="linear-gradient" x1="0.5" x2="0.5" y2="1" gradientUnits="objectBoundingBox">
      <stop offset="0" stop-color="#eff6ff"/>
      <stop offset="1" stop-color="#c4d8fb"/>
    </linearGradient>
  </defs>
  <g id="Group_6155" data-name="Group 6155" transform="translate(-313 -2473)">
    <ellipse id="floor" cx="187.754" cy="43.255" rx="187.754" ry="43.255" transform="translate(351.547 2767.598)" fill="url(#linear-gradient)"/>
    <g id="Group_6153" data-name="Group 6153" transform="translate(-1218.101 1530)">
      <g id="Group_5761" data-name="Group 5761" transform="translate(-9566 1668)">
        <path id="Rectangle_1012" data-name="Rectangle 1012" d="M20.4,0H155.032a20.661,20.661,0,0,1,20.4,20.907V342.156a20.661,20.661,0,0,1-20.4,20.907H20.4A20.661,20.661,0,0,1,0,342.155V20.907A20.661,20.661,0,0,1,20.4,0Z" transform="translate(11237.306 -725)" fill="#213458"/>
        <path id="Path_11118" data-name="Path 11118" d="M17.915,0H155.743a17.916,17.916,0,0,1,17.916,17.916V340.908a17.915,17.915,0,0,1-17.915,17.915H17.915A17.915,17.915,0,0,1,0,340.908V17.915A17.915,17.915,0,0,1,17.915,0Z" transform="translate(11235.101 -720.761)" fill="#4285f4" stroke="#34a853" stroke-width="0.2"/>
        <path id="Path_11117" data-name="Path 11117" d="M1.568,0h152.76A1.568,1.568,0,0,1,155.9,1.568v279.8a1.568,1.568,0,0,1-1.568,1.568H1.568A1.568,1.568,0,0,1,0,281.363V1.568A1.568,1.568,0,0,1,1.568,0Z" transform="translate(11244.164 -684.558)" fill="#fff" stroke="#d5d5d5" stroke-width="0.2"/>
        <path id="Path_7953" data-name="Path 7953" d="M9.982,3.847A1.923,1.923,0,1,1,9.982,0H45.609a1.923,1.923,0,1,1,0,3.847ZM3.563,0a1.923,1.923,0,1,1,0,3.847H1.924A1.923,1.923,0,1,1,1.924,0Z" transform="translate(11298.163 -701.845)" fill="#fff" fill-rule="evenodd"/>
        <path id="Path_7954" data-name="Path 7954" d="M12.585,25.169A12.584,12.584,0,1,0,0,12.585,12.584,12.584,0,0,0,12.585,25.169Z" transform="translate(11309.346 -395.083)" fill="#fff" fill-rule="evenodd"/>
        <g id="Group_1705" data-name="Group 1705" transform="translate(11253.931 -677.197)">
          <path id="Path_7967" data-name="Path 7967" d="M.465.936A.468.468,0,1,1,.465,0H10.7a.468.468,0,0,1,0,.936Zm0,6.722a.466.466,0,0,1,0-.932H10.7a.466.466,0,0,1,0,.932Zm0-3.361a.468.468,0,1,1,0-.936H10.7a.468.468,0,0,1,0,.936Z" transform="translate(0.003 0)" fill="#4285f4" fill-rule="evenodd"/>
          <path id="Path_7968" data-name="Path 7968" d="M13.725.418ZM1.419.932H7.428V5.769H1.419a.471.471,0,0,1-.341-.142.479.479,0,0,1-.147-.341V1.419A.488.488,0,0,1,1.419.932ZM12.722,0H1.419A1.424,1.424,0,0,0,0,1.419V5.286A1.424,1.424,0,0,0,1.419,6.7h11.3a1.416,1.416,0,0,0,.971-.388l.032-.029a1.419,1.419,0,0,0,.416-1V1.419A1.422,1.422,0,0,0,12.722,0Z" transform="translate(121.857 0.477)" fill="#4285f4" fill-rule="evenodd"/>
        </g>
      </g>
    </g>
    <path id="Path_13790" data-name="Path 13790" d="M-6966.372,1740.816v42.148l-112.866,36.229v99.94" transform="translate(7469 868)" fill="none" stroke="#34a853" stroke-width="3"/>
    <path id="Path_13791" data-name="Path 13791" d="M-6902.673,1741.42v44l129.866,37.184v72.074" transform="translate(7468.786 867.328)" fill="none" stroke="#34a853" stroke-width="3"/>
    <g id="Group_1052" data-name="Group 1052" transform="translate(959.227 2091)">
      <path id="Path_6913" data-name="Path 6913" d="M266.573,101.362c-.363,0-.722.01-1.079.027,0-.161.012-.323.012-.486A23.019,23.019,0,0,0,233.251,79.8a28.612,28.612,0,0,0-42.7-3.541,24.367,24.367,0,0,0-7.966,13.616,28.712,28.712,0,0,0-.539,11.493l-.062,0a20.349,20.349,0,0,0,0,40.7h84.593a20.349,20.349,0,0,0,0-40.7Z" transform="translate(-643.86 375.688)" fill="rgba(71,140,255,0.48)"/>
    </g>
    <g id="Group_1050" data-name="Group 1050" transform="translate(669.673 2727.346)">
      <g id="Group_1006" data-name="Group 1006" transform="translate(1.453 44.591)">
        <path id="Path_6833" data-name="Path 6833" d="M339.611,416.392l-2.925-.034a2.542,2.542,0,0,0-1.1.289l-36.851,21.132c-.306.175-.558.9-.2.9l6.219-.9c.351,0-.033-1.239.273-1.414Z" transform="translate(-287.051 -416.358)" fill="#172936"/>
        <path id="Path_6834" data-name="Path 6834" d="M294.887,461.047s-.207.251-.911-.156l-3.1-1.794c-.766-.562-.649-.591-.766-.924l11.255-25.2a.256.256,0,0,1,.259-.364l5.259-1.425a.978.978,0,0,1,.85.611Z" transform="translate(-290.105 -410.868)" fill="#316fd6"/>
        <path id="Path_6835" data-name="Path 6835" d="M293.8,466.484a.507.507,0,0,1-.762-.284l13.6-28.964a.791.791,0,0,1,.036-.573.765.765,0,0,1,.31-.351l34.223-19.759a.34.34,0,0,1,.51.189l-7.323,25.337a.8.8,0,0,1-.344.925Z" transform="translate(-289.019 -416.305)" fill="#24529e"/>
      </g>
      <path id="Path_6836" data-name="Path 6836" d="M360.959,384.425c.528-.306.46-.559-.148-.567l-3.871-.044a4.773,4.773,0,0,0-2.066.54L289.7,422.12c-.528.3-.965,1.558-.356,1.566l5.967.949c.608.008-.055-2.141.473-2.444Z" transform="translate(-289.044 -383.814)" fill="#316fd6"/>
      <path id="Path_6837" data-name="Path 6837" d="M320.1,481.885a1.54,1.54,0,0,1-1.917,0l-5.368-3.1a3.471,3.471,0,0,1-1.325-1.6L289.1,413.216a.727.727,0,0,1,.741-1.032l3.869.045a1.691,1.691,0,0,1,1.47,1.058Z" transform="translate(-289.044 -373.312)" fill="#316fd6"/>
      <path id="Path_6838" data-name="Path 6838" d="M318.455,492.258a.88.88,0,0,1-1.32-.49l-23.593-68.107a1.358,1.358,0,0,1,.063-.991,1.323,1.323,0,0,1,.533-.607L359.318,384.3a.88.88,0,0,1,1.319.492L384.072,452.8a1.4,1.4,0,0,1-.6,1.6Z" transform="translate(-287.404 -383.686)" fill="#4285f4"/>
      <g id="Group_1016" data-name="Group 1016" transform="translate(63.07 11.52)">
        <g id="Group_1007" data-name="Group 1007" transform="translate(0)">
          <path id="Path_6840" data-name="Path 6840" d="M340.857,395.269l-4.052,2.342a.784.784,0,0,1-1.133-.422l-.554-1.583a.786.786,0,0,1,.349-.939l4.052-2.342a.784.784,0,0,1,1.13.422l.554,1.583A.788.788,0,0,1,340.857,395.269Z" transform="translate(-335.075 -392.222)" fill="#fff"/>
        </g>
        <g id="Group_1008" data-name="Group 1008" transform="translate(2.275 6.598)">
          <path id="Path_6842" data-name="Path 6842" d="M342.517,400.084l-4.052,2.342a.785.785,0,0,1-1.133-.419l-.552-1.585a.78.78,0,0,1,.348-.936l4.052-2.342a.781.781,0,0,1,1.13.419l.554,1.584A.786.786,0,0,1,342.517,400.084Z" transform="translate(-336.736 -397.038)" fill="#fff"/>
        </g>
        <g id="Group_1009" data-name="Group 1009" transform="translate(4.552 13.197)">
          <path id="Path_6844" data-name="Path 6844" d="M344.176,404.9l-4.052,2.342a.785.785,0,0,1-1.132-.419l-.552-1.587a.782.782,0,0,1,.347-.934l4.052-2.343a.786.786,0,0,1,1.133.421l.554,1.582A.784.784,0,0,1,344.176,404.9Z" transform="translate(-338.397 -401.853)" fill="#fff"/>
        </g>
        <g id="Group_1010" data-name="Group 1010" transform="translate(6.826 19.795)">
          <path id="Path_6846" data-name="Path 6846" d="M345.836,409.718l-4.049,2.339a.783.783,0,0,1-1.133-.419l-.554-1.584a.785.785,0,0,1,.348-.937l4.05-2.342a.784.784,0,0,1,1.133.419l.554,1.585A.786.786,0,0,1,345.836,409.718Z" transform="translate(-340.057 -406.669)" fill="#fff"/>
        </g>
        <g id="Group_1011" data-name="Group 1011" transform="translate(9.101 26.394)">
          <path id="Path_6848" data-name="Path 6848" d="M347.5,414.532l-4.052,2.34a.783.783,0,0,1-1.132-.421l-.553-1.583a.784.784,0,0,1,.348-.937l4.05-2.343a.785.785,0,0,1,1.132.422l.554,1.584A.785.785,0,0,1,347.5,414.532Z" transform="translate(-341.718 -411.485)" fill="#fff"/>
        </g>
        <g id="Group_1012" data-name="Group 1012" transform="translate(11.376 32.993)">
          <path id="Path_6850" data-name="Path 6850" d="M349.159,419.347l-4.052,2.343a.785.785,0,0,1-1.132-.422l-.554-1.584a.786.786,0,0,1,.348-.937l4.052-2.34a.785.785,0,0,1,1.133.421l.551,1.583A.784.784,0,0,1,349.159,419.347Z" transform="translate(-343.378 -416.301)" fill="#fff"/>
        </g>
        <g id="Group_1013" data-name="Group 1013" transform="translate(13.653 39.591)">
          <path id="Path_6852" data-name="Path 6852" d="M350.818,424.163l-4.05,2.342a.785.785,0,0,1-1.133-.419l-.551-1.585a.781.781,0,0,1,.347-.936l4.05-2.342a.784.784,0,0,1,1.133.419l.553,1.585A.78.78,0,0,1,350.818,424.163Z" transform="translate(-345.04 -421.117)" fill="#fff"/>
        </g>
        <g id="Group_1014" data-name="Group 1014" transform="translate(15.928 46.189)">
          <path id="Path_6854" data-name="Path 6854" d="M352.479,428.978l-4.05,2.343a.784.784,0,0,1-1.132-.421l-.554-1.583a.785.785,0,0,1,.347-.939l4.052-2.342a.785.785,0,0,1,1.132.419l.554,1.587A.78.78,0,0,1,352.479,428.978Z" transform="translate(-346.7 -425.932)" fill="#fff"/>
        </g>
        <g id="Group_1015" data-name="Group 1015" transform="translate(18.203 52.787)">
          <path id="Path_6856" data-name="Path 6856" d="M354.142,433.8l-4.052,2.34a.783.783,0,0,1-1.133-.419l-.554-1.584a.784.784,0,0,1,.349-.937l4.049-2.342a.784.784,0,0,1,1.133.421l.552,1.584A.784.784,0,0,1,354.142,433.8Z" transform="translate(-348.36 -430.748)" fill="#fff"/>
        </g>
      </g>
      <g id="Group_1017" data-name="Group 1017" transform="translate(29.202 20.558)">
        <path id="Path_6857" data-name="Path 6857" d="M315.4,425.105a.336.336,0,0,1-.5-.188l-2.751-7.637a.534.534,0,0,1,.226-.61l22.412-12.937a.335.335,0,0,1,.5.186l2.691,7.6a.531.531,0,0,1-.227.608Z" transform="translate(-309.702 -397.018)" fill="#fff"/>
        <path id="Path_6858" data-name="Path 6858" d="M312.12,416.052a.334.334,0,0,1-.5-.188l-1.237-3.209a.524.524,0,0,1,.023-.378.511.511,0,0,1,.2-.23l22.412-12.94a.334.334,0,0,1,.5.188l1.176,3.173a.534.534,0,0,1-.227.61Z" transform="translate(-310.357 -398.73)" fill="#fff"/>
        <path id="Path_6859" data-name="Path 6859" d="M334.749,402.23l-1.176-3.173a.334.334,0,0,0-.5-.186L310.66,411.81a.5.5,0,0,0-.2.23.635.635,0,0,0-.036.14.561.561,0,0,1,.09-.074l22.412-12.939a.333.333,0,0,1,.5.186l1.174,3.173a.469.469,0,0,1,.014.234A.537.537,0,0,0,334.749,402.23Z" transform="translate(-310.333 -398.818)" fill="#172936"/>
        <path id="Path_6860" data-name="Path 6860" d="M337.978,411.523l-2.691-7.6a.335.335,0,0,0-.5-.186L312.374,416.67a.517.517,0,0,0-.2.233.529.529,0,0,0-.034.295.442.442,0,0,1,.1-.086l22.412-12.937a.333.333,0,0,1,.5.186l2.692,7.6a.411.411,0,0,1,.012.079A.531.531,0,0,0,337.978,411.523Z" transform="translate(-309.7 -397.018)" fill="#172936"/>
        <path id="Path_6861" data-name="Path 6861" d="M317.6,421.2l4.03-2.338,2.562-11.272-4.026,2.324Z" transform="translate(-307.675 -395.57)" fill="#d2dbe0"/>
        <path id="Path_6862" data-name="Path 6862" d="M323.125,417.675l2.015-1.17,2.558-11.25-2.015,1.162Z" transform="translate(-305.63 -396.435)" fill="#d2dbe0"/>
      </g>
      <g id="Group_1019" data-name="Group 1019" transform="translate(13.812 36.65)">
        <path id="Path_6863" data-name="Path 6863" d="M319.228,472.828a.712.712,0,0,1-1.069-.4l-18.981-54.8a1.1,1.1,0,0,1,.051-.8,1.067,1.067,0,0,1,.433-.492l10.052-5.663a.713.713,0,0,1,1.069.4l18.854,54.722a1.137,1.137,0,0,1-.485,1.3Z" transform="translate(-299.125 -410.562)" fill="#2260c6"/>
        <g id="Group_1018" data-name="Group 1018" transform="translate(0.792 0.543)">
          <path id="Path_6864" data-name="Path 6864" d="M305.412,432.722a.2.2,0,0,1-.3-.111l-5.393-15.568a.309.309,0,0,1,.015-.226.283.283,0,0,1,.122-.14l9.9-5.688a.2.2,0,0,1,.3.114l2.67,15.308a.316.316,0,0,1-.136.366Z" transform="translate(-299.703 -410.958)" fill="#111c24"/>
          <path id="Path_6865" data-name="Path 6865" d="M316.862,411.567l-6.982-.608-.005,0a.229.229,0,0,0-.121.026l-9.9,5.688a.283.283,0,0,0-.122.14.309.309,0,0,0-.015.226l5.393,15.568a.2.2,0,0,0,.3.111l7.177-5.945a.319.319,0,0,0,.136-.366l-1.983-11.37Z" transform="translate(-299.703 -410.958)" fill="#172936"/>
          <path id="Path_6866" data-name="Path 6866" d="M329.88,449.173l-6.95,1.726-4.783-9.47a.2.2,0,0,0-.3-.115l-8.039,3.512a.327.327,0,0,0-.122.14.315.315,0,0,0-.014.226l5.393,15.568a.2.2,0,0,0,.3.112l9.508-5.488a.313.313,0,0,0,.118-.144H325Z" transform="translate(-296.019 -399.733)" fill="#172936"/>
          <path id="Path_6867" data-name="Path 6867" d="M321.141,457.882h0l-11.76-34.01h-.005l-2.57-8.194-6.918-.4a.164.164,0,0,0-.164.216l5.363,15.491a.483.483,0,0,0,.418.326l3.79.328,6.7,19.387-2.554,3.292a.536.536,0,0,0-.084.5l5.4,15.6a.09.09,0,0,0,.158.026l4.753-6.244Z" transform="translate(-299.699 -409.36)" fill="#347cf2"/>
          <path id="Path_6868" data-name="Path 6868" d="M318.5,452.449l-4.816,6.3a.209.209,0,0,0,.188-.012l9.508-5.488a.314.314,0,0,0,.118-.144h.005l4.883-6.066Z" transform="translate(-294.527 -397.601)" fill="#347cf2"/>
          <path id="Path_6869" data-name="Path 6869" d="M309.875,410.959l-.005,0a.229.229,0,0,0-.121.026l-9.9,5.688a.283.283,0,0,0-.122.14c-.008.016-.008.034-.015.049l7.315.617s1.7-.891,3.787-1.994l-.078-.448,6.119-3.473Z" transform="translate(-299.699 -410.958)" fill="#4285f4"/>
          <path id="Path_6870" data-name="Path 6870" d="M317.752,419.147l-2.62-7.6a.2.2,0,0,0-.3-.115l-9.9,5.688a.318.318,0,0,0-.136.367l2.527,7.293h0l14.2,41.054a.2.2,0,0,0,.3.112l9.864-5.707a.324.324,0,0,0,.136-.367Z" transform="translate(-297.824 -410.796)" fill="#5d99fc"/>
        </g>
      </g>
      <g id="Group_1021" data-name="Group 1021" transform="translate(55.845 16.265)">
        <g id="Group_1020" data-name="Group 1020">
          <path id="Path_6871" data-name="Path 6871" d="M349.83,453.726a.7.7,0,0,1-1.058-.392l-18.918-54.61a1.09,1.09,0,0,1,.052-.793,1.069,1.069,0,0,1,.427-.489l2.855-1.648a.706.706,0,0,1,1.058.4l18.789,54.533a1.123,1.123,0,0,1-.477,1.284Z" transform="translate(-329.802 -395.684)" fill="#fff"/>
        </g>
        <path id="Path_6872" data-name="Path 6872" d="M330.173,397.846l2.855-1.648a.7.7,0,0,1,1.058.4l18.792,54.533a1.031,1.031,0,0,1,.022.505,1.078,1.078,0,0,0,.127-.91l-18.789-54.533a.706.706,0,0,0-1.058-.4l-2.855,1.648a1.07,1.07,0,0,0-.428.489,1.1,1.1,0,0,0-.071.275A1.028,1.028,0,0,1,330.173,397.846Z" transform="translate(-329.793 -395.684)" fill="#172936"/>
      </g>
      <g id="Group_1047" data-name="Group 1047" transform="translate(40.472 41.928)">
        <g id="Group_1024" data-name="Group 1024" transform="translate(0 7.303)">
          <g id="Group_1022" data-name="Group 1022">
            <path id="Path_6873" data-name="Path 6873" d="M323.281,425.114l-1.94,1.11a1.243,1.243,0,0,1-1.792-.666l-.876-2.508a1.9,1.9,0,0,1,.874-2.232l1.617-.36a1.24,1.24,0,0,1,1.792.666l1.2,1.759A1.933,1.933,0,0,1,323.281,425.114Z" transform="translate(-318.582 -419.542)" fill="#245ebc"/>
            <path id="Path_6874" data-name="Path 6874" d="M323.511,424.568l-1.94,1.109a1.241,1.241,0,0,1-1.792-.664L318.9,422.5a1.239,1.239,0,0,1,.549-1.484l1.94-1.108a1.24,1.24,0,0,1,1.792.663l.876,2.51A1.24,1.24,0,0,1,323.511,424.568Z" transform="translate(-318.489 -419.744)" fill="#fff"/>
          </g>
          <g id="Group_1023" data-name="Group 1023" transform="translate(2.059 1.153)">
            <path id="Path_6875" data-name="Path 6875" d="M320.813,423.878l.458-.292-.569-1.8-.051-.343-.073.37-.2.464-.289-.226.486-1.315.24-.153.865,2.742.447-.286.158.5-1.307.834Z" transform="translate(-320.085 -420.586)" fill="#444"/>
          </g>
        </g>
        <g id="Group_1026" data-name="Group 1026" transform="translate(2.429 14.41)">
          <g id="Group_1025" data-name="Group 1025">
            <path id="Path_6876" data-name="Path 6876" d="M325.054,430.3l-1.94,1.106a1.239,1.239,0,0,1-1.792-.663l-.877-2.507a1.912,1.912,0,0,1,.874-2.233l1.617-.358a1.24,1.24,0,0,1,1.792.663l1.2,1.759A1.939,1.939,0,0,1,325.054,430.3Z" transform="translate(-320.356 -424.729)" fill="#245ebc"/>
            <path id="Path_6877" data-name="Path 6877" d="M325.283,429.754l-1.94,1.107a1.24,1.24,0,0,1-1.792-.663l-.874-2.507a1.242,1.242,0,0,1,.549-1.485l1.94-1.107a1.241,1.241,0,0,1,1.792.664l.877,2.507A1.242,1.242,0,0,1,325.283,429.754Z" transform="translate(-320.262 -424.931)" fill="#fff"/>
          </g>
          <path id="Path_6878" data-name="Path 6878" d="M323.827,427.785l-.359.23.28.888-.392.252-.279-.886-.982.634-.108-.334.4-2.651.348-.225.582,1.847.358-.23Zm-1.121-.686-.09-.4-.014.008-.008.4-.144.833-.107.277.2-.171.388-.249Z" transform="translate(-319.752 -424.649)" fill="#444"/>
        </g>
        <g id="Group_1028" data-name="Group 1028" transform="translate(4.87 21.496)">
          <g id="Group_1027" data-name="Group 1027">
            <path id="Path_6879" data-name="Path 6879" d="M326.837,435.473l-1.94,1.108a1.242,1.242,0,0,1-1.792-.666l-.877-2.508a1.908,1.908,0,0,1,.875-2.233l1.617-.358a1.24,1.24,0,0,1,1.792.663l1.2,1.761A1.936,1.936,0,0,1,326.837,435.473Z" transform="translate(-322.137 -429.901)" fill="#245ebc"/>
            <path id="Path_6880" data-name="Path 6880" d="M327.066,434.926l-1.94,1.11a1.242,1.242,0,0,1-1.792-.666l-.874-2.507a1.241,1.241,0,0,1,.549-1.485l1.94-1.107a1.239,1.239,0,0,1,1.791.664l.877,2.509A1.242,1.242,0,0,1,327.066,434.926Z" transform="translate(-322.043 -430.103)" fill="#fff"/>
          </g>
          <path id="Path_6881" data-name="Path 6881" d="M324.784,434.895l-.041-2.935.073-.315-.18.171-.828.54-.177-.558,1.455-.944.053.173.049,3.6Z" transform="translate(-321.583 -429.825)" fill="#444"/>
        </g>
        <g id="Group_1030" data-name="Group 1030" transform="translate(6.351 3.644)">
          <g id="Group_1029" data-name="Group 1029">
            <path id="Path_6882" data-name="Path 6882" d="M327.915,422.444l-1.939,1.109a1.244,1.244,0,0,1-1.794-.666l-.875-2.507a1.91,1.91,0,0,1,.874-2.232l1.617-.36a1.241,1.241,0,0,1,1.792.664l1.2,1.761A1.936,1.936,0,0,1,327.915,422.444Z" transform="translate(-323.218 -416.872)" fill="#245ebc"/>
            <path id="Path_6883" data-name="Path 6883" d="M328.145,421.9l-1.94,1.11a1.243,1.243,0,0,1-1.792-.666l-.874-2.507a1.239,1.239,0,0,1,.549-1.484l1.94-1.108a1.241,1.241,0,0,1,1.792.664l.877,2.509A1.239,1.239,0,0,1,328.145,421.9Z" transform="translate(-323.125 -417.074)" fill="#fff"/>
          </g>
          <path id="Path_6884" data-name="Path 6884" d="M326.06,418.515a1.96,1.96,0,0,1,.085.508,4.331,4.331,0,0,1-.012.563c-.015.19-.038.382-.071.571s-.066.366-.1.529l-.116.3.008.025.216-.215.634-.4.155.5-1.387.882-.1-.305c.029-.108.06-.237.095-.378s.067-.3.1-.451.06-.315.086-.48.045-.318.058-.474a3.323,3.323,0,0,0,.007-.433,1.247,1.247,0,0,0-.056-.356.444.444,0,0,0-.174-.259.26.26,0,0,0-.284.036.736.736,0,0,0-.2.2,1.069,1.069,0,0,0-.138.277l-.3-.311a1.887,1.887,0,0,1,.221-.421,1.276,1.276,0,0,1,.359-.333.747.747,0,0,1,.28-.11.477.477,0,0,1,.256.029.581.581,0,0,1,.216.175A1.061,1.061,0,0,1,326.06,418.515Z" transform="translate(-322.719 -416.743)" fill="#444"/>
        </g>
        <g id="Group_1032" data-name="Group 1032" transform="translate(8.76 10.778)">
          <g id="Group_1031" data-name="Group 1031">
            <path id="Path_6885" data-name="Path 6885" d="M329.673,427.65l-1.939,1.107a1.24,1.24,0,0,1-1.792-.663l-.875-2.507a1.908,1.908,0,0,1,.873-2.233l1.617-.359a1.239,1.239,0,0,1,1.792.663l1.2,1.759A1.934,1.934,0,0,1,329.673,427.65Z" transform="translate(-324.976 -422.078)" fill="#245ebc"/>
            <path id="Path_6886" data-name="Path 6886" d="M329.906,427.1l-1.94,1.107a1.24,1.24,0,0,1-1.792-.665l-.877-2.509a1.241,1.241,0,0,1,.549-1.483l1.94-1.107a1.239,1.239,0,0,1,1.792.663l.877,2.507A1.246,1.246,0,0,1,329.906,427.1Z" transform="translate(-324.883 -422.28)" fill="#fff"/>
          </g>
          <path id="Path_6887" data-name="Path 6887" d="M327.691,426.35a.651.651,0,0,0,.284-.356.765.765,0,0,0-.01-.476c-.056-.182-.141-.288-.258-.315a.568.568,0,0,0-.423.119l-.252.178-.522-1.666,1.129-.721.171.556-.76.486.193.614.127-.1a.719.719,0,0,1,.315-.1.518.518,0,0,1,.284.06.693.693,0,0,1,.238.225,1.365,1.365,0,0,1,.177.381,1.628,1.628,0,0,1,.081.515,1.378,1.378,0,0,1-.074.459,1.246,1.246,0,0,1-.21.378,1.291,1.291,0,0,1-.319.289,1.513,1.513,0,0,1-.289.147.783.783,0,0,1-.252.049l-.04-.566a.618.618,0,0,0,.185-.036A.989.989,0,0,0,327.691,426.35Z" transform="translate(-324.408 -421.972)" fill="#444"/>
        </g>
        <g id="Group_1034" data-name="Group 1034" transform="translate(11.207 17.854)">
          <g id="Group_1033" data-name="Group 1033">
            <path id="Path_6888" data-name="Path 6888" d="M331.46,432.815l-1.94,1.108a1.242,1.242,0,0,1-1.792-.666l-.876-2.507a1.907,1.907,0,0,1,.874-2.233l1.614-.358a1.241,1.241,0,0,1,1.794.663l1.2,1.759A1.935,1.935,0,0,1,331.46,432.815Z" transform="translate(-326.761 -427.243)" fill="#245ebc"/>
            <path id="Path_6889" data-name="Path 6889" d="M331.691,432.269l-1.94,1.106a1.239,1.239,0,0,1-1.792-.663l-.877-2.507a1.246,1.246,0,0,1,.552-1.485l1.94-1.107a1.242,1.242,0,0,1,1.792.665l.874,2.507A1.242,1.242,0,0,1,331.691,432.269Z" transform="translate(-326.668 -427.445)" fill="#fff"/>
          </g>
          <path id="Path_6890" data-name="Path 6890" d="M328.731,431.434a1.2,1.2,0,0,1-.059-.3,1.216,1.216,0,0,1,.01-.282,1.408,1.408,0,0,1,.069-.266,2.515,2.515,0,0,1,.108-.252.744.744,0,0,1-.348-.163.818.818,0,0,1-.234-.4,1.229,1.229,0,0,1-.007-.721,1.068,1.068,0,0,1,.16-.318,1,1,0,0,1,.266-.248.768.768,0,0,1,.284-.118.476.476,0,0,1,.254.023.511.511,0,0,1,.21.156.878.878,0,0,1,.144.286,1.241,1.241,0,0,1,.056.511,1.743,1.743,0,0,1-.145.5.788.788,0,0,1,.4.162.847.847,0,0,1,.252.428,1.394,1.394,0,0,1,.062.405,1.273,1.273,0,0,1-.063.381,1.168,1.168,0,0,1-.174.336,1.048,1.048,0,0,1-.275.258.784.784,0,0,1-.311.13.543.543,0,0,1-.275-.026.553.553,0,0,1-.225-.173A.921.921,0,0,1,328.731,431.434Zm1.019-.734a.383.383,0,0,0-.095-.167.418.418,0,0,0-.141-.1.744.744,0,0,0-.166-.047c-.059-.011-.118-.016-.177-.022a1.05,1.05,0,0,0-.125.4.883.883,0,0,0,.031.321.426.426,0,0,0,.188.256.264.264,0,0,0,.285-.032.493.493,0,0,0,.2-.252A.538.538,0,0,0,329.751,430.7Zm-1.072-1.181a.447.447,0,0,0,.089.171.312.312,0,0,0,.125.092.515.515,0,0,0,.147.041,1.079,1.079,0,0,0,.162.012.988.988,0,0,0,.036-.634.35.35,0,0,0-.169-.238.232.232,0,0,0-.223.026.387.387,0,0,0-.175.24A.549.549,0,0,0,328.679,429.518Z" transform="translate(-326.222 -427.107)" fill="#444"/>
        </g>
        <g id="Group_1036" data-name="Group 1036" transform="translate(13.63 24.939)">
          <g id="Group_1035" data-name="Group 1035">
            <path id="Path_6891" data-name="Path 6891" d="M333.228,437.985l-1.94,1.11a1.242,1.242,0,0,1-1.792-.666l-.876-2.507a1.909,1.909,0,0,1,.874-2.232l1.617-.36a1.242,1.242,0,0,1,1.792.666l1.2,1.759A1.934,1.934,0,0,1,333.228,437.985Z" transform="translate(-328.53 -432.414)" fill="#245ebc"/>
            <path id="Path_6892" data-name="Path 6892" d="M333.458,437.439l-1.94,1.109a1.24,1.24,0,0,1-1.792-.666l-.874-2.506a1.238,1.238,0,0,1,.549-1.484l1.94-1.109a1.241,1.241,0,0,1,1.792.666l.877,2.507A1.242,1.242,0,0,1,333.458,437.439Z" transform="translate(-328.437 -432.616)" fill="#fff"/>
          </g>
          <path id="Path_6893" data-name="Path 6893" d="M330.208,435.882a3.291,3.291,0,0,1-.195-1.376,1.041,1.041,0,0,1,.447-.788.537.537,0,0,1,.717.014,2.6,2.6,0,0,1,.58,1.126,3.3,3.3,0,0,1,.19,1.385,1.064,1.064,0,0,1-.445.791.524.524,0,0,1-.718-.042A2.667,2.667,0,0,1,330.208,435.882Zm.411-.271a2.87,2.87,0,0,0,.355.8c.121.166.244.206.373.118a.507.507,0,0,0,.186-.458,3.411,3.411,0,0,0-.19-.943,2.877,2.877,0,0,0-.351-.795q-.177-.247-.378-.115a.508.508,0,0,0-.185.466A3.523,3.523,0,0,0,330.619,435.611Z" transform="translate(-327.987 -432.255)" fill="#444"/>
        </g>
        <g id="Group_1038" data-name="Group 1038" transform="translate(7.308 28.565)">
          <g id="Group_1037" data-name="Group 1037">
            <path id="Path_6894" data-name="Path 6894" d="M328.614,440.632l-1.94,1.106a1.24,1.24,0,0,1-1.792-.663l-.874-2.507a1.908,1.908,0,0,1,.873-2.233l1.617-.358a1.24,1.24,0,0,1,1.792.663l1.2,1.758A1.935,1.935,0,0,1,328.614,440.632Z" transform="translate(-323.916 -435.06)" fill="#245ebc"/>
            <path id="Path_6895" data-name="Path 6895" d="M328.844,440.085l-1.939,1.107a1.24,1.24,0,0,1-1.792-.663l-.876-2.507a1.242,1.242,0,0,1,.549-1.485l1.94-1.107a1.24,1.24,0,0,1,1.792.664l.876,2.506A1.243,1.243,0,0,1,328.844,440.085Z" transform="translate(-323.823 -435.262)" fill="#fff"/>
          </g>
          <path id="Path_6896" data-name="Path 6896" d="M326.569,438.621l-.284.186.1.777-.341.225-.1-.778-.234.158-.069-.488.238-.158-.071-.536-.229.152-.069-.489.233-.152-.093-.73.341-.222.095.726.285-.186-.092-.729.34-.223.095.728.23-.149.056.492-.223.148.068.536.221-.147.062.493-.218.141.1.778-.341.225Zm-.349-.3.286-.188-.071-.534-.284.186Z" transform="translate(-323.326 -434.932)" fill="#444"/>
        </g>
        <g id="Group_1040" data-name="Group 1040" transform="translate(12.685)">
          <g id="Group_1039" data-name="Group 1039">
            <path id="Path_6897" data-name="Path 6897" d="M332.538,419.784l-1.94,1.11a1.243,1.243,0,0,1-1.792-.666l-.874-2.507a1.905,1.905,0,0,1,.873-2.232l1.617-.36a1.24,1.24,0,0,1,1.792.666l1.2,1.759A1.931,1.931,0,0,1,332.538,419.784Z" transform="translate(-327.84 -414.212)" fill="#245ebc"/>
            <path id="Path_6898" data-name="Path 6898" d="M332.771,419.238l-1.94,1.108a1.24,1.24,0,0,1-1.792-.666l-.877-2.506a1.238,1.238,0,0,1,.549-1.484l1.94-1.109a1.24,1.24,0,0,1,1.792.663l.877,2.51A1.243,1.243,0,0,1,332.771,419.238Z" transform="translate(-327.747 -414.414)" fill="#fff"/>
          </g>
          <path id="Path_6899" data-name="Path 6899" d="M330.613,418.284a.6.6,0,0,0,.269-.348.751.751,0,0,0,0-.433c-.053-.174-.13-.277-.23-.311a.485.485,0,0,0-.395.1l-.238.151-.1-.314.171-1,.126-.325-.251.207-.559.349-.156-.5,1.277-.8.1.322-.206,1.156-.11.215.007.023.133-.116a.684.684,0,0,1,.241-.067.454.454,0,0,1,.237.057.625.625,0,0,1,.208.2,1.155,1.155,0,0,1,.164.348,1.587,1.587,0,0,1,.077.5,1.359,1.359,0,0,1-.08.441,1.178,1.178,0,0,1-.207.364,1.256,1.256,0,0,1-.307.27,1.642,1.642,0,0,1-.314.156.7.7,0,0,1-.285.053l-.036-.566a.731.731,0,0,0,.221-.023A.883.883,0,0,0,330.613,418.284Z" transform="translate(-327.319 -414.176)" fill="#444"/>
        </g>
        <g id="Group_1042" data-name="Group 1042" transform="translate(15.088 7.136)">
          <g id="Group_1041" data-name="Group 1041">
            <path id="Path_6900" data-name="Path 6900" d="M334.292,424.992l-1.94,1.107a1.24,1.24,0,0,1-1.792-.663l-.874-2.51a1.9,1.9,0,0,1,.874-2.231l1.615-.359a1.239,1.239,0,0,1,1.792.665l1.2,1.758A1.932,1.932,0,0,1,334.292,424.992Z" transform="translate(-329.595 -419.42)" fill="#245ebc"/>
            <path id="Path_6901" data-name="Path 6901" d="M334.524,424.446l-1.94,1.107a1.24,1.24,0,0,1-1.792-.664l-.876-2.509a1.239,1.239,0,0,1,.551-1.483l1.939-1.107a1.239,1.239,0,0,1,1.792.663l.876,2.507A1.242,1.242,0,0,1,334.524,424.446Z" transform="translate(-329.501 -419.622)" fill="#fff"/>
          </g>
          <path id="Path_6902" data-name="Path 6902" d="M332.862,422.513a1.568,1.568,0,0,1,.022.878,1.321,1.321,0,0,1-.169.374.974.974,0,0,1-.282.278.787.787,0,0,1-.337.126.554.554,0,0,1-.317-.067.866.866,0,0,1-.28-.274,1.8,1.8,0,0,1-.223-.491,3.568,3.568,0,0,1-.159-.874,3.321,3.321,0,0,1,.058-.8,2.464,2.464,0,0,1,.238-.676,1.983,1.983,0,0,1,.381-.506l.241.407a1.338,1.338,0,0,0-.26.334,2.044,2.044,0,0,0-.17.407,2.369,2.369,0,0,0-.079.441,2.012,2.012,0,0,0,.011.437,1.058,1.058,0,0,1,.111-.3.7.7,0,0,1,.24-.245.667.667,0,0,1,.292-.111.436.436,0,0,1,.271.053.66.66,0,0,1,.233.219A1.379,1.379,0,0,1,332.862,422.513Zm-.406.295q-.156-.51-.518-.28a.508.508,0,0,0-.2.223.67.67,0,0,0-.067.273.635.635,0,0,0,.019.092l.023.073a.88.88,0,0,0,.089.2.545.545,0,0,0,.126.148.3.3,0,0,0,.156.066.276.276,0,0,0,.178-.053.468.468,0,0,0,.207-.306A.779.779,0,0,0,332.457,422.808Z" transform="translate(-329.032 -419.302)" fill="#444"/>
        </g>
        <g id="Group_1044" data-name="Group 1044" transform="translate(17.537 14.212)">
          <g id="Group_1043" data-name="Group 1043">
            <path id="Path_6903" data-name="Path 6903" d="M336.079,430.157l-1.94,1.107a1.241,1.241,0,0,1-1.792-.664l-.874-2.507a1.908,1.908,0,0,1,.871-2.233l1.617-.358a1.241,1.241,0,0,1,1.794.663l1.2,1.759A1.937,1.937,0,0,1,336.079,430.157Z" transform="translate(-331.381 -424.584)" fill="#245ebc"/>
            <path id="Path_6904" data-name="Path 6904" d="M336.31,429.611l-1.939,1.107a1.241,1.241,0,0,1-1.792-.665l-.877-2.509a1.244,1.244,0,0,1,.549-1.484l1.94-1.109a1.242,1.242,0,0,1,1.792.666l.877,2.507A1.244,1.244,0,0,1,336.31,429.611Z" transform="translate(-331.289 -424.787)" fill="#fff"/>
          </g>
          <path id="Path_6905" data-name="Path 6905" d="M332.974,427.347a1.958,1.958,0,0,1-.082-.46,1.5,1.5,0,0,1,.042-.429,1.185,1.185,0,0,1,.169-.369.974.974,0,0,1,.293-.286.617.617,0,0,1,.673-.064,1.26,1.26,0,0,1,.485.76,3.967,3.967,0,0,1,.184.974,3.031,3.031,0,0,1-.062.808,2.022,2.022,0,0,1-.251.632,1.692,1.692,0,0,1-.392.454l-.234-.407a1.448,1.448,0,0,0,.281-.329,1.643,1.643,0,0,0,.171-.38,1.876,1.876,0,0,0,.069-.411,1.906,1.906,0,0,0-.023-.423.751.751,0,0,1-.116.271.859.859,0,0,1-.225.2.648.648,0,0,1-.264.1.518.518,0,0,1-.271-.038.7.7,0,0,1-.251-.206A1.185,1.185,0,0,1,332.974,427.347Zm.4-.3a.478.478,0,0,0,.225.325.3.3,0,0,0,.3-.036.6.6,0,0,0,.2-.2.656.656,0,0,0,.085-.23,1.738,1.738,0,0,0-.045-.189,1.058,1.058,0,0,0-.1-.234.55.55,0,0,0-.136-.173.28.28,0,0,0-.36-.021.46.46,0,0,0-.2.3A.873.873,0,0,0,333.374,427.05Z" transform="translate(-330.823 -424.461)" fill="#444"/>
        </g>
        <g id="Group_1046" data-name="Group 1046" transform="translate(19.998 21.275)">
          <g id="Group_1045" data-name="Group 1045">
            <path id="Path_6906" data-name="Path 6906" d="M337.878,435.31l-1.94,1.109a1.239,1.239,0,0,1-1.792-.665l-.877-2.507a1.907,1.907,0,0,1,.876-2.232l1.614-.36a1.242,1.242,0,0,1,1.792.666l1.2,1.759A1.932,1.932,0,0,1,337.878,435.31Z" transform="translate(-333.178 -429.74)" fill="#245ebc"/>
            <path id="Path_6907" data-name="Path 6907" d="M338.108,434.764l-1.94,1.108a1.24,1.24,0,0,1-1.792-.666L333.5,432.7a1.24,1.24,0,0,1,.552-1.484l1.939-1.109a1.244,1.244,0,0,1,1.794.666l.874,2.507A1.238,1.238,0,0,1,338.108,434.764Z" transform="translate(-333.085 -429.942)" fill="#fff"/>
          </g>
          <path id="Path_6908" data-name="Path 6908" d="M334.942,431.423l.306.3.258.466-.057-.552.042-.556.5.049-.047.589-.185.585.367-.411.36-.237.2.654-.347.228-.432.108.445.214.274.274-.3.595-.3-.3-.3-.491.077.571-.048.559-.506-.067.047-.558.184-.518-.3.37-.371.245-.206-.665.378-.248.419-.09-.443-.184-.315-.333Z" transform="translate(-332.651 -429.522)" fill="#444"/>
        </g>
      </g>
      <g id="Group_1048" data-name="Group 1048" transform="translate(51.891 80.613)">
        <path id="Path_6910" data-name="Path 6910" d="M334.033,445.694l-5.389,3.114a.783.783,0,0,1-1.132-.419l-.552-1.584a.786.786,0,0,1,.347-.937l5.389-3.114a.785.785,0,0,1,1.133.421l.554,1.583A.783.783,0,0,1,334.033,445.694Z" transform="translate(-326.916 -442.648)" fill="#fff"/>
      </g>
      <g id="Group_1049" data-name="Group 1049" transform="translate(62.182 74.663)">
        <path id="Path_6912" data-name="Path 6912" d="M341.541,441.352l-5.386,3.113a.78.78,0,0,1-1.13-.419l-.553-1.583a.785.785,0,0,1,.347-.939l5.386-3.113a.785.785,0,0,1,1.133.419l.554,1.585A.782.782,0,0,1,341.541,441.352Z" transform="translate(-334.427 -438.306)" fill="#fff"/>
      </g>
    </g>
    <g id="Group_1005" data-name="Group 1005" transform="translate(313 2765.989)">
      <g id="Group_997" data-name="Group 997" transform="translate(0 27.073)">
        <path id="Path_6824" data-name="Path 6824" d="M215.56,428.247l-43.929,26.43-.009,2.645,42.829-24.889a1.956,1.956,0,0,0,1.1-1.54Z" transform="translate(-99.555 -415.245)" fill="#4285f4"/>
        <path id="Path_6825" data-name="Path 6825" d="M177.339,455.707l-72.066-39.432-.01,2.647a1.9,1.9,0,0,0,1.119,1.561l65.594,37.87a5.831,5.831,0,0,0,4.608.328,4.215,4.215,0,0,0,.746-.328Z" transform="translate(-105.263 -416.275)" fill="#4285f4"/>
      </g>
      <g id="Group_1004" data-name="Group 1004" transform="translate(0.009)">
        <g id="Group_998" data-name="Group 998">
          <path id="Path_6826" data-name="Path 6826" d="M220.149,429.859c1.488.859,1.49,2.247.018,3.1l-42.829,24.89a5.9,5.9,0,0,1-5.354,0l-65.6-37.872c-1.486-.859-1.488-2.247-.016-3.1l42.829-24.89a5.9,5.9,0,0,1,5.353,0Z" transform="translate(-105.271 -391.347)" fill="#4285f4"/>
        </g>
        <g id="Group_999" data-name="Group 999" transform="translate(13.033 7.57)">
          <path id="Path_6827" data-name="Path 6827" d="M140.01,398.442a.321.321,0,0,1,0,.607l-21.476,12.48a1.159,1.159,0,0,1-1.049,0,.323.323,0,0,1,0-.608l21.476-12.479A1.166,1.166,0,0,1,140.01,398.442Z" transform="translate(-117.272 -398.317)" fill="#fff"/>
        </g>
        <g id="Group_1000" data-name="Group 1000" transform="translate(80.081 46.387)">
          <path id="Path_6828" data-name="Path 6828" d="M201.748,434.184a.322.322,0,0,1,0,.608l-21.476,12.479a1.154,1.154,0,0,1-1.048,0,.322.322,0,0,1,0-.607l21.475-12.48A1.166,1.166,0,0,1,201.748,434.184Z" transform="translate(-179.01 -434.059)" fill="#fff"/>
        </g>
        <g id="Group_1001" data-name="Group 1001" transform="translate(79.18 20.165)">
          <path id="Path_6829" data-name="Path 6829" d="M179.793,410.076c.372.215.375.561.01.773a1.475,1.475,0,0,1-1.341,0,.41.41,0,0,1,0-.776A1.474,1.474,0,0,1,179.793,410.076Z" transform="translate(-178.18 -409.914)" fill="#fff"/>
        </g>
        <g id="Group_1002" data-name="Group 1002" transform="translate(83.621 22.728)">
          <path id="Path_6830" data-name="Path 6830" d="M183.174,412.366c.209.119.215.314.009.433a.828.828,0,0,1-.756,0,.231.231,0,0,1,0-.437A.825.825,0,0,1,183.174,412.366Z" transform="translate(-182.269 -412.275)" fill="#fff"/>
        </g>
        <g id="Group_1003" data-name="Group 1003" transform="translate(5.867 3.397)">
          <path id="Path_6831" data-name="Path 6831" d="M214.936,430.877l-41.213,23.95-63.049-36.4,41.214-23.951Z" transform="translate(-110.673 -394.474)" fill="#fff"/>
        </g>
        <path id="Path_6832" data-name="Path 6832" d="M214.936,428.98,110.673,416.528l63.049,36.4Z" transform="translate(-104.807 -389.181)" fill="#5895f9" opacity="0.3"/>
      </g>
    </g>
    <g id="Group_5724" data-name="Group 5724" transform="translate(-9456.613 4419)">
      <g id="Group_5691" data-name="Group 5691">
        <circle id="Ellipse_383" data-name="Ellipse 383" cx="15.964" cy="15.964" r="15.964" transform="translate(9979.705 -1667)" fill="#ea4335"/>
        <path id="Path_10758" data-name="Path 10758" d="M918.539,813.663s-2.731-4.482-9.319-4.509-9.594,3.553-9.929,4.127a3.741,3.741,0,0,0,.318,3.06,1.1,1.1,0,0,0,1.2.548l3.479-.742a.854.854,0,0,0,.66-.941l-.262-1.87a5.8,5.8,0,0,1,4.232-1.309,7.153,7.153,0,0,1,4.107,1.359l-.155,1.87a.954.954,0,0,0,.779,1.01l3.329.592a.954.954,0,0,0,1.016-.517C918.359,815.6,918.857,814.362,918.539,813.663Z" transform="translate(9086.794 -2463.813)" fill="#fff"/>
      </g>
      <g id="Group_5690" data-name="Group 5690" transform="translate(3)">
        <circle id="Ellipse_385" data-name="Ellipse 385" cx="15.964" cy="15.964" r="15.964" transform="translate(10027.023 -1667)" fill="#34a853"/>
        <path id="Path_10761" data-name="Path 10761" d="M991.176,821.808a4.234,4.234,0,0,0,4.234-4.234v-6.692a4.234,4.234,0,1,0-8.444,0v6.692a4.234,4.234,0,0,0,4.209,4.234Zm-2.8-10.919a2.826,2.826,0,1,1,5.652,0v6.692a2.825,2.825,0,1,1-5.651,0Z" transform="translate(9052.174 -2467.594)" fill="#fff"/>
        <path id="Path_10762" data-name="Path 10762" d="M992.287,822.568a5.347,5.347,0,0,0,5.335-5.335.713.713,0,0,0-1.424,0,3.922,3.922,0,0,1-3.91,3.922h-1.752a3.933,3.933,0,0,1-3.922-3.922.713.713,0,1,0-1.414,0,5.346,5.346,0,0,0,5.335,5.335h.169v1.2h-2.5a.712.712,0,1,0,0,1.413h6.408a.713.713,0,1,0,0-1.413h-2.5v-1.2Z" transform="translate(9051.945 -2466.251)" fill="#fff"/>
      </g>
      <g id="Group_5689" data-name="Group 5689" transform="translate(0 -0.612)">
        <circle id="Ellipse_383-2" data-name="Ellipse 383" cx="15.964" cy="15.964" r="15.964" transform="translate(9929.612 -1666.388)" fill="#34a853"/>
        <g id="Icon_ionic-md-person-add" data-name="Icon ionic-md-person-add" transform="translate(9935 -1659)">
          <path id="Path_13262" data-name="Path 13262" d="M16.311,12.936a4.218,4.218,0,1,1,4.218-4.218A4.23,4.23,0,0,1,16.311,12.936Zm0,2.109c2.794,0,8.436,1.424,8.436,4.218v2.109H7.875V19.263C7.875,16.469,13.517,15.045,16.311,15.045Z" transform="translate(-7.875 -4.5)" fill="#fff"/>
          <path id="Path_13263" data-name="Path 13263" d="M3.937,14.062V11.25H5.343v2.812H8.155v1.406H5.343V18.28H3.937V15.468H1.125V14.062Z" transform="translate(12.935 -7.032)" fill="#fff"/>
        </g>
      </g>
    </g>
    <g id="Group_5723" data-name="Group 5723" transform="translate(-9457.613 4419)">
      <g id="Group_5720" data-name="Group 5720">
        <circle id="Ellipse_383-3" data-name="Ellipse 383" cx="15.964" cy="15.964" r="15.964" transform="translate(9952.612 -1706)" fill="#34a853"/>
        <g id="Group_5718" data-name="Group 5718" transform="translate(-219.233 -40.203)">
          <g id="Group_5715" data-name="Group 5715" transform="translate(10180 -1660)">
            <g id="Rectangle_1312" data-name="Rectangle 1312" transform="translate(0.233 0.203)" fill="#fff" stroke="#fff" stroke-width="0.2">
              <rect width="10" height="18" rx="2" stroke="none"/>
              <rect x="0.1" y="0.1" width="9.8" height="17.8" rx="1.9" fill="none"/>
            </g>
            <g id="Rectangle_1313" data-name="Rectangle 1313" transform="translate(1.233 2.203)" fill="#fff" stroke="#34a853" stroke-width="0.1">
              <rect width="8" height="14" stroke="none"/>
              <rect x="0.05" y="0.05" width="7.9" height="13.9" fill="none"/>
            </g>
            <g id="Group_5714" data-name="Group 5714" transform="translate(2.47 4.666)">
              <line id="Line_291" data-name="Line 291" x2="3.842" fill="none" stroke="#34a853" stroke-width="1"/>
              <line id="Line_292" data-name="Line 292" x2="3.842" transform="translate(0 1.647)" fill="none" stroke="#34a853" stroke-width="1"/>
              <line id="Line_293" data-name="Line 293" x2="3.842" transform="translate(0 3.293)" fill="none" stroke="#34a853" stroke-width="1"/>
              <line id="Line_294" data-name="Line 294" x2="3.293" transform="translate(0 4.94)" fill="none" stroke="#34a853" stroke-width="1"/>
            </g>
          </g>
          <g id="Group_5716" data-name="Group 5716" transform="translate(10186.038 -1656.707)">
            <g id="Rectangle_1312-2" data-name="Rectangle 1312" transform="translate(0.195 -0.09)" fill="#fff" stroke="#fff" stroke-width="0.2">
              <rect width="10" height="18" rx="2" stroke="none"/>
              <rect x="0.1" y="0.1" width="9.8" height="17.8" rx="1.9" fill="none"/>
            </g>
            <g id="Rectangle_1313-2" data-name="Rectangle 1313" transform="translate(1.195 1.91)" fill="#fff" stroke="#34a853" stroke-width="0.1">
              <rect width="8" height="14" stroke="none"/>
              <rect x="0.05" y="0.05" width="7.9" height="13.9" fill="none"/>
            </g>
            <g id="Group_5714-2" data-name="Group 5714" transform="translate(2.47 4.666)">
              <line id="Line_291-2" data-name="Line 291" x2="3.842" fill="none" stroke="#34a853" stroke-width="1"/>
              <line id="Line_292-2" data-name="Line 292" x2="3.842" transform="translate(0 1.647)" fill="none" stroke="#34a853" stroke-width="1"/>
              <line id="Line_293-2" data-name="Line 293" x2="3.842" transform="translate(0 3.293)" fill="none" stroke="#34a853" stroke-width="1"/>
              <line id="Line_294-2" data-name="Line 294" x2="3.293" transform="translate(0 4.94)" fill="none" stroke="#34a853" stroke-width="1"/>
            </g>
          </g>
        </g>
      </g>
      <g id="Group_5722" data-name="Group 5722">
        <circle id="Ellipse_383-4" data-name="Ellipse 383" cx="15.964" cy="15.964" r="15.964" transform="translate(10009 -1706)" fill="#34a853"/>
        <g id="Group_5721" data-name="Group 5721" transform="translate(0 1)">
          <g id="Group_5719" data-name="Group 5719" transform="translate(0 2)">
            <path id="Union_11" data-name="Union 11" d="M3,4,6,6ZM3,4V4L0,6Z" transform="translate(10021.5 -1690.5)" fill="none" stroke="#fff" stroke-linecap="round" stroke-linejoin="round" stroke-width="1"/>
          </g>
          <g id="Rectangle_1314" data-name="Rectangle 1314" transform="translate(10016 -1700)" fill="#fff" stroke="#fff" stroke-width="1">
            <rect width="18" height="13" stroke="none"/>
            <rect x="0.5" y="0.5" width="17" height="12" fill="none"/>
          </g>
        </g>
      </g>
    </g>
  </g>
</svg>
