<svg xmlns="http://www.w3.org/2000/svg" xmlns:xlink="http://www.w3.org/1999/xlink" width="375.508" height="419.108" viewBox="0 0 375.508 419.108">
  <defs>
    <linearGradient id="linear-gradient" x1="0.5" x2="0.5" y2="1" gradientUnits="objectBoundingBox">
      <stop offset="0" stop-color="#eff6ff"/>
      <stop offset="1" stop-color="#c4d8fb"/>
    </linearGradient>
  </defs>
  <g id="Group_6149" data-name="Group 6149" transform="translate(-11749.547 651)">
    <ellipse id="floor" cx="187.754" cy="37.755" rx="187.754" ry="37.755" transform="translate(11749.547 -307.402)" fill="url(#linear-gradient)"/>
    <g id="Group_5743" data-name="Group 5743">
      <path id="Rectangle_1012" data-name="Rectangle 1012" d="M20.656,0H156.941A20.915,20.915,0,0,1,177.6,21.165v325.2a20.915,20.915,0,0,1-20.656,21.165H20.656A20.915,20.915,0,0,1,0,346.368V21.165A20.915,20.915,0,0,1,20.656,0Z" transform="translate(11912.562 -651)" fill="#213458"/>
      <path id="Path_11118" data-name="Path 11118" d="M18.136,0H157.66A18.137,18.137,0,0,1,175.8,18.137V345.106a18.136,18.136,0,0,1-18.136,18.136H18.136A18.136,18.136,0,0,1,0,345.106V18.136A18.136,18.136,0,0,1,18.136,0Z" transform="translate(11910.329 -646.708)" fill="#4285f4"/>
      <path id="Path_11117" data-name="Path 11117" d="M1.588,0H156.229a1.588,1.588,0,0,1,1.588,1.588V284.829a1.588,1.588,0,0,1-1.588,1.588H1.588A1.588,1.588,0,0,1,0,284.828V1.588A1.588,1.588,0,0,1,1.588,0Z" transform="translate(11919.318 -609.084)" fill="#fff"/>
      <g id="Group_1691" data-name="Group 1691" transform="translate(11912.143 -595.126)">
        <rect id="Rectangle_1000" data-name="Rectangle 1000" width="151.87" height="148.568" rx="11.07" transform="translate(9.859 26.005)" fill="#dfebf2"/>
        <rect id="Rectangle_1001" data-name="Rectangle 1001" width="146.015" height="142.9" rx="10.646" transform="translate(12.788 28.838)" fill="#fff"/>
        <rect id="Rectangle_1002" data-name="Rectangle 1002" width="39.744" height="31.169" transform="translate(106.586 66.321)" stroke-width="4" stroke="#dfebf2" stroke-linecap="round" stroke-linejoin="round" fill="none"/>
        <line id="Line_114" data-name="Line 114" x1="39.744" y2="31.169" transform="translate(106.586 66.321)" fill="none" stroke="#dfebf2" stroke-linecap="round" stroke-linejoin="round" stroke-width="4"/>
        <line id="Line_115" data-name="Line 115" y1="2.233" x2="82.651" transform="translate(40.355 73.277)" fill="none" stroke="#ffca2b" stroke-linecap="round" stroke-linejoin="round" stroke-width="1"/>
        <path id="Path_7869" data-name="Path 7869" d="M135.867,156.555a19.978,19.978,0,0,1-2.768-22.387c3.785-7.292,11.543-10.864,18.906-8.7s12.487,9.511,12.486,17.913" transform="translate(-107.329 -65.188)" fill="none" stroke="#de5d5d" stroke-linecap="round" stroke-miterlimit="10" stroke-width="2"/>
        <line id="Line_116" data-name="Line 116" x2="31.785" transform="translate(75.266 111.852)" fill="none" stroke="#58b53d" stroke-miterlimit="10" stroke-width="0.858"/>
        <rect id="Rectangle_1003" data-name="Rectangle 1003" width="48.666" height="11.911" rx="5.956" transform="translate(23.549 103.67)" stroke-width="2" stroke="#dfebf2" stroke-linecap="round" stroke-linejoin="round" fill="none"/>
        <rect id="Rectangle_1004" data-name="Rectangle 1004" width="27.354" height="14.651" rx="5.462" transform="translate(68.473 82.42)" stroke-width="4" stroke="#dfebf2" stroke-linecap="round" stroke-linejoin="round" fill="none"/>
        <path id="Path_7872" data-name="Path 7872" d="M244.206,169.81v8.357a3.008,3.008,0,0,1-2.851,3.144H219.706a3.008,3.008,0,0,1-2.851-3.144Z" transform="translate(-148.379 -84.243)" fill="none" stroke="#dfebf2" stroke-linecap="round" stroke-linejoin="round" stroke-width="4"/>
        <rect id="Rectangle_1005" data-name="Rectangle 1005" width="20.012" height="5.589" rx="2.794" transform="translate(72.143 86.952)" stroke-width="4" stroke="#dfebf2" stroke-linecap="round" stroke-linejoin="round" fill="none"/>
        <rect id="Rectangle_1006" data-name="Rectangle 1006" width="48.666" height="11.911" rx="5.956" transform="translate(23.549 124.826)" stroke-width="2" stroke="#dfebf2" stroke-linecap="round" stroke-linejoin="round" fill="none"/>
        <rect id="Rectangle_1007" data-name="Rectangle 1007" width="48.666" height="11.911" rx="5.956" transform="translate(23.549 145.981)" stroke-width="2" stroke="#dfebf2" stroke-linecap="round" stroke-linejoin="round" fill="none"/>
        <rect id="Rectangle_1008" data-name="Rectangle 1008" width="26.69" height="10.096" transform="translate(113.113 109.395)" stroke-width="2" stroke="#dfebf2" stroke-linecap="round" stroke-linejoin="round" fill="none"/>
        <line id="Line_117" data-name="Line 117" y2="12.09" transform="translate(126.49 97.614)" fill="none" stroke="#dfebf2" stroke-linecap="round" stroke-linejoin="round" stroke-width="2"/>
        <rect id="Rectangle_1009" data-name="Rectangle 1009" width="20.165" height="10.096" transform="translate(116.375 137.91)" stroke-width="2" stroke="#dfebf2" stroke-linecap="round" stroke-linejoin="round" fill="none"/>
        <rect id="Rectangle_1010" data-name="Rectangle 1010" width="10.887" height="10.096" transform="translate(144.932 137.91)" stroke-width="2" stroke="#dfebf2" stroke-linecap="round" stroke-linejoin="round" fill="none"/>
        <rect id="Rectangle_1011" data-name="Rectangle 1011" width="10.887" height="10.096" transform="translate(97.259 137.91)" stroke-width="2" stroke="#dfebf2" stroke-linecap="round" stroke-linejoin="round" fill="none"/>
        <line id="Line_118" data-name="Line 118" y2="18.152" transform="translate(126.49 119.49)" fill="none" stroke="#dfebf2" stroke-linecap="round" stroke-linejoin="round" stroke-width="2"/>
        <path id="Path_7873" data-name="Path 7873" d="M329.943,253.979v-9.055H282.169v9.055" transform="translate(-179.565 -116.07)" fill="none" stroke="#dfebf2" stroke-linecap="round" stroke-linejoin="round" stroke-width="2"/>
      </g>
      <path id="Path_7953" data-name="Path 7953" d="M10.1,3.894A1.947,1.947,0,1,1,10.1,0H46.171a1.947,1.947,0,0,1,0,3.894ZM3.607,0a1.947,1.947,0,0,1,0,3.894H1.948A1.947,1.947,0,0,1,1.948,0Z" transform="translate(11974.169 -627.56)" fill="#fff" fill-rule="evenodd"/>
      <path id="Path_7954" data-name="Path 7954" d="M12.74,25.479A12.739,12.739,0,1,0,0,12.74,12.739,12.739,0,0,0,12.74,25.479Z" transform="translate(11985.488 -317.02)" fill="#fff" fill-rule="evenodd"/>
      <g id="Group_1705" data-name="Group 1705" transform="translate(11929.391 -602.609)">
        <path id="Path_7967" data-name="Path 7967" d="M.471.947A.474.474,0,1,1,.471,0h10.36a.474.474,0,0,1,0,.947Zm0,6.8a.472.472,0,0,1,0-.943h10.36a.472.472,0,1,1,0,.943Zm0-3.4a.474.474,0,1,1,0-.947h10.36a.474.474,0,0,1,0,.947Z" transform="translate(0.003 0)" fill="#4285f4" fill-rule="evenodd"/>
        <path id="Path_7968" data-name="Path 7968" d="M13.894.423ZM1.437.943H7.519v4.9H1.437A.477.477,0,0,1,1.092,5.7a.485.485,0,0,1-.149-.345V1.437A.494.494,0,0,1,1.437.943ZM12.879,0H1.437A1.442,1.442,0,0,0,0,1.437V5.351A1.442,1.442,0,0,0,1.437,6.787H12.879a1.434,1.434,0,0,0,.983-.393l.032-.029a1.437,1.437,0,0,0,.421-1.016V1.437A1.44,1.44,0,0,0,12.879,0Z" transform="translate(123.357 0.483)" fill="#4285f4" fill-rule="evenodd"/>
      </g>
      <circle id="Ellipse_383" data-name="Ellipse 383" cx="15.583" cy="15.583" r="15.583" transform="translate(11976.699 -357.946) rotate(-45)" fill="#ea4335"/>
      <path id="Path_10758" data-name="Path 10758" d="M918.076,813.556a10.729,10.729,0,0,0-9.1-4.4c-6.431-.027-9.365,3.468-9.692,4.028a3.652,3.652,0,0,0,.311,2.987,1.072,1.072,0,0,0,1.174.535l3.4-.724a.833.833,0,0,0,.645-.919l-.255-1.825a5.665,5.665,0,0,1,4.131-1.278,6.983,6.983,0,0,1,4.009,1.327l-.152,1.825a.931.931,0,0,0,.76.986l3.249.578a.932.932,0,0,0,.992-.5C917.9,815.448,918.386,814.238,918.076,813.556Z" transform="translate(11090.095 -1170.882)" fill="#fff"/>
      <circle id="Ellipse_384" data-name="Ellipse 384" cx="15.583" cy="15.583" r="15.583" transform="translate(11932.178 -366.373) rotate(-22.5)" fill="#fff"/>
      <path id="Path_10759" data-name="Path 10759" d="M840.935,807.849h-3.182l-.608-.894a.372.372,0,0,0-.31-.164h-4.868a.382.382,0,0,0-.314.164l-.608.895h-3.188a.384.384,0,0,0-.384.384v8.626a.383.383,0,0,0,.383.384h13.079a.383.383,0,0,0,.377-.384v-8.627a.384.384,0,0,0-.377-.384Zm-.365,8.628H828.23v-7.86h3a.393.393,0,0,0,.31-.164l.608-.9H836.6l.608.9a.4.4,0,0,0,.314.164h3.042Z" transform="translate(11118.139 -1169.958)" fill="#1c2b6b"/>
      <path id="Path_10760" data-name="Path 10760" d="M836.969,810.59a2.915,2.915,0,1,0,1.558,5.372.377.377,0,0,0,.116-.523.383.383,0,0,0-.524-.122,2.154,2.154,0,1,1,.937-2.294l-.377-.48a.383.383,0,0,0-.535-.061.377.377,0,0,0-.061.535l1.138,1.442a.383.383,0,0,0,.3.146.371.371,0,0,0,.3-.152l1.095-1.442a.382.382,0,0,0-.608-.462l-.472.609A2.9,2.9,0,0,0,836.969,810.59Z" transform="translate(11115.563 -1171.445)" fill="#1c2b6b"/>
      <circle id="Ellipse_385" data-name="Ellipse 385" cx="15.583" cy="15.583" r="15.583" transform="translate(12024.566 -366.376) rotate(-22.5)" fill="#34a853"/>
      <path id="Path_10761" data-name="Path 10761" d="M991.076,821.439a4.133,4.133,0,0,0,4.133-4.133v-6.532a4.133,4.133,0,1,0-8.242,0v6.532a4.133,4.133,0,0,0,4.109,4.133Zm-2.736-10.658a2.759,2.759,0,1,1,5.517,0v6.532a2.758,2.758,0,1,1-5.516,0Z" transform="translate(11054.205 -1174.505)" fill="#fff"/>
      <path id="Path_10762" data-name="Path 10762" d="M992.117,822.422a5.219,5.219,0,0,0,5.208-5.208.7.7,0,0,0-1.39,0,3.828,3.828,0,0,1-3.817,3.828h-1.71a3.84,3.84,0,0,1-3.828-3.828.7.7,0,1,0-1.38,0,5.218,5.218,0,0,0,5.208,5.208h.165v1.169h-2.439a.7.7,0,1,0,0,1.38h6.255a.7.7,0,1,0,0-1.38h-2.438v-1.169Z" transform="translate(11054.024 -1173.436)" fill="#fff"/>
      <path id="Path_10763" data-name="Path 10763" d="M0,0H208.506l24.377,5.628L166.894,43.821Z" transform="translate(11787.368 -484.772) rotate(-13)" fill="#eee" opacity="0.59"/>
      <path id="Path_10764" data-name="Path 10764" d="M33.283,37.9,99.952,0,93.065,29.848,0,196.519Z" transform="translate(11917.853 -509.191) rotate(-13)" fill="#eee" opacity="0.59"/>
      <g id="Group_4731" data-name="Group 4731" transform="translate(11785 -512.126)">
        <g id="Group_1702" data-name="Group 1702" transform="translate(0 0)">
          <g id="Group_1691-2" data-name="Group 1691" transform="translate(22.142)">
            <path id="Path_7868" data-name="Path 7868" d="M247.354,57.135h0a3.609,3.609,0,0,1-3.6-3.6V35.107a3.609,3.609,0,0,1,3.6-3.6h0a3.609,3.609,0,0,1,3.6,3.6V53.536A3.609,3.609,0,0,1,247.354,57.135Z" transform="translate(-153.749 -25.642)" fill="none" stroke="#444" stroke-linecap="round" stroke-linejoin="round" stroke-width="2"/>
            <rect id="Rectangle_998" data-name="Rectangle 998" width="187.211" height="169.226" rx="11.717" transform="translate(0 15.676)" fill="#4285f4"/>
            <rect id="Rectangle_999" data-name="Rectangle 999" width="174.783" height="157.074" rx="11.709" transform="translate(6.213 21.751)" fill="#4285f4"/>
            <rect id="Rectangle_1000-2" data-name="Rectangle 1000" width="167.492" height="148.568" rx="11.07" transform="translate(9.859 26.005)" fill="#dfebf2"/>
            <rect id="Rectangle_1001-2" data-name="Rectangle 1001" width="161.034" height="142.9" rx="10.646" transform="translate(13.089 28.838)" fill="#fff"/>
            <rect id="Rectangle_1002-2" data-name="Rectangle 1002" width="43.832" height="31.169" transform="translate(116.535 66.321)" stroke-width="4" stroke="#dfebf2" stroke-linecap="round" stroke-linejoin="round" fill="none"/>
            <line id="Line_114-2" data-name="Line 114" x1="43.832" y2="31.169" transform="translate(116.535 66.321)" fill="none" stroke="#dfebf2" stroke-linecap="round" stroke-linejoin="round" stroke-width="4"/>
            <line id="Line_115-2" data-name="Line 115" y1="2.233" x2="91.152" transform="translate(43.492 73.277)" fill="none" stroke="#ffca2b" stroke-linecap="round" stroke-linejoin="round" stroke-width="1"/>
            <path id="Path_7869-2" data-name="Path 7869" d="M136.38,156.555a18.535,18.535,0,1,1,31.568-13.178" transform="translate(-105.921 -65.188)" fill="none" stroke="#de5d5d" stroke-linecap="round" stroke-miterlimit="10" stroke-width="2"/>
            <line id="Line_116-2" data-name="Line 116" x2="35.055" transform="translate(81.993 111.852)" fill="none" stroke="#58b53d" stroke-miterlimit="10" stroke-width="0.858"/>
            <g id="Group_1690" data-name="Group 1690" transform="translate(91.805)">
              <path id="Path_7870" data-name="Path 7870" d="M248.676,31.631h0a1.808,1.808,0,0,1-1.8-1.8v-6.7a1.808,1.808,0,0,1,1.8-1.8h0a1.808,1.808,0,0,1,1.8,1.8v6.7a1.808,1.808,0,0,1-1.8,1.8Z" transform="translate(-246.876 -21.329)" fill="#99a7b3"/>
              <path id="Path_7871" data-name="Path 7871" d="M250,21.329h0a1.808,1.808,0,0,1,1.8,1.8v6.7a1.808,1.808,0,0,1-1.8,1.8h0Z" transform="translate(-248.2 -21.329)" fill="#818c96"/>
            </g>
            <rect id="Rectangle_1003-2" data-name="Rectangle 1003" width="53.672" height="11.911" rx="5.956" transform="translate(24.957 103.67)" stroke-width="2" stroke="#dfebf2" stroke-linecap="round" stroke-linejoin="round" fill="none"/>
            <rect id="Rectangle_1004-2" data-name="Rectangle 1004" width="30.167" height="14.651" rx="5.462" transform="translate(74.502 82.42)" stroke-width="4" stroke="#dfebf2" stroke-linecap="round" stroke-linejoin="round" fill="none"/>
            <path id="Path_7872-2" data-name="Path 7872" d="M247.019,169.81v8.357a3.144,3.144,0,0,1-3.144,3.144H220a3.144,3.144,0,0,1-3.144-3.144Z" transform="translate(-142.35 -84.243)" fill="none" stroke="#dfebf2" stroke-linecap="round" stroke-linejoin="round" stroke-width="4"/>
            <rect id="Rectangle_1005-2" data-name="Rectangle 1005" width="22.071" height="5.589" rx="2.794" transform="translate(78.55 86.952)" stroke-width="4" stroke="#dfebf2" stroke-linecap="round" stroke-linejoin="round" fill="none"/>
            <rect id="Rectangle_1006-2" data-name="Rectangle 1006" width="53.672" height="11.911" rx="5.956" transform="translate(24.957 124.826)" stroke-width="2" stroke="#dfebf2" stroke-linecap="round" stroke-linejoin="round" fill="none"/>
            <rect id="Rectangle_1007-2" data-name="Rectangle 1007" width="53.672" height="11.911" rx="5.956" transform="translate(24.957 145.981)" stroke-width="2" stroke="#dfebf2" stroke-linecap="round" stroke-linejoin="round" fill="none"/>
            <rect id="Rectangle_1008-2" data-name="Rectangle 1008" width="29.435" height="10.096" transform="translate(123.733 109.395)" stroke-width="2" stroke="#dfebf2" stroke-linecap="round" stroke-linejoin="round" fill="none"/>
            <line id="Line_117-2" data-name="Line 117" y2="12.09" transform="translate(138.486 97.614)" fill="none" stroke="#dfebf2" stroke-linecap="round" stroke-linejoin="round" stroke-width="2"/>
            <rect id="Rectangle_1009-2" data-name="Rectangle 1009" width="22.24" height="10.096" transform="translate(127.331 137.91)" stroke-width="2" stroke="#dfebf2" stroke-linecap="round" stroke-linejoin="round" fill="none"/>
            <rect id="Rectangle_1010-2" data-name="Rectangle 1010" width="12.006" height="10.096" transform="translate(158.825 137.91)" stroke-width="2" stroke="#dfebf2" stroke-linecap="round" stroke-linejoin="round" fill="none"/>
            <rect id="Rectangle_1011-2" data-name="Rectangle 1011" width="12.006" height="10.096" transform="translate(106.248 137.91)" stroke-width="2" stroke="#dfebf2" stroke-linecap="round" stroke-linejoin="round" fill="none"/>
            <line id="Line_118-2" data-name="Line 118" y2="18.152" transform="translate(138.486 119.49)" fill="none" stroke="#dfebf2" stroke-linecap="round" stroke-linejoin="round" stroke-width="2"/>
            <path id="Path_7873-2" data-name="Path 7873" d="M334.857,253.979v-9.055H282.169v9.055" transform="translate(-170.025 -116.07)" fill="none" stroke="#dfebf2" stroke-linecap="round" stroke-linejoin="round" stroke-width="2"/>
          </g>
          <g id="Group_1693" data-name="Group 1693" transform="translate(0 58.861)">
            <path id="Path_7874" data-name="Path 7874" d="M53.367,417.543a12.69,12.69,0,0,0-.393,8.94c-1.028-.227,10.211,3.687,19.191-.1a1.372,1.372,0,0,0,.035-2.46c-3.528-1.972-10.291-5.479-13.75-5.462Z" transform="translate(-50.507 -248.072)" fill="#573a29"/>
            <path id="Path_7875" data-name="Path 7875" d="M98.422,423.046a12.691,12.691,0,0,0-.393,8.94s10.335,3.537,18.845-.2a1.371,1.371,0,0,0,.109-2.408c-3.025-1.982-8.961-5.439-13.478-5.418Z" transform="translate(-69.597 -250.403)" fill="#704c36"/>
            <path id="Path_7876" data-name="Path 7876" d="M85.845,303.565s.656,20.743,2.048,41.345c.641,9.482.808,18.044.966,28.715,0,0-2.751,3.072-10.393,1.729,0,0-.961-18.672-2.345-32.587-1.681-16.893-6.155-24.052-6.155-24.052s-1.827,5.707-4.336,29.947c-.608,5.878-1.707,13.6-2.037,22.26a10.394,10.394,0,0,1-10.577,0s.571-21.212,1.161-34.692-.089-15.491-.472-32.665Z" transform="translate(-50.789 -199.777)" fill="#213458"/>
            <path id="Path_7877" data-name="Path 7877" d="M113.943,164.706s1.486,4.018,4.422,5.564c0,0-1.56,2.553-4.193,2.095Z" transform="translate(-76.604 -140.942)" fill="#ffbd8e"/>
            <path id="Path_7878" data-name="Path 7878" d="M89.842,174.528C84.654,177.547,70.562,177.9,66,163.061s4.388-24.387,17.007-19.886C97.283,148.275,96.584,170.6,89.842,174.528Z" transform="translate(-55.777 -131.344)" fill="#ffbd8e"/>
            <path id="Path_7879" data-name="Path 7879" d="M85.971,138.663s-5.229.127-3.578,4.971.138,5.181-1.1,4.91-4.529-.393-4.419,3.273-8.283,11.848-14.815,1.438-1.219-13.834.629-13.88c0,0-.365-7.79,12.076-8.581,10.158-.645,9.942-7.327,9.942-7.327S94.554,136.561,85.971,138.663Z" transform="translate(-53.28 -123.468)" fill="#484848"/>
            <path id="Path_7880" data-name="Path 7880" d="M61.466,142.553a5.545,5.545,0,0,0,.786,4.91s-1.521-2.683-4.394-.262" transform="translate(-52.839 -131.554)" fill="none" stroke="#484848" stroke-linecap="round" stroke-linejoin="round" stroke-width="2"/>
            <path id="Path_7881" data-name="Path 7881" d="M84.112,201.466s-2.015-6.551-.881-10.309c.6-1.983.027-6.6-6.09-5.906-7.135.81-5.5,15.545-5.5,15.545S76.828,206.994,84.112,201.466Z" transform="translate(-58.611 -149.616)" fill="#ffbd8e"/>
            <path id="Path_7882" data-name="Path 7882" d="M85.511,221.979s-2.933,21.821.6,41.779c0,0-19.374,8.972-36.96-.164,0,0,1.6-14.61.205-38.294-.6-10.169,3.58-18.464,13.748-18.573h.472c10.239,0,16.742,1.694,19.83,3.437C85.888,211.564,86.447,217.824,85.511,221.979Z" transform="translate(-49.15 -158.746)" fill="#ea4335"/>
            <path id="Path_7883" data-name="Path 7883" d="M171.751,195.72a10.449,10.449,0,0,0,4.341-5.9s.7-5.464-4.605-5.242c0,0-2.481,6.155-5.031,7.256Z" transform="translate(-98.855 -149.361)" fill="#ffbd8f"/>
            <path id="Path_7884" data-name="Path 7884" d="M108.679,219.47c-6.294-10.82-1.415-15.6-1.415-15.6s9.1,5.217,22.47,1.1c9.662-2.979,11.113-13.1,11.113-13.1s7.184.832,8.832,8.068c0,0-3.537,13.054-18.979,18.83C120.516,222.571,108.679,219.47,108.679,219.47Z" transform="translate(-73.009 -152.448)" fill="#ea4335"/>
            <path id="Path_7885" data-name="Path 7885" d="M163.368,195.551s6.847,3.652,10,8.868a7.09,7.09,0,0,0,2.806-5.091s-3.394-8.11-10.8-7.49C165.373,191.838,163.1,193.36,163.368,195.551Z" transform="translate(-97.537 -152.423)" fill="#dfebf2"/>
            <path id="Path_7886" data-name="Path 7886" d="M85.514,205.933s-8.4,2.095-19.476-1.008l.454-2.035a1.974,1.974,0,0,1,2.487-1.634,34.653,34.653,0,0,0,12.1,1.124,1.958,1.958,0,0,1,1.808.828Z" transform="translate(-56.306 -156.398)" fill="#dfebf2"/>
            <path id="Path_7887" data-name="Path 7887" d="M94.44,167.511s-2.9-3.339-5-1.506c-2.594,2.259,2.8,11,5.178,7.463" transform="translate(-65.93 -141.259)" fill="#ffbd8e" stroke="#b58665" stroke-miterlimit="10" stroke-width="1"/>
            <path id="Path_7888" data-name="Path 7888" d="M108.281,161.732s-1.15-2.3-2.969-1.842c-1.965.494-1.258,3.183-1.258,3.183" transform="translate(-72.361 -138.875)" fill="none" stroke="#704c36" stroke-miterlimit="10" stroke-width="2"/>
            <path id="Path_7889" data-name="Path 7889" d="M105.41,176.861a5.593,5.593,0,0,0,4.506,3.994s-.506,2.639-2.8,1.7C104.907,181.655,105.41,176.861,105.41,176.861Z" transform="translate(-72.967 -146.092)" fill="#fff"/>
            <path id="Path_7890" data-name="Path 7890" d="M175.329,171.444a18.247,18.247,0,0,0-3.7,3.694c-1.038,1.692,1.666,6.851,1.666,6.851Z" transform="translate(-100.945 -143.796)" fill="#ffbd8f"/>
            <g id="Group_1692" data-name="Group 1692" transform="translate(65.939 20.285)">
              <path id="Path_7891" data-name="Path 7891" d="M188,162.18h0a.907.907,0,0,0,1.247.236l3.07-2.116a.884.884,0,0,0,.2-1.24h0a.907.907,0,0,0-1.247-.241l-3.07,2.117a.884.884,0,0,0-.2,1.243Z" transform="translate(-173.852 -158.669)" fill="#de5d5d"/>
              <path id="Path_7892" data-name="Path 7892" d="M169.668,168.881l1.186,1.681a.3.3,0,0,0,.417.079l11.967-8.247a.3.3,0,0,0,.068-.414L182.12,160.3a.3.3,0,0,0-.417-.079l-11.967,8.253a.3.3,0,0,0-.068.408Z" transform="translate(-166.132 -159.303)" fill="#dfebf2"/>
              <path id="Path_7893" data-name="Path 7893" d="M163.641,171.559l1.781,2.524a.374.374,0,0,0,.513.1l12.537-8.646a.365.365,0,0,0,.083-.511l-1.78-2.524a.374.374,0,0,0-.513-.1l-12.537,8.646a.364.364,0,0,0-.084.511Z" transform="translate(-163.572 -160.225)" fill="#de5d5d"/>
            </g>
            <path id="Path_7894" data-name="Path 7894" d="M176.453,180.608s4.858,2.83,7.032-4.16a8.112,8.112,0,0,0,.459-3.3c-.288-2.626-3.014-3.807-3.532-5.057-.688-1.662-.448-4.334-2.324-4.5s-2.558,4.977-3.42,7.074S170.994,177.865,176.453,180.608Z" transform="translate(-101.701 -140.466)" fill="#ffbd8f"/>
            <path id="Path_7895" data-name="Path 7895" d="M105.135,280.718a28.052,28.052,0,0,1-5.659.792.873.873,0,0,0-.865.795,6.981,6.981,0,0,0,.457,3.112.918.918,0,0,0,.9.5,22.037,22.037,0,0,0,5.761-1.016.851.851,0,0,0,.574-.757c.017-.526.034-1.43.01-2.635a.907.907,0,0,0-1.175-.792Z" transform="translate(-70.1 -190.081)" fill="#1f1f1f"/>
            <path id="Path_7896" data-name="Path 7896" d="M79.436,326.446c.763,1.161,1.62,2.211,4.116,9.093h0c-2.5-13.441-8-13.441-8-13.441a21.346,21.346,0,0,1,3.881,4.347Z" transform="translate(-60.338 -207.632)" fill="#0f0f0f"/>
          </g>
          <g id="Group_1698" data-name="Group 1698" transform="translate(76.415 112.314)">
            <g id="Group_1694" data-name="Group 1694" transform="translate(0.476 2.707)">
              <path id="Path_7897" data-name="Path 7897" d="M190.1,273.889s-3.891-4.027-4.2-17.983c-.13-5.921,1.148-12.812,2.327-15.013,0,0,3.833-3.957,6.97.332,0,0-1.772,8.55-1.679,14.084.079,4.795,2.044,10.437,4.375,15.988Z" transform="translate(-183.981 -228.677)" fill="#e3a97f"/>
              <path id="Path_7898" data-name="Path 7898" d="M196.363,285.506c3.792,9.9,14.521,20.151,14.521,20.151a7.661,7.661,0,0,1-3.949,4.047,9.9,9.9,0,0,1-10.4-1.273,43.309,43.309,0,0,1-11.694-14.824,37.01,37.01,0,0,1,11.522-8.1Z" transform="translate(-183.535 -248.285)" fill="#cad5db"/>
              <path id="Path_7899" data-name="Path 7899" d="M197.918,288.343s-8.627,1.836-13.707,6.543a8.058,8.058,0,0,1-1.464-6.445s6.257-7.792,14.148-4.787C196.894,283.656,198.9,286.033,197.918,288.343Z" transform="translate(-182.587 -247.208)" fill="#dfebf2"/>
              <path id="Path_7900" data-name="Path 7900" d="M205.129,230.281a18.248,18.248,0,0,1,1.131,5.109c-.036,1.985-5.089,4.88-5.089,4.88Z" transform="translate(-190.454 -224.885)" fill="#e3a97f"/>
              <path id="Path_7901" data-name="Path 7901" d="M192.881,236.649s-3.962.5-4.024-6.819a18.313,18.313,0,0,1,.843-4.582,13.055,13.055,0,0,1,1.548-3.029c1.232-1.761,3.734-1.32,4.746-1.031.786.225.055,3.128.278,2.778,1.126-1.765,2.094-3.6,3.766-2.728s.1,5.753-.306,7.988S198.957,237.269,192.881,236.649Z" transform="translate(-185.237 -220.917)" fill="#e3a97f"/>
            </g>
            <g id="Group_1695" data-name="Group 1695" transform="translate(7.287 8.355)">
              <path id="Path_7902" data-name="Path 7902" d="M222.853,268.846c-5.715,1.829-17.552-1.351-18.806-16.828s9.543-22.867,20.895-15.747C237.78,244.327,230.281,266.469,222.853,268.846Z" transform="translate(-198.442 -231.918)" fill="#ffbd8f"/>
              <path id="Path_7903" data-name="Path 7903" d="M230.752,297.355s-1.309-6.288-1.965-10.158c-.562-3.3-1.9-4.467-6.6-4.04-7.209.653-3.9,14.851-3.9,14.851S224.094,303.623,230.752,297.355Z" transform="translate(-204.195 -252.902)" fill="#ffbd8f"/>
              <path id="Path_7904" data-name="Path 7904" d="M247.1,265.539s2.167-3.587,4.6-2.311c2.992,1.572-.531,10.547-3.573,7.773Z" transform="translate(-216.727 -244.378)" fill="#ffbd8f"/>
              <path id="Path_7905" data-name="Path 7905" d="M200.1,266.557s-2.689-3.262-4.9-1.676c-2.724,1.955,2.122,10.369,4.716,7.218Z" transform="translate(-194.396 -245.01)" fill="#ffbd8f"/>
              <path id="Path_7906" data-name="Path 7906" d="M216.183,262.423c-3.542,1.148-14.8,1.519-17.955-9.89-2.83-10.255.891-14.265,2.188-15.8,3.636-4.311,8.7-6.9,16.911-5.738.1.014.2.031.3.048,9.849,1.644,16.359,13.735,10.654,22.585a43.82,43.82,0,0,1-2.571,3.564C224.349,258.9,220.5,261.024,216.183,262.423Z" transform="translate(-195.58 -230.72)" fill="#484848"/>
              <path id="Path_7907" data-name="Path 7907" d="M212.844,242.908a5.547,5.547,0,0,0-.294,4.964s-.905-2.949-4.234-1.2" transform="translate(-200.294 -235.884)" fill="none" stroke="#1f1f1f" stroke-linecap="round" stroke-linejoin="round" stroke-width="2"/>
            </g>
            <path id="Path_7908" data-name="Path 7908" d="M261.392,422.867s-1.872,2.211-.369,6.76c0,0,5.809,3.741,17.828-3.824,1-.629.979-2.127.1-2.442-2.862-1.029-8.474-2.62-12.751-1.174Z" transform="translate(-215.091 -303.246)" fill="#573a29"/>
            <path id="Path_7909" data-name="Path 7909" d="M268.071,392.081s-2.358,4.721-13.205,2.235c0,0-1.7-26.646-.321-35.223,1.078-6.724,7.83-13.834,11.75,4.3C267.6,369.441,267.27,380.062,268.071,392.081Z" transform="translate(-212.367 -273.707)" fill="#4285f4"/>
            <path id="Path_7910" data-name="Path 7910" d="M185.854,415.837a100.2,100.2,0,0,1-.243-11.712,3.35,3.35,0,0,1,2.751-3.2c1.66-.3,3.925-.725,6.279-1.221,13.2-2.776,14.733,9.051,12.767,11.173-3.116,3.364-5.387,4.517-9.474,5.968a34.341,34.341,0,0,1-8.175,2,3.354,3.354,0,0,1-3.907-3.007Z" transform="translate(-183.359 -293.789)" fill="#4285f4"/>
            <path id="Path_7911" data-name="Path 7911" d="M213.977,397.29s4.859-5.227,4.82-22.148-16.409-1.517-16.409-1.517-1.923,7.467-1.179,12.491C201.208,386.115,213.828,389.644,213.977,397.29Z" transform="translate(-189.922 -280.196)" fill="#4285f4"/>
            <path id="Path_7912" data-name="Path 7912" d="M181.75,409.019c0,6.353.288,15.787,5.852,15.787,4.377,0,5.817-9.291,5.817-15.642s-1.8-8.279-5.817-8.279S181.75,402.666,181.75,409.019Z" transform="translate(-181.75 -294.466)" fill="#704c36"/>
            <path id="Path_7913" data-name="Path 7913" d="M241.539,355.162s-3.759,33.682-23.353,30.567c-19.423-3.088-17.347-13.277-14.975-20.638s21.4-2.1,21.4-2.1S236.278,343.339,241.539,355.162Z" transform="translate(-190.212 -273.489)" fill="#4285f4"/>
            <path id="Path_7914" data-name="Path 7914" d="M229.609,314.586s-3.72,18.471,3.773,36.93c0,0-19.375,8.973-36.96-.164,0,0,.692-11,1.764-34.7.487-10.783,2.02-15.142,12.19-15.249h.472c10.238,0,16.742,1.694,19.83,3.437C233.164,306.237,230.544,310.431,229.609,314.586Z" transform="translate(-187.968 -252.313)" fill="#dfebf2"/>
            <path id="Path_7915" data-name="Path 7915" d="M278.119,279.644s7.866-5.751,8.3-32.111c0,0-2.482-4.919-6.753-1.759,0,0-.136,15.956-8.854,30.114Z" transform="translate(-219.488 -228.295)" fill="#ffbd8f"/>
            <path id="Path_7916" data-name="Path 7916" d="M263.783,290.443c-7.231,7.752-14.148,8.308-14.148,8.308s-1.306,7.989,2.163,13.258c0,0,12.793-3.723,19.622-9.733a37.012,37.012,0,0,0-7.637-11.833Z" transform="translate(-210.413 -247.67)" fill="#cad5db"/>
            <path id="Path_7917" data-name="Path 7917" d="M267.794,292.2s7.31,4.939,10.251,11.209a8.057,8.057,0,0,0,3.773-5.424s-2.876-9.571-11.319-9.747C270.5,288.236,267.751,289.686,267.794,292.2Z" transform="translate(-218.208 -246.734)" fill="#dfebf2"/>
            <path id="Path_7918" data-name="Path 7918" d="M232.791,300.607a41.533,41.533,0,0,1-19.476-1.008l.454-2.034a1.975,1.975,0,0,1,2.487-1.635,34.65,34.65,0,0,0,12.1,1.124,1.958,1.958,0,0,1,1.808.828Z" transform="translate(-195.124 -249.965)" fill="#cad5db"/>
            <path id="Path_7919" data-name="Path 7919" d="M282.2,232.917a18.235,18.235,0,0,0-2.6,4.537c-.557,1.906,3.405,6.175,3.405,6.175Z" transform="translate(-223.187 -223.295)" fill="#ffbd8f"/>
            <g id="Group_1696" data-name="Group 1696" transform="translate(51.61 0)">
              <path id="Path_7920" data-name="Path 7920" d="M291.71,220.628h0a.908.908,0,0,0,1.266-.1l2.408-2.848a.885.885,0,0,0-.129-1.25h0a.909.909,0,0,0-1.267.1l-2.407,2.848a.883.883,0,0,0,.129,1.25Z" transform="translate(-279.812 -216.222)" fill="#58b53d"/>
              <path id="Path_7921" data-name="Path 7921" d="M276.864,230.314l1.586,1.312a.3.3,0,0,0,.423-.031l9.384-11.1a.3.3,0,0,0-.043-.418l-1.586-1.312a.3.3,0,0,0-.423.031l-9.384,11.1a.295.295,0,0,0,.043.417Z" transform="translate(-273.614 -217.269)" fill="#dfebf2"/>
              <path id="Path_7922" data-name="Path 7922" d="M271.444,234.445l2.38,1.965a.373.373,0,0,0,.522-.039l9.831-11.628a.364.364,0,0,0-.053-.515l-2.38-1.969a.374.374,0,0,0-.522.039l-9.831,11.628a.364.364,0,0,0,.053.518Z" transform="translate(-271.306 -218.744)" fill="#58b53d"/>
            </g>
            <path id="Path_7923" data-name="Path 7923" d="M287.03,241.258s5.431,1.459,5.694-5.861a8.11,8.11,0,0,0-.423-3.305c-.968-2.459-3.907-2.883-4.733-3.954-1.1-1.423-1.572-4.065-3.425-3.735s-1.163,5.473-1.444,7.727S281.042,240.041,287.03,241.258Z" transform="translate(-224.381 -219.676)" fill="#ffbd8f"/>
            <g id="Group_1697" data-name="Group 1697" transform="translate(58.647 21.983)">
              <path id="Path_7924" data-name="Path 7924" d="M292.255,256.3A15.268,15.268,0,0,1,284,255.8a14.461,14.461,0,0,1-.485,3.229s3.065,1.676,8.74.593A6.588,6.588,0,0,0,292.255,256.3Z" transform="translate(-283.517 -254.976)" fill="#001f38"/>
              <path id="Path_7925" data-name="Path 7925" d="M291.4,255.644h0a.393.393,0,0,1-.34-.435l.061-.5a.393.393,0,0,1,.435-.34h0a.393.393,0,0,1,.34.435l-.061.5A.393.393,0,0,1,291.4,255.644Z" transform="translate(-286.711 -254.368)" fill="#001f38"/>
              <circle id="Ellipse_341" data-name="Ellipse 341" cx="2.547" cy="2.547" r="2.547" transform="translate(1.94 0.715)" fill="#003c6b"/>
              <path id="Path_7926" data-name="Path 7926" d="M291.717,258.872a1.572,1.572,0,1,1-1.572-1.572A1.572,1.572,0,0,1,291.717,258.872Z" transform="translate(-285.661 -255.61)" fill="#fff"/>
            </g>
          </g>
          <g id="Group_1701" data-name="Group 1701" transform="translate(156.557 72.935)">
            <path id="Path_7927" data-name="Path 7927" d="M372.06,183.666s-1.882,4.016-5.045,5.356c0,0,1.388,2.769,4.143,2.525Z" transform="translate(-340.391 -163.049)" fill="#ffbd8f"/>
            <path id="Path_7928" data-name="Path 7928" d="M375.474,190.7c4.143,2.411,15.406,2.7,19.05-9.163s-3.506-19.485-13.588-15.885C369.528,169.727,370.085,187.566,375.474,190.7Z" transform="translate(-342.405 -155.037)" fill="#ffbd8f"/>
            <path id="Path_7929" data-name="Path 7929" d="M390.4,211.666a77.6,77.6,0,0,0,1.478-8.84c.157-1.787-.615-5.26,4.087-5.2,6.217.079,3.491,13.531,3.491,13.531S396.7,216.452,390.4,211.666Z" transform="translate(-350.299 -168.964)" fill="#fff" stroke="#000" stroke-miterlimit="10" stroke-width="0.798"/>
            <path id="Path_7930" data-name="Path 7930" d="M391.555,298.806c-3.048,17.569,5.764,29.952,5.828,37.9.044,5.345,16.752,21.765,22.261,27.035a4.123,4.123,0,0,0,5.329.352q.092-.07.185-.144a4.151,4.151,0,0,0,.757-5.659,131.985,131.985,0,0,1-8.436-13.21c-3.852-7.068-7.029-6.7-8.467-9.182a3.323,3.323,0,0,1-.353-2.353c.754-3.541,1.842-20.642-.517-38.3Z" transform="translate(-350.518 -210.328)" fill="#e3a97f"/>
            <path id="Path_7931" data-name="Path 7931" d="M377.1,309.723c-3.133,23.812,2.318,30.294,1.321,38.18-.684,5.407,3.873,25.539,5.243,31.405a3.38,3.38,0,0,0,3.273,2.632,8,8,0,0,0,1.61-.174,3.4,3.4,0,0,0,2.7-3.572,147.492,147.492,0,0,1-.265-16.7c.425-8.128-1.134-9.589-2.192-12.331a3.209,3.209,0,0,1-.013-2.249c1.208-3.319,3.847-11.744,5.845-38.656Z" transform="translate(-344.249 -215.838)" fill="#ffbd8f"/>
            <path id="Path_7932" data-name="Path 7932" d="M387.392,426.071s-8.317,2.268-14.517,2.479-7.834,2.7-4.351,4.376,16.179,2.386,19.988,0C388.512,432.926,389.32,431.759,387.392,426.071Z" transform="translate(-340.268 -265.759)" fill="#573a29"/>
            <path id="Path_7933" data-name="Path 7933" d="M372.643,303.869a83.671,83.671,0,0,0-2.566,24.659s13.381,7.1,34.145-.742c0,0,1.008-17.039-2.256-24.4Z" transform="translate(-341.644 -213.777)" fill="#ea4335"/>
            <path id="Path_7934" data-name="Path 7934" d="M422.768,291.178a6.431,6.431,0,0,0,1.445-.381.744.744,0,0,1,1,.415,20.025,20.025,0,0,1,1.25,5.142.732.732,0,0,1-.24.567,4.187,4.187,0,0,1-2.51,1.095.742.742,0,0,1-.786-.636l-.781-5.362a.741.741,0,0,1,.616-.84Z" transform="translate(-363.75 -208.414)" fill="#ea4335"/>
            <path id="Path_7935" data-name="Path 7935" d="M370.9,232.087c1.4,7.261,4.9,6.923,4.668,19.186-.109,5.784-5.6,13.651-6.694,19.818,0,0,18.688,8.346,35.642-.462a65.924,65.924,0,0,1-4.642-20.007c-.287-5.139.263-7.672.865-14.541,1.076-12.257-1.065-20.783-10.869-20.889-.149,0,.152.008,0,0-5.87-.287-9.454.137-12.026,1.827C372.994,220.207,370.123,228.055,370.9,232.087Z" transform="translate(-341.178 -176.371)" fill="#ea4335"/>
            <path id="Path_7936" data-name="Path 7936" d="M383.63,215.968s5.912.937,15.915-1.865h0c-.171-2.044-1.6-2.349-2.661-2.071a21.414,21.414,0,0,1-9.012.752,2.631,2.631,0,0,0-1.875.722Z" transform="translate(-347.431 -175.031)" fill="#fbbc05"/>
            <g id="Group_1700" data-name="Group 1700" transform="translate(0 0)">
              <path id="Path_7937" data-name="Path 7937" d="M325.185,189.064a24.781,24.781,0,0,1,.038-7.688s.254-5.173,5.125-2.621c0,0-.393,6.856,1.5,9.012Z" transform="translate(-322.551 -160.668)" fill="#ffbd8f"/>
              <path id="Path_7938" data-name="Path 7938" d="M352.212,217.012c5.163-1.683,5.22-6.838,4.873-9.511a1.886,1.886,0,0,0-1.808-1.651c-3.495-.128-10.921.314-19.378-7.271-6.433-5.773-5.831-14.192-5.831-14.192s-6.852-.544-9.207,3.633c0,0-1.3,9.618,11.843,20.5a42.93,42.93,0,0,0,18.462,8.542,1.94,1.94,0,0,0,1.047-.053Z" transform="translate(-320.818 -163.343)" fill="#ea4335"/>
              <path id="Path_7939" data-name="Path 7939" d="M335.5,165.02a16.692,16.692,0,0,1,1.619,4.5c.2,1.808-4.053,5.02-4.053,5.02Z" transform="translate(-326.008 -155.148)" fill="#ffbd8f"/>
              <g id="Group_1699" data-name="Group 1699" transform="translate(3.327)">
                <path id="Path_7940" data-name="Path 7940" d="M329.535,152.345h0a.83.83,0,0,1-1.126-.288l-1.715-2.95a.809.809,0,0,1,.314-1.105h0a.83.83,0,0,1,1.126.288l1.715,2.95a.809.809,0,0,1-.314,1.1Z" transform="translate(-326.59 -147.891)" fill="#ffca2b"/>
                <path id="Path_7941" data-name="Path 7941" d="M336.414,162.7l-1.638.929a.278.278,0,0,1-.377-.1l-6.685-11.5a.27.27,0,0,1,.105-.369l1.638-.929a.277.277,0,0,1,.376.1l6.686,11.5a.27.27,0,0,1-.105.368Z" transform="translate(-327.052 -149.08)" fill="#dfebf2"/>
                <path id="Path_7942" data-name="Path 7942" d="M339.97,167.286l-2.459,1.394a.342.342,0,0,1-.464-.118l-7-12.046a.333.333,0,0,1,.13-.455l2.459-1.394a.342.342,0,0,1,.464.119l7,12.046a.333.333,0,0,1-.13.454Z" transform="translate(-328.035 -150.742)" fill="#ffca2b"/>
              </g>
              <path id="Path_7943" data-name="Path 7943" d="M325.127,171.818s-5.126.448-4.2-6.189a7.427,7.427,0,0,1,.909-2.908c1.264-2.061,3.98-1.975,4.9-2.807,1.218-1.107,2.063-3.413,3.681-2.819s.174,5.118.069,7.193S330.717,171.676,325.127,171.818Z" transform="translate(-320.818 -151.748)" fill="#ffbd8f"/>
            </g>
            <path id="Path_7944" data-name="Path 7944" d="M439.286,402.109a50.518,50.518,0,0,1-7.675,8.394,3.385,3.385,0,0,1-1.572.629c-6.41.434-6.581,3.917-2.8,5.237,1.057.369,5.188.388,7.035-.641,4.745-2.644,8.983-5.5,10.192-8.627C444.462,407.1,444.409,405.632,439.286,402.109Z" transform="translate(-364.848 -255.606)" fill="#573a29"/>
            <path id="Path_7945" data-name="Path 7945" d="M386.242,199.75a13.285,13.285,0,0,0,.321-3.749,7.907,7.907,0,0,1,1.122,3.965,32.251,32.251,0,0,0,4.452.291,16.337,16.337,0,0,0,.287-2.142,7.057,7.057,0,0,1,.625,2.116,16.564,16.564,0,0,0,5.124-.974,14.288,14.288,0,0,0,.09-3.28,7.48,7.48,0,0,1,1.111,2.735,8.538,8.538,0,0,0,2.308-1.753s-1.225-24.322-7.882-31.276c-7.074-7.389-17.74-4.5-22.028,7.158a15.594,15.594,0,0,1,10.735,2.539,84.8,84.8,0,0,1-.911,23.307,38.988,38.988,0,0,0,4.647,1.062Z" transform="translate(-342.406 -153.711)" fill="#484848"/>
            <path id="Path_7946" data-name="Path 7946" d="M385.793,185.1s2.314-2.668,3.995-1.2c2.07,1.808-2.235,8.787-4.137,5.963" transform="translate(-348.287 -162.958)" fill="#ffbd8e" stroke="#b58665" stroke-miterlimit="10" stroke-width="1"/>
            <path id="Path_7947" data-name="Path 7947" d="M374.93,199.81s2.322,1.886,3.918-1.6" transform="translate(-343.745 -169.213)" fill="none" stroke="#c26b3b" stroke-miterlimit="10" stroke-width="1"/>
            <path id="Path_7948" data-name="Path 7948" d="M374.93,184.49s1.6-2.3,2.394.165" transform="translate(-343.745 -162.984)" fill="none" stroke="#61351d" stroke-linecap="round" stroke-linejoin="round" stroke-width="1"/>
            <path id="Path_7949" data-name="Path 7949" d="M375.806,182.288c-.164,2.181-1.243,3.878-2.411,3.791s-1.982-1.927-1.817-4.109,1.243-3.878,2.411-3.791S375.97,180.107,375.806,182.288Z" transform="translate(-342.315 -160.722)" fill="none" stroke="#426175" stroke-linecap="round" stroke-linejoin="round" stroke-width="1"/>
            <line id="Line_119" data-name="Line 119" x2="4.903" y2="0.204" transform="translate(33.511 21.1)" fill="none" stroke="#426175" stroke-linecap="round" stroke-linejoin="round" stroke-width="1"/>
            <path id="Path_7950" data-name="Path 7950" d="M387.707,193.457a.4.4,0,1,1-.4-.4A.4.4,0,0,1,387.707,193.457Z" transform="translate(-348.822 -167.028)" fill="#fff"/>
            <path id="Path_7951" data-name="Path 7951" d="M370.137,296.455a14.664,14.664,0,0,1,2.247-5.6.975.975,0,0,1,1.157-.334,18.157,18.157,0,0,0,4.737,1.167.965.965,0,0,1,.855.921,8.585,8.585,0,0,1-1.284,5.053.967.967,0,0,1-.507.36,9.173,9.173,0,0,1-6.674-.509.978.978,0,0,1-.532-1.056Z" transform="translate(-341.707 -208.293)" fill="#ea4335"/>
          </g>
        </g>
      </g>
    </g>
  </g>
</svg>
