<svg xmlns="http://www.w3.org/2000/svg" xmlns:xlink="http://www.w3.org/1999/xlink" width="207.644" height="155.76" viewBox="0 0 207.644 155.76">
  <defs>
    <linearGradient id="linear-gradient" x1="0.5" x2="0.5" y2="1" gradientUnits="objectBoundingBox">
      <stop offset="0" stop-color="#eff6ff"/>
      <stop offset="1" stop-color="#c4d8fb"/>
    </linearGradient>
  </defs>
  <g id="Group_6170" data-name="Group 6170" transform="translate(-196.782 -3135.348)">
    <ellipse id="floor" cx="30.754" cy="20.755" rx="30.754" ry="20.755" transform="translate(342.547 3249.598)" fill="url(#linear-gradient)"/>
    <g id="Group_6156" data-name="Group 6156" transform="translate(198.782 3135.348)">
      <rect id="Rectangle_888" data-name="Rectangle 888" width="205.642" height="114.097" rx="5" transform="translate(0 0.007)" fill="#213458"/>
      <path id="Path_7297" data-name="Path 7297" d="M379.042,273.2v6.023H173.4V273.2a4.131,4.131,0,0,1,1.267-2.973A4.409,4.409,0,0,1,177.736,269h196.97a4.409,4.409,0,0,1,3.068,1.232A4.131,4.131,0,0,1,379.042,273.2Z" transform="translate(-173.398 -269)" fill="#213458"/>
    </g>
    <g id="Group_1242" data-name="Group 1242" transform="translate(196.782 3137.348)">
      <rect id="Rectangle_888-2" data-name="Rectangle 888" width="205.642" height="114.097" rx="5" transform="translate(0 0.007)" fill="#4285f4"/>
      <path id="Path_7297-2" data-name="Path 7297" d="M379.042,273.2v6.023H173.4V273.2a4.131,4.131,0,0,1,1.267-2.973A4.409,4.409,0,0,1,177.736,269h196.97a4.409,4.409,0,0,1,3.068,1.232A4.131,4.131,0,0,1,379.042,273.2Z" transform="translate(-173.398 -269)" fill="#4285f4"/>
    </g>
    <g id="Group_4268" data-name="Group 4268" transform="translate(201.857 3137.348)">
      <rect id="Rectangle_888-3" data-name="Rectangle 888" width="199.977" height="110.937" rx="5" transform="translate(-2 0.007)" fill="#fff"/>
      <path id="Path_7297-3" data-name="Path 7297" d="M378.123,273.2v6.023H173.4V273.2a4.14,4.14,0,0,1,1.262-2.973A4.379,4.379,0,0,1,177.716,269h196.09a4.379,4.379,0,0,1,3.055,1.232A4.14,4.14,0,0,1,378.123,273.2Z" transform="translate(-177.922 -269)" fill="#4285f4"/>
    </g>
    <g id="Group_1243" data-name="Group 1243" transform="translate(312.329 3204.993)">
      <path id="Path_7032" data-name="Path 7032" d="M14.1,0A14.1,14.1,0,1,1,0,14.1,14.1,14.1,0,0,1,14.1,0Z" transform="translate(0 0)" fill="#fbbc05"/>
      <g id="Group_1096" data-name="Group 1096" transform="translate(6.389 7.454)">
        <path id="Path_6971" data-name="Path 6971" d="M-15054.877-755.295s-2.5-.193-2.51.359,0,6.993,0,6.993l1.48.628v1.7l.537.269,1.7-1.972h6.143v-2.69Z" transform="translate(15058.19 758.028)" fill="#fff"/>
        <path id="Path_6970" data-name="Path 6970" d="M-15006.334-727.72l-1.793-2.2h2.063Z" transform="translate(15019.421 738.029)" fill="#fff"/>
        <rect id="Rectangle_854" data-name="Rectangle 854" width="11.501" height="7.88" transform="translate(3.654 0.427)" fill="#fff"/>
        <g id="Group_1083" data-name="Group 1083" transform="translate(0 0)">
          <g id="Group_634" data-name="Group 634" transform="translate(0 0)">
            <path id="Path_1364" data-name="Path 1364" d="M96.25,36.55A1.453,1.453,0,0,0,94.8,38v5.768a1.453,1.453,0,0,0,1.45,1.45h6.5l1.832,2.121a.582.582,0,0,0,1.023-.379V45.221h.414a1.453,1.453,0,0,0,1.45-1.45V38a1.453,1.453,0,0,0-1.45-1.45ZM106.679,38v5.768a.665.665,0,0,1-.664.664h-.805a.394.394,0,0,0-.395.395v1.582l-1.591-1.838a.39.39,0,0,0-.3-.135H96.25a.665.665,0,0,1-.664-.664V38a.665.665,0,0,1,.664-.664h9.765A.665.665,0,0,1,106.679,38Z" transform="translate(-91.759 -36.55)" fill="#355dc9"/>
            <path id="Path_1365" data-name="Path 1365" d="M2.242,121.5a.581.581,0,0,0,.205.038.573.573,0,0,0,.436-.2l1.832-2.121h5.723a.395.395,0,1,0,0-.789h-5.9a.4.4,0,0,0-.3.135L2.65,120.408v-1.582a.394.394,0,0,0-.395-.395H1.45a.665.665,0,0,1-.664-.664V112a.665.665,0,0,1,.664-.664.393.393,0,1,0,0-.786A1.453,1.453,0,0,0,0,112v5.768a1.453,1.453,0,0,0,1.45,1.45h.414v1.739A.572.572,0,0,0,2.242,121.5Z" transform="translate(0 -108.176)" fill="#355dc9"/>
            <ellipse id="Ellipse_175" data-name="Ellipse 175" cx="0.468" cy="0.468" rx="0.468" ry="0.468" transform="translate(8.906 4.004)" fill="#355dc9"/>
            <ellipse id="Ellipse_176" data-name="Ellipse 176" cx="0.468" cy="0.468" rx="0.468" ry="0.468" transform="translate(7.337 4.004)" fill="#355dc9"/>
            <ellipse id="Ellipse_177" data-name="Ellipse 177" cx="0.468" cy="0.468" rx="0.468" ry="0.468" transform="translate(10.474 4.004)" fill="#355dc9"/>
          </g>
        </g>
      </g>
    </g>
    <g id="Group_1244" data-name="Group 1244" transform="translate(258.303 3156.125)">
      <ellipse id="Ellipse_255" data-name="Ellipse 255" cx="14.5" cy="14" rx="14.5" ry="14" transform="translate(-0.303 -0.125)" fill="#4285f4"/>
      <g id="Group_1097" data-name="Group 1097" transform="translate(6.235 6.87)">
        <path id="Path_6975" data-name="Path 6975" d="M-15543.054-950.707l-2.385-2.035h-7.615l-1.34-1.57v-8.78l1.34-1.4h12.791l1.57,1.4v8.78l-1.279,1.57h-2.792Z" transform="translate(15554.735 964.681)" fill="#fff"/>
        <g id="Group_1079" data-name="Group 1079" transform="translate(0 0)">
          <g id="video-call">
            <g id="Group_636" data-name="Group 636">
              <g id="Group_635" data-name="Group 635">
                <path id="Path_1375" data-name="Path 1375" d="M14.149,27H2.241A2.243,2.243,0,0,0,0,29.241v7.683a2.243,2.243,0,0,0,2.241,2.241H5.49a.32.32,0,0,0,0-.64H2.241a1.6,1.6,0,0,1-1.6-1.6V29.241a1.6,1.6,0,0,1,1.6-1.6H14.149a1.6,1.6,0,0,1,1.6,1.6v7.683a1.6,1.6,0,0,1-1.6,1.6H11.808a.32.32,0,0,0-.32.32v1.724l-1.95-1.95a.32.32,0,0,0-.226-.094H8.547a.32.32,0,1,0,0,.64h.631l2.4,2.4a.32.32,0,0,0,.546-.226V39.164h2.021a2.243,2.243,0,0,0,2.241-2.241V29.241A2.243,2.243,0,0,0,14.149,27Z" transform="translate(0 -27)" fill="#355dc9"/>
              </g>
            </g>
            <g id="Group_638" data-name="Group 638" transform="translate(6.569 11.524)">
              <g id="Group_637" data-name="Group 637">
                <path id="Path_1376" data-name="Path 1376" d="M205.746,387.094a.32.32,0,1,0,.094.226A.322.322,0,0,0,205.746,387.094Z" transform="translate(-205.2 -387)" fill="#355dc9"/>
              </g>
            </g>
            <g id="Group_640" data-name="Group 640" transform="translate(1.71 2.561)">
              <g id="Group_639" data-name="Group 639">
                <path id="Path_1377" data-name="Path 1377" d="M66.188,107.045a.32.32,0,0,0-.317-.005l-3.111,1.7v-.134a1.484,1.484,0,0,0-1.482-1.482H54.894a1.484,1.484,0,0,0-1.482,1.482v3.822a1.484,1.484,0,0,0,1.482,1.482h6.383a1.484,1.484,0,0,0,1.482-1.482V112.3l3.111,1.7a.32.32,0,0,0,.474-.281v-6.4A.32.32,0,0,0,66.188,107.045Zm-4.069,2.24v3.148a.843.843,0,0,1-.842.842H54.894a.843.843,0,0,1-.842-.842v-.054h2.415a.32.32,0,1,0,0-.64H54.052V108.61a.843.843,0,0,1,.842-.842h6.383a.843.843,0,0,1,.842.842Zm3.585,3.9-2.945-1.613v-2.095l2.945-1.613Z" transform="translate(-53.412 -107)" fill="#355dc9"/>
              </g>
            </g>
            <g id="Group_642" data-name="Group 642" transform="translate(5.556 7.299)">
              <g id="Group_641" data-name="Group 641">
                <path id="Path_1378" data-name="Path 1378" d="M173.9,255h0a.32.32,0,1,0,.323.32A.319.319,0,0,0,173.893,255Z" transform="translate(-173.575 -255)" fill="#355dc9"/>
              </g>
            </g>
          </g>
        </g>
      </g>
    </g>
    <g id="Group_1245" data-name="Group 1245" transform="translate(312.182 3156.125)">
      <ellipse id="Ellipse_256" data-name="Ellipse 256" cx="14" cy="14.5" rx="14" ry="14.5" transform="translate(-0.182 -0.125)" fill="#fbbc05"/>
      <g id="Group_1099" data-name="Group 1099" transform="translate(6.121 6.182)">
        <path id="Path_6973" data-name="Path 6973" d="M-15527.506-727.812l1.164,2.268-.523,1.279.523,1.454,1.746,1.628,1.277-.291,1.338.7,1.047.93-1.047,1.047-1.629.407-2.385-1.1-2.732-3.315-.754-3.2.754-1.279Z" transform="translate(15529.857 734.421)" fill="#fff"/>
        <path id="Path_6972" data-name="Path 6972" d="M-15509.187-740.394l-.871-1.919.871-2.558,2.443-1.861,2.616-.233,1.512.64,1.046-.407.292,1.1.989,1.8.466,1.512-.466,1.919-1.514,1.512-1.338.756h-3.2l-1.4-.523-1.919.291Z" transform="translate(15514.563 749.503)" fill="#fff"/>
        <g id="Group_1080" data-name="Group 1080" transform="translate(0 0)">
          <path id="Path_1366" data-name="Path 1366" d="M142.113,72.277a1.017,1.017,0,0,0-.337-1.17h0a1.019,1.019,0,0,0-1.3.066,5.873,5.873,0,0,0-4.917.129,4.887,4.887,0,0,0-2.539,2.881,4.332,4.332,0,0,0,.358,3.45l-.338,1.784a.326.326,0,0,0,.353.385l2-.2a5.7,5.7,0,0,0,1.322.512,5.923,5.923,0,0,0,3.572-.222.326.326,0,0,0-.238-.607,5.26,5.26,0,0,1-3.175.2,5.032,5.032,0,0,1-1.253-.5.324.324,0,0,0-.216-.038l-1.647.165.279-1.474a.325.325,0,0,0-.04-.226,3.7,3.7,0,0,1-.359-3.03,4.792,4.792,0,0,1,5.793-2.873,5.153,5.153,0,0,1,.731.243,1.016,1.016,0,0,0,1.535,1.033,3.8,3.8,0,0,1,.969,3.826,3.94,3.94,0,0,1-.738,1.342.326.326,0,0,0,.5.417,4.588,4.588,0,0,0,.859-1.563,4.453,4.453,0,0,0-1.174-4.526Zm-1.17-.069a.364.364,0,1,1,.511-.071.365.365,0,0,1-.511.071Zm0,0" transform="translate(-128.56 -68.431)" fill="#355dc9"/>
          <path id="Path_1367" data-name="Path 1367" d="M370.776,37.66a1.65,1.65,0,0,1,1.348.3,1.633,1.633,0,0,1,.655,1.331.326.326,0,0,0,.323.329h0a.326.326,0,0,0,.326-.323,2.3,2.3,0,0,0-2.793-2.27.326.326,0,1,0,.138.637Zm0,0" transform="translate(-358.525 -35.787)" fill="#355dc9"/>
          <path id="Path_1368" data-name="Path 1368" d="M372.011.662a3.268,3.268,0,0,0-2.668-.587.326.326,0,0,0,.138.637,2.619,2.619,0,0,1,3.176,2.582.326.326,0,0,0,.323.328h0a.326.326,0,0,0,.326-.323,3.285,3.285,0,0,0-1.3-2.637Zm0,0" transform="translate(-357.271 0)" fill="#355dc9"/>
          <path id="Path_1369" data-name="Path 1369" d="M7.951,201.955c-.864-.61-1.4-.8-2.123-.26a.314.314,0,0,0-.042.038A2.193,2.193,0,0,1,4.509,201c-.132-.132-.267-.282-.4-.443s-.254-.329-.355-.484a2.2,2.2,0,0,1-.462-1.4.329.329,0,0,0,.045-.033c.68-.595.6-1.162.176-2.131-.25-.616-.533-1.232-1-1.425a1.5,1.5,0,0,0-1.064.153A2.77,2.77,0,0,0,.4,196.3a3.839,3.839,0,0,0-.316,2.513A10.614,10.614,0,0,0,5,204.849a4.2,4.2,0,0,0,1.608.333,3.073,3.073,0,0,0,.919-.133,2.733,2.733,0,0,0,1.253-.815,1.5,1.5,0,0,0,.366-1.01c-.093-.5-.64-.9-1.194-1.269Zm.325,1.864a2.12,2.12,0,0,1-.945.608,3.217,3.217,0,0,1-2.074-.177,8.411,8.411,0,0,1-2.784-2.364,8.411,8.411,0,0,1-1.754-3.205h0a3.211,3.211,0,0,1,.247-2.065,2.117,2.117,0,0,1,.788-.8,1.247,1.247,0,0,1,.47-.131.154.154,0,0,1,.042,0c.254.1.529.782.646,1.071l0,.008c.406.93.314,1.1.022,1.359a.6.6,0,0,0-.268.363,2.694,2.694,0,0,0,.541,1.94c.113.172.245.352.394.537s.3.345.444.492a2.7,2.7,0,0,0,1.791.922.6.6,0,0,0,.411-.189c.314-.233.5-.289,1.327.3l.007,0c.26.173.868.579.918.846a1.049,1.049,0,0,1-.227.478Zm0,0" transform="translate(0.001 -188.792)" fill="#355dc9"/>
          <path id="Path_1370" data-name="Path 1370" d="M178.58,183.472l-.354.957-.354-.957v0a.329.329,0,0,0-.32-.224.352.352,0,0,0-.247.1.328.328,0,0,0-.105.241.424.424,0,0,0,.008.083c.006.021.011.043.018.064v0l.665,1.668h0a.525.525,0,0,0,.128.195.335.335,0,0,0,.215.062.356.356,0,0,0,.327-.259l.663-1.663a.406.406,0,0,0,.029-.152.328.328,0,0,0-.1-.242.351.351,0,0,0-.248-.1A.325.325,0,0,0,178.58,183.472Zm0,0" transform="translate(-171.527 -177.38)" fill="#355dc9"/>
          <path id="Path_1371" data-name="Path 1371" d="M367.716,183.19a.865.865,0,0,0-.621-.232h-.568a.354.354,0,0,0-.355.358v1.678a.343.343,0,0,0,.1.25.341.341,0,0,0,.487,0,.333.333,0,0,0,.1-.243v-.383h.26a.83.83,0,0,0,.605-.229.874.874,0,0,0-.014-1.2Zm-.519.739a.177.177,0,0,1-.129.056h-.2V183.6h.207a.166.166,0,0,1,.128.055.2.2,0,0,1,.055.142A.181.181,0,0,1,367.2,183.929Zm0,0" transform="translate(-354.45 -177.101)" fill="#355dc9"/>
          <path id="Path_1372" data-name="Path 1372" d="M247.7,182.7a1.1,1.1,0,0,0-.834.344,1.221,1.221,0,0,0-.324.87,1.236,1.236,0,0,0,.326.879,1.162,1.162,0,0,0,1.661,0,1.332,1.332,0,0,0,0-1.742A1.091,1.091,0,0,0,247.7,182.7Zm.312,1.652a.407.407,0,0,1-.63,0,.691.691,0,0,1-.126-.436.653.653,0,0,1,.129-.425.384.384,0,0,1,.313-.148.378.378,0,0,1,.316.148.681.681,0,0,1,.126.431A.673.673,0,0,1,248.013,184.351Zm0,0" transform="translate(-238.65 -176.851)" fill="#355dc9"/>
          <path id="Path_1373" data-name="Path 1373" d="M331.274,182.316a.345.345,0,0,0-.1.243v1.714a.347.347,0,0,0,.592.244.331.331,0,0,0,.1-.242v-1.717a.347.347,0,0,0-.1-.247.329.329,0,0,0-.244-.105A.333.333,0,0,0,331.274,182.316Zm0,0" transform="translate(-320.571 -176.374)" fill="#355dc9"/>
          <path id="Path_1374" data-name="Path 1374" d="M385.327,320.86l-.006,0a.326.326,0,1,0,.362.542l.005,0a.326.326,0,1,0-.361-.542Zm0,0" transform="translate(-372.846 -310.535)" fill="#355dc9"/>
        </g>
      </g>
    </g>
    <g id="Group_1246" data-name="Group 1246" transform="translate(258.303 3205.031)">
      <ellipse id="Ellipse_257" data-name="Ellipse 257" cx="14.5" cy="14" rx="14.5" ry="14" transform="translate(-0.303 -0.031)" fill="#4285f4"/>
      <g id="Group_1098" data-name="Group 1098" transform="translate(6.535 7.936)">
        <path id="Path_6974" data-name="Path 6974" d="M-15537.418-860.788v1.163l.568.152-.046,9.443h-.522v1.163H-15523v-1.163h-.812v-9.594h.813v-1.163Z" transform="translate(15537.754 861.091)" fill="#fff"/>
        <g id="Group_1082" data-name="Group 1082">
          <path id="Path_1379" data-name="Path 1379" d="M22.477,70.688h.436v8.388h-.436Zm0,0" transform="translate(-21.823 -68.631)" fill="#355dc9"/>
          <path id="Path_1380" data-name="Path 1380" d="M474.523,70.688h.436v8.388h-.436Zm0,0" transform="translate(-460.719 -68.631)" fill="#355dc9"/>
          <path id="Path_1381" data-name="Path 1381" d="M331.121,259.094a.992.992,0,1,0-.992-.992A.993.993,0,0,0,331.121,259.094Zm0-1.548a.556.556,0,1,1-.556.556A.557.557,0,0,1,331.121,257.546Zm0,0" transform="translate(-320.525 -249.63)" fill="#355dc9"/>
          <path id="Path_1382" data-name="Path 1382" d="M100.906,150.285a.992.992,0,1,0,.992.992A.994.994,0,0,0,100.906,150.285Zm0,1.548a.556.556,0,1,1,.556-.556A.557.557,0,0,1,100.906,151.833Zm0,0" transform="translate(-97.007 -145.913)" fill="#355dc9"/>
          <path id="Path_1383" data-name="Path 1383" d="M332.633,148.208l.782-.782.782.782.309-.308-.782-.782.782-.782-.309-.309-.782.782-.782-.782-.309.309.782.782-.782.782Zm0,0" transform="translate(-322.657 -141.779)" fill="#355dc9"/>
          <path id="Path_1384" data-name="Path 1384" d="M146.587,151.865a6.147,6.147,0,0,0-.852,1.8l.423.106a5.818,5.818,0,0,1,.8-1.673,4.247,4.247,0,0,1,2.871-1.889l-.607.983.371.229.989-1.6-1.6-.989-.229.371.949.586a4.738,4.738,0,0,0-3.111,2.075Zm0,0" transform="translate(-141.495 -144.502)" fill="#355dc9"/>
          <path id="Path_1385" data-name="Path 1385" d="M0,0V1.693H14.9V0ZM14.462,1.256H.44V.436H14.462Zm0,0" transform="translate(-0.004)" fill="#355dc9"/>
          <path id="Path_1386" data-name="Path 1386" d="M0,373.1H14.894v-1.693H0Zm.436-1.256H14.458v.82H.436Zm0,0" transform="translate(0 -360.602)" fill="#355dc9"/>
          <path id="Path_1387" data-name="Path 1387" d="M207.324,81.038h-1.553V80.6h1.553Zm-1.843,0h-.436V80.6h.436Zm-.727,0h-.436V80.6h.436Zm0,0" transform="translate(-198.373 -78.257)" fill="#355dc9"/>
        </g>
      </g>
    </g>
    <g id="Group_1249" data-name="Group 1249" transform="translate(366.062 3156.125)">
      <ellipse id="Ellipse_254" data-name="Ellipse 254" cx="14" cy="14.5" rx="14" ry="14.5" transform="translate(-0.062 -0.125)" fill="#4285f4"/>
      <g id="Group_1111" data-name="Group 1111" transform="translate(5.882 6.631)">
        <path id="Path_7031" data-name="Path 7031" d="M-15217.227-900.372l-1,.6-.218,1.219.786.731h12.76l.865-.488v-1.219l-.65-.842Z" transform="translate(15218.726 907.593)" fill="#fff"/>
        <g id="Group_1095" data-name="Group 1095" transform="translate(0 0.314)">
          <rect id="Rectangle_853" data-name="Rectangle 853" width="12" height="11" transform="translate(2.056 2.93)" fill="#fff"/>
          <g id="Group_1084" data-name="Group 1084">
            <path id="Path_1358" data-name="Path 1358" d="M13.77,6.86V4.21a.255.255,0,0,0-.25-.261H7.752V2.786a1.325,1.325,0,1,0-.512-.013V3.949h-5.7a.255.255,0,0,0-.25.261V6.86a1.571,1.571,0,0,0,0,3.089V13.7a.265.265,0,0,0,.25.272H13.52a.265.265,0,0,0,.25-.272V9.95a1.571,1.571,0,0,0,0-3.089ZM6.715,1.481a.813.813,0,1,1,.813.813.813.813,0,0,1-.813-.813ZM.512,8.405a1.058,1.058,0,0,1,.773-1.02V9.424A1.058,1.058,0,0,1,.512,8.405Zm12.746,5.051H1.8v-9h11.46Zm.512-4.032V7.385a1.059,1.059,0,0,1,0,2.039Zm0,0" transform="translate(0 -0.156)" fill="#355dc9"/>
            <path id="Path_1359" data-name="Path 1359" d="M140.622,285.916a.256.256,0,0,0-.256-.256h-5.954a.256.256,0,0,0-.256.256v2.625a.256.256,0,0,0,.256.256h5.954a.256.256,0,0,0,.256-.256Zm-.512.256v.8h-5.442v-.8Zm-5.442,2.113v-.8h5.442v.8Zm0,0" transform="translate(-129.861 -276.521)" fill="#355dc9"/>
            <path id="Path_1360" data-name="Path 1360" d="M127.365,185.916a.256.256,0,0,0-.256-.256h-1.7a.256.256,0,0,0-.256.256v1.7a.256.256,0,0,0,.256.256h1.7a.256.256,0,0,0,.256-.256Zm-1.7.256h1.184v1.184h-1.184Zm0,0" transform="translate(-121.15 -179.722)" fill="#355dc9"/>
            <path id="Path_1361" data-name="Path 1361" d="M278.365,185.916a.256.256,0,0,0-.256-.256h-1.7a.256.256,0,0,0-.256.256v1.7a.256.256,0,0,0,.256.256h1.7a.256.256,0,0,0,.256-.256Zm-1.7.256h1.184v1.184h-1.184Zm0,0" transform="translate(-267.316 -179.722)" fill="#355dc9"/>
          </g>
        </g>
        <circle id="Ellipse_253" data-name="Ellipse 253" cx="1" cy="1" r="1" transform="translate(6.456 0.644)" fill="#fff"/>
      </g>
    </g>
    <g id="Group_1250" data-name="Group 1250" transform="translate(309.524 3154.467)">
      <g id="Ellipse_251" data-name="Ellipse 251" transform="translate(0.476 -0.467)" fill="none" stroke="#fbbc05" stroke-linecap="round" stroke-width="1" stroke-dasharray="2 5">
        <ellipse cx="16" cy="16.5" rx="16" ry="16.5" stroke="none"/>
        <ellipse cx="16" cy="16.5" rx="15.5" ry="16" fill="none"/>
      </g>
    </g>
    <g id="Group_1251" data-name="Group 1251" transform="translate(327.697 3146.639)">
      <path id="Path_7307" data-name="Path 7307" d="M1065,754.788c.579.963,1.125,1.942,1.638,2.947a8.138,8.138,0,0,1,.971,5.7c-.071.621-.158,1.25-.258,1.855a2.359,2.359,0,0,1-.779,1.642,1.8,1.8,0,0,0,1.542.138,4.445,4.445,0,0,0,1.359-.834,11.947,11.947,0,0,0,4.635-8.611,1.31,1.31,0,0,0-.142-.759,1.476,1.476,0,0,0-.454-.417,34.884,34.884,0,0,1-5.364-4.506.5.5,0,0,0-.742-.15c-1,.5-2.659,1.213-3.076,2.343a1.617,1.617,0,0,1,.671.654Z" transform="translate(-1011.411 -642.396)" fill="#ffc8af"/>
      <path id="Path_7309" data-name="Path 7309" d="M1076.361,763.455a9.971,9.971,0,0,0-2.243-1.251.267.267,0,0,0-.417.1,22.975,22.975,0,0,0-3.305,6.377,10.713,10.713,0,0,1-1.667,3.751c-.116.138-.3.279-.458.2s-.088-.484-.213-.7-.588-.15-.834.042a3.684,3.684,0,0,0-1.042,1.209,1.249,1.249,0,0,0-.188.759,1.118,1.118,0,0,0,.592.746c1.121.65,2.53.183,3.751-.3a4.412,4.412,0,0,0,.942-.467c.588-.417.934-1.138,1.534-1.555a8.5,8.5,0,0,0,.929-.584c.559-.5.617-1.355,1.013-1.992.679-1.1,2.192-1.384,2.784-2.551C1078.2,765.926,1077.4,764.3,1076.361,763.455Z" transform="translate(-1012.38 -648.496)" fill="#3f3d56"/>
      <g id="Group_1237" data-name="Group 1237" transform="translate(0 0)">
        <path id="Path_7306" data-name="Path 7306" d="M1021.5,772.935a3.292,3.292,0,0,1-.163,1.03,2.5,2.5,0,0,1-1.584,1.325c-.671.233-1.384.309-2.084.509a1.809,1.809,0,0,0-.809.417,1.478,1.478,0,0,0,.467,2.147,4.173,4.173,0,0,0,2.451.379,32.409,32.409,0,0,0,5.3-.754c.63-.146,1.363-.442,1.463-1.075a1.668,1.668,0,0,0-.05-.6,35.493,35.493,0,0,1-.675-6.573,13.984,13.984,0,0,0-3.843-.025C1021.261,770.176,1021.541,772.189,1021.5,772.935Z" transform="translate(-983.553 -652.837)" fill="#ffc8af"/>
        <path id="Path_7308" data-name="Path 7308" d="M1022.281,784.226a26.057,26.057,0,0,1-6.894,1.546.951.951,0,0,1-.834-.154.633.633,0,0,1-.054-.7,1.892,1.892,0,0,1,.5-.559l1.567-1.309a5.418,5.418,0,0,0-4,.684,1.575,1.575,0,0,0-.8.925,1.476,1.476,0,0,0,.279,1.071,4.943,4.943,0,0,0,2.8,1.959,14.467,14.467,0,0,0,3.447.475l2.13.125a.579.579,0,0,0,.142.75,1.546,1.546,0,0,0,.784.279,10.316,10.316,0,0,0,2.634.038,1.025,1.025,0,0,0,.6-.217.379.379,0,0,0,0-.567.63.63,0,0,0,.579-.417,1.7,1.7,0,0,0,.079-.754,7.979,7.979,0,0,0-.663-3.276C1024.069,783.254,1022.981,783.921,1022.281,784.226Z" transform="translate(-980.754 -660.614)" fill="#3f3d56"/>
        <path id="Path_7310" data-name="Path 7310" d="M1022.433,618.107c2.38,1.788,3.38,4.96,3.276,7.919a28,28,0,0,1-2.188,8.611q-2.226,5.977-4.443,11.963a4.825,4.825,0,0,1,.317,1.359,1.667,1.667,0,0,1-.313,1.338c-.138.162-.313.283-.454.442a2.376,2.376,0,0,0-.392,1.855,5.328,5.328,0,0,1,.05,1.938c-.071.271-.2.525-.246.8a.791.791,0,0,0,.221.763c.313.238.9.162,1,.542a45.193,45.193,0,0,1,10.079,12.4c.979,1.763,1.972,3.722,3.8,4.585a67.24,67.24,0,0,0-5.118,4.506c-2.559-2.238-3.835-5.5-5.923-8.178a18.841,18.841,0,0,0-4.718-4.218,8.68,8.68,0,0,1,1.159,5.214,23.559,23.559,0,0,1-.417,2.63c-.467,2.755-.417,5.76,1.059,8.128a8.8,8.8,0,0,1-5.177,1.188,4.381,4.381,0,0,1-2.818-1.609,105.493,105.493,0,0,0-3.268-17.21,21.392,21.392,0,0,1-.7-3.46c-.213-2.434.417-5.114-.242-7.348a13.677,13.677,0,0,1-.6-3.335v-.359a13.912,13.912,0,0,0-.288-2.455l-1.292-5.744c-.563-2.5-1.125-5.11-.517-7.6a4.343,4.343,0,0,1-.834-.417c-.492-.283-.417-1.017-.188-1.538s.525-1.113.271-1.617a3.79,3.79,0,0,0-.459-.579,2.889,2.889,0,0,1-.417-1.58l-.158-2.184a4.26,4.26,0,0,1,2.155,1.888c-1.192-1.846-.6-4.481.275-6.494a2.955,2.955,0,0,1,2.78-2.2C1012.567,617.2,1018.494,615.143,1022.433,618.107Z" transform="translate(-975.342 -563.594)" fill="#3f3d56"/>
        <path id="Path_7311" data-name="Path 7311" d="M1040.615,650.08s-2.388,1.592-2.388,2.784-.6,11.925-.6,11.925v7.553s.417,3.976,0,4.969,0,5.564,0,6.161.6-6.161.6-6.161v-7.157l.6-16.3Z" transform="translate(-995.732 -583.143)" opacity="0.1"/>
        <path id="Path_7312" data-name="Path 7312" d="M21.724,15.714l-1.392-.554c-2.834-1.138-5.677-2.28-8.428-3.614A12.8,12.8,0,0,1,6.639,7.594c-.417-.592-.7-1.25-1.1-1.834a14.35,14.35,0,0,0-1.5-1.792L.316,0C.037.529.4,1.155.687,1.667a7.288,7.288,0,0,1,.688,1.751.808.808,0,0,1-.021.609c-.1.179-.325.254-.508.354A1.78,1.78,0,0,0,.083,6.431,2.288,2.288,0,0,0,1.8,7.907a3.176,3.176,0,0,1,.767.188c.446.217.659.721.979,1.1a4.445,4.445,0,0,0,2.4,1.18c1.371,1.563,2.8,3.064,4.168,4.627a30.121,30.121,0,0,0,6.911,6.377,10.04,10.04,0,0,0,3.126,1.25,50.372,50.372,0,0,1,1.58-6.919Z" transform="translate(0 23.615) rotate(-41)" fill="#ffc8af"/>
        <path id="Path_7314" data-name="Path 7314" d="M1.352,9.373A1.6,1.6,0,0,1,.164,8.727,2.044,2.044,0,0,1,.035,7.548,37.057,37.057,0,0,1,1.535,0,7.5,7.5,0,0,0,4.8,2.981,22.614,22.614,0,0,0,8.3,4.788c-.288-.108-1.042,5.161-1.459,5.486-.529.42-1.8-.141-2.38-.259Z" transform="translate(23.503 21.682) rotate(-41)" fill="#fbbc05"/>
        <circle id="Ellipse_275" data-name="Ellipse 275" cx="6.361" cy="6.361" r="6.361" transform="translate(25.897 5.624)" fill="#ffc8af"/>
        <path id="Path_7315" data-name="Path 7315" d="M1011.67,524.71s4.168,3.576,2.384,5.961-2.784,3.976-.4,4.168,10.333-3.976,10.333-3.976-7.352-5.965-6.16-9.541S1011.67,524.71,1011.67,524.71Z" transform="translate(-980.701 -507.457)" fill="#fbbebe"/>
        <path id="Path_7316" data-name="Path 7316" d="M1012.024,538.035a4.939,4.939,0,0,0-3.651,3.672c-.467,2.147.529,4.527-.417,6.515a22.43,22.43,0,0,1-1.813,2.5,5.127,5.127,0,0,0,.479,5.935c.417.471.946.929.992,1.555a5.314,5.314,0,0,1-.083.834,6.773,6.773,0,0,0,.417,1.967,2.017,2.017,0,0,1-.167,1.63,2.351,2.351,0,0,0-.417,1.567,10.648,10.648,0,0,1-.263,2.543c-.029.371,0,.742-.033,1.113a6.326,6.326,0,0,1-.221,1.034l-.529,1.967a21.833,21.833,0,0,0,9.091,1.621,44.654,44.654,0,0,0,8.286-1.209c.834-.175,1.667-.35,2.5-.575-1.73-2.267-1.917-5.264-1.963-8.111a120.617,120.617,0,0,0-1.063-14.172,18.314,18.314,0,0,0,1.555-5.106,8.56,8.56,0,0,0,.2-2.159,11.42,11.42,0,0,0-1.463-4.323c-.621-1.25-1.3-2.572-2.689-3.109a2.121,2.121,0,0,0-2.084.225c-1.055.792-.738,2.159-1.009,3.335a4.515,4.515,0,0,1-3.234,3.039,10.588,10.588,0,0,1-3.4.317.6.6,0,0,1-.417-.992C1011.12,539.1,1011.611,538.547,1012.024,538.035Z" transform="translate(-977.053 -515.184)" fill="#fbbc05"/>
        <path id="Path_7317" data-name="Path 7317" d="M1014.45,603.3a41.323,41.323,0,0,1-7.457,5.231c-1.592.8-3.289,1.388-4.848,2.247a1.93,1.93,0,0,0-.921.834,2.085,2.085,0,0,0-.046,1.138l.692,4.756c.188,1.288,1.425,2.109,2.43,2.918a1.718,1.718,0,0,1,.063-1.15,3.925,3.925,0,0,1,.233-.35,3.243,3.243,0,0,0,.333-2.234,12.254,12.254,0,0,1-.263-2.293.754.754,0,0,1,.321-.667c3.38-1.626,7.019-2.872,10.42-4.418a10.924,10.924,0,0,0,2.534-1.438,3.885,3.885,0,0,0,1.471-2.438.508.508,0,0,0-.063-.375.524.524,0,0,0-.254-.15C1017.589,604.363,1015.976,603.85,1014.45,603.3Z" transform="translate(-974.549 -555.861)" fill="#ffc8af"/>
        <path id="Path_7318" data-name="Path 7318" d="M1013.263,555.385a3.423,3.423,0,0,0-2.8,1.922,4.238,4.238,0,0,0-.154,1.5,5.038,5.038,0,0,0,.35,2.084,5.93,5.93,0,0,0,.713,1.025c2.8,3.585,4.2,8.086,6.923,11.725.242.321.684.738.546,1.117a2.5,2.5,0,0,0-.129.288.6.6,0,0,0,.2.529,1.249,1.249,0,0,1,.329.479c.05.192-.075.442-.271.417a4.069,4.069,0,0,0,2.276,2.084,9.517,9.517,0,0,0,5.089,1.25,11.549,11.549,0,0,0,.6-4.168,10.766,10.766,0,0,0-1.013-2.951l-1.184-2.584a38.548,38.548,0,0,0-3.43-6.4,9.657,9.657,0,0,1-1.251-2.046c-.358-.934-1.35-1.588-1.947-2.393a15.007,15.007,0,0,0-3.009-3.293A2.879,2.879,0,0,0,1013.263,555.385Z" transform="translate(-979.902 -527.908)" opacity="0.1"/>
        <path id="Path_7319" data-name="Path 7319" d="M1013.263,553.972a3.424,3.424,0,0,0-2.8,1.922,4.235,4.235,0,0,0-.154,1.5,5.04,5.04,0,0,0,.35,2.084,5.938,5.938,0,0,0,.713,1.025c2.8,3.585,4.2,8.086,6.923,11.725.242.321.684.738.546,1.117a2.506,2.506,0,0,0-.129.288.6.6,0,0,0,.2.529,1.25,1.25,0,0,1,.329.479c.05.192-.075.442-.271.417a4.068,4.068,0,0,0,2.276,2.084,9.518,9.518,0,0,0,5.089,1.25,11.544,11.544,0,0,0,.6-4.168,10.77,10.77,0,0,0-1.013-2.951l-1.184-2.584a38.737,38.737,0,0,0-3.43-6.406,9.528,9.528,0,0,1-1.25-2.042c-.358-.934-1.35-1.588-1.947-2.392a15,15,0,0,0-3.009-3.293A2.855,2.855,0,0,0,1013.263,553.972Z" transform="translate(-979.901 -527.083)" fill="#fbbc05"/>
        <path id="Path_7320" data-name="Path 7320" d="M1003.514,491.023a7.085,7.085,0,0,0-2.476.521,2.376,2.376,0,0,0-1.434,1.947,11.656,11.656,0,0,1,.117,1.471c-.108.809-.859,1.355-1.25,2.084a3.745,3.745,0,0,0,.729,3.947c.88,1.113,2.084,1.951,2.968,3.043a7.882,7.882,0,0,1,1.642,6.331,4.924,4.924,0,0,0-.162,1.321,3.924,3.924,0,0,0,1.138,2.059,94.118,94.118,0,0,1,7.177,9.549,25.49,25.49,0,0,1,1.767,3.018,18.035,18.035,0,0,0,1.626,3.2,8.371,8.371,0,0,0,2.38,2.042,16.8,16.8,0,0,0,7.624,2.459l-1.559-3.864a4.441,4.441,0,0,1-.467-2.147c.171-1.388,1.576-2.305,2.034-3.626a4.477,4.477,0,0,0-.083-2.663c-.55-1.959-1.667-3.722-2.247-5.665a11.563,11.563,0,0,1-.338-5.269,8.231,8.231,0,0,0,.246-2.334c-.288-2.363-3.063-3.493-4.347-5.5a11.479,11.479,0,0,1-1.25-4.385,14.069,14.069,0,0,0-2.5-6.152,7.2,7.2,0,0,0-5.76-2.918,11.565,11.565,0,0,0-3.455.867l-2.918,1.059" transform="translate(-972.824 -489.488)" fill="#3f3d56"/>
        <g id="Group_1236" data-name="Group 1236" transform="translate(25.354 5.582)" opacity="0.1">
          <path id="Path_7321" data-name="Path 7321" d="M1042,503.764a14.166,14.166,0,0,0,1.046,4c-.088-.471-.162-.946-.25-1.413a17.786,17.786,0,0,0-.975-3.468C1041.9,503.188,1041.945,503.48,1042,503.764Z" transform="translate(-1023.637 -502.88)"/>
          <path id="Path_7322" data-name="Path 7322" d="M1054.907,532.175a11.559,11.559,0,0,0,.338,5.269,14.517,14.517,0,0,0,.5,1.363,11.384,11.384,0,0,1-.042-4.047,8.226,8.226,0,0,0,.246-2.334,3.657,3.657,0,0,0-.788-1.8C1055.115,531.137,1054.994,531.658,1054.907,532.175Z" transform="translate(-1031.176 -519.058)"/>
          <path id="Path_7323" data-name="Path 7323" d="M1059.393,564.447a13.986,13.986,0,0,0-.6-1.667,3.656,3.656,0,0,1-.117,1.751c-.454,1.321-1.863,2.238-2.034,3.626a4.431,4.431,0,0,0,.471,2.147l.313.775a2.26,2.26,0,0,1,0-.338c.171-1.388,1.576-2.3,2.034-3.626A4.474,4.474,0,0,0,1059.393,564.447Z" transform="translate(-1032.282 -537.813)"/>
          <path id="Path_7324" data-name="Path 7324" d="M1024.617,558.816a8.368,8.368,0,0,1-2.38-2.042,18.439,18.439,0,0,1-1.626-3.2,25.2,25.2,0,0,0-1.767-3.022,94.1,94.1,0,0,0-7.177-9.549l-.271-.325a3.09,3.09,0,0,0-.071.834,3.924,3.924,0,0,0,1.138,2.059,94.111,94.111,0,0,1,7.178,9.549,25.484,25.484,0,0,1,1.767,3.018,18.047,18.047,0,0,0,1.626,3.2,8.371,8.371,0,0,0,2.38,2.042,16.8,16.8,0,0,0,7.624,2.459l-1.051-2.605a16.8,16.8,0,0,1-7.369-2.422Z" transform="translate(-1005.85 -524.924)"/>
          <path id="Path_7325" data-name="Path 7325" d="M1001.4,513.459c-.9-1.092-2.084-1.926-2.968-3.039-.079-.1-.154-.213-.229-.321a4.38,4.38,0,0,0,1.025,2.918c.875,1.117,2.084,1.951,2.968,3.043a7.583,7.583,0,0,1,.9,1.384A7.865,7.865,0,0,0,1001.4,513.459Z" transform="translate(-998.197 -507.091)"/>
        </g>
      </g>
    </g>
    <g id="Group_1252" data-name="Group 1252" transform="translate(309.524 3202.544)">
      <g id="Ellipse_251-2" data-name="Ellipse 251" transform="translate(0.476 0.456)" fill="none" stroke="#fbbc05" stroke-linecap="round" stroke-width="1" stroke-dasharray="2 5">
        <circle cx="16" cy="16" r="16" stroke="none"/>
        <circle cx="16" cy="16" r="15.5" fill="none"/>
      </g>
    </g>
    <g id="Group_1247" data-name="Group 1247" transform="translate(205.252 3156.125)">
      <circle id="Ellipse_251-3" data-name="Ellipse 251" cx="14" cy="14" r="14" transform="translate(-0.252 -0.125)" fill="#4285f4"/>
      <g id="Group_1100" data-name="Group 1100" transform="translate(5.88 8.34)">
        <path id="Path_6976" data-name="Path 6976" d="M.941.553,16.084.527a.474.474,0,0,1,.386.361l-.005,9.939a.316.316,0,0,1-.283.311L1.144,11.07c-.152,0-.491-.232-.491-.384L.677.817A.256.256,0,0,1,.941.553Z" transform="translate(-0.425 -0.179)" fill="#fff"/>
        <g id="Group_1092" data-name="Group 1092">
          <g id="Group_649" data-name="Group 649">
            <path id="Path_1352" data-name="Path 1352" d="M15.38,0H12.333a.271.271,0,0,0-.241.294.271.271,0,0,0,.241.294h1.78V10.647H2.278V.587h8.9a.271.271,0,0,0,.24-.294A.271.271,0,0,0,11.178,0H1.011A1.14,1.14,0,0,0,0,1.233V10a1.14,1.14,0,0,0,1.01,1.233H15.38A1.14,1.14,0,0,0,16.39,10V1.233A1.14,1.14,0,0,0,15.38,0ZM.482,10V1.233A.6.6,0,0,1,1.011.587H1.8V10.647H1.011A.6.6,0,0,1,.482,10Zm15.427,0a.6.6,0,0,1-.529.646h-.786V.587h.786a.6.6,0,0,1,.529.646Zm0,0" transform="translate(0 0)" fill="#355dc9"/>
          </g>
          <path id="Path_1353" data-name="Path 1353" d="M465.128,112.219a.221.221,0,0,0-.221.221v1.416a.221.221,0,0,0,.443,0V112.44A.221.221,0,0,0,465.128,112.219Zm0,0" transform="translate(-449.903 -107.531)" fill="#355dc9"/>
          <path id="Path_1354" data-name="Path 1354" d="M80.731,80.16a.576.576,0,0,0-.575.575v2.6a.576.576,0,0,0,.575.575h1.534a.575.575,0,1,0,0-1.15h-.959v-2.02a.576.576,0,0,0-.575-.575ZM82.265,83.2a.133.133,0,0,1,0,.266H80.731a.133.133,0,0,1-.133-.133v-2.6a.133.133,0,1,1,.265,0v2.242a.221.221,0,0,0,.221.221Zm0,0" transform="translate(-77.546 -76.416)" fill="#355dc9"/>
          <path id="Path_1355" data-name="Path 1355" d="M176.344,80.735v2.6a.575.575,0,0,0,1.15,0v-2.6a.575.575,0,1,0-1.15,0Zm.708,0v2.6a.133.133,0,1,1-.265,0v-2.6a.133.133,0,1,1,.265,0Zm0,0" transform="translate(-170.662 -76.416)" fill="#355dc9"/>
          <path id="Path_1356" data-name="Path 1356" d="M226.689,80.226a.572.572,0,0,0-.3.325l-.4,1.109-.4-1.109a.575.575,0,1,0-1.081.393l.944,2.6a.575.575,0,0,0,1.081,0l.944-2.6a.575.575,0,0,0-.784-.718Zm.289.4s.033.018.038.021a.13.13,0,0,1,.031.036.134.134,0,0,1,.011.113l-.944,2.6a.133.133,0,0,1-.25,0l-.944-2.6a.133.133,0,0,1,.25-.091l.611,1.681a.221.221,0,0,0,.416,0l.611-1.681A.134.134,0,0,1,226.978,80.623Zm0,0" transform="translate(-217.139 -76.428)" fill="#355dc9"/>
          <path id="Path_1357" data-name="Path 1357" d="M338.765,81.31a.575.575,0,1,0,0-1.15h-1.534a.576.576,0,0,0-.575.575v2.6a.576.576,0,0,0,.575.575h1.534a.575.575,0,1,0,0-1.15h-.959V82.49h.369a.575.575,0,1,0,0-1.15h-.369v-.03Zm-1.18.472h.59a.133.133,0,0,1,0,.266h-.59a.221.221,0,0,0-.221.221v.708a.221.221,0,0,0,.221.221h1.18a.133.133,0,0,1,0,.265h-1.534a.133.133,0,0,1-.133-.133v-2.6a.133.133,0,0,1,.133-.133h1.534a.133.133,0,0,1,0,.266h-1.18a.221.221,0,0,0-.221.221v.472a.221.221,0,0,0,.221.221Zm0,0" transform="translate(-325.692 -76.416)" fill="#355dc9"/>
        </g>
      </g>
    </g>
    <g id="Group_1248" data-name="Group 1248" transform="translate(205.252 3205.031)">
      <circle id="Ellipse_258" data-name="Ellipse 258" cx="14" cy="14" r="14" transform="translate(-0.252 -0.031)" fill="#4285f4"/>
      <g id="Group_1081" data-name="Group 1081" transform="translate(6.388 6.494)">
        <g id="Group_1078" data-name="Group 1078">
          <rect id="Rectangle_851" data-name="Rectangle 851" width="7.651" height="11.689" rx="1" transform="translate(0 0.076)" fill="#fff"/>
          <g id="Group_791" data-name="Group 791">
            <g id="Group_790" data-name="Group 790">
              <path id="Path_1389" data-name="Path 1389" d="M92.272,0H86.324a.992.992,0,0,0-.991.991V10.9a.992.992,0,0,0,.991.991h5.948a.992.992,0,0,0,.991-.991V.991A.992.992,0,0,0,92.272,0Zm.5,10.9a.5.5,0,0,1-.5.5H86.324a.5.5,0,0,1-.5-.5V9.913h6.939V10.9Zm0-1.487H85.829V.991a.5.5,0,0,1,.5-.5h5.948a.5.5,0,0,1,.5.5Z" transform="translate(-85.333)" fill="#355dc9"/>
              <path id="Path_1390" data-name="Path 1390" d="M234.914,43.162h.5a.248.248,0,0,0,0-.5h-.5a.248.248,0,1,0,0,.5Z" transform="translate(-231.196 -41.675)" fill="#355dc9"/>
              <path id="Path_1391" data-name="Path 1391" d="M213.581,448.5h1.487a.248.248,0,1,0,0-.5h-1.487a.248.248,0,1,0,0,.5Z" transform="translate(-210.359 -437.591)" fill="#355dc9"/>
              <ellipse id="Ellipse_178" data-name="Ellipse 178" cx="0.248" cy="0.248" rx="0.248" ry="0.248" transform="translate(6.444 0.991)" fill="#355dc9"/>
              <g id="picture" transform="translate(1.789 3.601)">
                <path id="Path_1392" data-name="Path 1392" d="M4.253.816A.088.088,0,0,0,4.164.9v3.26H.177V.177H4.253a.088.088,0,1,0,0-.177H.088A.088.088,0,0,0,0,.088V4.253a.088.088,0,0,0,.088.088H4.253a.088.088,0,0,0,.088-.088V.9A.088.088,0,0,0,4.253.816Z" transform="translate(0 0)" fill="#355dc9"/>
                <path id="Path_1393" data-name="Path 1393" d="M33.208,33.12a.088.088,0,0,0-.088.088v2.56a.088.088,0,0,0,.088.088H36.4a.088.088,0,0,0,.088-.088v-2.56a.088.088,0,0,0-.088-.088Zm.088.177h3.012v2.253l-.923-.923a.088.088,0,0,0-.125,0l-.255.255-.455-.455a.088.088,0,0,0-.125,0l-.876.876a.088.088,0,1,0,.125.125l.814-.814.455.455a.088.088,0,0,0,.125,0l.255-.255.866.866H33.3Z" transform="translate(-32.632 -32.632)" fill="#355dc9"/>
              </g>
            </g>
          </g>
          <rect id="Rectangle_69" data-name="Rectangle 69" width="7.651" height="11.689" rx="1" transform="translate(6.588 3.264)" fill="#fff"/>
          <g id="share" transform="translate(6.506 3.16)">
            <g id="Group_791-2" data-name="Group 791" transform="translate(0)">
              <g id="Group_790-2" data-name="Group 790">
                <path id="Path_1389-2" data-name="Path 1389" d="M92.272,0H86.324a.992.992,0,0,0-.991.991V10.9a.992.992,0,0,0,.991.991h5.948a.992.992,0,0,0,.991-.991V.991A.992.992,0,0,0,92.272,0Zm.5,10.9a.5.5,0,0,1-.5.5H86.324a.5.5,0,0,1-.5-.5V9.913h6.939V10.9Zm0-1.487H85.829V.991a.5.5,0,0,1,.5-.5h5.948a.5.5,0,0,1,.5.5Z" transform="translate(-85.333)" fill="#355dc9"/>
                <path id="Path_1390-2" data-name="Path 1390" d="M234.914,43.162h.5a.248.248,0,0,0,0-.5h-.5a.248.248,0,1,0,0,.5Z" transform="translate(-231.196 -41.675)" fill="#355dc9"/>
                <path id="Path_1391-2" data-name="Path 1391" d="M213.581,448.5h1.487a.248.248,0,1,0,0-.5h-1.487a.248.248,0,1,0,0,.5Z" transform="translate(-210.359 -437.591)" fill="#355dc9"/>
                <ellipse id="Ellipse_178-2" data-name="Ellipse 178" cx="0.248" cy="0.248" rx="0.248" ry="0.248" transform="translate(6.444 0.991)" fill="#355dc9"/>
                <g id="picture-2" data-name="picture" transform="translate(1.789 3.601)">
                  <path id="Path_1392-2" data-name="Path 1392" d="M4.253.816A.088.088,0,0,0,4.164.9v3.26H.177V.177H4.253a.088.088,0,1,0,0-.177H.088A.088.088,0,0,0,0,.088V4.253a.088.088,0,0,0,.088.088H4.253a.088.088,0,0,0,.088-.088V.9A.088.088,0,0,0,4.253.816Z" transform="translate(0 0)" fill="#355dc9"/>
                  <path id="Path_1393-2" data-name="Path 1393" d="M33.208,33.12a.088.088,0,0,0-.088.088v2.56a.088.088,0,0,0,.088.088H36.4a.088.088,0,0,0,.088-.088v-2.56a.088.088,0,0,0-.088-.088Zm.088.177h3.012v2.253l-.923-.923a.088.088,0,0,0-.125,0l-.255.255-.455-.455a.088.088,0,0,0-.125,0l-.876.876a.088.088,0,1,0,.125.125l.814-.814.455.455a.088.088,0,0,0,.125,0l.255-.255.866.866H33.3Z" transform="translate(-32.632 -32.632)" fill="#355dc9"/>
                </g>
              </g>
            </g>
          </g>
        </g>
      </g>
    </g>
  </g>
</svg>
