<svg xmlns="http://www.w3.org/2000/svg" width="33.958" height="40.411" viewBox="0 0 33.958 40.411"><defs><style>.a{fill:#848484;}</style></defs><path class="a" d="M28.673,23.6a8.422,8.422,0,0,1,4.511-7.651,9.693,9.693,0,0,0-7.642-4.024c-3.2-.253-6.7,1.868-7.984,1.868-1.353,0-4.457-1.777-6.893-1.777C5.631,12.1.281,16.035.281,24.038a22.486,22.486,0,0,0,1.3,7.326c1.155,3.311,5.323,11.431,9.671,11.3,2.274-.054,3.879-1.615,6.839-1.615,2.869,0,4.358,1.615,6.893,1.615,4.385-.063,8.156-7.443,9.256-10.763A8.943,8.943,0,0,1,28.673,23.6ZM23.567,8.791A8.5,8.5,0,0,0,25.732,2.25,9.566,9.566,0,0,0,19.606,5.4a8.63,8.63,0,0,0-2.31,6.487c2.355.18,4.5-1.028,6.27-3.094Z" transform="translate(-0.281 -2.25)"/></svg>