<svg xmlns="http://www.w3.org/2000/svg" xmlns:xlink="http://www.w3.org/1999/xlink" width="1405.975" height="688.174" viewBox="0 0 1405.975 688.174">
  <defs>
    <radialGradient id="radial-gradient" cx="0.408" cy="0.5" r="0.035" gradientTransform="matrix(27.471, -0.026, 42.492, 58.837, -32.037, -28.908)" gradientUnits="objectBoundingBox">
      <stop offset="0" stop-color="#fff"/>
      <stop offset="0.406" stop-color="#f3f8ff"/>
      <stop offset="1" stop-color="#d6e6ff"/>
    </radialGradient>
  </defs>
  <g id="Group_5662" data-name="Group 5662" transform="translate(39 -3158.5)">
    <rect id="Rectangle_1298" data-name="Rectangle 1298" width="1405" height="687" transform="translate(-39 3159)" fill="url(#radial-gradient)"/>
    <g id="Group_5611" data-name="Group 5611" transform="translate(-14969.189 6643.458)">
      <g id="Group_5531" data-name="Group 5531" transform="translate(14934.118 -3463.26)" opacity="0.4">
        <line id="Line_255" data-name="Line 255" x2="311.635" y2="212.256" transform="translate(80.414 63.058)" fill="none" stroke="#4285f4" stroke-miterlimit="10" stroke-width="1.363"/>
        <line id="Line_256" data-name="Line 256" x1="378.501" y2="218.835" transform="translate(13.548 275.748)" fill="none" stroke="#4285f4" stroke-miterlimit="10" stroke-width="1.363"/>
        <line id="Line_257" data-name="Line 257" x2="448.415" y2="130.991" transform="translate(13.548 494.852)" fill="none" stroke="#4285f4" stroke-miterlimit="10" stroke-width="1.363"/>
        <line id="Line_258" data-name="Line 258" y1="162.792" x2="516.716" transform="translate(457.221 463.052)" fill="none" stroke="#4285f4" stroke-miterlimit="10" stroke-width="1.363"/>
        <path id="Path_13256" data-name="Path 13256" d="M0,0,269.535,192.838" transform="translate(969.47 463.052)" fill="none" stroke="#4285f4" stroke-width="1.363"/>
        <line id="Line_261" data-name="Line 261" x1="249.153" y1="645.978" transform="translate(989.852 9.912)" fill="none" stroke="#4285f4" stroke-miterlimit="10" stroke-width="1.363"/>
        <line id="Line_262" data-name="Line 262" x2="401.242" y2="209.972" transform="translate(989.852 9.912)" fill="none" stroke="#4285f4" stroke-miterlimit="10" stroke-width="1.363"/>
        <line id="Line_263" data-name="Line 263" x1="20.382" y2="452.437" transform="translate(972.211 9.912)" fill="none" stroke="#4285f4" stroke-miterlimit="10" stroke-width="1.363"/>
        <line id="Line_264" data-name="Line 264" x1="607.013" y2="265.402" transform="translate(387.574 9.912)" fill="none" stroke="#4285f4" stroke-miterlimit="10" stroke-width="1.363"/>
        <line id="Line_265" data-name="Line 265" x1="66.866" y2="431.092" transform="translate(13.548 63.058)" fill="none" stroke="#4285f4" stroke-miterlimit="10" stroke-width="1.363"/>
        <line id="Line_266" data-name="Line 266" x2="1310.679" y2="156.826" transform="translate(80.414 63.058)" fill="none" stroke="#4285f4" stroke-miterlimit="10" stroke-width="1.363"/>
        <line id="Line_267" data-name="Line 267" x1="381.549" y1="562.786" transform="translate(80.414 63.058)" fill="none" stroke="#4285f4" stroke-miterlimit="10" stroke-width="1.363"/>
        <line id="Line_268" data-name="Line 268" y1="615.931" x2="537.098" transform="translate(457.11 9.912)" fill="none" stroke="#4285f4" stroke-miterlimit="10" stroke-width="1.363"/>
        <line id="Line_269" data-name="Line 269" x1="586.63" y1="187.035" transform="translate(387.684 275.719)" fill="none" stroke="#4285f4" stroke-miterlimit="10" stroke-width="1.363"/>
        <line id="Line_270" data-name="Line 270" y1="55.43" x2="1008.254" transform="translate(382.839 220.137)" fill="none" stroke="#4285f4" stroke-miterlimit="10" stroke-width="1.363"/>
        <line id="Line_271" data-name="Line 271" y1="31.8" x2="965.127" transform="translate(13.548 462.862)" fill="none" stroke="#4285f4" stroke-miterlimit="10" stroke-width="1.363"/>
        <path id="Path_13123" data-name="Path 13123" d="M106.887,83.379A13.555,13.555,0,1,1,93.333,70.148,13.4,13.4,0,0,1,106.887,83.379Z" transform="translate(-11.919 -20.64)" fill="#fff" stroke="#4285f4" stroke-width="1"/>
        <path id="Path_13128" data-name="Path 13128" d="M526.1,49.33a12.5,12.5,0,1,1-12.5-12.5A12.5,12.5,0,0,1,526.1,49.33Z" transform="translate(477.868 -36.831)" fill="#fff" stroke="#4285f4" stroke-width="1"/>
        <path id="Path_13127" data-name="Path 13127" d="M710.119,180.961a12.5,12.5,0,1,1-12.5-12.5A12.5,12.5,0,0,1,710.119,180.961Z" transform="translate(691.428 38.738)" fill="#fff" stroke="#4285f4" stroke-width="1"/>
        <path id="Path_13129" data-name="Path 13129" d="M640.367,453.85a12.5,12.5,0,1,1-12.5-12.5A12.5,12.5,0,0,1,640.367,453.85Z" transform="translate(609.09 199.624)" fill="#fff" stroke="#4285f4" stroke-width="1"/>
        <path id="Path_13126" data-name="Path 13126" d="M516.75,332.961a12.5,12.5,0,1,1-12.5-12.5A12.5,12.5,0,0,1,516.75,332.961Z" transform="translate(466.969 130.467)" fill="#fff" stroke="#4285f4" stroke-width="1"/>
        <path id="Path_13124" data-name="Path 13124" d="M74.118,352.893a12.5,12.5,0,1,1-12.5-12.5A12.5,12.5,0,0,1,74.118,352.893Z" transform="translate(-49.118 144.365)" fill="#fff" stroke="#4285f4" stroke-width="1"/>
        <path id="Path_13125" data-name="Path 13125" d="M247.707,215.708a12.5,12.5,0,1,1-12.5-12.5A12.5,12.5,0,0,1,247.707,215.708Z" transform="translate(153.278 62.48)" fill="#fff" stroke="#4285f4" stroke-width="1"/>
        <path id="Path_13130" data-name="Path 13130" d="M279.77,435.015a12.5,12.5,0,1,1-12.5-12.5A12.5,12.5,0,0,1,279.77,435.015Z" transform="translate(190.662 193.415)" fill="#fff" stroke="#4285f4" stroke-width="1"/>
      </g>
      <g id="Group_5532" data-name="Group 5532" transform="translate(15014.937 -3484.458)" opacity="0.15">
        <line id="Line_272" data-name="Line 272" x1="301.772" y2="257.224" transform="translate(921.631 50.987)" fill="none" stroke="#4285f4" stroke-miterlimit="10" stroke-width="1.51"/>
        <line id="Line_273" data-name="Line 273" x2="288.624" y2="233.067" transform="translate(921.631 308.7)" fill="none" stroke="#4285f4" stroke-miterlimit="10" stroke-width="1.51"/>
        <line id="Line_274" data-name="Line 274" x1="348.301" y2="125.495" transform="translate(861.955 541.981)" fill="none" stroke="#4285f4" stroke-miterlimit="10" stroke-width="1.51"/>
        <line id="Line_275" data-name="Line 275" x1="546.965" y1="205.925" transform="translate(319.926 461.552)" fill="none" stroke="#4285f4" stroke-miterlimit="10" stroke-width="1.51"/>
        <line id="Line_276" data-name="Line 276" x1="202.386" y2="196.302" transform="translate(121.813 461.552)" fill="none" stroke="#4285f4" stroke-miterlimit="10" stroke-width="1.51"/>
        <line id="Line_277" data-name="Line 277" x1="108.661" y1="331.633" transform="translate(13.152 326.221)" fill="none" stroke="#4285f4" stroke-miterlimit="10" stroke-width="1.51"/>
        <line id="Line_278" data-name="Line 278" y1="648.236" x2="128.207" transform="translate(121.813 9.618)" fill="none" stroke="#4285f4" stroke-miterlimit="10" stroke-width="1.51"/>
        <line id="Line_279" data-name="Line 279" x1="236.867" y2="315.9" transform="translate(13.152 9.618)" fill="none" stroke="#4285f4" stroke-miterlimit="10" stroke-width="1.51"/>
        <line id="Line_280" data-name="Line 280" x2="74.18" y2="451.23" transform="translate(248.054 9.618)" fill="none" stroke="#4285f4" stroke-miterlimit="10" stroke-width="1.51"/>
        <line id="Line_281" data-name="Line 281" x2="680.821" y2="298.592" transform="translate(245.944 9.618)" fill="none" stroke="#4285f4" stroke-miterlimit="10" stroke-width="1.51"/>
        <line id="Line_282" data-name="Line 282" x1="13.148" y2="490.292" transform="translate(1210.255 50.987)" fill="none" stroke="#4285f4" stroke-miterlimit="10" stroke-width="1.51"/>
        <line id="Line_283" data-name="Line 283" x1="1210.252" y2="274.532" transform="translate(13.152 50.987)" fill="none" stroke="#4285f4" stroke-miterlimit="10" stroke-width="1.51"/>
        <line id="Line_284" data-name="Line 284" y1="616.49" x2="361.449" transform="translate(861.955 50.987)" fill="none" stroke="#4285f4" stroke-miterlimit="10" stroke-width="1.51"/>
        <line id="Line_285" data-name="Line 285" x1="621.145" y1="657.858" transform="translate(246.333 9.618)" fill="none" stroke="#4285f4" stroke-miterlimit="10" stroke-width="1.51"/>
        <line id="Line_286" data-name="Line 286" y1="152.638" x2="606.642" transform="translate(319.527 308.624)" fill="none" stroke="#4285f4" stroke-miterlimit="10" stroke-width="1.51"/>
        <line id="Line_287" data-name="Line 287" x1="917.689" y2="17.308" transform="translate(13.152 308.54)" fill="none" stroke="#4285f4" stroke-miterlimit="10" stroke-width="1.51"/>
        <line id="Line_288" data-name="Line 288" x1="895.261" y1="80.429" transform="translate(314.995 461.392)" fill="none" stroke="#4285f4" stroke-miterlimit="10" stroke-width="1.51"/>
        <path id="Path_13136" data-name="Path 13136" d="M194.819,36.039a12.5,12.5,0,1,0,12.5-12.5A12.5,12.5,0,0,0,194.819,36.039Z" transform="translate(40.265 -23.542)" fill="#fff" stroke="#4285f4" stroke-width="1"/>
        <path id="Path_13131" data-name="Path 13131" d="M645.459,61.973a12.5,12.5,0,1,0,12.5-12.5A12.5,12.5,0,0,0,645.459,61.973Z" transform="translate(564.794 -8.108)" fill="#fff" stroke="#4285f4" stroke-width="1"/>
        <path id="Path_13138" data-name="Path 13138" d="M479.688,448.006a12.5,12.5,0,1,0,12.5-12.5A12.5,12.5,0,0,0,479.688,448.006Z" transform="translate(371.843 212.345)" fill="#fff" stroke="#4285f4" stroke-width="1"/>
        <path id="Path_13133" data-name="Path 13133" d="M507.059,223.225a12.5,12.5,0,1,0,12.5-12.5A12.5,12.5,0,0,0,507.059,223.225Z" transform="translate(403.702 88.183)" fill="#fff" stroke="#4285f4" stroke-width="1"/>
        <path id="Path_13134" data-name="Path 13134" d="M227.371,317.444a12.5,12.5,0,1,0,12.5-12.495A12.5,12.5,0,0,0,227.371,317.444Z" transform="translate(78.143 144.423)" fill="#fff" stroke="#4285f4" stroke-width="1"/>
        <path id="Path_13135" data-name="Path 13135" d="M86.183,234.077a12.5,12.5,0,1,0,12.5-12.5A12.5,12.5,0,0,0,86.183,234.077Z" transform="translate(-86.183 94.658)" fill="#fff" stroke="#4285f4" stroke-width="1"/>
        <path id="Path_13137" data-name="Path 13137" d="M136.019,441.978a12.5,12.5,0,1,0,12.5-12.5A12.5,12.5,0,0,0,136.019,441.978Z" transform="translate(-27.355 218.756)" fill="#fff" stroke="#4285f4" stroke-width="1"/>
        <path id="Path_13132" data-name="Path 13132" d="M639.428,369.334a12.5,12.5,0,1,0,12.5-12.5A12.5,12.5,0,0,0,639.428,369.334Z" transform="translate(557.675 175.388)" fill="#fff" stroke="#4285f4" stroke-width="1"/>
      </g>
    </g>
  </g>
</svg>
