<svg xmlns="http://www.w3.org/2000/svg" width="1370.707" height="595.731" viewBox="0 0 1370.707 595.731">
  <g id="Group_6262" data-name="Group 6262" transform="translate(18307.502 -9362.321)">
    <path id="Path_14507" data-name="Path 14507" d="M-28.561,559.877h1366V-35.355l-1366,.242Z" transform="translate(-18278.439 9398.176)" fill="#1a73e8"/>
    <g id="Group_6261" data-name="Group 6261" opacity="0.2">
      <line id="Line_258" data-name="Line 258" x2="622.38" y2="45.785" transform="translate(-18216.207 9397.632)" fill="none" stroke="#fff" stroke-miterlimit="10" stroke-width="1.363"/>
      <line id="Line_261" data-name="Line 261" x1="146.719" y2="194.228" transform="translate(-17178.334 9493.722)" fill="none" stroke="#fff" stroke-miterlimit="10" stroke-width="1.363"/>
      <line id="Line_262" data-name="Line 262" y1="171.534" x2="379.393" transform="translate(-17330.643 9749.77)" fill="none" stroke="#fff" stroke-miterlimit="10" stroke-width="1.363"/>
      <line id="Line_263" data-name="Line 263" x1="152.187" y1="282.26" transform="translate(-17494.008 9625.07)" fill="none" stroke="#fff" stroke-miterlimit="10" stroke-width="1.363"/>
      <line id="Line_264" data-name="Line 264" x1="587.315" y1="34.933" transform="translate(-17922.148 9886.37)" fill="none" stroke="#fff" stroke-miterlimit="10" stroke-width="1.363"/>
      <line id="Line_266" data-name="Line 266" y1="136.601" x2="976.052" transform="translate(-17927.301 9749.77)" fill="none" stroke="#fff" stroke-miterlimit="10" stroke-width="1.363"/>
      <line id="Line_268" data-name="Line 268" x2="443.706" y2="354.921" transform="translate(-17785.527 9559.396)" fill="none" stroke="#fff" stroke-miterlimit="10" stroke-width="1.363"/>
      <line id="Line_269" data-name="Line 269" x1="421.993" y2="261.3" transform="translate(-17922.119 9625.07)" fill="none" stroke="#fff" stroke-miterlimit="10" stroke-width="1.363"/>
      <line id="Line_270" data-name="Line 270" y1="229.162" x2="331.577" transform="translate(-17491.334 9386.127)" fill="none" stroke="#fff" stroke-miterlimit="10" stroke-width="1.363"/>
      <path id="Path_13128" data-name="Path 13128" d="M540.223,56.4a19.563,19.563,0,1,0-19.561,19.561A19.562,19.562,0,0,0,540.223,56.4Z" transform="translate(-17855.883 9858.229)" fill="#fff" stroke="#fff" stroke-width="1"/>
      <path id="Path_13127" data-name="Path 13127" d="M724.244,188.024a19.563,19.563,0,1,0-19.566,19.563A19.566,19.566,0,0,0,724.244,188.024Z" transform="translate(-17661.539 9562.242)" fill="#fff" stroke="#fff" stroke-width="1"/>
      <path id="Path_13129" data-name="Path 13129" d="M654.492,460.915a19.563,19.563,0,1,0-19.565,19.561A19.561,19.561,0,0,0,654.492,460.915Z" transform="translate(-17794.818 8921.471)" fill="#fff" stroke="#fff" stroke-width="1"/>
      <path id="Path_13126" data-name="Path 13126" d="M525.7,336.629c0-8.926-7.6-16.166-16.973-16.166S491.75,327.7,491.75,336.629s7.6,16.161,16.973,16.161S525.7,345.555,525.7,336.629Z" transform="translate(-18003.232 9283.148)" fill="#fff" stroke="#fff" stroke-width="1"/>
      <path id="Path_13125" data-name="Path 13125" d="M261.832,222.776a19.563,19.563,0,1,0-19.564,19.559A19.568,19.568,0,0,0,261.832,222.776Z" transform="translate(-18529.709 9487.142)" fill="#fff" stroke="#fff" stroke-width="1"/>
      <path id="Path_13130" data-name="Path 13130" d="M293.9,442.083a19.563,19.563,0,1,0-19.56,19.56A19.559,19.559,0,0,0,293.9,442.083Z" transform="translate(-18500.129 8955.041)" fill="#fff" stroke="#fff" stroke-width="1"/>
      <path id="Path_13832" data-name="Path 13832" d="M261.832,222.776a19.563,19.563,0,1,0-19.564,19.559A19.568,19.568,0,0,0,261.832,222.776Z" transform="translate(-18162.955 9663.082)" fill="#fff" stroke="#fff" stroke-width="1"/>
      <path id="Path_13833" data-name="Path 13833" d="M724.244,188.024a19.563,19.563,0,1,0-19.566,19.563A19.566,19.566,0,0,0,724.244,188.024Z" transform="translate(-17724.418 9299.544)" fill="#fff" stroke="#fff" stroke-width="1"/>
      <line id="Line_316" data-name="Line 316" x2="69.187" y2="256.048" transform="translate(-17020.436 9493.722)" fill="none" stroke="#fff" stroke-miterlimit="10" stroke-width="1.363"/>
      <path id="Path_13835" data-name="Path 13835" d="M540.223,56.4a19.563,19.563,0,1,0-19.561,19.561A19.562,19.562,0,0,0,540.223,56.4Z" transform="translate(-17699.461 9631.862)" fill="#fff" stroke="#fff" stroke-width="1"/>
      <line id="Line_317" data-name="Line 317" y1="219.38" x2="152.309" transform="translate(-17330.643 9687.95)" fill="none" stroke="#fff" stroke-miterlimit="10" stroke-width="1.363"/>
      <line id="Line_318" data-name="Line 318" x1="220.778" y1="55.893" transform="translate(-17178.334 9687.95)" fill="none" stroke="#fff" stroke-miterlimit="10" stroke-width="1.363"/>
      <line id="Line_319" data-name="Line 319" x2="313.001" y2="68.469" transform="translate(-17491.334 9619.48)" fill="none" stroke="#fff" stroke-miterlimit="10" stroke-width="1.363"/>
      <path id="Path_13836" data-name="Path 13836" d="M530.875,340.029a19.563,19.563,0,1,0-19.563,19.559A19.569,19.569,0,0,0,530.875,340.029Z" transform="translate(-18095.967 9102.894)" fill="#fff" stroke="#fff" stroke-width="1"/>
      <line id="Line_320" data-name="Line 320" x1="90.826" y1="176.063" transform="translate(-17579.131 9443.418)" fill="none" stroke="#fff" stroke-miterlimit="10" stroke-width="1.363"/>
      <path id="Path_13837" data-name="Path 13837" d="M261.832,222.776a19.563,19.563,0,1,0-19.564,19.559A19.568,19.568,0,0,0,261.832,222.776Z" transform="translate(-18030.379 9337.024)" fill="#fff" stroke="#fff" stroke-width="1"/>
      <line id="Line_321" data-name="Line 321" x1="289.247" y1="60.085" transform="translate(-17777.184 9559.396)" fill="none" stroke="#fff" stroke-miterlimit="10" stroke-width="1.363"/>
      <line id="Line_322" data-name="Line 322" x1="197.023" y2="100.608" transform="translate(-17785.166 9455.993)" fill="none" stroke="#fff" stroke-miterlimit="10" stroke-width="1.363"/>
      <line id="Line_323" data-name="Line 323" y1="329.769" x2="146.719" transform="translate(-17930.881 9556.602)" fill="none" stroke="#fff" stroke-miterlimit="10" stroke-width="1.363"/>
      <line id="Line_324" data-name="Line 324" y1="37.728" x2="250.122" transform="translate(-18033.986 9556.602)" fill="none" stroke="#fff" stroke-miterlimit="10" stroke-width="1.363"/>
      <path id="Path_13838" data-name="Path 13838" d="M293.9,442.083a19.563,19.563,0,1,0-19.56,19.56A19.559,19.559,0,0,0,293.9,442.083Z" transform="translate(-18302.764 9147.872)" fill="#fff" stroke="#fff" stroke-width="1"/>
      <line id="Line_325" data-name="Line 325" x1="188.639" y1="184.447" transform="translate(-18221.361 9405.689)" fill="none" stroke="#fff" stroke-miterlimit="10" stroke-width="1.363"/>
      <line id="Line_327" data-name="Line 327" x1="365.377" y1="164.87" transform="translate(-18294.5 9721.5)" fill="none" stroke="#fff" stroke-miterlimit="10" stroke-width="1.363"/>
      <line id="Line_328" data-name="Line 328" x2="103.402" y2="289.247" transform="translate(-18033.59 9590.137)" fill="none" stroke="#fff" stroke-miterlimit="10" stroke-width="1.363"/>
      <line id="Line_329" data-name="Line 329" x1="257.129" y2="105.363" transform="translate(-18289.5 9590.137)" fill="none" stroke="#fff" stroke-miterlimit="10" stroke-width="1.363"/>
      <line id="Line_330" data-name="Line 330" y1="57.29" x2="403.828" transform="translate(-17570.572 9381.936)" fill="none" stroke="#fff" stroke-miterlimit="10" stroke-width="1.363"/>
      <line id="Line_331" data-name="Line 331" x1="121" y1="101" transform="translate(-17152.5 9386.5)" fill="none" stroke="#fff" stroke-miterlimit="10" stroke-width="1.363"/>
      <line id="Line_335" data-name="Line 335" y1="285" x2="20" transform="translate(-17179.5 9392.5)" fill="none" stroke="#fff" stroke-miterlimit="10" stroke-width="1.363"/>
    </g>
  </g>
</svg>
