<svg xmlns="http://www.w3.org/2000/svg" width="1366.434" height="606.106" viewBox="0 0 1366.434 606.106">
  <g id="Group_6274" data-name="Group 6274" transform="translate(5324.434 -7440.561)">
    <g id="Group_6273" data-name="Group 6273" transform="translate(-5321.562 7444.789)">
      <g id="Layer_1" data-name="Layer 1" transform="translate(-2.438 -0.009)">
        <path id="Path_14508" data-name="Path 14508" d="M1365.982,600.643H1.144L-.018-.009l1363.212.08Z" transform="translate(0.018 0.009)" fill="#1a73e8"/>
      </g>
      <g id="Layer_2" data-name="Layer 2" transform="translate(-2.438 -3.789)">
        <path id="Path_14509" data-name="Path 14509" d="M1366,535l-40.91-83.892a14.336,14.336,0,0,1,6.548-19.188l34.219-17.134" transform="translate(-2.793 3.789)" fill="none" stroke="#4b8cea" stroke-miterlimit="10" stroke-width="5.232"/>
        <path id="Path_14510" data-name="Path 14510" d="M1255.6,597.787l20.92-35.247a14.337,14.337,0,0,1,19.645-5.011l68.164,40.458" transform="translate(-2.793 3.789)" fill="none" stroke="#4b8cea" stroke-miterlimit="10" stroke-width="4.255"/>
        <path id="Path_14511" data-name="Path 14511" d="M1364.533,58.869l-8.289-4.582a9,9,0,0,0-12.225,3.521L1308.04,122.9a8.995,8.995,0,0,0,3.521,12.225l36.868,20.379a9,9,0,0,0,12.225-3.521l4.969-8.991" transform="translate(-2.793 3.789)" fill="none" stroke="#4b8cea" stroke-linecap="square" stroke-linejoin="round" stroke-width="2.382"/>
        <line id="_Slice_" data-name="&lt;Slice&gt;" y1="116.571" transform="translate(1363.207 59.932)" fill="none"/>
        <g id="Group_6263" data-name="Group 6263" transform="translate(1272.308 473.625)">
          <circle id="Ellipse_427" data-name="Ellipse 427" cx="8.381" cy="8.381" r="8.381" transform="translate(47.335 16.636) rotate(-82.964)" fill="#4b8cea" stroke="#4b8cea" stroke-linecap="round" stroke-miterlimit="10" stroke-width="0.621"/>
          <circle id="Ellipse_428" data-name="Ellipse 428" cx="8.381" cy="8.381" r="8.381" transform="translate(15.171 40.104) rotate(-82.964)" fill="#4b8cea" stroke="#4b8cea" stroke-linecap="round" stroke-miterlimit="10" stroke-width="0.621"/>
          <circle id="Ellipse_429" data-name="Ellipse 429" cx="8.381" cy="8.381" r="8.381" transform="translate(30.19 73.972) rotate(-82.964)" fill="#4b8cea" stroke="#4b8cea" stroke-linecap="round" stroke-miterlimit="10" stroke-width="0.621"/>
          <ellipse id="Ellipse_430" data-name="Ellipse 430" cx="8.4" cy="8.356" rx="8.4" ry="8.356" transform="translate(0 80.508) rotate(-22.693)" fill="#4b8cea" stroke="#4b8cea" stroke-linecap="round" stroke-miterlimit="10" stroke-width="0.621"/>
          <path id="Path_14512" data-name="Path 14512" d="M1330.631,480.006l-30.872,22.174,14.313,33.485-28.549,18.972" transform="translate(-1275.101 -469.836)" fill="none" stroke="#4b8cea" stroke-linecap="round" stroke-miterlimit="10" stroke-width="3.104"/>
        </g>
        <g id="Group_6264" data-name="Group 6264" transform="translate(1294.11 328.848)">
          <circle id="Ellipse_431" data-name="Ellipse 431" cx="8.381" cy="8.381" r="8.381" transform="matrix(0.755, -0.655, 0.655, 0.755, 28.046, 96.084)" fill="#4b8cea" stroke="#4b8cea" stroke-linecap="round" stroke-miterlimit="10" stroke-width="0.621"/>
          <circle id="Ellipse_432" data-name="Ellipse 432" cx="8.381" cy="8.381" r="8.381" transform="matrix(0.755, -0.655, 0.655, 0.755, 34.473, 56.791)" fill="#4b8cea" stroke="#4b8cea" stroke-linecap="round" stroke-miterlimit="10" stroke-width="0.621"/>
          <circle id="Ellipse_433" data-name="Ellipse 433" cx="8.381" cy="8.381" r="8.381" transform="matrix(0.755, -0.655, 0.655, 0.755, 0, 43.218)" fill="#4b8cea" stroke="#4b8cea" stroke-linecap="round" stroke-miterlimit="10" stroke-width="0.621"/>
          <ellipse id="Ellipse_434" data-name="Ellipse 434" cx="8.4" cy="8.356" rx="8.4" ry="8.356" transform="translate(8.366 15.498) rotate(-67.297)" fill="#4b8cea" stroke="#4b8cea" stroke-linecap="round" stroke-miterlimit="10" stroke-width="0.621"/>
          <path id="Path_14513" data-name="Path 14513" d="M1337.012,420.585l6.415-37.465-33.7-13.8,7.01-33.553" transform="translate(-1296.904 -325.058)" fill="none" stroke="#4b8cea" stroke-linecap="round" stroke-miterlimit="10" stroke-width="3.104"/>
        </g>
        <g id="Group_6265" data-name="Group 6265" transform="translate(1164.632 540.749)">
          <circle id="Ellipse_435" data-name="Ellipse 435" cx="8.381" cy="8.381" r="8.381" transform="translate(78.306 47.879) rotate(-4.745)" fill="#4b8cea" stroke="#4b8cea" stroke-linecap="round" stroke-miterlimit="10" stroke-width="0.621"/>
          <circle id="Ellipse_436" data-name="Ellipse 436" cx="8.381" cy="8.381" r="8.381" transform="matrix(0.997, -0.083, 0.083, 0.997, 54.333, 16.089)" fill="#4b8cea" stroke="#4b8cea" stroke-linecap="round" stroke-miterlimit="10" stroke-width="0.621"/>
          <circle id="Ellipse_437" data-name="Ellipse 437" cx="8.381" cy="8.381" r="8.381" transform="translate(20.708 31.641) rotate(-4.745)" fill="#4b8cea" stroke="#4b8cea" stroke-linecap="round" stroke-miterlimit="10" stroke-width="0.621"/>
          <ellipse id="Ellipse_438" data-name="Ellipse 438" cx="8.356" cy="8.4" rx="8.356" ry="8.4" transform="translate(0 6.649) rotate(-23.443)" fill="#4b8cea" stroke="#4b8cea" stroke-linecap="round" stroke-miterlimit="10" stroke-width="0.621"/>
          <path id="Path_14514" data-name="Path 14514" d="M1253.933,591.361l-22.659-30.518-33.253,14.84-19.42-28.246" transform="translate(-1167.425 -536.96)" fill="none" stroke="#4b8cea" stroke-linecap="round" stroke-miterlimit="10" stroke-width="3.104"/>
        </g>
        <path id="Path_14515" data-name="Path 14515" d="M1075.843,598.018l-3.043-38.2a8.69,8.69,0,0,1,8.043-9.292l86.537-6.239a8.69,8.69,0,0,1,9.293,8.043l7.043,46.2" transform="translate(-2.793 3.789)" fill="none" stroke="#4b8cea" stroke-linecap="square" stroke-miterlimit="10" stroke-width="4"/>
        <g id="Group_6266" data-name="Group 6266" transform="translate(1291.406 152.401)">
          <circle id="Ellipse_439" data-name="Ellipse 439" cx="8.381" cy="8.381" r="8.381" transform="matrix(0.012, -1, 1, 0.012, 42.87, 16.761)" fill="#4b8cea" stroke="#4b8cea" stroke-linecap="round" stroke-miterlimit="10" stroke-width="0.621"/>
          <circle id="Ellipse_440" data-name="Ellipse 440" cx="8.381" cy="8.381" r="8.381" transform="translate(12.501 42.509) rotate(-89.329)" fill="#4b8cea" stroke="#4b8cea" stroke-linecap="round" stroke-miterlimit="10" stroke-width="0.621"/>
          <circle id="Ellipse_441" data-name="Ellipse 441" cx="8.381" cy="8.381" r="8.381" transform="translate(29.946 75.193) rotate(-89.329)" fill="#4b8cea" stroke="#4b8cea" stroke-linecap="round" stroke-miterlimit="10" stroke-width="0.621"/>
          <ellipse id="Ellipse_442" data-name="Ellipse 442" cx="8.4" cy="8.356" rx="8.4" ry="8.356" transform="translate(0 83.586) rotate(-26.898)" fill="#4b8cea" stroke="#4b8cea" stroke-linecap="round" stroke-miterlimit="10" stroke-width="0.621"/>
          <path id="Path_14516" data-name="Path 14516" d="M1344.463,158l-29.175,24.363L1332,214.714l-27.091,21" transform="translate(-1294.2 -148.611)" fill="none" stroke="#4b8cea" stroke-linecap="round" stroke-miterlimit="10" stroke-width="3.104"/>
        </g>
        <circle id="Ellipse_443" data-name="Ellipse 443" cx="8.381" cy="8.381" r="8.381" transform="matrix(0.651, -0.759, 0.759, 0.651, 1331.961, 55.131)" fill="#4b8cea" stroke="#4b8cea" stroke-linecap="round" stroke-miterlimit="10" stroke-width="0.621"/>
        <circle id="Ellipse_444" data-name="Ellipse 444" cx="8.381" cy="8.381" r="8.381" transform="matrix(0.651, -0.759, 0.759, 0.651, 1331.694, 15.317)" fill="#4b8cea" stroke="#4b8cea" stroke-linecap="round" stroke-miterlimit="10" stroke-width="0.621"/>
        <path id="Path_14517" data-name="Path 14517" d="M1316.636-.025a8.382,8.382,0,1,1-15.617.005" transform="translate(-2.793 3.789)" fill="#4b8cea" stroke="#4b8cea" stroke-linecap="round" stroke-miterlimit="10" stroke-width="0.621"/>
        <path id="Path_14518" data-name="Path 14518" d="M1346.573,49.014,1346.6,11l-35.54-7.938" transform="translate(-2.793 3.789)" fill="none" stroke="#4b8cea" stroke-linecap="round" stroke-miterlimit="10" stroke-width="3.104"/>
        <path id="Path_14519" data-name="Path 14519" d="M1364.862,333.029l-32.6,5.924a10.805,10.805,0,0,1-12.562-8.7l-14.756-81.205a10.8,10.8,0,0,1,8.7-12.561l37.47-6.809a10.8,10.8,0,0,1,12.562,8.7l2.135,11.749" transform="translate(-2.793 3.789)" fill="none" stroke="#4b8cea" stroke-linecap="square" stroke-miterlimit="10" stroke-width="4"/>
        <g id="Group_6267" data-name="Group 6267" transform="translate(966.001 544.588)">
          <circle id="Ellipse_445" data-name="Ellipse 445" cx="8.382" cy="8.382" r="8.382" transform="matrix(0.674, -0.738, 0.738, 0.674, 0, 22.889)" fill="#4b8cea" stroke="#4b8cea" stroke-linecap="round" stroke-miterlimit="10" stroke-width="0.621"/>
          <circle id="Ellipse_446" data-name="Ellipse 446" cx="8.382" cy="8.382" r="8.382" transform="translate(38.403 12.376) rotate(-47.586)" fill="#4b8cea" stroke="#4b8cea" stroke-linecap="round" stroke-miterlimit="10" stroke-width="0.621"/>
          <circle id="Ellipse_447" data-name="Ellipse 447" cx="8.382" cy="8.382" r="8.382" transform="translate(55.515 45.234) rotate(-47.586)" fill="#4b8cea" stroke="#4b8cea" stroke-linecap="round" stroke-miterlimit="10" stroke-width="0.621"/>
          <ellipse id="Ellipse_448" data-name="Ellipse 448" cx="8.4" cy="8.356" rx="8.4" ry="8.356" transform="translate(88.078 30.52) rotate(-28.888)" fill="#4b8cea" stroke="#4b8cea" stroke-linecap="round" stroke-miterlimit="10" stroke-width="0.621"/>
          <path id="Path_14520" data-name="Path 14520" d="M980.8,562.77l36.586-10.31,17.253,32.068,32.633-10.491" transform="translate(-967.598 -540.799)" fill="none" stroke="#4b8cea" stroke-linecap="round" stroke-miterlimit="10" stroke-width="3.104"/>
        </g>
        <rect id="Rectangle_1526" data-name="Rectangle 1526" width="60.35" height="105.289" rx="13.059" transform="translate(863.499 589.549) rotate(-85.617)" fill="none" stroke="#4b8cea" stroke-linecap="square" stroke-miterlimit="10" stroke-width="3.186"/>
        <g id="Group_6268" data-name="Group 6268" transform="translate(0 451.359)">
          <circle id="Ellipse_449" data-name="Ellipse 449" cx="8.382" cy="8.382" r="8.382" transform="translate(16.571 98.261) rotate(-36.565)" fill="#4b8cea" stroke="#4b8cea" stroke-linecap="round" stroke-miterlimit="10" stroke-width="0.621"/>
          <circle id="Ellipse_450" data-name="Ellipse 450" cx="8.382" cy="8.382" r="8.382" transform="translate(30.943 61.13) rotate(-36.565)" fill="#4b8cea" stroke="#4b8cea" stroke-linecap="round" stroke-miterlimit="10" stroke-width="0.621"/>
          <circle id="Ellipse_451" data-name="Ellipse 451" cx="8.382" cy="8.382" r="8.382" transform="translate(0 40.758) rotate(-36.565)" fill="#4b8cea" stroke="#4b8cea" stroke-linecap="round" stroke-miterlimit="10" stroke-width="0.621"/>
          <ellipse id="Ellipse_452" data-name="Ellipse 452" cx="8.4" cy="8.356" rx="8.4" ry="8.356" transform="translate(14.209 13.805) rotate(-55.263)" fill="#4b8cea" stroke="#4b8cea" stroke-linecap="round" stroke-miterlimit="10" stroke-width="0.621"/>
          <path id="Path_14521" data-name="Path 14521" d="M26.379,546.254l13.985-35.345L10.221,490.478l13.762-31.394" transform="translate(2.438 -447.57)" fill="none" stroke="#4b8cea" stroke-linecap="round" stroke-miterlimit="10" stroke-width="3.104"/>
        </g>
        <path id="Path_14522" data-name="Path 14522" d="M1.723,346.357l23.838,3.32a13.059,13.059,0,0,1,11.3,14.61L26.812,442.819a13.058,13.058,0,0,1-14.61,11.3l-10.559-1.1" transform="translate(2.438 3.789)" fill="none" stroke="#4b8cea" stroke-linecap="square" stroke-miterlimit="10" stroke-width="3.186"/>
        <g id="Group_6269" data-name="Group 6269" transform="translate(1088.437)">
          <circle id="Ellipse_453" data-name="Ellipse 453" cx="8.381" cy="8.381" r="8.381" transform="matrix(0.73, -0.683, 0.683, 0.73, 0, 34.441)" fill="#4b8cea" stroke="#4b8cea" stroke-linecap="round" stroke-miterlimit="10" stroke-width="0.621"/>
          <circle id="Ellipse_454" data-name="Ellipse 454" cx="8.381" cy="8.381" r="8.381" transform="matrix(0.73, -0.683, 0.683, 0.73, 38.523, 44.505)" fill="#4b8cea" stroke="#4b8cea" stroke-linecap="round" stroke-miterlimit="10" stroke-width="0.621"/>
          <circle id="Ellipse_455" data-name="Ellipse 455" cx="8.381" cy="8.381" r="8.381" transform="matrix(0.73, -0.683, 0.683, 0.73, 55.25, 11.449)" fill="#4b8cea" stroke="#4b8cea" stroke-linecap="round" stroke-miterlimit="10" stroke-width="0.621"/>
          <ellipse id="Ellipse_456" data-name="Ellipse 456" cx="8.356" cy="8.4" rx="8.356" ry="8.4" transform="translate(87.982 25.782) rotate(-61.781)" fill="#4b8cea" stroke="#4b8cea" stroke-linecap="round" stroke-miterlimit="10" stroke-width="0.621"/>
          <path id="Path_14523" data-name="Path 14523" d="M1104.442,31.416l36.7,9.882,16.877-32.267,32.754,10.109" transform="translate(-1091.23 3.789)" fill="none" stroke="#4b8cea" stroke-linecap="round" stroke-miterlimit="10" stroke-width="3.104"/>
        </g>
        <path id="Path_14524" data-name="Path 14524" d="M1304.143,2.214c3.1,2.945,3.618,5.916,2.777,10.433L1300.655,46.3a13.059,13.059,0,0,1-15.229,10.448L1207.592,42.26a13.059,13.059,0,0,1-10.448-15.229l4.786-25.705" transform="translate(-2.793 3.789)" fill="none" stroke="#4b8cea" stroke-linecap="square" stroke-miterlimit="10" stroke-width="3.186"/>
        <path id="Path_14525" data-name="Path 14525" d="M1074.857,2.643l19.994,21.333a13.058,13.058,0,0,1-1.148,18.432l-25.664,22.654a13.058,13.058,0,0,1-18.432-1.148L997.213,4.559c-.208-.386-1.905-1.327-1.892-2.977" transform="translate(-1.686 3.789)" fill="none" stroke="#4b8cea" stroke-linecap="square" stroke-miterlimit="10" stroke-width="3.186"/>
        <g id="Group_6270" data-name="Group 6270" transform="translate(9.891 258.142)">
          <circle id="Ellipse_457" data-name="Ellipse 457" cx="8.381" cy="8.381" r="8.381" transform="translate(44.462 6.626) rotate(-23.286)" fill="#4b8cea" stroke="#4b8cea" stroke-linecap="round" stroke-miterlimit="10" stroke-width="0.621"/>
          <circle id="Ellipse_458" data-name="Ellipse 458" cx="8.381" cy="8.381" r="8.381" transform="translate(38.24 45.953) rotate(-23.286)" fill="#4b8cea" stroke="#4b8cea" stroke-linecap="round" stroke-miterlimit="10" stroke-width="0.621"/>
          <circle id="Ellipse_459" data-name="Ellipse 459" cx="8.381" cy="8.381" r="8.381" transform="translate(1.251 48.027) rotate(-23.286)" fill="#4b8cea" stroke="#4b8cea" stroke-linecap="round" stroke-miterlimit="10" stroke-width="0.621"/>
          <ellipse id="Ellipse_460" data-name="Ellipse 460" cx="8.356" cy="8.4" rx="8.356" ry="8.4" transform="matrix(0.997, -0.08, 0.08, 0.997, 0, 78.47)" fill="#4b8cea" stroke="#4b8cea" stroke-linecap="round" stroke-miterlimit="10" stroke-width="0.621"/>
          <path id="Path_14526" data-name="Path 14526" d="M62.714,266.763,57.056,304.35l-36.326,2.528-3.868,34.059" transform="translate(-7.452 -254.353)" fill="none" stroke="#4b8cea" stroke-linecap="round" stroke-miterlimit="10" stroke-width="3.104"/>
        </g>
        <path id="Path_14527" data-name="Path 14527" d="M1.67,169.464c3.348.134,6.031.625,8.848,2.963l60.923,50.561a13.058,13.058,0,0,1,1.71,18.388L51.289,267.719A13.06,13.06,0,0,1,32.9,269.428L2.357,244.143" transform="translate(2.438 3.789)" fill="none" stroke="#4b8cea" stroke-linecap="square" stroke-miterlimit="10" stroke-width="3.186"/>
        <g id="Group_6271" data-name="Group 6271" transform="translate(4.144 80.094)">
          <circle id="Ellipse_461" data-name="Ellipse 461" cx="8.382" cy="8.382" r="8.382" transform="matrix(0.843, -0.538, 0.538, 0.843, 16.945, 9.016)" fill="#4b8cea" stroke="#4b8cea" stroke-linecap="round" stroke-miterlimit="10" stroke-width="0.621"/>
          <circle id="Ellipse_462" data-name="Ellipse 462" cx="8.382" cy="8.382" r="8.382" transform="matrix(0.843, -0.538, 0.538, 0.843, 0, 45.046)" fill="#4b8cea" stroke="#4b8cea" stroke-linecap="round" stroke-miterlimit="10" stroke-width="0.621"/>
          <circle id="Ellipse_463" data-name="Ellipse 463" cx="8.382" cy="8.382" r="8.382" transform="matrix(0.843, -0.538, 0.538, 0.843, 29.436, 67.541)" fill="#4b8cea" stroke="#4b8cea" stroke-linecap="round" stroke-miterlimit="10" stroke-width="0.621"/>
          <ellipse id="Ellipse_464" data-name="Ellipse 464" cx="8.4" cy="8.356" rx="8.4" ry="8.356" transform="translate(12.966 101.18) rotate(-51.234)" fill="#4b8cea" stroke="#4b8cea" stroke-linecap="round" stroke-miterlimit="10" stroke-width="0.621"/>
          <path id="Path_14528" data-name="Path 14528" d="M29.613,89.155,13.179,123.43l28.633,22.5-15.933,30.35" transform="translate(-1.705 -76.305)" fill="none" stroke="#4b8cea" stroke-linecap="round" stroke-miterlimit="10" stroke-width="3.104"/>
        </g>
        <path id="Path_14529" data-name="Path 14529" d="M75.274,1.743,69.218,70.706A13.059,13.059,0,0,1,55.06,82.564l-34.1-3.015A13.059,13.059,0,0,1,9.1,65.39L14.732,1.732" transform="translate(2.438 3.789)" fill="none" stroke="#4b8cea" stroke-linecap="square" stroke-miterlimit="10" stroke-width="3.186"/>
        <path id="Path_14530" data-name="Path 14530" d="M1.911,561.768c1.173-5.331,6.613-8.254,12.292-7.818L93.143,560a13.057,13.057,0,0,1,12.022,14.018l-1.957,25.537" transform="translate(2.438 3.789)" fill="none" stroke="#4b8cea" stroke-linecap="square" stroke-miterlimit="10" stroke-width="3.186"/>
        <path id="Path_14531" data-name="Path 14531" d="M-.684,577.3" transform="translate(2.438 3.789)" fill="none" stroke="#4b8cea" stroke-linecap="square" stroke-miterlimit="10" stroke-width="3.186"/>
        <g id="Group_6272" data-name="Group 6272" transform="translate(759.411 539.944)">
          <circle id="Ellipse_465" data-name="Ellipse 465" cx="8.381" cy="8.381" r="8.381" transform="matrix(0.731, -0.682, 0.682, 0.731, 87.009, 21.535)" fill="#4b8cea" stroke="#4b8cea" stroke-linecap="round" stroke-miterlimit="10" stroke-width="0.621"/>
          <circle id="Ellipse_466" data-name="Ellipse 466" cx="8.381" cy="8.381" r="8.381" transform="matrix(0.731, -0.682, 0.682, 0.731, 48.495, 11.439)" fill="#4b8cea" stroke="#4b8cea" stroke-linecap="round" stroke-miterlimit="10" stroke-width="0.621"/>
          <circle id="Ellipse_467" data-name="Ellipse 467" cx="8.381" cy="8.381" r="8.381" transform="matrix(0.731, -0.682, 0.682, 0.731, 31.74, 44.481)" fill="#4b8cea" stroke="#4b8cea" stroke-linecap="round" stroke-miterlimit="10" stroke-width="0.621"/>
          <ellipse id="Ellipse_468" data-name="Ellipse 468" cx="8.356" cy="8.4" rx="8.356" ry="8.4" transform="translate(0 37.696) rotate(-61.733)" fill="#4b8cea" stroke="#4b8cea" stroke-linecap="round" stroke-miterlimit="10" stroke-width="0.621"/>
          <path id="Path_14532" data-name="Path 14532" d="M857.633,557.727l-36.7-9.913-16.9,32.253L771.288,569.93" transform="translate(-760.144 -536.154)" fill="none" stroke="#4b8cea" stroke-linecap="round" stroke-miterlimit="10" stroke-width="3.104"/>
        </g>
        <path id="Path_14533" data-name="Path 14533" d="M703.709,599.571v-41.23a13.058,13.058,0,0,1,13.059-13.058H751a13.059,13.059,0,0,1,13.059,13.058v40.945" transform="translate(-0.386 3.789)" fill="none" stroke="#4b8cea" stroke-linecap="square" stroke-miterlimit="10" stroke-width="3.186"/>
      </g>
    </g>
  </g>
</svg>
