<svg xmlns="http://www.w3.org/2000/svg" xmlns:xlink="http://www.w3.org/1999/xlink" width="340" height="303.104" viewBox="0 0 340 303.104">
  <defs>
    <linearGradient id="linear-gradient" x1="0.5" x2="0.5" y2="1" gradientUnits="objectBoundingBox">
      <stop offset="0" stop-color="#e9f2fe"/>
      <stop offset="1" stop-color="#c6d9fb"/>
    </linearGradient>
    <linearGradient id="linear-gradient-2" x1="0.481" y1="1.459" x2="0.518" y2="-0.279" gradientUnits="objectBoundingBox">
      <stop offset="0" stop-color="#4285f4"/>
      <stop offset="1" stop-color="#005efb"/>
    </linearGradient>
    <linearGradient id="linear-gradient-4" x1="0.493" y1="1.481" x2="0.511" y2="-0.293" gradientUnits="objectBoundingBox">
      <stop offset="0" stop-color="#f1f3f4"/>
      <stop offset="1" stop-color="#bab0b0"/>
    </linearGradient>
    <linearGradient id="linear-gradient-7" x1="0" y1="0.5" x2="1" y2="0.5" xlink:href="#linear-gradient-4"/>
    <linearGradient id="linear-gradient-11" x1="0.494" y1="1.69" x2="0.503" y2="-0.06" gradientUnits="objectBoundingBox">
      <stop offset="0" stop-color="#4285f4"/>
      <stop offset="1" stop-color="#0360f9"/>
    </linearGradient>
    <linearGradient id="linear-gradient-12" y1="0.5" x2="1" y2="0.5" gradientUnits="objectBoundingBox">
      <stop offset="0" stop-color="#bab0b0"/>
      <stop offset="1" stop-color="#f1f3f4"/>
    </linearGradient>
    <radialGradient id="radial-gradient" cx="14.617" cy="15.236" r="14.324" gradientTransform="matrix(1.033, 0.139, -0.139, 1.033, 1.634, -2.534)" gradientUnits="userSpaceOnUse">
      <stop offset="0" stop-color="#328eb8"/>
      <stop offset="0.28" stop-color="#318cb6"/>
      <stop offset="0.45" stop-color="#2f84ad"/>
      <stop offset="0.59" stop-color="#2b789f"/>
      <stop offset="0.71" stop-color="#26668b"/>
      <stop offset="0.82" stop-color="#1e4f71"/>
      <stop offset="0.92" stop-color="#163351"/>
      <stop offset="1" stop-color="#0d1732"/>
    </radialGradient>
    <radialGradient id="radial-gradient-2" cx="15.235" cy="14.619" r="15.561" gradientTransform="matrix(0.128, 0.951, -0.951, 0.128, 27.187, -1.737)" xlink:href="#radial-gradient"/>
    <linearGradient id="linear-gradient-13" x1="0.605" y1="0.125" x2="0.363" y2="0.99" xlink:href="#linear-gradient-12"/>
    <radialGradient id="radial-gradient-3" cx="17.315" cy="17.312" r="17.315" gradientTransform="matrix(0.234, 0.972, -0.972, 0.234, 30.085, -3.579)" gradientUnits="userSpaceOnUse">
      <stop offset="0" stop-color="#f1f3f4"/>
      <stop offset="0.66" stop-color="#4285f4"/>
      <stop offset="1" stop-color="#0060ff"/>
    </radialGradient>
    <linearGradient id="linear-gradient-14" x1="0.468" y1="0.012" x2="0.563" y2="2.895" gradientUnits="objectBoundingBox">
      <stop offset="0" stop-color="#f7f1ed"/>
      <stop offset="1" stop-color="#fce9d9"/>
    </linearGradient>
  </defs>
  <g id="Group_4894" data-name="Group 4894" transform="translate(-1620 1279.104)">
    <ellipse id="Ellipse_387" data-name="Ellipse 387" cx="170" cy="21" rx="170" ry="21" transform="translate(1620 -1018)" fill="url(#linear-gradient)"/>
    <g id="_6945_Converted_" data-name="6945 [Converted]" transform="translate(1557 -1174.239)">
      <g id="contact" transform="translate(113.789 -163)">
        <path id="Path_1709" data-name="Path 1709" d="M277.7,53.591a24.3,24.3,0,1,0-24.3-24.3A24.3,24.3,0,0,0,277.7,53.591Z" transform="translate(-57.42 247)" fill="#4285f4"/>
        <path id="Path_1710" data-name="Path 1710" d="M271.512,33.894c-2.03-4.746-6.282-9.371-.928-18.69,2.2-3.835,5.579-6.369,9.059-5.51,3.471-.868,6.846,1.675,9.05,5.51,5.354,9.319,1.1,13.944-.92,18.69l-8.13.868Z" transform="translate(-59.349 246.401)" fill="#707070"/>
        <path id="Path_1711" data-name="Path 1711" d="M265.4,45.6c-.252.408-.868,3.9-1.588,6.542a24.3,24.3,0,0,0,30.526,0c-.7-2.646-1.336-6.135-1.588-6.542-3.9-6.3-9.918-3.549-10.326-10.759A7.687,7.687,0,0,1,279,36.3a6.743,6.743,0,0,1-3.28-1.371C275.316,42.137,269.3,39.317,265.4,45.6Z" transform="translate(-58.797 243.052)" fill="#fed198"/>
        <path id="Path_1712" data-name="Path 1712" d="M284.327,35.845a8.673,8.673,0,0,1-.1-1.015,7.686,7.686,0,0,1-3.419,1.458,6.743,6.743,0,0,1-3.28-1.371,9.025,9.025,0,0,1-.1,1.033l.113.1h0c.113.1,1.839,1.588,3.271,1.571a6.515,6.515,0,0,0,3.271-1.571h0Z" transform="translate(-60.597 243.053)" fill="#f0b97d"/>
        <path id="Path_1713" data-name="Path 1713" d="M277,32.825a4.607,4.607,0,0,0,6.542,0c2.161-1.258,3.931-4.972,3.532-9-.321-3.3-3.887,1.536-6.369-5.267-3.523,7.367-6.855,3.011-7.237,5.8A9.8,9.8,0,0,0,277,32.825Z" transform="translate(-60.067 245.206)" fill="#fed198"/>
        <path id="Path_1714" data-name="Path 1714" d="M272.891,40.862c-2.126,1.137-6.013,1.171-7.5,3.549-.26.416-.868,5.493-1.614,8.486a24.3,24.3,0,0,0,30.578,0c-.712-2.994-1.432-8.035-1.614-8.486-.981-2.482-5.536-2.6-7.662-3.731-3.315,12.018-8.243,12.833-12.191.182Z" transform="translate(-58.793 242.279)" fill="#e96256"/>
        <path id="Path_1715" data-name="Path 1715" d="M275.2,39.51c-.139,3.74.495,9.033,4.686,10.412-3.948.165-6.508-5.527-9.423-7.011l4.738-3.375Z" transform="translate(-59.677 242.434)" fill="#fff"/>
        <path id="Path_1716" data-name="Path 1716" d="M286.249,39.51c.139,3.74-.529,9.033-4.928,10.412,4.148.165,6.837-5.527,9.9-7.011Z" transform="translate(-61.113 242.434)" fill="#fff"/>
        <circle id="Ellipse_199" data-name="Ellipse 199" cx="27.68" cy="27.68" r="27.68" transform="translate(204.931 77.814)" fill="#4285f4"/>
        <path id="Path_1717" data-name="Path 1717" d="M405.21,84.78h0Z" transform="translate(-172.47 32.445)" fill="#aedbf4"/>
        <path id="Path_1718" data-name="Path 1718" d="M423.316,90.068a27.662,27.662,0,0,1-42.986,0c3.618-4.833,9.154-7.228,13.692-8.408a15.228,15.228,0,0,0,1.171,6.621c1.527-3.471,6.629-3.792,6.629-3.792s5.1.312,6.586,3.792a14.568,14.568,0,0,0,1.137-6.621C414.162,82.823,419.741,85.235,423.316,90.068Z" transform="translate(-169.213 32.858)" fill="#fbbc05"/>
        <path id="Path_1719" data-name="Path 1719" d="M409.821,78.344h0c.142,1.153-.221,3.513-6.084,5.947h-.264c-6.612-.691-6.084-5.473-6.084-5.947h0a8.628,8.628,0,0,1,.264-1.894c1.7,2.329,3.735,3.9,5.956,3.9s4.254-1.572,5.956-3.9a9.2,9.2,0,0,1,.255,1.894Z" transform="translate(-170.989 33.11)" fill="#fed198"/>
        <path id="Path_1720" data-name="Path 1720" d="M411.33,78.54s.312,3.141-6.23,5.579c0,0,5.1.312,6.586,3.8C411.773,88.007,414.688,80.414,411.33,78.54Z" transform="translate(-172.49 33.271)" fill="#fff"/>
        <path id="Path_1721" data-name="Path 1721" d="M397.674,78.54c-3.358,1.874-.443,9.467-.356,9.328,1.527-3.471,6.586-3.792,6.586-3.792C397.362,81.681,397.674,78.54,397.674,78.54Z" transform="translate(-171.294 33.271)" fill="#fff"/>
        <path id="Path_1722" data-name="Path 1722" d="M412.9,64.555a12.417,12.417,0,0,1-3.532,7.15,7.991,7.991,0,0,1-1.18,1l-.694-2.221H400l-.694,2.221c-1.4-1.041-4.339-3.965-4.339-6.707-1.215-15.619,10.768-12.339,10.768-12.339C413.77,53.092,413.51,60.19,412.9,64.555Z" transform="translate(-171.138 36.601)" fill="#fed198"/>
        <path id="Path_1723" data-name="Path 1723" d="M417.178,68.2A4.512,4.512,0,0,1,415,70.162a19.088,19.088,0,0,0,.781-2.178v-.052l.521-1.961h-.043c.174-.651.347-1.3.486-1.961a1.232,1.232,0,0,1,.521.174C418.176,64.8,418.132,66.6,417.178,68.2Z" transform="translate(-173.799 35.193)" fill="#fed198"/>
        <path id="Path_1724" data-name="Path 1724" d="M394.8,70.443a4.469,4.469,0,0,1-2.221-1.961c-1-1.614-1-3.4-.043-3.965.087,0,.13-.087.217-.087a30.606,30.606,0,0,0,1.267,3.879,21.153,21.153,0,0,0,.781,2.135Z" transform="translate(-170.733 35.137)" fill="#fed198"/>
        <path id="SVGCleanerId_0" data-name="SVGCleanerId 0" d="M408.033,47.428c.347-4.009-6.022-3.748-6.022-3.748A12.33,12.33,0,0,0,391.33,54.048l1.31-1.562c-2.048,4.486,1.05,12.2,1.31,12.816,1.614,5.354,5.206,10.282,9.328,10.282s7.714-4.929,9.328-10.282h0V65.25c.174-.651.347-1.3.477-1.961h0c.868-3.471,1.831-7.011,1.831-7.011C417.361,43.758,408.033,47.428,408.033,47.428Zm4.4,15.809a12.416,12.416,0,0,1-3.532,7.15,11.082,11.082,0,0,1-1.18,1l-.694-2.178h-7.5l-.694,2.221A13.527,13.527,0,0,1,395.3,67.29a9.016,9.016,0,0,1-.868-2.6C393.222,49.068,405.2,52.348,405.2,52.348c8.1-.581,7.835,6.516,7.228,10.881Z" transform="translate(-170.668 37.883)" fill="#324a5e"/>
        <path id="SVGCleanerId_0-2" data-name="SVGCleanerId 0" d="M408.033,47.428c.347-4.009-6.022-3.748-6.022-3.748A12.33,12.33,0,0,0,391.33,54.048l1.31-1.562c-2.048,4.486,1.05,12.2,1.31,12.816,1.614,5.354,5.206,10.282,9.328,10.282s7.714-4.929,9.328-10.282h0V65.25c.174-.651.347-1.3.477-1.961h0c.868-3.471,1.831-7.011,1.831-7.011C417.361,43.758,408.033,47.428,408.033,47.428Zm4.4,15.809a12.416,12.416,0,0,1-3.532,7.15,11.082,11.082,0,0,1-1.18,1l-.694-2.178h-7.5l-.694,2.221A13.527,13.527,0,0,1,395.3,67.29a9.016,9.016,0,0,1-.868-2.6C393.222,49.068,405.2,52.348,405.2,52.348c8.1-.581,7.835,6.516,7.228,10.881Z" transform="translate(-170.668 37.883)" fill="#324a5e"/>
        <path id="Path_1725" data-name="Path 1725" d="M408.033,47.428c.347-4.009-6.022-3.748-6.022-3.748A12.33,12.33,0,0,0,391.33,54.048l1.31-1.562c-2.048,4.486,1.05,12.2,1.31,12.816,1.614,5.354,5.206,10.282,9.328,10.282s7.714-4.929,9.328-10.282h0V65.25c.174-.651.347-1.3.477-1.961h0c.868-3.471,1.831-7.011,1.831-7.011C417.361,43.758,408.033,47.428,408.033,47.428Zm4.4,15.809a12.416,12.416,0,0,1-3.532,7.15,11.082,11.082,0,0,1-1.18,1l-.694-2.178h-7.5l-.694,2.221c-1.4-1.041-4.339-3.965-4.339-6.707-1.215-15.619,10.768-12.339,10.768-12.339,8.035-.616,7.775,6.482,7.167,10.846Z" transform="translate(-170.668 37.883)" fill="#707070"/>
        <path id="Path_1726" data-name="Path 1726" d="M401.58,74.06a4.113,4.113,0,0,0,3.054,1.4,3.965,3.965,0,0,0,3.054-1.4Z" transform="translate(-172.024 33.863)" fill="#fed198"/>
        <circle id="Ellipse_200" data-name="Ellipse 200" cx="28.634" cy="28.634" r="28.634" transform="translate(-11 116.973)" fill="#4285f4"/>
        <path id="Path_1727" data-name="Path 1727" d="M173.584,90.45h0Z" transform="translate(-144.812 -16.305)" fill="#866ff4"/>
        <path id="Path_1728" data-name="Path 1728" d="M192.959,94.3a28.634,28.634,0,0,1-46.179,0c4.061-4.338,9.545-6.629,14.161-7.809a17.18,17.18,0,0,0,1.354,7.575c1.735-3.965,7.532-4.338,7.532-4.338s5.814.312,7.575,4.338c0,.087,1.735-4.286,1.354-7.575C183.414,87.67,188.933,89.969,192.959,94.3Z" transform="translate(-152.314 68.219)" fill="#fbbc05"/>
        <path id="Path_1729" data-name="Path 1729" d="M179.468,82.751h0c0,.581-.364,3.7-6.942,6.221h-.364c-6.586-2.525-6.942-5.64-6.942-6.221h0a9.085,9.085,0,0,1,.807-3.471c1.8,2.03,3.974,3.384,6.317,3.384s4.5-1.31,6.308-3.384a8.217,8.217,0,0,1,.816,3.471Z" transform="translate(-154.753 69.173)" fill="#fed198"/>
        <path id="Path_1730" data-name="Path 1730" d="M176.8,91.049l-1.44,2.889H170.4l-1.44-2.889a13.606,13.606,0,0,1,3.922-.989,13.355,13.355,0,0,1,3.922.989Z" transform="translate(-155.248 67.746)" fill="#fbbc05"/>
        <path id="Path_1731" data-name="Path 1731" d="M168.8,106.617a29.5,29.5,0,0,0,4.061.269,30.371,30.371,0,0,0,4.061-.269L175.342,94.53h-4.963Z" transform="translate(-155.227 67.155)" fill="#fbbc05"/>
        <path id="Path_1732" data-name="Path 1732" d="M180.554,82.91s.312,3.61-7.124,6.36c0,0,5.814.312,7.575,4.338C181.048,93.782,184.432,85.027,180.554,82.91Z" transform="translate(-155.839 68.692)" fill="#fff"/>
        <path id="Path_1733" data-name="Path 1733" d="M164.94,82.91c-3.835,2.117-.495,10.82-.408,10.69,1.735-3.965,7.575-4.338,7.575-4.338C164.619,86.52,164.94,82.91,164.94,82.91Z" transform="translate(-154.473 68.692)" fill="#fff"/>
        <path id="Path_1734" data-name="Path 1734" d="M179.085,79.978a8.347,8.347,0,0,1-13.345,0,5.281,5.281,0,0,1,.356-.868c1.8,2.022,3.974,3.375,6.317,3.375s4.5-1.3,6.308-3.375A4.667,4.667,0,0,1,179.085,79.978Z" transform="translate(-154.822 69.195)" fill="#f0b97d"/>
        <path id="Path_1735" data-name="Path 1735" d="M183.733,70.074c-.954,1.579-2.395,2.525-3.471,2.351-2.161,4.009-5.319,6.942-8.833,6.942s-6.673-3.02-8.842-6.942c-1.085.13-2.525-.772-3.471-2.351-1.128-1.848-1.171-3.87-.087-4.547a1.38,1.38,0,0,1,.868-.182,11.055,11.055,0,0,0,1.735,2.976c-1.041-5.727,3.2-6.36,2.482-11.861,0,0,2.655,5.909,10.282,1.735l-.59,1.128c10.647-2.395,7.08,10.143,6.994,10.456a14.178,14.178,0,0,0,2.395-4.434,1.085,1.085,0,0,1,.547.182C184.931,66.152,184.853,68.209,183.733,70.074Z" transform="translate(-153.83 72.192)" fill="#fed198"/>
        <path id="Path_1736" data-name="Path 1736" d="M177.567,49.182a5.31,5.31,0,0,1,2.247.677c-3.827-4.338-10.1-1.579-10.1-1.579a5.883,5.883,0,0,1,4.017-1.623c-8.972-1.354-10.482,4.009-10.482,4.009a3.323,3.323,0,0,1-.364-1.978c-.625,1.085.052,3.245.052,3.245-.633-1.579-2.846-1.31-2.846-1.31,1.892.321,2.213,1.492,2.213,1.492-4.738,1.735-3.922,6.673-3.922,6.673l1.128-1.354a11.381,11.381,0,0,0,2.161,9.545c-1.033-5.727,3.2-6.36,2.482-11.861,0,0,2.664,5.909,10.282,1.735l-.59,1.128c10.777-2.43,6.994,10.508,6.994,10.508a14.586,14.586,0,0,0,3.236-9.883l.451,1.8C185.723,52.3,177.567,49.182,177.567,49.182Z" transform="translate(-153.841 73.518)" fill="#707070"/>
      </g>
    </g>
    <g id="Group_4866" data-name="Group 4866" transform="translate(-209 362)">
      <path id="Rectangle_1012" data-name="Rectangle 1012" d="M15.828,0H120.257a16.026,16.026,0,0,1,15.828,16.218V265.407a16.027,16.027,0,0,1-15.828,16.218H15.828A16.026,16.026,0,0,1,0,265.406V16.218A16.026,16.026,0,0,1,15.828,0Z" transform="translate(1933.274 -1641.104)" fill="#213458"/>
      <path id="Path_11118" data-name="Path 11118" d="M13.9,0H120.808a13.9,13.9,0,0,1,13.9,13.9V264.439a13.9,13.9,0,0,1-13.9,13.9H13.9A13.9,13.9,0,0,1,0,264.439V13.9A13.9,13.9,0,0,1,13.9,0Z" transform="translate(1931.563 -1637.816)" fill="#4285f4"/>
      <path id="Path_11117" data-name="Path 11117" d="M1.217,0H119.711a1.217,1.217,0,0,1,1.217,1.217V218.252a1.217,1.217,0,0,1-1.217,1.217H1.217A1.217,1.217,0,0,1,0,218.251V1.217A1.217,1.217,0,0,1,1.217,0Z" transform="translate(1938.452 -1608.986)" fill="#fff"/>
      <path id="Path_7953" data-name="Path 7953" d="M7.743,2.984A1.492,1.492,0,1,1,7.743,0H35.379a1.492,1.492,0,1,1,0,2.984ZM2.764,0a1.492,1.492,0,0,1,0,2.984H1.493A1.492,1.492,0,1,1,1.493,0Z" transform="translate(1980.48 -1623.143)" fill="#e6e0de" fill-rule="evenodd"/>
      <path id="Path_7954" data-name="Path 7954" d="M9.762,19.524A9.761,9.761,0,1,0,0,9.762a9.761,9.761,0,0,0,9.762,9.762Z" transform="translate(1989.154 -1385.191)" fill="#fff" fill-rule="evenodd"/>
      <g id="Group_1705" data-name="Group 1705" transform="translate(1946.169 -1604.024)">
        <path id="Path_7967" data-name="Path 7967" d="M.36.726A.363.363,0,1,1,.36,0H8.3a.363.363,0,0,1,0,.726Zm0,5.214a.361.361,0,0,1,0-.723H8.3a.361.361,0,1,1,0,.723Zm0-2.607a.361.361,0,1,1,0-.723H8.3a.363.363,0,0,1,0,.726Z" transform="translate(0.003 0)" fill="#4285f4" fill-rule="evenodd"/>
        <path id="Path_7968" data-name="Path 7968" d="M10.647.324ZM1.1.723H5.762V4.475H1.1a.366.366,0,0,1-.264-.11A.372.372,0,0,1,.723,4.1v-3A.378.378,0,0,1,1.1.723ZM9.869,0H1.1A1.1,1.1,0,0,0,0,1.1v3A1.1,1.1,0,0,0,1.1,5.2H9.869a1.1,1.1,0,0,0,.753-.3l.025-.022A1.1,1.1,0,0,0,10.97,4.1v-3A1.1,1.1,0,0,0,9.869,0Z" transform="translate(94.523 0.37)" fill="#4285f4" fill-rule="evenodd"/>
      </g>
    </g>
    <path id="Path_11225" data-name="Path 11225" d="M325.421,98.28H230.685A2.646,2.646,0,0,1,228,95.243V90.037c.216-1.713.963-3.007,2.69-3.037h94.735a2.646,2.646,0,0,1,2.672,3.037v5.206c-.237,1.705-.951,2.99-2.672,3.037Z" transform="translate(1512.735 -1315.088)" fill="#bab0b0" opacity="0.46"/>
    <path id="Path_11226" data-name="Path 11226" d="M335.06,96.409l-1.735-1.84a2.941,2.941,0,0,0,.7-1.926,2.994,2.994,0,1,0-2.994,2.994,2.941,2.941,0,0,0,1.735-.538l1.779,1.848a.39.39,0,0,0,.278.121.382.382,0,0,0,.278-.113.39.39,0,0,0-.043-.547ZM331,90.431a2.213,2.213,0,1,1-2.213,2.213A2.213,2.213,0,0,1,331,90.431Z" transform="translate(1499.495 -1315.438)" fill="#707070"/>
    <g id="iphone" transform="translate(1679.664 -1247.009)">
      <path id="Path_1668" data-name="Path 1668" d="M217.339,289.519V284h-2.6A1.735,1.735,0,0,0,213,285.735v10.412s1.128,1.735,2.082,1.735h1.388v2.239a.963.963,0,0,0,.729.564.582.582,0,0,0,.4-.165l2.542-1.735h11.228s1.735-1.571,1.588-2.525v-2.716H221.989C219.673,293.718,217.339,289.519,217.339,289.519Z" transform="translate(-155.949 -88.143)" fill="#4285f4"/>
      <path id="Path_1669" data-name="Path 1669" d="M247.575,269H222.69a2.7,2.7,0,0,0-2.69,2.69v15.445a2.7,2.7,0,0,0,2.69,2.69h16.963l4.009,3.913a.859.859,0,0,0,1.484-.6v-3.315h2.447a2.733,2.733,0,0,0,2.759-2.69V271.69a2.759,2.759,0,0,0-2.777-2.69Zm-18.9,13.883a2.272,2.272,0,0,1-.061.451.868.868,0,0,1-.191.382.668.668,0,0,1-.278.208.868.868,0,0,1-.677,0,.642.642,0,0,1-.278-.243A.981.981,0,0,1,227,283.3a2.3,2.3,0,0,1-.061-.417v-1.735h-2.6v1.735a1.189,1.189,0,0,1-.252.8.668.668,0,0,1-.278.208.868.868,0,0,1-.677,0,.642.642,0,0,1-.278-.243.98.98,0,0,1-.191-.382,2.3,2.3,0,0,1-.061-.382v-4.928a1.63,1.63,0,0,1,.061-.416.867.867,0,0,1,.191-.382,1.431,1.431,0,0,1,.278-.243.868.868,0,0,1,.677,0,.59.59,0,0,1,.278.208.728.728,0,0,1,.191.382,2.274,2.274,0,0,1,.061.451v1.458h2.6v-1.458a1.631,1.631,0,0,1,.061-.416.868.868,0,0,1,.191-.382.729.729,0,0,1,.616-.347.973.973,0,0,1,.338.069.59.59,0,0,1,.278.208.729.729,0,0,1,.191.382,2.272,2.272,0,0,1,.061.451Zm6.6.338a.616.616,0,0,1-.191.286.755.755,0,0,1-.278.174.963.963,0,0,1-.312,0h-3.1a1.372,1.372,0,0,1-.4-.069.99.99,0,0,1-.338-.217.868.868,0,0,1-.191-.39,2.276,2.276,0,0,1-.061-.46v-4.694s-.3-.2-.26-.3a.755.755,0,0,1,.1-.269.634.634,0,0,1,.165-.226.555.555,0,0,1,.234-.165.607.607,0,0,1,.26-.069.677.677,0,0,0,.3-.087h3.2c.13.052.234.052.33.087a.6.6,0,0,1,.3.165,1.579,1.579,0,0,1,.2.26.963.963,0,0,1,.069.3.773.773,0,0,1-.069.3.486.486,0,0,1-.2.26.7.7,0,0,1-.3.165,1.085,1.085,0,0,0-.364.2h-2.23v.868h2.03a.616.616,0,0,1,.33,0,1.735,1.735,0,0,1,.3.165,2.716,2.716,0,0,1,.2.269,1.189,1.189,0,0,1,.061.3,1.11,1.11,0,0,1-.061.3.72.72,0,0,1-.174.269.677.677,0,0,1-.3.165.442.442,0,0,0-.33.286h-2.065v.868H234.5a.869.869,0,0,1,.312,0,.59.59,0,0,1,.278.174.919.919,0,0,1,.191.286,1.379,1.379,0,0,1,.061.356,1.415,1.415,0,0,1-.061.486Zm5.579.286a1.267,1.267,0,0,1-.286.174,1.016,1.016,0,0,1-.338,0h-2.759a1.372,1.372,0,0,1-.4-.069,1.112,1.112,0,0,1-.338-.208.868.868,0,0,1-.191-.382,2.272,2.272,0,0,1-.061-.451v-4.859a1.631,1.631,0,0,1,.061-.416.868.868,0,0,1,.191-.382.729.729,0,0,1,.616-.312.971.971,0,0,1,.338.069.59.59,0,0,1,.278.208.729.729,0,0,1,.191.382,2.273,2.273,0,0,1,.061.451v4.3h2.013a.972.972,0,0,1,.338.069.616.616,0,0,1,.286.174.6.6,0,0,1,.182.278,1.033,1.033,0,0,1,.061.347.972.972,0,0,1-.278.659Zm6.438-3.67a1.51,1.51,0,0,1-.495.7,1.926,1.926,0,0,1-.772.434,2.872,2.872,0,0,1-.989.139H244.3v1.414a2.093,2.093,0,0,1-.061.434.868.868,0,0,1-.191.373,1.737,1.737,0,0,1-.278.234.547.547,0,0,1-.338.069.971.971,0,0,1-.338-.069.5.5,0,0,1-.278-.234.694.694,0,0,1-.191-.373,2.117,2.117,0,0,1-.061-.4v-4.712a2.091,2.091,0,0,1,.061-.434.867.867,0,0,1,.217-.373.72.72,0,0,1,.338-.2,1.481,1.481,0,0,1,.408-.069h1.458a3.039,3.039,0,0,1,.59,0l.46.1a1.407,1.407,0,0,1,.373.165c.122.069.217.165.338.234a2.229,2.229,0,0,1,.278.338,1.84,1.84,0,0,1,.191.364,1.649,1.649,0,0,1,.121.443,2.135,2.135,0,0,1,0,.469,1.8,1.8,0,0,1-.1.98Z" transform="translate(-156.875 -86.158)" fill="#4285f4"/>
      <path id="Path_1670" data-name="Path 1670" d="M249.38,279.98a.719.719,0,0,0-.226-.1.789.789,0,0,0-.6.061H248v.868h.555c.13.191.269.191.364.156a.573.573,0,0,0,.26-.061c.069,0,.139,0,.174-.069l.1-.1a.215.215,0,0,1,.069-.139.572.572,0,0,0,0-.226.868.868,0,0,0,0-.269C249.449,280.119,249.414,280.05,249.38,279.98Z" transform="translate(-160.579 -87.594)" fill="#1a8dff"/>
      <path id="Path_1671" data-name="Path 1671" d="M311.434,269.557H272.388c-2.7.016-12.048,2.656-11.15-9.163V218.362a11.358,11.358,0,0,1,11.15-10.412l39.046.113a9.631,9.631,0,0,1,9.658,10.412v40.669c.447,9.183-3.816,10.325-9.657,10.412Z" transform="translate(-164.939 -86.081)" fill="#bab0b0"/>
      <path id="Path_1672" data-name="Path 1672" d="M263.9,255.1l.451-6.317-15.705-.043-.451,6.317,7.332,7.237Z" transform="translate(-131.5 -87.139)" fill="#e6af78"/>
      <path id="Path_1673" data-name="Path 1673" d="M313.079,267.853a3.315,3.315,0,0,0-2.482-3.523l-10.742-2.655a1.266,1.266,0,0,1-.443-.191l-9.241,5.25-8.113-5.553a1.8,1.8,0,0,1-.868.443l-11.115,2.6a3.931,3.931,0,0,0-2.985,3.471l-.512,7.063a1.657,1.657,0,0,0,1.649,1.814l42.413.113a1.935,1.935,0,0,0,1.9-1.8Z" transform="translate(-166.036 -93.124)" fill="#eff2fa"/>
      <path id="Path_1674" data-name="Path 1674" d="M285.637,253.74l-.477,6.664c9.631,3.714,16.1-5.493,16.1-5.493l.078-1.128H285.637Z" transform="translate(-168.496 -92.139)" fill="#d29b6e"/>
      <path id="Path_1675" data-name="Path 1675" d="M283.117,229.84l-.477,17.493a5.059,5.059,0,0,0,1.831,4.1l3.514,2.846a4.885,4.885,0,0,0,3.115,1.093h3.6a5.527,5.527,0,0,0,3.271-1.076l3.922-2.829a5.866,5.866,0,0,0,2.412-4.078l2.074-17.475Z" transform="translate(-168.162 -88.977)" fill="#f0c087"/>
      <path id="Path_1676" data-name="Path 1676" d="M292.171,233.512c3.575,0,9-.868,10.464-3.61l-19.141-.052L283,247.334a5.067,5.067,0,0,0,1.831,4.1l3.523,2.846a4.876,4.876,0,0,0,3.106,1.093h1.8c-1.787,0-5.1-3.653-4.772-8.2.156-2.23.59-8.182.781-10.916A3.141,3.141,0,0,1,292.171,233.512Z" transform="translate(-168.209 -88.979)" fill="#e6af78"/>
      <path id="Path_1677" data-name="Path 1677" d="M273.542,271.408l-5.484-5.258a3.818,3.818,0,0,0-.937,2.23l-.512,7.063a1.657,1.657,0,0,0,1.649,1.813h6.369l.182-2.473A4.287,4.287,0,0,0,273.542,271.408Z" transform="translate(-166.04 -93.781)" fill="#e4eaf6"/>
      <path id="Path_1678" data-name="Path 1678" d="M311.976,271.526l6.23-5.206a3.384,3.384,0,0,1,.625,2.239l-.512,7.063a1.935,1.935,0,0,1-1.9,1.8H310.05l.174-2.464A4.885,4.885,0,0,1,311.976,271.526Z" transform="translate(-171.789 -93.804)" fill="#e4eaf6"/>
      <path id="Path_1679" data-name="Path 1679" d="M257.961,272.755l-4.521-.009,1.154-8.287,3.4.009Z" transform="translate(-132.194 -89.219)" fill="#fb6154"/>
      <path id="Path_1680" data-name="Path 1680" d="M296.068,267.42h-4.651l-.148,1.952a.92.92,0,0,0,.92,1.007h2.673a1.093,1.093,0,0,0,1.067-1.007Z" transform="translate(-169.303 -93.949)" fill="#ea4335"/>
      <path id="Path_1681" data-name="Path 1681" d="M284.751,258.77l7.566,7.436A33.723,33.723,0,0,0,287,269.677a1.093,1.093,0,0,1-1.735-.408l-3.193-8.538,1.336-1.831a.868.868,0,0,1,1.345-.13Z" transform="translate(-168.087 -92.77)" fill="#e4eaf6"/>
      <path id="Path_1682" data-name="Path 1682" d="M302.514,258.825l-8.634,7.393a27.558,27.558,0,0,1,4.816,3.532,1.163,1.163,0,0,0,1.787-.4l4.417-8.512L303.832,259a.868.868,0,0,0-1.319-.174Z" transform="translate(-169.649 -92.782)" fill="#e4eaf6"/>
      <path id="Path_1683" data-name="Path 1683" d="M303.25,223.017l.4,5.978c3.74.781,3.853,6.837,3.809,8.573a1.683,1.683,0,0,0,.217.868l1.276,2.291a9.229,9.229,0,0,1,2.23-6.308C311.181,234.427,313.038,219.459,303.25,223.017Z" transform="translate(-170.889 -88.002)" fill="#707070"/>
      <path id="Path_1684" data-name="Path 1684" d="M308.7,240.16a1.735,1.735,0,0,1,1.614,2.325l-1.293,4.07a1.18,1.18,0,0,1-1.093.816h0a.98.98,0,0,1-.989-.954l-.217-4.165a2.013,2.013,0,0,1,1.978-2.091Z" transform="translate(-171.348 -90.343)" fill="#f0c087"/>
      <path id="Path_1685" data-name="Path 1685" d="M284.221,220.83l1.241.92c-6.247,4.434-5.683,12.078-5.683,12.078,1.64,1.8,1.319,6.317,1.319,6.317l1.9-1.8s-.312-5.206,3.176-7.211c3.237-1.848,5.883-.868,8.677-.868,7.419,0,9.7-2.82,9.588-6.291-.052-1.8-2.482-5.536-9.354-5.44C292.282,218.574,287.015,219.416,284.221,220.83Z" transform="translate(-167.782 -87.482)" fill="#707070"/>
      <path id="Path_1686" data-name="Path 1686" d="M283.084,229.928a10.473,10.473,0,0,1,2.378-7.688c-6.247,4.434-5.683,12.078-5.683,12.078,1.64,1.8,1.319,6.317,1.319,6.317l1.9-1.8s-.312-5.206,3.176-7.211c3.237-1.848,5.883-.868,8.677-.868a22.069,22.069,0,0,0,3.21-.217C292.308,230.709,289.253,226.3,283.084,229.928Z" transform="translate(-167.782 -87.972)" fill="#707070"/>
      <path id="Path_1687" data-name="Path 1687" d="M282.33,240.08a2.013,2.013,0,0,0-1.944,2.317l.712,4.078a.981.981,0,0,0,.972.868h0a1.18,1.18,0,0,0,1.128-.946l.807-4.165a1.735,1.735,0,0,0-1.666-2.109Z" transform="translate(-167.861 -90.332)" fill="#e6af78"/>
      <path id="Path_1688" data-name="Path 1688" d="M305.364,277H299a.963.963,0,0,0-.955.868l-.061.868h8.139l.069-.868A.868.868,0,0,0,305.364,277Z" transform="translate(-170.192 -95.217)" fill="#e4eaf6"/>
      <path id="Path_1689" data-name="Path 1689" d="M245.829,138.319a10.464,10.464,0,0,1-10.2,9.319,8.339,8.339,0,0,1-8.443-9.319A10.464,10.464,0,0,1,237.43,129a8.339,8.339,0,0,1,8.4,9.319Z" transform="translate(-160.819 -75.636)" fill="#707070"/>
      <path id="Path_1690" data-name="Path 1690" d="M242.8,136.159c-.3,0-.547.538-.547.538l-.59,6.308a2.117,2.117,0,0,1-.564.755,1.677,1.677,0,0,0,0-.3,4.13,4.13,0,0,0-2.464-3.341,2.794,2.794,0,0,0,.946-1.813,2.265,2.265,0,0,0-2.291-2.534,2.846,2.846,0,0,0-2.768,2.534,2.3,2.3,0,0,0,.59,1.8,5.094,5.094,0,0,0-1.267.712,5.206,5.206,0,0,0-1.857,2.6,1.736,1.736,0,0,0-.052.3.746.746,0,0,1-.364-.755l.772-8.313a.868.868,0,0,1,.946-.772h4.955a.816.816,0,0,0,.607-.642c0-.3-.529-.234-.529-.234h-4.764a2.2,2.2,0,0,0-2.143,1.961l-.746,7.922a1.735,1.735,0,0,0,1.779,1.961h8.087s2.039-.807,1.978-1.883l.59-6.308C243.319,136.4,243.1,136.159,242.8,136.159Zm-5.614.712a1.284,1.284,0,0,1,1.3,1.44,1.614,1.614,0,0,1-1.571,1.432,1.284,1.284,0,0,1-1.3-1.432,1.605,1.605,0,0,1,1.571-1.44Zm-4.148,7.08a.156.156,0,0,1,0-.121,4.043,4.043,0,0,1,3.757-2.837,3.193,3.193,0,0,1,3.219,2.837.147.147,0,0,1,0,.121.165.165,0,0,1-.121.061h-6.673a.165.165,0,0,1-.182-.061Z" transform="translate(-161.284 -76.166)" fill="#fff"/>
      <path id="Path_1691" data-name="Path 1691" d="M241.208,136.026h0a.963.963,0,0,0,.72.3H242a1.189,1.189,0,0,0,.807-.4h0l1.9-2.343a.529.529,0,0,0-.061-.764.564.564,0,0,0-.772.121l-1.866,2.317-.954-1.059a.538.538,0,0,0-.772,0,.555.555,0,0,0-.078.772Z" transform="translate(-162.532 -76.129)" fill="#fff"/>
      <path id="Path_1692" data-name="Path 1692" d="M331.829,175.319a10.464,10.464,0,0,1-10.2,9.319,8.339,8.339,0,0,1-8.443-9.319A10.464,10.464,0,0,1,323.43,166a8.339,8.339,0,0,1,8.4,9.319Z" transform="translate(-172.197 -80.531)" fill="#707070"/>
      <path id="Path_1693" data-name="Path 1693" d="M328.8,173.164c-.3,0-.547.538-.547.538l-.59,6.308a2.116,2.116,0,0,1-.564.755,1.674,1.674,0,0,0,0-.3,4.122,4.122,0,0,0-1.362-2.6,3.975,3.975,0,0,0-1.1-.7,2.794,2.794,0,0,0,.946-1.813,2.265,2.265,0,0,0-2.291-2.534,2.846,2.846,0,0,0-2.768,2.534,2.3,2.3,0,0,0,.59,1.8,5.094,5.094,0,0,0-1.267.712,5.206,5.206,0,0,0-1.857,2.6,1.734,1.734,0,0,0-.052.3.764.764,0,0,1-.364-.755l.772-8.313a.868.868,0,0,1,.946-.772h4.955a.816.816,0,0,0,.607-.642c0-.3-.529-.234-.529-.234h-4.764a2.2,2.2,0,0,0-2.143,1.961l-.746,7.922a1.735,1.735,0,0,0,1.779,1.961h8.087s2.039-.807,1.978-1.883l.59-6.308C329.319,173.407,329.1,173.164,328.8,173.164Zm-5.614.712a1.284,1.284,0,0,1,1.3,1.44,1.614,1.614,0,0,1-1.571,1.432,1.284,1.284,0,0,1-1.3-1.432,1.605,1.605,0,0,1,1.571-1.44Zm-4.148,7.08a.156.156,0,0,1,0-.121A4.043,4.043,0,0,1,322.794,178a3.193,3.193,0,0,1,3.219,2.837.148.148,0,0,1-.043.121.165.165,0,0,1-.121.061h-6.673a.165.165,0,0,1-.139-.061Z" transform="translate(-172.662 -81.066)" fill="#fff"/>
      <path id="Path_1694" data-name="Path 1694" d="M327.208,173.026h0a.963.963,0,0,0,.72.3H328a1.189,1.189,0,0,0,.807-.4h0l1.9-2.343a.529.529,0,0,0-.061-.764.564.564,0,0,0-.772.121l-1.866,2.317-.954-1.059a.538.538,0,0,0-.772,0,.555.555,0,0,0-.078.772Z" transform="translate(-173.91 -81.024)" fill="#fff"/>
      <path id="Path_1696" data-name="Path 1696" d="M335.006,157.041c-2.03-5.857-6.49-7.464-8.2-7.819-1.223-.252-.069,0-.069,0s-52.775.649-55.22,0-4.473-1.274-4.66-6.129-.165-6.192-.165-6.192c.33-3.245,2.5-5.9,4.824-5.9h59.871c2.325,0,3.948,2.655,3.618,5.9v6.939C335.006,148.875,335.521,152.477,335.006,157.041Z" transform="translate(-170.959 -75.901)" fill="#bab0b0"/>
      <path id="Path_1697" data-name="Path 1697" d="M215.257,191.568c3.02-5.857,4.356-7.99,6.126-8.346,1.267-.252.069,0,.069,0h58.3c1.214-.175,3.768-1.078,3.827-5.9V170.9c.217-3.245-1.5-5.9-3.827-5.9H219.882c-2.325,0-4.4,2.655-4.625,5.9v6.421C214.991,181.9,215.506,187,215.257,191.568Z" transform="translate(-156.089 -80.399)" fill="#bab0b0"/>
      <path id="Path_1699" data-name="Path 1699" d="M278.7,170.6H222.3a1.31,1.31,0,0,1-1.3-1.3h0a1.31,1.31,0,0,1,1.3-1.3h56.4a1.3,1.3,0,0,1,1.3,1.3h0A1.3,1.3,0,0,1,278.7,170.6Z" transform="translate(-157.007 -80.796)" fill="#fff"/>
      <path id="Path_1700" data-name="Path 1700" d="M242.994,176.6H221.3a1.31,1.31,0,0,1-1.3-1.3h0a1.31,1.31,0,0,1,1.3-1.3h21.692a1.31,1.31,0,0,1,1.3,1.3h0a1.31,1.31,0,0,1-1.3,1.3Z" transform="translate(-156.875 -81.59)" fill="#fff"/>
      <path id="Path_1701" data-name="Path 1701" d="M270.185,176.6H256.3a1.3,1.3,0,0,1-1.3-1.3h0a1.3,1.3,0,0,1,1.3-1.3h13.883a1.3,1.3,0,0,1,1.3,1.3h0A1.3,1.3,0,0,1,270.185,176.6Z" transform="translate(-161.506 -81.59)" fill="#fff"/>
      <path id="Path_1702" data-name="Path 1702" d="M287.243,176.6H280.3a1.3,1.3,0,0,1-1.3-1.3h0a1.3,1.3,0,0,1,1.3-1.3h6.942a1.3,1.3,0,0,1,1.3,1.3h0A1.3,1.3,0,0,1,287.243,176.6Z" transform="translate(-164.681 -81.59)" fill="#fff"/>
      <path id="Path_1703" data-name="Path 1703" d="M309.613,137.6H272.3a1.3,1.3,0,0,1-1.3-1.3h0a1.3,1.3,0,0,1,1.3-1.3h37.311a1.3,1.3,0,0,1,1.3,1.3h0A1.3,1.3,0,0,1,309.613,137.6Z" transform="translate(-171.622 -76.43)" fill="#fff"/>
      <path id="Path_1704" data-name="Path 1704" d="M338.317,137.6H325.3a1.3,1.3,0,0,1-1.3-1.3h0a1.3,1.3,0,0,1,1.3-1.3h13.016a1.3,1.3,0,0,1,1.3,1.3h0A1.3,1.3,0,0,1,338.317,137.6Z" transform="translate(-178.634 -76.43)" fill="#fff"/>
      <path id="Path_1705" data-name="Path 1705" d="M286.052,143.6H271.3a1.3,1.3,0,0,1-1.3-1.3h0a1.3,1.3,0,0,1,1.3-1.3h14.751a1.3,1.3,0,0,1,1.3,1.3h0A1.3,1.3,0,0,1,286.052,143.6Z" transform="translate(-171.49 -77.224)" fill="#fff"/>
      <path id="Path_1706" data-name="Path 1706" d="M322.2,143.6H295.3a1.3,1.3,0,0,1-1.3-1.3h0a1.3,1.3,0,0,1,1.3-1.3h26.9a1.3,1.3,0,0,1,1.3,1.3h0A1.3,1.3,0,0,1,322.2,143.6Z" transform="translate(-174.665 -77.224)" fill="#fff"/>
      <path id="Path_1707" data-name="Path 1707" d="M339.508,143.6H334.3a1.3,1.3,0,0,1-1.3-1.3h0a1.3,1.3,0,0,1,1.3-1.3h5.206a1.3,1.3,0,0,1,1.3,1.3h0A1.3,1.3,0,0,1,339.508,143.6Z" transform="translate(-179.825 -77.224)" fill="#fff"/>
    </g>
    <g id="Group_4893" data-name="Group 4893" transform="translate(1827 -3663.513)">
      <ellipse id="Ellipse_182" data-name="Ellipse 182" cx="4.476" cy="9.228" rx="4.476" ry="9.228" transform="translate(-104.668 2645.106) rotate(-7.62)" fill="#fff"/>
      <path id="Path_1442" data-name="Path 1442" d="M562.2,645.062a18.54,18.54,0,0,0,1.509-12.581c-.5-1.969-1.686-6.648-6.033-9.014a11.412,11.412,0,0,0-5.919-1.3q.368,10.225.736,20.451c.258.666.865,2.253,1.6,4.167h8.654Z" transform="translate(-660.3 2019.138)" fill="url(#linear-gradient-2)"/>
      <ellipse id="Ellipse_183" data-name="Ellipse 183" cx="9.228" cy="4.476" rx="9.228" ry="4.476" transform="translate(-175.348 2662.918) rotate(-85.21)" fill="#fff"/>
      <path id="Path_1445" data-name="Path 1445" d="M388.756,642.622l-.265-20.462a11.364,11.364,0,0,0-5.849,1.594c-4.222,2.577-5.179,7.31-5.58,9.3a18.522,18.522,0,0,0,2.128,12.489c-.114.412-.224.828-.335,1.244h8.536C388.016,644.875,388.535,643.292,388.756,642.622Z" transform="translate(-549.697 2019.13)" fill="url(#linear-gradient-2)"/>
      <path id="Path_1446" data-name="Path 1446" d="M459.551,602.864a44.591,44.591,0,0,0-9.033-4.255c-19.071-6.464-37.159,2.05-43.317,5.315a128.459,128.459,0,0,0-.8,18.868c.081,2.621.243,5.153.467,7.623H462.3A119.969,119.969,0,0,0,459.551,602.864Z" transform="translate(-568.407 2035.503)" fill="url(#linear-gradient-4)"/>
      <path id="Path_1447" data-name="Path 1447" d="M462.817,608.455c.217,3.817-11.632,8.293-21.791,9.037-12.611.92-26.58-3.622-26.576-7.708,0-3.905,12.791-7.435,22.59-7.973C448.642,601.174,462.585,604.38,462.817,608.455Z" transform="translate(-573.532 2032.04)" opacity="0.21" fill="url(#linear-gradient-2)"/>
      <path id="Path_1448" data-name="Path 1448" d="M472.275,540.92a42.754,42.754,0,0,0-3.188,7.973,43.19,43.19,0,0,0-1.594,14.356l5.05,2.389a14.981,14.981,0,0,1-29.234,0l4.962-2.3a37.6,37.6,0,0,0-1.064-14.882,37.059,37.059,0,0,0-3.633-8.595Z" transform="translate(-591.769 2071.136)" fill="url(#linear-gradient-2)"/>
      <ellipse id="Ellipse_184" data-name="Ellipse 184" cx="12.751" cy="5.404" rx="12.751" ry="5.404" transform="translate(-86.619 2601.615) rotate(-80.04)" fill="url(#linear-gradient-7)"/>
      <ellipse id="Ellipse_185" data-name="Ellipse 185" cx="5.404" cy="12.751" rx="5.404" ry="12.751" transform="translate(-196.856 2578.37) rotate(-9.96)" fill="url(#linear-gradient-7)"/>
      <path id="Path_1454" data-name="Path 1454" d="M581.734,396.208a30.3,30.3,0,0,0-.928-11.293,26.709,26.709,0,0,0-6.379-3.721,27.636,27.636,0,0,0-14.215-1.726,13.023,13.023,0,0,0-.931,2.256,13.747,13.747,0,0,0-.4,6.258Z" transform="translate(-664.681 2172.664)" fill="url(#linear-gradient-7)"/>
      <path id="Path_1455" data-name="Path 1455" d="M345.711,396.208a30.171,30.171,0,0,1-.133-4.649,30.641,30.641,0,0,1,1.06-6.644,26.707,26.707,0,0,1,6.379-3.721,27.644,27.644,0,0,1,14.219-1.726,13.33,13.33,0,0,1,.928,2.256,13.81,13.81,0,0,1,.4,6.257Z" transform="translate(-529.989 2172.664)" fill="url(#linear-gradient-7)"/>
      <path id="Path_1456" data-name="Path 1456" d="M448.863,494.186q-.957,2.5-1.918,4.988a8.1,8.1,0,0,1-6.118,5.072,221.6,221.6,0,0,1-79.868-.453,8.1,8.1,0,0,1-5.669-4.222l-2.451-4.693a88.191,88.191,0,0,1,96.023-.692Z" transform="translate(-534.6 2108.763)" fill="url(#linear-gradient-11)"/>
      <path id="Path_1457" data-name="Path 1457" d="M440.712,413.8a104.117,104.117,0,0,1-3.335,16.833h0c-.191.67-.368,1.329-.574,1.966a2.967,2.967,0,0,1-2.617,2.105,102.258,102.258,0,0,1-16.06.085,105.326,105.326,0,0,1-17.3-2.72,3.681,3.681,0,0,1-2.54-2.172l-1.4-3.471a4.237,4.237,0,0,0-3.018-2.529,42.33,42.33,0,0,0-18.857,0,4.218,4.218,0,0,0-3.029,2.529c-.471,1.148-.939,2.308-1.406,3.456a3.681,3.681,0,0,1-2.551,2.19,105.09,105.09,0,0,1-17.282,2.72,102.32,102.32,0,0,1-16.063-.085,2.97,2.97,0,0,1-2.613-2.105c-.236-.766-.467-1.561-.7-2.382a103.508,103.508,0,0,1-3.828-30.551,4.233,4.233,0,0,1,2.105-3.552,61.579,61.579,0,0,1,15.254-6.228l2.488-3.828a4.484,4.484,0,0,1,2.691-1.914,156.716,156.716,0,0,1,68.722,0,4.454,4.454,0,0,1,2.687,1.914l2.488,3.828a61.893,61.893,0,0,1,15.246,6.221,4.193,4.193,0,0,1,2.094,3.552A103.116,103.116,0,0,1,440.712,413.8Z" transform="translate(-518.59 2171.949)" fill="url(#linear-gradient-12)"/>
      <ellipse id="Ellipse_186" data-name="Ellipse 186" cx="14.617" cy="15.235" rx="14.617" ry="15.235" transform="matrix(0.991, -0.133, 0.133, 0.991, -120.059, 2566.984)" fill="#8a003c" opacity="0.31"/>
      <ellipse id="Ellipse_187" data-name="Ellipse 187" cx="14.617" cy="15.235" rx="14.617" ry="15.235" transform="matrix(0.991, -0.133, 0.133, 0.991, -181.384, 2566.982)" fill="#8a003c" opacity="0.31"/>
      <ellipse id="Ellipse_188" data-name="Ellipse 188" cx="14.617" cy="15.235" rx="14.617" ry="15.235" transform="matrix(0.991, -0.133, 0.133, 0.991, -121.651, 2567.687)" fill="url(#radial-gradient)"/>
      <ellipse id="Ellipse_189" data-name="Ellipse 189" cx="15.235" cy="14.617" rx="15.235" ry="14.617" transform="matrix(0.133, -0.991, 0.991, 0.133, -180.013, 2593.985)" fill="url(#radial-gradient-2)"/>
      <g id="Group_647" data-name="Group 647" transform="translate(-135.192 2554.922)" opacity="0.47">
        <path id="Path_1458" data-name="Path 1458" d="M480.975,425.787s-.026-.147-.07-.423-.118-.685-.191-1.2c-.155-1.042-.368-2.525-.552-4.314-.1-.894-.2-1.866-.284-2.893s-.177-2.113-.243-3.235-.136-2.282-.173-3.464-.077-2.385-.1-3.581,0-2.4,0-3.581.044-2.345.077-3.467c.077-2.249.2-4.347.368-6.14s.305-3.287.434-4.329.217-1.634.217-1.634v1.649c0,1.049-.022,2.544-.037,4.34s0,3.887-.026,6.129v3.456c0,1.178,0,2.367.041,3.563s.033,2.389.059,3.567.055,2.33.085,3.453c.07,2.238.14,4.332.2,6.125s.122,3.291.158,4.336S480.975,425.787,480.975,425.787Z" transform="translate(-479.353 -387.52)" fill="#501d00"/>
      </g>
      <path id="Path_1459" data-name="Path 1459" d="M547.676,447.5H531.532l-2.172,2.628,2.172,2.628h16.144l2.175-2.628Z" transform="translate(-644.68 2131.115)" fill="#99e6ff" fill-rule="evenodd"/>
      <circle id="Ellipse_190" data-name="Ellipse 190" cx="2.606" cy="2.606" r="2.606" transform="translate(-183.266 2557.815)" fill="#663743" opacity="0.25"/>
      <path id="Path_1463" data-name="Path 1463" d="M353.759,397.346a2.61,2.61,0,1,1-2.606-2.606A2.61,2.61,0,0,1,353.759,397.346Z" transform="translate(-531.883 2162.839)" fill="url(#linear-gradient-13)"/>
      <path id="Path_1465" data-name="Path 1465" d="M594.615,439.68l.1.2c.063.132.155.324.254.574a14.164,14.164,0,0,1,.7,2.131,13.924,13.924,0,0,1,.28,1.472,14.58,14.58,0,0,1,.052,3.478l-.055.46-.077.46c-.051.3-.1.6-.18.913a15.053,15.053,0,0,1-.545,1.789,14.577,14.577,0,0,1-.736,1.645,13.86,13.86,0,0,1-.861,1.447c-.147.221-.294.434-.449.633s-.3.394-.453.57a11.86,11.86,0,0,1-.846.942c-.265.269-.5.493-.707.674s-.368.313-.478.4l-.173.136s.217-.217.578-.615c.184-.2.4-.442.63-.736s.493-.622.758-.994c.133-.188.269-.368.4-.589s.272-.42.4-.644.269-.456.4-.7.254-.49.368-.736a15.893,15.893,0,0,0,.674-1.612,14.681,14.681,0,0,0,.508-1.723c.077-.287.129-.593.184-.894l.081-.442.055-.442a15.868,15.868,0,0,0,.121-1.745,17.242,17.242,0,0,0-.239-3.1,18.08,18.08,0,0,0-.493-2.157C594.715,439.971,594.615,439.68,594.615,439.68Z" transform="translate(-684.736 2134.441)" fill="#fff"/>
      <path id="Path_1466" data-name="Path 1466" d="M359.78,439.32s-.088.3-.221.821a18.493,18.493,0,0,0-.416,2.183c-.066.453-.1.95-.14,1.472a12.926,12.926,0,0,0,0,1.645,17.017,17.017,0,0,0,.155,1.748l.066.445c.018.133.059.295.085.442.063.3.114.607.2.894a16.367,16.367,0,0,0,.523,1.726c.21.56.431,1.1.681,1.62.122.258.247.508.368.736s.258.479.4.7.265.445.4.651.265.4.4.593a19.746,19.746,0,0,0,1.373,1.752c.368.4.571.626.571.626s-.247-.188-.644-.556a15.019,15.019,0,0,1-1.542-1.638,13.691,13.691,0,0,1-.894-1.215c-.151-.221-.295-.456-.438-.7s-.283-.5-.42-.755a14.642,14.642,0,0,1-.736-1.649,16.6,16.6,0,0,1-.563-1.789c-.085-.309-.133-.611-.191-.913-.026-.155-.059-.291-.085-.46l-.063-.46a15.157,15.157,0,0,1-.114-1.8,14.632,14.632,0,0,1,.081-1.69c.063-.534.136-1.034.236-1.491a12.027,12.027,0,0,1,.309-1.233c.11-.368.213-.677.305-.931s.177-.449.232-.585Z" transform="translate(-538.194 2134.668)" fill="#fff"/>
      <path id="Path_1467" data-name="Path 1467" d="M375.82,437.812v8.794l1.432,1.185,1.436-1.185v-8.794l-1.436-1.182Z" transform="translate(-547.657 2137.984)" fill="#99e6ff" fill-rule="evenodd"/>
      <path id="Path_1468" data-name="Path 1468" d="M413.37,437.812v8.794l1.432,1.185,1.432-1.185v-8.794L414.8,436.63Z" transform="translate(-571.385 2137.984)" fill="#99e6ff" fill-rule="evenodd"/>
      <path id="Path_1469" data-name="Path 1469" d="M384.512,469.534h8.794l1.182-1.432-1.182-1.432h-8.794L383.33,468.1Z" transform="translate(-552.402 2119.002)" fill="#99e6ff" fill-rule="evenodd"/>
      <path id="Path_1470" data-name="Path 1470" d="M384.512,431.994h8.794l1.182-1.432-1.182-1.432h-8.794l-1.182,1.432Z" transform="translate(-552.402 2142.724)" fill="#99e6ff" fill-rule="evenodd"/>
      <circle id="Ellipse_191" data-name="Ellipse 191" cx="17.315" cy="17.315" r="17.315" transform="translate(-181.208 2563.104)" fill="url(#radial-gradient-3)"/>
      <circle id="Ellipse_192" data-name="Ellipse 192" cx="17.315" cy="17.315" r="17.315" transform="matrix(0.234, -0.972, 0.972, 0.234, -126.031, 2593.609)" fill="url(#radial-gradient-3)"/>
      <path id="Path_1475" data-name="Path 1475" d="M444,502.071c-.191.67-.368,1.329-.574,1.966a2.967,2.967,0,0,1-2.617,2.106,102.273,102.273,0,0,1-16.06.085,105.339,105.339,0,0,1-17.3-2.72,3.681,3.681,0,0,1-2.54-2.172l-1.4-3.471a4.237,4.237,0,0,0-3.018-2.529,42.329,42.329,0,0,0-18.857,0,4.218,4.218,0,0,0-3.029,2.529c-.471,1.148-.939,2.308-1.406,3.456a3.681,3.681,0,0,1-2.551,2.19,105.1,105.1,0,0,1-17.282,2.72,102.32,102.32,0,0,1-16.063-.085,2.971,2.971,0,0,1-2.613-2.105c-.236-.766-.467-1.561-.7-2.382.107.085.213.162.32.236,2.974,2.032,6.228,2.742,14.882,2.658,12.714-.14,19.141-.276,22.671-3.9,1.756-1.8,2-3.2,3.28-4.84h0a4.005,4.005,0,0,1,1.7-1.1c4.347-1.435,10.719-1.329,10.719-1.329,4.108.066,7.627.283,10.454,1.594a7.836,7.836,0,0,1,1.421.828c2.275,1.667,2.676,4.222,3.276,4.84,3.53,3.626,9.96,3.762,22.674,3.9C437.779,504.648,441.084,503.967,444,502.071Z" transform="translate(-525.216 2100.51)" fill="#bab0b0" fill-rule="evenodd" opacity="0.31"/>
      <g id="Group_650" data-name="Group 650" transform="translate(-97.295 2557.597)" opacity="0.21">
        <path id="Path_1476" data-name="Path 1476" d="M594.269,402.277l-1.145-.4-1.145-.379c-.766-.261-1.531-.512-2.3-.758s-1.535-.475-2.312-.692l-1.16-.324-1.167-.3-.1-.026-.052-.085c-.453-.736-.894-1.472-1.329-2.234-.217-.368-.431-.755-.637-1.134s-.42-.762-.615-1.148c.269.342.523.692.777,1.045s.512.7.758,1.056c.5.71.986,1.425,1.472,2.15l-.177-.125c.4.085.8.177,1.189.276s.788.2,1.178.317q1.171.342,2.315.736c.762.261,1.52.585,2.26.92S593.562,401.879,594.269,402.277Z" transform="translate(-582.31 -394.79)" fill="#501d00"/>
      </g>
      <g id="Group_651" data-name="Group 651" transform="translate(-182.938 2557.439)" opacity="0.21">
        <path id="Path_1477" data-name="Path 1477" d="M349.64,401.873q1.06-.6,2.172-1.1c.736-.335,1.472-.644,2.256-.92s1.539-.526,2.319-.755c.39-.114.784-.214,1.178-.317s.788-.191,1.185-.276l-.151.111c.475-.736.964-1.439,1.472-2.15.247-.368.5-.71.758-1.056s.512-.7.78-1.045c-.2.387-.409.766-.618,1.145s-.42.762-.637,1.137c-.431.736-.876,1.495-1.329,2.234l-.048.081-.1.029-1.167.3-1.163.324c-.777.213-1.542.453-2.312.692s-1.531.5-2.293.758l-1.145.4Z" transform="translate(-349.64 -394.36)" fill="#501d00"/>
      </g>
      <path id="Path_1478" data-name="Path 1478" d="M355.121,396.179c.18.033.144,1.2-.033,2.161s-.582,2.128-.762,2.091-.143-1.2.033-2.157S354.941,396.146,355.121,396.179Z" transform="translate(-535.464 2161.93)" fill="#663743" fill-rule="evenodd" opacity="0.25"/>
      <path id="Path_1479" data-name="Path 1479" d="M460.111,666.7a14.7,14.7,0,0,0-13.2,8.237l26.408,0a14.7,14.7,0,0,0-13.2-8.234Z" transform="translate(-594.042 1990.985)" fill="#bab0b0"/>
      <path id="Path_1480" data-name="Path 1480" d="M465.624,673.63a12.147,12.147,0,0,0-10.284,5.683h20.569A12.147,12.147,0,0,0,465.624,673.63Z" transform="translate(-599.371 1986.606)" fill="#f1f3f4"/>
      <path id="Path_1483" data-name="Path 1483" d="M476.736,604.11a13.432,13.432,0,0,1-3.313,5.845c-1.009,1.031-3.773,3.846-7.174,3.589-5.481-.416-8.385-8.466-7.84-8.9s4.3,6.766,9.57,6.644C471.593,611.2,474.568,607.684,476.736,604.11Z" transform="translate(-601.269 2030.536)" fill="#0462fe"/>
      <g id="Group_652" data-name="Group 652" transform="translate(-135.44 2665.286)" opacity="0.4">
        <path id="Path_1486" data-name="Path 1486" d="M479.954,687.35a1.645,1.645,0,0,0-1.273.633h2.551A1.646,1.646,0,0,0,479.954,687.35Z" transform="translate(-478.68 -687.35)" fill="#ffc5a8"/>
      </g>
      <path id="Path_1487" data-name="Path 1487" d="M481.164,687.35a1.646,1.646,0,0,0-1.273.633h2.551A1.653,1.653,0,0,0,481.164,687.35Z" transform="translate(-614.884 1977.936)" fill="url(#linear-gradient-14)"/>
    </g>
  </g>
</svg>
