<svg xmlns="http://www.w3.org/2000/svg" xmlns:xlink="http://www.w3.org/1999/xlink" width="610.753" height="491.499" viewBox="0 0 610.753 491.499">
  <defs>
    <linearGradient id="linear-gradient" x1="0.89" y1="0.956" x2="0" y2="0.14" gradientUnits="objectBoundingBox">
      <stop offset="0" stop-color="#bab0b0"/>
      <stop offset="0.389" stop-color="#e0e9f9"/>
      <stop offset="0.611" stop-color="#eaf2ff"/>
      <stop offset="1" stop-color="#f1f3f4"/>
    </linearGradient>
    <linearGradient id="linear-gradient-2" x1="-0.052" y1="0.122" x2="0.987" y2="0.885" xlink:href="#linear-gradient"/>
  </defs>
  <g id="Group_6146" data-name="Group 6146" transform="translate(-11086 2492)">
    <g id="Group_4695" data-name="Group 4695" transform="translate(10979 -2647)">
      <g id="Group_4679" data-name="Group 4679" transform="translate(107 155)">
        <g id="Group_4648" data-name="Group 4648">
          <g id="Group_4461" data-name="Group 4461">
            <path id="Path_10460" data-name="Path 10460" d="M2455.53,565.67q1.453,5.089,3.177,10.1c21.311,61.948,119.9,174.378,186.157,96.45,12.259-14.42,20.576-31.514,35.262-43.562a137.081,137.081,0,0,1,47.688-25.182c23.573-7.023,45.814-2.921,69.356-5.2,49.078-4.742,95.562-17.345,130.887-53.872,34.852-36.038,53.065-85.394,48.7-133.621a151.606,151.606,0,0,0-17.294-57.985q-1.687-3.157-3.519-6.236c-17.746-29.851-44.927-54.806-76.47-69.458-36.563-16.985-74.326-14.1-113.328-9.592-29.585,3.415-61.418,5.768-89.382-6.561-14.416-6.356-28.37-14.211-41.88-22.229-13.728-8.149-25.776-18.932-40.682-25.407-24.441-10.616-50.045-7.034-71.243,8.973-102.824,77.646-99.337,231.632-67.427,343.382" transform="translate(-2366.643 -207.266)" fill="url(#linear-gradient)"/>
            <path id="Path_10461" data-name="Path 10461" d="M2912.93,675.792c-13.813,33.76-45.948,58.493-85.933,56.759-54.324-2.355-100.11-43.687-144.576-70.32-11.071-6.632-22.438-12.918-34.492-17.594-27.189-10.549-60.878-8.018-87.9,2.023-22.809,8.476-43.354,28.8-62.437,43.718-29.615,23.151-74.472,19.4-106.009,1.11-84.44-48.973-95.881-181.392-34.552-252.8,81.767-95.212,225.489-101.565,335.345-57.551,59.438,23.815,112.784,63.023,154.888,111.126,33.048,37.756,67.618,85.041,72.548,136.983a98.4,98.4,0,0,1-6.884,46.549" transform="translate(-2318.283 -266.03)" fill="url(#linear-gradient-2)"/>
          </g>
        </g>
        <path id="Path_10728" data-name="Path 10728" d="M2857.99,240.7a138.071,138.071,0,0,0-35.732-21.941,214.577,214.577,0,0,0-41.508-12.888c-20.462-4.27-41.306-4.016-63.711.779-18.03,3.858-37.157,10.654-60.2,21.391-21.4,9.97-53.46,23.619-84.735,27.035-22.357,2.439-50.177,5.476-75.4,13.068-27.765,8.357-49.085,21.2-65.183,39.261-1.982,2.227-3.875,4.488-5.625,6.722a122.317,122.317,0,0,0-12.183,18.866q3.688-3.9,7.555-7.572,3.087-4.831,6.749-9.518c1.714-2.189,3.569-4.4,5.513-6.588,28.217-31.659,69.646-42.254,108.4-47.773,10.459-1.49,20.724-2.612,30.481-3.676q2.537-.277,5.074-.638c30.009-4.277,60.075-17.114,80.49-26.629,34.809-16.22,76.553-31.514,122.256-21.978,41.491,8.66,110.666,34.376,107.749,109.335-1.04,26.777-14.017,45.744-28.167,65.439q-.817,1.134-1.635,2.273c-2.511,3.488-5.109,7.1-7.648,10.757-12.728,18.335-23.3,39.253-33.273,65.827-6.232,16.608-11.687,33.944-16.963,50.709-2.905,9.234-5.909,18.78-9.031,28.176-2.7,8.129-5.608,16.346-8.822,24.473-16.421,41.563-40.8,80.772-86.252,94.006-27.776,8.085-60.556,5.717-97.429-7.039-32.65-11.3-63.586-29.816-91-53.954q-.882.18-1.769.339.886-.159,1.769-.339a327.437,327.437,0,0,1-71.91-91.368c-27.625-51.72-51.542-124-14.574-181.834q-3.866,3.672-7.555,7.572c-11.825,22.658-16.225,48.789-13.1,77.976,3.22,30,14.27,62.843,32.85,97.625a340.9,340.9,0,0,0,30.814,47.674,322.77,322.77,0,0,0,38.281,41.538q.808.736,1.621,1.461.888-.142,1.774-.3-.885.159-1.774.3c28.443,25.465,59.97,44.292,93.734,55.97,30.45,10.535,58.19,14.069,82.728,10.574a117.586,117.586,0,0,0,16.3-3.493,106.6,106.6,0,0,0,35.869-18.375,133.271,133.271,0,0,0,26.782-28.682c10.789-15.348,19.078-32.863,25.383-48.714,3.548-8.915,6.467-17.3,8.852-24.478,3.129-9.417,6.135-18.977,9.044-28.221,5.266-16.729,10.708-34.026,16.914-50.564,9.887-26.35,20.359-47.072,32.95-65.213,2.527-3.64,5.118-7.238,7.621-10.717.453-.632.91-1.264,1.361-1.894,14.513-20.185,27.892-39.571,28.972-67.367C2891.93,286.662,2880.92,260.624,2857.99,240.7Z" transform="translate(-2337.561 -182.354)" fill="#fff"/>
      </g>
    </g>
    <g id="Group_6138" data-name="Group 6138" transform="translate(19.377 -1787)">
      <g id="Group_5736" data-name="Group 5736">
        <g id="Group_5735" data-name="Group 5735" transform="translate(64 77)">
          <path id="Rectangle_1012" data-name="Rectangle 1012" d="M21.161,0H160.776a21.426,21.426,0,0,1,21.161,21.682V354.833a21.426,21.426,0,0,1-21.161,21.682H21.161A21.426,21.426,0,0,1,0,354.832V21.682A21.426,21.426,0,0,1,21.161,0Z" transform="translate(11237.388 -725)" fill="#213458"/>
          <path id="Path_11118" data-name="Path 11118" d="M18.579,0H161.513a18.58,18.58,0,0,1,18.58,18.58v334.96a18.579,18.579,0,0,1-18.579,18.579H18.579A18.579,18.579,0,0,1,0,353.539V18.579A18.579,18.579,0,0,1,18.579,0Z" transform="translate(11235.101 -720.604)" fill="#4285f4" stroke="#34a853" stroke-width="0.2"/>
          <path id="Path_11117" data-name="Path 11117" d="M1.627,0h158.42a1.627,1.627,0,0,1,1.627,1.627V291.789a1.627,1.627,0,0,1-1.627,1.627H1.627A1.627,1.627,0,0,1,0,291.788V1.627A1.627,1.627,0,0,1,1.627,0Z" transform="translate(11244.5 -683.06)" fill="#fff" stroke="#d5d5d5" stroke-width="0.2"/>
          <path id="Path_7953" data-name="Path 7953" d="M10.351,3.989a1.995,1.995,0,1,1,0-3.989H47.3a1.995,1.995,0,1,1,0,3.989ZM3.7,0a1.995,1.995,0,1,1,0,3.989H2A1.995,1.995,0,0,1,2,0Z" transform="translate(11300.5 -700.987)" fill="#fff" fill-rule="evenodd"/>
          <path id="Path_7954" data-name="Path 7954" d="M13.051,26.1A13.05,13.05,0,1,0,0,13.051,13.05,13.05,0,0,0,13.051,26.1Z" transform="translate(11312.097 -382.859)" fill="#fff" fill-rule="evenodd"/>
          <g id="Group_1705" data-name="Group 1705" transform="translate(11254.628 -675.426)">
            <path id="Path_7967" data-name="Path 7967" d="M.483.97a.485.485,0,1,1,0-.97H11.1a.485.485,0,0,1,0,.97Zm0,6.971a.483.483,0,0,1,0-.966H11.1a.483.483,0,1,1,0,.966Zm0-3.485a.485.485,0,1,1,0-.97H11.1a.485.485,0,0,1,0,.97Z" transform="translate(0.003 0)" fill="#4285f4" fill-rule="evenodd"/>
            <path id="Path_7968" data-name="Path 7968" d="M14.234.433ZM1.472.966H7.7V5.983H1.472a.489.489,0,0,1-.353-.147.5.5,0,0,1-.152-.353V1.472A.506.506,0,0,1,1.472.966ZM13.194,0H1.472A1.477,1.477,0,0,0,0,1.472v4.01A1.477,1.477,0,0,0,1.472,6.953H13.194a1.469,1.469,0,0,0,1.007-.4l.033-.03a1.472,1.472,0,0,0,.432-1.04V1.472A1.475,1.475,0,0,0,13.194,0Z" transform="translate(126.372 0.494)" fill="#4285f4" fill-rule="evenodd"/>
          </g>
        </g>
        <g id="Group_5733" data-name="Group 5733" transform="translate(11122.623 -394.224)">
          <g id="Group_2239" data-name="Group 2239" transform="translate(24.078 95.971)">
            <path id="Path_8960" data-name="Path 8960" d="M1279.669,902.1l-10.485.515c-.552.017-2.635-.64-2.817-1.162l-2.9-6.8-1.848,5.975-.247,9.336,18.645-.927Z" transform="translate(-1256.488 -886.875)" fill="#f4d37e"/>
            <path id="Path_8961" data-name="Path 8961" d="M1279.457,909.931s4.579,1.362,7.347-1.724c.453-.5-.185-.557-.82-.773-1.406-.479-2.669-4.179-3.75-6.449-2.646-5.559-.4-6.173-.8-8.928-.8-5.445-6.574-6.369-6.574-6.369Z" transform="translate(-1274.326 -885.151)" fill="#444"/>
            <path id="Path_8964" data-name="Path 8964" d="M1279.329,910.3c3.975,1.521,7.73-1.682,7.888-1.819a.533.533,0,0,0-.043-.839c-2.182-1.533-3.623-4-5.145-8.815-.861-2.723-.664-3.539-.415-4.573a8.5,8.5,0,0,0,.231-3.257c-.4-4.1-6.516-5.879-6.777-5.953a.534.534,0,0,0-.67.613L1279,909.9a.5.5,0,0,0,.027.1.533.533,0,0,0,.3.3Zm1.453-19.2a7.475,7.475,0,0,1-.206,2.9c-.264,1.1-.516,2.14.435,5.144,1.469,4.642,2.9,7.233,4.971,8.929-1.054.725-3.506,2.109-5.995,1.323l-4.368-23.04c1.59.612,4.91,2.179,5.16,4.744Z" transform="translate(-1274.388 -885.024)" fill="#444"/>
          </g>
          <path id="Path_8965" data-name="Path 8965" d="M1244.522,891.535c0,4.788,2.9,13.526-1.033,16.255-4.006,2.779-17.842,1.634-26.713.28a58.707,58.707,0,0,0-17.6-.449c-6.463.808-8.079.808-16.159,1.616-20.606,2.061-32.317,2.383-32.317-2.424,0-3.232,0-5.655,8.887-6.463,12.471-1.134,12.119-1.616,21.814-3.232,1.8-.3,29.552-10.843,51.394-4.848l10.562-.8Z" transform="translate(-1108.531 -790.091)" fill="#d23c30"/>
          <g id="Group_2243" data-name="Group 2243" transform="translate(38.975 103.351)">
            <g id="Group_2242" data-name="Group 2242" transform="translate(10.599)">
              <path id="Path_8967" data-name="Path 8967" d="M1246.506,894.158s-9.813,10.857-10.344,11.014l-6.374,2.14,6.965.936,6.955,2.085.589-5.3.5-.441,1.016-.893,7.525-6.607Z" transform="translate(-1229.788 -894.158)" fill="#f4d37e"/>
            </g>
            <path id="Path_8970" data-name="Path 8970" d="M1264.42,915.661l.158-.24c.026-.039,2.52-3.906-.2-7.458a1.218,1.218,0,0,0-1.024-.506,1.535,1.535,0,0,0-1.174.858c-.6,1.066-3.373,1.921-5.715,1.748-2.405-.17-3.724-.309-4.781-.42a46.83,46.83,0,0,0-4.738-.3h-.207c-5.662,0-7.763,5.576-7.784,5.632l-.262.718Zm-17.5-5.255a46.308,46.308,0,0,1,4.651.3c1.067.112,2.4.253,4.818.424,2.525.184,5.822-.7,6.72-2.287.132-.233.272-.315.32-.318.008,0,.047.021.1.089a5.45,5.45,0,0,1,.3,5.981l-23.533.024a7.392,7.392,0,0,1,6.449-4.213A.857.857,0,0,1,1246.92,910.406Z" transform="translate(-1238.693 -896.712)" fill="#444"/>
            <path id="Path_8971" data-name="Path 8971" d="M1264.014,915.254s2.341-3.548-.178-6.841c-.412-.538-.979-.292-1.308.292-.731,1.293-3.711,2.2-6.219,2.017-5.614-.4-5.347-.625-9.492-.723-5.5-.132-7.477,5.28-7.477,5.28Z" transform="translate(-1238.572 -896.839)" fill="#444"/>
          </g>
          <g id="Group_2245" data-name="Group 2245" transform="translate(92.022 54.075)">
            <path id="Path_8975" data-name="Path 8975" d="M1195.112,833.506a1.4,1.4,0,0,0-2.2.505c-1.7,3.585-6.692,13.9-9.387,17.589-3.285,4.5-20.453-3.329-25.872-.9s-3.969,5.29.394,6.093c8.013,1.474,25.31,6.493,29,4.245C1190.432,858.981,1199.7,837.852,1195.112,833.506Z" transform="translate(-1154.149 -833.166)" fill="#fea507"/>
          </g>
          <g id="Group_2246" data-name="Group 2246" transform="translate(84.487 71.392)">
            <path id="Path_8977" data-name="Path 8977" d="M1213,856.12s-2.79-2.7-5.688-.9-6.7,4.967-5.53,5.73,8.311-1.534,9.813-2.833S1213,856.12,1213,856.12Z" transform="translate(-1201.569 -854.601)" fill="#f4d37e"/>
          </g>
          <path id="Path_8979" data-name="Path 8979" d="M1131.615,890.808c9.96-8.691,19.8-25.718,30.07-29.732,7.645-2.989,30.545,17.556,36.1,22.145l8.454-3.377,17.774,2.424s3.819,18.106-5.876,20.53c-6.246,1.562-16.476,1.122-24.555-.494-5.768-1.154-14-9.533-14-9.533L1165.4,878.979a2.875,2.875,0,0,0-3.745.225c-3.029,3.5-12,10.337-17.575,13.686-4.9,2.945-6.982,5.4-10.317,2.945C1131.964,894.52,1130.295,891.963,1131.615,890.808Z" transform="translate(-1071.93 -784.396)" fill="#ea4335"/>
          <path id="Path_8984" data-name="Path 8984" d="M1150.989,786.9a10.346,10.346,0,0,0-8.458,10.054c-.162,6.55.443,20.748,7.457,20.214,2.846-.216,2.269,2.4,2.179,3.939a20.936,20.936,0,0,1-1.264,5.6s5.661,4.794,8.407,1.164,4.2-4.363,4.2-4.363-2.913-5.35-3.021-9.875a14.75,14.75,0,0,1,1.106-6.174C1162.839,804.379,1162.479,785.043,1150.989,786.9Z" transform="translate(-1019.871 -770.182)" fill="#f4d37e"/>
          <path id="Path_8986" data-name="Path 8986" d="M1134.824,832.121s-1.76,2.6-5.38,8.9c-3.117,5.424-.564,7.4.153,8.56,1.815,2.932,1.4,3.546,1.535,5.673.624,9.725-1.067,19.788-2.1,20.922,0,0,25.709,3.638,29.5.873,0,0-5.687-20.689-1.558-38.2,1.4-5.916-10.215-12.008-10.215-12.008S1135.184,838.335,1134.824,832.121Z" transform="translate(-1003.115 -777.877)" fill="#f9b234"/>
          <path id="Path_8987" data-name="Path 8987" d="M1135.163,860.83s6.171,10.481,6.245,14.753,1.119,5.486,4.155,4.827,8.593-.906,10.059,1.372a13.187,13.187,0,0,0,2.853,3.3l-25.447-1.849s2.437-6.913,1.632-11.558S1135.163,860.83,1135.163,860.83Z" transform="translate(-1007.175 -784.406)" fill="#f9b234" opacity="0.5"/>
          <path id="Path_8990" data-name="Path 8990" d="M1203.617,820.245s7.482,30.009,9.839,31.167l-9.842,2.5s-10.236-31.479-8.019-32.9Z" transform="translate(-1112.452 -776.61)" fill="#fff"/>
          <path id="Path_8991" data-name="Path 8991" d="M1203.433,854.215a.418.418,0,0,0,.1-.012l9.843-2.5a.4.4,0,0,0,.078-.755c-1.594-.783-6.749-19.369-9.625-30.9a.41.41,0,0,0-.43-.3l-8.023.758a.4.4,0,0,0-.18.062c-2.3,1.48,5.429,25.916,7.853,33.37a.4.4,0,0,0,.384.277Zm9.1-3.129-8.834,2.24c-4.783-14.752-9.049-30.523-8.1-32.032l7.531-.711C1204.463,825.906,1209.883,847.138,1212.533,851.086Z" transform="translate(-1112.274 -776.514)" fill="#444"/>
          <path id="Path_8992" data-name="Path 8992" d="M1205.785,827.078c.036,0,3.456-.3,3.456-.3a.4.4,0,0,0,.367-.438.413.413,0,0,0-.438-.367l-3.419.3a.4.4,0,0,0,.035.806Z" transform="translate(-1116.753 -777.709)" fill="#444"/>
          <path id="Path_8993" data-name="Path 8993" d="M1204.417,831.889h2.943a.4.4,0,1,0,0-.808h-2.943a.4.4,0,0,0,0,.808Z" transform="translate(-1113.816 -778.692)" fill="#444"/>
          <path id="Path_8994" data-name="Path 8994" d="M1203.344,835.808h2.806a.4.4,0,1,0,0-.808h-2.806a.4.4,0,0,0,0,.808Z" transform="translate(-1111.738 -779.444)" fill="#444"/>
          <g id="Group_2253" data-name="Group 2253" transform="translate(88.908 60.54)">
            <path id="Path_8995" data-name="Path 8995" d="M1203.336,851.975s-3.787-3.788-6.311-3.788-8.743-2.225-8.976-2.692c-.663-1.327-1.159-3.935.3-4.194,4.206-.746,12.318,1.907,12.9,2.486,1.263,1.262,4.616,5.663,4.616,5.663Z" transform="translate(-1187.401 -841.17)" fill="#f4d37e"/>
          </g>
          <path id="Path_8997" data-name="Path 8997" d="M1152.328,864.293s11.607,8.045,18.628-1.78c5.366-7.51,18.114-22.014,14.346-27.218s-9.011-6.678-14.607.679-8.7,18.6-12.669,18.442-11.658-6.784-15.476-10.727c-3.245-3.351-7.852-.048-9.328,3.683S1138.868,854.4,1152.328,864.293Z" transform="translate(-1034.69 -778.661)" fill="#fcbb46"/>
          <path id="Path_9002" data-name="Path 9002" d="M1113.841,792.352c1.437-3,3.647-3.369,4.784-5.436,1.932-3.515,5.127-3.5,9.411-3.5,8.722-.01,14.319,5.458,15.422,10.045,1.659,6.9.589,5.491,4.21,9.514s6.955,3.383,7.86,12.891c.453,4.752-1.207,6.924,1.131,10.636,3.469,5.507,5.507,10.411,2.716,16.748-2.433,5.525,1.852,6.564-1.093,12s-6.829,6.563-11.354,2.489-8.147-4.074-7.226-12.807c.611-5.792-7.258-4.846-5.448-12.669,1.607-6.944-9.578-9.394-2.751-15.951,1.025-.984.469-3.216-.756-4.437-1.063-1.06-4.113-1.374-2.333-6.24.744-2.035-3.257-3.684-4.539-3.411-2,.427-2-3.585-6.484-.977C1114.221,803.082,1111.331,797.589,1113.841,792.352Z" transform="translate(-993.11 -769.536)" fill="#444"/>
          <path id="Path_9003" data-name="Path 9003" d="M1152.864,860.508c2.172-.374,4.108-2.1,5.755-5.14a7.722,7.722,0,0,0,.751-6.493,7.346,7.346,0,0,1,.361-5.542c2.778-6.311,1.007-11.279-2.753-17.248-1.4-2.226-1.274-3.8-1.1-5.986a23.721,23.721,0,0,0,.047-4.418c-.683-7.174-2.8-8.824-5.243-10.735a20.051,20.051,0,0,1-2.752-2.461l-.438-.486c-2.3-2.544-2.3-2.544-2.874-5.31-.179-.86-.413-1.975-.777-3.487-1.22-5.07-7.21-10.454-16.011-10.454-4.322.006-7.734.01-9.809,3.781a6.771,6.771,0,0,1-1.843,1.962,9.622,9.622,0,0,0-2.954,3.5c-1.761,3.675-.992,7.552.768,9.178a2.842,2.842,0,0,0,3.532.4c2.484-1.447,3.282-.685,4.125.119a2.361,2.361,0,0,0,2.2.918,5.192,5.192,0,0,1,3.6,1.542,1.076,1.076,0,0,1,.322,1.164c-1.561,4.267.4,5.471,1.7,6.268a4.476,4.476,0,0,1,.759.533,3.93,3.93,0,0,1,1.134,2.63,1.461,1.461,0,0,1-.371,1.045c-4.208,4.043-2.03,6.792.078,9.452,1.555,1.963,3.164,3.994,2.523,6.762-1.066,4.612,1.062,6.438,2.941,8.049,1.471,1.263,2.741,2.352,2.5,4.684-.751,7.115,1.5,8.769,4.62,11.058a34.066,34.066,0,0,1,2.78,2.2,8.5,8.5,0,0,0,5.527,2.585,5.336,5.336,0,0,0,.9-.07Zm-29.235-58.943c-.444.1-.729-.157-1.241-.646-.937-.893-2.22-2.12-5.4-.27a1.785,1.785,0,0,1-2.269-.263c-1.475-1.361-2.078-4.7-.53-7.931a8.593,8.593,0,0,1,2.667-3.136,7.736,7.736,0,0,0,2.1-2.273c1.77-3.22,4.6-3.224,8.969-3.228,8.157,0,13.752,4.961,14.877,9.635.359,1.5.591,2.6.769,3.456.626,2.991.684,3.1,3.127,5.807l.436.484a21.134,21.134,0,0,0,2.89,2.589c2.344,1.831,4.2,3.276,4.835,10a22.723,22.723,0,0,1-.048,4.23c-.179,2.207-.331,4.115,1.26,6.641,3.666,5.82,5.279,10.344,2.678,16.248a8.432,8.432,0,0,0-.42,6.226,6.673,6.673,0,0,1-.652,5.729c-1.483,2.734-3.164,4.28-5,4.6-1.682.291-3.549-.465-5.531-2.251a35.625,35.625,0,0,0-2.863-2.27c-3.04-2.231-4.876-3.58-4.19-10.084.3-2.89-1.306-4.271-2.863-5.607-1.808-1.551-3.517-3.016-2.6-7,.756-3.268-1.095-5.6-2.728-7.666-2.058-2.6-3.683-4.649-.173-8.019a2.463,2.463,0,0,0,.7-1.8,4.583,4.583,0,0,0-2.4-4.084c-1.239-.759-2.518-1.544-1.255-4.991a2.136,2.136,0,0,0-.519-2.231,6.512,6.512,0,0,0-4.2-1.926,2.056,2.056,0,0,0-.426.031Z" transform="translate(-992.982 -769.409)" fill="#444"/>
          <g id="Group_2256" data-name="Group 2256" transform="translate(0)">
            <path id="Path_9004" data-name="Path 9004" d="M1276.96,766.563h-28.951c-13.455,0-24.463,10.241-24.463,22.759s11.008,22.758,24.463,22.758h31.121c.681,0,1.354-.033,2.021-.09,2.089,2.825,7.225,8.812,13.514,9.244a39.591,39.591,0,0,1-7.271-10.646c8.2-3.071,14.03-10.555,14.03-19.248v-2.019C1301.42,776.8,1290.41,766.563,1276.96,766.563Z" transform="translate(-1223.256 -766.3)" fill="#fff"/>
            <path id="Path_9005" data-name="Path 9005" d="M1295.295,821.484l-.48-.49a40.012,40.012,0,0,1-7.115-10.323c8.482-3.287,13.947-10.871,13.947-19.393v-2.019c0-12.694-11.1-23.022-24.746-23.022h-28.956c-13.645,0-24.747,10.328-24.747,23.022s9.714,23.107,24.747,23.022h31.121c.6,0,1.222-.025,1.881-.078,2.041,2.732,7.26,8.793,13.633,9.231Zm-18.394-54.72c13.332,0,24.18,10.091,24.18,22.5v2.019c0,8.393-5.437,15.852-13.852,19l-.26.1.1.243a39.129,39.129,0,0,0,6.845,10.214c-5.907-.816-10.74-6.554-12.59-9.057l-.094-.127-.165.014c-.7.06-1.358.089-1.995.089h-31.125c-12.353.069-23.5-7.862-24.181-22.5-.572-12.392,10.848-22.5,24.181-22.5Z" transform="translate(-1223.198 -766.237)" fill="#4285f4"/>
          </g>
          <g id="Group_2261" data-name="Group 2261" transform="translate(15.682 9.894)">
            <g id="Group_2257" data-name="Group 2257" transform="translate(0 23.737)">
              <path id="Path_9006" data-name="Path 9006" d="M1242.666,809.48a1.617,1.617,0,1,0,1.617-1.617A1.617,1.617,0,0,0,1242.666,809.48Z" transform="translate(-1198.862 -807.863)" fill="#4285f4"/>
              <path id="Path_9007" data-name="Path 9007" d="M1253.7,810.48h37.18a.809.809,0,0,0,0-1.617H1253.7a.809.809,0,1,0,0,1.617Z" transform="translate(-1252.859 -808.055)" fill="#4285f4"/>
            </g>
            <g id="Group_2258" data-name="Group 2258" transform="translate(0.812)">
              <path id="Path_9008" data-name="Path 9008" d="M1242.666,780.1a1.617,1.617,0,1,0,1.617-1.617A1.617,1.617,0,0,0,1242.666,780.1Z" transform="translate(-1199.674 -778.483)" fill="#4285f4"/>
              <path id="Path_9009" data-name="Path 9009" d="M1252.67,781.1h37.18a.808.808,0,1,0,0-1.617h-37.18a.809.809,0,0,0,0,1.617Z" transform="translate(-1251.862 -778.675)" fill="#4285f4"/>
            </g>
            <g id="Group_2259" data-name="Group 2259" transform="translate(0.812 8.488)">
              <path id="Path_9010" data-name="Path 9010" d="M1242.666,790.606a1.617,1.617,0,1,0,1.617-1.617A1.617,1.617,0,0,0,1242.666,790.606Z" transform="translate(-1199.674 -788.989)" fill="#4285f4"/>
              <path id="Path_9011" data-name="Path 9011" d="M1252.67,791.607h37.18a.808.808,0,1,0,0-1.617h-37.18a.809.809,0,0,0,0,1.617Z" transform="translate(-1251.862 -789.181)" fill="#4285f4"/>
            </g>
            <g id="Group_2260" data-name="Group 2260" transform="translate(0.029 16.112)">
              <path id="Path_9012" data-name="Path 9012" d="M1242.666,800.043a1.617,1.617,0,1,0,1.617-1.617A1.617,1.617,0,0,0,1242.666,800.043Z" transform="translate(-1198.891 -798.426)" fill="#4285f4"/>
              <path id="Path_9013" data-name="Path 9013" d="M1253.64,801.044h37.18a.808.808,0,1,0,0-1.617h-37.18a.809.809,0,0,0,0,1.617Z" transform="translate(-1252.832 -798.618)" fill="#4285f4"/>
            </g>
          </g>
          <path id="Path_9014" data-name="Path 9014" d="M1120.91,914.487h91.9a.4.4,0,0,0,0-.808h-91.9a.4.4,0,1,0,0,.808Z" transform="translate(-1051.798 -794.556)" fill="#444"/>
        </g>
        <g id="Group_2275" data-name="Group 2275" transform="translate(11400.119 -361.317)">
          <g id="Group_2271" data-name="Group 2271" transform="translate(0 27.429)">
            <circle id="Ellipse_362" data-name="Ellipse 362" cx="1.868" cy="1.868" r="1.868" transform="translate(0 0)" fill="#4285f4"/>
            <path id="Path_9021" data-name="Path 9021" d="M1452.58,674.753h-39.421a.935.935,0,0,1,0-1.869h39.421a.934.934,0,0,1,0,1.869Z" transform="translate(-1403.174 -671.95)" fill="#4285f4"/>
          </g>
          <g id="Group_2272" data-name="Group 2272">
            <circle id="Ellipse_363" data-name="Ellipse 363" cx="1.868" cy="1.868" r="1.868" transform="translate(0 0)" fill="#4285f4"/>
            <path id="Path_9022" data-name="Path 9022" d="M1449.47,640.8h-36.9a.935.935,0,1,1,0-1.869h36.9a.935.935,0,0,1,0,1.869Z" transform="translate(-1403.062 -638)" fill="#4285f4"/>
          </g>
          <g id="Group_2273" data-name="Group 2273" transform="translate(0 9.809)">
            <circle id="Ellipse_364" data-name="Ellipse 364" cx="1.868" cy="1.868" r="1.868" transform="translate(0 0)" fill="#4285f4"/>
            <path id="Path_9023" data-name="Path 9023" d="M1456.39,652.944h-43.81a.935.935,0,0,1,0-1.869h43.813a.934.934,0,0,1,0,1.869Z" transform="translate(-1403.062 -650.141)" fill="#4285f4"/>
          </g>
          <g id="Group_2274" data-name="Group 2274" transform="translate(0 18.619)">
            <circle id="Ellipse_365" data-name="Ellipse 365" cx="1.868" cy="1.868" r="1.868" transform="translate(0 0)" fill="#4285f4"/>
            <path id="Path_9024" data-name="Path 9024" d="M1460.12,663.848h-46.961a.934.934,0,0,1,0-1.868h46.961a.934.934,0,0,1,0,1.868Z" transform="translate(-1403.174 -661.046)" fill="#4285f4"/>
          </g>
        </g>
        <g id="Group_2283" data-name="Group 2283" transform="translate(11424.122 -401.534)">
          <g id="Group_2282" data-name="Group 2282">
            <g id="Group_2276" data-name="Group 2276" transform="translate(33.707 2.402)">
              <path id="Path_9025" data-name="Path 9025" d="M1492.32,610.385a1.948,1.948,0,0,0,2.018-1.856l-.019-22.67a2.027,2.027,0,0,0-4.04,0l.019,22.671a1.948,1.948,0,0,0,2.022,1.855Z" transform="translate(-1489.874 -583.635)" fill="#ea4335"/>
              <path id="Path_9026" data-name="Path 9026" d="M1492.22,610.667a2.52,2.52,0,0,1-1.712-.652,2.123,2.123,0,0,1-.713-1.571l-.02-22.671a2.335,2.335,0,0,1,2.423-2.226,2.518,2.518,0,0,1,1.711.651,2.125,2.125,0,0,1,.714,1.572l.019,22.671a2.128,2.128,0,0,1-.712,1.574,2.523,2.523,0,0,1-1.71.652Zm-1.637-24.9.02,22.671a1.413,1.413,0,0,0,.475,1.046,1.71,1.71,0,0,0,2.282,0,1.414,1.414,0,0,0,.474-1.047l-.02-22.671a1.415,1.415,0,0,0-.476-1.047,1.716,1.716,0,0,0-2.282,0,1.418,1.418,0,0,0-.466,1.049Z" transform="translate(-1489.778 -583.547)" fill="#ea4335"/>
            </g>
            <g id="Group_2277" data-name="Group 2277" transform="translate(25.64 15.727)">
              <path id="Path_9027" data-name="Path 9027" d="M1482.32,613.534a2.026,2.026,0,0,0,2.018-2.021l-.007-8.954a2.02,2.02,0,1,0-4.04,0l.007,8.954a2.026,2.026,0,0,0,2.022,2.021Z" transform="translate(-1479.89 -600.136)" fill="#fbbc05"/>
              <path id="Path_9028" data-name="Path 9028" d="M1482.23,613.842a2.43,2.43,0,0,1-2.426-2.421l-.007-8.955a2.424,2.424,0,1,1,4.847,0l.007,8.954a2.428,2.428,0,0,1-2.422,2.426Zm-1.151-12.518a1.6,1.6,0,0,0-.473,1.141l.006,8.956a1.616,1.616,0,0,0,3.231,0l-.007-8.954a1.613,1.613,0,0,0-2.756-1.139Z" transform="translate(-1479.794 -600.04)" fill="#fbbc05"/>
            </g>
            <g id="Group_2278" data-name="Group 2278" transform="translate(17.555 8.462)">
              <path id="Path_9029" data-name="Path 9029" d="M1472.32,611.813a2.026,2.026,0,0,0,2.018-2.021l-.013-16.226a2.02,2.02,0,0,0-4.04,0l.013,16.226a2.026,2.026,0,0,0,2.022,2.021Z" transform="translate(-1469.883 -591.144)" fill="#ea4335"/>
              <path id="Path_9030" data-name="Path 9030" d="M1472.22,612.121a2.429,2.429,0,0,1-2.425-2.422l-.014-16.226a2.424,2.424,0,1,1,4.848,0l.012,16.226a2.427,2.427,0,0,1-2.422,2.425Zm-1.631-18.648.014,16.226a1.616,1.616,0,0,0,3.231,0l-.013-16.225a1.616,1.616,0,0,0-3.232,0Z" transform="translate(-1469.787 -591.048)" fill="#ea4335"/>
            </g>
            <g id="Group_2279" data-name="Group 2279" transform="translate(9.469)">
              <path id="Path_9031" data-name="Path 9031" d="M1462.32,609.808a2.025,2.025,0,0,0,2.018-2.021l-.019-24.7a2.02,2.02,0,0,0-4.04,0l.019,24.7a2.026,2.026,0,0,0,2.022,2.021Z" transform="translate(-1459.874 -580.67)" fill="#fbbc05"/>
              <path id="Path_9032" data-name="Path 9032" d="M1462.22,610.116a2.429,2.429,0,0,1-2.424-2.422L1459.78,583a2.424,2.424,0,1,1,4.849,0l.019,24.7a2.429,2.429,0,0,1-2.422,2.425Zm-1.162-28.258a1.594,1.594,0,0,0-.474,1.141l.019,24.7a1.616,1.616,0,1,0,3.232,0l-.02-24.7a1.612,1.612,0,0,0-2.756-1.138Z" transform="translate(-1459.778 -580.574)" fill="#fbbc05"/>
            </g>
            <g id="Group_2280" data-name="Group 2280" transform="translate(1.4 12.919)">
              <path id="Path_9033" data-name="Path 9033" d="M1452.32,612.886a2.026,2.026,0,0,0,2.018-2.021l-.01-11.782a2.02,2.02,0,0,0-4.04,0l.01,11.782a2.026,2.026,0,0,0,2.022,2.021Z" transform="translate(-1449.887 -596.66)" fill="#ea4335"/>
              <path id="Path_9034" data-name="Path 9034" d="M1452.23,613.194a2.426,2.426,0,0,1-2.426-2.421l-.01-11.783a2.424,2.424,0,0,1,4.848,0l.01,11.783a2.43,2.43,0,0,1-2.422,2.425Zm-1.153-15.346a1.606,1.606,0,0,0-.474,1.142l.01,11.783a1.616,1.616,0,0,0,3.232,0l-.009-11.783a1.614,1.614,0,0,0-2.757-1.139Z" transform="translate(-1449.791 -596.564)" fill="#ea4335"/>
            </g>
            <g id="Group_2281" data-name="Group 2281" transform="translate(0 30.866)">
              <path id="Path_9035" data-name="Path 9035" d="M1488.03,619.468a.4.4,0,0,0-.285-.69l-39.286.032a.4.4,0,1,0,0,.807l39.286-.032a.4.4,0,0,0,.285-.117Z" transform="translate(-1448.058 -618.778)" fill="#4285f4"/>
            </g>
          </g>
        </g>
        <g id="Group_2285" data-name="Group 2285" transform="translate(11318.076 -376.828)">
          <path id="Path_9036" data-name="Path 9036" d="M1320.69,627.917l14.123,27.7-1.632,31.073a31.1,31.1,0,0,1-12.491-58.777Z" transform="translate(-1303.282 -627.373)" fill="#fbbc05"/>
          <path id="Path_9037" data-name="Path 9037" d="M1333.46,686.989l-.4-.021a31.5,31.5,0,0,1-12.654-59.539l.359-.184,14.356,28.161-.006.107Zm-13.047-58.655a30.7,30.7,0,0,0,12.284,57.8l1.6-30.559Z" transform="translate(-1303.186 -627.244)" fill="#fbbc05"/>
        </g>
        <g id="Group_2286" data-name="Group 2286" transform="translate(11351.19 -377.551)">
          <path id="Path_9038" data-name="Path 9038" d="M1375.99,654.495a30.983,30.983,0,0,1-2.27,11.675l-28.843-11.675,14.623-27.469a31.107,31.107,0,0,1,16.49,27.469Z" transform="translate(-1344.308 -626.479)" fill="#fbbc05"/>
          <path id="Path_9039" data-name="Path 9039" d="M1373.81,666.565l-29.633-11.994,15.024-28.222.356.19a31.534,31.534,0,0,1,14.4,39.652Zm-28.5-12.406,28.051,11.352a30.73,30.73,0,0,0-13.829-38.067Z" transform="translate(-1344.173 -626.349)" fill="#fbbc05"/>
        </g>
        <g id="Group_2287" data-name="Group 2287" transform="translate(11335.492 -382.41)">
          <path id="Path_9040" data-name="Path 9040" d="M1354.17,624.479l-14.624,27.47-14.131-27.72c.347-.178.695-.347,1.034-.509.1-.057.218-.1.323-.153a31.2,31.2,0,0,1,27.381.9.025.025,0,0,0,.017.012Z" transform="translate(-1324.872 -620.431)" fill="#ea4335"/>
          <path id="Path_9041" data-name="Path 9041" d="M1339.41,652.727l-14.666-28.771.359-.183c.35-.179.7-.351,1.044-.514.071-.04.166-.082.259-.124a31.6,31.6,0,0,1,27.736.844h.572Zm-13.579-28.416,13.594,26.668,14.068-26.427a30.792,30.792,0,0,0-26.684-.713c-.146.066-.224.1-.3.14-.229.11-.449.221-.679.332Z" transform="translate(-1324.743 -620.335)" fill="#ea4335"/>
        </g>
        <g id="Group_2288" data-name="Group 2288" transform="translate(11349.208 -348.845)">
          <path id="Path_9042" data-name="Path 9042" d="M1372.72,674.28c-8.362,19.213-26.944,19.5-30.031,19.415-.291-.008-.444-.016-.444-.016l1.632-31.073Z" transform="translate(-1341.821 -662.018)" fill="#ea4335"/>
          <path id="Path_9043" data-name="Path 9043" d="M1343.24,693.967c-.256,0-.477,0-.66-.009-.3-.008-.452-.016-.452-.016l-.4-.021,1.682-32.042,29.753,12.042-.166.38C1365.02,692.624,1348.02,693.967,1343.24,693.967Zm-.667-.818c3.535.112,21.244-.341,29.511-18.792l-27.931-11.3Z" transform="translate(-1341.72 -661.879)" fill="#ea4335"/>
        </g>
        <path id="Path_9168" data-name="Path 9168" d="M1196.5,377.8h-40.983a34.63,34.63,0,0,0,0,69.259h44.055c.965,0,1.917-.051,2.86-.137,2.957,4.3,10.228,13.408,19.131,14.066,0,0-7-7.66-10.294-16.2a31.667,31.667,0,0,0,19.86-29.287v-3.073A34.731,34.731,0,0,0,1196.5,377.8Z" transform="translate(10052.904 -949.161)" fill="#fff"/>
        <path id="Path_9169" data-name="Path 9169" d="M1221.44,461.3c-9.021-.666-16.41-9.891-19.3-14.046-.934.079-1.808.118-2.663.118h-44.054a35.031,35.031,0,1,1,0-70.061H1196.4a35.071,35.071,0,0,1,35.031,35.03v3.072a31.864,31.864,0,0,1-19.743,29.51c3.289,8.223,10,15.633,10.072,15.708l.679.744Zm-66.015-83.187a34.229,34.229,0,1,0,0,68.458h44.054c.9,0,1.825-.044,2.824-.135l.234-.021.133.193c2.619,3.809,9.461,12.539,17.823,13.781-1.851-2.177-7.01-8.6-9.69-15.542l-.143-.369.368-.147a31.071,31.071,0,0,0,19.609-28.917v-3.072a34.268,34.268,0,0,0-34.229-34.229Z" transform="translate(10052.999 -949.066)" fill="#4285f4"/>
        <g id="Group_2352" data-name="Group 2352" transform="translate(11192.733 -545.406)">
          <path id="Path_9170" data-name="Path 9170" d="M1145.98,410.425s-2.013,3.585-.725,5.633,2.9,3.073,1.288,5.53a9.973,9.973,0,0,0-1.182,5.889l43.14.141s1.5-5.621-.109-7.259,1.98-4.141,1.909-5.985a13.418,13.418,0,0,0-.952-3.934Z" transform="translate(-1144.428 -410.021)" fill="#4285f4"/>
          <path id="Path_9171" data-name="Path 9171" d="M1188.72,427.927l-43.806-.144-.044-.352a10.283,10.283,0,0,1,1.245-6.16c1.132-1.73.522-2.562-.489-3.939-.262-.356-.539-.734-.8-1.154-1.4-2.227.627-5.891.714-6.046l.116-.206,43.874.015.1.247a13.662,13.662,0,0,1,.984,4.074,5.2,5.2,0,0,1-1.22,2.741c-.947,1.4-1.473,2.3-.8,2.976,1.722,1.753.371,7.048.212,7.646Zm-43.078-.949,42.454.139c.411-1.694,1.032-5.436-.083-6.571-1.18-1.2-.174-2.686.712-4a4.81,4.81,0,0,0,1.081-2.257,12.466,12.466,0,0,0-.822-3.545l-42.849-.015c-.384.763-1.607,3.456-.628,5.014.254.4.52.765.77,1.106,1.049,1.428,1.954,2.661.514,4.86a9.251,9.251,0,0,0-1.151,5.269Z" transform="translate(-1144.332 -409.925)" fill="#4285f4"/>
        </g>
        <rect id="Rectangle_1042" data-name="Rectangle 1042" width="36.211" height="1.043" rx="0.521" transform="translate(11197.768 -540.718)" fill="#fff"/>
        <rect id="Rectangle_1043" data-name="Rectangle 1043" width="36.211" height="1.043" rx="0.521" transform="translate(11197.768 -537.291)" fill="#fff"/>
        <rect id="Rectangle_1044" data-name="Rectangle 1044" width="36.211" height="1.043" rx="0.521" transform="translate(11197.768 -533.938)" fill="#fff"/>
        <path id="Path_9172" data-name="Path 9172" d="M1179.74,421.065s-2.021,3.635-.728,5.712,2.912,3.116,1.294,5.609a10.192,10.192,0,0,0-1.188,5.971l43.351.143s1.508-5.7-.109-7.361,1.99-4.2,1.918-6.069a13.688,13.688,0,0,0-.957-3.989Z" transform="translate(10041.822 -957.471)" fill="#4285f4"/>
        <path id="Path_9173" data-name="Path 9173" d="M1222.69,438.81l-44.019-.146-.044-.353a10.487,10.487,0,0,1,1.25-6.24c1.141-1.76.526-2.6-.493-4-.263-.361-.541-.744-.806-1.171-1.4-2.253.631-5.964.718-6.122l.115-.208,44.089.016.1.249a13.918,13.918,0,0,1,.988,4.128,5.3,5.3,0,0,1-1.225,2.775c-.954,1.42-1.484,2.333-.808,3.027,1.727,1.774.371,7.141.211,7.746Zm-43.29-.952,42.664.141c.413-1.718,1.039-5.521-.085-6.674-1.182-1.214-.174-2.716.717-4.041a4.9,4.9,0,0,0,1.087-2.294,12.769,12.769,0,0,0-.829-3.6l-43.061-.016c-.384.772-1.617,3.51-.629,5.1.254.409.522.776.773,1.122,1.052,1.445,1.96,2.694.516,4.919a9.485,9.485,0,0,0-1.153,5.348Z" transform="translate(10041.918 -957.375)" fill="#4285f4"/>
        <rect id="Rectangle_1045" data-name="Rectangle 1045" width="36.211" height="1.043" rx="0.521" transform="translate(11226.728 -531.554)" fill="#fff"/>
        <rect id="Rectangle_1046" data-name="Rectangle 1046" width="24.141" height="1.043" rx="0.521" transform="translate(11226.728 -527.688)" fill="#fff"/>
        <rect id="Rectangle_1047" data-name="Rectangle 1047" width="24.141" height="1.043" rx="0.521" transform="translate(11226.728 -523.991)" fill="#fff"/>
        <rect id="Rectangle_1048" data-name="Rectangle 1048" width="7.674" height="5.439" rx="2.083" transform="translate(11252.322 -528.908)" fill="#fff"/>
        <g id="Group_2356" data-name="Group 2356" transform="translate(11339.908 -571.849)">
          <path id="Path_9174" data-name="Path 9174" d="M1326.52,476.479c.724,47.756,25.073,89.772,47.016,97.6,3.018,1.077,5.952,1.995,8.813,1.683s6.135-.662,9.21-2.349c20.747-11.392,45.876-46.988,46.62-96.934.815-54.827-25-99.283-55.83-99.283S1325.68,421.653,1326.52,476.479Z" transform="translate(-1326.496 -377.196)" fill="#4285f4"/>
        </g>
        <path id="Path_9175" data-name="Path 9175" d="M1359.09,437.8c0,8.676,13.275,15.691,29.652,15.691s29.652-7.015,29.652-15.674c0-.1.009-.812,0-.914a88.7,88.7,0,0,1-29.652,4.863C1378.33,441.771,1368.01,440.8,1359.09,437.8Z" transform="translate(10007.15 -960.514)" fill="#fff"/>
        <path id="Path_9176" data-name="Path 9176" d="M1437.81,521.4s-12.888,42.833-25.072,49.26c-10.731,5.662-13.533,11.789-13.837,14.093-.776,5.879-9.218,7.8-13.767,8.375s-9.584-2.642-15.85-8.375c-5.592-5.116-12.672-2.569-15.849-8.941s-2.512-14.326-5.507-19.983-16.981-16.3-18.32-24.619c0,0,5.806,31.134,23.805,53.52,0,0,12.019,17.566,29.531,18.726,0,0,10.846,2.343,31.46-22.176C1414.4,581.284,1431.56,560.149,1437.81,521.4Z" transform="translate(10012.814 -976.743)" fill="#03528c" opacity="0.5"/>
        <path id="Path_9178" data-name="Path 9178" d="M1385.31,609.452a9.944,9.944,0,0,0,2.133-.167c6.429-1.2,13.328-4.728,23.11-14.842,15.991-16.533,23.074-42.031,23.15-42.3a.4.4,0,0,0-.775-.223c-.076.265-7.827,26.7-22.948,41.954-13.9,14.026-18.931,14.467-25.051,14.987-9.543.811-31.141-9.963-44.222-45.376a.4.4,0,0,0-.755.279c13.231,35.82,33.186,45.574,45.065,45.686Z" transform="translate(10010.832 -982.548)" fill="#03528c"/>
        <path id="Path_9179" data-name="Path 9179" d="M1359.09,437.948c0,8.676,13.275,15.691,29.652,15.691s29.652-7.015,29.652-15.674c0-.1,0-.212-.008-.313-9.125,3.2-18.893,4.263-29.644,4.263C1378.33,441.914,1368.01,440.947,1359.09,437.948Z" transform="translate(10007.15 -960.657)" fill="#fff"/>
        <path id="Path_9184" data-name="Path 9184" d="M1396.17,320.371l-2.917-24.068-2.631,23.676Z" transform="translate(10001.096 -933.508)" fill="#4285f4"/>
        <circle id="Ellipse_370" data-name="Ellipse 370" cx="6.072" cy="6.072" r="6.072" transform="translate(11388.414 -640.594)" fill="#fff"/>
        <path id="Path_9185" data-name="Path 9185" d="M1386.04,297.892a6.283,6.283,0,1,1,6.283,6.283,6.283,6.283,0,0,1-6.283-6.283Zm.806,0a5.207,5.207,0,1,0-.006,0Z" transform="translate(10001.977 -932.606)" fill="#4285f4"/>
        <path id="Rectangle_1049" data-name="Rectangle 1049" d="M17.368,0H50.133A17.368,17.368,0,0,1,67.5,17.367v1.468a15.9,15.9,0,0,1-15.9,15.9H17.368A17.368,17.368,0,0,1,0,17.368H0A17.368,17.368,0,0,1,17.368,0Z" transform="translate(11428.239 -455.339) rotate(180)" fill="#fff"/>
        <g id="Group_2359" data-name="Group 2359" transform="translate(11387.234 -483.187)">
          <rect id="Rectangle_1050" data-name="Rectangle 1050" width="33.464" height="2.16" rx="1.06" transform="translate(33.868 2.563) rotate(180)" fill="#91b8f8"/>
        </g>
        <g id="Group_2360" data-name="Group 2360" transform="translate(11365.843 -483.187)">
          <rect id="Rectangle_1051" data-name="Rectangle 1051" width="17.262" height="2.16" rx="1.06" transform="translate(17.665 2.563) rotate(180)" fill="#91b8f8"/>
        </g>
        <g id="Group_2361" data-name="Group 2361" transform="translate(11401.919 -476.075)">
          <rect id="Rectangle_1052" data-name="Rectangle 1052" width="18.78" height="2.16" rx="1.06" transform="translate(19.183 2.563) rotate(180)" fill="#91b8f8"/>
        </g>
        <g id="Group_2362" data-name="Group 2362" transform="translate(11365.843 -476.075)">
          <rect id="Rectangle_1053" data-name="Rectangle 1053" width="31.699" height="2.16" rx="1.06" transform="translate(32.102 2.563) rotate(180)" fill="#91b8f8"/>
        </g>
        <g id="Group_2363" data-name="Group 2363" transform="translate(11368.666 -467.392)">
          <rect id="Rectangle_1054" data-name="Rectangle 1054" width="51.15" height="2.16" rx="1.06" transform="translate(51.553 2.563) rotate(180)" fill="#91b8f8"/>
        </g>
        <rect id="Rectangle_1055" data-name="Rectangle 1055" width="8.272" height="42.078" transform="translate(11445.286 -507.674) rotate(-64.665)" fill="#4285f4"/>
        <path id="Path_9195" data-name="Path 9195" d="M1468.72,441.658l-11.775-9.69c-5.536-4.507-11.385-4.446-14.907,1.447a10.622,10.622,0,0,0,1.448,14.907l11.775,9.69a10.59,10.59,0,1,0,13.459-16.354Z" transform="translate(9991.682 -958.951)" fill="#4285f4"/>
        <path id="Rectangle_1056" data-name="Rectangle 1056" d="M9.47,0h0a6.372,6.372,0,0,1,6.372,6.372V12.53A6.372,6.372,0,0,1,9.47,18.9H6.37A6.372,6.372,0,0,1,0,12.53V9.47A9.47,9.47,0,0,1,9.47,0Z" transform="translate(11480.806 -484.868) rotate(-93.726)" fill="#e8dff0"/>
        <path id="Path_9196" data-name="Path 9196" d="M1515.58,461.808a11.539,11.539,0,0,1,14.81,17.7c-5.542,4.548-12.165,3.443-16.254-1.445a11.538,11.538,0,0,1,1.444-16.255Z" transform="translate(9977.889 -964.78)" fill="#4285f4"/>
        <path id="Path_9197" data-name="Path 9197" d="M1526.11,482.168s1.58-4.61,4.311-5.789,4.494-1.769,3.281-3.853-3.272-3.754-3.726-5.883-5.247-7.865-7.256-7.241c0,0,9.661-2.047,13.407,7.717,0,0,2.581,7.33-3.567,12.407C1532.56,479.526,1528.85,482.271,1526.11,482.168Z" transform="translate(9975.725 -964.8)" fill="#03528c" opacity="0.5"/>
        <rect id="Rectangle_1057" data-name="Rectangle 1057" width="8.272" height="42.078" transform="translate(11340.064 -517.82) rotate(45)" fill="#4285f4"/>
        <path id="Path_9205" data-name="Path 9205" d="M1327.13,456.728l11.356-10.179a10.59,10.59,0,1,0-14.137-15.771l-11.355,10.177a10.59,10.59,0,1,0,14.136,15.772Z" transform="translate(10016.68 -958.819)" fill="#4285f4"/>
        <path id="Path_9206" data-name="Path 9206" d="M1279.38,494.929a8.5,8.5,0,0,1-.591-11.967l1.314-1.45a8.472,8.472,0,1,1,12.557,11.376l-1.314,1.45a8.5,8.5,0,0,1-11.966.591Z" transform="translate(10022.995 -968.548)" fill="#e8dff0"/>
        <path id="Path_11121" data-name="Path 11121" d="M12.11,0A12.11,12.11,0,1,1,0,12.11,12.11,12.11,0,0,1,12.11,0Z" transform="matrix(0.973, -0.23, 0.23, 0.973, 11285.587, -480.177)" fill="#4285f4"/>
        <path id="Path_9207" data-name="Path 9207" d="M1286.52,501.806s-7.027,7.973-9.635,6.345-2.635-4.5-4.829-3.063-10.249.135-9.757-3.282a12.173,12.173,0,0,0,6.441,10.7,11.212,11.212,0,0,0,11.992-.378,12.326,12.326,0,0,0,5.788-10.322Z" transform="translate(10025.747 -972.979)" fill="#03528c" opacity="0.5"/>
        <path id="Path_9216" data-name="Path 9216" d="M1319.1,372.671c0,20.138,8.2,34.621,29.6,42.441,12.42,5.991,32.529,6.9,46.555,4.415,10.852-1.92,23.545-6.082,32.421-14.326,9.389-8.718,15.069-20.09,15.069-32.53,0-27.459-27.676-47.182-61.823-47.182S1319.1,345.212,1319.1,372.671Z" transform="translate(10014.832 -939.113)" fill="#4285f4" stroke="#fff" stroke-width="1"/>
        <g id="Group_2367" data-name="Group 2367" transform="translate(11356.258 -581.76)">
          <path id="Path_9217" data-name="Path 9217" d="M1361.88,405.8h46.172a15.038,15.038,0,0,0,15.038-15.038V378.473c0-8.306-4.872-13.344-13.555-13.344-3.75,0-14.567,2.542-23.722,2.542-7.914,0-15.6-2.105-20.2-2.556-10.967-1.072-19.26,2.524-18.863,9.606.064,1.135.09,2.566.09,3.752v12.285a15.038,15.038,0,0,0,15.04,15.042Z" transform="translate(-1346.733 -364.928)" fill="#fff"/>
          <ellipse id="Ellipse_372" data-name="Ellipse 372" cx="3.883" cy="6.919" rx="3.883" ry="6.919" transform="translate(50.03 12.459)" fill="#4285f4"/>
          <ellipse id="Ellipse_373" data-name="Ellipse 373" cx="3.742" cy="6.919" rx="3.742" ry="6.919" transform="translate(18.334 12.436)" fill="#4285f4"/>
          <path id="Path_9218" data-name="Path 9218" d="M1393.05,408.186a24.845,24.845,0,0,0,9.813-2.012l-.353-.725c-.976.48-10.045,3.895-18.29,0l-.345.73a21.337,21.337,0,0,0,9.175,2.007Z" transform="translate(-1353.867 -372.711)" fill="#4285f4"/>
        </g>
        <path id="Path_9219" data-name="Path 9219" d="M1440.87,366.679s-1.016,25.829-10.381,33.279c-12.056,9.591-10.362,5.328-16.427,9.612-6.438,4.549-16.838,9.272-23.87,7.418-12.127-3.2-27.037.836-31.6.764-12.393-.2-34.308-12.912-36.064-19.388,0,0,4.063,16.841,25.168,24.025,0,0,14.377,6.833,36.073,5.9,0,0,18.015.768,34.52-8.2,7.832-4.254,14.194-9.752,18.7-17.441,3.235-5.517,6.74-13.875,6.329-19.629a86.211,86.211,0,0,0-2.448-16.34Z" transform="translate(10014.174 -947.025)" fill="#055be8" opacity="0.5"/>
        <path id="Path_9221" data-name="Path 9221" d="M1402.12,406.091h-40.345c-.1,0-9.8-.086-13.983-7.528a12.981,12.981,0,0,1-1.558-6.362l.009-15.61c0-3.4.374-5.6,2.419-7.927,2.471-2.82,6.318-4.334,12.2-4.3a50.36,50.36,0,0,1,11.785,1.129,57.239,57.239,0,0,0,9,1.5c5.505.431,15.849-.893,16.382-.962,1-.238,18.152-4.206,22.615,3.159a15.179,15.179,0,0,1,1.49,3.021,25.7,25.7,0,0,1,1.257,8v10.447c0,.4.009,9.759-7,12.927a30.5,30.5,0,0,1-13.415,2.522Zm-3.924-39.28-.042.007c-.107.014-10.86,1.416-16.571.969a57.863,57.863,0,0,1-9.12-1.515,49.619,49.619,0,0,0-11.662-1.18c-5.7-.028-9.364,1.687-11.686,4.336-1.916,2.185-2.064,3.96-2.066,7.161l-.009,15.61a12.184,12.184,0,0,0,1.454,5.966c3.95,7.026,13.187,7.117,13.28,7.117h40.348c3.759.015,8.456.029,13.935-2.448,6.525-2.951,6.526-12.093,6.525-12.188V380.2a24.888,24.888,0,0,0-1.217-7.742,14.046,14.046,0,0,0-1.414-2.857c-1.916-3.165-6.591-4.027-11.118-4.027a52.315,52.315,0,0,0-10.633,1.237Z" transform="translate(10009.62 -946.579)" fill="#fff"/>
        <path id="Path_9223" data-name="Path 9223" d="M1539.23,313.066h51.184a43.25,43.25,0,0,1,0,86.5h-55.021c-1.2,0-2.394-.063-3.572-.17-3.693,5.369-12.774,16.747-23.893,17.568,0,0,8.736-9.567,12.856-20.231a39.55,39.55,0,0,1-24.8-36.578v-3.837A43.376,43.376,0,0,1,1539.23,313.066Z" transform="translate(9980.859 -936.727)" fill="#fff"/>
        <path id="Path_9224" data-name="Path 9224" d="M1506.59,417.435l.849-.93c.085-.094,8.47-9.348,12.579-19.617a39.8,39.8,0,0,1-24.658-36.854V356.2a43.8,43.8,0,0,1,43.75-43.75h51.183a43.75,43.75,0,0,1,0,87.5h-55.019c-1.068,0-2.16-.049-3.326-.147-3.608,5.19-12.836,16.71-24.1,17.543Zm32.52-103.987a42.8,42.8,0,0,0-42.748,42.748v3.837a38.8,38.8,0,0,0,24.489,36.114l.459.184-.178.461c-3.349,8.667-9.791,16.693-12.1,19.411,10.444-1.551,18.988-12.455,22.259-17.211l.167-.242.291.027c1.248.113,2.4.169,3.528.169H1590.3a42.75,42.75,0,0,0,0-85.5Z" transform="translate(9980.979 -936.608)" fill="#4285f4"/>
        <path id="Path_9225" data-name="Path 9225" d="M1638.12,351.471c.382,2.3,2.144,5.012-.99,10.854-3.734,6.962-6.637,12.516-16.6,19.511-3.742,2.627-9.743,1.579-11.486-1.9a4.645,4.645,0,0,1,.407-5.232c3.875-5.078,5.955-5.375,8.609-3.688s11.331-9.6,11.957-12.711c.234-1.17.1-1.517-.155-1.5a4,4,0,0,1-3.873-1.475,4.612,4.612,0,0,1-.123-4.819c1.3-2.831,3.744-5.518,6.414-5.864C1635.22,344.27,1637.16,345.7,1638.12,351.471Z" transform="translate(9959.261 -942.782)" fill="#ea4335"/>
        <path id="Path_9226" data-name="Path 9226" d="M1615.5,383.612a9.67,9.67,0,0,1-2.365-.29,6.8,6.8,0,0,1-4.546-3.3,5.009,5.009,0,0,1,.448-5.658c3.687-4.833,6-5.786,9.147-3.784a1.332,1.332,0,0,0,1.208-.088c3.327-1.42,9.623-9.812,10.136-12.362a3.9,3.9,0,0,0,.111-1,4.285,4.285,0,0,1-4.078-1.668,5.039,5.039,0,0,1-.153-5.211c1.177-2.563,3.648-5.7,6.729-6.1,3.5-.451,5.373,1.687,6.285,7.157.066.4.179.82.3,1.267.553,2.076,1.31,4.919-1.331,9.844l-.134.25c-3.725,6.947-6.667,12.436-16.586,19.4a9.079,9.079,0,0,1-5.171,1.543Zm-.162-13.22c-1.521,0-3.165,1.191-5.659,4.459a4.255,4.255,0,0,0-.368,4.806,6,6,0,0,0,4.021,2.882,8.6,8.6,0,0,0,6.872-1.13c9.761-6.854,12.663-12.267,16.337-19.12l.135-.251c2.491-4.643,1.81-7.2,1.262-9.253-.125-.467-.242-.908-.313-1.342-.973-5.838-2.856-6.816-5.386-6.488-2.577.333-4.92,3.069-6.1,5.631a4.241,4.241,0,0,0,.093,4.428,3.72,3.72,0,0,0,3.5,1.3.586.586,0,0,1,.5.2c.253.284.276.8.079,1.781-.566,2.815-6.941,11.38-10.611,12.945a2.057,2.057,0,0,1-1.96.027,4.542,4.542,0,0,0-2.4-.875Z" transform="translate(9959.357 -942.687)" fill="#ea4335"/>
        <rect id="Rectangle_1058" data-name="Rectangle 1058" width="6.394" height="6.394" transform="translate(11504.397 -563.361)" fill="#fbbc05"/>
        <rect id="Rectangle_1059" data-name="Rectangle 1059" width="6.394" height="6.394" transform="translate(11561.644 -599.157)" fill="#fbbc05"/>
        <rect id="Rectangle_1060" data-name="Rectangle 1060" width="6.394" height="6.394" transform="translate(11555.251 -561.602)" fill="#fbbc05"/>
        <rect id="Rectangle_1061" data-name="Rectangle 1061" width="6.394" height="6.394" transform="translate(11542.83 -556.261)" fill="#fbbc05"/>
        <rect id="Rectangle_1062" data-name="Rectangle 1062" width="6.394" height="6.394" transform="translate(11503.907 -601.774) rotate(-9.621)" fill="#fbbc05"/>
        <rect id="Rectangle_1063" data-name="Rectangle 1063" width="6.394" height="6.394" transform="matrix(0.986, -0.167, 0.167, 0.986, 11514.016, -606.73)" fill="#fbbc05"/>
        <rect id="Rectangle_1064" data-name="Rectangle 1064" width="49.053" height="19.236" transform="translate(11509.75 -587.781)" fill="#4285f4"/>
        <g id="Group_5734" data-name="Group 5734" transform="translate(11508.332 -485.403)">
          <g id="Group_2296" data-name="Group 2296" transform="translate(0 201.967)">
            <g id="Group_2293" data-name="Group 2293">
              <g id="Group_2292" data-name="Group 2292" transform="translate(1.774)">
                <rect id="Rectangle_1036" data-name="Rectangle 1036" width="5.056" height="6.206" fill="#f4d37e"/>
              </g>
              <path id="Path_9048" data-name="Path 9048" d="M1635.813,917c-1.078-.432-1.365-.027-2.042.078a9.085,9.085,0,0,1-4.048-.111c-1.811-.681-1.754,3.325-1.491,5.207l18.448-.264s.546-5.464-3.207-5.222C1640.723,916.864,1637.363,917.618,1635.813,917Z" transform="translate(-1627.641 -910.768)" fill="#444"/>
              <path id="Path_9049" data-name="Path 9049" d="M1627.733,922.522l19.251-.276.04-.4c.013-.132.306-3.26-1.218-4.839a3.008,3.008,0,0,0-2.468-.881c-.847.055-1.752.163-2.63.269-1.9.229-3.864.464-4.834.075a2.292,2.292,0,0,0-1.847-.066,2.4,2.4,0,0,1-.432.116,8.821,8.821,0,0,1-3.82-.086,1.269,1.269,0,0,0-1.312.165c-1.386,1.109-.811,5.348-.785,5.528Zm18.413-1.167-17.621.251c-.2-1.8-.053-3.856.5-4.3.078-.062.188-.113.428-.023a9.364,9.364,0,0,0,4.275.134,3.512,3.512,0,0,0,.58-.152,1.43,1.43,0,0,1,1.225.047c1.184.475,3.174.237,5.279-.017.865-.1,1.758-.212,2.581-.264a2.1,2.1,0,0,1,1.757.6c.963.984,1.023,2.89,1,3.719Z" transform="translate(-1627.538 -910.66)" fill="#444"/>
            </g>
            <g id="Group_2295" data-name="Group 2295" transform="translate(26.18 0.401)">
              <g id="Group_2294" data-name="Group 2294" transform="translate(1.917)">
                <path id="Path_9050" data-name="Path 9050" d="M1611.306,911.083l-.043,4.791,4.57-.147v-5.868Z" transform="translate(-1611.263 -909.859)" fill="#f4d37e"/>
              </g>
              <path id="Path_9053" data-name="Path 9053" d="M1603.409,917c-1.078-.432-1.364-.027-2.041.078a9.085,9.085,0,0,1-4.047-.111c-1.812-.681-1.754,3.325-1.492,5.207l18.449-.264s.545-5.464-3.207-5.222C1608.309,916.864,1604.949,917.618,1603.409,917Z" transform="translate(-1595.239 -911.169)" fill="#444"/>
              <path id="Path_9054" data-name="Path 9054" d="M1595.331,922.522l19.251-.276.04-.4c.013-.132.307-3.26-1.218-4.839a3,3,0,0,0-2.467-.881c-.847.055-1.753.163-2.629.269-1.9.229-3.868.464-4.836.075a2.287,2.287,0,0,0-1.845-.066,2.417,2.417,0,0,1-.432.116,8.821,8.821,0,0,1-3.82-.086,1.267,1.267,0,0,0-1.311.165c-1.386,1.108-.812,5.348-.788,5.528Zm18.413-1.167-17.621.251c-.195-1.8-.052-3.856.5-4.3.078-.062.188-.113.428-.023a9.366,9.366,0,0,0,4.276.134,3.5,3.5,0,0,0,.58-.152,1.421,1.421,0,0,1,1.224.047c1.183.475,3.173.238,5.28-.017.864-.1,1.758-.212,2.58-.264a2.1,2.1,0,0,1,1.756.605c.964.984,1.024,2.89.994,3.719Z" transform="translate(-1595.138 -911.062)" fill="#444"/>
            </g>
          </g>
          <g id="Group_2301" data-name="Group 2301" transform="translate(23.425 126.432)">
            <g id="Group_2297" data-name="Group 2297" transform="translate(0 7.71)">
              <rect id="Rectangle_1037" data-name="Rectangle 1037" width="46.124" height="25.471" rx="5.523" transform="translate(0.401 0.404)" fill="#bebebe"/>
              <path id="Path_9055" data-name="Path 9055" d="M1569.478,851.693h37.2a4.872,4.872,0,0,0,4.867-4.866V830.278a4.872,4.872,0,0,0-4.867-4.865h-37.2a4.871,4.871,0,0,0-4.865,4.865v16.548A4.872,4.872,0,0,0,1569.478,851.693Zm37.2-25.472a4.063,4.063,0,0,1,4.059,4.057v16.548a4.063,4.063,0,0,1-4.059,4.058h-37.2a4.063,4.063,0,0,1-4.057-4.058V830.278a4.062,4.062,0,0,1,4.057-4.057Z" transform="translate(-1564.613 -825.413)" fill="#444"/>
            </g>
            <g id="Group_2298" data-name="Group 2298" transform="translate(4.363 16.008)">
              <rect id="Rectangle_1038" data-name="Rectangle 1038" width="37.053" height="10.907" rx="2.917" transform="translate(0.399 0.408)" fill="#bebebe"/>
              <path id="Path_9056" data-name="Path 9056" d="M1573.19,847.4h32.35a2.765,2.765,0,0,0,2.761-2.761v-6.194a2.764,2.764,0,0,0-2.761-2.76H1573.2a2.764,2.764,0,0,0-2.761,2.76v6.194a2.764,2.764,0,0,0,2.751,2.761Zm32.35-10.9a1.954,1.954,0,0,1,1.953,1.952v6.194a1.955,1.955,0,0,1-1.953,1.953H1573.2a1.955,1.955,0,0,1-1.953-1.953v-6.194a1.954,1.954,0,0,1,1.953-1.952Z" transform="translate(-1570.439 -835.685)" fill="#444"/>
            </g>
            <g id="Group_2300" data-name="Group 2300" transform="translate(14.952)">
              <g id="Group_2299" data-name="Group 2299">
                <path id="Path_9057" data-name="Path 9057" d="M1598.708,824.213l.664-.459c-3.846-5.568-7.674-8.211-11.4-7.852-5.592.538-8.755,7.619-8.886,7.92l.74.324c.031-.07,3.106-6.95,8.226-7.44C1591.448,816.391,1595.048,818.906,1598.708,824.213Z" transform="translate(-1579.086 -815.87)" fill="#444"/>
              </g>
            </g>
          </g>
          <g id="Group_2302" data-name="Group 2302" transform="translate(0.456 124.038)">
            <path id="Path_9058" data-name="Path 9058" d="M1616.786,891.9s-8.838-53.781-8.838-59.949,6.216-17.735,9.079-18.892,9.551,4.672,9.551,4.672-.319,70.9-1.1,73.881C1624.726,894.45,1618.736,896.206,1616.786,891.9Z" transform="translate(-1591.689 -812.907)" fill="#3199ff"/>
            <path id="Path_9059" data-name="Path 9059" d="M1625.464,892.309c-2,3.613-7.9,3.129-8.509-.954-.656-4.391,1.016-11.39,1.712-14.212,1.236-5.011,1.067-14.806,1.067-22.131s-4.4-36.419-1.61-39.075c2.55-2.427,23.155,2.562,26.111,3.884a.508.508,0,0,1,.273.639c-.638,1.773-3.012,8.346-3.877,10.341-1,2.313-1.146,20.687-6.462,34.4C1631.854,871.168,1628.694,886.465,1625.464,892.309Z" transform="translate(-1616.805 -813.363)" fill="#3199ff"/>
          </g>
          <g id="Group_2303" data-name="Group 2303" transform="translate(43.365 119.704)">
            <path id="Path_9066" data-name="Path 9066" d="M1586.589,815.837a6.39,6.39,0,0,0,6.326,2.231c1.681-.39,3.027-1.306,1.684-3.406-2.685-4.2-9.723-7.118-9.723-7.118l-1.824,2.818a33.382,33.382,0,0,0,3.537,5.475Z" transform="translate(-1583.052 -807.544)" fill="#f4d37e"/>
          </g>
          <g id="Group_2304" data-name="Group 2304" transform="translate(16.588 72.985)">
            <path id="Path_9068" data-name="Path 9068" d="M1618.559,801.41a3.339,3.339,0,0,0,3.885-5.3c-3.731-3.9-8.137-10.338-11.081-20.584-3.751-13.058-7.047-25.809-7.047-25.809l-13.738,8.343s11.146,32.437,23.482,40.712a39.277,39.277,0,0,0,4.5,2.638Z" transform="translate(-1590.578 -749.717)" fill="#21823b"/>
            <path id="Path_9069" data-name="Path 9069" d="M1624.09,786.046s-3.731-7.069-3.355-11.412c.438-5.064-1.869-5.576-.414-8.044,3.064-5.2,5.353-9.09,6.455-11.516l-14.032,6.513S1620.35,780.677,1624.09,786.046Z" transform="translate(-1611.894 -750.746)" fill="#e65093" opacity="0.5"/>
            <path id="Path_9071" data-name="Path 9071" d="M1611.308,764.251a.441.441,0,0,0-.026.226c.238,1.7,2.286,6.068,3.782,9.259.561,1.2,1.044,2.228,1.3,2.834.925,2.21,8.951,16.189,9.292,16.783a.452.452,0,1,0,.784-.451c-.083-.145-8.338-14.523-9.242-16.682-.261-.624-.749-1.663-1.313-2.868-1.388-2.962-3.486-7.439-3.706-9a.452.452,0,0,0-.869-.1Z" transform="translate(-1610.434 -752.454)" fill="#51337b"/>
          </g>
          <g id="Group_2305" data-name="Group 2305" transform="translate(0.503 70.483)">
            <path id="Path_9073" data-name="Path 9073" d="M1609.493,808.016a2.965,2.965,0,0,1-2.862-3.243c.974-10.289,1.738-41.962,2.289-50.4.5-7.677,12.521-8.147,21.9-7.586,6.1.365,11.716,13.93,11.716,16.986l-.44,42.161a2.968,2.968,0,0,1-3.059,3Z" transform="translate(-1606.617 -746.62)" fill="#34a853"/>
          </g>
          <g id="Group_2308" data-name="Group 2308" transform="translate(0.412 34.485)">
            <g id="Group_2306" data-name="Group 2306" transform="translate(7.9 7.646)">
              <path id="Path_9077" data-name="Path 9077" d="M1632.159,712.835s9.113,17.137.555,19c0,0-3.8-.966-1.609,6.326a24.167,24.167,0,0,1,1,4.949,4.922,4.922,0,0,1-4.467,5.315c-2.741.233-6.22-.236-7.646-3.658a59.23,59.23,0,0,1-3.43-13S1608.439,705.455,1632.159,712.835Z" transform="translate(-1615.22 -711.529)" fill="#f4d37e"/>
              <path id="Path_9079" data-name="Path 9079" d="M1622.058,745.466a.462.462,0,0,0,.134-.02.453.453,0,0,0,.3-.566c-1.467-4.7-.92-6.892-.914-6.914a.452.452,0,0,0-.872-.239c-.027.1-.637,2.422.922,7.422A.454.454,0,0,0,1622.058,745.466Z" transform="translate(-1605.672 -716.497)" fill="#51337b"/>
              <path id="Path_9081" data-name="Path 9081" d="M1620.561,755.314a.436.436,0,0,0,.226-.062c3.107-1.8,2.551-6.437,2.526-6.634a.464.464,0,0,0-.5-.391.453.453,0,0,0-.392.5c0,.042.5,4.242-2.08,5.738a.452.452,0,0,0,.226.844Z" transform="translate(-1606.162 -718.578)" fill="#51337b"/>
            </g>
            <g id="Group_2307" data-name="Group 2307" transform="translate(0)">
              <path id="Path_9085" data-name="Path 9085" d="M1643.763,713.164a3.5,3.5,0,0,0,.074-2.439c-.411-1.314-1.353-3.351-3.238-3.337-2.78.022-3.927-1.582-4.681-3.353s-4.769-1.92-6.8-.128-3.522,1.008-5.2,1.97-1.382,1.531-1.1,3.273-1.24,1.243-3.135,2.971-.9,3.026-.9,4.655-3.054.97-2.3,4.37.278,2.436-.208,4.97c-.4,2.068,1.378,3.607,1.918,3.483,1.876-.43.882,1.15,1.491,2.067,1.164,1.756-.466,3.511,2.521,4.011,1.8.3,1.8,1.292,4.547.853,1.784-.285,2.146.239,2.835-.984s1.878-2.824.73-4.427-1.088-1.1-.426-2.2c1.042-1.727-4.906-2.269-3.452-5.27,1.809-3.737,3.674,1.806,4.056-2.889.27-3.317,2.234-.761,3.736-3.238s1.218-2.2,4.982-2.644C1642.333,714.51,1642.983,714.961,1643.763,713.164Z" transform="translate(-1615.763 -702.174)" fill="#484848"/>
              <path id="Path_9086" data-name="Path 9086" d="M1625.411,736.984a8.236,8.236,0,0,0,1.288-.114,8.726,8.726,0,0,1,1.233-.1,1.8,1.8,0,0,0,1.925-1.106l.228-.4c.707-1.2,1.672-2.845.474-4.517-.2-.286-.371-.506-.5-.68a3.774,3.774,0,0,1-.313-.446c.016.036.085-.07.144-.162.073-.11.164-.245.267-.417a1.15,1.15,0,0,0,.157-.9c-.167-.668-.9-1.108-1.756-1.618-1.491-.893-2.425-1.569-1.832-2.791.7-1.442,1.217-1.209,1.933-.887a1.42,1.42,0,0,0,1.355.131c.466-.276.7-.94.812-2.293.116-1.429.453-1.465,1.191-1.542a2.853,2.853,0,0,0,2.481-1.5l.141-.233c1.1-1.818,1.1-1.818,3.535-2.087l.971-.108c.689-.082,1.257-.122,1.732-.155,1.7-.123,2.475-.179,3.191-1.827a3.961,3.961,0,0,0,.091-2.754c-.738-2.358-2.033-3.653-3.65-3.653h-.074c-2.549,0-3.531-1.478-4.211-3.077a2.92,2.92,0,0,0-2.181-1.538,6.406,6.406,0,0,0-5.329,1.247,5,5,0,0,1-2.961,1.264,5.831,5.831,0,0,0-2.168.654c-1.715.979-1.667,1.748-1.408,3.258l.079.478c.115.72-.079.814-.9,1.21a8.123,8.123,0,0,0-2.095,1.357,3.588,3.588,0,0,0-1.177,3.834,6.889,6.889,0,0,1,.128,1.155c0,.353-.217.517-.786.861-.857.519-2.032,1.23-1.508,3.606.5,2.269.437,2.464.2,3.194a12.038,12.038,0,0,0-.412,1.594,3.793,3.793,0,0,0,1.112,3.4c.23.222.823.726,1.352.606.5-.115.617-.034.62-.032a1.529,1.529,0,0,1,.076.561,2.5,2.5,0,0,0,.316,1.348,3.217,3.217,0,0,1,.447,1.678c.071,1.011.151,2.156,2.377,2.529a4.587,4.587,0,0,1,1.341.458A4.2,4.2,0,0,0,1625.411,736.984Zm2.45-15.276c-.623,0-1.329.345-1.955,1.636-1,2.059.917,3.2,2.183,3.962.593.355,1.265.758,1.341,1.061.007.026.022.088-.052.212-.1.158-.178.281-.246.381-.473.71-.349.93.2,1.656.129.17.291.383.49.66.792,1.108.285,2.164-.52,3.533l-.237.41c-.352.624-.459.627-1.161.646a9.637,9.637,0,0,0-1.352.113,3.855,3.855,0,0,1-2.819-.318,5.455,5.455,0,0,0-1.582-.534c-1.523-.255-1.557-.738-1.625-1.7a4.068,4.068,0,0,0-.594-2.115,1.757,1.757,0,0,1-.168-.877,1.5,1.5,0,0,0-.427-1.247,1.661,1.661,0,0,0-1.373-.133,2.182,2.182,0,0,1-.825-.718,2.835,2.835,0,0,1-.549-2.24,11.288,11.288,0,0,1,.384-1.487c.3-.917.353-1.257-.178-3.665-.385-1.744.3-2.158,1.092-2.638.543-.329,1.22-.738,1.222-1.634a7.62,7.62,0,0,0-.141-1.306,2.716,2.716,0,0,1,.895-3.016,7.219,7.219,0,0,1,1.881-1.209c.83-.4,1.616-.784,1.4-2.167l-.083-.488c-.229-1.334-.276-1.611.966-2.321a5.074,5.074,0,0,1,1.859-.545,5.892,5.892,0,0,0,3.42-1.479,5.51,5.51,0,0,1,4.532-1.043,2.069,2.069,0,0,1,1.548,1.011c.72,1.69,1.943,3.627,5.044,3.627h.073c1.6,0,2.433,1.89,2.786,3.019a3.053,3.053,0,0,1-.057,2.124c-.5,1.146-.791,1.167-2.426,1.284-.485.036-1.066.077-1.771.159l-.965.108c-2.8.309-2.918.381-4.211,2.518l-.141.233a1.983,1.983,0,0,1-1.8,1.068c-1.031.109-1.834.351-2,2.369-.119,1.449-.369,1.587-.371,1.588a1.581,1.581,0,0,1-.524-.178,2.863,2.863,0,0,0-1.163-.32Z" transform="translate(-1615.648 -702.067)" fill="#444"/>
            </g>
          </g>
          <g id="Group_2309" data-name="Group 2309" transform="translate(18.672 55.595)">
            <path id="Path_9087" data-name="Path 9087" d="M1625.879,733.183a6.391,6.391,0,0,0-4.655-4.831c-1.677-.4-3.291-.189-3.032,2.29.517,4.957,5.5,10.722,5.5,10.722l2.893-1.7a33.338,33.338,0,0,0-.706-6.481Z" transform="translate(-1618.164 -728.192)" fill="#fbe6af"/>
          </g>
          <g id="Group_2311" data-name="Group 2311" transform="translate(0.172 63.649)">
            <g id="Group_2310" data-name="Group 2310">
              <path id="Path_9089" data-name="Path 9089" d="M1604.837,751.746a16.189,16.189,0,0,0,.031,11.824c3.177,6.767,21.707,18.986,28.564,17.169,19.162-5.08,1.6-34.025-.062-37.724-1.383-3.073-4.858-7.468-8.623-2.845-4.985,6.122,5.5,24.345,5.5,24.345-4.243-.466-12.367-10.455-15.775-15.082C1611.887,745.909,1606.407,747.835,1604.837,751.746Z" transform="translate(-1603.734 -738.162)" fill="#44bb64"/>
            </g>
          </g>
          <g id="Group_2314" data-name="Group 2314" transform="translate(32.43)">
            <path id="Path_9093" data-name="Path 9093" d="M1537.154,692.687h29.4c13.664,0,24.845,9.619,24.845,21.375s-11.181,21.375-24.845,21.375h-31.608c-.692,0-1.375-.031-2.052-.084-2.122,2.653-7.338,8.276-13.726,8.682,0,0,5.019-4.728,7.386-10-8.328-2.884-14.249-9.912-14.249-18.078v-1.9C1512.3,702.306,1523.484,692.687,1537.154,692.687Z" transform="translate(-1512.018 -692.44)" fill="#fff"/>
            <path id="Path_9094" data-name="Path 9094" d="M1519.12,744.224c6.472-.411,11.773-6.1,13.846-8.67.67.048,1.3.073,1.911.073h31.608c13.858,0,25.133-9.7,25.133-21.623s-11.275-21.623-25.133-21.623h-29.4c-13.858,0-25.133,9.7-25.133,21.623v1.9c0,8.005,5.551,15.128,14.165,18.215a37.8,37.8,0,0,1-7.226,9.7l-.488.46Zm47.364-51.348c13.541,0,24.558,9.478,24.558,21.127s-11.017,21.128-24.558,21.128h-31.608c-.646,0-1.31-.027-2.026-.083l-.167-.013-.1.12c-1.879,2.35-6.788,7.739-12.788,8.506a36.763,36.763,0,0,0,6.953-9.593l.1-.228-.263-.091c-8.546-2.959-14.069-9.966-14.069-17.849V714c0-11.65,11.017-21.127,24.558-21.127Z" transform="translate(-1511.952 -692.381)" fill="#4285f4"/>
          </g>
          <g id="Group_2315" data-name="Group 2315" transform="translate(44.035 9.311)">
            <path id="Path_9095" data-name="Path 9095" d="M1536.074,707.239h26.246a1.667,1.667,0,0,0,0-3.333h-26.246a1.667,1.667,0,0,0,0,3.333Z" transform="translate(-1514.068 -703.906)" fill="#4285f4"/>
            <path id="Path_9096" data-name="Path 9096" d="M1536.068,716.715h46.592a1.667,1.667,0,0,0,0-3.333h-46.592a1.667,1.667,0,0,0,0,3.333Z" transform="translate(-1534.401 -705.726)" fill="#4285f4"/>
            <path id="Path_9097" data-name="Path 9097" d="M1536.072,735.382h38.378a1.667,1.667,0,0,0,0-3.333h-38.378a1.667,1.667,0,0,0,0,3.333Z" transform="translate(-1526.195 -709.312)" fill="#4285f4"/>
            <path id="Path_9098" data-name="Path 9098" d="M1536.069,726.191h14.061a1.667,1.667,0,0,0,0-3.333h-14.061a1.667,1.667,0,1,0,0,3.333Z" transform="translate(-1501.873 -707.546)" fill="#4285f4"/>
          </g>
          <g id="Rectangle_1302" data-name="Rectangle 1302" transform="matrix(-0.839, 0.545, -0.545, -0.839, 26.131, 59.529)" fill="#fff" stroke="#707070" stroke-width="1">
            <rect width="7" height="12" stroke="none"/>
            <rect x="0.5" y="0.5" width="6" height="11" fill="none"/>
          </g>
        </g>
      </g>
    </g>
  </g>
</svg>
