<svg xmlns="http://www.w3.org/2000/svg" width="70.842" height="64.997" viewBox="0 0 70.842 64.997">
  <g id="Group_4678" data-name="Group 4678" transform="translate(-3672.241 -1535.129)">
    <g id="robot_1_" data-name="robot(1)" transform="translate(3672.241 1535.129)">
      <path id="Path_1358" data-name="Path 1358" d="M64.793,31.7V19.233a1.2,1.2,0,0,0-1.175-1.227H36.475V12.533a6.233,6.233,0,1,0-2.41-.059v5.531H7.224a1.2,1.2,0,0,0-1.175,1.227V31.7a7.392,7.392,0,0,0,0,14.537V63.872a1.247,1.247,0,0,0,1.175,1.28H63.618a1.247,1.247,0,0,0,1.175-1.28V46.241a7.392,7.392,0,0,0,0-14.537ZM31.6,6.39a3.824,3.824,0,1,1,3.824,3.824A3.824,3.824,0,0,1,31.6,6.39ZM2.41,38.973a4.977,4.977,0,0,1,3.639-4.8V43.77a4.978,4.978,0,0,1-3.639-4.8ZM62.383,62.742H8.459V20.416H62.383Zm2.41-18.973V34.175a4.982,4.982,0,0,1,0,9.595Zm0,0" transform="translate(0 -0.156)" fill="#1a73e8"/>
      <path id="Path_1359" data-name="Path 1359" d="M164.583,286.865a1.205,1.205,0,0,0-1.205-1.205H135.361a1.205,1.205,0,0,0-1.205,1.205v12.351a1.205,1.205,0,0,0,1.205,1.205h28.017a1.205,1.205,0,0,0,1.205-1.205Zm-2.41,1.205v3.766H136.566V288.07Zm-25.607,9.941v-3.766h25.607v3.766Zm0,0" transform="translate(-113.948 -242.655)" fill="#1a73e8"/>
      <path id="Path_1360" data-name="Path 1360" d="M135.549,186.865a1.205,1.205,0,0,0-1.205-1.205h-7.983a1.205,1.205,0,0,0-1.205,1.205v7.983a1.205,1.205,0,0,0,1.205,1.205h7.983a1.205,1.205,0,0,0,1.205-1.205Zm-7.983,1.205h5.573v5.573h-5.573Zm0,0" transform="translate(-106.304 -157.718)" fill="#1a73e8"/>
      <path id="Path_1361" data-name="Path 1361" d="M286.549,186.865a1.205,1.205,0,0,0-1.205-1.205h-7.983a1.205,1.205,0,0,0-1.205,1.205v7.983a1.205,1.205,0,0,0,1.205,1.205h7.983a1.205,1.205,0,0,0,1.205-1.205Zm-7.983,1.205h5.573v5.573h-5.573Zm0,0" transform="translate(-234.559 -157.718)" fill="#1a73e8"/>
    </g>
  </g>
</svg>
