<svg xmlns="http://www.w3.org/2000/svg" width="362.263" height="376.615" viewBox="0 0 362.263 376.615">
  <defs>
    <style>
      .cls-1 {
        fill: #f4d37e;
      }

      .cls-2 {
        fill: #444;
      }

      .cls-3 {
        fill: #bebebe;
      }

      .cls-4 {
        fill: #3199ff;
      }

      .cls-5 {
        fill: #21823b;
      }

      .cls-6 {
        fill: #e65093;
      }

      .cls-17, .cls-27, .cls-32, .cls-6 {
        opacity: 0.5;
      }

      .cls-7 {
        fill: #51337b;
      }

      .cls-8 {
        fill: #34a853;
      }

      .cls-9 {
        fill: #484848;
      }

      .cls-10 {
        fill: #fbe6af;
      }

      .cls-11 {
        fill: #44bb64;
      }

      .cls-12, .cls-18, .cls-22, .cls-23 {
        fill: #fff;
      }

      .cls-12 {
        stroke: #707070;
      }

      .cls-13 {
        fill: #d23c30;
      }

      .cls-14 {
        fill: #fea507;
      }

      .cls-15 {
        fill: #ea4335;
      }

      .cls-16, .cls-17 {
        fill: #f9b234;
      }

      .cls-19 {
        fill: #fcbb46;
      }

      .cls-20 {
        fill: #213458;
      }

      .cls-21, .cls-24, .cls-25, .cls-31 {
        fill: #4285f4;
      }

      .cls-21 {
        stroke: #34a853;
      }

      .cls-21, .cls-22 {
        stroke-width: 0.2px;
      }

      .cls-22 {
        stroke: #d5d5d5;
      }

      .cls-23, .cls-24 {
        fill-rule: evenodd;
      }

      .cls-26 {
        fill: #fbbc05;
      }

      .cls-27, .cls-28 {
        fill: #03528c;
      }

      .cls-29 {
        fill: #91b8f8;
      }

      .cls-30 {
        fill: #e8dff0;
      }

      .cls-31 {
        stroke: #fff;
      }

      .cls-32 {
        fill: #055be8;
      }

      .cls-33 {
        stroke: none;
      }

      .cls-34 {
        fill: none;
      }
    </style>
  </defs>
  <g id="Group_6294" data-name="Group 6294" transform="translate(-8439.701 -2205)">
    <g id="Group_6291" data-name="Group 6291" transform="translate(-27 22.998)">
      <g id="Group_6290" data-name="Group 6290" transform="translate(8753.332 2402.082)">
        <g id="Group_2293" data-name="Group 2293" transform="translate(0 145.834)">
          <g id="Group_2292" data-name="Group 2292" transform="translate(1.545)">
            <rect id="Rectangle_1036" data-name="Rectangle 1036" class="cls-1" width="4.402" height="5.404"/>
          </g>
          <path id="Path_9048" data-name="Path 9048" class="cls-2" d="M1634.815,916.959c-.939-.376-1.188-.023-1.778.068a7.912,7.912,0,0,1-3.525-.1c-1.577-.593-1.527,2.9-1.3,4.534l16.063-.23s.475-4.758-2.793-4.547C1639.09,916.84,1636.165,917.5,1634.815,916.959Z" transform="translate(-1627.699 -911.532)"/>
          <path id="Path_9049" data-name="Path 9049" class="cls-2" d="M1627.708,921.693l16.763-.24.035-.348c.011-.115.267-2.839-1.061-4.214a2.619,2.619,0,0,0-2.149-.767c-.738.048-1.526.142-2.29.234-1.655.2-3.365.4-4.209.065a2,2,0,0,0-1.608-.057,2.1,2.1,0,0,1-.376.1,7.681,7.681,0,0,1-3.326-.075,1.105,1.105,0,0,0-1.143.144c-1.207.966-.706,4.657-.683,4.813Zm16.033-1.016-15.343.219c-.174-1.567-.046-3.358.435-3.744.068-.054.164-.1.373-.02a8.154,8.154,0,0,0,3.722.117,3.059,3.059,0,0,0,.505-.132,1.244,1.244,0,0,1,1.067.041c1.031.413,2.764.206,4.6-.015.753-.087,1.531-.185,2.247-.23a1.833,1.833,0,0,1,1.53.527,4.861,4.861,0,0,1,.873,3.238Z" transform="translate(-1627.538 -911.364)"/>
        </g>
        <g id="Group_2295" data-name="Group 2295" transform="translate(22.796 146.183)">
          <g id="Group_2294" data-name="Group 2294" transform="translate(1.669)">
            <path id="Path_9050" data-name="Path 9050" class="cls-1" d="M1611.3,910.925l-.037,4.172,3.979-.128v-5.11Z" transform="translate(-1611.263 -909.859)"/>
          </g>
          <path id="Path_9053" data-name="Path 9053" class="cls-2" d="M1602.412,916.959c-.939-.376-1.188-.023-1.777.068a7.91,7.91,0,0,1-3.524-.1c-1.578-.593-1.527,2.9-1.3,4.534l16.064-.23s.475-4.758-2.792-4.547C1606.678,916.84,1603.753,917.5,1602.412,916.959Z" transform="translate(-1595.297 -911.882)"/>
          <path id="Path_9054" data-name="Path 9054" class="cls-2" d="M1595.306,921.693l16.762-.24.035-.348c.011-.115.267-2.839-1.061-4.214a2.613,2.613,0,0,0-2.148-.767c-.738.048-1.527.142-2.289.234-1.655.2-3.368.4-4.211.065a1.991,1.991,0,0,0-1.606-.057,2.122,2.122,0,0,1-.376.1,7.681,7.681,0,0,1-3.326-.075,1.1,1.1,0,0,0-1.142.144c-1.207.965-.707,4.657-.686,4.813Zm16.033-1.016L1596,920.9c-.17-1.567-.045-3.358.435-3.744.068-.054.164-.1.373-.02a8.154,8.154,0,0,0,3.723.117,3.042,3.042,0,0,0,.5-.132,1.237,1.237,0,0,1,1.066.041c1.03.413,2.763.207,4.6-.015.752-.087,1.531-.185,2.246-.23a1.829,1.829,0,0,1,1.529.527,4.8,4.8,0,0,1,.866,3.238Z" transform="translate(-1595.138 -911.714)"/>
        </g>
        <g id="Group_2297" data-name="Group 2297" transform="translate(20.398 86.776)">
          <rect id="Rectangle_1037" data-name="Rectangle 1037" class="cls-3" width="40.162" height="22.179" rx="5.523" transform="translate(0.349 0.352)"/>
          <path id="Path_9055" data-name="Path 9055" class="cls-2" d="M1568.849,848.3h32.392a4.242,4.242,0,0,0,4.238-4.237v-14.41a4.243,4.243,0,0,0-4.238-4.236h-32.392a4.241,4.241,0,0,0-4.236,4.236v14.409A4.242,4.242,0,0,0,1568.849,848.3Zm32.392-22.18a3.538,3.538,0,0,1,3.534,3.533v14.409a3.538,3.538,0,0,1-3.534,3.533h-32.392a3.538,3.538,0,0,1-3.533-3.533V829.649a3.537,3.537,0,0,1,3.532-3.533Z" transform="translate(-1564.613 -825.413)"/>
        </g>
        <g id="Group_2298" data-name="Group 2298" transform="translate(24.197 94.001)">
          <rect id="Rectangle_1038" data-name="Rectangle 1038" class="cls-3" width="32.264" height="9.497" rx="2.917" transform="translate(0.348 0.355)"/>
          <path id="Path_9056" data-name="Path 9056" class="cls-2" d="M1572.834,845.886H1601a2.408,2.408,0,0,0,2.4-2.4v-5.393a2.407,2.407,0,0,0-2.4-2.4h-28.16a2.407,2.407,0,0,0-2.4,2.4v5.393A2.407,2.407,0,0,0,1572.834,845.886ZM1601,836.395a1.7,1.7,0,0,1,1.7,1.7v5.393a1.7,1.7,0,0,1-1.7,1.7h-28.16a1.7,1.7,0,0,1-1.7-1.7v-5.393a1.7,1.7,0,0,1,1.7-1.7Z" transform="translate(-1570.439 -835.685)"/>
        </g>
        <g id="Group_2300" data-name="Group 2300" transform="translate(33.417 80.062)">
          <g id="Group_2299" data-name="Group 2299">
            <path id="Path_9057" data-name="Path 9057" class="cls-2" d="M1596.172,823.135l.578-.4c-3.349-4.848-6.682-7.15-9.927-6.837-4.869.469-7.623,6.634-7.737,6.9l.644.282c.027-.061,2.7-6.052,7.163-6.478C1589.85,816.324,1592.985,818.514,1596.172,823.135Z" transform="translate(-1579.086 -815.87)"/>
          </g>
        </g>
        <path id="Path_9058" data-name="Path 9058" class="cls-4" d="M1615.643,881.69s-7.7-46.829-7.7-52.2,5.412-15.443,7.905-16.45,8.317,4.068,8.317,4.068-.278,61.736-.962,64.331C1622.557,883.91,1617.341,885.439,1615.643,881.69Z" transform="translate(-1593.394 -734.929)"/>
        <path id="Path_9059" data-name="Path 9059" class="cls-4" d="M1624.345,882.353c-1.741,3.146-6.879,2.725-7.409-.831-.571-3.823.885-9.918,1.491-12.375,1.076-4.363.929-12.892.929-19.27s-3.831-31.712-1.4-34.024c2.22-2.113,20.162,2.231,22.736,3.382a.442.442,0,0,1,.238.556c-.556,1.544-2.623,7.267-3.376,9-.871,2.014-1,18.013-5.627,29.954C1629.909,863.944,1627.157,877.264,1624.345,882.353Z" transform="translate(-1616.408 -735.633)"/>
        <path id="Path_9066" data-name="Path 9066" class="cls-1" d="M1586.132,814.765a5.563,5.563,0,0,0,5.508,1.943c1.464-.339,2.636-1.137,1.466-2.966-2.338-3.657-8.466-6.2-8.466-6.2L1583.052,810A29.067,29.067,0,0,0,1586.132,814.765Z" transform="translate(-1545.293 -733.34)"/>
        <path id="Path_9068" data-name="Path 9068" class="cls-5" d="M1614.942,794.728a2.907,2.907,0,0,0,3.383-4.615c-3.249-3.4-7.085-9-9.649-17.923-3.266-11.37-6.136-22.473-6.136-22.473l-11.962,7.265s9.705,28.244,20.447,35.45a34.2,34.2,0,0,0,3.917,2.3Z" transform="translate(-1576.134 -716.194)"/>
        <path id="Path_9069" data-name="Path 9069" class="cls-6" d="M1622.624,782.043s-3.249-6.155-2.921-9.937c.381-4.41-1.627-4.855-.361-7,2.668-4.528,4.661-7.915,5.621-10.027l-12.218,5.671S1619.367,777.368,1622.624,782.043Z" transform="translate(-1597.56 -717.782)"/>
        <path id="Path_9071" data-name="Path 9071" class="cls-7" d="M1611.3,764.214a.387.387,0,0,0-.022.2c.207,1.48,1.99,5.284,3.293,8.062.489,1.041.909,1.94,1.132,2.468.805,1.924,7.794,14.1,8.091,14.614a.394.394,0,1,0,.683-.393c-.072-.126-7.26-12.646-8.047-14.526-.227-.543-.652-1.448-1.143-2.5-1.208-2.579-3.035-6.477-3.227-7.837a.394.394,0,0,0-.757-.087Z" transform="translate(-1596.099 -720.418)"/>
        <path id="Path_9073" data-name="Path 9073" class="cls-8" d="M1609.121,800.08a2.582,2.582,0,0,1-2.492-2.824c.848-8.959,1.513-36.538,1.993-43.885.435-6.685,10.9-7.094,19.069-6.605,5.312.318,10.2,12.129,10.2,14.79l-.383,36.712a2.584,2.584,0,0,1-2.664,2.612Z" transform="translate(-1606.179 -715.275)"/>
        <g id="Group_2306" data-name="Group 2306" transform="translate(7.237 6.658)">
          <path id="Path_9077" data-name="Path 9077" class="cls-1" d="M1629.97,712.666s7.935,14.922.483,16.544c0,0-3.309-.841-1.4,5.508a21.052,21.052,0,0,1,.871,4.309,4.286,4.286,0,0,1-3.89,4.628c-2.387.2-5.416-.206-6.658-3.185a51.574,51.574,0,0,1-2.987-11.32S1609.316,706.24,1629.97,712.666Z" transform="translate(-1615.22 -711.529)"/>
          <path id="Path_9079" data-name="Path 9079" class="cls-7" d="M1621.865,744.423a.4.4,0,0,0,.117-.018.394.394,0,0,0,.261-.493c-1.277-4.093-.8-6-.8-6.02a.394.394,0,0,0-.759-.208c-.023.087-.555,2.109.8,6.463A.4.4,0,0,0,1621.865,744.423Z" transform="translate(-1607.597 -719.198)"/>
          <path id="Path_9081" data-name="Path 9081" class="cls-7" d="M1620.5,754.4a.381.381,0,0,0,.2-.054c2.705-1.567,2.221-5.605,2.2-5.777a.4.4,0,0,0-.435-.34.394.394,0,0,0-.341.435c0,.037.435,3.694-1.811,5a.394.394,0,0,0,.2.735Z" transform="translate(-1607.966 -722.41)"/>
        </g>
        <g id="Group_2307" data-name="Group 2307" transform="translate(0.359)">
          <path id="Path_9085" data-name="Path 9085" class="cls-9" d="M1640.2,711.8a3.046,3.046,0,0,0,.064-2.124c-.358-1.144-1.178-2.918-2.82-2.906-2.421.019-3.419-1.378-4.076-2.92s-4.153-1.672-5.921-.111-3.067.878-4.528,1.715-1.2,1.333-.962,2.85-1.08,1.082-2.73,2.587-.784,2.635-.784,4.053-2.659.845-2,3.805.242,2.121-.181,4.328c-.348,1.8,1.2,3.141,1.67,3.033,1.634-.374.768,1,1.3,1.8,1.013,1.529-.406,3.057,2.2,3.492,1.567.261,1.567,1.125,3.959.743,1.553-.248,1.869.208,2.469-.857s1.635-2.459.635-3.855-.947-.958-.371-1.916c.907-1.5-4.272-1.976-3.006-4.589,1.575-3.254,3.2,1.573,3.532-2.516.235-2.888,1.945-.663,3.253-2.819s1.061-1.916,4.338-2.3C1638.957,712.975,1639.523,713.367,1640.2,711.8Z" transform="translate(-1615.821 -702.233)"/>
          <path id="Path_9086" data-name="Path 9086" class="cls-2" d="M1624.149,732.471a7.171,7.171,0,0,0,1.121-.1,7.6,7.6,0,0,1,1.074-.087,1.572,1.572,0,0,0,1.676-.963l.2-.348c.616-1.045,1.456-2.477.413-3.933-.174-.249-.323-.441-.435-.592a3.291,3.291,0,0,1-.273-.388c.014.031.074-.061.125-.141.064-.1.143-.213.232-.363a1,1,0,0,0,.137-.784c-.146-.582-.784-.965-1.529-1.409-1.3-.778-2.112-1.366-1.6-2.43.609-1.256,1.06-1.053,1.683-.772a1.236,1.236,0,0,0,1.18.114c.406-.24.609-.818.707-2,.1-1.244.395-1.276,1.037-1.343a2.484,2.484,0,0,0,2.16-1.306l.123-.2c.958-1.583.958-1.583,3.078-1.817l.845-.094c.6-.071,1.094-.106,1.508-.135,1.48-.107,2.155-.156,2.779-1.591a3.449,3.449,0,0,0,.079-2.4c-.643-2.053-1.77-3.181-3.178-3.181h-.064c-2.219,0-3.074-1.287-3.667-2.679a2.542,2.542,0,0,0-1.9-1.339,5.578,5.578,0,0,0-4.64,1.086,4.354,4.354,0,0,1-2.578,1.1,5.078,5.078,0,0,0-1.888.569c-1.493.852-1.451,1.522-1.226,2.837l.069.416c.1.627-.069.709-.784,1.054a7.074,7.074,0,0,0-1.824,1.182,3.124,3.124,0,0,0-1.025,3.338,6.014,6.014,0,0,1,.111,1.006c0,.307-.189.45-.684.75a2.468,2.468,0,0,0-1.313,3.14c.435,1.976.38,2.145.174,2.781a10.484,10.484,0,0,0-.359,1.388,3.3,3.3,0,0,0,.968,2.961c.2.193.717.632,1.177.528.435-.1.537-.03.54-.028a1.332,1.332,0,0,1,.066.488,2.174,2.174,0,0,0,.275,1.174,2.8,2.8,0,0,1,.389,1.461c.062.88.132,1.877,2.07,2.2a3.994,3.994,0,0,1,1.168.4A3.656,3.656,0,0,0,1624.149,732.471Zm2.133-13.3c-.542,0-1.157.3-1.7,1.425-.871,1.793.8,2.786,1.9,3.45.516.309,1.1.66,1.167.924.006.023.019.077-.045.185-.087.138-.155.245-.214.332-.412.618-.3.81.174,1.442.112.148.253.333.427.575.69.965.248,1.884-.453,3.076l-.206.357c-.307.543-.4.546-1.011.563a8.394,8.394,0,0,0-1.177.1,3.357,3.357,0,0,1-2.455-.277,4.749,4.749,0,0,0-1.378-.465c-1.326-.222-1.356-.643-1.415-1.48a3.543,3.543,0,0,0-.517-1.842,1.529,1.529,0,0,1-.146-.764,1.306,1.306,0,0,0-.372-1.086,1.446,1.446,0,0,0-1.2-.116,1.9,1.9,0,0,1-.718-.625,2.469,2.469,0,0,1-.478-1.951,9.821,9.821,0,0,1,.334-1.295c.261-.8.307-1.095-.155-3.191-.335-1.519.261-1.879.951-2.3.473-.286,1.062-.643,1.064-1.423a6.64,6.64,0,0,0-.123-1.137,2.365,2.365,0,0,1,.779-2.626,6.282,6.282,0,0,1,1.638-1.053c.723-.348,1.407-.683,1.219-1.887l-.072-.425c-.2-1.162-.24-1.4.841-2.021a4.42,4.42,0,0,1,1.619-.474,5.131,5.131,0,0,0,2.978-1.288,4.8,4.8,0,0,1,3.946-.908,1.8,1.8,0,0,1,1.348.88,4.465,4.465,0,0,0,4.392,3.158h.064c1.393,0,2.119,1.646,2.426,2.629a2.658,2.658,0,0,1-.05,1.849c-.435,1-.689,1.016-2.112,1.118-.422.031-.928.067-1.542.138l-.84.094c-2.438.269-2.541.332-3.667,2.193l-.123.2a1.727,1.727,0,0,1-1.567.93c-.9.095-1.6.306-1.742,2.063-.1,1.262-.321,1.382-.323,1.383a1.373,1.373,0,0,1-.456-.155,2.493,2.493,0,0,0-1.012-.279Z" transform="translate(-1615.648 -702.067)"/>
        </g>
        <path id="Path_9087" data-name="Path 9087" class="cls-10" d="M1624.881,732.538a5.565,5.565,0,0,0-4.053-4.207c-1.46-.348-2.866-.165-2.64,1.994.45,4.316,4.789,9.336,4.789,9.336l2.519-1.48a29.015,29.015,0,0,0-.615-5.643Z" transform="translate(-1601.906 -709.811)"/>
        <g id="Group_2310" data-name="Group 2310" transform="translate(0.15 25.394)">
          <path id="Path_9089" data-name="Path 9089" class="cls-11" d="M1604.694,749.99a14.1,14.1,0,0,0,.027,10.3c2.766,5.892,18.9,16.532,24.872,14.95,16.685-4.423,1.393-29.627-.054-32.848-1.2-2.676-4.23-6.5-7.509-2.477-4.341,5.331,4.789,21.2,4.789,21.2-3.695-.406-10.769-9.1-13.736-13.132C1610.833,744.908,1606.061,746.585,1604.694,749.99Z" transform="translate(-1603.734 -738.162)"/>
        </g>
        <g id="Rectangle_1302" data-name="Rectangle 1302" class="cls-12" transform="matrix(-0.839, 0.545, -0.545, -0.839, 22.754, 21.807)">
          <rect class="cls-33" width="6.095" height="10.449"/>
          <rect class="cls-34" x="0.5" y="0.5" width="5.095" height="9.449"/>
        </g>
      </g>
    </g>
    <g id="Group_6289" data-name="Group 6289" transform="translate(38 26)">
      <g id="Group_2239" data-name="Group 2239" transform="translate(8401.701 2535.112)">
        <path id="Path_8960" data-name="Path 8960" class="cls-1" d="M1275.321,900.331l-7.994.393c-.421.013-2.009-.488-2.148-.886l-2.211-5.184-1.409,4.555-.188,7.118,14.215-.707Z" transform="translate(-1257.648 -888.723)"/>
        <path id="Path_8961" data-name="Path 8961" class="cls-2" d="M1278.365,904.171s3.491,1.038,5.6-1.314c.345-.381-.141-.425-.625-.589-1.072-.365-2.035-3.186-2.859-4.917-2.017-4.238-.305-4.706-.61-6.807-.61-4.151-5.012-4.856-5.012-4.856Z" transform="translate(-1274.453 -885.279)"/>
        <path id="Path_8964" data-name="Path 8964" class="cls-2" d="M1278.155,904.294c3.03,1.16,5.893-1.282,6.014-1.387a.406.406,0,0,0-.033-.64c-1.663-1.169-2.762-3.05-3.922-6.72-.656-2.076-.506-2.7-.316-3.486a6.48,6.48,0,0,0,.176-2.483c-.3-3.126-4.968-4.482-5.167-4.539a.407.407,0,0,0-.511.467l3.507,18.483a.384.384,0,0,0,.021.076.406.406,0,0,0,.232.228Zm1.108-14.638a5.7,5.7,0,0,1-.157,2.211c-.2.839-.393,1.631.332,3.922,1.12,3.539,2.211,5.514,3.79,6.807a5.538,5.538,0,0,1-4.571,1.009l-3.33-17.565c1.212.467,3.743,1.661,3.934,3.617Z" transform="translate(-1274.388 -885.024)"/>
      </g>
      <path id="Path_8965" data-name="Path 8965" class="cls-13" d="M1222.229,891.272c0,3.65,2.211,10.312-.788,12.393-3.054,2.119-13.6,1.246-20.366.214a44.756,44.756,0,0,0-13.418-.342c-4.927.616-6.159.616-12.319,1.232-15.71,1.571-24.638,1.817-24.638-1.848,0-2.464,0-4.311,6.775-4.927,9.508-.865,9.239-1.232,16.631-2.464,1.372-.229,22.53-8.267,39.182-3.7l8.052-.61Z" transform="translate(7264.793 1648.013)"/>
      <g id="Group_2243" data-name="Group 2243" transform="translate(8413.058 2540.739)">
        <g id="Group_2242" data-name="Group 2242" transform="translate(8.081)">
          <path id="Path_8967" data-name="Path 8967" class="cls-1" d="M1242.534,894.158s-7.481,8.277-7.886,8.4l-4.859,1.632,5.31.714,5.3,1.59.449-4.041.381-.336.775-.681,5.737-5.037Z" transform="translate(-1229.788 -894.158)"/>
        </g>
        <path id="Path_8970" data-name="Path 8970" class="cls-2" d="M1258.307,913.712l.12-.183a5.126,5.126,0,0,0-.152-5.686.929.929,0,0,0-.781-.386,1.17,1.17,0,0,0-.9.654c-.457.813-2.572,1.464-4.357,1.333-1.834-.13-2.839-.236-3.645-.32a35.686,35.686,0,0,0-3.612-.229h-.158c-4.317,0-5.918,4.251-5.934,4.294l-.2.547Zm-13.342-4.006a35.321,35.321,0,0,1,3.546.229c.813.085,1.826.193,3.673.323,1.925.14,4.439-.534,5.123-1.744.1-.178.207-.24.244-.243.006,0,.036.016.076.068a4.155,4.155,0,0,1,.229,4.56l-17.941.018a5.636,5.636,0,0,1,4.917-3.212A.66.66,0,0,1,1244.965,909.705Z" transform="translate(-1238.693 -899.265)"/>
        <path id="Path_8971" data-name="Path 8971" class="cls-2" d="M1258.151,913.558a4.678,4.678,0,0,0-.136-5.216c-.314-.41-.746-.223-1,.223-.557.986-2.829,1.677-4.741,1.538-4.28-.3-4.077-.476-7.237-.551-4.193-.1-5.7,4.025-5.7,4.025Z" transform="translate(-1238.755 -899.518)"/>
      </g>
      <g id="Group_2245" data-name="Group 2245" transform="translate(8453.501 2503.171)">
        <path id="Path_8975" data-name="Path 8975" class="cls-14" d="M1185.379,833.425a1.068,1.068,0,0,0-1.677.385c-1.3,2.733-5.1,10.6-7.156,13.41-2.5,3.431-15.593-2.538-19.725-.686s-3.026,4.033.3,4.645c6.109,1.124,19.3,4.95,22.109,3.236C1181.811,852.847,1188.878,836.739,1185.379,833.425Z" transform="translate(-1154.149 -833.166)"/>
      </g>
      <g id="Group_2246" data-name="Group 2246" transform="translate(8447.756 2516.374)">
        <path id="Path_8977" data-name="Path 8977" class="cls-1" d="M1210.287,855.759s-2.127-2.058-4.336-.686-5.108,3.787-4.216,4.368,6.336-1.169,7.481-2.16S1210.287,855.759,1210.287,855.759Z" transform="translate(-1201.569 -854.601)"/>
      </g>
      <path id="Path_8979" data-name="Path 8979" class="cls-15" d="M1131.5,883.673c7.593-6.626,15.1-19.607,22.925-22.667,5.829-2.279,23.287,13.384,27.522,16.883l6.445-2.575,13.551,1.848s2.911,13.8-4.48,15.652c-4.762,1.191-12.561.855-18.72-.377-4.4-.88-10.673-7.268-10.673-7.268l-10.814-10.515a2.192,2.192,0,0,0-2.855.172c-2.309,2.668-9.149,7.881-13.4,10.434-3.736,2.245-5.323,4.117-7.866,2.245C1131.769,886.5,1130.5,884.554,1131.5,883.673Z" transform="translate(7297.345 1659.4)"/>
      <path id="Path_8984" data-name="Path 8984" class="cls-1" d="M1148.974,786.87a7.888,7.888,0,0,0-6.448,7.665c-.124,4.994.338,15.818,5.685,15.411,2.17-.165,1.73,1.83,1.661,3a15.956,15.956,0,0,1-.964,4.269s4.316,3.655,6.409.887,3.2-3.326,3.2-3.326-2.221-4.079-2.3-7.529a11.249,11.249,0,0,1,.843-4.707C1158.008,800.2,1157.734,785.455,1148.974,786.87Z" transform="translate(7334.333 1687.821)"/>
      <path id="Path_8986" data-name="Path 8986" class="cls-16" d="M1133.187,830.866s-1.342,1.982-4.1,6.785c-2.376,4.135-.43,5.642.117,6.526,1.384,2.235,1.067,2.7,1.17,4.325.476,7.414-.813,15.086-1.6,15.951,0,0,19.6,2.774,22.49.666,0,0-4.336-15.773-1.188-29.123,1.067-4.51-7.788-9.155-7.788-9.155S1133.461,835.6,1133.187,830.866Z" transform="translate(7350.572 1672.434)"/>
      <path id="Path_8987" data-name="Path 8987" class="cls-17" d="M1134.656,860.83s4.7,7.991,4.761,11.247.853,4.182,3.168,3.68,6.551-.691,7.669,1.046a10.053,10.053,0,0,0,2.175,2.516l-19.4-1.41s1.858-5.27,1.244-8.812A26.592,26.592,0,0,1,1134.656,860.83Z" transform="translate(7346.265 1659.38)"/>
      <path id="Path_8990" data-name="Path 8990" class="cls-18" d="M1201.636,820.245s5.7,22.879,7.5,23.761l-7.5,1.906s-7.8-24-6.114-25.083Z" transform="translate(7251.211 1674.967)"/>
      <path id="Path_8991" data-name="Path 8991" class="cls-2" d="M1201.376,846.025a.318.318,0,0,0,.076-.009l7.5-1.906a.3.3,0,0,0,.059-.576c-1.215-.6-5.145-14.767-7.338-23.558a.313.313,0,0,0-.328-.229l-6.117.578a.3.3,0,0,0-.137.047c-1.753,1.128,4.139,19.758,5.987,25.441a.3.3,0,0,0,.293.211Zm6.938-2.385-6.735,1.708c-3.646-11.247-6.9-23.27-6.175-24.421l5.742-.542C1202.161,824.442,1206.293,840.63,1208.313,843.639Z" transform="translate(7251.467 1675.159)"/>
      <path id="Path_8992" data-name="Path 8992" class="cls-2" d="M1205.685,826.814c.027,0,2.635-.233,2.635-.233a.3.3,0,0,0,.28-.334.315.315,0,0,0-.334-.28l-2.607.229a.308.308,0,0,0,.027.615Z" transform="translate(7245.536 1672.77)"/>
      <path id="Path_8993" data-name="Path 8993" class="cls-2" d="M1204.321,831.7h2.244a.308.308,0,0,0,0-.616h-2.244a.308.308,0,0,0,0,.616Z" transform="translate(7248.097 1670.805)"/>
      <path id="Path_8994" data-name="Path 8994" class="cls-2" d="M1203.248,835.616h2.139a.308.308,0,1,0,0-.616h-2.139a.308.308,0,0,0,0,.616Z" transform="translate(7249.936 1669.301)"/>
      <g id="Group_2253" data-name="Group 2253" transform="translate(8451.127 2508.1)">
        <path id="Path_8995" data-name="Path 8995" class="cls-1" d="M1199.549,849.408s-2.887-2.888-4.812-2.888-6.666-1.7-6.843-2.052c-.505-1.012-.884-3,.229-3.2,3.207-.569,9.391,1.454,9.835,1.9.963.962,3.519,4.317,3.519,4.317Z" transform="translate(-1187.401 -841.17)"/>
      </g>
      <path id="Path_8997" data-name="Path 8997" class="cls-19" d="M1147.743,856.363s8.849,6.133,14.2-1.357c4.091-5.725,13.81-16.783,10.937-20.751s-6.87-5.091-11.136.518-6.633,14.18-9.659,14.06-8.888-5.172-11.8-8.178c-2.474-2.555-5.986-.036-7.112,2.808S1137.481,848.821,1147.743,856.363Z" transform="translate(7325.288 1670.867)"/>
      <path id="Path_9002" data-name="Path 9002" class="cls-2" d="M1113.615,790.229c1.1-2.287,2.78-2.569,3.647-4.144,1.473-2.68,3.909-2.668,7.175-2.668,6.65-.008,10.917,4.161,11.758,7.658,1.265,5.26.449,4.186,3.21,7.253s5.3,2.579,5.992,9.828c.345,3.623-.92,5.279.862,8.109,2.645,4.2,4.2,7.937,2.071,12.768-1.855,4.212,1.412,5-.833,9.149s-5.206,5-8.656,1.9-6.211-3.106-5.509-9.764c.466-4.416-5.533-3.695-4.153-9.659,1.225-5.294-7.3-7.162-2.1-12.161.781-.75.358-2.452-.576-3.383-.81-.808-3.136-1.048-1.779-4.757.567-1.551-2.483-2.809-3.46-2.6-1.525.326-1.525-2.733-4.943-.745C1113.9,798.409,1111.7,794.221,1113.615,790.229Z" transform="translate(7361.773 1689.111)"/>
      <path id="Path_9003" data-name="Path 9003" class="cls-2" d="M1143.208,842.031c1.656-.285,3.132-1.6,4.388-3.919a5.887,5.887,0,0,0,.573-4.95,5.6,5.6,0,0,1,.275-4.225c2.118-4.811.768-8.6-2.1-13.15a6.32,6.32,0,0,1-.839-4.564,18.094,18.094,0,0,0,.036-3.368c-.521-5.469-2.135-6.727-4-8.184a15.29,15.29,0,0,1-2.1-1.876l-.334-.371c-1.754-1.94-1.754-1.94-2.191-4.048-.136-.656-.315-1.506-.592-2.658-.93-3.865-5.5-7.97-12.207-7.97-3.3,0-5.9.008-7.478,2.883a5.161,5.161,0,0,1-1.405,1.5,7.335,7.335,0,0,0-2.252,2.668c-1.343,2.8-.756,5.758.585,7a2.167,2.167,0,0,0,2.693.3c1.894-1.1,2.5-.522,3.145.091a1.8,1.8,0,0,0,1.677.7,3.959,3.959,0,0,1,2.745,1.175.82.82,0,0,1,.245.888c-1.19,3.253.3,4.171,1.3,4.779a3.414,3.414,0,0,1,.579.406,3,3,0,0,1,.865,2.005,1.114,1.114,0,0,1-.283.8c-3.208,3.082-1.548,5.178.059,7.206,1.186,1.5,2.412,3.045,1.924,5.155-.813,3.516.81,4.908,2.242,6.136,1.121.963,2.09,1.793,1.906,3.571-.573,5.424,1.144,6.685,3.522,8.43a26,26,0,0,1,2.119,1.677,6.479,6.479,0,0,0,4.214,1.971,4.077,4.077,0,0,0,.688-.053Zm-22.288-44.937c-.338.076-.556-.12-.946-.492-.714-.681-1.693-1.616-4.117-.206a1.361,1.361,0,0,1-1.73-.2c-1.124-1.038-1.584-3.583-.4-6.047a6.552,6.552,0,0,1,2.033-2.391,5.9,5.9,0,0,0,1.6-1.733c1.349-2.455,3.507-2.458,6.838-2.461,6.219,0,10.484,3.782,11.342,7.346.274,1.144.45,1.982.586,2.635.477,2.28.521,2.363,2.384,4.427l.333.369a16.116,16.116,0,0,0,2.2,1.974c1.787,1.4,3.2,2.5,3.686,7.624a17.323,17.323,0,0,1-.037,3.225,7.12,7.12,0,0,0,.961,5.063c2.795,4.437,4.025,7.886,2.042,12.387a6.429,6.429,0,0,0-.32,4.747,5.087,5.087,0,0,1-.5,4.368c-1.131,2.084-2.412,3.263-3.812,3.507-1.282.222-2.706-.354-4.217-1.716a27.152,27.152,0,0,0-2.183-1.731c-2.318-1.7-3.717-2.729-3.194-7.688.229-2.2-1-3.256-2.183-4.275-1.378-1.182-2.681-2.3-1.982-5.337.576-2.491-.835-4.269-2.08-5.844-1.569-1.982-2.808-3.544-.132-6.114a1.879,1.879,0,0,0,.534-1.372,3.494,3.494,0,0,0-1.83-3.114c-.945-.579-1.92-1.177-.957-3.805a1.628,1.628,0,0,0-.4-1.7,4.965,4.965,0,0,0-3.206-1.468,1.567,1.567,0,0,0-.325.024Z" transform="translate(7362.029 1689.367)"/>
    </g>
    <g id="Group_5735" data-name="Group 5735" transform="translate(-2691 2930)">
      <path id="Rectangle_1012" data-name="Rectangle 1012" class="cls-20" d="M21.161,0H160.776a21.426,21.426,0,0,1,21.161,21.682V354.833a21.426,21.426,0,0,1-21.161,21.682H21.161A21.426,21.426,0,0,1,0,354.832V21.682A21.426,21.426,0,0,1,21.161,0Z" transform="translate(11237.388 -725)"/>
      <path id="Path_11118" data-name="Path 11118" class="cls-21" d="M18.579,0H161.513a18.58,18.58,0,0,1,18.58,18.58v334.96a18.579,18.579,0,0,1-18.579,18.579H18.579A18.579,18.579,0,0,1,0,353.539V18.579A18.579,18.579,0,0,1,18.579,0Z" transform="translate(11235.101 -720.604)"/>
      <path id="Path_11117" data-name="Path 11117" class="cls-22" d="M1.627,0h158.42a1.627,1.627,0,0,1,1.627,1.627V291.789a1.627,1.627,0,0,1-1.627,1.627H1.627A1.627,1.627,0,0,1,0,291.788V1.627A1.627,1.627,0,0,1,1.627,0Z" transform="translate(11244.5 -683.06)"/>
      <path id="Path_7953" data-name="Path 7953" class="cls-23" d="M10.351,3.989a1.995,1.995,0,1,1,0-3.989H47.3a1.995,1.995,0,1,1,0,3.989ZM3.7,0a1.995,1.995,0,1,1,0,3.989H2A1.995,1.995,0,0,1,2,0Z" transform="translate(11300.5 -700.987)"/>
      <path id="Path_7954" data-name="Path 7954" class="cls-23" d="M13.051,26.1A13.05,13.05,0,1,0,0,13.051,13.05,13.05,0,0,0,13.051,26.1Z" transform="translate(11312.097 -382.859)"/>
      <g id="Group_1705" data-name="Group 1705" transform="translate(11254.628 -675.426)">
        <path id="Path_7967" data-name="Path 7967" class="cls-24" d="M.483.97a.485.485,0,1,1,0-.97H11.1a.485.485,0,0,1,0,.97Zm0,6.971a.483.483,0,0,1,0-.966H11.1a.483.483,0,1,1,0,.966Zm0-3.485a.485.485,0,1,1,0-.97H11.1a.485.485,0,0,1,0,.97Z" transform="translate(0.003 0)"/>
        <path id="Path_7968" data-name="Path 7968" class="cls-24" d="M14.234.433ZM1.472.966H7.7V5.983H1.472a.489.489,0,0,1-.353-.147.5.5,0,0,1-.152-.353V1.472A.506.506,0,0,1,1.472.966ZM13.194,0H1.472A1.477,1.477,0,0,0,0,1.472v4.01A1.477,1.477,0,0,0,1.472,6.953H13.194a1.469,1.469,0,0,0,1.007-.4l.033-.03a1.472,1.472,0,0,0,.432-1.04V1.472A1.475,1.475,0,0,0,13.194,0Z" transform="translate(126.372 0.494)"/>
      </g>
    </g>
    <g id="Group_2275" data-name="Group 2275" transform="translate(8645.119 2491.683)">
      <g id="Group_2271" data-name="Group 2271" transform="translate(0 27.429)">
        <circle id="Ellipse_362" data-name="Ellipse 362" class="cls-25" cx="1.868" cy="1.868" r="1.868" transform="translate(0 0)"/>
        <path id="Path_9021" data-name="Path 9021" class="cls-25" d="M1452.58,674.753h-39.421a.935.935,0,0,1,0-1.869h39.421a.934.934,0,0,1,0,1.869Z" transform="translate(-1403.174 -671.95)"/>
      </g>
      <g id="Group_2272" data-name="Group 2272">
        <circle id="Ellipse_363" data-name="Ellipse 363" class="cls-25" cx="1.868" cy="1.868" r="1.868" transform="translate(0 0)"/>
        <path id="Path_9022" data-name="Path 9022" class="cls-25" d="M1449.47,640.8h-36.9a.935.935,0,1,1,0-1.869h36.9a.935.935,0,0,1,0,1.869Z" transform="translate(-1403.062 -638)"/>
      </g>
      <g id="Group_2273" data-name="Group 2273" transform="translate(0 9.809)">
        <circle id="Ellipse_364" data-name="Ellipse 364" class="cls-25" cx="1.868" cy="1.868" r="1.868" transform="translate(0 0)"/>
        <path id="Path_9023" data-name="Path 9023" class="cls-25" d="M1456.39,652.944h-43.81a.935.935,0,0,1,0-1.869h43.813a.934.934,0,0,1,0,1.869Z" transform="translate(-1403.062 -650.141)"/>
      </g>
      <g id="Group_2274" data-name="Group 2274" transform="translate(0 18.619)">
        <circle id="Ellipse_365" data-name="Ellipse 365" class="cls-25" cx="1.868" cy="1.868" r="1.868" transform="translate(0 0)"/>
        <path id="Path_9024" data-name="Path 9024" class="cls-25" d="M1460.12,663.848h-46.961a.934.934,0,0,1,0-1.868h46.961a.934.934,0,0,1,0,1.868Z" transform="translate(-1403.174 -661.046)"/>
      </g>
    </g>
    <g id="Group_2283" data-name="Group 2283" transform="translate(8669.122 2451.466)">
      <g id="Group_2282" data-name="Group 2282">
        <g id="Group_2276" data-name="Group 2276" transform="translate(33.707 2.402)">
          <path id="Path_9025" data-name="Path 9025" class="cls-15" d="M1492.32,610.385a1.948,1.948,0,0,0,2.018-1.856l-.019-22.67a2.027,2.027,0,0,0-4.04,0l.019,22.671a1.948,1.948,0,0,0,2.022,1.855Z" transform="translate(-1489.874 -583.635)"/>
          <path id="Path_9026" data-name="Path 9026" class="cls-15" d="M1492.22,610.667a2.52,2.52,0,0,1-1.712-.652,2.123,2.123,0,0,1-.713-1.571l-.02-22.671a2.335,2.335,0,0,1,2.423-2.226,2.518,2.518,0,0,1,1.711.651,2.125,2.125,0,0,1,.714,1.572l.019,22.671a2.128,2.128,0,0,1-.712,1.574,2.523,2.523,0,0,1-1.71.652Zm-1.637-24.9.02,22.671a1.413,1.413,0,0,0,.475,1.046,1.71,1.71,0,0,0,2.282,0,1.414,1.414,0,0,0,.474-1.047l-.02-22.671a1.415,1.415,0,0,0-.476-1.047,1.716,1.716,0,0,0-2.282,0,1.418,1.418,0,0,0-.466,1.049Z" transform="translate(-1489.778 -583.547)"/>
        </g>
        <g id="Group_2277" data-name="Group 2277" transform="translate(25.64 15.727)">
          <path id="Path_9027" data-name="Path 9027" class="cls-26" d="M1482.32,613.534a2.026,2.026,0,0,0,2.018-2.021l-.007-8.954a2.02,2.02,0,1,0-4.04,0l.007,8.954a2.026,2.026,0,0,0,2.022,2.021Z" transform="translate(-1479.89 -600.136)"/>
          <path id="Path_9028" data-name="Path 9028" class="cls-26" d="M1482.23,613.842a2.43,2.43,0,0,1-2.426-2.421l-.007-8.955a2.424,2.424,0,1,1,4.847,0l.007,8.954a2.428,2.428,0,0,1-2.422,2.426Zm-1.151-12.518a1.6,1.6,0,0,0-.473,1.141l.006,8.956a1.616,1.616,0,0,0,3.231,0l-.007-8.954a1.613,1.613,0,0,0-2.756-1.139Z" transform="translate(-1479.794 -600.04)"/>
        </g>
        <g id="Group_2278" data-name="Group 2278" transform="translate(17.555 8.462)">
          <path id="Path_9029" data-name="Path 9029" class="cls-15" d="M1472.32,611.813a2.026,2.026,0,0,0,2.018-2.021l-.013-16.226a2.02,2.02,0,0,0-4.04,0l.013,16.226a2.026,2.026,0,0,0,2.022,2.021Z" transform="translate(-1469.883 -591.144)"/>
          <path id="Path_9030" data-name="Path 9030" class="cls-15" d="M1472.22,612.121a2.429,2.429,0,0,1-2.425-2.422l-.014-16.226a2.424,2.424,0,1,1,4.848,0l.012,16.226a2.427,2.427,0,0,1-2.422,2.425Zm-1.631-18.648.014,16.226a1.616,1.616,0,0,0,3.231,0l-.013-16.225a1.616,1.616,0,0,0-3.232,0Z" transform="translate(-1469.787 -591.048)"/>
        </g>
        <g id="Group_2279" data-name="Group 2279" transform="translate(9.469)">
          <path id="Path_9031" data-name="Path 9031" class="cls-26" d="M1462.32,609.808a2.025,2.025,0,0,0,2.018-2.021l-.019-24.7a2.02,2.02,0,0,0-4.04,0l.019,24.7a2.026,2.026,0,0,0,2.022,2.021Z" transform="translate(-1459.874 -580.67)"/>
          <path id="Path_9032" data-name="Path 9032" class="cls-26" d="M1462.22,610.116a2.429,2.429,0,0,1-2.424-2.422L1459.78,583a2.424,2.424,0,1,1,4.849,0l.019,24.7a2.429,2.429,0,0,1-2.422,2.425Zm-1.162-28.258a1.594,1.594,0,0,0-.474,1.141l.019,24.7a1.616,1.616,0,1,0,3.232,0l-.02-24.7a1.612,1.612,0,0,0-2.756-1.138Z" transform="translate(-1459.778 -580.574)"/>
        </g>
        <g id="Group_2280" data-name="Group 2280" transform="translate(1.4 12.919)">
          <path id="Path_9033" data-name="Path 9033" class="cls-15" d="M1452.32,612.886a2.026,2.026,0,0,0,2.018-2.021l-.01-11.782a2.02,2.02,0,0,0-4.04,0l.01,11.782a2.026,2.026,0,0,0,2.022,2.021Z" transform="translate(-1449.887 -596.66)"/>
          <path id="Path_9034" data-name="Path 9034" class="cls-15" d="M1452.23,613.194a2.426,2.426,0,0,1-2.426-2.421l-.01-11.783a2.424,2.424,0,0,1,4.848,0l.01,11.783a2.43,2.43,0,0,1-2.422,2.425Zm-1.153-15.346a1.606,1.606,0,0,0-.474,1.142l.01,11.783a1.616,1.616,0,0,0,3.232,0l-.009-11.783a1.614,1.614,0,0,0-2.757-1.139Z" transform="translate(-1449.791 -596.564)"/>
        </g>
        <g id="Group_2281" data-name="Group 2281" transform="translate(0 30.866)">
          <path id="Path_9035" data-name="Path 9035" class="cls-25" d="M1488.03,619.468a.4.4,0,0,0-.285-.69l-39.286.032a.4.4,0,1,0,0,.807l39.286-.032a.4.4,0,0,0,.285-.117Z" transform="translate(-1448.058 -618.778)"/>
        </g>
      </g>
    </g>
    <g id="Group_2285" data-name="Group 2285" transform="translate(8563.076 2476.172)">
      <path id="Path_9036" data-name="Path 9036" class="cls-26" d="M1320.69,627.917l14.123,27.7-1.632,31.073a31.1,31.1,0,0,1-12.491-58.777Z" transform="translate(-1303.282 -627.373)"/>
      <path id="Path_9037" data-name="Path 9037" class="cls-26" d="M1333.46,686.989l-.4-.021a31.5,31.5,0,0,1-12.654-59.539l.359-.184,14.356,28.161-.006.107Zm-13.047-58.655a30.7,30.7,0,0,0,12.284,57.8l1.6-30.559Z" transform="translate(-1303.186 -627.244)"/>
    </g>
    <g id="Group_2286" data-name="Group 2286" transform="translate(8596.19 2475.449)">
      <path id="Path_9038" data-name="Path 9038" class="cls-26" d="M1375.99,654.495a30.983,30.983,0,0,1-2.27,11.675l-28.843-11.675,14.623-27.469a31.107,31.107,0,0,1,16.49,27.469Z" transform="translate(-1344.308 -626.479)"/>
      <path id="Path_9039" data-name="Path 9039" class="cls-26" d="M1373.81,666.565l-29.633-11.994,15.024-28.222.356.19a31.534,31.534,0,0,1,14.4,39.652Zm-28.5-12.406,28.051,11.352a30.73,30.73,0,0,0-13.829-38.067Z" transform="translate(-1344.173 -626.349)"/>
    </g>
    <g id="Group_2287" data-name="Group 2287" transform="translate(8580.492 2470.59)">
      <path id="Path_9040" data-name="Path 9040" class="cls-15" d="M1354.17,624.479l-14.624,27.47-14.131-27.72c.347-.178.695-.347,1.034-.509.1-.057.218-.1.323-.153a31.2,31.2,0,0,1,27.381.9.025.025,0,0,0,.017.012Z" transform="translate(-1324.872 -620.431)"/>
      <path id="Path_9041" data-name="Path 9041" class="cls-15" d="M1339.41,652.727l-14.666-28.771.359-.183c.35-.179.7-.351,1.044-.514.071-.04.166-.082.259-.124a31.6,31.6,0,0,1,27.736.844h.572Zm-13.579-28.416,13.594,26.668,14.068-26.427a30.792,30.792,0,0,0-26.684-.713c-.146.066-.224.1-.3.14-.229.11-.449.221-.679.332Z" transform="translate(-1324.743 -620.335)"/>
    </g>
    <g id="Group_2288" data-name="Group 2288" transform="translate(8594.208 2504.155)">
      <path id="Path_9042" data-name="Path 9042" class="cls-15" d="M1372.72,674.28c-8.362,19.213-26.944,19.5-30.031,19.415-.291-.008-.444-.016-.444-.016l1.632-31.073Z" transform="translate(-1341.821 -662.018)"/>
      <path id="Path_9043" data-name="Path 9043" class="cls-15" d="M1343.24,693.967c-.256,0-.477,0-.66-.009-.3-.008-.452-.016-.452-.016l-.4-.021,1.682-32.042,29.753,12.042-.166.38C1365.02,692.624,1348.02,693.967,1343.24,693.967Zm-.667-.818c3.535.112,21.244-.341,29.511-18.792l-27.931-11.3Z" transform="translate(-1341.72 -661.879)"/>
    </g>
    <g id="Group_6293" data-name="Group 6293" transform="translate(29.277 -19)">
      <path id="Path_9168" data-name="Path 9168" class="cls-18" d="M1185.416,377.8h-34.976a29.553,29.553,0,0,0,0,59.107h37.6c.823,0,1.636-.044,2.441-.117,2.524,3.67,8.729,11.443,16.327,12,0,0-5.974-6.537-8.785-13.825a27.025,27.025,0,0,0,16.949-24.994v-2.623a29.64,29.64,0,0,0-29.553-29.552Z" transform="translate(7297.846 1903.78)"/>
      <path id="Path_9169" data-name="Path 9169" class="cls-25" d="M1206.628,448.983c-7.7-.568-14-8.441-16.471-11.987-.8.067-1.543.1-2.273.1h-37.6a29.9,29.9,0,1,1,0-59.792h34.974a29.93,29.93,0,0,1,29.9,29.9v2.622a27.192,27.192,0,0,1-16.849,25.184c2.807,7.018,8.534,13.341,8.6,13.405l.58.635ZM1150.29,377.99a29.211,29.211,0,1,0,0,58.423h37.6c.768,0,1.557-.038,2.41-.115l.2-.018.114.165c2.235,3.251,8.074,10.7,15.21,11.761a51.047,51.047,0,0,1-8.27-13.264l-.122-.315.314-.125a26.516,26.516,0,0,0,16.735-24.678V407.2a29.245,29.245,0,0,0-29.211-29.212Z" transform="translate(7297.999 1903.934)"/>
      <g id="Group_2352" data-name="Group 2352" transform="translate(8434.9 2303.732)">
        <path id="Path_9170" data-name="Path 9170" class="cls-25" d="M1145.811,410.425s-1.718,3.059-.619,4.807,2.475,2.623,1.1,4.719a8.511,8.511,0,0,0-1.009,5.026l36.816.12s1.28-4.8-.093-6.195,1.69-3.534,1.629-5.108a11.448,11.448,0,0,0-.812-3.357Z" transform="translate(-1144.488 -410.081)"/>
        <path id="Path_9171" data-name="Path 9171" class="cls-25" d="M1182.214,425.288l-37.385-.123-.037-.3a8.776,8.776,0,0,1,1.063-5.257c.966-1.476.445-2.186-.417-3.362-.224-.3-.46-.626-.683-.985-1.195-1.9.535-5.027.609-5.16l.1-.176,37.443.013.085.211a11.658,11.658,0,0,1,.84,3.477,4.439,4.439,0,0,1-1.041,2.339c-.808,1.195-1.257,1.963-.683,2.54,1.469,1.5.317,6.015.181,6.525Zm-36.763-.81,36.231.119c.351-1.446.881-4.639-.071-5.608-1.007-1.024-.148-2.292.608-3.414a4.1,4.1,0,0,0,.923-1.926,10.633,10.633,0,0,0-.7-3.025l-36.568-.013c-.328.651-1.372,2.949-.536,4.279.217.341.444.653.657.944.9,1.219,1.668,2.271.439,4.148a7.9,7.9,0,0,0-.982,4.5Z" transform="translate(-1144.334 -409.926)"/>
      </g>
      <rect id="Rectangle_1042" data-name="Rectangle 1042" class="cls-18" width="30.903" height="0.89" rx="0.445" transform="translate(8439.194 2307.732)"/>
      <rect id="Rectangle_1043" data-name="Rectangle 1043" class="cls-18" width="30.903" height="0.89" rx="0.445" transform="translate(8439.194 2310.656)"/>
      <rect id="Rectangle_1044" data-name="Rectangle 1044" class="cls-18" width="30.903" height="0.89" rx="0.445" transform="translate(8439.194 2313.518)"/>
      <path id="Path_9172" data-name="Path 9172" class="cls-25" d="M1179.57,421.065s-1.725,3.1-.621,4.875,2.485,2.659,1.1,4.787a8.7,8.7,0,0,0-1.014,5.1l37,.122s1.287-4.864-.093-6.282,1.7-3.584,1.637-5.179a11.68,11.68,0,0,0-.817-3.4Z" transform="translate(7279.931 1890.347)"/>
      <path id="Path_9173" data-name="Path 9173" class="cls-25" d="M1216.152,436.136l-37.567-.125-.037-.3a8.948,8.948,0,0,1,1.067-5.325c.974-1.5.449-2.219-.421-3.414-.224-.308-.462-.635-.688-1-1.195-1.923.538-5.09.613-5.225l.1-.178,37.626.014.085.212a11.878,11.878,0,0,1,.843,3.523,4.524,4.524,0,0,1-1.046,2.368c-.814,1.212-1.266,1.991-.69,2.583,1.474,1.514.317,6.094.18,6.611Zm-36.944-.812,36.41.12c.352-1.466.887-4.712-.073-5.7-1.009-1.036-.148-2.318.612-3.449a4.184,4.184,0,0,0,.928-1.958,10.9,10.9,0,0,0-.707-3.072l-36.749-.014c-.328.659-1.38,3-.537,4.348.217.349.445.662.66.958.9,1.233,1.673,2.3.44,4.2a8.1,8.1,0,0,0-.984,4.564Z" transform="translate(7280.085 1890.501)"/>
      <rect id="Rectangle_1045" data-name="Rectangle 1045" class="cls-18" width="30.903" height="0.89" rx="0.445" transform="translate(8463.909 2315.552)"/>
      <rect id="Rectangle_1046" data-name="Rectangle 1046" class="cls-18" width="20.602" height="0.89" rx="0.445" transform="translate(8463.909 2318.852)"/>
      <rect id="Rectangle_1047" data-name="Rectangle 1047" class="cls-18" width="20.602" height="0.89" rx="0.445" transform="translate(8463.909 2322.007)"/>
      <rect id="Rectangle_1048" data-name="Rectangle 1048" class="cls-18" width="6.549" height="4.642" rx="2.083" transform="translate(8485.752 2317.81)"/>
    </g>
    <g id="Group_2356" data-name="Group 2356" transform="translate(8584.908 2281.151)">
      <path id="Path_9174" data-name="Path 9174" class="cls-25" d="M1326.52,476.479c.724,47.756,25.073,89.772,47.016,97.6,3.018,1.077,5.952,1.995,8.813,1.683s6.135-.662,9.21-2.349c20.747-11.392,45.876-46.988,46.62-96.934.815-54.827-25-99.283-55.83-99.283S1325.68,421.653,1326.52,476.479Z" transform="translate(-1326.496 -377.196)"/>
    </g>
    <path id="Path_9175" data-name="Path 9175" class="cls-18" d="M1359.09,437.8c0,8.676,13.275,15.691,29.652,15.691s29.652-7.015,29.652-15.674c0-.1.009-.812,0-.914a88.7,88.7,0,0,1-29.652,4.863C1378.33,441.771,1368.01,440.8,1359.09,437.8Z" transform="translate(7252.15 1892.486)"/>
    <path id="Path_9176" data-name="Path 9176" class="cls-27" d="M1437.81,521.4s-12.888,42.833-25.072,49.26c-10.731,5.662-13.533,11.789-13.837,14.093-.776,5.879-9.218,7.8-13.767,8.375s-9.584-2.642-15.85-8.375c-5.592-5.116-12.672-2.569-15.849-8.941s-2.512-14.326-5.507-19.983-16.981-16.3-18.32-24.619c0,0,5.806,31.134,23.805,53.52,0,0,12.019,17.566,29.531,18.726,0,0,10.846,2.343,31.46-22.176C1414.4,581.284,1431.56,560.149,1437.81,521.4Z" transform="translate(7257.814 1876.257)"/>
    <path id="Path_9178" data-name="Path 9178" class="cls-28" d="M1385.31,609.452a9.944,9.944,0,0,0,2.133-.167c6.429-1.2,13.328-4.728,23.11-14.842,15.991-16.533,23.074-42.031,23.15-42.3a.4.4,0,0,0-.775-.223c-.076.265-7.827,26.7-22.948,41.954-13.9,14.026-18.931,14.467-25.051,14.987-9.543.811-31.141-9.963-44.222-45.376a.4.4,0,0,0-.755.279c13.231,35.82,33.186,45.574,45.065,45.686Z" transform="translate(7255.832 1870.452)"/>
    <path id="Path_9179" data-name="Path 9179" class="cls-18" d="M1359.09,437.948c0,8.676,13.275,15.691,29.652,15.691s29.652-7.015,29.652-15.674c0-.1,0-.212-.008-.313-9.125,3.2-18.893,4.263-29.644,4.263C1378.33,441.914,1368.01,440.947,1359.09,437.948Z" transform="translate(7252.15 1892.343)"/>
    <path id="Path_9184" data-name="Path 9184" class="cls-25" d="M1396.17,320.371l-2.917-24.068-2.631,23.676Z" transform="translate(7246.096 1919.492)"/>
    <circle id="Ellipse_370" data-name="Ellipse 370" class="cls-18" cx="6.072" cy="6.072" r="6.072" transform="translate(8633.414 2212.406)"/>
    <path id="Path_9185" data-name="Path 9185" class="cls-25" d="M1386.04,297.892a6.283,6.283,0,1,1,6.283,6.283,6.283,6.283,0,0,1-6.283-6.283Zm.806,0a5.207,5.207,0,1,0-.006,0Z" transform="translate(7246.977 1920.394)"/>
    <path id="Rectangle_1049" data-name="Rectangle 1049" class="cls-18" d="M17.368,0H50.133A17.368,17.368,0,0,1,67.5,17.367v1.468a15.9,15.9,0,0,1-15.9,15.9H17.368A17.368,17.368,0,0,1,0,17.368H0A17.368,17.368,0,0,1,17.368,0Z" transform="translate(8673.239 2397.661) rotate(180)"/>
    <g id="Group_2359" data-name="Group 2359" transform="translate(8632.234 2369.813)">
      <rect id="Rectangle_1050" data-name="Rectangle 1050" class="cls-29" width="33.464" height="2.16" rx="1.06" transform="translate(33.868 2.563) rotate(180)"/>
    </g>
    <g id="Group_2360" data-name="Group 2360" transform="translate(8610.843 2369.813)">
      <rect id="Rectangle_1051" data-name="Rectangle 1051" class="cls-29" width="17.262" height="2.16" rx="1.06" transform="translate(17.665 2.563) rotate(180)"/>
    </g>
    <g id="Group_2361" data-name="Group 2361" transform="translate(8646.919 2376.925)">
      <rect id="Rectangle_1052" data-name="Rectangle 1052" class="cls-29" width="18.78" height="2.16" rx="1.06" transform="translate(19.183 2.563) rotate(180)"/>
    </g>
    <g id="Group_2362" data-name="Group 2362" transform="translate(8610.843 2376.925)">
      <rect id="Rectangle_1053" data-name="Rectangle 1053" class="cls-29" width="31.699" height="2.16" rx="1.06" transform="translate(32.102 2.563) rotate(180)"/>
    </g>
    <g id="Group_2363" data-name="Group 2363" transform="translate(8613.666 2385.608)">
      <rect id="Rectangle_1054" data-name="Rectangle 1054" class="cls-29" width="51.15" height="2.16" rx="1.06" transform="translate(51.553 2.563) rotate(180)"/>
    </g>
    <rect id="Rectangle_1055" data-name="Rectangle 1055" class="cls-25" width="8.272" height="42.078" transform="translate(8690.286 2345.326) rotate(-64.665)"/>
    <path id="Path_9195" data-name="Path 9195" class="cls-25" d="M1468.72,441.658l-11.775-9.69c-5.536-4.507-11.385-4.446-14.907,1.447a10.622,10.622,0,0,0,1.448,14.907l11.775,9.69a10.59,10.59,0,1,0,13.459-16.354Z" transform="translate(7236.682 1894.049)"/>
    <path id="Rectangle_1056" data-name="Rectangle 1056" class="cls-30" d="M9.47,0h0a6.372,6.372,0,0,1,6.372,6.372V12.53A6.372,6.372,0,0,1,9.47,18.9H6.37A6.372,6.372,0,0,1,0,12.53V9.47A9.47,9.47,0,0,1,9.47,0Z" transform="translate(8725.806 2368.132) rotate(-93.726)"/>
    <path id="Path_9196" data-name="Path 9196" class="cls-25" d="M1515.58,461.808a11.539,11.539,0,0,1,14.81,17.7c-5.542,4.548-12.165,3.443-16.254-1.445a11.538,11.538,0,0,1,1.444-16.255Z" transform="translate(7222.889 1888.22)"/>
    <path id="Path_9197" data-name="Path 9197" class="cls-27" d="M1526.11,482.168s1.58-4.61,4.311-5.789,4.494-1.769,3.281-3.853-3.272-3.754-3.726-5.883-5.247-7.865-7.256-7.241c0,0,9.661-2.047,13.407,7.717,0,0,2.581,7.33-3.567,12.407C1532.56,479.526,1528.85,482.271,1526.11,482.168Z" transform="translate(7220.725 1888.2)"/>
    <rect id="Rectangle_1057" data-name="Rectangle 1057" class="cls-25" width="8.272" height="42.078" transform="translate(8585.064 2335.18) rotate(45)"/>
    <path id="Path_9205" data-name="Path 9205" class="cls-25" d="M1327.13,456.728l11.356-10.179a10.59,10.59,0,1,0-14.137-15.771l-11.355,10.177a10.59,10.59,0,1,0,14.136,15.772Z" transform="translate(7261.68 1894.181)"/>
    <path id="Path_9206" data-name="Path 9206" class="cls-30" d="M1279.38,494.929a8.5,8.5,0,0,1-.591-11.967l1.314-1.45a8.472,8.472,0,1,1,12.557,11.376l-1.314,1.45a8.5,8.5,0,0,1-11.966.591Z" transform="translate(7267.995 1884.452)"/>
    <path id="Path_11121" data-name="Path 11121" class="cls-25" d="M12.11,0A12.11,12.11,0,1,1,0,12.11,12.11,12.11,0,0,1,12.11,0Z" transform="matrix(0.973, -0.23, 0.23, 0.973, 8530.587, 2372.823)"/>
    <path id="Path_9207" data-name="Path 9207" class="cls-27" d="M1286.52,501.806s-7.027,7.973-9.635,6.345-2.635-4.5-4.829-3.063-10.249.135-9.757-3.282a12.173,12.173,0,0,0,6.441,10.7,11.212,11.212,0,0,0,11.992-.378,12.326,12.326,0,0,0,5.788-10.322Z" transform="translate(7270.747 1880.021)"/>
    <path id="Path_9216" data-name="Path 9216" class="cls-31" d="M1319.1,372.671c0,20.138,8.2,34.621,29.6,42.441,12.42,5.991,32.529,6.9,46.555,4.415,10.852-1.92,23.545-6.082,32.421-14.326,9.389-8.718,15.069-20.09,15.069-32.53,0-27.459-27.676-47.182-61.823-47.182S1319.1,345.212,1319.1,372.671Z" transform="translate(7259.832 1913.887)"/>
    <g id="Group_2367" data-name="Group 2367" transform="translate(8601.258 2271.24)">
      <path id="Path_9217" data-name="Path 9217" class="cls-18" d="M1361.88,405.8h46.172a15.038,15.038,0,0,0,15.038-15.038V378.473c0-8.306-4.872-13.344-13.555-13.344-3.75,0-14.567,2.542-23.722,2.542-7.914,0-15.6-2.105-20.2-2.556-10.967-1.072-19.26,2.524-18.863,9.606.064,1.135.09,2.566.09,3.752v12.285a15.038,15.038,0,0,0,15.04,15.042Z" transform="translate(-1346.733 -364.928)"/>
      <ellipse id="Ellipse_372" data-name="Ellipse 372" class="cls-25" cx="3.883" cy="6.919" rx="3.883" ry="6.919" transform="translate(50.03 12.459)"/>
      <ellipse id="Ellipse_373" data-name="Ellipse 373" class="cls-25" cx="3.742" cy="6.919" rx="3.742" ry="6.919" transform="translate(18.334 12.436)"/>
      <path id="Path_9218" data-name="Path 9218" class="cls-25" d="M1393.05,408.186a24.845,24.845,0,0,0,9.813-2.012l-.353-.725c-.976.48-10.045,3.895-18.29,0l-.345.73a21.337,21.337,0,0,0,9.175,2.007Z" transform="translate(-1353.867 -372.711)"/>
    </g>
    <path id="Path_9219" data-name="Path 9219" class="cls-32" d="M1440.87,366.679s-1.016,25.829-10.381,33.279c-12.056,9.591-10.362,5.328-16.427,9.612-6.438,4.549-16.838,9.272-23.87,7.418-12.127-3.2-27.037.836-31.6.764-12.393-.2-34.308-12.912-36.064-19.388,0,0,4.063,16.841,25.168,24.025,0,0,14.377,6.833,36.073,5.9,0,0,18.015.768,34.52-8.2,7.832-4.254,14.194-9.752,18.7-17.441,3.235-5.517,6.74-13.875,6.329-19.629a86.211,86.211,0,0,0-2.448-16.34Z" transform="translate(7259.174 1905.975)"/>
    <path id="Path_9221" data-name="Path 9221" class="cls-18" d="M1402.12,406.091h-40.345c-.1,0-9.8-.086-13.983-7.528a12.981,12.981,0,0,1-1.558-6.362l.009-15.61c0-3.4.374-5.6,2.419-7.927,2.471-2.82,6.318-4.334,12.2-4.3a50.36,50.36,0,0,1,11.785,1.129,57.239,57.239,0,0,0,9,1.5c5.505.431,15.849-.893,16.382-.962,1-.238,18.152-4.206,22.615,3.159a15.179,15.179,0,0,1,1.49,3.021,25.7,25.7,0,0,1,1.257,8v10.447c0,.4.009,9.759-7,12.927a30.5,30.5,0,0,1-13.415,2.522Zm-3.924-39.28-.042.007c-.107.014-10.86,1.416-16.571.969a57.863,57.863,0,0,1-9.12-1.515,49.619,49.619,0,0,0-11.662-1.18c-5.7-.028-9.364,1.687-11.686,4.336-1.916,2.185-2.064,3.96-2.066,7.161l-.009,15.61a12.184,12.184,0,0,0,1.454,5.966c3.95,7.026,13.187,7.117,13.28,7.117h40.348c3.759.015,8.456.029,13.935-2.448,6.525-2.951,6.526-12.093,6.525-12.188V380.2a24.888,24.888,0,0,0-1.217-7.742,14.046,14.046,0,0,0-1.414-2.857c-1.916-3.165-6.591-4.027-11.118-4.027a52.315,52.315,0,0,0-10.633,1.237Z" transform="translate(7254.62 1906.421)"/>
    <g id="Group_6292" data-name="Group 6292" transform="translate(-18 23)">
      <path id="Path_9223" data-name="Path 9223" class="cls-18" d="M1526.739,313.066h36.4a30.757,30.757,0,1,1,0,61.515H1524.01c-.853,0-1.7-.045-2.54-.121-2.626,3.818-9.084,11.91-16.992,12.494,0,0,6.213-6.8,9.143-14.387a28.126,28.126,0,0,1-17.637-26.013v-2.729A30.847,30.847,0,0,1,1526.739,313.066Z" transform="translate(7225.714 1916.129)"/>
      <path id="Path_9224" data-name="Path 9224" class="cls-25" d="M1503.346,387.111l.6-.661c.06-.067,6.024-6.648,8.946-13.951a28.3,28.3,0,0,1-17.536-26.209v-2.727a31.149,31.149,0,0,1,31.113-31.113h36.4a31.113,31.113,0,1,1,0,62.226h-39.127c-.76,0-1.536-.035-2.365-.1-2.566,3.691-9.128,11.883-17.139,12.476Zm23.127-73.951a30.437,30.437,0,0,0-30.4,30.4v2.729a27.592,27.592,0,0,0,17.416,25.683l.326.131-.127.328c-2.382,6.164-6.963,11.871-8.6,13.8,7.427-1.1,13.5-8.857,15.83-12.24l.119-.172.207.019c.888.08,1.707.12,2.509.12h39.127a30.4,30.4,0,1,0,0-60.8Z" transform="translate(7225.979 1916.392)"/>
      <path id="Path_9225" data-name="Path 9225" class="cls-15" d="M1629.542,349.484c.272,1.636,1.525,3.564-.7,7.719-2.655,4.951-4.72,8.9-11.805,13.875-2.661,1.868-6.929,1.123-8.168-1.351a3.3,3.3,0,0,1,.289-3.721c2.756-3.611,4.235-3.822,6.122-2.623s8.058-6.827,8.5-9.039c.166-.832.071-1.079-.11-1.067a2.845,2.845,0,0,1-2.754-1.049,3.28,3.28,0,0,1-.087-3.427c.924-2.013,2.662-3.924,4.561-4.17C1627.48,344.363,1628.86,345.383,1629.542,349.484Z" transform="translate(7177.876 1902.718)"/>
      <path id="Path_9226" data-name="Path 9226" class="cls-15" d="M1613.31,372.2a6.877,6.877,0,0,1-1.682-.206,4.835,4.835,0,0,1-3.233-2.347,3.562,3.562,0,0,1,.318-4.024c2.622-3.437,4.267-4.115,6.505-2.691a.947.947,0,0,0,.859-.063c2.366-1.01,6.844-6.978,7.208-8.791a2.769,2.769,0,0,0,.079-.711,3.047,3.047,0,0,1-2.9-1.186,3.583,3.583,0,0,1-.109-3.706c.837-1.823,2.594-4.054,4.785-4.338,2.489-.321,3.821,1.2,4.47,5.09.047.284.127.583.213.9.393,1.476.932,3.5-.947,7l-.1.178c-2.649,4.94-4.741,8.844-11.8,13.8a6.457,6.457,0,0,1-3.677,1.1Zm-.115-9.4c-1.082,0-2.251.847-4.024,3.171a3.026,3.026,0,0,0-.262,3.418,4.267,4.267,0,0,0,2.86,2.049,6.116,6.116,0,0,0,4.887-.8c6.942-4.874,9.005-8.724,11.618-13.6l.1-.178c1.771-3.3,1.287-5.12.9-6.58-.089-.332-.172-.646-.223-.954-.692-4.152-2.031-4.847-3.83-4.614-1.833.237-3.5,2.183-4.338,4a3.016,3.016,0,0,0,.066,3.149,2.646,2.646,0,0,0,2.489.924.417.417,0,0,1,.355.142c.18.2.2.569.056,1.267-.4,2-4.936,8.093-7.546,9.206a1.463,1.463,0,0,1-1.394.019,3.231,3.231,0,0,0-1.707-.622Z" transform="translate(7178.091 1902.929)"/>
      <rect id="Rectangle_1058" data-name="Rectangle 1058" class="cls-26" width="4.547" height="4.547" transform="translate(8741.293 2272.078)"/>
      <rect id="Rectangle_1059" data-name="Rectangle 1059" class="cls-26" width="4.547" height="4.547" transform="translate(8782.004 2246.621)"/>
      <rect id="Rectangle_1060" data-name="Rectangle 1060" class="cls-26" width="4.547" height="4.547" transform="translate(8777.458 2273.329)"/>
      <rect id="Rectangle_1061" data-name="Rectangle 1061" class="cls-26" width="4.547" height="4.547" transform="translate(8768.624 2277.127)"/>
      <rect id="Rectangle_1062" data-name="Rectangle 1062" class="cls-26" width="4.547" height="4.547" transform="translate(8740.944 2244.76) rotate(-9.621)"/>
      <rect id="Rectangle_1063" data-name="Rectangle 1063" class="cls-26" width="4.547" height="4.547" transform="matrix(0.986, -0.167, 0.167, 0.986, 8748.133, 2241.236)"/>
      <rect id="Rectangle_1064" data-name="Rectangle 1064" class="cls-25" width="34.884" height="13.68" transform="translate(8745.1 2254.711)"/>
    </g>
  </g>
</svg>
