<svg id="Layer_1" data-name="Layer 1" xmlns="http://www.w3.org/2000/svg" viewBox="0 0 121 121"><defs><style>.cls-1{fill:#01686d;}.cls-2{fill:#fff;}</style></defs><title>chat bawah</title><g id="Group_565" data-name="Group 565"><g id="Path_856" data-name="Path 856"><path class="cls-1" d="M60.5,119.5a58.73,58.73,0,0,1-33-10.08A59.18,59.18,0,0,1,11.58,93.49a57.92,57.92,0,0,1-5.44-10,58.91,58.91,0,0,1,5.44-55.95A59.18,59.18,0,0,1,27.51,11.58,59.07,59.07,0,0,1,83.46,6.14a57.92,57.92,0,0,1,10,5.44,59.18,59.18,0,0,1,15.93,15.93,59.07,59.07,0,0,1,5.44,55.95,57.92,57.92,0,0,1-5.44,10,59.18,59.18,0,0,1-15.93,15.93,57.92,57.92,0,0,1-10,5.44A58.51,58.51,0,0,1,60.5,119.5Z"/><path class="cls-2" d="M60.5,3a57.29,57.29,0,0,0-32.15,9.82A57.76,57.76,0,0,0,12.82,28.35a57.45,57.45,0,0,0,0,64.3,57.76,57.76,0,0,0,15.53,15.53,57.45,57.45,0,0,0,64.3,0,57.76,57.76,0,0,0,15.53-15.53,57.45,57.45,0,0,0,0-64.3A57.76,57.76,0,0,0,92.65,12.82,57.29,57.29,0,0,0,60.5,3m0-3A60.5,60.5,0,1,1,0,60.5,60.5,60.5,0,0,1,60.5,0Z"/></g><path id="Icon_feather-message-square" data-name="Icon feather-message-square" class="cls-2" d="M93.44,71.06a7.17,7.17,0,0,1-7.17,7.18H43.21L28.85,92.6s.5-23.09-.68-42S32.06,28,36,28H86.27a7.17,7.17,0,0,1,7.17,7.18h0Z"/></g></svg>