<svg id="Component_3_8" data-name="Component 3 8" xmlns="http://www.w3.org/2000/svg" viewBox="0 0 73.46 73.46"><defs><style>.cls-1{fill:#01686d;}.cls-2{fill:#fff;}.cls-3{fill:none;stroke:#fff;stroke-linecap:round;stroke-width:3px;}</style></defs><title>Close</title><g id="Path_856" data-name="Path 856"><path class="cls-1" d="M36.73,72A35.21,35.21,0,0,1,1.5,36.73,35.21,35.21,0,0,1,36.73,1.5,35.21,35.21,0,0,1,72,36.73,35.21,35.21,0,0,1,36.73,72Z"/><path class="cls-2" d="M36.73,3A33.74,33.74,0,0,0,23.6,67.81,33.74,33.74,0,0,0,49.86,5.65,33.48,33.48,0,0,0,36.73,3m0-3A36.73,36.73,0,1,1,0,36.73,36.72,36.72,0,0,1,36.73,0Z"/></g><line id="Line_289" data-name="Line 289" class="cls-3" x1="17.5" y1="20.5" x2="55.5" y2="52.5"/><line id="Line_290" data-name="Line 290" class="cls-3" x1="55.5" y1="20.5" x2="17.5" y2="52.5"/></svg>