<svg xmlns="http://www.w3.org/2000/svg" xmlns:xlink="http://www.w3.org/1999/xlink" width="208.637" height="184.437" viewBox="0 0 208.637 184.437">
  <defs>
    <clipPath id="clip-path">
      <rect id="SVGID" width="71.832" height="49.19" fill="none"/>
    </clipPath>
    <linearGradient id="linear-gradient" x1="0.567" y1="0.651" x2="0.484" y2="0.032" gradientUnits="objectBoundingBox">
      <stop offset="0" stop-color="#2573ba"/>
      <stop offset="1" stop-color="#1a4272"/>
    </linearGradient>
    <linearGradient id="linear-gradient-2" x1="69.849" y1="0.582" x2="67.97" y2="0.342" xlink:href="#linear-gradient"/>
    <linearGradient id="linear-gradient-3" x1="-0.179" y1="0.5" x2="0.483" y2="0.5" gradientUnits="objectBoundingBox">
      <stop offset="0" stop-color="#2573ba"/>
      <stop offset="0.008" stop-color="#2574ba"/>
      <stop offset="0.133" stop-color="#2e85c6"/>
      <stop offset="0.286" stop-color="#3591ce"/>
      <stop offset="0.493" stop-color="#3899d3"/>
      <stop offset="1" stop-color="#3a9bd5"/>
    </linearGradient>
    <clipPath id="clip-path-2">
      <path id="SVGID-2" data-name="SVGID" d="M429.58,242.158v56l-23.93,17.867-35.31-6.3L355.715,285.2Z" transform="translate(-355.715 -242.158)" fill="none"/>
    </clipPath>
    <linearGradient id="linear-gradient-4" x1="30.804" y1="0.5" x2="31.804" y2="0.5" gradientUnits="objectBoundingBox">
      <stop offset="0" stop-color="#2573ba"/>
      <stop offset="1" stop-color="#0063ad"/>
    </linearGradient>
    <linearGradient id="linear-gradient-5" x1="24.176" y1="0.351" x2="25.159" y2="0.753" gradientUnits="objectBoundingBox">
      <stop offset="0" stop-color="#59bdef"/>
      <stop offset="1" stop-color="#7bdaff"/>
    </linearGradient>
    <linearGradient id="linear-gradient-6" x1="269.172" y1="-139.171" x2="270.326" y2="-139.171" xlink:href="#linear-gradient-5"/>
    <linearGradient id="linear-gradient-7" x1="363.838" y1="0.5" x2="364.838" y2="0.5" gradientUnits="objectBoundingBox">
      <stop offset="0" stop-color="#7bdaff"/>
      <stop offset="1" stop-color="#59bdef"/>
    </linearGradient>
    <linearGradient id="linear-gradient-8" x1="32.422" y1="-29.631" x2="33.577" y2="-29.631" gradientUnits="objectBoundingBox">
      <stop offset="0" stop-color="#3a9bd5"/>
      <stop offset="1" stop-color="#2573ba"/>
    </linearGradient>
    <clipPath id="clip-path-3">
      <rect id="SVGID-3" data-name="SVGID" width="32.545" height="58.8" fill="none"/>
    </clipPath>
  </defs>
  <g id="Group_4678" data-name="Group 4678" transform="translate(-6923.579 -2367)">
    <g id="Group_1532" data-name="Group 1532" transform="translate(6923.941 2497.911)">
      <g id="Group_1531" data-name="Group 1531" clip-path="url(#clip-path)">
        <g id="Group_1530" data-name="Group 1530" transform="translate(9.543 2.08)">
          <path id="Path_7639" data-name="Path 7639" d="M287.173,337.938l-46.5-22.235-13.629,28.505.013.006a1.622,1.622,0,0,0,.22,1.756l14.5,21.144a6.232,6.232,0,0,0,5.159,2.209l24.634-1.915a2.383,2.383,0,0,0,1.97-.967l0,0Z" transform="translate(-226.886 -312.8)" fill="#4285f4"/>
          <path id="Path_7640" data-name="Path 7640" d="M264.153,336.755l-14.5-21.144c-.939-1.368-.151-2.6,1.759-2.747l24.634-1.915a6.232,6.232,0,0,1,5.159,2.209L295.7,334.3c.939,1.368.151,2.6-1.759,2.747l-24.635,1.915A6.231,6.231,0,0,1,264.153,336.755Z" transform="translate(-235.638 -310.935)" fill="#4285f4"/>
          <path id="Path_7641" data-name="Path 7641" d="M294.361,337.852l-24.634,1.915a6.231,6.231,0,0,1-5.158-2.209l-14.5-21.144a1.884,1.884,0,0,1-.373-1.224,1.522,1.522,0,0,0-.038,2.086l14.5,21.144a6.231,6.231,0,0,0,5.158,2.209l24.635-1.915c1.3-.1,2.067-.712,2.132-1.522A2.731,2.731,0,0,1,294.361,337.852Z" transform="translate(-235.641 -312.6)" fill="#fff"/>
        </g>
      </g>
    </g>
    <g id="Group_1533" data-name="Group 1533" transform="translate(6923.579 2463.302)">
      <path id="Path_7642" data-name="Path 7642" d="M253.307,232.192,224.8,244.27l7.4,17.472.007,0a.974.974,0,0,0,.878.6l15.283,1.886a3.745,3.745,0,0,0,3.046-1.442l8.938-11.846a1.43,1.43,0,0,0,.348-1.27h0Z" transform="translate(-224.76 -229.686)" fill="#fbbc05"/>
      <path id="Path_7643" data-name="Path 7643" d="M240.947,245.149l-15.283-1.886c-.989-.122-1.229-.965-.536-1.884l8.938-11.846a3.744,3.744,0,0,1,3.046-1.442l15.282,1.887c.989.122,1.229.965.536,1.884l-8.938,11.846A3.74,3.74,0,0,1,240.947,245.149Z" transform="translate(-224.732 -228.076)" fill="#fbbc05"/>
      <path id="Path_7644" data-name="Path 7644" d="M252.712,232.76l-8.938,11.846a3.742,3.742,0,0,1-3.046,1.442l-15.283-1.886a1.133,1.133,0,0,1-.7-.32c.021.446.337.775.923.847l15.283,1.886A3.74,3.74,0,0,0,244,245.134l8.938-11.846c.473-.628.5-1.214.164-1.565A1.641,1.641,0,0,1,252.712,232.76Z" transform="translate(-224.737 -229.503)" fill="#fff"/>
    </g>
    <g id="Group_1534" data-name="Group 1534" transform="translate(6948.805 2423.851)">
      <path id="Path_7645" data-name="Path 7645" d="M287.7,175l-14.418-11.409-6.993,8.837,0,0a.578.578,0,0,0-.062.628l3.373,8.5a2.223,2.223,0,0,0,1.62,1.176l8.72,1.281a.85.85,0,0,0,.762-.181h0Z" transform="translate(-266.171 -163.396)" fill="#4285f4"/>
      <path id="Path_7646" data-name="Path 7646" d="M281.089,172.6l-3.373-8.5c-.219-.55.153-.916.828-.816l8.72,1.281a2.221,2.221,0,0,1,1.619,1.176l3.373,8.5c.219.55-.153.916-.828.816l-8.72-1.281A2.221,2.221,0,0,1,281.089,172.6Z" transform="translate(-270.663 -163.269)" fill="#4285f4"/>
      <path id="Path_7647" data-name="Path 7647" d="M291.64,174.863l-8.72-1.281a2.224,2.224,0,0,1-1.619-1.175l-3.373-8.5a.671.671,0,0,1-.033-.455.543.543,0,0,0-.178.723l3.373,8.5a2.221,2.221,0,0,0,1.619,1.175l8.72,1.281c.461.068.776-.084.862-.361A.971.971,0,0,1,291.64,174.863Z" transform="translate(-270.664 -163.34)" fill="#fff"/>
    </g>
    <g id="Group_1535" data-name="Group 1535" transform="translate(7099.67 2508.781)">
      <path id="Path_7648" data-name="Path 7648" d="M535.531,314.519,521.113,303.11l-6.994,8.838,0,0a.578.578,0,0,0-.062.628l3.373,8.5a2.224,2.224,0,0,0,1.619,1.176l8.72,1.281a.848.848,0,0,0,.762-.18h0Z" transform="translate(-514 -302.912)" fill="#4285f4"/>
      <path id="Path_7649" data-name="Path 7649" d="M528.918,312.118l-3.374-8.5c-.218-.55.153-.916.829-.816l8.72,1.281a2.222,2.222,0,0,1,1.619,1.176l3.373,8.5c.219.55-.153.916-.829.816l-8.72-1.281A2.221,2.221,0,0,1,528.918,312.118Z" transform="translate(-518.492 -302.785)" fill="#4285f4"/>
      <path id="Path_7650" data-name="Path 7650" d="M539.469,314.379l-8.72-1.281a2.222,2.222,0,0,1-1.619-1.176l-3.373-8.5a.671.671,0,0,1-.033-.455.544.544,0,0,0-.178.723l3.374,8.5a2.221,2.221,0,0,0,1.619,1.176l8.72,1.281c.462.068.776-.085.863-.361A.976.976,0,0,1,539.469,314.379Z" transform="translate(-518.493 -302.856)" fill="#fff"/>
    </g>
    <g id="Group_1566" data-name="Group 1566" transform="translate(6962.969 2367)">
      <g id="Group_1565" data-name="Group 1565">
        <g id="Group_1540" data-name="Group 1540" transform="translate(1.054 8.704)">
          <path id="Path_7651" data-name="Path 7651" d="M291.17,94.445V185.8a7.222,7.222,0,0,0,3.016,5.762l123.666,71.4a2.68,2.68,0,0,0,.86.329v.471l1.056-.609.009,0,.108-.062h-.008a2.714,2.714,0,0,0,.992-2.4V169.325Z" transform="translate(-291.17 -88.195)" fill="#fff"/>
          <g id="Group_1539" data-name="Group 1539" transform="translate(5.291)">
            <g id="Group_1536" data-name="Group 1536">
              <path id="Path_7652" data-name="Path 7652" d="M303.047,87.155c0,1.016-.713,1.428-1.593.92a3.521,3.521,0,0,1-1.593-2.759c0-1.016.713-1.428,1.593-.92A3.522,3.522,0,0,1,303.047,87.155Z" transform="translate(-299.861 -84.178)" fill="#fff"/>
            </g>
            <g id="Group_1537" data-name="Group 1537" transform="translate(4.438 2.399)">
              <ellipse id="Ellipse_321" data-name="Ellipse 321" cx="1.301" cy="2.253" rx="1.301" ry="2.253" transform="translate(0 1.301) rotate(-30.002)" fill="#fff"/>
            </g>
            <g id="Group_1538" data-name="Group 1538" transform="translate(10.196 5.887)">
              <path id="Path_7653" data-name="Path 7653" d="M319.8,96.825c0,1.016-.713,1.428-1.593.919a3.519,3.519,0,0,1-1.593-2.759c0-1.016.713-1.428,1.593-.92A3.522,3.522,0,0,1,319.8,96.825Z" transform="translate(-316.61 -93.848)" fill="#fff"/>
            </g>
          </g>
        </g>
        <g id="Group_1545" data-name="Group 1545">
          <path id="Path_7654" data-name="Path 7654" d="M416.12,263.956l-123.666-71.4a7.223,7.223,0,0,1-3.016-5.762V95.443l129.7,74.881v91.352C419.137,263.9,417.786,264.918,416.12,263.956Z" transform="translate(-289.439 -79.881)" fill="#fff"/>
          <path id="Path_7655" data-name="Path 7655" d="M417.816,141.639,294.151,70.24a1.938,1.938,0,0,0-1.949-.17v0l-1.121.648.433.075a3.6,3.6,0,0,0-.378,1.729V84.834l128.239,74.038.405,1.45,1.053-.608V147.4A7.223,7.223,0,0,0,417.816,141.639Z" transform="translate(-290.081 -69.88)" fill="#ea4335"/>
          <path id="Path_7656" data-name="Path 7656" d="M292.455,71.238l123.666,71.4a7.222,7.222,0,0,1,3.016,5.763v12.313l-129.7-74.881V73.518C289.439,71.3,290.789,70.276,292.455,71.238Z" transform="translate(-289.439 -70.269)" fill="#ea4335"/>
          <g id="Group_1544" data-name="Group 1544" transform="translate(5.291 9.311)">
            <g id="Group_1541" data-name="Group 1541">
              <path id="Path_7657" data-name="Path 7657" d="M301.316,88.153c0,1.016-.713,1.428-1.593.92a3.522,3.522,0,0,1-1.593-2.759c0-1.016.713-1.428,1.593-.92A3.523,3.523,0,0,1,301.316,88.153Z" transform="translate(-298.13 -85.176)" fill="#fff"/>
            </g>
            <g id="Group_1542" data-name="Group 1542" transform="translate(5.098 2.943)">
              <path id="Path_7658" data-name="Path 7658" d="M309.69,92.988c0,1.016-.713,1.428-1.593.92a3.523,3.523,0,0,1-1.593-2.759c0-1.016.713-1.428,1.593-.92A3.521,3.521,0,0,1,309.69,92.988Z" transform="translate(-306.504 -90.011)" fill="#fff"/>
            </g>
            <g id="Group_1543" data-name="Group 1543" transform="translate(10.196 5.887)">
              <path id="Path_7659" data-name="Path 7659" d="M318.065,97.823c0,1.016-.713,1.428-1.593.92a3.52,3.52,0,0,1-1.593-2.759c0-1.016.713-1.428,1.593-.92A3.523,3.523,0,0,1,318.065,97.823Z" transform="translate(-314.879 -94.846)" fill="#fff"/>
            </g>
          </g>
        </g>
        <g id="Group_1549" data-name="Group 1549" transform="translate(8.41 46.026)">
          <path id="Path_7660" data-name="Path 7660" d="M303.314,146.722l7.113,4.111V149.6l-7.113-4.111Z" transform="translate(-303.277 -145.487)" fill="#4285f4"/>
          <path id="Path_7661" data-name="Path 7661" d="M316.877,154.555l3.876,2.24v-1.236l-3.876-2.24Z" transform="translate(-308.584 -148.551)" fill="#4285f4"/>
          <path id="Path_7662" data-name="Path 7662" d="M333.149,163.952l2.8,1.621v-1.236l-2.8-1.621Z" transform="translate(-314.951 -152.228)" fill="#4285f4"/>
          <path id="Path_7663" data-name="Path 7663" d="M329.79,162.011l.958.554v-1.236l-.958-.554Z" transform="translate(-313.636 -151.468)" fill="#4285f4"/>
          <path id="Path_7664" data-name="Path 7664" d="M325.146,159.326l1.74,1.006V159.1l-1.74-1.006Z" transform="translate(-311.819 -150.418)" fill="#4285f4"/>
          <path id="Path_7665" data-name="Path 7665" d="M314.125,162.245l2.8,1.621V162.63l-2.8-1.621Z" transform="translate(-307.507 -151.56)" fill="#4285f4"/>
          <path id="Path_7666" data-name="Path 7666" d="M303.314,156l5.495,3.176v-1.236l-5.495-3.176Z" transform="translate(-303.277 -149.115)" fill="#4285f4"/>
          <g id="Group_1546" data-name="Group 1546" transform="translate(7.467 24.035)">
            <path id="Path_7667" data-name="Path 7667" d="M320.164,188.889l5.495,3.176v-1.236l-5.495-3.176Z" transform="translate(-317.337 -186.019)" fill="#4285f4"/>
            <path id="Path_7668" data-name="Path 7668" d="M315.52,186.2l1.74,1.006v-1.235l-1.74-1.006Z" transform="translate(-315.52 -184.969)" fill="#4285f4"/>
          </g>
          <path id="Path_7669" data-name="Path 7669" d="M320.108,179.6l5.495,3.176v-1.236l-5.495-3.176Z" transform="translate(-309.848 -158.351)" fill="#4285f4"/>
          <path id="Path_7670" data-name="Path 7670" d="M315.464,176.919l1.74,1.006v-1.235l-1.74-1.006Z" transform="translate(-308.031 -157.301)" fill="#4285f4"/>
          <path id="Path_7671" data-name="Path 7671" d="M313.6,225.91l-10.351-5.982v1.235l10.351,5.983Z" transform="translate(-303.254 -174.612)" fill="#4285f4"/>
          <path id="Path_7672" data-name="Path 7672" d="M324.6,232.267l-2.561-1.48v1.236l2.561,1.48Z" transform="translate(-310.605 -178.861)" fill="#4285f4"/>
          <path id="Path_7673" data-name="Path 7673" d="M347.123,231.342l-10.351-5.982v1.235l10.351,5.983Z" transform="translate(-316.368 -176.737)" fill="#4285f4"/>
          <path id="Path_7674" data-name="Path 7674" d="M358.122,237.7l-2.561-1.48v1.236l2.561,1.48Z" transform="translate(-323.719 -180.986)" fill="#4285f4"/>
          <path id="Path_7675" data-name="Path 7675" d="M306.058,216.912l-2.8-1.621v1.236l2.8,1.621Z" transform="translate(-303.254 -172.798)" fill="#4285f4"/>
          <path id="Path_7676" data-name="Path 7676" d="M332.519,222.922l-2.8-1.621v1.236l2.8,1.621Z" transform="translate(-313.607 -175.149)" fill="#4285f4"/>
          <path id="Path_7677" data-name="Path 7677" d="M315.141,222.162l-5.495-3.176v1.236l5.495,3.176Z" transform="translate(-305.755 -174.243)" fill="#4285f4"/>
          <path id="Path_7678" data-name="Path 7678" d="M322.2,226.24l-1.74-1.006v1.235l1.74,1.006Z" transform="translate(-309.985 -176.688)" fill="#4285f4"/>
          <path id="Path_7679" data-name="Path 7679" d="M330.677,231.132l-5.495-3.176v1.236l5.495,3.176Z" transform="translate(-311.834 -177.753)" fill="#4285f4"/>
          <path id="Path_7680" data-name="Path 7680" d="M337.734,235.21l-1.74-1.006v1.235l1.74,1.006Z" transform="translate(-316.064 -180.198)" fill="#4285f4"/>
          <path id="Path_7681" data-name="Path 7681" d="M332.519,227.56l-2.8-1.621v1.236l2.8,1.621Z" transform="translate(-313.607 -176.964)" fill="#4285f4"/>
          <path id="Path_7682" data-name="Path 7682" d="M341.6,232.81l-5.495-3.176v1.236l5.495,3.176Z" transform="translate(-316.107 -178.409)" fill="#4285f4"/>
          <path id="Path_7683" data-name="Path 7683" d="M348.658,236.888l-1.74-1.006v1.235l1.74,1.006Z" transform="translate(-320.337 -180.854)" fill="#4285f4"/>
          <path id="Path_7684" data-name="Path 7684" d="M308.992,213.971l-5.738-3.316v1.235l5.738,3.316Z" transform="translate(-303.254 -170.984)" fill="#4285f4"/>
          <path id="Path_7685" data-name="Path 7685" d="M318.614,219.533l-4.149-2.4v1.236l4.149,2.4Z" transform="translate(-307.64 -173.519)" fill="#4285f4"/>
          <path id="Path_7686" data-name="Path 7686" d="M325.871,223.727l-2.8-1.621v1.236l2.8,1.621Z" transform="translate(-311.006 -175.464)" fill="#4285f4"/>
          <path id="Path_7687" data-name="Path 7687" d="M367.871,243.315,362.133,240v1.235l5.738,3.316Z" transform="translate(-326.291 -182.465)" fill="#4285f4"/>
          <path id="Path_7688" data-name="Path 7688" d="M377.493,248.877l-4.149-2.4v1.236l4.149,2.4Z" transform="translate(-330.677 -185)" fill="#4285f4"/>
          <path id="Path_7689" data-name="Path 7689" d="M384.75,253.071l-2.8-1.621v1.236l2.8,1.621Z" transform="translate(-334.042 -186.945)" fill="#4285f4"/>
          <path id="Path_7690" data-name="Path 7690" d="M358.781,183.39l5.738,3.316v-1.235l-5.738-3.316Z" transform="translate(-324.979 -159.833)" fill="#4285f4"/>
          <path id="Path_7691" data-name="Path 7691" d="M350.18,178.419l4.149,2.4v-1.236l-4.149-2.4Z" transform="translate(-321.614 -157.888)" fill="#4285f4"/>
          <path id="Path_7692" data-name="Path 7692" d="M343.788,174.724l2.8,1.621v-1.236l-2.8-1.621Z" transform="translate(-319.113 -156.443)" fill="#4285f4"/>
          <path id="Path_7693" data-name="Path 7693" d="M354.867,176.474l5.738,3.316v-1.235l-5.738-3.316Z" transform="translate(-323.448 -157.127)" fill="#4285f4"/>
          <path id="Path_7694" data-name="Path 7694" d="M346.266,171.5l4.149,2.4v-1.236l-4.149-2.4Z" transform="translate(-320.082 -155.182)" fill="#4285f4"/>
          <path id="Path_7695" data-name="Path 7695" d="M339.874,167.808l2.8,1.621v-1.236l-2.8-1.621Z" transform="translate(-317.581 -153.737)" fill="#4285f4"/>
          <path id="Path_7696" data-name="Path 7696" d="M321.512,185.055l1.938,1.12v-1.236l-1.938-1.12Z" transform="translate(-310.398 -160.484)" fill="#4285f4"/>
          <path id="Path_7697" data-name="Path 7697" d="M315.52,181.591l2.561,1.48v-1.236l-2.561-1.48Z" transform="translate(-308.053 -159.129)" fill="#4285f4"/>
          <path id="Path_7698" data-name="Path 7698" d="M309.052,209.362l-5.738-3.316v1.235l5.738,3.316Z" transform="translate(-303.277 -169.181)" fill="#4285f4"/>
          <path id="Path_7699" data-name="Path 7699" d="M318.674,214.924l-4.149-2.4v1.236l4.149,2.4Z" transform="translate(-307.664 -171.716)" fill="#4285f4"/>
          <path id="Path_7700" data-name="Path 7700" d="M325.931,219.118l-2.8-1.621v1.236l2.8,1.621Z" transform="translate(-311.029 -173.661)" fill="#4285f4"/>
          <path id="Path_7701" data-name="Path 7701" d="M305.252,202.53l-1.938-1.12v1.236l1.938,1.12Z" transform="translate(-303.277 -167.367)" fill="#4285f4"/>
          <path id="Path_7702" data-name="Path 7702" d="M310.844,205.762l-2.561-1.48v1.236l2.561,1.48Z" transform="translate(-305.222 -168.49)" fill="#4285f4"/>
          <path id="Path_7703" data-name="Path 7703" d="M318.4,210.13l-4.127-2.385v1.236l4.127,2.385Z" transform="translate(-307.566 -169.845)" fill="#4285f4"/>
          <path id="Path_7704" data-name="Path 7704" d="M323.492,172.27l1.938,1.12v-1.236l-1.938-1.12Z" transform="translate(-311.172 -155.482)" fill="#4285f4"/>
          <path id="Path_7705" data-name="Path 7705" d="M317.5,168.806l2.561,1.48v-1.236l-2.561-1.48Z" transform="translate(-308.827 -154.127)" fill="#4285f4"/>
          <path id="Path_7706" data-name="Path 7706" d="M308.935,163.856l4.127,2.385v-1.236l-4.127-2.385Z" transform="translate(-305.477 -152.191)" fill="#4285f4"/>
          <path id="Path_7707" data-name="Path 7707" d="M329.067,179.8l4.126,2.385v-1.236l-4.126-2.385Z" transform="translate(-313.353 -158.427)" fill="#4285f4"/>
          <path id="Path_7708" data-name="Path 7708" d="M318.036,173.752l5.562,3.215v-1.236l-5.562-3.215Z" transform="translate(-309.038 -156.062)" fill="#4285f4"/>
          <path id="Path_7709" data-name="Path 7709" d="M313.392,171.068l1.74,1.006v-1.235l-1.74-1.006Z" transform="translate(-307.221 -155.012)" fill="#4285f4"/>
          <path id="Path_7710" data-name="Path 7710" d="M308.935,168.492l1.74,1.006v-1.235l-1.74-1.006Z" transform="translate(-305.477 -154.004)" fill="#4285f4"/>
          <g id="Group_1548" data-name="Group 1548" transform="translate(0.036 27.065)">
            <path id="Path_7711" data-name="Path 7711" d="M313.523,194.69l5.495,3.176v-1.236l-5.495-3.176Z" transform="translate(-307.308 -191.32)" fill="#4285f4"/>
            <path id="Path_7712" data-name="Path 7712" d="M308.879,192.006l1.74,1.006v-1.235l-1.74-1.006Z" transform="translate(-305.491 -190.27)" fill="#4285f4"/>
            <path id="Path_7713" data-name="Path 7713" d="M314.927,200.142l1.938,1.12v-1.236l-1.938-1.12Z" transform="translate(-307.858 -193.453)" fill="#4285f4"/>
            <path id="Path_7714" data-name="Path 7714" d="M324.6,196.426l1.938,1.12V196.31l-1.938-1.12Z" transform="translate(-311.64 -191.999)" fill="#4285f4"/>
            <path id="Path_7715" data-name="Path 7715" d="M329.134,199.046l4.65,2.686V200.5l-4.65-2.686Z" transform="translate(-313.416 -193.024)" fill="#4285f4"/>
            <path id="Path_7716" data-name="Path 7716" d="M338.127,204.238l2.766,1.6V204.6l-2.766-1.6Z" transform="translate(-316.935 -195.055)" fill="#4285f4"/>
            <path id="Path_7717" data-name="Path 7717" d="M308.935,196.679l2.561,1.48v-1.236l-2.561-1.48Z" transform="translate(-305.513 -192.098)" fill="#4285f4"/>
            <g id="Group_1547" data-name="Group 1547" transform="translate(0 4.137)">
              <path id="Path_7718" data-name="Path 7718" d="M309.306,201.442l1.938,1.12v-1.236l-1.938-1.12Z" transform="translate(-305.659 -198.098)" fill="#4285f4"/>
              <path id="Path_7719" data-name="Path 7719" d="M303.314,197.979l2.561,1.48v-1.236l-2.561-1.48Z" transform="translate(-303.314 -196.743)" fill="#4285f4"/>
            </g>
            <path id="Path_7720" data-name="Path 7720" d="M319.977,193.759l1.74,1.006v-1.235l-1.74-1.006Z" transform="translate(-309.833 -190.955)" fill="#4285f4"/>
            <path id="Path_7721" data-name="Path 7721" d="M315.52,191.183l1.74,1.006v-1.235l-1.74-1.006Z" transform="translate(-308.09 -189.947)" fill="#4285f4"/>
          </g>
          <path id="Path_7722" data-name="Path 7722" d="M331.942,167.878l5.936,3.431v-1.236l-5.936-3.431Z" transform="translate(-314.478 -153.764)" fill="#4285f4"/>
          <path id="Path_7723" data-name="Path 7723" d="M321.02,161.565l5.562,3.215v-1.236l-5.562-3.215Z" transform="translate(-310.205 -151.294)" fill="#4285f4"/>
          <path id="Path_7724" data-name="Path 7724" d="M316.376,158.881l1.74,1.006v-1.235l-1.74-1.006Z" transform="translate(-308.388 -150.244)" fill="#4285f4"/>
          <path id="Path_7725" data-name="Path 7725" d="M311.919,156.305l1.74,1.006v-1.235l-1.74-1.006Z" transform="translate(-306.644 -149.236)" fill="#4285f4"/>
          <path id="Path_7726" data-name="Path 7726" d="M307.069,153.5l-3.755-2.17V150.1l3.755,2.17Z" transform="translate(-303.277 -147.29)" fill="#4285f4"/>
        </g>
        <g id="Group_1564" data-name="Group 1564" transform="translate(40.345 78.03)">
          <g id="Group_1559" data-name="Group 1559">
            <path id="Path_7727" data-name="Path 7727" d="M462,312.825v19.084L438.58,318.522Z" transform="translate(-388.136 -242.962)" fill="url(#linear-gradient)"/>
            <g id="Group_1558" data-name="Group 1558">
              <g id="Group_1550" data-name="Group 1550" transform="translate(45.473)">
                <path id="Path_7728" data-name="Path 7728" d="M435.7,201.111v49.776l25.177,14.536V215.646Z" transform="translate(-432.48 -199.254)" fill="url(#linear-gradient-2)"/>
                <path id="Path_7729" data-name="Path 7729" d="M433.629,199.917v49.776l25.177,14.536v3.694l-28.393-16.392V198.06Z" transform="translate(-430.413 -198.06)" fill="#7bdaff"/>
                <path id="Path_7730" data-name="Path 7730" d="M433.629,199.917v49.776l25.177,14.536v3.694l-28.393-16.392V198.06Z" transform="translate(-430.413 -198.06)" fill="url(#linear-gradient-3)"/>
              </g>
              <g id="Group_1557" data-name="Group 1557" transform="translate(0 26.844)">
                <g id="Group_1556" data-name="Group 1556" clip-path="url(#clip-path-2)">
                  <g id="Group_1555" data-name="Group 1555" transform="translate(8.726 2.576)">
                    <path id="Path_7731" data-name="Path 7731" d="M405.571,321.136l40.065-22.909,6.139-19.676-40.1,17.822s-16.463,12.3-16.632,12.562,8.819,11.549,8.819,11.549Z" transform="translate(-379.825 -258.972)" fill="url(#linear-gradient-4)"/>
                    <g id="Group_1551" data-name="Group 1551" transform="translate(9.778 24.543)">
                      <path id="Path_7732" data-name="Path 7732" d="M466.178,300.252l-23.1-13.339.357-.207,23.1,13.339Z" transform="translate(-408.398 -286.706)" fill="#0063ad"/>
                      <path id="Path_7733" data-name="Path 7733" d="M424.086,297.919l.357-.207,23.078,13.324-.358.207Z" transform="translate(-400.969 -291.012)" fill="#0063ad"/>
                      <path id="Path_7734" data-name="Path 7734" d="M428.508,322.027l-.358.207L405.1,308.925l.357-.207Z" transform="translate(-393.54 -295.318)" fill="#0063ad"/>
                      <path id="Path_7735" data-name="Path 7735" d="M409.647,333.106l-.344.215-23.192-13.39.358-.207Z" transform="translate(-386.111 -299.624)" fill="#0063ad"/>
                    </g>
                    <path id="Path_7736" data-name="Path 7736" d="M371.806,295.813v0L394.319,308.8l-.971-3.7.413-2.619.483-2.551,3.2-3.1,5.9-3.688,39.6-22.85-4.978-7.667-.175-2.126c2.568-1.483-.328-3.608-.328-7,0-1.882-.651-3.337-1.787-3.992-.975-.563,3.374-3.727,2.147-3.018L374.629,283.14c-2.568,1.483-4.581,5.3-4.581,8.7C370.048,293.7,370.688,295.149,371.806,295.813Z" transform="translate(-370.048 -246.389)" fill="url(#linear-gradient-5)"/>
                    <g id="Group_1552" data-name="Group 1552" transform="translate(6.065 8.874)">
                      <path id="Path_7737" data-name="Path 7737" d="M460.078,285.534l-23.1-13.339.357-.207,23.1,13.339Z" transform="translate(-402.298 -265.279)" fill="#3a9bd5"/>
                      <path id="Path_7738" data-name="Path 7738" d="M417.987,283.2l.358-.207,23.078,13.324-.358.207Z" transform="translate(-394.869 -269.585)" fill="#3a9bd5"/>
                      <path id="Path_7739" data-name="Path 7739" d="M455.947,261.174l.357-.207,23.059,13.313-.358.207Z" transform="translate(-409.721 -260.967)" fill="#3a9bd5"/>
                      <path id="Path_7740" data-name="Path 7740" d="M422.408,307.309l-.358.207L399,294.208l.357-.207Z" transform="translate(-387.44 -273.891)" fill="#3a9bd5"/>
                      <path id="Path_7741" data-name="Path 7741" d="M403.547,318.389l-.344.215-23.192-13.39.357-.207Z" transform="translate(-380.011 -278.198)" fill="#3a9bd5"/>
                    </g>
                    <g id="Group_1553" data-name="Group 1553" transform="translate(23.17 49.594)">
                      <path id="Path_7742" data-name="Path 7742" d="M408.11,335.747c0,2.693,1.89,3.784,4.222,2.437a9.33,9.33,0,0,0,4.222-7.312c0-2.692-1.89-3.783-4.222-2.437A9.332,9.332,0,0,0,408.11,335.747Z" transform="translate(-408.11 -327.858)" fill="url(#linear-gradient-6)"/>
                      <path id="Path_7743" data-name="Path 7743" d="M410.788,336.159c0,1.653,1.16,2.322,2.591,1.5a5.73,5.73,0,0,0,2.592-4.489c0-1.653-1.161-2.322-2.592-1.5A5.727,5.727,0,0,0,410.788,336.159Z" transform="translate(-409.158 -329.211)" fill="#2573ba"/>
                      <path id="Path_7744" data-name="Path 7744" d="M412.653,337.045a5.728,5.728,0,0,0,2.591-4.488,2.311,2.311,0,0,0-.292-1.207c.724.113,1.206.766,1.206,1.829a5.73,5.73,0,0,1-2.592,4.489c-1,.578-1.868.422-2.3-.29A2.145,2.145,0,0,0,412.653,337.045Z" transform="translate(-409.345 -329.224)" fill="url(#linear-gradient-7)"/>
                    </g>
                    <g id="Group_1554" data-name="Group 1554" transform="translate(22.484 15.723)">
                      <path id="Path_7745" data-name="Path 7745" d="M408.769,318.909c-1.136-.655-1.787-2.111-1.787-3.992,0-3.395,2.013-7.216,4.581-8.7l57.629-33.4a3.339,3.339,0,0,1,3.416-.225c1.136.656,1.787,2.111,1.787,3.992,0,3.394-2.013,7.216-4.581,8.7l-57.628,33.4h0a4.046,4.046,0,0,1-2.009.6A2.779,2.779,0,0,1,408.769,318.909Zm2.794-1.3,57.629-33.4c2.185-1.261,3.962-4.681,3.962-7.625,0-1.426-.425-2.49-1.166-2.918a2.2,2.2,0,0,0-2.174.225l-57.63,33.4c-2.184,1.261-3.961,4.682-3.961,7.625,0,1.426.425,2.489,1.166,2.917a2.2,2.2,0,0,0,2.174-.225Z" transform="translate(-406.982 -272.217)" fill="url(#linear-gradient-8)"/>
                    </g>
                  </g>
                </g>
              </g>
              <path id="Path_7746" data-name="Path 7746" d="M464.439,271.908l-19.627-11.459,19.627-11.383Z" transform="translate(-390.574 -218.016)" fill="#0063ad" opacity="0.5"/>
            </g>
          </g>
          <path id="Path_7747" data-name="Path 7747" d="M412.29,303.595l-15.63-9.024c-.832-.48-.728-1.32.233-1.875l15.163-8.754a3.61,3.61,0,0,1,3.248-.135l15.63,9.024c.832.48.728,1.32-.233,1.875l-15.163,8.754A3.61,3.61,0,0,1,412.29,303.595Z" transform="translate(-371.515 -231.482)" fill="#1a4272" opacity="0.5"/>
          <g id="Group_1560" data-name="Group 1560" transform="translate(20.124 24.774)">
            <path id="Path_7748" data-name="Path 7748" d="M426.4,253.079l-37.627,4.382,2.687,23.064h.01a1.193,1.193,0,0,0,.825,1.006l17.3,7.47a4.578,4.578,0,0,0,4.073-.646l14.57-10.838a1.751,1.751,0,0,0,.847-1.373h0Z" transform="translate(-388.772 -244.36)" fill="#fbbc05"/>
            <path id="Path_7749" data-name="Path 7749" d="M406.908,260.342l-17.3-7.47c-1.119-.483-1.112-1.557.018-2.4l14.57-10.838a4.58,4.58,0,0,1,4.073-.647l17.3,7.47c1.12.483,1.111,1.557-.019,2.4L410.981,259.7A4.58,4.58,0,0,1,406.908,260.342Z" transform="translate(-388.773 -238.756)" fill="#fbbc05"/>
            <path id="Path_7750" data-name="Path 7750" d="M412.532,258.729l-9.682-4.181c-.626-.27-.622-.871.01-1.341l8.155-6.066a2.562,2.562,0,0,1,2.28-.362l9.682,4.181c.626.27.622.871-.01,1.342l-8.155,6.066A2.564,2.564,0,0,1,412.532,258.729Z" transform="translate(-394.097 -241.844)" fill="#fb9005"/>
            <path id="Path_7751" data-name="Path 7751" d="M425.476,253.508l-14.57,10.838a4.578,4.578,0,0,1-4.073.646l-17.3-7.47a1.384,1.384,0,0,1-.712-.615,1.119,1.119,0,0,0,.793,1.312l17.3,7.47a4.58,4.58,0,0,0,4.073-.646l14.57-10.838c.771-.574,1.007-1.253.73-1.782A2.007,2.007,0,0,1,425.476,253.508Z" transform="translate(-388.779 -244.104)" fill="#fff"/>
          </g>
          <g id="Group_1563" data-name="Group 1563" transform="translate(17.836 6.912)">
            <g id="Group_1561" data-name="Group 1561">
              <path id="Path_7752" data-name="Path 7752" d="M421.334,229.257l-34.211-16.265-2,4.152.009,0a1.193,1.193,0,0,0,.165,1.29l10.693,15.515a4.579,4.579,0,0,0,3.794,1.615l18.1-1.448a1.752,1.752,0,0,0,1.446-.713h0Z" transform="translate(-385.013 -210.815)" fill="#fba105"/>
              <path id="Path_7753" data-name="Path 7753" d="M399.261,228.41,388.569,212.9c-.692-1-.115-1.909,1.288-2.021l18.1-1.448a4.578,4.578,0,0,1,3.794,1.614l10.693,15.515c.692,1,.115,1.909-1.289,2.022l-18.1,1.448A4.58,4.58,0,0,1,399.261,228.41Z" transform="translate(-386.29 -209.415)" fill="#fbbc05"/>
              <path id="Path_7754" data-name="Path 7754" d="M421.46,229.2l-18.1,1.448a4.581,4.581,0,0,1-3.794-1.615l-10.692-15.515a1.38,1.38,0,0,1-.276-.9,1.117,1.117,0,0,0-.025,1.533l10.692,15.515a4.58,4.58,0,0,0,3.794,1.615l18.1-1.448c.959-.077,1.518-.527,1.565-1.122A2,2,0,0,1,421.46,229.2Z" transform="translate(-386.292 -210.667)" fill="#fff"/>
            </g>
            <path id="Path_7755" data-name="Path 7755" d="M409.376,229.4l-6.253-9.074c-.4-.587-.068-1.116.754-1.182l10.586-.847a2.678,2.678,0,0,1,2.219.945l6.253,9.073c.4.587.068,1.116-.754,1.182l-10.586.847A2.679,2.679,0,0,1,409.376,229.4Z" transform="translate(-392.032 -212.887)" fill="#fb9005" opacity="0.7"/>
            <g id="Group_1562" data-name="Group 1562" transform="translate(9.533 0.982)">
              <path id="Path_7756" data-name="Path 7756" d="M421.915,222.633l-20.008-9.512-1.166,2.428,0,0a.7.7,0,0,0,.1.754l6.253,9.073a2.68,2.68,0,0,0,2.219.945l10.586-.847a1.023,1.023,0,0,0,.846-.418h0Z" transform="translate(-400.674 -211.847)" fill="#fb9005"/>
              <path id="Path_7757" data-name="Path 7757" d="M409.007,222.138l-6.253-9.074c-.4-.587-.068-1.116.753-1.182l10.586-.847a2.678,2.678,0,0,1,2.219.944l6.253,9.074c.4.587.067,1.116-.754,1.182l-10.586.846A2.677,2.677,0,0,1,409.007,222.138Z" transform="translate(-401.421 -211.029)" fill="#fbbc05"/>
            </g>
          </g>
        </g>
      </g>
    </g>
    <g id="Group_1569" data-name="Group 1569" transform="translate(7099.67 2432.41)">
      <g id="Group_1568" data-name="Group 1568" transform="translate(0 0)" clip-path="url(#clip-path-3)">
        <g id="Group_1567" data-name="Group 1567" transform="translate(4.108 17.219)">
          <path id="Path_7758" data-name="Path 7758" d="M550.882,208.291,520.86,223.235l9.16,18.4.008,0a1.056,1.056,0,0,0,.989.59l16.65,1.029a4.057,4.057,0,0,0,3.2-1.761l8.882-13.4a1.549,1.549,0,0,0,.293-1.4l0,0Z" transform="translate(-520.792 -206.662)" fill="#fbbc05"/>
          <path id="Path_7759" data-name="Path 7759" d="M538.467,223.811l-16.65-1.029c-1.077-.067-1.393-.963-.7-2l8.882-13.4a4.052,4.052,0,0,1,3.2-1.761l16.65,1.029c1.078.066,1.393.962.7,2l-8.882,13.4A4.054,4.054,0,0,1,538.467,223.811Z" transform="translate(-520.748 -205.615)" fill="#fbbc05"/>
          <path id="Path_7760" data-name="Path 7760" d="M550.279,208.95l-8.882,13.4a4.055,4.055,0,0,1-3.2,1.76l-16.65-1.029a1.226,1.226,0,0,1-.777-.3.99.99,0,0,0,1.054.855l16.65,1.029a4.054,4.054,0,0,0,3.2-1.761l8.882-13.4c.471-.71.463-1.345.074-1.7A1.776,1.776,0,0,1,550.279,208.95Z" transform="translate(-520.757 -206.471)" fill="#fff"/>
        </g>
      </g>
    </g>
  </g>
</svg>
