<svg xmlns="http://www.w3.org/2000/svg" width="49.82" height="31.875" viewBox="0 0 49.82 31.875"><defs><style>.a,.c{fill:#3c4043;}.a,.b,.d,.e,.f,.g{fill-rule:evenodd;}.b{fill:#fffffe;}.d{fill:#4285f4;}.e{fill:#34a853;}.f{fill:#fbbc04;}.g{fill:#ea4335;}</style></defs><g transform="translate(0 -0.09)"><g transform="translate(0 0.09)"><g transform="translate(0)"><path class="a" d="M45.358.09H3.95c-.144,0-.287,0-.43.007A6.232,6.232,0,0,0,2.583.18a3.156,3.156,0,0,0-.89.293A2.988,2.988,0,0,0,.383,1.782a3.14,3.14,0,0,0-.293.89,6.185,6.185,0,0,0-.083.936C0,3.751,0,3.895,0,4.038c0,.17,0,.341,0,.511V27.506c0,.171,0,.34,0,.511,0,.143,0,.287.007.43a6.181,6.181,0,0,0,.083.936,3.146,3.146,0,0,0,.293.89,2.989,2.989,0,0,0,1.31,1.308,3.156,3.156,0,0,0,.89.294,6.32,6.32,0,0,0,.937.082q.215,0,.43.006H45.869q.215,0,.431-.006a6.335,6.335,0,0,0,.937-.082,3.161,3.161,0,0,0,.89-.294,2.99,2.99,0,0,0,1.309-1.308,3.126,3.126,0,0,0,.293-.89,6.188,6.188,0,0,0,.082-.936c0-.143.006-.287.007-.43,0-.171,0-.34,0-.511V4.549c0-.171,0-.341,0-.511,0-.143,0-.286-.007-.43a6.193,6.193,0,0,0-.082-.936,3.121,3.121,0,0,0-.293-.89A2.989,2.989,0,0,0,48.127.473a3.161,3.161,0,0,0-.89-.293A6.246,6.246,0,0,0,46.3.1c-.144,0-.287-.005-.431-.007h-.511" transform="translate(0 -0.09)"/><path class="b" d="M53.36,9.148h.5c.136,0,.272,0,.409.006a5.3,5.3,0,0,1,.778.066,2.1,2.1,0,0,1,.6.195,1.932,1.932,0,0,1,.844.844,2.074,2.074,0,0,1,.194.6,5.278,5.278,0,0,1,.066.776c0,.135.006.27.006.409,0,.168,0,.335,0,.5V35.5c0,.168,0,.335,0,.506,0,.135,0,.271-.006.406a5.265,5.265,0,0,1-.066.778,2.063,2.063,0,0,1-.194.594,1.93,1.93,0,0,1-.845.844,2.08,2.08,0,0,1-.593.194,5.4,5.4,0,0,1-.775.066c-.138,0-.274.005-.415.006H11.957c-.137,0-.274,0-.407-.005a5.436,5.436,0,0,1-.778-.066,2.081,2.081,0,0,1-.6-.2,1.929,1.929,0,0,1-.843-.843,2.079,2.079,0,0,1-.195-.6,5.313,5.313,0,0,1-.066-.776c0-.136-.005-.272-.006-.407V12.041c0-.136,0-.272.006-.408a5.288,5.288,0,0,1,.067-.778,2.078,2.078,0,0,1,.194-.6,1.93,1.93,0,0,1,.844-.843,2.088,2.088,0,0,1,.6-.195,5.3,5.3,0,0,1,.778-.066c.136,0,.272-.005.408-.006h41.4" transform="translate(-8.001 -8.086)"/></g><g transform="translate(5.805 9.107)"><g transform="translate(16.762 0.894)"><path class="c" d="M1.495,7.429v4.543H.075V.758H3.84a3.347,3.347,0,0,1,2.433.975,3.27,3.27,0,0,1,.159,4.579l-.159.161a3.384,3.384,0,0,1-2.433.957Zm0-5.294V6.052h2.38a1.843,1.843,0,0,0,1.4-.581,1.993,1.993,0,0,0-.044-2.781,1.921,1.921,0,0,0-1.358-.554Z" transform="translate(-0.075 -0.757)"/><path class="c" d="M64.7,28.822a3.518,3.518,0,0,1,2.486.85,3.042,3.042,0,0,1,.908,2.343v4.731H66.74V35.681h-.062A2.7,2.7,0,0,1,64.333,37a3.019,3.019,0,0,1-2.089-.751,2.386,2.386,0,0,1-.838-1.878,2.3,2.3,0,0,1,.89-1.9,3.684,3.684,0,0,1,2.372-.706,4.226,4.226,0,0,1,2.081.465V31.9a1.692,1.692,0,0,0-.582-1.279,2.046,2.046,0,0,0-1.366-.528,2.152,2.152,0,0,0-1.878,1.02l-1.252-.8A3.419,3.419,0,0,1,64.7,28.822ZM62.87,34.393a1.166,1.166,0,0,0,.467.939,1.718,1.718,0,0,0,1.1.376,2.239,2.239,0,0,0,1.6-.671,2.125,2.125,0,0,0,.705-1.583,2.811,2.811,0,0,0-1.851-.528,2.431,2.431,0,0,0-1.446.42A1.256,1.256,0,0,0,62.87,34.393Z" transform="translate(-54.212 -25.53)"/><path class="a" d="M128.049,30.957,123.305,42h-1.464l1.763-3.863-3.112-7.181h1.543l2.248,5.509h.026l2.2-5.509Z" transform="translate(-106.369 -27.415)"/></g><g transform="translate(0 0)"><path class="d" d="M60.964,47.054a8.071,8.071,0,0,0-.106-1.306H54.872v2.477H58.3a2.985,2.985,0,0,1-1.27,1.959v1.61h2.045A6.327,6.327,0,0,0,60.964,47.054Z" transform="translate(-48.522 -40.472)"/><path class="e" d="M12.208,71.388a6.022,6.022,0,0,0,4.205-1.556l-2.045-1.61a3.765,3.765,0,0,1-2.16.617,3.8,3.8,0,0,1-3.562-2.656H6.54v1.663A6.332,6.332,0,0,0,12.208,71.388Z" transform="translate(-5.859 -58.51)"/><path class="f" d="M3.521,35.156a3.938,3.938,0,0,1,0-2.468V31.033H1.414a6.466,6.466,0,0,0,0,5.777Z" transform="translate(-0.733 -27.482)"/><path class="g" d="M12.208,3.308a3.39,3.39,0,0,1,2.433.966l1.816-1.842A6.079,6.079,0,0,0,12.208.76,6.34,6.34,0,0,0,6.54,4.31L8.647,5.973A3.8,3.8,0,0,1,12.208,3.308Z" transform="translate(-5.859 -0.759)"/></g></g></g></g></svg>