<svg xmlns="http://www.w3.org/2000/svg" xmlns:xlink="http://www.w3.org/1999/xlink" width="610.753" height="491.499" viewBox="0 0 610.753 491.499">
  <defs>
    <linearGradient id="linear-gradient" x1="0.89" y1="0.956" x2="0" y2="0.14" gradientUnits="objectBoundingBox">
      <stop offset="0" stop-color="#bab0b0"/>
      <stop offset="0.389" stop-color="#e0e9f9"/>
      <stop offset="0.611" stop-color="#eaf2ff"/>
      <stop offset="1" stop-color="#f1f3f4"/>
    </linearGradient>
    <linearGradient id="linear-gradient-2" x1="-0.052" y1="0.122" x2="0.987" y2="0.885" xlink:href="#linear-gradient"/>
    <clipPath id="clip-path">
      <rect id="SVGID" width="159.746" height="139.986" fill="none"/>
    </clipPath>
  </defs>
  <g id="Group_6142" data-name="Group 6142" transform="translate(-11034 3118)">
    <g id="Group_4695" data-name="Group 4695" transform="translate(10927 -3273)">
      <g id="Group_4679" data-name="Group 4679" transform="translate(107 155)">
        <g id="Group_4648" data-name="Group 4648">
          <g id="Group_4461" data-name="Group 4461">
            <path id="Path_10460" data-name="Path 10460" d="M2455.53,565.67q1.453,5.089,3.177,10.1c21.311,61.948,119.9,174.378,186.157,96.45,12.259-14.42,20.576-31.514,35.262-43.562a137.081,137.081,0,0,1,47.688-25.182c23.573-7.023,45.814-2.921,69.356-5.2,49.078-4.742,95.562-17.345,130.887-53.872,34.852-36.038,53.065-85.394,48.7-133.621a151.606,151.606,0,0,0-17.294-57.985q-1.687-3.157-3.519-6.236c-17.746-29.851-44.927-54.806-76.47-69.458-36.563-16.985-74.326-14.1-113.328-9.592-29.585,3.415-61.418,5.768-89.382-6.561-14.416-6.356-28.37-14.211-41.88-22.229-13.728-8.149-25.776-18.932-40.682-25.407-24.441-10.616-50.045-7.034-71.243,8.973-102.824,77.646-99.337,231.632-67.427,343.382" transform="translate(-2366.643 -207.266)" fill="url(#linear-gradient)"/>
            <path id="Path_10461" data-name="Path 10461" d="M2912.93,675.792c-13.813,33.76-45.948,58.493-85.933,56.759-54.324-2.355-100.11-43.687-144.576-70.32-11.071-6.632-22.438-12.918-34.492-17.594-27.189-10.549-60.878-8.018-87.9,2.023-22.809,8.476-43.354,28.8-62.437,43.718-29.615,23.151-74.472,19.4-106.009,1.11-84.44-48.973-95.881-181.392-34.552-252.8,81.767-95.212,225.489-101.565,335.345-57.551,59.438,23.815,112.784,63.023,154.888,111.126,33.048,37.756,67.618,85.041,72.548,136.983a98.4,98.4,0,0,1-6.884,46.549" transform="translate(-2318.283 -266.03)" fill="url(#linear-gradient-2)"/>
          </g>
        </g>
        <path id="Path_10728" data-name="Path 10728" d="M2857.99,240.7a138.071,138.071,0,0,0-35.732-21.941,214.577,214.577,0,0,0-41.508-12.888c-20.462-4.27-41.306-4.016-63.711.779-18.03,3.858-37.157,10.654-60.2,21.391-21.4,9.97-53.46,23.619-84.735,27.035-22.357,2.439-50.177,5.476-75.4,13.068-27.765,8.357-49.085,21.2-65.183,39.261-1.982,2.227-3.875,4.488-5.625,6.722a122.317,122.317,0,0,0-12.183,18.866q3.688-3.9,7.555-7.572,3.087-4.831,6.749-9.518c1.714-2.189,3.569-4.4,5.513-6.588,28.217-31.659,69.646-42.254,108.4-47.773,10.459-1.49,20.724-2.612,30.481-3.676q2.537-.277,5.074-.638c30.009-4.277,60.075-17.114,80.49-26.629,34.809-16.22,76.553-31.514,122.256-21.978,41.491,8.66,110.666,34.376,107.749,109.335-1.04,26.777-14.017,45.744-28.167,65.439q-.817,1.134-1.635,2.273c-2.511,3.488-5.109,7.1-7.648,10.757-12.728,18.335-23.3,39.253-33.273,65.827-6.232,16.608-11.687,33.944-16.963,50.709-2.905,9.234-5.909,18.78-9.031,28.176-2.7,8.129-5.608,16.346-8.822,24.473-16.421,41.563-40.8,80.772-86.252,94.006-27.776,8.085-60.556,5.717-97.429-7.039-32.65-11.3-63.586-29.816-91-53.954q-.882.18-1.769.339.886-.159,1.769-.339a327.437,327.437,0,0,1-71.91-91.368c-27.625-51.72-51.542-124-14.574-181.834q-3.866,3.672-7.555,7.572c-11.825,22.658-16.225,48.789-13.1,77.976,3.22,30,14.27,62.843,32.85,97.625a340.9,340.9,0,0,0,30.814,47.674,322.77,322.77,0,0,0,38.281,41.538q.808.736,1.621,1.461.888-.142,1.774-.3-.885.159-1.774.3c28.443,25.465,59.97,44.292,93.734,55.97,30.45,10.535,58.19,14.069,82.728,10.574a117.586,117.586,0,0,0,16.3-3.493,106.6,106.6,0,0,0,35.869-18.375,133.271,133.271,0,0,0,26.782-28.682c10.789-15.348,19.078-32.863,25.383-48.714,3.548-8.915,6.467-17.3,8.852-24.478,3.129-9.417,6.135-18.977,9.044-28.221,5.266-16.729,10.708-34.026,16.914-50.564,9.887-26.35,20.359-47.072,32.95-65.213,2.527-3.64,5.118-7.238,7.621-10.717.453-.632.91-1.264,1.361-1.894,14.513-20.185,27.892-39.571,28.972-67.367C2891.93,286.662,2880.92,260.624,2857.99,240.7Z" transform="translate(-2337.561 -182.354)" fill="#fff"/>
      </g>
    </g>
    <g id="Group_6134" data-name="Group 6134" transform="translate(406.9 -1817.88)">
      <g id="Group_1597" data-name="Group 1597" transform="translate(10978 -990.907)">
        <g id="Group_1582" data-name="Group 1582" transform="translate(4.455 93.376)">
          <g id="Group_1581" data-name="Group 1581" transform="translate(0 22.5)">
            <path id="Path_7776" data-name="Path 7776" d="M398.326,550.865s-15.094.809-18.551,2.356.523,9.383,2.94,9.713c1.769.241,16.737-1.27,18.853-3.453Z" transform="translate(-378.422 -550.865)" fill="#232323"/>
            <path id="Path_7777" data-name="Path 7777" d="M401.738,550.865s-6.549,1.394-7.769,2.983-1.432,5.915-.526,6.1,2.049,1.6,11.537-.462Z" transform="translate(-381.834 -550.865)" fill="#ffe1bd"/>
          </g>
          <path id="Path_7778" data-name="Path 7778" d="M404.247,543.84l3.349,8.841L469.768,541.3c6.063-1.339,16.565-6.9,15.212-11.665-1.643-5.789-6.379-9.487-12.358-7.807Z" transform="translate(-384.514 -521.418)" fill="#007cf8"/>
        </g>
        <g id="Group_1593" data-name="Group 1593" transform="translate(10.884)">
          <g id="Group_1592" data-name="Group 1592">
            <g id="Group_1591" data-name="Group 1591">
              <path id="Path_7779" data-name="Path 7779" d="M424.528,402.191c4.7-4.475,13.055-5.779,19.225,9.753,3.753,9.45,8.165,5.893,11.014,11.238,1.993,3.74.04,8.51,1.222,12.5,1.764,5.954,9.524,5.685,9.256,16.526-.329,13.31-62.678,17.913-76.39,2.687-5.538-6.149,1.79-10.467,4.5-14.492,2.271-3.368-1.619-6.692-1.483-12.175s9.784-10.249,11.058-13.281c1.76-4.19.3-12.892,9.961-15.4C418.694,398.049,424.528,402.191,424.528,402.191Z" transform="translate(-386.836 -399.212)" fill="#24223c"/>
              <g id="Group_1585" data-name="Group 1585" transform="translate(24.253 7.789)">
                <g id="Group_1584" data-name="Group 1584" transform="translate(1.372 4.459)">
                  <path id="Path_7780" data-name="Path 7780" d="M432.137,415.242c9.185,0,13.385,2.937,12.063,12.869-1.556,11.68-4.213,13.588-6.519,14.587l1.008,5.776,8.388,4.482,2.418,5.552-14.678,11.76-14.445-10.7,1.752-7.526,5.341-4.746.277-4.681c-2.2-1.65-3.72-3.542-4.761-12.021C421.938,422.093,421.406,415.242,432.137,415.242Z" transform="translate(-420.372 -415.242)" fill="#ffe1bd"/>
                  <g id="Group_1583" data-name="Group 1583" transform="translate(7.596 9.755)">
                    <path id="Path_7781" data-name="Path 7781" d="M443.245,430.224c-.026,1.061-.52,1.91-1.1,1.9s-1.033-.887-1.007-1.948.52-1.91,1.1-1.9S443.272,429.163,443.245,430.224Z" transform="translate(-432.867 -428.072)" fill="#2d2d2d"/>
                    <path id="Path_7782" data-name="Path 7782" d="M432.423,429.957c-.026,1.062-.52,1.911-1.1,1.9s-1.033-.887-1.007-1.948.52-1.91,1.1-1.9S432.45,428.9,432.423,429.957Z" transform="translate(-430.314 -428.009)" fill="#2d2d2d"/>
                    <path id="Path_7783" data-name="Path 7783" d="M433.037,441.319s1.216.051,2,.051a1.4,1.4,0,0,1,1.145.423,1.817,1.817,0,0,1,1.013-.355c.776,0,2.135-.12,2.135-.12a3.455,3.455,0,0,1-3.147,1.985A4.459,4.459,0,0,1,433.037,441.319Z" transform="translate(-430.956 -431.149)" fill="#fc5b53"/>
                  </g>
                </g>
                <path id="Path_7784" data-name="Path 7784" d="M433.029,414.81s.7,7.263,13.234,7.756l.456-1.366a4.629,4.629,0,0,0,.243-1.271,8.066,8.066,0,0,0-5.767-8.049l-8.422-2.474-8.2,2.548a7.954,7.954,0,0,0-5.9,8.947h0S431.285,425.363,433.029,414.81Z" transform="translate(-418.577 -409.406)" fill="#24223c"/>
              </g>
              <g id="Group_1590" data-name="Group 1590" transform="translate(8.939 44.301)">
                <g id="Group_1587" data-name="Group 1587" transform="translate(10.223)">
                  <path id="Path_7785" data-name="Path 7785" d="M431.586,472.3s7.6-6.008,7.179-8.969a10.912,10.912,0,0,0-2.071-4.964l12.086,6.716s4.747,33.391-.423,43.588l-2.735,4.522s-12.4,6.414-28.312-.7l-3.616-7.3-1.782-33.973s1.452-6.551,2.18-7.024,11.376-7.008,11.376-7.008a13.408,13.408,0,0,0-.277,7.312C426.254,467.972,431.586,472.3,431.586,472.3Z" transform="translate(-411.914 -457.191)" fill="#ea4335"/>
                  <g id="Group_1586" data-name="Group 1586" transform="translate(7.14 28.915)">
                    <path id="Path_7786" data-name="Path 7786" d="M422.766,495.034s5.556,4.734,9.046,3.691a9.692,9.692,0,0,1-8.384-.029C418.968,496.527,422.766,495.034,422.766,495.034Z" transform="translate(-421.259 -495.034)" fill="#495ce6"/>
                    <path id="Path_7787" data-name="Path 7787" d="M425.554,501.427l1.006,6.917.649,11.174.54,6.011s-4.517-.53-5.317-1.464S425.554,501.427,425.554,501.427Z" transform="translate(-421.51 -496.542)" fill="#495ce6"/>
                    <path id="Path_7788" data-name="Path 7788" d="M449,501.314l-.32,5.367-.183,7.434,2.832,10.628a4.154,4.154,0,0,0,2.5-1.1C454.6,522.687,449,501.314,449,501.314Z" transform="translate(-427.684 -496.516)" fill="#495ce6"/>
                    <path id="Path_7789" data-name="Path 7789" d="M450.645,495.783s-5.783,4.453-9.217,3.24a9.692,9.692,0,0,0,8.375.385C454.365,497.462,450.645,495.783,450.645,495.783Z" transform="translate(-426.017 -495.211)" fill="#495ce6"/>
                  </g>
                </g>
                <g id="Group_1588" data-name="Group 1588">
                  <path id="Path_7790" data-name="Path 7790" d="M473.84,519.766c-.737-.018-16.216,4.426-19.708,3.97,0,0-4.74-17.715-5.179-22.336s-3.532-39.643-4.608-42.665c0,0,18.649,7.054,20.532,10.235s4.682,17.155,4.682,17.155l1.481,5.231s-11.487,3.866-13.869,3.253c-.351,2.94,2.416,10.015,2.416,10.015Z" transform="translate(-409.342 -457.555)" fill="#ea4335"/>
                  <path id="Path_7791" data-name="Path 7791" d="M422.313,457.191s-1.707,64.981-6.5,70.274l-16.5-2.049,5-5.849,3.6-14.164,2.625-13.075c-2.108.436-12-.611-12-.611l2.036-4.992s2.418-13.3,4.228-18.962C409.654,463.816,415.44,460.576,422.313,457.191Z" transform="translate(-398.535 -457.191)" fill="#ea4335"/>
                </g>
                <g id="Group_1589" data-name="Group 1589" transform="translate(9.377 18.956)">
                  <path id="Path_7792" data-name="Path 7792" d="M458.875,483.11s.8,10.386,1.708,17.249A37.4,37.4,0,0,0,463,510.374c.449,1.062,1.049,2.181,1.049,2.181l-3.1-2.247-2.138-9.534Z" transform="translate(-422.131 -482.262)" fill="#d31c24"/>
                  <path id="Path_7793" data-name="Path 7793" d="M413.292,482l.14,16.181-2.625,13.075,3.209-2.091.493-7.558Z" transform="translate(-410.807 -482)" fill="#d31c24"/>
                </g>
              </g>
            </g>
          </g>
          <path id="Path_7794" data-name="Path 7794" d="M474.4,512.334l-2.907-9.956c-1.919.505-6.23,1.509-8.758,2.336l2.6,6.654-2.564,2.4-6.97,6.53,2.94,4.679,5-3.247,9.275-6.025A3.219,3.219,0,0,0,474.4,512.334Z" transform="translate(-403.105 -423.55)" fill="#ffe1bd"/>
          <path id="Path_7795" data-name="Path 7795" d="M410.6,514.866l-.662-.6-3.428-3.1L408.679,503c-2.7.025-7.491-.344-9.291-.528l-1.924,9.824a3.218,3.218,0,0,0,1.451,3.347l10.782,6.731,3.654,2.282,2.855-4.73Z" transform="translate(-389.329 -423.573)" fill="#ffe1bd"/>
        </g>
        <g id="Group_1595" data-name="Group 1595" transform="translate(0 93.637)">
          <path id="Path_7796" data-name="Path 7796" d="M453.356,543.8l-3.227,8.886-64.321-11.313c-6.081-1.255-13.107-6.089-13.214-9.672-.149-4.956,7.027-11.287,13.029-9.691Z" transform="translate(-372.592 -521.759)" fill="#007cf8"/>
          <g id="Group_1594" data-name="Group 1594" transform="translate(77.538 22.041)">
            <path id="Path_7797" data-name="Path 7797" d="M477.3,550.6s15.887,1.051,19.4,2.458-1.252,8.7-3.655,9.123c-1.757.313-16.773-.6-18.975-2.695Z" transform="translate(-474.069 -550.605)" fill="#232323"/>
            <path id="Path_7798" data-name="Path 7798" d="M477.3,550.6s6.266,1.278,7.549,2.817,1.668,5.853.769,6.069-1.982,1.682-11.545,0Z" transform="translate(-474.069 -550.605)" fill="#ffe1bd"/>
          </g>
        </g>
        <g id="Group_1596" data-name="Group 1596" transform="translate(26.673 74.669)">
          <path id="Path_7799" data-name="Path 7799" d="M456.23,499.884l-3.319,26.146H410.819l-.494-3.9-2.825-22.25a2.946,2.946,0,0,1,2.946-2.949h42.839A2.946,2.946,0,0,1,456.23,499.884Z" transform="translate(-407.5 -496.935)" fill="#e6e7e8"/>
          <rect id="Rectangle_975" data-name="Rectangle 975" width="43.75" height="2.471" rx="1.091" transform="translate(2.49 29.095)" fill="#d1d3d4"/>
          <path id="Path_7800" data-name="Path 7800" d="M438.325,511.6a3.477,3.477,0,0,0-.751.085,2.821,2.821,0,0,1,.019.313,2.707,2.707,0,0,1-2.69,2.706c-.011.111-.017.222-.017.336a3.44,3.44,0,1,0,3.439-3.44Z" transform="translate(-413.961 -500.396)" fill="#d1d3d4"/>
        </g>
      </g>
      <g id="Group_5729" data-name="Group 5729" transform="translate(-453 -501)">
        <path id="Rectangle_1012" data-name="Rectangle 1012" d="M20.4,0H155.032a20.661,20.661,0,0,1,20.4,20.907V342.156a20.661,20.661,0,0,1-20.4,20.907H20.4A20.661,20.661,0,0,1,0,342.155V20.907A20.661,20.661,0,0,1,20.4,0Z" transform="translate(11237.306 -725)" fill="#213458"/>
        <path id="Path_11118" data-name="Path 11118" d="M17.915,0H155.743a17.916,17.916,0,0,1,17.916,17.916V340.908a17.915,17.915,0,0,1-17.915,17.915H17.915A17.915,17.915,0,0,1,0,340.908V17.915A17.915,17.915,0,0,1,17.915,0Z" transform="translate(11235.101 -720.761)" fill="#4285f4" stroke="#34a853" stroke-width="0.2"/>
        <path id="Path_11117" data-name="Path 11117" d="M1.568,0h152.76A1.568,1.568,0,0,1,155.9,1.568v279.8a1.568,1.568,0,0,1-1.568,1.568H1.568A1.568,1.568,0,0,1,0,281.363V1.568A1.568,1.568,0,0,1,1.568,0Z" transform="translate(11244.164 -684.558)" fill="#fff" stroke="#d5d5d5" stroke-width="0.2"/>
        <path id="Path_7953" data-name="Path 7953" d="M9.982,3.847A1.923,1.923,0,1,1,9.982,0H45.609a1.923,1.923,0,1,1,0,3.847ZM3.563,0a1.923,1.923,0,1,1,0,3.847H1.924A1.923,1.923,0,1,1,1.924,0Z" transform="translate(11298.163 -701.845)" fill="#fff" fill-rule="evenodd"/>
        <path id="Path_7954" data-name="Path 7954" d="M12.585,25.169A12.584,12.584,0,1,0,0,12.585,12.584,12.584,0,0,0,12.585,25.169Z" transform="translate(11309.346 -395.083)" fill="#fff" fill-rule="evenodd"/>
        <g id="Group_1705" data-name="Group 1705" transform="translate(11253.931 -677.197)">
          <path id="Path_7967" data-name="Path 7967" d="M.465.936A.468.468,0,1,1,.465,0H10.7a.468.468,0,0,1,0,.936Zm0,6.722a.466.466,0,0,1,0-.932H10.7a.466.466,0,0,1,0,.932Zm0-3.361a.468.468,0,1,1,0-.936H10.7a.468.468,0,0,1,0,.936Z" transform="translate(0.003 0)" fill="#4285f4" fill-rule="evenodd"/>
          <path id="Path_7968" data-name="Path 7968" d="M13.725.418ZM1.419.932H7.428V5.769H1.419a.471.471,0,0,1-.341-.142.479.479,0,0,1-.147-.341V1.419A.488.488,0,0,1,1.419.932ZM12.722,0H1.419A1.424,1.424,0,0,0,0,1.419V5.286A1.424,1.424,0,0,0,1.419,6.7h11.3a1.416,1.416,0,0,0,.971-.388l.032-.029a1.419,1.419,0,0,0,.416-1V1.419A1.422,1.422,0,0,0,12.722,0Z" transform="translate(121.857 0.477)" fill="#4285f4" fill-rule="evenodd"/>
        </g>
      </g>
      <g id="Group_1609" data-name="Group 1609" transform="translate(10805.874 -1014.92)">
        <g id="Group_1605" data-name="Group 1605" transform="translate(49.611)">
          <g id="Group_1600" data-name="Group 1600">
            <path id="Path_7807" data-name="Path 7807" d="M607.869,379.306a2.2,2.2,0,0,0-2.2,2.2v11.171a.432.432,0,0,0,.8.222l1.17-1.961a2.206,2.206,0,0,1,1.737-.848h9.092a2.2,2.2,0,0,0,2.2-2.2v-6.38a2.2,2.2,0,0,0-2.2-2.2Z" transform="translate(-605.665 -379.306)" fill="#4285f4"/>
          </g>
          <g id="Group_1604" data-name="Group 1604" transform="translate(2.235 2.18)">
            <g id="Group_1601" data-name="Group 1601">
              <rect id="Rectangle_978" data-name="Rectangle 978" width="10.76" height="1.106" fill="#fff"/>
            </g>
            <g id="Group_1602" data-name="Group 1602" transform="translate(0 2.393)">
              <rect id="Rectangle_979" data-name="Rectangle 979" width="10.76" height="1.106" fill="#fff"/>
            </g>
            <g id="Group_1603" data-name="Group 1603" transform="translate(0 4.787)">
              <rect id="Rectangle_980" data-name="Rectangle 980" width="10.76" height="1.106" fill="#fff"/>
            </g>
          </g>
        </g>
        <g id="Group_1606" data-name="Group 1606" transform="translate(0 0.25)">
          <path id="Path_7808" data-name="Path 7808" d="M566.684,385.575a3.909,3.909,0,0,0-6.508-4.329,3.907,3.907,0,1,0-6.331,4.578h-.017l6.043,6.708s6.621-6.655,6.8-6.935l.02-.023Z" transform="translate(-553.055 -379.571)" fill="#d31c24"/>
        </g>
        <g id="Group_1607" data-name="Group 1607" transform="translate(17.991 3.14)">
          <path id="Path_7809" data-name="Path 7809" d="M572.133,384.262a6.291,6.291,0,0,0,1.128-.574,4.63,4.63,0,0,0,1.006-.879h.67v7.041h-.945V384.12a2.654,2.654,0,0,1-.3.234,3.943,3.943,0,0,1-.387.233c-.138.075-.284.146-.437.214a4.724,4.724,0,0,1-.442.173Z" transform="translate(-572.133 -382.646)" fill="#96b3ff"/>
          <path id="Path_7810" data-name="Path 7810" d="M577.639,387.412a11.172,11.172,0,0,1,.529-1.041q.335-.6.757-1.225t.9-1.239a12.672,12.672,0,0,1,.97-1.1h.9v4.471h.834v.772H581.7v1.8h-.914v-1.8h-3.151Zm3.151-3.485q-.305.325-.615.727t-.605.838q-.294.437-.553.894t-.463.894h2.236Z" transform="translate(-572.447 -382.646)" fill="#96b3ff"/>
          <path id="Path_7811" data-name="Path 7811" d="M584.979,389.85a9.936,9.936,0,0,1,.289-1.712,14.323,14.323,0,0,1,.564-1.748,13.689,13.689,0,0,1,.736-1.575,7.424,7.424,0,0,1,.787-1.184h-3.424v-.823h4.481v.783a7.638,7.638,0,0,0-.742,1.062,12.512,12.512,0,0,0-.767,1.513,13.5,13.5,0,0,0-.62,1.789,9.52,9.52,0,0,0-.321,1.895Z" transform="translate(-572.805 -382.646)" fill="#96b3ff"/>
          <path id="Path_7812" data-name="Path 7812" d="M589.9,386.315a4.97,4.97,0,0,1,.625-2.723,2.048,2.048,0,0,1,3.465,0,6.253,6.253,0,0,1,0,5.447,2.048,2.048,0,0,1-3.465,0A4.968,4.968,0,0,1,589.9,386.315Zm3.718,0a8.829,8.829,0,0,0-.065-1.1,3.6,3.6,0,0,0-.224-.9,1.573,1.573,0,0,0-.422-.614,1.037,1.037,0,0,0-1.3,0,1.574,1.574,0,0,0-.421.614,3.559,3.559,0,0,0-.224.9,9.147,9.147,0,0,0,0,2.2,3.549,3.549,0,0,0,.224.9,1.585,1.585,0,0,0,.421.615,1.037,1.037,0,0,0,1.3,0,1.584,1.584,0,0,0,.422-.615,3.592,3.592,0,0,0,.224-.9A8.806,8.806,0,0,0,593.62,386.315Z" transform="translate(-573.146 -382.636)" fill="#96b3ff"/>
        </g>
        <g id="Group_1608" data-name="Group 1608" transform="translate(68.422 3.14)">
          <path id="Path_7813" data-name="Path 7813" d="M627.351,389.15a1.91,1.91,0,0,0,1.3-.356,1.269,1.269,0,0,0-.2-2.027,1.845,1.845,0,0,0-.615-.223,3.847,3.847,0,0,0-.717-.066h-.244v-.772h.336a2.806,2.806,0,0,0,.523-.051,1.533,1.533,0,0,0,.493-.183,1.02,1.02,0,0,0,.508-.935,1.079,1.079,0,0,0-.1-.488.952.952,0,0,0-.269-.335,1.021,1.021,0,0,0-.387-.189,1.872,1.872,0,0,0-.462-.056,2.138,2.138,0,0,0-.828.142,3.454,3.454,0,0,0-.573.3l-.367-.722a3.391,3.391,0,0,1,.31-.177,3.212,3.212,0,0,1,.422-.178,4,4,0,0,1,.5-.137,2.74,2.74,0,0,1,.565-.057,3.02,3.02,0,0,1,.965.138,1.81,1.81,0,0,1,.671.386,1.587,1.587,0,0,1,.4.589,2.009,2.009,0,0,1,.133.737,1.452,1.452,0,0,1-.315.939,2.063,2.063,0,0,1-.763.6,2.294,2.294,0,0,1,.529.233,1.694,1.694,0,0,1,.441.387,1.974,1.974,0,0,1,.306.538,1.9,1.9,0,0,1,.117.681,2.243,2.243,0,0,1-.158.849,1.727,1.727,0,0,1-.488.675,2.347,2.347,0,0,1-.828.447,3.811,3.811,0,0,1-1.179.163,3.737,3.737,0,0,1-.543-.041q-.28-.041-.523-.1t-.427-.122a2.128,2.128,0,0,1-.264-.1l.183-.823a5.615,5.615,0,0,0,.574.214A3.173,3.173,0,0,0,627.351,389.15Z" transform="translate(-625.613 -382.636)" fill="#96b3ff"/>
          <path id="Path_7814" data-name="Path 7814" d="M631.529,387.412a10.93,10.93,0,0,1,.529-1.041q.334-.6.756-1.225t.9-1.239a12.672,12.672,0,0,1,.97-1.1h.9v4.471h.834v.772h-.834v1.8h-.914v-1.8h-3.151Zm3.151-3.485q-.306.325-.616.727t-.6.838q-.294.437-.554.894t-.463.894h2.237Z" transform="translate(-625.95 -382.646)" fill="#96b3ff"/>
          <path id="Path_7815" data-name="Path 7815" d="M639.237,385.522a3.666,3.666,0,0,1,2.251.67,2.061,2.061,0,0,1,.717,1.657,2.319,2.319,0,0,1-.158.863,1.753,1.753,0,0,1-.478.681,2.253,2.253,0,0,1-.807.447A3.675,3.675,0,0,1,639.6,390a3.632,3.632,0,0,1-.538-.041,5,5,0,0,1-.508-.1q-.233-.061-.416-.122a2.141,2.141,0,0,1-.265-.1l.184-.823a5.733,5.733,0,0,0,.564.214,3.035,3.035,0,0,0,.96.132,2.479,2.479,0,0,0,.767-.1,1.391,1.391,0,0,0,.5-.274,1.016,1.016,0,0,0,.279-.4,1.35,1.35,0,0,0,.087-.483,1.691,1.691,0,0,0-.132-.686,1.128,1.128,0,0,0-.468-.5,2.7,2.7,0,0,0-.895-.31,7.761,7.761,0,0,0-1.412-.107q.061-.5.1-.934c.024-.291.046-.576.066-.854s.037-.554.051-.828.027-.564.042-.868h3.394v.8h-2.572c-.007.1-.017.239-.031.412s-.026.352-.04.538-.027.367-.041.543S639.251,385.42,639.237,385.522Z" transform="translate(-626.312 -382.646)" fill="#96b3ff"/>
        </g>
      </g>
      <g id="Group_1616" data-name="Group 1616" transform="translate(10796.019 -1159.574)">
        <g id="Group_1615" data-name="Group 1615" clip-path="url(#clip-path)">
          <g id="Group_1614" data-name="Group 1614" transform="translate(31.311 6.031)">
            <path id="Path_7816" data-name="Path 7816" d="M665.3,320.84l-20.468,16.907-22.346-15.637,5.33-14.263,1.1-5.446,2.168-10.78,22.421-.6.966,3.84,2.614,10.363Z" transform="translate(-585.468 -233.14)" fill="#96b3ff"/>
            <g id="Group_1611" data-name="Group 1611" transform="translate(34.149)">
              <g id="Group_1610" data-name="Group 1610">
                <path id="Path_7817" data-name="Path 7817" d="M663.276,260.228c0,18.916-9.323,34.25-20.823,34.25s-20.823-15.334-20.823-34.25,9.322-24.524,20.823-24.524S663.276,241.312,663.276,260.228Z" transform="translate(-619.569 -229.987)" fill="#d6e2ff"/>
                <path id="Path_7818" data-name="Path 7818" d="M665.327,243.691c1.886,6.459-3.137,35.3-5.966,41.144s-9.072,9.224-17.61,9.3c-10.9.094-14.584-5.168-16.784-8.244s-2.391-8.98-5.221-31.125,15.119-25.121,21.72-25.121,9.717-.1,10.974,4.207C661.845,233.339,663.44,237.231,665.327,243.691Zm-20.855,3.2c-6.015,2.738-16.67-2.788-20.741,1.694s-1.564,18.779-.231,24.778c.528,2.374,7.434.507,11.681,2.7-5.843,5.394,0,9.995,6.429,9.995,6.1,0,11.889-1.9,8-9.2,2.988-3.173,9.405-.159,10.7-2.856,1.864-3.876.826-21.927.826-21.927-2.544-.747-8.4-7.717-8.4-12.945A17.3,17.3,0,0,1,644.471,246.888Z" transform="translate(-619.444 -229.642)" fill="#4285f4"/>
              </g>
            </g>
            <g id="Group_1613" data-name="Group 1613" transform="translate(0 69.247)">
              <path id="Path_7819" data-name="Path 7819" d="M675.514,353.372c-.641.2-1.216.4-1.715.575.3,2.684.628,8.956.972,14.811l.04.668c.094,1.627.2,3.206.3,4.654.183,2.65.365,4.871.555,6.127.553,3.086,1,6.285,1.358,9.279.9,7.568,1.222,13.86,1.222,13.86-1.493-.04-73.793,0-73.793,0l.372-12.221.25-8.056.236-7.641.642-21.13a25.22,25.22,0,0,0-3.141-.668c-5.27-.892-14.578-1.863-18.138-2.221-.905-.092-1.439-.145-1.439-.145s8-32.669,12.916-37.844c8.943-5.505,18.232-7.653,30.486-10.344a13.955,13.955,0,0,0,1.513,8.427c5.492,9.372,23.65,7.707,26.076-2.835a14.987,14.987,0,0,0-.089-5.585s25.13,5.1,30,10.794c3.81,6.3,10.815,34.15,10.815,34.15s-.689.172-1.831.469C689.321,349.472,680.513,351.772,675.514,353.372Z" transform="translate(-583.231 -303.075)" fill="#628aec"/>
              <g id="Group_1612" data-name="Group 1612" transform="translate(21.84 29.44)">
                <path id="Path_7820" data-name="Path 7820" d="M673.874,335.889l5.089,19.93,1.013,15.478-6.1-16.214Z" transform="translate(-610.237 -334.385)" fill="#5065fc"/>
                <path id="Path_7821" data-name="Path 7821" d="M610.66,366.975l-2.722,11.394-1.547,6.477.236-7.64.642-21.13,3.391-21.783Z" transform="translate(-606.391 -334.294)" fill="#5065fc"/>
              </g>
            </g>
            <path id="Path_7822" data-name="Path 7822" d="M696.266,351.879l2.2,15.161v27.4L682.9,395.991l-2.621-23.784L679.27,356.73Z" transform="translate(-588.706 -236.61)" fill="#96b3ff"/>
            <path id="Path_7823" data-name="Path 7823" d="M588.806,354.661,586.99,367.2v27.4l15.559,1.548,2.621-23.784,1.013-15.478Z" transform="translate(-583.445 -236.768)" fill="#96b3ff"/>
          </g>
        </g>
      </g>
      <g id="Group_1618" data-name="Group 1618" transform="translate(10802.894 -1143.573)">
        <rect id="Rectangle_981" data-name="Rectangle 981" width="56.708" height="23.153" fill="#ea4335"/>
        <g id="Group_1617" data-name="Group 1617" transform="translate(11.066 5.09)">
          <path id="Path_7824" data-name="Path 7824" d="M569.555,263.111v1.6h-7.926V251.536h1.844v11.575Z" transform="translate(-561.629 -251.536)" fill="#fff"/>
          <path id="Path_7825" data-name="Path 7825" d="M572.09,251.536h1.845v13.173H572.09Z" transform="translate(-562.225 -251.536)" fill="#fff"/>
          <path id="Path_7826" data-name="Path 7826" d="M588.068,251.536q-.723,2.092-1.378,3.868t-1.282,3.374q-.628,1.6-1.246,3.051t-1.264,2.88h-1.729q-.648-1.426-1.265-2.88t-1.254-3.051q-.638-1.6-1.3-3.374t-1.368-3.868h2.033q1.028,3,2.015,5.779t2.034,5.208q1.045-2.415,2.033-5.2t2-5.788Z" transform="translate(-562.447 -251.536)" fill="#fff"/>
          <path id="Path_7827" data-name="Path 7827" d="M590.734,264.709V251.536h8.04v1.578h-6.2v3.915h5.512v1.54h-5.512v4.562h6.671v1.578Z" transform="translate(-563.288 -251.536)" fill="#fff"/>
        </g>
      </g>
      <g id="Group_1672" data-name="Group 1672" transform="translate(10809.625 -1135.139)">
        <g id="Group_1620" data-name="Group 1620" transform="translate(9.282 76.494)">
          <circle id="Ellipse_322" data-name="Ellipse 322" cx="10.857" cy="10.857" r="10.857" fill="#ea4335"/>
          <g id="Group_1619" data-name="Group 1619" transform="translate(4.573 6.035)">
            <path id="Path_7828" data-name="Path 7828" d="M583.752,347.038a6.381,6.381,0,1,0-11.33.22h-.015l5.333,5.919s5.843-5.872,6-6.118l.017-.021Z" transform="translate(-571.725 -341.74)" fill="#fff"/>
          </g>
        </g>
        <g id="Group_1622" data-name="Group 1622" transform="translate(91.224 93.445)">
          <circle id="Ellipse_323" data-name="Ellipse 323" cx="8.524" cy="8.524" r="8.524" fill="#ea4335"/>
          <g id="Group_1621" data-name="Group 1621" transform="translate(3.59 4.738)">
            <path id="Path_7829" data-name="Path 7829" d="M681.539,362.5a5.01,5.01,0,1,0-8.9.173h-.011l4.187,4.648s4.588-4.61,4.712-4.8l.013-.016Z" transform="translate(-672.096 -358.341)" fill="#fff"/>
          </g>
        </g>
        <g id="Group_1624" data-name="Group 1624" transform="translate(198.764 51.281)">
          <circle id="Ellipse_324" data-name="Ellipse 324" cx="7.017" cy="7.017" r="7.017" fill="#ea4335"/>
          <g id="Group_1623" data-name="Group 1623" transform="translate(2.955 3.9)">
            <path id="Path_7830" data-name="Path 7830" d="M809.97,316.163a4.124,4.124,0,1,0-7.322.142h-.009l3.446,3.826s3.777-3.8,3.88-3.955l.011-.013Z" transform="translate(-802.197 -312.739)" fill="#fff"/>
          </g>
        </g>
        <g id="Group_1626" data-name="Group 1626" transform="translate(252.38 80.716)">
          <path id="Path_7831" data-name="Path 7831" d="M875.058,345.357a5.539,5.539,0,1,0-5.539,5.539A5.539,5.539,0,0,0,875.058,345.357Z" transform="translate(-863.98 -339.818)" fill="#ea4335"/>
          <g id="Group_1625" data-name="Group 1625" transform="translate(2.333 3.079)">
            <path id="Path_7832" data-name="Path 7832" d="M872.59,345.787a3.256,3.256,0,1,0-5.781.111H866.8l2.72,3.019s2.982-3,3.062-3.121l.009-.01Z" transform="translate(-866.454 -343.083)" fill="#fff"/>
          </g>
        </g>
        <g id="Group_1628" data-name="Group 1628" transform="translate(132.712 54.364)">
          <circle id="Ellipse_325" data-name="Ellipse 325" cx="11.04" cy="11.04" r="11.04" transform="matrix(0.973, -0.231, 0.231, 0.973, 0, 5.099)" fill="#ea4335"/>
          <g id="Group_1627" data-name="Group 1627" transform="translate(6.901 8.388)">
            <path id="Path_7833" data-name="Path 7833" d="M739.284,326.155a6.488,6.488,0,1,0-11.522.223h-.015l5.422,6.019s5.942-5.971,6.1-6.222l.018-.021Z" transform="translate(-727.054 -320.768)" fill="#fff"/>
          </g>
        </g>
        <g id="Group_1630" data-name="Group 1630" transform="translate(198.207 94.362)">
          <circle id="Ellipse_326" data-name="Ellipse 326" cx="10.212" cy="10.212" r="10.212" transform="matrix(0.973, -0.229, 0.229, 0.973, 0, 4.671)" fill="#ea4335"/>
          <g id="Group_1629" data-name="Group 1629" transform="translate(6.366 7.741)">
            <path id="Path_7834" data-name="Path 7834" d="M817.816,367.48a3.216,3.216,0,0,0,.509-1.732,26.071,26.071,0,0,1-8.57-3.25,3.237,3.237,0,0,0-2.6,5.19h-.013l5.015,5.567s5.5-5.523,5.645-5.755l.017-.02Z" transform="translate(-806.504 -362.497)" fill="#fff"/>
          </g>
        </g>
        <g id="Group_1632" data-name="Group 1632" transform="translate(1.614 49.537)">
          <circle id="Ellipse_327" data-name="Ellipse 327" cx="6.683" cy="6.683" r="6.683" fill="#ea4335"/>
          <g id="Group_1631" data-name="Group 1631" transform="translate(2.815 3.715)">
            <path id="Path_7835" data-name="Path 7835" d="M569.133,313.955a3.929,3.929,0,1,0-6.975.135h-.009l3.283,3.645s3.6-3.616,3.694-3.767l.011-.012Z" transform="translate(-561.729 -310.693)" fill="#fff"/>
          </g>
        </g>
        <g id="Group_1634" data-name="Group 1634" transform="translate(221.026 30.268)">
          <circle id="Ellipse_328" data-name="Ellipse 328" cx="10.333" cy="10.333" r="10.333" fill="#ea4335"/>
          <g id="Group_1633" data-name="Group 1633" transform="translate(4.352 5.743)">
            <path id="Path_7836" data-name="Path 7836" d="M846.793,297.454a6.074,6.074,0,1,0-10.784.208H836l5.075,5.634s5.561-5.589,5.712-5.825l.017-.019Z" transform="translate(-835.346 -292.411)" fill="#fff"/>
          </g>
        </g>
        <g id="Group_1637" data-name="Group 1637" transform="translate(39.784 46.97)">
          <circle id="Ellipse_329" data-name="Ellipse 329" cx="13.692" cy="13.692" r="13.692" fill="#4285f4"/>
          <g id="Group_1636" data-name="Group 1636" transform="translate(5.209 4.344)">
            <g id="Group_1635" data-name="Group 1635" transform="translate(4.329)">
              <path id="Path_7837" data-name="Path 7837" d="M620.665,312.86c-1.3-1.079-5.257.561-5.257.561.675-1.5.489-4.782-.492-4.782-1.574,0-.627,5.269-5.58,7.08v7.018s10.116,1.977,11.247.272S621.968,313.939,620.665,312.86Z" transform="translate(-609.336 -308.639)" fill="#fff"/>
            </g>
            <rect id="Rectangle_982" data-name="Rectangle 982" width="3.667" height="7.868" transform="translate(0 6.618)" fill="#fff"/>
          </g>
        </g>
        <g id="Group_1640" data-name="Group 1640" transform="translate(71.632 60.832)">
          <circle id="Ellipse_330" data-name="Ellipse 330" cx="11.357" cy="11.357" r="11.357" fill="#4285f4"/>
          <g id="Group_1639" data-name="Group 1639" transform="translate(4.321 3.604)">
            <g id="Group_1638" data-name="Group 1638" transform="translate(3.591)">
              <path id="Path_7838" data-name="Path 7838" d="M662.449,326.054c-1.082-.895-4.36.465-4.36.465.56-1.244.4-3.966-.408-3.966-1.305,0-.521,4.37-4.628,5.872v5.822s8.391,1.639,9.329.224S663.531,326.949,662.449,326.054Z" transform="translate(-653.052 -322.553)" fill="#fff"/>
            </g>
            <rect id="Rectangle_983" data-name="Rectangle 983" width="3.042" height="6.526" transform="translate(0 5.489)" fill="#fff"/>
          </g>
        </g>
        <g id="Group_1643" data-name="Group 1643" transform="translate(0 89.109)">
          <circle id="Ellipse_331" data-name="Ellipse 331" cx="7.607" cy="7.607" r="7.607" fill="#1a8dff"/>
          <g id="Group_1642" data-name="Group 1642" transform="translate(2.894 2.413)">
            <g id="Group_1641" data-name="Group 1641" transform="translate(2.404)">
              <path id="Path_7839" data-name="Path 7839" d="M568.945,353.622c-.724-.6-2.92.312-2.92.312.375-.834.272-2.657-.273-2.657-.875,0-.349,2.927-3.1,3.933v3.9s5.62,1.1,6.248.151S569.669,354.222,568.945,353.622Z" transform="translate(-562.651 -351.277)" fill="#fff"/>
            </g>
            <rect id="Rectangle_984" data-name="Rectangle 984" width="2.037" height="4.371" transform="translate(0 3.677)" fill="#fff"/>
          </g>
        </g>
        <g id="Group_1646" data-name="Group 1646" transform="translate(114.774 74.458)">
          <circle id="Ellipse_332" data-name="Ellipse 332" cx="11.357" cy="11.357" r="11.357" fill="#4285f4"/>
          <g id="Group_1645" data-name="Group 1645" transform="translate(4.321 3.604)">
            <g id="Group_1644" data-name="Group 1644" transform="translate(3.59)">
              <path id="Path_7840" data-name="Path 7840" d="M715.226,340.5c-1.082-.895-4.36.465-4.36.465.561-1.245.405-3.966-.407-3.966-1.306,0-.521,4.37-4.629,5.872V348.7s8.391,1.639,9.33.224S716.308,341.4,715.226,340.5Z" transform="translate(-705.829 -337.003)" fill="#fff"/>
            </g>
            <rect id="Rectangle_985" data-name="Rectangle 985" width="3.042" height="6.526" transform="translate(0 5.489)" fill="#fff"/>
          </g>
        </g>
        <g id="Group_1649" data-name="Group 1649" transform="translate(201.33 68.586)">
          <circle id="Ellipse_333" data-name="Ellipse 333" cx="11.357" cy="11.357" r="11.357" fill="#4285f4"/>
          <g id="Group_1648" data-name="Group 1648" transform="translate(4.321 3.603)">
            <g id="Group_1647" data-name="Group 1647" transform="translate(3.59)">
              <path id="Path_7841" data-name="Path 7841" d="M827.63,334.276c-1.082-.895-4.36.466-4.36.466.56-1.245.4-3.967-.408-3.967-1.305,0-.521,4.371-4.628,5.873v5.821s8.391,1.64,9.329.225S828.712,335.171,827.63,334.276Z" transform="translate(-818.233 -330.775)" fill="#fff"/>
            </g>
            <rect id="Rectangle_986" data-name="Rectangle 986" width="3.042" height="6.526" transform="translate(0 5.49)" fill="#fff"/>
          </g>
        </g>
        <g id="Group_1652" data-name="Group 1652" transform="translate(245.615)">
          <circle id="Ellipse_334" data-name="Ellipse 334" cx="6.487" cy="6.487" r="6.487" fill="#4285f4"/>
          <g id="Group_1651" data-name="Group 1651" transform="translate(2.468 2.058)">
            <g id="Group_1650" data-name="Group 1650" transform="translate(2.051)">
              <path id="Path_7842" data-name="Path 7842" d="M866.964,258.405c-.619-.511-2.49.266-2.49.266.32-.711.231-2.266-.233-2.266-.746,0-.3,2.5-2.644,3.354v3.325s4.792.936,5.329.128S867.582,258.916,866.964,258.405Z" transform="translate(-861.597 -256.405)" fill="#fff"/>
            </g>
            <rect id="Rectangle_987" data-name="Rectangle 987" width="1.737" height="3.727" transform="translate(0 3.135)" fill="#fff"/>
          </g>
        </g>
        <g id="Group_1655" data-name="Group 1655" transform="translate(124.084 23.782)">
          <circle id="Ellipse_335" data-name="Ellipse 335" cx="6.487" cy="6.487" r="6.487" fill="#4285f4"/>
          <g id="Group_1654" data-name="Group 1654" transform="translate(2.468 2.058)">
            <g id="Group_1653" data-name="Group 1653" transform="translate(2.051)">
              <path id="Path_7843" data-name="Path 7843" d="M718.2,283.624c-.618-.511-2.49.266-2.49.266.321-.711.231-2.266-.233-2.266-.746,0-.3,2.5-2.643,3.354V288.3s4.792.936,5.328.128S718.821,284.135,718.2,283.624Z" transform="translate(-712.837 -281.624)" fill="#fff"/>
            </g>
            <rect id="Rectangle_988" data-name="Rectangle 988" width="1.737" height="3.727" transform="translate(0 3.135)" fill="#fff"/>
          </g>
        </g>
        <g id="Group_1658" data-name="Group 1658" transform="translate(171.392 66.704)">
          <circle id="Ellipse_336" data-name="Ellipse 336" cx="9.556" cy="9.556" r="9.556" fill="#4285f4"/>
          <g id="Group_1657" data-name="Group 1657" transform="translate(3.635 3.032)">
            <g id="Group_1656" data-name="Group 1656" transform="translate(3.021)">
              <path id="Path_7844" data-name="Path 7844" d="M781.256,331.12c-.91-.753-3.668.391-3.668.391.472-1.047.34-3.337-.343-3.337-1.1,0-.438,3.677-3.895,4.941v4.9s7.059,1.379,7.849.189S782.166,331.872,781.256,331.12Z" transform="translate(-773.35 -328.174)" fill="#fff"/>
            </g>
            <rect id="Rectangle_989" data-name="Rectangle 989" width="2.559" height="5.491" transform="translate(0 4.618)" fill="#fff"/>
          </g>
        </g>
        <g id="Group_1661" data-name="Group 1661" transform="translate(183.546 13.039)">
          <circle id="Ellipse_337" data-name="Ellipse 337" cx="9.556" cy="9.556" r="9.556" fill="#4285f4"/>
          <g id="Group_1660" data-name="Group 1660" transform="translate(3.635 3.032)">
            <g id="Group_1659" data-name="Group 1659" transform="translate(3.021)">
              <path id="Path_7845" data-name="Path 7845" d="M796.1,274.211c-.91-.753-3.668.391-3.668.391.472-1.047.34-3.337-.343-3.337-1.1,0-.438,3.677-3.895,4.941v4.9s7.06,1.379,7.85.189S797.006,274.963,796.1,274.211Z" transform="translate(-788.19 -271.265)" fill="#fff"/>
            </g>
            <rect id="Rectangle_990" data-name="Rectangle 990" width="2.559" height="5.491" transform="translate(0 4.618)" fill="#fff"/>
          </g>
        </g>
        <g id="Group_1664" data-name="Group 1664" transform="translate(231.537 37.87)">
          <circle id="Ellipse_338" data-name="Ellipse 338" cx="13.527" cy="13.527" r="13.527" transform="translate(0 6.178) rotate(-13.2)" fill="#4285f4"/>
          <g id="Group_1663" data-name="Group 1663" transform="translate(7.878 7.023)">
            <g id="Group_1662" data-name="Group 1662" transform="translate(4.276)">
              <path id="Path_7846" data-name="Path 7846" d="M865.957,306c-1.288-1.066-5.193.554-5.193.554.668-1.482.482-4.724-.486-4.724-1.555,0-.62,5.205-5.514,6.994v6.934s9.994,1.952,11.112.268S867.246,307.066,865.957,306Z" transform="translate(-854.765 -301.83)" fill="#fff"/>
            </g>
            <rect id="Rectangle_991" data-name="Rectangle 991" width="3.623" height="7.772" transform="translate(0 6.538)" fill="#fff"/>
          </g>
        </g>
        <g id="Group_1667" data-name="Group 1667" transform="translate(154.261 76.293)">
          <circle id="Ellipse_339" data-name="Ellipse 339" cx="13.19" cy="13.19" r="13.19" fill="#4285f4"/>
          <g id="Group_1666" data-name="Group 1666" transform="translate(5.018 4.185)">
            <g id="Group_1665" data-name="Group 1665" transform="translate(4.17)">
              <path id="Path_7847" data-name="Path 7847" d="M766.789,343.632c-1.256-1.039-5.064.54-5.064.54.651-1.446.471-4.607-.473-4.607-1.516,0-.605,5.075-5.376,6.82v6.76s9.745,1.9,10.835.262S768.045,344.671,766.789,343.632Z" transform="translate(-755.876 -339.566)" fill="#fff"/>
            </g>
            <rect id="Rectangle_992" data-name="Rectangle 992" width="3.533" height="7.579" transform="translate(0 6.375)" fill="#fff"/>
          </g>
        </g>
        <g id="Group_1669" data-name="Group 1669" transform="translate(50.835 62.18)">
          <circle id="Ellipse_340" data-name="Ellipse 340" cx="6.683" cy="6.683" r="6.683" fill="#ea4335"/>
          <g id="Group_1668" data-name="Group 1668" transform="translate(2.815 3.714)">
            <path id="Path_7848" data-name="Path 7848" d="M629.3,327.362a3.928,3.928,0,1,0-6.974.135h-.01l3.283,3.644s3.6-3.615,3.695-3.767l.01-.012Z" transform="translate(-621.897 -324.1)" fill="#fff"/>
          </g>
        </g>
        <g id="Group_1671" data-name="Group 1671" transform="translate(52.482 88.34)">
          <path id="Path_7849" data-name="Path 7849" d="M631.026,353.008a5.106,5.106,0,1,0-5.105,5.105A5.106,5.106,0,0,0,631.026,353.008Z" transform="translate(-620.814 -347.902)" fill="#ea4335"/>
          <g id="Group_1670" data-name="Group 1670" transform="translate(2.151 2.837)">
            <path id="Path_7850" data-name="Path 7850" d="M628.751,353.4a3,3,0,1,0-5.329.1h-.007l2.507,2.784s2.748-2.762,2.822-2.878l.009-.009Z" transform="translate(-623.095 -350.911)" fill="#fff"/>
          </g>
        </g>
      </g>
      <g id="Group_5730" data-name="Group 5730" transform="translate(10803.76 -990.439)">
        <path id="Path_7804" data-name="Path 7804" d="M689.392,426.536H568.923a8.565,8.565,0,0,1-8.566-8.565h0a8.565,8.565,0,0,1,8.566-8.565H689.392a8.565,8.565,0,0,1,8.565,8.565h0A8.565,8.565,0,0,1,689.392,426.536Z" transform="translate(-560.357 -409.406)" fill="rgba(26,141,255,0.16)"/>
        <path id="Path_7805" data-name="Path 7805" d="M689.392,464.515H568.923a8.565,8.565,0,0,1-8.566-8.565h0a8.566,8.566,0,0,1,8.566-8.565H689.392a8.566,8.566,0,0,1,8.565,8.565h0A8.565,8.565,0,0,1,689.392,464.515Z" transform="translate(-560.357 -417.906)" fill="rgba(26,141,255,0.16)"/>
        <path id="Path_7806" data-name="Path 7806" d="M642.622,502.5h-73.7a8.566,8.566,0,0,1-8.566-8.566h0a8.566,8.566,0,0,1,8.566-8.565h73.7a8.566,8.566,0,0,1,8.566,8.565h0A8.566,8.566,0,0,1,642.622,502.5Z" transform="translate(-560.357 -426.406)" fill="rgba(26,141,255,0.16)"/>
      </g>
      <g id="Group_1679" data-name="Group 1679" transform="translate(10937.664 -1246.12)">
        <g id="Group_1674" data-name="Group 1674">
          <path id="Path_7851" data-name="Path 7851" d="M694.466,115.968a19.994,19.994,0,0,0-19.994,19.995V237.3a3.92,3.92,0,0,0,7.286,2.009l10.615-17.786a20,20,0,0,1,15.759-7.69h82.48a19.994,19.994,0,0,0,19.995-19.994v-57.88a20,20,0,0,0-19.995-19.995Z" transform="translate(-674.472 -115.968)" fill="#4285f4" stroke="#fff" stroke-width="1"/>
        </g>
        <g id="Group_1678" data-name="Group 1678" transform="translate(20.275 19.778)">
          <g id="Group_1675" data-name="Group 1675">
            <rect id="Rectangle_993" data-name="Rectangle 993" width="97.615" height="10.035" fill="#ccdbff"/>
          </g>
          <g id="Group_1676" data-name="Group 1676" transform="translate(0 21.712)">
            <rect id="Rectangle_994" data-name="Rectangle 994" width="97.615" height="10.035" fill="#ccdbff"/>
          </g>
          <g id="Group_1677" data-name="Group 1677" transform="translate(0 43.425)">
            <rect id="Rectangle_995" data-name="Rectangle 995" width="97.615" height="10.035" fill="#ccdbff"/>
          </g>
        </g>
      </g>
    </g>
  </g>
</svg>
