<svg xmlns="http://www.w3.org/2000/svg" xmlns:xlink="http://www.w3.org/1999/xlink" width="375.507" height="334.249" viewBox="0 0 375.507 334.249">
  <defs>
    <linearGradient id="linear-gradient" x1="0.5" x2="0.5" y2="1" gradientUnits="objectBoundingBox">
      <stop offset="0" stop-color="#eff6ff"/>
      <stop offset="1" stop-color="#c4d8fb"/>
    </linearGradient>
    <linearGradient id="linear-gradient-2" x1="-0.197" y1="0.444" x2="1.701" y2="0.617" gradientUnits="objectBoundingBox">
      <stop offset="0.08" stop-color="#f5e0cd"/>
      <stop offset="0.92" stop-color="#deb18a"/>
    </linearGradient>
    <linearGradient id="linear-gradient-3" x1="0.054" y1="0.828" x2="1.199" y2="-0.294" gradientUnits="objectBoundingBox">
      <stop offset="0" stop-color="#f5e0cd"/>
      <stop offset="0.4" stop-color="#deb18a"/>
    </linearGradient>
    <linearGradient id="linear-gradient-4" x1="0.751" y1="0.815" x2="0.105" y2="0.068" gradientUnits="objectBoundingBox">
      <stop offset="0.05" stop-color="#f5e0cd"/>
      <stop offset="0.48" stop-color="#deb18a"/>
    </linearGradient>
    <linearGradient id="linear-gradient-5" x1="0.236" y1="0.168" x2="0.611" y2="1.152" gradientUnits="objectBoundingBox">
      <stop offset="0.54" stop-color="#3b2314"/>
      <stop offset="0.88" stop-color="#603813"/>
    </linearGradient>
    <linearGradient id="linear-gradient-6" x1="0.033" y1="0.517" x2="1.03" y2="0.487" gradientUnits="objectBoundingBox">
      <stop offset="0.27" stop-color="#f5e0cd"/>
      <stop offset="0.77" stop-color="#ebc19c"/>
    </linearGradient>
    <linearGradient id="linear-gradient-7" x1="-0.215" y1="0.516" x2="1.343" y2="0.478" gradientUnits="objectBoundingBox">
      <stop offset="0.2" stop-color="#f5e0cd"/>
      <stop offset="0.6" stop-color="#ebc19c"/>
    </linearGradient>
    <linearGradient id="linear-gradient-8" x1="0.391" y1="1.561" x2="0.585" y2="-0.573" gradientUnits="objectBoundingBox">
      <stop offset="0" stop-color="#f5e0cd"/>
      <stop offset="0.35" stop-color="#ebc19c"/>
    </linearGradient>
    <linearGradient id="linear-gradient-9" x1="1.133" y1="0.645" x2="-0.483" y2="0.221" gradientUnits="objectBoundingBox">
      <stop offset="0.32" stop-color="#f5e0cd"/>
      <stop offset="0.75" stop-color="#ebc19c"/>
    </linearGradient>
    <linearGradient id="linear-gradient-10" x1="0.547" y1="1.36" x2="0.366" y2="-0.091" xlink:href="#linear-gradient-3"/>
    <linearGradient id="linear-gradient-11" x1="0.381" y1="-0.529" x2="0.799" y2="1.722" gradientUnits="objectBoundingBox">
      <stop offset="0" stop-color="#f5e0cd"/>
      <stop offset="0.71" stop-color="#deb18a"/>
    </linearGradient>
    <linearGradient id="linear-gradient-12" x1="0.658" y1="-0.477" x2="0.382" y2="1.291" gradientUnits="objectBoundingBox">
      <stop offset="0" stop-color="#f5e0cd"/>
      <stop offset="0.56" stop-color="#ebc19c"/>
    </linearGradient>
    <linearGradient id="linear-gradient-13" x1="-0.994" y1="0.519" x2="2.564" y2="0.476" gradientUnits="objectBoundingBox">
      <stop offset="0" stop-color="#03528c"/>
      <stop offset="0.33" stop-color="#434343"/>
      <stop offset="1" stop-color="#434343"/>
    </linearGradient>
    <linearGradient id="linear-gradient-15" x1="0.45" y1="0.833" x2="0.537" y2="-0.062" gradientUnits="objectBoundingBox">
      <stop offset="0.56" stop-color="#603813"/>
      <stop offset="0.9" stop-color="#8a5d3b"/>
    </linearGradient>
    <linearGradient id="linear-gradient-16" x1="5.098" y1="-0.429" x2="-6.297" y2="1.893" gradientUnits="objectBoundingBox">
      <stop offset="0" stop-color="#f17179"/>
      <stop offset="0.44" stop-color="#9e283d"/>
    </linearGradient>
    <linearGradient id="linear-gradient-17" x1="0.5" y1="-5.421" x2="0.5" y2="11.496" gradientUnits="objectBoundingBox">
      <stop offset="0" stop-color="#43caff"/>
      <stop offset="0.38" stop-color="#35caff"/>
      <stop offset="1" stop-color="#22cbff"/>
    </linearGradient>
    <linearGradient id="linear-gradient-18" x1="0.5" y1="-5.421" x2="0.5" y2="11.496" xlink:href="#linear-gradient-17"/>
    <linearGradient id="linear-gradient-19" x1="0.5" y1="2.879" x2="0.5" y2="-0.974" gradientUnits="objectBoundingBox">
      <stop offset="0" stop-color="#43caff"/>
      <stop offset="0.19" stop-color="#6bd5ff"/>
      <stop offset="0.58" stop-color="#baecff"/>
      <stop offset="0.86" stop-color="#ecfaff"/>
      <stop offset="1" stop-color="#fff"/>
    </linearGradient>
    <linearGradient id="linear-gradient-20" x1="13.214" y1="21.323" x2="11.705" y2="19.643" gradientUnits="objectBoundingBox">
      <stop offset="0" stop-color="#508fea"/>
      <stop offset="0.63" stop-color="#7aa6f6"/>
      <stop offset="1" stop-color="#8db0fc"/>
    </linearGradient>
    <linearGradient id="linear-gradient-21" y1="-0.14" x2="0.677" y2="0.732" gradientUnits="objectBoundingBox">
      <stop offset="0" stop-color="#acafb2"/>
      <stop offset="0.36" stop-color="#615f5f"/>
      <stop offset="0.79" stop-color="#615f5f"/>
      <stop offset="1" stop-color="#434343"/>
    </linearGradient>
    <linearGradient id="linear-gradient-22" x1="-62.89" y1="2.13" x2="-65.574" y2="0.227" gradientUnits="objectBoundingBox">
      <stop offset="0" stop-color="#2095f9"/>
      <stop offset="0.5" stop-color="#147dfb"/>
      <stop offset="0.99" stop-color="#0b6afc"/>
    </linearGradient>
  </defs>
  <g id="Group_6151" data-name="Group 6151" transform="translate(-1088.547 -1384.858)">
    <ellipse id="floor" cx="187.754" cy="37.755" rx="187.754" ry="37.755" transform="translate(1088.547 1643.598)" fill="url(#linear-gradient)"/>
    <g id="Group_5753" data-name="Group 5753" transform="translate(-10091 2109.858)">
      <path id="Rectangle_1012" data-name="Rectangle 1012" d="M17.715,0H134.6a17.937,17.937,0,0,1,17.715,18.151v278.9A17.937,17.937,0,0,1,134.6,315.2H17.715A17.937,17.937,0,0,1,0,297.053V18.151A17.937,17.937,0,0,1,17.715,0Z" transform="translate(11237.015 -725)" fill="#213458"/>
      <path id="Path_11118" data-name="Path 11118" d="M15.554,0H135.213a15.554,15.554,0,0,1,15.554,15.554V295.97a15.554,15.554,0,0,1-15.554,15.554H15.554A15.554,15.554,0,0,1,0,295.97V15.554A15.554,15.554,0,0,1,15.554,0Z" transform="translate(11235.101 -721.319)" fill="#4285f4" stroke="#34a853" stroke-width="0.2"/>
      <path id="Path_11117" data-name="Path 11117" d="M1.362,0H133.985a1.362,1.362,0,0,1,1.362,1.362V244.275a1.362,1.362,0,0,1-1.362,1.362H1.362A1.362,1.362,0,0,1,0,244.275V1.362A1.362,1.362,0,0,1,1.362,0Z" transform="translate(11242.97 -689.889)" fill="#fff" stroke="#d5d5d5" stroke-width="0.2"/>
      <path id="Path_7953" data-name="Path 7953" d="M8.666,3.34a1.67,1.67,0,0,1,0-3.34H39.6a1.67,1.67,0,1,1,0,3.34ZM3.094,0a1.67,1.67,0,0,1,0,3.34H1.671a1.67,1.67,0,1,1,0-3.34Z" transform="translate(11289.851 -704.897)" fill="#fff" fill-rule="evenodd"/>
      <path id="Path_7954" data-name="Path 7954" d="M10.926,21.851A10.925,10.925,0,1,0,0,10.926,10.925,10.925,0,0,0,10.926,21.851Z" transform="translate(11299.559 -438.572)" fill="#fff" fill-rule="evenodd"/>
      <g id="Group_1705" data-name="Group 1705" transform="translate(11251.448 -683.499)">
        <path id="Path_7967" data-name="Path 7967" d="M.4.812A.406.406,0,1,1,.4,0H9.288a.406.406,0,0,1,0,.812Zm0,5.836a.4.4,0,0,1,0-.809H9.288a.4.4,0,0,1,0,.809Zm0-2.918a.406.406,0,1,1,0-.812H9.288a.406.406,0,0,1,0,.812Z" transform="translate(0.003 0)" fill="#4285f4" fill-rule="evenodd"/>
        <path id="Path_7968" data-name="Path 7968" d="M11.916.363ZM1.232.809H6.449v4.2H1.232a.409.409,0,0,1-.3-.123.416.416,0,0,1-.127-.3V1.232A.423.423,0,0,1,1.232.809ZM11.045,0H1.232A1.236,1.236,0,0,0,0,1.232V4.589A1.236,1.236,0,0,0,1.232,5.821h9.813a1.23,1.23,0,0,0,.843-.337l.028-.025a1.232,1.232,0,0,0,.361-.871V1.232A1.235,1.235,0,0,0,11.045,0Z" transform="translate(105.794 0.414)" fill="#4285f4" fill-rule="evenodd"/>
      </g>
    </g>
    <g id="Group_5754" data-name="Group 5754" transform="translate(0 -10)">
      <path id="Path_1057" data-name="Path 1057" d="M617.151,823.64l-6.1,36.285s-6.778,17.635-7.119,29.844c0,0-.2,17.573-3.6,24.347l14.811,3.65-2.789-10.089s6.16-21.3,8.87-35.543l16.955-37.979Z" transform="translate(570.131 745.083)" fill="url(#linear-gradient-2)"/>
      <path id="Path_1058" data-name="Path 1058" d="M674.749,846.23l-.295,3.564-.744,4.428,9.453,4.332s2.647,8.086,5.846,11.206l1.44-3.223L694.7,858l-9.463-10.362Z" transform="translate(511.466 727.023)" fill="url(#linear-gradient-3)"/>
      <path id="Path_1059" data-name="Path 1059" d="M995.36,837.549s8.14,12.552,15.939,14.238l4.412-12.547-11.87-15.6Z" transform="translate(254.319 745.083)" fill="url(#linear-gradient-4)"/>
      <path id="Path_1060" data-name="Path 1060" d="M706.593,441.075s-1.356,15.937-4.412,26.789c0,0-6.443,20.346-3.73,28.476l61.717-2.713c.07,0-.92-7.492-1-7.947-.842-4.9-2.785-9.509-4.269-14.238s-2.282-9.642-3.431-14.487c-1.157-4.875-2.292-9.77-3.187-14.7-.18-.987-.361-1.975-.487-2.97-.054-.423.062-1.6-.164-1.939C747.625,437.335,721.176,397.328,706.593,441.075Z" transform="translate(492.219 1067.289)" fill="url(#linear-gradient-5)"/>
      <path id="Path_1061" data-name="Path 1061" d="M730.835,869.379H639.266c-.71.018,1.554-7.949,1.889-8.756,1.5-3.459,3.81-6.491,5.894-9.613,2.731-4.1,4.977-8.511,7.314-12.852,4.492-8.324,8.824-16.723,13.077-25.159.786-1.534,1.552-3.086,2.318-4.612.02-.018.02-.036.038-.056l-.112-.544a.135.135,0,0,1-.018-.072l-.487-2.152-3.441-15.628c-9.156-10.831-10.512-17.888-10.512-17.888l-18.315-9.024,13.454-18.283c6.1-5.031,18.535.878,18.535.878l25.983.656c.822.02,3.032-1.683,3.947-2.005a20.341,20.341,0,0,1,4.075-.9c8.118-.973,10.811,4.041,16.294,8.924.878.8,8.422,5.93,8.422,6.116l-1.873,4.612c-1.291,2.749-4.061,4.612-6.642,6.062-2.19,1.217-4.677,1.871-6.92,2.974.186,3.209-1.2,5.986-2.7,8.717a35.266,35.266,0,0,0-4.211,15.241v.018a28.392,28.392,0,0,0,.525,7.033,21.633,21.633,0,0,0,.578,2.246h.02c-.02.018,0,.036,0,.056,1.889,6.058,5.91,11.242,8.6,16.947C722.041,837.169,726.868,853.441,730.835,869.379Z" transform="translate(540.887 809.783)" fill="#4285f4"/>
      <path id="Path_1062" data-name="Path 1062" d="M989.15,543.448a.8.8,0,0,1,.4-.277c2.039-.694,4.2,1.131,5.214,2.773.449.728.455,1.432,1.33,1.8s1.785.142,1.891-.886c.2-1.847-.245-3.77-.261-5.615-.02-2.26.02-4.522.094-6.782a9.6,9.6,0,0,1,.373-3.122c.317-.8,1.075-2.374,2.1-1.328.389.4.249,1.151.249,1.668,0,1.109-.018,2.206.02,3.307a17.235,17.235,0,0,0,.523,2.844c.293,1.456.971,3.293.736,4.787a40.692,40.692,0,0,1,3.03-10.761,10.755,10.755,0,0,1,2.575-3.738c.259-.214,1.2-.946,1.554-.722,1.261.786-.6,4.211-.953,5.059a19.06,19.06,0,0,0-1.119,7.095c0,2.17,1.265-1.253,1.538-1.823a41.887,41.887,0,0,1,3.844-6.387c.453-.624,2.166-2.7,3.084-2.406,1.281.423-.347,3.3-.672,3.92-1.027,1.975-1.915,4.033-3.026,5.964-.3.517-1.58,2.3-.92,2.884.547.481,2.916-1.9,3.425-2.272a26.212,26.212,0,0,1,3.83-2.769c.552-.271,1.219-.684,1.576-.018.333.618-.2,1.751-.6,2.206-.7.784-1.616,1.37-2.282,2.192-.694.856-1.512,1.622-2.124,2.543-1.675,2.517-2.314,5.968-2.709,8.918a21.122,21.122,0,0,1-1.973,7.063,4.963,4.963,0,0,0-.736,2.7,19.786,19.786,0,0,0,.6,2.068c.528,2.384.9,4.813,1.328,7.207,1.45,8.15,1.861,16.444,2.31,24.694a33.307,33.307,0,0,1-.345,8.176,17.852,17.852,0,0,1-2.194,6.439c-.925,1.4-3.335,3.87-5.166,3.972-1.42.08-2.3-1.151-3.04-2.182a24.408,24.408,0,0,1-4.933-12.293,43.89,43.89,0,0,1,1.257-13.2s2.607-17.408,1.917-24.188c0,0-6.1-3.844-6.553-8.366-.971-1.979-1.927-3.963-2.9-5.942C991.087,547.914,988.36,544.557,989.15,543.448Z" transform="translate(259.397 981.949)" fill="url(#linear-gradient-6)"/>
      <path id="Path_1063" data-name="Path 1063" d="M818.083,630.533c-15.732,23.739-29.033,0-29.033,0a31.851,31.851,0,0,0,5.368-14.591,24.129,24.129,0,0,0-.989-9.826c-.171-.544-.3-.842-.3-.842,6.433-14.926,17.116,0,17.116,0v.858a49.444,49.444,0,0,0,.86,9.024C813.144,625.614,818.083,630.533,818.083,630.533Z" transform="translate(419.256 924.963)" fill="url(#linear-gradient-7)"/>
      <path id="Path_1064" data-name="Path 1064" d="M828.535,644.934c-6.042,6.828-13.955,2.619-16.687.8a24.131,24.131,0,0,0-.989-9.826h16.815A49.438,49.438,0,0,0,828.535,644.934Z" transform="translate(401.82 895.167)" fill="url(#linear-gradient-8)"/>
      <path id="Path_1065" data-name="Path 1065" d="M752.019,453.125s9.7,17.3,21.126,18.822c0,0,10.921-4.241,17.025-18.822l-1.526-22.041L775.08,420.63,751,427.013Z" transform="translate(449.676 1067.276)" fill="url(#linear-gradient-9)"/>
      <path id="Path_1066" data-name="Path 1066" d="M766,467.488l14.81-1.931s-2.856-7.205-2.978-9.124c0,0,8.9,10.1,19.183,10.247L776.9,446.54l-4.055.694Z" transform="translate(437.684 1046.561)" fill="url(#linear-gradient-10)"/>
      <path id="Path_1067" data-name="Path 1067" d="M789.05,757.68s13.314,14.284,26.4,1.835l.279,1.628S802.253,780.705,789.05,757.68Z" transform="translate(419.256 797.816)" fill="url(#linear-gradient-11)"/>
      <path id="Path_1068" data-name="Path 1068" d="M1027.43,628.265s8.28-2.5,10.536,5.138C1037.972,633.4,1036.637,628.9,1027.43,628.265Z" transform="translate(228.68 901.593)" fill="url(#linear-gradient-12)"/>
      <path id="Path_1075" data-name="Path 1075" d="M774.055,748.962s1.129,18.235-2.495,25.949c0,0,1.286-24.411,0-26.761Z" transform="translate(433.239 805.435)" fill="url(#linear-gradient-13)"/>
      <path id="Path_1076" data-name="Path 1076" d="M922.08,775s.166,11.1,2.356,17.3l1.019-16.719Z" transform="translate(312.903 783.969)" fill="url(#linear-gradient-13)"/>
      <path id="Path_1077" data-name="Path 1077" d="M735.7,410.309l12.381-1.021s-3.052-6.1-2.713-11.529c0,0,12.032,14.417,22.041,13.731,0,0-7.46,37.983,4.071,61.891,0,0-.919-32.068,4.628-47.15,2.569-6.993,1.4-16.209.225-23.33-1.682-10.147-9.331-20.41-19.113-23.8-10.388-3.6-22.642,2.914-27.056,12.971-5.146,11.711-1.149,25.205.453,37.225,0,.01,5.428,40.7,3.223,52.225C733.843,481.521,744.524,427.6,735.7,410.309Z" transform="translate(468.363 1101.277)" fill="url(#linear-gradient-15)"/>
      <path id="Path_1078" data-name="Path 1078" d="M983.37,948.33c-.02.018,0,.036,0,.056a.142.142,0,0,1-.02-.056Z" transform="translate(263.92 645.398)" fill="url(#linear-gradient-16)"/>
    </g>
    <path id="Path_1079" data-name="Path 1079" d="M1438.546,742.462a152.983,152.983,0,0,1-25.3,26.1,3.744,3.744,0,0,0-.365,5.138,3.39,3.39,0,0,0,4.951.9c.066-.042.132-.086.2-.134,16.043-11.356,26.136-24.538,26.02-28.6S1440.645,740.421,1438.546,742.462Z" transform="translate(-78.773 810.728)" fill="#ffa466"/>
    <path id="Path_1080" data-name="Path 1080" d="M1297.8,810.892a242.107,242.107,0,0,1-33.211-15.9l-2.459,2.451a175.039,175.039,0,0,0,32.838,20.481s2.35.983,4.011-2.455c1.564-3.247-.977-4.5-.977-4.5A1.715,1.715,0,0,1,1297.8,810.892Z" transform="translate(41.045 767.988)" fill="#ffa466"/>
    <path id="Path_1081" data-name="Path 1081" d="M1445.01,753.226s-1.343,1.975,3.3,6.505c3.377,3.295,5.318,2.946,5.318,2.946s13.961-14.372,17.447-20.884-1.7-16.933-8.565-8.326C1455.693,742.024,1445.01,753.226,1445.01,753.226Z" transform="translate(-105.016 819.781)" fill="#34a853"/>
    <path id="Path_1082" data-name="Path 1082" d="M1225.664,778.834s-7.62-2.565-7.546-1.013c.058,1.147,1.414.9,3.648,2.22a3.2,3.2,0,0,1,1.019,1.239S1226.42,780.466,1225.664,778.834Z" transform="translate(76.232 782.113)" fill="#ff9e5c"/>
    <path id="Path_1083" data-name="Path 1083" d="M1214.164,768.475s-3.271-2.318-4.694-2.623c-1.588-.341-1.4-1.239-2.17-2.932-2.206-4.891-7.263-3.81-7.34-5.252.106-.686,3.076-.273,5.753.221,2.052.379,4.825,1.253,6.253,3.221a22.725,22.725,0,0,0,5.316,5.138C1219.266,767.516,1216.364,769.425,1214.164,768.475Z" transform="translate(90.748 798.115)" fill="#ff9e5c"/>
    <path id="Path_1084" data-name="Path 1084" d="M1496.106,1089.567a3.092,3.092,0,0,1-3.08,3.08H1446.6a3.09,3.09,0,0,1-3.078-3.08v-1.677a3.09,3.09,0,0,1,3.078-3.08h46.428a3.092,3.092,0,0,1,3.08,3.08Z" transform="translate(-103.97 536.287)" fill="#4285f4"/>
    <path id="Path_1085" data-name="Path 1085" d="M1221.85,1080.052h2.794l12.7-59.812h-6.411Z" transform="translate(118.483 608.694)" fill="url(#linear-gradient-17)"/>
    <path id="Path_1086" data-name="Path 1086" d="M1405.4,1020.24h-6.413l12.7,59.812h2.794Z" transform="translate(-23.135 608.694)" fill="url(#linear-gradient-18)"/>
    <g id="Group_636" data-name="Group 636" transform="translate(1340.333 1628.934)">
      <path id="Path_1087" data-name="Path 1087" d="M1221.85,1080.052h2.794l12.7-59.812h-6.411Z" transform="translate(-1221.85 -1020.24)" fill="#4285f4"/>
      <path id="Path_1088" data-name="Path 1088" d="M1405.4,1020.24h-6.413l12.7,59.812h2.794Z" transform="translate(-1363.467 -1020.24)" fill="#4285f4"/>
    </g>
    <path id="Path_1089" data-name="Path 1089" d="M1521.571,1262.9a1.187,1.187,0,0,1-1.562.6l-38.25-17.11a1.189,1.189,0,0,1-.6-1.564l.138-.315a1.191,1.191,0,0,1,1.566-.6l38.246,17.112a1.187,1.187,0,0,1,.6,1.564Z" transform="translate(-133.978 409.176)" fill="#00aed6"/>
    <path id="Path_1090" data-name="Path 1090" d="M1521.571,1262.9a1.187,1.187,0,0,1-1.562.6l-38.25-17.11a1.189,1.189,0,0,1-.6-1.564l.138-.315a1.191,1.191,0,0,1,1.566-.6l38.246,17.112a1.187,1.187,0,0,1,.6,1.564Z" transform="translate(-133.978 409.176)" fill="#4285f4"/>
    <path id="Path_1091" data-name="Path 1091" d="M1465.2,1262.9a1.188,1.188,0,0,0,1.562.6l38.248-17.11a1.187,1.187,0,0,0,.6-1.564l-.139-.315a1.191,1.191,0,0,0-1.566-.6l-38.246,17.112a1.187,1.187,0,0,0-.6,1.564Z" transform="translate(-121.112 409.176)" fill="#00aed6"/>
    <path id="Path_1092" data-name="Path 1092" d="M1465.2,1262.9a1.188,1.188,0,0,0,1.562.6l38.248-17.11a1.187,1.187,0,0,0,.6-1.564l-.139-.315a1.191,1.191,0,0,0-1.566-.6l-38.246,17.112a1.187,1.187,0,0,0-.6,1.564Z" transform="translate(-121.112 409.176)" fill="#4285f4"/>
    <path id="Path_1093" data-name="Path 1093" d="M1335.646,1178.038l-1.5-2.589,1.5-2.589h2.988l1.5,2.589-1.5,2.589Z" transform="translate(28.703 486.68)" fill="#4285f4"/>
    <path id="Path_1094" data-name="Path 1094" d="M1340.736,1180.973l-.926-1.606.926-1.606h1.855l.928,1.606-.928,1.606Z" transform="translate(24.178 482.762)" fill="url(#linear-gradient-19)"/>
    <path id="Path_1095" data-name="Path 1095" d="M1292,1376.919s.818,6.182-.658,6.86c-1.769.8-17.507-.056-18.229-1.5-.8-1.586.433-2.783,10.506-6.483C1287.869,1374.238,1291.071,1373.871,1292,1376.919Z" transform="translate(32.428 304.595)" fill="#444"/>
    <path id="Path_1096" data-name="Path 1096" d="M1298.515,1305.6c-1.885-9.668-5.144-21.018-5.17-21.147l-3.888.754c.1.517,2.735,11.517,4.983,19.051,0,0-12.02,3.208-11.848,3.9.114.445,4.273-.511,9.088-1C1293.417,1306.982,1298.447,1306.762,1298.515,1305.6Z" transform="translate(24.688 376.682)" fill="#ffb680"/>
    <path id="Path_1097" data-name="Path 1097" d="M1314.851,979.274c6.963-1.432,16.789,8.282,17.306,15.343-2.041,7.019-8.055,10.486-12.7,12.165-7.2,2.607-32.473,4.825-48.329,7.271l-8.258-12.752C1274.417,995.75,1314.851,979.274,1314.851,979.274Z" transform="translate(40.454 620.772)" fill="#fbbc05"/>
    <path id="Path_1098" data-name="Path 1098" d="M1246.46,1093.433c-1.366-3.61-3.249-11.6,2.13-14.076,4.835-2.226,6.586-3.343,8.9-2.023,3.269,1.869.784,7.255,1.227,9.895,1.825,10.8,10.929,40.307,9.389,42.828s-7.8,3.706-8.24,3.008S1254.18,1113.9,1246.46,1093.433Z" transform="translate(54.745 542.716)" fill="#fbbc05"/>
    <path id="Path_1099" data-name="Path 1099" d="M1541.13,612.913s-19.708,6.345-23.262-4.508-.475-22.8,7.751-24.389,19.015,1.111,19.62,11.493-.523,11.007-.523,11.007a27.577,27.577,0,0,1,24.794,2.378c9.987,6.327,4.973,16.693,4.973,16.693s21.212,15.3,15.776,39.279-45.722,22.328-54.9-9.515C1529.665,635.67,1547.591,624.211,1541.13,612.913Z" transform="translate(-162.242 936.992)" fill="url(#linear-gradient-20)"/>
    <path id="Path_1100" data-name="Path 1100" d="M1541.13,612.913s-19.708,6.345-23.262-4.508-.475-22.8,7.751-24.389,19.015,1.111,19.62,11.493-.523,11.007-.523,11.007a27.577,27.577,0,0,1,24.794,2.378c9.987,6.327,4.973,16.693,4.973,16.693s21.212,15.3,15.776,39.279-45.722,22.328-54.9-9.515C1529.665,635.67,1547.591,624.211,1541.13,612.913Z" transform="translate(-162.242 936.992)" fill="url(#linear-gradient-21)"/>
    <path id="Path_1101" data-name="Path 1101" d="M1642.791,692.024a7.194,7.194,0,0,1-1.2,3.8,6.3,6.3,0,0,1-2.37,2.607,3.366,3.366,0,0,0-.024,1.66,4.92,4.92,0,0,0,1.1,1.458s1.909.255,3.7-2.807a11.12,11.12,0,0,0,1.661-5.633,1.96,1.96,0,0,0-2.858-1.081Z" transform="translate(-260.322 850.524)" fill="url(#linear-gradient-22)"/>
    <path id="Path_1102" data-name="Path 1102" d="M1497.488,1376.677s1.045,6.148-.4,6.88c-1.735.875-17.495.59-18.271-.826-.848-1.554.331-2.8,10.26-6.864C1493.263,1374.151,1496.453,1373.665,1497.488,1376.677Z" transform="translate(-132.009 304.692)" fill="#444"/>
    <path id="Path_1103" data-name="Path 1103" d="M1502.513,1313.844c-5.3-8.581-12.722-18.85-12.792-18.954l-3.361,2.094c.281.447,7.4,9.808,11.366,15.876,0,0-11.23,3.437-11.029,4.135.13.441,4.253-.67,9.046-1.337C1497.462,1315.419,1502.481,1315.012,1502.513,1313.844Z" transform="translate(-138.219 368.335)" fill="#ffb680"/>
    <path id="Path_1104" data-name="Path 1104" d="M1405.671,939c5.99-3.826,18.638,1.733,21.644,8.144.6,7.281-3.772,12.674-7.512,15.9-5.8,5-28.6,16.113-42.53,24.064L1365,978.143C1373.791,968.828,1405.671,939,1405.671,939Z" transform="translate(-41.195 653.862)" fill="#fbbc05"/>
    <path id="Path_1105" data-name="Path 1105" d="M1361.454,1132.652c-2.565-2.884-7.181-9.676-3.04-13.907,3.718-3.81,4.955-5.477,7.586-5.072,3.72.579,3.323,6.5,4.682,8.8,5.563,9.439,22.223,33.875,24.064,36.644-.541,2.9-5.956,6.247-6.618,5.749S1375.979,1149,1361.454,1132.652Z" transform="translate(-34.606 513.259)" fill="#fbbc05"/>
    <path id="Path_1106" data-name="Path 1106" d="M1507.072,736.492c2.938,16.5-.732,23.292-8.9,36.862,1.859,5.184,13.292,5.972,20.589,7.4,5.066.991,14.886.6,15.1-1.516,3.247-32.84-1.879-54.09-6.072-55.727-2.158-.844-3.668-1.935-6.09-2.571a17.62,17.62,0,0,0-12.309,1.243C1506.809,723.38,1505.981,730.372,1507.072,736.492Z" transform="translate(-147.66 827.661)" fill="#34a853"/>
    <path id="Path_1107" data-name="Path 1107" d="M1532.856,620.207s-.511,11.982,2.31,14.274,7.169-.253,7.169-.253a2.555,2.555,0,0,1,.5,1.819c-.228.83-5.124,7.019-.916,8.38,4.462,1.45,7.821-6.489,7.821-6.489s-.2-3.975-2.831-12.872c.148-1.284,3.507-3.65,1.8-5.938s-3.912,1.8-3.912,1.8l-.1-6.533S1536.895,620.621,1532.856,620.207Z" transform="translate(-175.361 912.363)" fill="#ffb680"/>
    <path id="Path_1108" data-name="Path 1108" d="M1624.011,750.85a152.821,152.821,0,0,1,11.158,34.59,3.746,3.746,0,0,0,4.364,2.735,3.389,3.389,0,0,0,3.118-3.949,1.62,1.62,0,0,0-.026-.237c-2.493-19.488-9.381-34.6-13.021-36.4S1623.189,748.033,1624.011,750.85Z" transform="translate(-248.149 806.401)" fill="#ffa466"/>
    <path id="Path_1109" data-name="Path 1109" d="M1550.815,914.695a241.794,241.794,0,0,1-36.445,5.254l-.68,3.409a175.91,175.91,0,0,0,38.681-1.243s2.5-.489,1.967-4.267c-.509-3.569-3.315-3.193-3.315-3.193A1.7,1.7,0,0,1,1550.815,914.695Z" transform="translate(-160.068 672.33)" fill="#ffa466"/>
    <path id="Path_1110" data-name="Path 1110" d="M1624.892,769.57s1.115,2.114,7.3.144c4.5-1.436,5.1-3.313,5.1-3.313s-6.13-19.077-10.245-25.205-15.744-6.457-11.374,3.648C1620.011,754.883,1624.892,769.57,1624.892,769.57Z" transform="translate(-240.823 814.454)" fill="#34a853"/>
    <path id="Path_1111" data-name="Path 1111" d="M1468.447,943.06s-7.763,2.108-6.834,3.355c.684.923,1.678-.032,4.265-.182a3.2,3.2,0,0,1,1.536.461S1469.977,944,1468.447,943.06Z" transform="translate(-118.372 649.611)" fill="#ff9e5c"/>
    <path id="Path_1112" data-name="Path 1112" d="M1452.963,937.157s-4.011-.106-5.36.429c-1.51.6-1.861-.247-3.435-1.227-4.55-2.84-8.156.866-9.024-.283-.291-.632,2.406-1.939,4.907-3.008,1.915-.828,4.7-1.644,6.989-.8a22.6,22.6,0,0,0,7.273,1.313C1456.673,933.533,1455.324,936.726,1452.963,937.157Z" transform="translate(-97.256 658.524)" fill="#ff9e5c"/>
    <path id="Path_1113" data-name="Path 1113" d="M1189.6,103.65H1088.041a31.031,31.031,0,1,0,0,62.062h70.524l-5.643,22.568,22.568-22.568H1189.6a31.031,31.031,0,1,0,0-62.062Z" transform="translate(205.032 1320.69)" fill="#fff" stroke="#4285f4" stroke-width="1"/>
    <path id="Path_1115" data-name="Path 1115" d="M1405.983,179.667a19.747,19.747,0,1,1-19.739-19.747A19.747,19.747,0,0,1,1405.983,179.667Z" transform="translate(-42.387 1275.704)" fill="#4285f4"/>
    <path id="Path_1116" data-name="Path 1116" d="M1152.773,179.667a19.747,19.747,0,1,1-19.747-19.747A19.747,19.747,0,0,1,1152.773,179.667Z" transform="translate(160.046 1275.704)" fill="#e3584b"/>
    <path id="Path_1117" data-name="Path 1117" d="M1659.177,179.667a19.749,19.749,0,1,1-19.747-19.747,19.749,19.749,0,0,1,19.747,19.747Z" transform="translate(-244.803 1275.704)" fill="#34a853"/>
    <path id="Path_1118" data-name="Path 1118" d="M1408.69,230.25h5.641v5.643h-5.641Z" transform="translate(-76.124 1219.478)" fill="#fff"/>
    <path id="Path_1119" data-name="Path 1119" d="M1493.09,230.25h5.641v5.643h-5.641Z" transform="translate(-143.599 1219.478)" fill="#fff"/>
    <path id="Path_1120" data-name="Path 1120" d="M1436.82,286.52H1448.1v5.643H1436.82Z" transform="translate(-98.613 1174.492)" fill="#fff"/>
    <path id="Path_1121" data-name="Path 1121" d="M1155.48,230.25h5.641v5.643h-5.641Z" transform="translate(126.308 1219.478)" fill="#fff"/>
    <path id="Path_1122" data-name="Path 1122" d="M1239.872,230.25h5.639v5.643h-5.641Z" transform="translate(58.841 1219.478)" fill="#fff"/>
    <path id="Path_1123" data-name="Path 1123" d="M1184.952,280.028a5.272,5.272,0,0,0-7.294,0l-3.989-3.989a11.058,11.058,0,0,1,15.273,0Z" transform="translate(111.766 1185.317)" fill="#fff"/>
    <path id="Path_1124" data-name="Path 1124" d="M1661.9,230.25h5.635v5.643H1661.9Z" transform="translate(-278.557 1219.478)" fill="#fff"/>
    <path id="Path_1125" data-name="Path 1125" d="M1746.3,230.25h5.641v5.643H1746.3Z" transform="translate(-346.032 1219.478)" fill="#fff"/>
    <path id="Path_1126" data-name="Path 1126" d="M1687.719,283.729a10.772,10.772,0,0,1-7.638-3.16l3.991-3.989a5.162,5.162,0,0,0,7.293,0l3.991,3.989A10.769,10.769,0,0,1,1687.719,283.729Z" transform="translate(-293.091 1182.438)" fill="#fff"/>
    <path id="Path_1127" data-name="Path 1127" d="M529.61,257.008a1.959,1.959,0,0,0,1.953,1.915h24.465a1.957,1.957,0,0,0,1.955-1.957V243.48Z" transform="translate(626.669 1208.901)" fill="#ff3051"/>
    <path id="Path_1128" data-name="Path 1128" d="M557.938,234.627a1.957,1.957,0,0,0-1.955-1.957H531.517a1.957,1.957,0,0,0-1.957,1.957v13.739l28.368-13.528Z" transform="translate(626.709 1217.543)" fill="#ff4764"/>
    <path id="Path_1129" data-name="Path 1129" d="M551.072,262.447h-3.423v-7.338a.489.489,0,0,0-.979,0v7.821a.489.489,0,0,0,.489.489h3.912a.489.489,0,1,0,0-.979Z" transform="translate(613.031 1199.995)" fill="#f1f2f2"/>
    <path id="Path_1130" data-name="Path 1130" d="M633.98,255.6a.489.489,0,0,0,0-.979h-3.923a.489.489,0,0,0-.487.489v7.821a.488.488,0,0,0,.487.489h3.914a.489.489,0,1,0,0-.979h-3.417v-2.932H633a.489.489,0,1,0,0-.979h-2.446V255.6Z" transform="translate(546.755 1199.995)" fill="#f1f2f2"/>
    <path id="Path_1131" data-name="Path 1131" d="M578.869,254.62a.489.489,0,0,0-.489.489v7.821a.489.489,0,1,0,.979,0v-7.821A.489.489,0,0,0,578.869,254.62Z" transform="translate(587.679 1199.995)" fill="#f1f2f2"/>
    <path id="Path_1132" data-name="Path 1132" d="M596.587,254.559a.481.481,0,0,0-.373.012.493.493,0,0,0-.257.275l-2.435,6.493-2.021-6.469a.489.489,0,1,0-.932.293l2.445,7.821a.487.487,0,0,0,.453.343h.014a.491.491,0,0,0,.459-.3l2.934-7.821a.487.487,0,0,0-.287-.63Z" transform="translate(577.959 1200.088)" fill="#f1f2f2"/>
  </g>
</svg>
