<svg xmlns="http://www.w3.org/2000/svg" width="77.121" height="52.86" viewBox="0 0 77.121 52.86">
  <g id="Group_4682" data-name="Group 4682" transform="translate(-3672 -800)">
    <g id="live_1_" data-name="live (1)" transform="translate(3672 800)">
      <g id="Group_649" data-name="Group 649">
        <path id="Path_1352" data-name="Path 1352" d="M72.368,0H58.03A1.275,1.275,0,0,0,56.9,1.382,1.276,1.276,0,0,0,58.03,2.763h8.376V50.1H10.716V2.763H52.6a1.276,1.276,0,0,0,1.131-1.382A1.275,1.275,0,0,0,52.6,0H4.755C2.133,0,0,2.6,0,5.8V47.059c0,3.2,2.133,5.8,4.754,5.8H72.368c2.621,0,4.754-2.6,4.754-5.8V5.8c0-3.2-2.133-5.8-4.754-5.8ZM2.265,47.058V5.8a2.809,2.809,0,0,1,2.49-3.039h3.7V50.1h-3.7a2.809,2.809,0,0,1-2.49-3.039Zm72.593,0a2.809,2.809,0,0,1-2.49,3.039h-3.7V2.763h3.7A2.809,2.809,0,0,1,74.858,5.8Zm0,0" transform="translate(0 0)" fill="#1a73e8"/>
      </g>
      <path id="Path_1353" data-name="Path 1353" d="M466.038,112.219a1.132,1.132,0,0,0-1.132,1.132V120.6a1.132,1.132,0,0,0,2.264,0v-7.244A1.132,1.132,0,0,0,466.038,112.219Zm0,0" transform="translate(-394.879 -90.543)" fill="#1a73e8"/>
      <path id="Path_1354" data-name="Path 1354" d="M83.1,80.16A2.947,2.947,0,0,0,80.156,83.1V96.384A2.946,2.946,0,0,0,83.1,99.327h7.848a2.943,2.943,0,1,0,0-5.886h-4.9V83.1A2.947,2.947,0,0,0,83.1,80.16ZM90.947,95.7a.679.679,0,0,1,0,1.359H83.1a.68.68,0,0,1-.679-.679V83.1a.679.679,0,1,1,1.358,0v11.47A1.132,1.132,0,0,0,84.91,95.7Zm0,0" transform="translate(-68.083 -63.313)" fill="#1a73e8"/>
      <path id="Path_1355" data-name="Path 1355" d="M176.344,83.1V96.384a2.943,2.943,0,0,0,5.886,0V83.1a2.943,2.943,0,1,0-5.886,0Zm3.622,0V96.384a.679.679,0,1,1-1.358,0V83.1a.679.679,0,1,1,1.358,0Zm0,0" transform="translate(-149.782 -63.313)" fill="#1a73e8"/>
      <path id="Path_1356" data-name="Path 1356" d="M235.824,80.447a2.925,2.925,0,0,0-1.522,1.661l-2.063,5.676-2.063-5.675a2.943,2.943,0,1,0-5.532,2.011l4.83,13.281a2.943,2.943,0,0,0,5.532,0l4.829-13.281a2.943,2.943,0,0,0-4.01-3.673Zm1.476,2.029s.171.09.194.108a.664.664,0,0,1,.158.183.683.683,0,0,1,.055.579l-4.83,13.281a.679.679,0,0,1-1.277,0l-4.829-13.281a.679.679,0,0,1,1.277-.464l3.127,8.6a1.132,1.132,0,0,0,2.128,0l3.127-8.6A.686.686,0,0,1,237.3,82.476Zm0,0" transform="translate(-190.659 -63.323)" fill="#1a73e8"/>
      <path id="Path_1357" data-name="Path 1357" d="M347.447,86.045a2.943,2.943,0,1,0,0-5.886H339.6a2.947,2.947,0,0,0-2.943,2.943V96.384a2.946,2.946,0,0,0,2.943,2.943h7.848a2.943,2.943,0,1,0,0-5.886h-4.9V92.082h1.886a2.943,2.943,0,1,0,0-5.886h-1.886v-.151Zm-6.037,2.415h3.018a.679.679,0,0,1,0,1.359h-3.018a1.132,1.132,0,0,0-1.132,1.132v3.622a1.132,1.132,0,0,0,1.132,1.131h6.037a.679.679,0,0,1,0,1.359H339.6a.68.68,0,0,1-.679-.679V83.1a.68.68,0,0,1,.679-.68h7.848a.679.679,0,0,1,0,1.359h-6.037a1.132,1.132,0,0,0-1.132,1.132v2.415a1.132,1.132,0,0,0,1.132,1.131Zm0,0" transform="translate(-285.947 -63.313)" fill="#1a73e8"/>
    </g>
  </g>
</svg>
