<svg xmlns="http://www.w3.org/2000/svg" xmlns:xlink="http://www.w3.org/1999/xlink" width="395.221" height="355.867" viewBox="0 0 395.221 355.867">
  <defs>
    <linearGradient id="linear-gradient" x1="0.5" x2="0.5" y2="1" gradientUnits="objectBoundingBox">
      <stop offset="0" stop-color="#e9f2fe"/>
      <stop offset="1" stop-color="#c6d9fb"/>
    </linearGradient>
    <linearGradient id="linear-gradient-2" x1="0.073" y1="0.5" x2="1.269" y2="0.5" gradientUnits="objectBoundingBox">
      <stop offset="0" stop-color="#fbbc05"/>
      <stop offset="1" stop-color="#f3cc59"/>
    </linearGradient>
    <linearGradient id="linear-gradient-3" x1="0.073" y1="0.5" x2="1.269" y2="0.5" gradientUnits="objectBoundingBox">
      <stop offset="0" stop-color="#fbbc05"/>
      <stop offset="0.314" stop-color="#f8c634"/>
      <stop offset="0.436" stop-color="#fecc3d"/>
      <stop offset="0.524" stop-color="#f8c530"/>
      <stop offset="0.736" stop-color="#fbbc05"/>
      <stop offset="0.826" stop-color="#fbbc05"/>
      <stop offset="1" stop-color="#fbbc05"/>
    </linearGradient>
    <linearGradient id="linear-gradient-4" y1="0.5" x2="1" y2="0.5" gradientUnits="objectBoundingBox">
      <stop offset="0.06" stop-color="#3d2a5c"/>
      <stop offset="1" stop-color="#281349"/>
    </linearGradient>
    <linearGradient id="linear-gradient-5" y1="0.5" x2="1" y2="0.5" gradientUnits="objectBoundingBox">
      <stop offset="0" stop-color="#fbbc05"/>
      <stop offset="0.06" stop-color="#fbbc05"/>
      <stop offset="1" stop-color="#e9b009"/>
    </linearGradient>
    <linearGradient id="linear-gradient-7" x1="0" y1="0.5" x2="1" y2="0.5" xlink:href="#linear-gradient-4"/>
    <linearGradient id="linear-gradient-8" x1="0.5" y1="0.008" x2="0.5" y2="0.995" gradientUnits="objectBoundingBox">
      <stop offset="0" stop-color="#2680eb"/>
      <stop offset="1" stop-color="#4285f4"/>
    </linearGradient>
    <linearGradient id="linear-gradient-9" y1="0.5" x2="1" y2="0.5" gradientUnits="objectBoundingBox">
      <stop offset="0" stop-color="#fbbc05"/>
      <stop offset="0.06" stop-color="#fbbc05"/>
      <stop offset="1" stop-color="#f1b306"/>
    </linearGradient>
    <linearGradient id="linear-gradient-10" x1="0.5" y1="-1.612" x2="0.5" y2="2.803" gradientUnits="objectBoundingBox">
      <stop offset="0" stop-color="#ea4335"/>
      <stop offset="1" stop-color="#ea4335"/>
    </linearGradient>
  </defs>
  <g id="Group_4864" data-name="Group 4864" transform="translate(-999.205 1662.283)">
    <ellipse id="floor" cx="197.439" cy="23.705" rx="197.439" ry="23.705" transform="translate(999.547 -1353.825)" fill="url(#linear-gradient)"/>
    <g id="Group_632" data-name="Group 632" transform="translate(1185.909 -1662.283)" opacity="0.1">
      <rect id="Rectangle_262" data-name="Rectangle 262" width="4.496" height="109.026" fill="#34a853"/>
      <rect id="Rectangle_263" data-name="Rectangle 263" width="4.496" height="109.026" transform="translate(20.659)" fill="#34a853"/>
      <rect id="Rectangle_264" data-name="Rectangle 264" width="4.496" height="109.026" transform="translate(41.319)" fill="#34a853"/>
      <rect id="Rectangle_265" data-name="Rectangle 265" width="4.496" height="109.026" transform="translate(61.978)" fill="#34a853"/>
      <rect id="Rectangle_266" data-name="Rectangle 266" width="4.496" height="109.026" transform="translate(82.636)" fill="#34a853"/>
      <rect id="Rectangle_267" data-name="Rectangle 267" width="4.496" height="109.026" transform="translate(103.296)" fill="#34a853"/>
      <rect id="Rectangle_268" data-name="Rectangle 268" width="4.496" height="109.026" transform="translate(123.955)" fill="#34a853"/>
      <rect id="Rectangle_269" data-name="Rectangle 269" width="4.496" height="109.026" transform="translate(144.614)" fill="#34a853"/>
      <rect id="Rectangle_270" data-name="Rectangle 270" width="4.496" height="109.026" transform="translate(165.274)" fill="#34a853"/>
      <rect id="Rectangle_271" data-name="Rectangle 271" width="4.496" height="109.026" transform="translate(185.933)" fill="#34a853"/>
    </g>
    <g id="Group_633" data-name="Group 633" transform="translate(1185.909 -1646.548)" opacity="0.51">
      <rect id="Rectangle_273" data-name="Rectangle 273" width="4.496" height="50.018" transform="translate(20.659 43.274)" fill="#34a853"/>
      <rect id="Rectangle_274" data-name="Rectangle 274" width="4.496" height="93.29" transform="translate(41.319)" fill="#34a853"/>
      <rect id="Rectangle_275" data-name="Rectangle 275" width="4.496" height="27.163" transform="translate(61.978 66.128)" fill="#34a853"/>
      <rect id="Rectangle_272" data-name="Rectangle 272" width="4.496" height="76.431" transform="translate(0 16.861)" fill="#34a853"/>
      <rect id="Rectangle_276" data-name="Rectangle 276" width="4.496" height="54.513" transform="translate(82.636 38.778)" fill="#34a853"/>
      <rect id="Rectangle_277" data-name="Rectangle 277" width="4.496" height="74.932" transform="translate(103.296 18.359)" fill="#34a853"/>
      <rect id="Rectangle_278" data-name="Rectangle 278" width="4.496" height="48.332" transform="translate(123.955 44.96)" fill="#34a853"/>
      <rect id="Rectangle_279" data-name="Rectangle 279" width="4.496" height="81.863" transform="translate(144.614 11.427)" fill="#34a853"/>
      <rect id="Rectangle_280" data-name="Rectangle 280" width="4.496" height="44.958" transform="translate(165.274 48.332)" fill="#34a853"/>
      <rect id="Rectangle_281" data-name="Rectangle 281" width="4.496" height="71.935" transform="translate(185.933 21.357)" fill="#34a853"/>
    </g>
    <g id="Group_4861" data-name="Group 4861" transform="translate(-825 40)">
      <path id="Rectangle_1012" data-name="Rectangle 1012" d="M15.828,0H120.257a16.026,16.026,0,0,1,15.828,16.218V265.407a16.027,16.027,0,0,1-15.828,16.218H15.828A16.026,16.026,0,0,1,0,265.406V16.218A16.026,16.026,0,0,1,15.828,0Z" transform="translate(1933.274 -1641.104)" fill="#213458"/>
      <path id="Path_11118" data-name="Path 11118" d="M13.9,0H120.808a13.9,13.9,0,0,1,13.9,13.9V264.439a13.9,13.9,0,0,1-13.9,13.9H13.9A13.9,13.9,0,0,1,0,264.439V13.9A13.9,13.9,0,0,1,13.9,0Z" transform="translate(1931.563 -1637.816)" fill="#4285f4"/>
      <path id="Path_11117" data-name="Path 11117" d="M1.217,0H119.711a1.217,1.217,0,0,1,1.217,1.217V218.252a1.217,1.217,0,0,1-1.217,1.217H1.217A1.217,1.217,0,0,1,0,218.251V1.217A1.217,1.217,0,0,1,1.217,0Z" transform="translate(1938.452 -1608.986)" fill="#fff"/>
      <path id="Path_7953" data-name="Path 7953" d="M7.743,2.984A1.492,1.492,0,1,1,7.743,0H35.379a1.492,1.492,0,1,1,0,2.984ZM2.764,0a1.492,1.492,0,0,1,0,2.984H1.493A1.492,1.492,0,1,1,1.493,0Z" transform="translate(1980.48 -1623.143)" fill="#e6e0de" fill-rule="evenodd"/>
      <path id="Path_7954" data-name="Path 7954" d="M9.762,19.524A9.761,9.761,0,1,0,0,9.762a9.761,9.761,0,0,0,9.762,9.762Z" transform="translate(1989.154 -1385.191)" fill="#fff" fill-rule="evenodd"/>
      <g id="Group_1705" data-name="Group 1705" transform="translate(1946.169 -1604.024)">
        <path id="Path_7967" data-name="Path 7967" d="M.36.726A.363.363,0,1,1,.36,0H8.3a.363.363,0,0,1,0,.726Zm0,5.214a.361.361,0,0,1,0-.723H8.3a.361.361,0,1,1,0,.723Zm0-2.607a.361.361,0,1,1,0-.723H8.3a.363.363,0,0,1,0,.726Z" transform="translate(0.003 0)" fill="#4285f4" fill-rule="evenodd"/>
        <path id="Path_7968" data-name="Path 7968" d="M10.647.324ZM1.1.723H5.762V4.475H1.1a.366.366,0,0,1-.264-.11A.372.372,0,0,1,.723,4.1v-3A.378.378,0,0,1,1.1.723ZM9.869,0H1.1A1.1,1.1,0,0,0,0,1.1v3A1.1,1.1,0,0,0,1.1,5.2H9.869a1.1,1.1,0,0,0,.753-.3l.025-.022A1.1,1.1,0,0,0,10.97,4.1v-3A1.1,1.1,0,0,0,9.869,0Z" transform="translate(94.523 0.37)" fill="#4285f4" fill-rule="evenodd"/>
      </g>
      <circle id="Ellipse_383" data-name="Ellipse 383" cx="11.94" cy="11.94" r="11.94" transform="translate(1982.42 -1416.55) rotate(-45)" fill="#ea4335"/>
      <path id="Path_10758" data-name="Path 10758" d="M913.641,812.527a8.221,8.221,0,0,0-6.97-3.373c-4.928-.02-7.176,2.657-7.427,3.087a2.8,2.8,0,0,0,.241,2.289.821.821,0,0,0,.9.41l2.6-.555a.639.639,0,0,0,.494-.7l-.2-1.4a4.341,4.341,0,0,1,3.166-.979,5.35,5.35,0,0,1,3.072,1.017l-.116,1.4a.713.713,0,0,0,.582.755l2.49.443a.714.714,0,0,0,.76-.387C913.506,813.977,913.879,813.05,913.641,812.527Z" transform="translate(1092.894 -2228.602)" fill="#fff"/>
      <ellipse id="Ellipse_384" data-name="Ellipse 384" cx="11.94" cy="11.94" rx="11.94" ry="11.94" transform="translate(1948.305 -1423.007) rotate(-22.5)" fill="#34a853"/>
      <path id="Path_10759" data-name="Path 10759" d="M837.788,807.6H835.35l-.466-.685a.285.285,0,0,0-.238-.126h-3.73a.293.293,0,0,0-.241.126l-.466.685h-2.443a.294.294,0,0,0-.294.294v6.61a.294.294,0,0,0,.294.294h10.022a.293.293,0,0,0,.289-.294V807.9a.294.294,0,0,0-.289-.294Zm-.28,6.611h-9.456V808.19h2.3a.3.3,0,0,0,.241-.126l.466-.69h3.413l.466.69a.308.308,0,0,0,.241.126h2.331Z" transform="translate(1131.126 -2227.341)" fill="#fff"/>
      <path id="Path_10760" data-name="Path 10760" d="M836.286,810.59a2.233,2.233,0,1,0,1.194,4.117.289.289,0,0,0,.089-.4.293.293,0,0,0-.4-.093,1.65,1.65,0,1,1,.718-1.758l-.289-.368a.294.294,0,0,0-.41-.047.289.289,0,0,0-.046.41l.872,1.105a.294.294,0,0,0,.228.112.284.284,0,0,0,.233-.117l.839-1.1a.293.293,0,0,0-.466-.354l-.361.466A2.224,2.224,0,0,0,836.286,810.59Z" transform="translate(1127.616 -2229.369)" fill="#fff"/>
      <ellipse id="Ellipse_385" data-name="Ellipse 385" cx="11.94" cy="11.94" rx="11.94" ry="11.94" transform="translate(2019.099 -1423.009) rotate(-22.5)" fill="#34a853"/>
      <path id="Path_10761" data-name="Path 10761" d="M990.115,817.908a3.167,3.167,0,0,0,3.167-3.167v-5.006a3.167,3.167,0,1,0-6.316,0v5.005a3.167,3.167,0,0,0,3.15,3.167Zm-2.1-8.167a2.114,2.114,0,1,1,4.228,0v5.005a2.113,2.113,0,1,1-4.227,0Z" transform="translate(1044.858 -2230.719)" fill="#fff"/>
      <path id="Path_10762" data-name="Path 10762" d="M990.5,821.021a4,4,0,0,0,3.991-3.991.533.533,0,0,0-1.065,0,2.933,2.933,0,0,1-2.926,2.935h-1.311a2.942,2.942,0,0,1-2.933-2.933.533.533,0,1,0-1.057,0,4,4,0,0,0,3.991,3.991h.127v.9h-1.867a.533.533,0,1,0,0,1.057h4.793a.533.533,0,1,0,0-1.057h-1.867v-.9Z" transform="translate(1045.133 -2232.259)" fill="#fff"/>
    </g>
    <g id="Group_631" data-name="Group 631" transform="translate(999.206 -1519.069)">
      <path id="Path_857" data-name="Path 857" d="M2624.254,2090.193l-.211,8.969c-49.894-50.113-93.741-33.4-143.415,1.388q-3.175,2.215-6.38,4.529c-9.164,6.615-18.539,13.766-28.2,21.153-17.167,13.125-31.955,18.213-45.181,18.213-23.157,0-41.525-15.577-59.5-30.819-3.473-2.949-6.972-5.9-10.548-8.782-1.89-1.519-3.79-3.02-5.722-4.473-8.717-6.606-17.873-12.394-27.841-15.958-34.512-12.32-57.353-.528-68.2,7.987v-9.147a67.459,67.459,0,0,1,10.625-5.616c11.98-5.139,32.077-9.23,59.8.414,11.753,4.091,22.183,10.981,32.021,18.684q2.9,2.268,5.731,4.618c2.865,2.354,5.69,4.749,8.5,7.127,28.611,24.261,53.327,45.209,96.24,12.394,8.459-6.465,16.786-12.857,25.016-18.912q3.2-2.361,6.379-4.643c21.129-15.2,41.624-27.815,61.9-33.636C2564.733,2055.219,2595.48,2061.415,2624.254,2090.193Z" transform="translate(-2229.05 -2060.189)" fill="url(#linear-gradient-2)"/>
    </g>
    <rect id="Rectangle_294" data-name="Rectangle 294" width="62.93" height="57.693" rx="28.847" transform="translate(1041.359 -1559.345)" fill="#ea4335"/>
    <path id="Path_862" data-name="Path 862" d="M652.2,1386.334,628.51,1372.66v27.35Z" transform="translate(435.124 -2916.834)" fill="#fff"/>
    <rect id="Rectangle_284" data-name="Rectangle 284" width="100.897" height="3.717" transform="translate(1121.952 -1424.434)" fill="#d5e0e9"/>
    <rect id="Rectangle_285" data-name="Rectangle 285" width="59.677" height="3.717" transform="translate(1121.952 -1424.434)" fill="#4285f4"/>
    <rect id="Rectangle_293" data-name="Rectangle 293" width="62.93" height="57.693" rx="28.847" transform="translate(1240.758 -1559.345)" fill="#ea4335"/>
    <path id="Path_861" data-name="Path 861" d="M2279.406,1386.334l-23.686-13.674v27.35Z" transform="translate(-992.687 -2916.834)" fill="#fff"/>
    <g id="Group_634" data-name="Group 634" transform="translate(999.205 -1498.974)">
      <path id="Path_863" data-name="Path 863" d="M2624.034,2290.512v7.209a102.5,102.5,0,0,1-34.862,5.494c-31.372,0-58.644-13.562-87.077-27.7-9.141-4.546-18.359-9.131-27.855-13.343q-3.6-1.594-7.273-3.117c-24.951-10.321-52.052-17.427-84.625-14.1a122.922,122.922,0,0,0-45.129,13.49c-2.208,1.134-4.335,2.305-6.4,3.491-5.624,3.23-10.82,6.6-15.827,9.845-15.479,10.049-30.122,18.879-49.95,19.634-18.033.681-29.432-3.344-35.99-7.145v-7.583c6.1,3.927,16.85,7.979,35.3,7.979H2265c17.865-.09,31.047-8.645,46.315-18.547,4.4-2.849,8.936-5.8,13.774-8.662q3.106-1.849,6.4-3.636a129.8,129.8,0,0,1,50.178-15.572c35.77-3.661,64.91,4.634,91.686,16.159q3.666,1.588,7.273,3.231c8.311,3.791,16.428,7.833,24.48,11.833C2542.728,2288.183,2578.628,2305.732,2624.034,2290.512Z" transform="translate(-2229.041 -2237.375)" fill="url(#linear-gradient-3)"/>
    </g>
    <path id="Path_864" data-name="Path 864" d="M1425.072,1263.22l-42.142-24.33v48.66Z" transform="translate(-226.88 -2755.977)" fill="#ea4335"/>
    <g id="Group_4863" data-name="Group 4863" transform="translate(-23 44)">
      <path id="Path_865" data-name="Path 865" d="M3292.851,1098c-1.1-.211-5.385.6-6.226,1.343-3.629,3.182-10.241,11-9.941,17.579.366,8.053,3.417,9.4,3.417,15.138s-2.2,17.212-2.2,18.676,23.56.855,24.043.245-.268-42.871-1.708-47C3298.827,1099.894,3297.511,1098.887,3292.851,1098Z" transform="translate(-2191.651 -2773.279)" fill="none" stroke="#d3b993" stroke-miterlimit="10" stroke-width="0.83"/>
      <path id="Path_866" data-name="Path 866" d="M3090.552,1566.967a6.537,6.537,0,0,1-5.489,7.859,42.781,42.781,0,0,1-12.259-.213c-12.991-1.917-28.44-.627-30.813-5.5s4.773-10.562,17.493-11.127c11.5-.511,25.73-2.878,28.12.38C3088.814,1560.015,3089.837,1563.717,3090.552,1566.967Z" transform="translate(-1983.184 -3179.968)" fill="none" stroke="#d3b993" stroke-miterlimit="10" stroke-width="0.82"/>
      <path id="Path_867" data-name="Path 867" d="M3068.849,1542.664a6.537,6.537,0,0,1-2.9,9.135,42.76,42.76,0,0,1-11.768,3.442c-12.973,2.033-27.339,7.858-31.054,3.91s1.417-11.5,13.393-15.826c10.826-3.907,23.71-10.4,26.961-8C3065.122,1536.543,3067.2,1539.773,3068.849,1542.664Z" transform="translate(-1965.801 -3160.58)" fill="none" stroke="#d3b993" stroke-miterlimit="10" stroke-width="0.82"/>
      <path id="Path_868" data-name="Path 868" d="M3225.2,862.38c1.484-3.582,1.465-7.664,1.7-11.474a30.4,30.4,0,0,0-1.191-11.893c-1.85-5.331-5.663-9.754-11.569-10.26a9.824,9.824,0,0,0-4.943.73,7.557,7.557,0,0,0-3.526,3.4c-.873,1.7-1.059,3.668-1.9,5.384a34.375,34.375,0,0,0-2.042,4.611,16.82,16.82,0,0,1-1.649,4.165,13.616,13.616,0,0,1-3.347,3.272c-1.815,1.361-4.152,2.914-3.874,5.52.139,1.3.888,2.41,1.134,3.676a9.8,9.8,0,0,1-.6,4.31,7.7,7.7,0,0,0,2.124,7.042,8.756,8.756,0,0,0,6.238,2.486,19.757,19.757,0,0,0,4.117-.21,5.233,5.233,0,0,0,3.344-2.261q3.742-4.506,7.485-9.006l1.8-2.166a6.81,6.81,0,0,1,.973-1.167c.633-.438.217-.4.919-.087C3222.111,859.207,3223.763,861.193,3225.2,862.38Z" transform="translate(-2117.323 -2534.562)" fill="url(#linear-gradient-4)"/>
      <rect id="Rectangle_295" data-name="Rectangle 295" width="5.799" height="8.545" transform="translate(1100.108 -1672.419) rotate(180)" fill="#dcc49e"/>
      <path id="Path_869" data-name="Path 869" d="M3299.284,905.569s-5.493.488-6.225-1.283-1.1-11.228,2.929-15.5,11.228-3.235,13.795.672-2.869,16.053-6.042,16.175A28.559,28.559,0,0,1,3299.284,905.569Z" transform="translate(-2205.767 -2585.374)" fill="#dcc49e"/>
      <path id="Path_870" data-name="Path 870" d="M3297.15,1269.12" transform="translate(-2209.805 -2925.025)" fill="none" stroke="#d3b993" stroke-miterlimit="10" stroke-width="0.83"/>
      <path id="Path_871" data-name="Path 871" d="M3451.06,1102.56" transform="translate(-2346.259 -2777.356)" fill="#63a093"/>
      <path id="Path_872" data-name="Path 872" d="M3485.5,1125.16" transform="translate(-2376.793 -2797.393)" fill="#dcc49e"/>
      <path id="Path_873" data-name="Path 873" d="M3034.652,1612.142c8.31-7.383,17.85,32.244,18.025,42.813s-4.89.539-11.276-15.073S3031.383,1615.047,3034.652,1612.142Z" transform="translate(-1975.994 -3228.336)" fill="#dcc49e"/>
      <path id="Path_874" data-name="Path 874" d="M3139.575,2008.172a20.647,20.647,0,0,1-2.319,4.15c-1.712,2.479-2.43,2.3-2.268,2.962s9.492-3.011,9.492-3.011l-1.882-5.262A23.6,23.6,0,0,0,3139.575,2008.172Z" transform="translate(-2066.015 -3579.227)" fill="#fbbc05"/>
      <path id="Path_875" data-name="Path 875" d="M2969.493,1689.67c10.888-2.25-.624,36.85-5.746,46.1s-4.506-1.972-2.25-18.689S2965.21,1690.556,2969.493,1689.67Z" transform="translate(-1910.734 -3297.796)" fill="#dcc49e"/>
      <path id="Path_876" data-name="Path 876" d="M2901.458,2100.7a20.682,20.682,0,0,1-4.083,2.439c-2.722,1.3-3.253.78-3.447,1.434s9.728,2.128,9.728,2.128l1-5.5A24.087,24.087,0,0,0,2901.458,2100.7Z" transform="translate(-1852.312 -3662.273)" fill="#fbbc05"/>
      <path id="Path_877" data-name="Path 877" d="M2964.015,1351.219h-26.5l-11.3-24.288a1.673,1.673,0,1,1,3.032-1.412l10.407,22.353h24.362a1.674,1.674,0,1,1,0,3.347Z" transform="translate(-1880.799 -2974.17)" fill="#4285f4"/>
      <path id="Path_878" data-name="Path 878" d="M3285.056,1085.988s9.571-.367,10.012,10.307c0,0,1.807,43.655,1.248,44.771s-26.032,1.116-26.59-.186,3.766-17.107,2.37-22.546-3.408-9.972-3.347-14.712C3268.8,1099.712,3275.143,1087.107,3285.056,1085.988Z" transform="translate(-2184.624 -2762.662)" fill="#ea4335"/>
      <path id="Path_879" data-name="Path 879" d="M2985.224,1570s-24.684,6.323-28.868,12.18-8.506,43.371-8.506,43.371l7.113,1.535c4.6-9.623,10.182-32.075,12.552-32.912s25.707-5.671,25.707-5.671l.372-13.574Z" transform="translate(-1900.121 -3191.781)" fill="url(#linear-gradient-5)"/>
      <path id="Path_880" data-name="Path 880" d="M3049.572,1557.111c-9.9-1.254-27.126-2.138-28.717,3.934-2.625,10.028,14.911,45.151,14.911,45.151l6-2.091c-1.952-16.6-6.74-29.984-6-31.1s17.664,6.136,31.983,4.463,7.9-19.245,7.9-19.245Z" transform="translate(-1964.609 -3179.549)" fill="url(#linear-gradient-5)"/>
      <path id="Path_881" data-name="Path 881" d="M3367.336,1160.016a4.214,4.214,0,0,1,3.953,2.01c3.842,5.973,16.39,26.2,12.157,29.283-4.976,3.629-15.03-14.963-17.255-20.7C3364.338,1165.82,3363.524,1160.48,3367.336,1160.016Z" transform="translate(-2269.638 -2828.272)" fill="#dcc49e"/>
      <path id="Path_882" data-name="Path 882" d="M3217.059,1388.509a4.486,4.486,0,0,0-4.083-1.1c-7.3,1.459-33.723,6.953-34.5,10.135-.9,3.693,37.509-2.487,38.373-4.321C3217.527,1391.8,3218.738,1390.193,3217.059,1388.509Z" transform="translate(-2104.579 -3029.812)" fill="#dcc49e"/>
      <path id="Path_883" data-name="Path 883" d="M3138.408,1459.161c-.418-2.278-4.268-1.116-5.567-.67-2.115.726-4.038,3.176-3.765,4.018s4.99-1.093,5.217-.954-1.98,1.3-1.642,2.071,3.454-.4,4.51-1.344A2.949,2.949,0,0,0,3138.408,1459.161Z" transform="translate(-2060.771 -3092.303)" fill="#dcc49e"/>
      <path id="Path_884" data-name="Path 884" d="M3332.509,875.568s.579-8.266-3.191-10.875-12.563-6.567-14.988-12.657c0,0,.488-8.15,6.868-7.643s11.745,9.5,11.89,13.2S3332.509,875.568,3332.509,875.568Z" transform="translate(-2225.036 -2548.449)" fill="url(#linear-gradient-7)"/>
    </g>
    <line id="Line_1" data-name="Line 1" x1="0.341" y2="0.068" transform="translate(1315.545 -1484.307)" fill="none"/>
    <line id="Line_2" data-name="Line 2" x1="0.341" y1="0.119" transform="translate(1272.765 -1484.256)" fill="none"/>
    <g id="_Group_" data-name="&lt;Group&gt;" transform="translate(1257.603 -1527.145)">
      <path id="Path_904" data-name="Path 904" d="M4957.34,2621.68a.017.017,0,0,0,.017.017v.017c.205.6,3.139,8.6,6.193,11.718l.017.017" transform="translate(-4906.307 -2591.039)" fill="none"/>
      <path id="Path_905" data-name="Path 905" d="M4836,2452.33c.785.1,13.97,1.928,19,6.089,5.785,4.793,10.2,11.48,13.391,19.02s5.117,15.709,2.78,18.268c-1.432,1.569-9.348-1.347-15.3-3.856-3.8-1.6-6.8-3.036-6.8-3.036l1.553-5.765,5.339,1.262,1.636.376s-.647-1.093-1.6-2.68c-1.86-3.1-4.829-8.083-6.21-10.434" transform="translate(-4798.729 -2440.896)" fill="none"/>
      <path id="Path_906" data-name="Path 906" d="M4691.42,2713.72v.034c0,.12,0,.567-.018,1.279,0,.291,0,.632-.017,1.021,0,1.774-.036,4.434-.086,7.539,0,.375-.017.768-.017,1.16-.17,11.276-.58,27.462-1.4,29.828-.648,1.876-9.536,3.156-18.611,3.5h-.75c-9.073-.34-17.979-1.62-18.627-3.5-.819-2.371-1.211-18.558-1.4-29.816,0-.41,0-.8-.018-1.178-.033-3.1-.068-5.765-.085-7.539v-1.021c-.017-.732-.017-1.176-.017-1.28" transform="translate(-4634.16 -2672.641)" fill="none"/>
      <path id="Path_908" data-name="Path 908" d="M4529.82,2471.732c-1.381,2.354-4.333,7.318-6.191,10.422v.017c-.957,1.588-1.6,2.679-1.6,2.679l1.621-.375,5.339-1.262,1.569,5.748s-3.019,1.451-6.823,3.053c-5.954,2.508-13.85,5.407-15.284,3.856-2.336-2.559-.426-10.729,2.781-18.268,3.19-7.54,7.59-14.21,13.39-19.02,5.186-4.282,19.795-6.073,19.795-6.073" transform="translate(-4507.405 -2441.055)" fill="none"/>
      <path id="Path_909" data-name="Path 909" d="M4650.38,2633.449l.017-.017c3.037-3.122,5.97-11.122,6.174-11.718v-.017a.017.017,0,0,0,.017-.017" transform="translate(-4634.16 -2591.04)" fill="none"/>
    </g>
    <g id="Group_4862" data-name="Group 4862" transform="translate(0 -89)">
      <path id="Path_885" data-name="Path 885" d="M4667.323,3440.258c-10.434-6.181-8.015,42.736-5.026,55.094s5-.794,6.647-20.83S4671.426,3442.69,4667.323,3440.258Z" transform="translate(-3384.845 -4748.867)" fill="#dcc49e"/>
      <path id="Path_887" data-name="Path 887" d="M4907.672,3438.745c10.124-6.457,8.83,42.495,6.165,54.924s-4.936-.66-7-20.641S4903.688,3441.285,4907.672,3438.745Z" transform="translate(-3602.286 -4747.484)" fill="#dcc49e"/>
      <rect id="Rectangle_296" data-name="Rectangle 296" width="7.71" height="9.1" transform="translate(1290.556 -1425.215)" fill="#dcc49e"/>
      <path id="Path_892" data-name="Path 892" d="M4771.5,2265.408c0,5.77-3.978,10.448-8.884,10.448s-8.884-4.678-8.884-10.448,3.977-10.448,8.884-10.448S4771.5,2259.637,4771.5,2265.408Z" transform="translate(-3468.186 -3698.477)" fill="#dcc49e"/>
      <path id="Path_894" data-name="Path 894" d="M4957.977,2777.066c0,.376-.018.768-.018,1.161a30.059,30.059,0,0,1-6.789-4.2S4954.173,2775.463,4957.977,2777.066Z" transform="translate(-3643.234 -4158.676)" fill="#5a89d6"/>
      <path id="Path_895" data-name="Path 895" d="M4963.7,2632.4c0,.121,0,.568-.017,1.28-3.053-3.121-5.987-11.121-6.192-11.718C4958.872,2624.317,4961.839,2629.3,4963.7,2632.4Z" transform="translate(-3648.837 -4023.854)" fill="#5a89d6"/>
      <path id="Path_896" data-name="Path 896" d="M4656.6,2622c-.2.6-3.138,8.6-6.175,11.718-.017-.733-.017-1.177-.017-1.279v-.017C4652.266,2629.315,4655.216,2624.352,4656.6,2622Z" transform="translate(-3376.584 -4023.889)" fill="#5a89d6"/>
      <path id="Path_897" data-name="Path 897" d="M4658.111,2773.88a29.975,29.975,0,0,1-6.8,4.23c0-.409,0-.8-.017-1.177C4655.093,2775.331,4658.111,2773.88,4658.111,2773.88Z" transform="translate(-3377.364 -4158.543)" fill="#5a89d6"/>
      <path id="Path_899" data-name="Path 899" d="M4564.631,2481.91c-1.86-3.1-4.828-8.084-6.209-10.435.206.6,3.139,8.6,6.192,11.719,0,.29,0,.632-.017,1.02l-5.339-1.262-1.553,5.762a30.063,30.063,0,0,0,6.79,4.2c-.17,11.276-.58,27.463-1.4,29.829-.647,1.876-9.535,3.156-18.61,3.5h-.75c-9.073-.34-17.979-1.621-18.627-3.5-.82-2.372-1.211-18.558-1.4-29.817a29.971,29.971,0,0,0,6.8-4.23l-1.57-5.748-5.339,1.262v-1.021c3.036-3.121,5.97-11.121,6.174-11.718-1.38,2.354-4.333,7.317-6.191,10.421v.017c-.956,1.588-1.6,2.679-1.6,2.679l1.621-.375c.017,1.774.051,4.435.085,7.539-5.953,2.508-13.85,5.408-15.283,3.856-2.337-2.559-.427-10.73,2.78-18.268,3.189-7.54,7.59-14.21,13.39-19.02,5.185-4.281,19.871-6.1,19.871-6.1l.189.008c1.429.052,13.971,1.927,19,6.089,5.784,4.793,10.2,11.48,13.391,19.02s5.117,15.709,2.78,18.268c-1.432,1.569-9.348-1.348-15.3-3.856.051-3.1.087-5.765.087-7.539l1.636.375S4565.586,2483.5,4564.631,2481.91Z" transform="translate(-3249.768 -3873.364)" fill="url(#linear-gradient-8)"/>
      <path id="Path_900" data-name="Path 900" d="M4950.534,2741.975a3.816,3.816,0,0,1-2.941.149c-4.208-1.629-19.371-7.636-18.883-9.486.566-2.147,23.16,5.585,23.146,6.7C4951.847,2740.2,4952.125,2741.23,4950.534,2741.975Z" transform="translate(-3623.31 -4121.646)" fill="#5a89d6"/>
      <path id="Path_901" data-name="Path 901" d="M4528.121,2741.975a3.817,3.817,0,0,0,2.941.149c4.209-1.629,19.371-7.636,18.884-9.486-.567-2.147-23.16,5.585-23.147,6.7C4526.811,2740.2,4526.531,2741.23,4528.121,2741.975Z" transform="translate(-3266.981 -4121.646)" fill="#5a89d6"/>
      <path id="Path_902" data-name="Path 902" d="M4712.739,2725.165c-.58-1.085,1.407-1.876,2.094-2.121,1.121-.4,2.732-.016,2.9.426s-2.438,1.2-2.485,1.329,1.255-.114,1.368.318-1.568.978-2.321.933A1.57,1.57,0,0,1,4712.739,2725.165Z" transform="translate(-3431.751 -4113.324)" fill="#5a89d6"/>
      <path id="Path_903" data-name="Path 903" d="M4904.692,2724.695c.581-1.085-1.407-1.876-2.094-2.121-1.121-.4-2.73-.016-2.9.426s2.438,1.2,2.485,1.329-1.255-.114-1.368.317,1.568.978,2.32.934A1.571,1.571,0,0,0,4904.692,2724.695Z" transform="translate(-3597.594 -4112.908)" fill="#5a89d6"/>
      <path id="Path_911" data-name="Path 911" d="M5026.481,2718.913c-1.433,1.57-9.349-1.347-15.3-3.856.051-3.1.085-5.765.085-7.539l1.638.375s-.2-.358-.58-.956l12.742-2.848C5027.385,2710.545,5028.46,2716.747,5026.481,2718.913Z" transform="translate(-3696.437 -4096.669)" fill="#5a89d6"/>
      <path id="Path_912" data-name="Path 912" d="M4958.072,2724.462c0,1.774-.035,4.435-.086,7.539-3.8-1.6-6.8-3.036-6.8-3.036l1.551-5.765Z" transform="translate(-3643.242 -4113.611)" fill="#5a89d6"/>
      <path id="Path_913" data-name="Path 913" d="M4657.438,2728.948s-3.019,1.45-6.823,3.053c-.034-3.1-.068-5.765-.085-7.539l5.338-1.262Z" transform="translate(-3376.69 -4113.611)" fill="#5a89d6"/>
      <path id="Path_914" data-name="Path 914" d="M4523.673,2704.943c-5.953,2.508-13.851,5.408-15.283,3.856a5.642,5.642,0,0,1-1.041-3.786c0-.378.016-.77.051-1.177a29.03,29.03,0,0,1,.989-5.34c.05-.256.136-.511.205-.767.17-.581.34-1.177.545-1.792.153-.477.324-.972.494-1.466q.31-.9.666-1.791l12.213,4.2-.545.907,1.621-.375C4523.605,2699.181,4523.642,2701.838,4523.673,2704.943Z" transform="translate(-3249.749 -4086.553)" fill="#5a89d6"/>
      <path id="Path_915" data-name="Path 915" d="M4668.269,3098.575c-5.373,23.778-12.333,70.295-12.333,70.295l-5.51-.034c-2.916-27.873-2.763-33.928-2.847-48.188-.019-1.86-.326-11.4-.359-12.946-.274-13.5,1.858-33.621,1.858-33.621h37.983s2.132,20.128,1.86,33.621c-.035,1.551-.341,11.086-.358,12.946-.085,14.26.34,20.026-2.575,47.9l-5.681-.085S4673.656,3122.353,4668.269,3098.575Z" transform="translate(-3373.734 -4424.696)" fill="url(#linear-gradient-9)"/>
      <path id="Path_916" data-name="Path 916" d="M2521.872,1807.543H2498.51l1.226-15.474h20.912Z" transform="translate(-1215.936 -3194.097)" fill="#fff"/>
      <path id="Path_917" data-name="Path 917" d="M4902.979,2321.762s2.859-1.562,3.159.99-3.219,5.056-3.219,5.056" transform="translate(-3600.455 -3757.284)" fill="#dcc49e"/>
      <path id="Path_918" data-name="Path 918" d="M4737.526,2321.762s-2.858-1.562-3.159.99,3.219,5.056,3.219,5.056" transform="translate(-3451.003 -3757.284)" fill="#dcc49e"/>
      <path id="Path_919" data-name="Path 919" d="M4750,2227.058a4.266,4.266,0,0,1,.194-1.791,3.29,3.29,0,0,1,1.315-1.4,2.4,2.4,0,0,0,.672-.548,4.225,4.225,0,0,0,.407-1.248,2.3,2.3,0,0,1,1.882-1.588,14.68,14.68,0,0,1,2.7.454,6.22,6.22,0,0,0,2.5-.493l2.051-.71c.961-.332,2.125-.629,2.9.05.694.609.708,1.693,1.062,2.562a3.112,3.112,0,0,0,2.64,1.919,2.853,2.853,0,0,1,1.6.248,2.038,2.038,0,0,1,.612,1.388,9.15,9.15,0,0,1,.067,2.994,3.808,3.808,0,0,1-1.475,2.5,1.2,1.2,0,0,0-.368.315,1.013,1.013,0,0,0-.113.4q-.228,1.64-.462,3.28a.437.437,0,0,1-.432-.33,1.525,1.525,0,0,1-.021-.6,9.46,9.46,0,0,0-2.062-6.732,2.616,2.616,0,0,0-.776-.7,2.583,2.583,0,0,0-1.08-.227,9.473,9.473,0,0,0-2.443.227c-1.213.274-2.453.794-3.658.476-.547-.144-1.045-.453-1.6-.567a4.568,4.568,0,0,0-2.661.536,4.109,4.109,0,0,0-1.636,1.055,4.477,4.477,0,0,0-.732,1.763,13.157,13.157,0,0,0-.516,2.919,7.163,7.163,0,0,1-.112,1.95c-.568-.5-.272-3.057-.3-3.843Z" transform="translate(-3464.87 -3666.929)"/>
      <path id="Path_920" data-name="Path 920" d="M4928.146,3934.475a8.4,8.4,0,0,1-.952,4.291c-1.582,2.722-1.588,2.167-1.217,3.157s6.8.151,6.8.151l-.575-7.66S4928.056,3934.263,4928.146,3934.475Z" transform="translate(-3620.719 -5187.408)" fill="url(#linear-gradient-10)"/>
      <path id="Path_921" data-name="Path 921" d="M4664,3934.475a8.391,8.391,0,0,1-.952,4.291c-1.581,2.722-1.588,2.167-1.218,3.157s6.805.151,6.805.151l-.576-7.66S4663.907,3934.263,4664,3934.475Z" transform="translate(-3386.528 -5187.408)" fill="url(#linear-gradient-10)"/>
    </g>
  </g>
</svg>
