<svg xmlns="http://www.w3.org/2000/svg" xmlns:xlink="http://www.w3.org/1999/xlink" width="376.978" height="373.694" viewBox="0 0 376.978 373.694">
  <defs>
    <linearGradient id="linear-gradient" x1="0.5" x2="0.5" y2="1" gradientUnits="objectBoundingBox">
      <stop offset="0" stop-color="#e9f2fe"/>
      <stop offset="1" stop-color="#c6d9fb"/>
    </linearGradient>
  </defs>
  <g id="Group_4860" data-name="Group 4860" transform="translate(-998.202 681.104)">
    <ellipse id="Ellipse_404" data-name="Ellipse 404" cx="74.856" cy="33.243" rx="74.856" ry="33.243" transform="translate(1225.468 -373.897)" fill="url(#linear-gradient)"/>
    <ellipse id="Ellipse_403" data-name="Ellipse 403" cx="74.856" cy="33.243" rx="74.856" ry="33.243" transform="translate(1002.468 -373.897)" fill="url(#linear-gradient)"/>
    <g id="Group_4856" data-name="Group 4856" transform="translate(-510 52)">
      <path id="Path_1133" data-name="Path 1133" d="M3954.63,992.057h-26.839V965.218a3.428,3.428,0,1,0-6.855,0v26.839H3894.1a3.428,3.428,0,1,0,0,6.856h26.838v26.838a3.428,3.428,0,1,0,6.855,0V998.917h26.839a3.428,3.428,0,1,0,0-6.856Z" transform="translate(-2351.951 -1655.655)" fill="#acafb2"/>
      <path id="Path_1134" data-name="Path 1134" d="M3728.014,734.943h-5.071a54.6,54.6,0,0,0-49.425-49.425v-5.071a4.857,4.857,0,1,0-9.713,0v5.071a54.6,54.6,0,0,0-49.425,49.425h-5.073a4.857,4.857,0,0,0,0,9.713h5.072a54.594,54.594,0,0,0,49.424,49.425v5.072a4.857,4.857,0,1,0,9.713,0v-5.072a54.6,54.6,0,0,0,49.426-49.425h5.07a4.857,4.857,0,1,0,0-9.713Zm0,6.856h-6.4a1.428,1.428,0,0,0-1.423,1.337A51.714,51.714,0,0,1,3672,791.329a1.43,1.43,0,0,0-1.337,1.426v6.4a2,2,0,0,1-4,0v-6.4a1.43,1.43,0,0,0-1.337-1.426,51.712,51.712,0,0,1-48.193-48.193,1.431,1.431,0,0,0-1.426-1.337h-6.4a2,2,0,0,1,0-4h6.4a1.429,1.429,0,0,0,1.426-1.337,51.712,51.712,0,0,1,48.193-48.193,1.431,1.431,0,0,0,1.337-1.426v-6.4a2,2,0,0,1,4,0v6.4a1.43,1.43,0,0,0,1.337,1.423,51.711,51.711,0,0,1,48.193,48.193,1.427,1.427,0,0,0,1.426,1.337h6.4a2,2,0,0,1,0,4Z" transform="translate(-2096.248 -1399.97)" fill="#34a853"/>
      <path id="Path_1135" data-name="Path 1135" d="M3848.591,877.773h6.14a1.428,1.428,0,0,0,1.424-1.533,47.7,47.7,0,0,0-43.966-43.966,1.427,1.427,0,0,0-1.534,1.424v6.14a2,2,0,1,1-4,0V833.7a1.434,1.434,0,0,0-.455-1.047,1.414,1.414,0,0,0-1.078-.377,47.7,47.7,0,0,0-43.966,43.966,1.428,1.428,0,0,0,1.425,1.533h6.139a2,2,0,1,1,0,4h-6.139a1.431,1.431,0,0,0-1.425,1.534,47.7,47.7,0,0,0,43.966,43.965,1.428,1.428,0,0,0,1.534-1.423v-6.14a2,2,0,1,1,4,0v6.146a1.428,1.428,0,0,0,1.427,1.428h.106a47.7,47.7,0,0,0,43.965-43.97,1.43,1.43,0,0,0-1.424-1.534h-6.141a2,2,0,0,1,0-4Zm0,6.857h4.575a45.036,45.036,0,0,1-39.654,39.654v-4.576a4.856,4.856,0,1,0-9.713,0v4.576a45.036,45.036,0,0,1-39.654-39.654h4.575a4.857,4.857,0,0,0,0-9.713h-4.575a45.036,45.036,0,0,1,39.654-39.654v4.576a4.857,4.857,0,0,0,9.713,0v-4.576a45.036,45.036,0,0,1,39.654,39.654h-4.575a4.857,4.857,0,1,0,0,9.713Z" transform="translate(-2236.243 -1539.944)" fill="#34a853"/>
      <path id="Path_1136" data-name="Path 1136" d="M3941.44,1128.24a6.917,6.917,0,0,0-5.834,10.626,7.242,7.242,0,0,0-5.285,6.966v8.988a1.427,1.427,0,0,0,1.428,1.429h11.728a1.429,1.429,0,1,0,0-2.856h-10.3v-7.561a4.379,4.379,0,0,1,4.371-4.372h1.387a1.428,1.428,0,0,0,.653-2.7,4.051,4.051,0,1,1,3.708,0,1.428,1.428,0,1,0,1.308,2.539,6.912,6.912,0,0,0-3.162-13.058Z" transform="translate(-2387.374 -1804.358)" fill="#ea4335"/>
      <path id="Path_1137" data-name="Path 1137" d="M4326.684,1138.827a6.914,6.914,0,1,0-9,2.432,1.428,1.428,0,1,0,1.309-2.539,4.052,4.052,0,1,1,3.706,0,1.428,1.428,0,0,0,.655,2.7h1.386a4.378,4.378,0,0,1,4.371,4.371v7.561h-10.3a1.429,1.429,0,1,0,0,2.856h11.728a1.428,1.428,0,0,0,1.428-1.429v-8.988A7.239,7.239,0,0,0,4326.684,1138.827Z" transform="translate(-2730.089 -1804.319)" fill="#ea4335"/>
      <path id="Path_1138" data-name="Path 1138" d="M4103.113,1081.071h-1.851a7.345,7.345,0,1,0-6.718,0h-1.852a7.772,7.772,0,0,0-7.772,7.773v11.06a.978.978,0,0,0,.978.978h24.009a.976.976,0,0,0,.976-.978v-11.061A7.77,7.77,0,0,0,4103.113,1081.071Z" transform="translate(-2525.49 -1749.819)" fill="#ea4335"/>
    </g>
    <ellipse id="Ellipse_7" data-name="Ellipse 7" cx="141.356" cy="28.243" rx="141.356" ry="28.243" transform="translate(1058.468 -427.897)" fill="url(#linear-gradient)"/>
    <g id="Group_4835" data-name="Group 4835" transform="translate(-955 -19)">
      <path id="Rectangle_1012" data-name="Rectangle 1012" d="M15.828,0H120.257a16.026,16.026,0,0,1,15.828,16.218V265.407a16.027,16.027,0,0,1-15.828,16.218H15.828A16.026,16.026,0,0,1,0,265.406V16.218A16.026,16.026,0,0,1,15.828,0Z" transform="translate(2088.274 -662.104)" fill="#213458"/>
      <path id="Path_11118" data-name="Path 11118" d="M13.9,0H120.808a13.9,13.9,0,0,1,13.9,13.9V264.439a13.9,13.9,0,0,1-13.9,13.9H13.9A13.9,13.9,0,0,1,0,264.439V13.9A13.9,13.9,0,0,1,13.9,0Z" transform="translate(2086.563 -658.816)" fill="#4285f4"/>
      <path id="Path_11117" data-name="Path 11117" d="M1.217,0H119.711a1.217,1.217,0,0,1,1.217,1.217V218.252a1.217,1.217,0,0,1-1.217,1.217H1.217A1.217,1.217,0,0,1,0,218.251V1.217A1.217,1.217,0,0,1,1.217,0Z" transform="translate(2093 -629.986)" fill="#fff"/>
      <path id="Path_7953" data-name="Path 7953" d="M7.743,2.984A1.492,1.492,0,1,1,7.743,0H35.379a1.492,1.492,0,1,1,0,2.984ZM2.764,0a1.492,1.492,0,0,1,0,2.984H1.493A1.492,1.492,0,1,1,1.493,0Z" transform="translate(2135.48 -644.143)" fill="#e6e0de" fill-rule="evenodd"/>
      <path id="Path_7954" data-name="Path 7954" d="M9.762,19.524A9.761,9.761,0,1,0,0,9.762a9.761,9.761,0,0,0,9.762,9.762Z" transform="translate(2144.154 -406.191)" fill="#fff" fill-rule="evenodd"/>
      <g id="Group_1705" data-name="Group 1705" transform="translate(2101.169 -625.024)">
        <path id="Path_7967" data-name="Path 7967" d="M.36.726A.363.363,0,1,1,.36,0H8.3a.363.363,0,0,1,0,.726Zm0,5.214a.361.361,0,0,1,0-.723H8.3a.361.361,0,1,1,0,.723Zm0-2.607a.361.361,0,1,1,0-.723H8.3a.363.363,0,0,1,0,.726Z" transform="translate(0.003 0)" fill="#4285f4" fill-rule="evenodd"/>
        <path id="Path_7968" data-name="Path 7968" d="M10.647.324ZM1.1.723H5.762V4.475H1.1a.366.366,0,0,1-.264-.11A.372.372,0,0,1,.723,4.1v-3A.378.378,0,0,1,1.1.723ZM9.869,0H1.1A1.1,1.1,0,0,0,0,1.1v3A1.1,1.1,0,0,0,1.1,5.2H9.869a1.1,1.1,0,0,0,.753-.3l.025-.022A1.1,1.1,0,0,0,10.97,4.1v-3A1.1,1.1,0,0,0,9.869,0Z" transform="translate(94.523 0.37)" fill="#4285f4" fill-rule="evenodd"/>
      </g>
      <circle id="Ellipse_383" data-name="Ellipse 383" cx="11.94" cy="11.94" r="11.94" transform="translate(2137.42 -437.55) rotate(-45)" fill="#ea4335"/>
      <path id="Path_10758" data-name="Path 10758" d="M913.641,812.527a8.221,8.221,0,0,0-6.97-3.373c-4.928-.02-7.176,2.657-7.427,3.087a2.8,2.8,0,0,0,.241,2.289.821.821,0,0,0,.9.41l2.6-.555a.639.639,0,0,0,.494-.7l-.2-1.4a4.341,4.341,0,0,1,3.166-.979,5.35,5.35,0,0,1,3.072,1.017l-.116,1.4a.713.713,0,0,0,.582.755l2.49.443a.714.714,0,0,0,.76-.387C913.506,813.977,913.879,813.05,913.641,812.527Z" transform="translate(1247.894 -1249.602)" fill="#fff"/>
      <ellipse id="Ellipse_384" data-name="Ellipse 384" cx="11.94" cy="11.94" rx="11.94" ry="11.94" transform="translate(2102.305 -444.007) rotate(-22.5)" fill="#34a853"/>
      <path id="Path_10759" data-name="Path 10759" d="M837.788,807.6H835.35l-.466-.685a.285.285,0,0,0-.238-.126h-3.73a.293.293,0,0,0-.241.126l-.466.685h-2.443a.294.294,0,0,0-.294.294v6.61a.294.294,0,0,0,.294.294h10.022a.293.293,0,0,0,.289-.294V807.9a.294.294,0,0,0-.289-.294Zm-.28,6.611h-9.456V808.19h2.3a.3.3,0,0,0,.241-.126l.466-.69h3.413l.466.69a.308.308,0,0,0,.241.126h2.331Z" transform="translate(1285.126 -1248.341)" fill="#fff"/>
      <path id="Path_10760" data-name="Path 10760" d="M836.286,810.59a2.233,2.233,0,1,0,1.194,4.117.289.289,0,0,0,.089-.4.293.293,0,0,0-.4-.093,1.65,1.65,0,1,1,.718-1.758l-.289-.368a.294.294,0,0,0-.41-.047.289.289,0,0,0-.046.41l.872,1.105a.294.294,0,0,0,.228.112.284.284,0,0,0,.233-.117l.839-1.1a.293.293,0,0,0-.466-.354l-.361.466A2.224,2.224,0,0,0,836.286,810.59Z" transform="translate(1281.616 -1250.369)" fill="#fff"/>
      <ellipse id="Ellipse_385" data-name="Ellipse 385" cx="11.94" cy="11.94" rx="11.94" ry="11.94" transform="translate(2174.098 -444.009) rotate(-22.5)" fill="#34a853"/>
      <path id="Path_10761" data-name="Path 10761" d="M990.115,817.908a3.167,3.167,0,0,0,3.167-3.167v-5.006a3.167,3.167,0,1,0-6.316,0v5.005a3.167,3.167,0,0,0,3.15,3.167Zm-2.1-8.167a2.114,2.114,0,1,1,4.228,0v5.005a2.113,2.113,0,1,1-4.227,0Z" transform="translate(1199.858 -1251.719)" fill="#fff"/>
      <path id="Path_10762" data-name="Path 10762" d="M990.5,821.021a4,4,0,0,0,3.991-3.991.533.533,0,0,0-1.065,0,2.933,2.933,0,0,1-2.926,2.935h-1.311a2.942,2.942,0,0,1-2.933-2.933.533.533,0,1,0-1.057,0,4,4,0,0,0,3.991,3.991h.127v.9h-1.867a.533.533,0,1,0,0,1.057h4.793a.533.533,0,1,0,0-1.057h-1.867v-.9Z" transform="translate(1200.133 -1253.259)" fill="#fff"/>
    </g>
    <path id="Icon_metro-video-camera" data-name="Icon metro-video-camera" d="M24.9,15.089a9.305,9.305,0,1,1,9.305,9.305A9.3,9.3,0,0,1,24.9,15.089Zm-22.332,0a9.305,9.305,0,1,1,9.305,9.305A9.3,9.3,0,0,1,2.571,15.089ZM47.235,33.7V28.116a3.733,3.733,0,0,0-3.722-3.722H6.293a3.733,3.733,0,0,0-3.722,3.722v18.61a3.733,3.733,0,0,0,3.722,3.722h37.22a3.733,3.733,0,0,0,3.722-3.722V41.143l14.888,9.305V24.394L47.235,33.7ZM39.791,43H10.015V31.838H39.791Z" transform="translate(1166.429 -576.644)" fill="#707070"/>
    <g id="Group_4857" data-name="Group 4857" transform="translate(1022.748 -499.065)">
      <path id="Path_1199" data-name="Path 1199" d="M3416.193,2577.094s5.367-3.769,5-4.63-1.139-1.206-.941-2.049,4.814-7.764,3.4-8.276c-.789-.291-2.826,4.1-4.014,3.688s-4.754-1.6-5.776-.778-2.869,9.67-2.869,9.67S3415.027,2577.951,3416.193,2577.094Z" transform="translate(-3324.881 -2562.125)" fill="#eaabad"/>
      <path id="Path_1200" data-name="Path 1200" d="M3474.14,2696.06s3.585-4,7.065-4.68c9.723-1.906,26.891-2.313,31.94-9.3,7.087-9.834,16.426-23.3,16.426-23.3l5.72,4.857s-10.7,23.084-18.471,29.363-22.912,11.629-22.912,11.629Z" transform="translate(-3445.433 -2644.731)" fill="#ea4335"/>
      <path id="Path_1201" data-name="Path 1201" d="M3685.568,3651.209v15.3a1.585,1.585,0,0,1-1.592,1.58h0a1.584,1.584,0,0,1-1.566-1.352l-2.344-15.867a1.584,1.584,0,0,1,1.942-1.771l2.343.571A1.584,1.584,0,0,1,3685.568,3651.209Z" transform="translate(-3625.642 -3491.052)" fill="#34a853"/>
      <path id="Path_1202" data-name="Path 1202" d="M3937.957,3507.168l-4.567,14.6a1.583,1.583,0,0,0,1.038,1.984h0a1.583,1.583,0,0,0,1.9-.823l6.978-14.444a1.583,1.583,0,0,0-1.327-2.268l-2.407-.156A1.584,1.584,0,0,0,3937.957,3507.168Z" transform="translate(-3920.351 -3368.845)" fill="#34a853"/>
      <path id="Path_1203" data-name="Path 1203" d="M3482.494,3592.79l1.962,7.5a1.642,1.642,0,0,1-1.074,1.975h0a1.641,1.641,0,0,1-1.969-.8l-3.595-6.867a1.642,1.642,0,0,1,.86-2.292l1.632-.634a1.643,1.643,0,0,1,2.184,1.115Z" transform="translate(-3395.16 -3441.922)" fill="#34a853"/>
      <path id="Path_1204" data-name="Path 1204" d="M3279.686,2939.766s3.261-6.741,4.727-7.3,3.937.21,4.16,1.927a49.821,49.821,0,0,1-.264,6.709Z" transform="translate(-3170.508 -2878.483)" fill="#e4aa03"/>
      <path id="Path_1205" data-name="Path 1205" d="M3364.926,2898.336c1.045,1.265,1.778,2.082,1.778,2.082s3.8-5.546,5.678-6.928,17.4,6.841,17.4,6.841l1.843-2.112,5.469-6.3s-23.458-16.981-27.065-17.2-10,9.283-11.752,11.821C3356.993,2888.383,3362.083,2894.942,3364.926,2898.336Z" transform="translate(-3290.359 -2829.276)" fill="#fbbc05"/>
      <path id="Path_1206" data-name="Path 1206" d="M3395.69,2974.75c1.045,1.264,1.778,2.082,1.778,2.082s3.8-5.545,5.678-6.927,17.4,6.84,17.4,6.84l1.843-2.112s-16.025-6.762-17.244-8.68-3.772-2.57-3.939-.765C3401.086,2966.526,3397.558,2971.97,3395.69,2974.75Z" transform="translate(-3321.124 -2905.689)" fill="#e4aa03"/>
      <path id="Path_1207" data-name="Path 1207" d="M3603.833,2908.329s-.551-6.86-3.937-9.312-34.276-14.681-37.767-15.148-7.788,4.534-7.788,4.534l38.98,19.7Z" transform="translate(-3525.633 -2837.074)" fill="#ea4335"/>
      <path id="Path_1208" data-name="Path 1208" d="M3050.868,3066.174a5.988,5.988,0,0,0,2.843-2.143c.832-1.437,2.762-7.328,4.955-7.353s5.875,5.28,5.511,8.65-4.651,19.333-8.483,19-7.849-9.078-7.982-9.415S3050.868,3066.174,3050.868,3066.174Z" transform="translate(-2912.358 -2984.79)" fill="#e4aa03"/>
      <path id="Path_1209" data-name="Path 1209" d="M3715.77,2853.675c.872,4.1,12.083,2.54,12.083,2.54s-.559-2.508-.872-5.016c-.007-.1-.031-.214-.038-.33-.146-2.551,1.345-6.552,1.345-6.552l-.13-2.035-9.821-1.221Z" transform="translate(-3673.556 -2800.514)" fill="#eaabad"/>
      <path id="Path_1211" data-name="Path 1211" d="M3685.459,2713.375s1.221,10.771-.886,16.281c-1.056,2.762-1.945,3.277-3.6,2.691a45.043,45.043,0,0,1-5.089-2.6l-6.127-11.687,11.51-8.957S3685.138,2708.484,3685.459,2713.375Z" transform="translate(-3624.389 -2687.716)" fill="#eaabad"/>
      <path id="Path_1212" data-name="Path 1212" d="M3663.7,2660.463s-.362-2.7-2.2-2.874-1.759,7.122.9,6.571a6.754,6.754,0,0,1-6.033,5.517c-5.252.507-9.094-2.71-8.855-3.8s3.265-.669,3.746-2.777c0,0-7.3-1.074-9.158-8.494s4.942-23.849,19.108-18.828c0,0,3.273-1.744,8.01.183s5.286,13.809-.521,16.416l-.823-2.485s-.27,6-3.139,7.493C3663.69,2657.925,3663.7,2660.463,3663.7,2660.463Z" transform="translate(-3607.418 -2624.27)" fill="#707070"/>
      <path id="Path_1213" data-name="Path 1213" d="M3182.836,2986.835s5.189,9.131-4,13.292c0,0-18.375-15.215-20.679-15.068s-12.53,18.94-19.635,25.147-15.99-15.5-15.99-15.5,25.181-25.023,27.392-26.549,6.667-2.846,9.845-.625S3182.836,2986.835,3182.836,2986.835Z" transform="translate(-3043.327 -2907.595)" fill="#fbbc05"/>
      <path id="Path_1214" data-name="Path 1214" d="M3377.118,3031.343c-.055-.074-.765-1.432-1.531-1.227s-1.027,7.157-1.027,7.157-2.169-1.837-2.726-1.6-.145,3.075.219,3.414,3.371,2.774,3.147,3.75-15.99,16.086-15.99,16.086l4.552,3.761,17.871-21.295Z" transform="translate(-3275.068 -2962.07)" fill="#e4aa03"/>
      <path id="Path_1215" data-name="Path 1215" d="M3333.218,3032.45s.788-2.127.436-2.872-2.751-3.364-2.787-3.9-1.018-3.859-.243-3.83,1.972,2.413,2.775,2.747.346-8.1,1-8.755,1.922,1.185,2.471,1.308,1.278-.466,2.246.242,1.226,1.153,1.772,1.27.962-.6,1.178.387,1.875,7.726,1.355,9.22-4.138,7.494-4.138,7.494S3334.784,3036.5,3333.218,3032.45Z" transform="translate(-3232.757 -2949.766)" fill="#eaabad"/>
      <path id="Path_1216" data-name="Path 1216" d="M3367.689,3131.042s-.419-3.657-5.876-3.852l-2.283,3.064,6.4,4.515Z" transform="translate(-3261.172 -3045.052)" fill="#f26357"/>
      <path id="Path_1217" data-name="Path 1217" d="M3411.347,3040.029s-1.89-4.417-6.4-4.514c0,0-11.911,10.526-12.988,10.516s-6.553-22.612-7.17-24.464-2.392-6.155-7.629-5.053-6.825,11.2-4.415,21.279,13.526,27.161,18.807,26.032C3394.289,3063.239,3411.347,3040.029,3411.347,3040.029Z" transform="translate(-3306.591 -2950.311)" fill="#ea4335"/>
      <path id="Path_1218" data-name="Path 1218" d="M3359.354,2957.074s-1.018,9.3,27.6,16.7c18.473,4.783,32.535,1.464,42.261-3.422h.014a48.454,48.454,0,0,0,16.453-13.015l10.684-30.2-9.086-6.452-3.884-2.747-9.739,10.646a5.324,5.324,0,0,1-1.722-.134c-2.005-.458-3.749-2.026-5.242-4.3-7.172-10.84-9.029-37.769-9.029-37.769l-.327-.125-29.1-11.732L3348.21,2858.4Z" transform="translate(-3348.206 -2815.333)" fill="#34a853"/>
      <path id="Path_1219" data-name="Path 1219" d="M3546.126,2957.074s-1.017,9.3,27.6,16.7c18.473,4.783,32.535,1.464,42.262-3.422-14.234,3.446-28.809,1.374-41.519-23.876s0-64.49,0-64.49l.541-7.456L3534.99,2858.4Z" transform="translate(-3534.981 -2815.333)" fill="#1f913e"/>
      <path id="Path_1220" data-name="Path 1220" d="M3671.84,2882.654s21.607.473,6.751-6.586-47.914-21.41-47.914-21.41-30.475-11.177-8.215,5.057C3632.653,2867.149,3669.686,2882.663,3671.84,2882.654Z" transform="translate(-3614.327 -2808.929)" fill="#34a853"/>
      <path id="Path_1221" data-name="Path 1221" d="M3412.433,3278.713a5.32,5.32,0,0,1-1.724-.131,5.955,5.955,0,0,0,1.223.384c11.539,2.349,14.121-8.153,14.121-8.153l-3.885-2.743Z" transform="translate(-3326.976 -3165.452)" fill="#1f913e"/>
      <path id="Path_1222" data-name="Path 1222" d="M3552.31,3052.771s7.1,24.6,15.92,35.243c-7.169-10.841-9.03-37.766-9.03-37.766l-.322-.128Z" transform="translate(-3489.736 -2979.184)" fill="#34a853"/>
      <path id="Path_1223" data-name="Path 1223" d="M3466.861,2645.917c.42.092,1.9-3.749,1.9-3.749l-6.083-4.118-1.539,3.01S3459.794,2644.381,3466.861,2645.917Z" transform="translate(-3377.002 -2627.013)" fill="#f26357"/>
    </g>
    <g id="Group_4859" data-name="Group 4859" transform="translate(3 -15.482)">
      <path id="Path_1168" data-name="Path 1168" d="M4333.245,3317.151l-1.979,12.9a1.768,1.768,0,0,1-1.742,1.5h0a1.768,1.768,0,0,1-1.753-1.554l-1.541-12.9a1.767,1.767,0,0,1,1.753-1.973h3.516a1.769,1.769,0,0,1,1.745,2.031Z" transform="translate(-3032.83 -3634.292)" fill="#fbbc05"/>
      <g id="Group_4858" data-name="Group 4858" transform="translate(1233.821 -510.38)">
        <path id="Path_1169" data-name="Path 1169" d="M3957.025,3104.452l1.977,12.9a1.768,1.768,0,0,0,1.745,1.5h0a1.767,1.767,0,0,0,1.752-1.556l1.54-12.9a1.767,1.767,0,0,0-1.751-1.974h-3.514a1.769,1.769,0,0,0-1.749,2.032Z" transform="translate(-3949.549 -2941.41)" fill="#fbbc05"/>
        <path id="Path_1170" data-name="Path 1170" d="M4646.214,3133.572l1.978,12.9a1.768,1.768,0,0,0,1.743,1.5h0a1.767,1.767,0,0,0,1.75-1.555l1.542-12.9a1.77,1.77,0,0,0-1.751-1.975h-3.519a1.768,1.768,0,0,0-1.743,2.033Z" transform="translate(-4537.162 -2966.237)" fill="#fbbc05"/>
        <path id="Path_1171" data-name="Path 1171" d="M4108.487,2613.889s-6.576-4.341-11.177-4.84-5.26,3.279-5.423,5.334-.636,12.656-.636,12.656l12.469,4.435Z" transform="translate(-4064.009 -2520.717)" fill="#f9c52f"/>
        <path id="Path_1172" data-name="Path 1172" d="M4134.044,2682.1l-6.694-5.935s2.9,3.7,2.4,5.094-1.436,2.273-.645,3.561,4.489,2.193,4.489,2.193Z" transform="translate(-4094.788 -2577.983)" fill="#fbbc05"/>
        <path id="Path_1173" data-name="Path 1173" d="M4006.022,2698.881s-17.751-8.958-21.7-8.794-6.245,1.474-6.492,6.412a64.338,64.338,0,0,0,0,7.832l26.326,6.595Z" transform="translate(-3967.214 -2589.847)" fill="#f9c52f"/>
        <path id="Path_1174" data-name="Path 1174" d="M3906.46,2976.149a6.976,6.976,0,0,0,.223,2.753c.41.7,5.477,4.151,6.662,4.191s0-3.472,0-3.472Z" transform="translate(-3906.417 -2833.75)" fill="#db3159"/>
        <path id="Path_1175" data-name="Path 1175" d="M3913.6,2960.136s-4.4-.9-5.758-.165-1.849,2.712.616,4.685a26.622,26.622,0,0,0,5.142,3.163Z" transform="translate(-3906.669 -2819.708)" fill="#4285f4"/>
        <path id="Path_1176" data-name="Path 1176" d="M4494.936,2026.171c-.218-.678-.924-3.574-2.095-4.376s-3.206-1.6-1.664-4.56,2.437-2.9,2.821-1.11a1.551,1.551,0,0,1-1.218,2.034l-1.17-1.7s-.617-4.959,1.474-5.512,2.156.678,3.019,0,1.474-1.418,2.158-.616.985,1.418,1.541,1.049,1.542-.986,1.85-.124.494,1.916,1.293,1.787,1.788,1.11,1.417,2.342a76.781,76.781,0,0,0-1.973,7.828c.064.678-.122,2.958-.122,2.958Z" transform="translate(-4404.518 -2009.982)" fill="#eaabad"/>
        <path id="Path_1177" data-name="Path 1177" d="M4523.1,2112.459s1.474-4.561-2.868-5.023-6.854,1.078-6.693,2.4a17,17,0,0,0,.561,2.619Z" transform="translate(-4424.05 -2093.002)" fill="#2c7afb"/>
        <path id="Path_1178" data-name="Path 1178" d="M4431.24,2184.8l3.658,4.408,5.463,6.578s14.3-24.33,15.034-28.275c.364-1.943-.228-10.226-.928-18.129-.709-8.145-1.537-15.886-1.537-15.886-3.334-3.323-8.99,0-8.99,0s.365,26.627,0,30.7S4431.24,2184.8,4431.24,2184.8Z" transform="translate(-4353.89 -2114.031)" fill="#4285f4"/>
        <path id="Path_1179" data-name="Path 1179" d="M4444.819,2285.73l1.657,3.925,5.464,6.578s14.3-24.329,15.033-28.274c.364-1.943-.227-10.226-.928-18.128,0,0,.375,14.684-1.1,18.226s-11.754,17.981-15.343,18.2C4446.2,2286.44,4444.948,2285.8,4444.819,2285.73Z" transform="translate(-4365.467 -2214.48)" fill="#2c7afb"/>
        <path id="Path_1180" data-name="Path 1180" d="M4200.828,2501.114s-3.124-9.945-8.382-10.931-32.463,12.087-34.354,15.2-8.695,32.618-7.693,34.061,17.516,16.818,17.516,16.818Z" transform="translate(-4114.354 -2419.363)" fill="#4285f4"/>
        <path id="Path_1181" data-name="Path 1181" d="M4206.69,2662.279l12.454,4.422s-1.8-38.657-2.041-42.595c-.319-5.116-2.691-7.517-2.691-7.517a9.248,9.248,0,0,1,1.213,6.338c-1.235,7.4-6.53,36.312-8.876,39.269A.511.511,0,0,1,4206.69,2662.279Z" transform="translate(-4162.434 -2527.184)" fill="#2c7afb"/>
        <path id="Path_1182" data-name="Path 1182" d="M1708.811,2106.945l-58.231-33.621.007-44.825,45.3,26.134V2009.82l12.942,7.453Z" transform="translate(-1643.658 -1910.271)" fill="#ea4335"/>
        <path id="Path_1183" data-name="Path 1183" d="M2097.467,1947.271l-51.8,29.889.016-89.671,51.768-29.889Z" transform="translate(-1980.518 -1780.486)" fill="#d62c1d"/>
        <path id="Path_1184" data-name="Path 1184" d="M4400.145,2533.74v9.339l-47.878,27.958s-3.758,8.844-3.758,27.908v-41.121Z" transform="translate(-4283.351 -2456.545)" fill="#ea4335"/>
        <path id="Path_1185" data-name="Path 1185" d="M4260.721,2512.56l12.947,7.445,51.763-29.886-9.167-5.271-2.172-1.254-1.645-.924-42.253,24.406c-.01,0-.019.01-.03.029Z" transform="translate(-4208.501 -2413.002)" fill="#ea4335"/>
        <path id="Path_1186" data-name="Path 1186" d="M4285.07,2493.811a6.474,6.474,0,0,0,6.459-.011l51.764-29.881a6.468,6.468,0,0,0,2.064-9.318,6.311,6.311,0,0,0-2.064-1.874l-.008-.01a6.616,6.616,0,0,0-2.645-.838,6.341,6.341,0,0,0-3.046.464h-.01c-.256.107-.512.236-.77.374l-51.754,29.892a6.8,6.8,0,0,0-.759.512c-.009,0-.02.011-.029.03A6.463,6.463,0,0,0,4285.07,2493.811Z" transform="translate(-4226.5 -2386.725)" fill="#d62c1d"/>
        <path id="Path_1187" data-name="Path 1187" d="M1695.93,2104.527l-32.359-18.657-12.942,7.47,45.3,26.134Z" transform="translate(-1643.701 -1975.112)" fill="#ea4335"/>
        <path id="Path_1188" data-name="Path 1188" d="M4279.837,2424.638l-9.926,2.538-1.663.423s-.033-.479-.1-1.233c-.131-1.459-.357-3.934-.642-5.928-.441-3.017-3.949-1.9-3.949-1.9l.568-3.941.295-2.1.178-1.241,5.98-3.257,6.788,2.837Z" transform="translate(-4210.922 -2349.338)" fill="#eaabad"/>
        <path id="Path_1189" data-name="Path 1189" d="M4270.969,2452.477s-1.328-.025-2.848-.09c-.129-1.459-.356-3.933-.641-5.928-.442-3.016-3.95-1.9-3.95-1.9l.567-3.941.3-2.1,5.79.567a10.125,10.125,0,0,0-1.062,7.959C4270.494,2451.258,4270.969,2452.477,4270.969,2452.477Z" transform="translate(-4210.897 -2375.36)" fill="#d29099"/>
        <path id="Path_1190" data-name="Path 1190" d="M4295.237,2502.72c-.431,1.969-4.079,6.261-13.5,3.881-2.8-.71-2.7-5.073.036-6.044,0,0,9.341-1.157,11.155-4.087C4292.929,2496.464,4296.257,2498.074,4295.237,2502.72Z" transform="translate(-4224.666 -2424.769)" fill="#2c7afb"/>
        <path id="Path_1191" data-name="Path 1191" d="M3953.43,2762.438l1.657-.965s4.358,2.968,7.248,3.273a13.88,13.88,0,0,1,4.569,1.179l4.8-4.684s-2.4-1.179-2.641-2.535c0,0-2.219-4.8-3.088-4.864-.453-.04-.541.936-.532,1.873,0,.208.01.425.029.612l-.009-.011c-1.224-.8-3.65-2.308-4.35-2.169-.927.188-.868,1.234-1.42,1.421s-1.726.059-1.853.709-1.42,1.568-2.032,1.381-2.031.552-2.09,1.362S3953.43,2762.438,3953.43,2762.438Z" transform="translate(-3946.501 -2644.208)" fill="#eaabad"/>
        <path id="Path_1192" data-name="Path 1192" d="M4049.85,2627.543s6.9,4.8,9.92,6.78c2.988,1.953,10.779,6.519,13.2,3.708a.476.476,0,0,0,.058-.069,18.243,18.243,0,0,0,1.8-4.864.034.034,0,0,1,.01-.03c.128-.464.257-.956.4-1.474.02-.09.04-.158.05-.208a.334.334,0,0,0,.008-.069c2.525-9.781,5.68-27.14,6.6-32.633a9.243,9.243,0,0,0-1.212-6.337c-2.161-3.61-6.352-5.346-8.236-3.389-2.8,2.9-4.912,34.882-5.631,35.255s-10.869-3.946-10.869-3.946c-4.2-.876-5.511,2.624-5.926,5.079v.01A13.535,13.535,0,0,0,4049.85,2627.543Z" transform="translate(-4028.71 -2502.93)" fill="#4285f4"/>
        <path id="Path_1193" data-name="Path 1193" d="M4049.85,2838.707s6.9,4.8,9.92,6.78c2.988,1.953,10.779,6.519,13.2,3.708a.53.53,0,0,0,.058-.07,18.221,18.221,0,0,0,1.8-4.864c-.749,2.159-2.5,5.433-6.075,4.6-7.11-1.668-18.007-13.049-18.007-13.049l-.72.7v.011A13.542,13.542,0,0,0,4049.85,2838.707Z" transform="translate(-4028.71 -2714.094)" fill="#2c7afb"/>
        <path id="Path_1194" data-name="Path 1194" d="M4037.562,2793.98c-2.505-.637-6.532.816-6.532,6.042,0,1.418,2.773,2.9,2.773,2.9s1.6-8.073,6.1-7.274A4.964,4.964,0,0,0,4037.562,2793.98Z" transform="translate(-4012.663 -2678.31)" fill="#2c7afb"/>
        <path id="Path_1195" data-name="Path 1195" d="M4034.919,2766.54c0,.207.01.424.03.611a1.045,1.045,0,0,1,.109.078,7.133,7.133,0,0,1,.612.543,2.707,2.707,0,0,1,.553.761A4.109,4.109,0,0,0,4034.919,2766.54Z" transform="translate(-4015.98 -2655.034)" fill="#e2b299"/>
        <path id="Path_1196" data-name="Path 1196" d="M4497.319,2043.6s.708-1.845,1.11-1.784.493,2.4.339,2.712S4498.923,2042.274,4497.319,2043.6Z" transform="translate(-4410.229 -2037.127)" fill="#e2b299"/>
        <path id="Path_1197" data-name="Path 1197" d="M4234.866,2335.906c-.056.626-.554,7.705,1.11,12.143s2.271,5.916,3.021,5.916c2.1,0,7.536-6.476,7.536-6.476l2.717-5.118.59-4.344-9.187-5.757S4235.177,2332.516,4234.866,2335.906Z" transform="translate(-4186.362 -2284.769)" fill="#eaabad"/>
        <path id="Path_1198" data-name="Path 1198" d="M4218.636,2284.788s-.036,6.219,4.936,6.219a2.985,2.985,0,0,1,2.9,1.96s1.014-1.218,2.028-.272.135,3.921-1.486,3.921l.018,1.632s1.769-1.227,2.832-.955,2.168,3.684,4.017,2.787c0,0,7.933-11.574,3.86-17.771-2.1-3.188-15.436-8-18.546-7.149-1.474.4-7.853,8.422-7.12,12.528a7.586,7.586,0,0,0,3.354,4.973S4214.514,2284.72,4218.636,2284.788Z" transform="translate(-4166.979 -2235.992)" fill="#707070"/>
      </g>
    </g>
  </g>
</svg>
