<svg xmlns="http://www.w3.org/2000/svg" width="156" height="168" viewBox="0 0 156 168"><defs><style>.a{fill:#f1f3f4;}.b,.d{fill:#fff;}.c,.f{fill:none;}.c,.d{stroke:#fff;}.e{stroke:none;}</style></defs><g transform="translate(-766.467 -305)"><rect class="a" width="156" height="168" transform="translate(766.467 305)"/><rect class="b" width="64" height="9" rx="1" transform="translate(780.467 354)"/><rect class="b" width="64" height="10" rx="1" transform="translate(780.467 386)"/><rect class="b" width="22" height="10" rx="1" transform="translate(886.467 386)"/><rect class="b" width="22" height="9" rx="1" transform="translate(886.467 354)"/><rect class="b" width="64" height="10" rx="1" transform="translate(780.467 418)"/><rect class="b" width="22" height="10" rx="1" transform="translate(886.467 418)"/><line class="c" x2="117.28" transform="translate(785.547 320.037)"/><g class="d" transform="translate(781.467 317)"><circle class="e" cx="3" cy="3" r="3"/><circle class="f" cx="3" cy="3" r="2.5"/></g><g class="d" transform="translate(841.467 317)"><circle class="e" cx="3" cy="3" r="3"/><circle class="f" cx="3" cy="3" r="2.5"/></g><g class="d" transform="translate(899.467 317)"><circle class="e" cx="3" cy="3" r="3"/><circle class="f" cx="3" cy="3" r="2.5"/></g><g class="c" transform="translate(897.467 315)"><circle class="e" cx="5" cy="5" r="5"/><circle class="f" cx="5" cy="5" r="4.5"/></g><rect class="b" width="41" height="9" rx="1" transform="translate(867.467 459)"/></g></svg>