<svg xmlns="http://www.w3.org/2000/svg" width="49.821" height="31.875" viewBox="0 0 49.821 31.875"><path d="M16.114,18.344a1.723,1.723,0,0,1-1.9,1.53c-.8,0-1.384-.37-1.384-1.067A1.728,1.728,0,0,1,14.7,17.241C15.508,17.241,16.114,17.647,16.114,18.344ZM6.963,14.893H6.556a.262.262,0,0,0-.277.192l-.372,1.9.709-.021c.951,0,1.687-.107,1.86-1.01C8.675,15,7.94,14.893,6.963,14.893Zm24.564,0h-.389c-.156,0-.259.071-.277.192l-.363,1.9.692-.021c1.124,0,1.9-.213,1.9-1.281C33.084,14.929,32.262,14.893,31.527,14.893ZM49.821,5.665V30.71c0,1.885-1.86,3.415-4.152,3.415H4.152C1.86,34.125,0,32.6,0,30.71V5.665C0,3.78,1.86,2.25,4.152,2.25H45.669C47.961,2.25,49.821,3.78,49.821,5.665ZM11.1,15.3c0-1.494-1.4-1.992-3-1.992H4.636a.434.434,0,0,0-.45.334L2.768,20.905a.262.262,0,0,0,.277.285H4.688a.508.508,0,0,0,.476-.406l.389-1.893c.086-.512,1.142-.334,1.557-.334C9.584,18.557,11.1,17.348,11.1,15.3Zm7.283.626H16.737c-.329,0-.346.391-.363.583a2.445,2.445,0,0,0-2.05-.711,3.531,3.531,0,0,0-3.737,3.216c0,1.387,1.055,2.291,2.742,2.291a3.733,3.733,0,0,0,2.292-.847,1.6,1.6,0,0,0-.086.441.257.257,0,0,0,.277.285H17.3a.525.525,0,0,0,.476-.406l.882-4.575A.26.26,0,0,0,18.38,15.925Zm3.5,6.966,5.51-6.588a.129.129,0,0,0,.043-.121.28.28,0,0,0-.277-.249H25.5a.522.522,0,0,0-.389.178l-2.292,2.775-.951-2.668a.526.526,0,0,0-.476-.285H19.773a.28.28,0,0,0-.277.249c0,.085,1.687,4.041,1.834,4.418a18.433,18.433,0,0,0-1.773,2.248.258.258,0,0,0,.277.228h1.661a.539.539,0,0,0,.389-.185ZM35.661,15.3c0-1.494-1.4-1.992-3-1.992H29.226a.458.458,0,0,0-.476.334l-1.4,7.257a.272.272,0,0,0,.277.285H29.4a.362.362,0,0,0,.346-.228l.389-2.063c.086-.512,1.142-.334,1.557-.334C34.148,18.557,35.661,17.348,35.661,15.3Zm7.283.626H41.3c-.329,0-.346.391-.372.583a2.4,2.4,0,0,0-2.05-.711,3.531,3.531,0,0,0-3.737,3.216c0,1.387,1.055,2.291,2.742,2.291a3.619,3.619,0,0,0,2.292-.847,2.65,2.65,0,0,0-.086.441.257.257,0,0,0,.277.285h1.5a.525.525,0,0,0,.476-.406l.882-4.575a.26.26,0,0,0-.277-.277Zm4.108-2.369a.264.264,0,0,0-.277-.249h-1.6a.277.277,0,0,0-.277.192l-1.4,7.4-.026.036a.283.283,0,0,0,.3.249H45.2a.487.487,0,0,0,.45-.406l1.4-7.2v-.021Zm-7.784,3.686a1.724,1.724,0,0,0-1.877,1.565c0,.69.605,1.067,1.4,1.067a1.709,1.709,0,0,0,1.877-1.53C40.678,17.647,40.073,17.241,39.268,17.241Z" transform="translate(0 -2.25)"/></svg>