<svg xmlns="http://www.w3.org/2000/svg" width="195.258" height="175.746" viewBox="0 0 195.258 175.746">
  <g id="Group_6172" data-name="Group 6172" transform="translate(-658 -3105.873)">
    <g id="Group_5666" data-name="Group 5666">
      <rect id="Rectangle_1500" data-name="Rectangle 1500" width="194.258" height="2.459" transform="translate(659 3278.159)" fill="#213458"/>
      <g id="Group_6157" data-name="Group 6157" transform="translate(684.471 3149.4)">
        <g id="Group_1133" data-name="Group 1133" transform="translate(0 0)">
          <g id="Group_1132" data-name="Group 1132">
            <g id="Group_1121" data-name="Group 1121" transform="translate(54.415 107.896)">
              <g id="Group_1120" data-name="Group 1120">
                <path id="Path_7034" data-name="Path 7034" d="M223.64,418.192H184.364l2.257-16.7h34.761Z" transform="translate(-184.364 -401.488)" fill="#213458"/>
              </g>
            </g>
            <g id="Group_1123" data-name="Group 1123" transform="translate(0)">
              <g id="Group_1122" data-name="Group 1122">
                <rect id="Rectangle_863" data-name="Rectangle 863" width="147.719" height="108.799" rx="5.599" fill="#213458"/>
              </g>
            </g>
            <g id="Group_1125" data-name="Group 1125" transform="translate(0 93.45)">
              <g id="Group_1124" data-name="Group 1124">
                <path id="Path_7035" data-name="Path 7035" d="M88.61,376.067V388.8a2.619,2.619,0,0,0,2.619,2.619H233.71a2.619,2.619,0,0,0,2.619-2.619v-12.73Z" transform="translate(-88.61 -376.067)" fill="#213458"/>
              </g>
            </g>
            <g id="Group_1127" data-name="Group 1127" transform="translate(4.755 4.966)">
              <g id="Group_1126" data-name="Group 1126">
                <rect id="Rectangle_864" data-name="Rectangle 864" width="137.691" height="83.518" fill="#213458"/>
              </g>
            </g>
            <g id="Group_1129" data-name="Group 1129" transform="translate(70.667 98.867)">
              <g id="Group_1128" data-name="Group 1128">
                <path id="Path_7036" data-name="Path 7036" d="M219.735,388.986a3.386,3.386,0,1,1-3.386-3.386A3.385,3.385,0,0,1,219.735,388.986Z" transform="translate(-212.963 -385.6)" fill="#213458"/>
              </g>
            </g>
            <g id="Group_1131" data-name="Group 1131" transform="translate(49.448 123.245)">
              <g id="Group_1130" data-name="Group 1130">
                <path id="Path_7037" data-name="Path 7037" d="M223.479,433.012H175.625v-.472a4.042,4.042,0,0,1,4.042-4.042h39.77a4.042,4.042,0,0,1,4.042,4.042Z" transform="translate(-175.625 -428.498)" fill="#213458"/>
              </g>
            </g>
          </g>
        </g>
      </g>
      <g id="Group_1134" data-name="Group 1134" transform="translate(682.471 3151.4)">
        <g id="Group_1133-2" data-name="Group 1133" transform="translate(0 0)">
          <g id="Group_1132-2" data-name="Group 1132">
            <g id="Group_1121-2" data-name="Group 1121" transform="translate(54.415 107.896)">
              <g id="Group_1120-2" data-name="Group 1120">
                <path id="Path_7034-2" data-name="Path 7034" d="M223.64,418.192H184.364l2.257-16.7h34.761Z" transform="translate(-184.364 -401.488)" fill="#abc8cc"/>
              </g>
            </g>
            <g id="Group_1123-2" data-name="Group 1123" transform="translate(0)">
              <g id="Group_1122-2" data-name="Group 1122">
                <rect id="Rectangle_863-2" data-name="Rectangle 863" width="147.719" height="108.799" rx="5.599" fill="#4285f4"/>
              </g>
            </g>
            <g id="Group_1125-2" data-name="Group 1125" transform="translate(0 93.45)">
              <g id="Group_1124-2" data-name="Group 1124">
                <path id="Path_7035-2" data-name="Path 7035" d="M88.61,376.067V388.8a2.619,2.619,0,0,0,2.619,2.619H233.71a2.619,2.619,0,0,0,2.619-2.619v-12.73Z" transform="translate(-88.61 -376.067)" fill="#fff"/>
              </g>
            </g>
            <g id="Group_1127-2" data-name="Group 1127" transform="translate(4.755 4.966)">
              <g id="Group_1126-2" data-name="Group 1126">
                <rect id="Rectangle_864-2" data-name="Rectangle 864" width="137.691" height="83.518" fill="#fff"/>
              </g>
            </g>
            <g id="Group_1129-2" data-name="Group 1129" transform="translate(70.667 98.867)">
              <g id="Group_1128-2" data-name="Group 1128">
                <path id="Path_7036-2" data-name="Path 7036" d="M219.735,388.986a3.386,3.386,0,1,1-3.386-3.386A3.385,3.385,0,0,1,219.735,388.986Z" transform="translate(-212.963 -385.6)" fill="#dce0e2"/>
              </g>
            </g>
            <g id="Group_1131-2" data-name="Group 1131" transform="translate(49.448 123.245)">
              <g id="Group_1130-2" data-name="Group 1130">
                <path id="Path_7037-2" data-name="Path 7037" d="M223.479,433.012H175.625v-.472a4.042,4.042,0,0,1,4.042-4.042h39.77a4.042,4.042,0,0,1,4.042,4.042Z" transform="translate(-175.625 -428.498)" fill="#fff"/>
              </g>
            </g>
          </g>
        </g>
      </g>
      <path id="Rectangle_865" data-name="Rectangle 865" d="M5.617,0H122.3a5.616,5.616,0,0,1,5.616,5.616V70.1a5.616,5.616,0,0,1-5.616,5.616H5.616A5.616,5.616,0,0,1,0,70.1V5.617A5.617,5.617,0,0,1,5.617,0Z" transform="translate(692.069 3161.071)" fill="#fff"/>
      <rect id="Rectangle_868" data-name="Rectangle 868" width="194.258" height="2.459" transform="translate(658 3279.159)" fill="#4285f4"/>
      <g id="Group_1167" data-name="Group 1167" transform="translate(697.211 3168.168)">
        <rect id="Rectangle_869" data-name="Rectangle 869" width="99.322" height="14.706" transform="translate(8.78 44.787)" fill="#f0f0f0"/>
        <g id="Group_1146" data-name="Group 1146" transform="translate(0.745 60.749)">
          <g id="Group_1145" data-name="Group 1145" transform="translate(0 0)">
            <path id="Path_7055" data-name="Path 7055" d="M811.621,1538.014c0,.593-.22.92-.607.92-.341,0-.572-.319-.577-.9s.252-.907.606-.907S811.621,1537.458,811.621,1538.014Zm-.948.026c0,.454.14.711.354.711.241,0,.357-.282.357-.727,0-.43-.11-.711-.354-.711C810.823,1537.314,810.673,1537.566,810.673,1538.041Z" transform="translate(-810.437 -1537.131)" fill="#7e7e7e"/>
          </g>
        </g>
        <g id="Group_1148" data-name="Group 1148" transform="translate(0.081 48.932)">
          <g id="Group_1147" data-name="Group 1147" transform="translate(0)">
            <path id="Path_7056" data-name="Path 7056" d="M808.02,1495.909v-.145l.185-.18c.445-.424.647-.649.649-.912a.311.311,0,0,0-.346-.341.6.6,0,0,0-.37.148l-.075-.166a.767.767,0,0,1,.494-.177.491.491,0,0,1,.534.507c0,.322-.233.583-.6.937l-.14.129v.006h.784v.2Z" transform="translate(-808.02 -1494.135)" fill="#7e7e7e"/>
            <path id="Path_7057" data-name="Path 7057" d="M814.125,1495.018c0,.593-.22.921-.607.921-.341,0-.572-.319-.577-.9s.252-.907.607-.907S814.125,1494.462,814.125,1495.018Zm-.947.027c0,.454.14.711.354.711.242,0,.357-.282.357-.727,0-.429-.11-.711-.354-.711C813.328,1494.318,813.178,1494.57,813.178,1495.045Z" transform="translate(-811.589 -1494.135)" fill="#7e7e7e"/>
          </g>
        </g>
        <g id="Group_1150" data-name="Group 1150" transform="translate(0.073 36.837)">
          <g id="Group_1149" data-name="Group 1149" transform="translate(0 0)">
            <path id="Path_7058" data-name="Path 7058" d="M808.055,1451.628a.789.789,0,0,0,.386.11c.3,0,.4-.193.395-.338,0-.244-.223-.349-.451-.349h-.131v-.177h.131c.172,0,.389-.088.389-.3,0-.14-.089-.263-.306-.263a.641.641,0,0,0-.349.115l-.062-.172a.829.829,0,0,1,.456-.134c.344,0,.5.2.5.416a.433.433,0,0,1-.322.411v.006a.454.454,0,0,1,.389.448c0,.279-.217.523-.636.523a.885.885,0,0,1-.453-.118Z" transform="translate(-807.991 -1450.125)" fill="#7e7e7e"/>
            <path id="Path_7059" data-name="Path 7059" d="M814.125,1451.008c0,.593-.22.921-.607.921-.341,0-.572-.32-.577-.9s.252-.907.607-.907S814.125,1450.452,814.125,1451.008Zm-.947.027c0,.454.14.711.354.711.242,0,.357-.281.357-.727,0-.429-.11-.711-.354-.711C813.328,1450.307,813.178,1450.56,813.178,1451.035Z" transform="translate(-811.581 -1450.125)" fill="#7e7e7e"/>
          </g>
        </g>
        <g id="Group_1152" data-name="Group 1152" transform="translate(0 24.742)">
          <g id="Group_1151" data-name="Group 1151">
            <path id="Path_7060" data-name="Path 7060" d="M808.537,1407.969v-.475h-.81v-.156l.778-1.114h.255v1.084H809v.186h-.244v.475Zm0-.661v-.582q0-.137.008-.274h-.008c-.054.1-.1.177-.145.258l-.427.593v.005Z" transform="translate(-807.727 -1406.195)" fill="#7e7e7e"/>
            <path id="Path_7061" data-name="Path 7061" d="M814.125,1407c0,.593-.22.921-.607.921-.341,0-.572-.319-.577-.9s.252-.907.607-.907S814.125,1406.444,814.125,1407Zm-.947.027c0,.454.14.711.354.711.242,0,.357-.282.357-.727,0-.429-.11-.711-.354-.711C813.328,1406.3,813.178,1406.552,813.178,1407.027Z" transform="translate(-811.509 -1406.117)" fill="#7e7e7e"/>
          </g>
        </g>
        <g id="Group_1154" data-name="Group 1154" transform="translate(0.073 12.508)">
          <g id="Group_1153" data-name="Group 1153">
            <path id="Path_7062" data-name="Path 7062" d="M809.041,1361.908h-.666l-.067.448a.9.9,0,0,1,.142-.011.737.737,0,0,1,.376.094.5.5,0,0,1,.249.448.605.605,0,0,1-.649.6.856.856,0,0,1-.435-.107l.059-.18a.782.782,0,0,0,.373.1.385.385,0,0,0,.413-.379c0-.225-.153-.386-.5-.386a1.832,1.832,0,0,0-.242.019l.113-.837h.835Z" transform="translate(-807.991 -1361.68)" fill="#7e7e7e"/>
            <path id="Path_7063" data-name="Path 7063" d="M814.126,1362.486c0,.593-.22.921-.607.921-.341,0-.572-.32-.577-.9s.252-.907.607-.907S814.126,1361.931,814.126,1362.486Zm-.947.027c0,.453.14.711.354.711.242,0,.357-.282.357-.728,0-.429-.11-.711-.354-.711C813.329,1361.786,813.178,1362.038,813.178,1362.513Z" transform="translate(-811.581 -1361.603)" fill="#7e7e7e"/>
          </g>
        </g>
        <g id="Group_1156" data-name="Group 1156" transform="translate(0.051 0)">
          <g id="Group_1155" data-name="Group 1155" transform="translate(0)">
            <path id="Path_7064" data-name="Path 7064" d="M808.938,1316.293a.838.838,0,0,0-.177.011.709.709,0,0,0-.607.62h.008a.532.532,0,0,1,.947.362.583.583,0,0,1-.58.615c-.373,0-.617-.29-.617-.743a1.1,1.1,0,0,1,.3-.786.951.951,0,0,1,.558-.258,1.145,1.145,0,0,1,.172-.013Zm-.067,1.006a.355.355,0,0,0-.36-.4.389.389,0,0,0-.338.214.2.2,0,0,0-.027.1c.005.287.137.5.384.5C808.734,1317.718,808.871,1317.549,808.871,1317.3Z" transform="translate(-807.913 -1316.097)" fill="#7e7e7e"/>
            <path id="Path_7065" data-name="Path 7065" d="M814.125,1316.973c0,.593-.22.92-.607.92-.341,0-.572-.319-.577-.9s.252-.907.607-.907S814.125,1316.417,814.125,1316.973Zm-.947.027c0,.454.14.711.354.711.242,0,.357-.282.357-.727,0-.43-.11-.711-.354-.711C813.328,1316.272,813.178,1316.525,813.178,1317Z" transform="translate(-811.56 -1316.09)" fill="#7e7e7e"/>
          </g>
        </g>
        <g id="Group_1158" data-name="Group 1158" transform="translate(15.198 65.659)">
          <g id="Group_1157" data-name="Group 1157" transform="translate(0 0)">
            <path id="Path_7066" data-name="Path 7066" d="M863.381,1555.219h-.005l-.3.164-.046-.18.381-.2h.2v1.745h-.228Z" transform="translate(-863.027 -1554.999)" fill="#7e7e7e"/>
          </g>
        </g>
        <g id="Group_1160" data-name="Group 1160" transform="translate(41.076 65.63)">
          <g id="Group_1159" data-name="Group 1159" transform="translate(0)">
            <path id="Path_7067" data-name="Path 7067" d="M921.28,1556.666v-.145l.185-.18c.445-.424.647-.65.649-.913a.311.311,0,0,0-.346-.341.592.592,0,0,0-.37.148l-.076-.167a.766.766,0,0,1,.494-.177.491.491,0,0,1,.534.507c0,.322-.234.582-.6.937l-.14.129v.005h.784v.2Z" transform="translate(-921.28 -1554.892)" fill="#7e7e7e"/>
          </g>
        </g>
        <g id="Group_1162" data-name="Group 1162" transform="translate(62.341 65.63)">
          <g id="Group_1161" data-name="Group 1161">
            <path id="Path_7068" data-name="Path 7068" d="M980.145,1556.395a.786.786,0,0,0,.386.11c.3,0,.4-.193.395-.338,0-.244-.223-.349-.451-.349h-.131v-.177h.131c.172,0,.389-.089.389-.3,0-.14-.088-.263-.306-.263a.641.641,0,0,0-.349.116l-.062-.172a.83.83,0,0,1,.456-.134c.344,0,.5.2.5.416a.433.433,0,0,1-.322.411v.005a.455.455,0,0,1,.389.448c0,.279-.218.523-.636.523a.887.887,0,0,1-.453-.118Z" transform="translate(-980.081 -1554.892)" fill="#7e7e7e"/>
          </g>
        </g>
        <g id="Group_1164" data-name="Group 1164" transform="translate(83.571 65.659)">
          <g id="Group_1163" data-name="Group 1163" transform="translate(0 0)">
            <path id="Path_7069" data-name="Path 7069" d="M1039.457,1556.744v-.475h-.81v-.156l.778-1.114h.255v1.084h.244v.185h-.244v.475Zm0-.66v-.583c0-.091,0-.183.008-.274h-.008c-.054.1-.1.177-.145.258l-.427.593v.005Z" transform="translate(-1038.646 -1554.999)" fill="#7e7e7e"/>
          </g>
        </g>
        <g id="Group_1166" data-name="Group 1166" transform="translate(105.406 65.659)">
          <g id="Group_1165" data-name="Group 1165" transform="translate(0 0)">
            <path id="Path_7070" data-name="Path 7070" d="M1098.789,1555.2h-.666l-.067.448a.93.93,0,0,1,.142-.01.738.738,0,0,1,.376.094.5.5,0,0,1,.25.448.605.605,0,0,1-.65.6.857.857,0,0,1-.435-.107l.059-.18a.783.783,0,0,0,.373.1.385.385,0,0,0,.413-.378c0-.226-.153-.386-.5-.386a1.809,1.809,0,0,0-.241.019l.113-.838h.835Z" transform="translate(-1097.739 -1554.999)" fill="#7e7e7e"/>
          </g>
        </g>
        <g id="Group_1168" data-name="Group 1168" transform="translate(3.215 0.915)">
          <path id="Path_7054" data-name="Path 7054" d="M933.737,1380.351H832.423v-60.433h.368v60.158H933.737Z" transform="translate(-828.85 -1319.781)" fill="#959595" stroke="#4285f4" stroke-width="3"/>
          <rect id="Rectangle_870" data-name="Rectangle 870" width="3.71" height="0.275" transform="translate(0 60.295)" fill="#f98130" stroke="#4285f4" stroke-width="2"/>
          <rect id="Rectangle_871" data-name="Rectangle 871" width="3.71" height="0.275" transform="translate(1.855 48.236)" fill="#f98130" stroke="#4285f4" stroke-width="2"/>
          <rect id="Rectangle_872" data-name="Rectangle 872" width="3.71" height="0.275" transform="translate(1.855 36.177)" fill="#f98130" stroke="#4285f4" stroke-width="2"/>
          <rect id="Rectangle_873" data-name="Rectangle 873" width="3.71" height="0.275" transform="translate(1.855 24.118)" fill="#f98130" stroke="#4285f4" stroke-width="2"/>
          <rect id="Rectangle_874" data-name="Rectangle 874" width="3.71" height="0.275" transform="translate(1.855 12.059)" fill="#f98130" stroke="#4285f4" stroke-width="2"/>
          <rect id="Rectangle_875" data-name="Rectangle 875" width="3.71" height="0.275" transform="translate(1.855)" fill="#f98130" stroke="#4285f4" stroke-width="2"/>
          <rect id="Rectangle_876" data-name="Rectangle 876" width="0.275" height="3.71" transform="translate(12.199 58.578)" fill="#f98130" stroke="#4285f4" stroke-width="2"/>
          <rect id="Rectangle_877" data-name="Rectangle 877" width="0.275" height="3.71" transform="translate(38.199 58.578)" fill="#f98130" stroke="#4285f4" stroke-width="2"/>
          <rect id="Rectangle_878" data-name="Rectangle 878" width="0.275" height="3.71" transform="translate(59.375 58.578)" fill="#f98130" stroke="#4285f4" stroke-width="2"/>
          <rect id="Rectangle_879" data-name="Rectangle 879" width="0.275" height="3.71" transform="translate(80.702 58.578)" fill="#f98130" stroke="#4285f4" stroke-width="2"/>
          <rect id="Rectangle_880" data-name="Rectangle 880" width="0.275" height="3.71" transform="translate(102.399 58.578)" fill="#f98130" stroke="#4285f4" stroke-width="2"/>
        </g>
        <path id="Path_7071" data-name="Path 7071" d="M903.313,1404.244,881.2,1393.018l-21.283-17.2-20.694-11.885L814.2,1382.854l-.2-.192,24.5-19.241.716.141,20.878,12.049,21.289,17.208,22.081,11.2Z" transform="translate(-797.641 -1350.345)" fill="none" stroke="#4285f4" stroke-linecap="round" stroke-width="2"/>
        <path id="Path_7072" data-name="Path 7072" d="M922.793,1361.683a2.2,2.2,0,1,1-1.857-2.5A2.2,2.2,0,0,1,922.793,1361.683Z" transform="translate(-879.288 -1348.409)" fill="#4285f4"/>
        <circle id="Ellipse_269" data-name="Ellipse 269" cx="2.363" cy="2.363" r="2.363" transform="matrix(0.967, -0.256, 0.256, 0.967, 13.719, 30.802)" fill="#4285f4"/>
        <path id="Path_7073" data-name="Path 7073" d="M978.807,1405.212a1.9,1.9,0,1,1-1.6-2.156A1.9,1.9,0,0,1,978.807,1405.212Z" transform="translate(-915.339 -1380.229)" fill="#4285f4"/>
        <path id="Path_7074" data-name="Path 7074" d="M1038.676,1469.187a2.421,2.421,0,1,1-2.041-2.75A2.422,2.422,0,0,1,1038.676,1469.187Z" transform="translate(-952.795 -1426.186)" fill="#4285f4"/>
        <path id="Path_7075" data-name="Path 7075" d="M1099.107,1509.894a2.389,2.389,0,1,1-2.013-2.712A2.389,2.389,0,0,1,1099.107,1509.894Z" transform="translate(-990.967 -1455.733)" fill="#4285f4"/>
      </g>
      <g id="Group_1169" data-name="Group 1169" transform="translate(789.154 3151.534)">
        <path id="Path_7043" data-name="Path 7043" d="M272.009,226.12h0a2.883,2.883,0,0,1-2.875-2.875V185.02a2.883,2.883,0,0,1,2.875-2.875h0a2.883,2.883,0,0,1,2.874,2.875v38.225A2.883,2.883,0,0,1,272.009,226.12Z" transform="translate(-266.979 -170.049)" fill="#ffe299" opacity="0.5"/>
        <path id="Path_7044" data-name="Path 7044" d="M291.053,224.089h0a2.883,2.883,0,0,1-2.875-2.875v-57.48a2.883,2.883,0,0,1,2.875-2.875h0a2.883,2.883,0,0,1,2.874,2.875v57.48A2.883,2.883,0,0,1,291.053,224.089Z" transform="translate(-275.201 -160.859)" fill="#ffe299" opacity="0.5"/>
        <path id="Path_7045" data-name="Path 7045" d="M308.2,183.529h0a2.883,2.883,0,0,1-2.874-2.874v-5.774a2.883,2.883,0,0,1,2.874-2.875h0a2.883,2.883,0,0,1,2.875,2.875v5.774A2.883,2.883,0,0,1,308.2,183.529Z" transform="translate(-282.603 -165.671)" fill="#ffe299" opacity="0.5"/>
        <path id="Path_7046" data-name="Path 7046" d="M308.2,237.183h0a2.883,2.883,0,0,1-2.874-2.875V210.645a2.883,2.883,0,0,1,2.874-2.875h0a2.884,2.884,0,0,1,2.875,2.875v23.663A2.884,2.884,0,0,1,308.2,237.183Z" transform="translate(-282.603 -181.112)" fill="#ffe299" opacity="0.5"/>
        <circle id="Ellipse_262" data-name="Ellipse 262" cx="13.697" cy="13.697" r="13.697" transform="matrix(0.172, -0.985, 0.985, 0.172, 0, 63.348)" fill="#fbbc05"/>
        <circle id="Ellipse_263" data-name="Ellipse 263" cx="11.635" cy="11.635" r="11.635" transform="translate(2.493 61.823) rotate(-80.723)" fill="#fb781f"/>
        <circle id="Ellipse_264" data-name="Ellipse 264" cx="9.742" cy="9.742" r="9.742" transform="translate(6.109 42.474)" fill="#fbbc05"/>
        <g id="Group_1138" data-name="Group 1138" transform="translate(12.228 44.262)">
          <g id="Group_1137" data-name="Group 1137">
            <path id="Path_7047" data-name="Path 7047" d="M289.825,254.655V252.7a5.646,5.646,0,0,1-2.965-.852l.465-1.3a5.165,5.165,0,0,0,2.79.833c1.375,0,2.305-.794,2.305-1.9,0-1.066-.755-1.725-2.19-2.306-1.976-.775-3.2-1.666-3.2-3.352a3.178,3.178,0,0,1,2.926-3.119v-1.957h1.2v1.879a5.173,5.173,0,0,1,2.519.679l-.485,1.279a4.685,4.685,0,0,0-2.441-.659c-1.492,0-2.054.891-2.054,1.666,0,1.008.717,1.512,2.4,2.209,2,.814,3,1.821,3,3.546a3.37,3.37,0,0,1-3.062,3.294v2.016Z" transform="translate(-286.86 -238.747)" fill="#fb781f"/>
          </g>
        </g>
      </g>
      <g id="Group_1142" data-name="Group 1142" transform="translate(724.746 3105.873)">
        <path id="Path_7048" data-name="Path 7048" d="M160.954,184.173h0a2.93,2.93,0,0,0,2.921-2.922V130.268a2.93,2.93,0,0,0-2.921-2.921h0a2.93,2.93,0,0,0-2.922,2.921v50.984A2.93,2.93,0,0,0,160.954,184.173Z" transform="translate(-134.222 -127.346)" fill="#ffe299" opacity="0.5"/>
        <path id="Path_7049" data-name="Path 7049" d="M141.7,201.512h0a3.239,3.239,0,0,0,3.23-3.229V153.706a3.24,3.24,0,0,0-3.23-3.23h0a3.24,3.24,0,0,0-3.23,3.23v44.576A3.24,3.24,0,0,0,141.7,201.512Z" transform="translate(-125.778 -137.332)" fill="#ffe299" opacity="0.5"/>
        <rect id="Rectangle_866" data-name="Rectangle 866" width="5.905" height="31.848" rx="2.952" transform="translate(8.595 56.827) rotate(180)" fill="#ffe299" opacity="0.5"/>
        <circle id="Ellipse_265" data-name="Ellipse 265" cx="14.067" cy="14.067" r="14.067" transform="translate(1.581 38.801)" fill="#fbbc05"/>
        <circle id="Ellipse_266" data-name="Ellipse 266" cx="11.95" cy="11.95" r="11.95" transform="translate(0 59.251) rotate(-67.192)" fill="#fb781f"/>
        <circle id="Ellipse_267" data-name="Ellipse 267" cx="10.006" cy="10.006" r="10.006" transform="matrix(0.974, -0.228, 0.228, 0.974, 3.624, 45.408)" fill="#fbbc05"/>
        <g id="Group_1141" data-name="Group 1141" transform="translate(11.927 44.699)">
          <g id="Group_1140" data-name="Group 1140">
            <path id="Path_7052" data-name="Path 7052" d="M140.165,222.341v-2.01a5.793,5.793,0,0,1-3.045-.876l.477-1.333a5.308,5.308,0,0,0,2.866.856c1.413,0,2.368-.816,2.368-1.95,0-1.094-.776-1.771-2.249-2.369-2.03-.8-3.283-1.711-3.283-3.443a3.264,3.264,0,0,1,3.005-3.2V206h1.234v1.93a5.314,5.314,0,0,1,2.587.7l-.5,1.314a4.81,4.81,0,0,0-2.508-.677c-1.532,0-2.109.915-2.109,1.712,0,1.035.736,1.552,2.467,2.269,2.05.836,3.085,1.871,3.085,3.642a3.461,3.461,0,0,1-3.144,3.383v2.07Z" transform="translate(-137.12 -206.003)" fill="#fb781f"/>
          </g>
        </g>
      </g>
      <g id="Group_1170" data-name="Group 1170" transform="translate(680.825 3105.979)">
        <path id="Path_7038" data-name="Path 7038" d="M197.721,150.824h0a3.346,3.346,0,0,1-3.539-3.086V106.7a3.346,3.346,0,0,1,3.539-3.086h0a3.346,3.346,0,0,1,3.54,3.086v41.042A3.346,3.346,0,0,1,197.721,150.824Z" transform="translate(-194.182 -82.75)" fill="#ffe299" opacity="0.5"/>
        <path id="Path_7039" data-name="Path 7039" d="M221.17,164.478h0a3.3,3.3,0,0,1-3.54-2.965V122.086a3.3,3.3,0,0,1,3.54-2.965h0a3.3,3.3,0,0,1,3.54,2.965v39.428A3.3,3.3,0,0,1,221.17,164.478Z" transform="translate(-204.305 -87.59)" fill="#ffe299" opacity="0.5"/>
        <path id="Path_7041" data-name="Path 7041" d="M242.278,136.709h0a3.312,3.312,0,0,1-3.539-3V82.093a3.311,3.311,0,0,1,3.539-3h0a3.311,3.311,0,0,1,3.54,3v51.621A3.312,3.312,0,0,1,242.278,136.709Z" transform="translate(-213.418 -68.635)" fill="#ffe299" opacity="0.5"/>
        <circle id="Ellipse_259" data-name="Ellipse 259" cx="16.865" cy="16.865" r="16.865" transform="translate(0 46.463)" fill="#fbbc05"/>
        <circle id="Ellipse_260" data-name="Ellipse 260" cx="14.326" cy="14.326" r="14.326" transform="translate(2.538 49.001)" fill="#fb781f"/>
        <circle id="Ellipse_261" data-name="Ellipse 261" cx="11.995" cy="11.995" r="11.995" transform="translate(4.869 51.332)" fill="#fbbc05"/>
        <g id="Group_1136" data-name="Group 1136" transform="translate(12.403 53.534)">
          <g id="Group_1135" data-name="Group 1135">
            <path id="Path_7042" data-name="Path 7042" d="M219.658,192.889V190.48a6.947,6.947,0,0,1-3.65-1.05l.573-1.6a6.356,6.356,0,0,0,3.435,1.026c1.694,0,2.839-.978,2.839-2.338,0-1.312-.93-2.123-2.7-2.839-2.433-.954-3.936-2.051-3.936-4.127a3.913,3.913,0,0,1,3.6-3.841V173.3H221.3v2.315a6.365,6.365,0,0,1,3.1.835l-.6,1.575a5.764,5.764,0,0,0-3.006-.811c-1.837,0-2.528,1.1-2.528,2.052,0,1.241.883,1.861,2.958,2.72,2.458,1,3.7,2.243,3.7,4.366a4.149,4.149,0,0,1-3.77,4.056v2.481Z" transform="translate(-216.008 -173.302)" fill="#f98130"/>
          </g>
        </g>
      </g>
    </g>
  </g>
</svg>
