<?xml version="1.0" encoding="utf-8"?>
<!-- Generator: Adobe Illustrator 21.1.0, SVG Export Plug-In . SVG Version: 6.00 Build 0)  -->
<svg version="1.1" id="Warstwa_1" xmlns="http://www.w3.org/2000/svg" xmlns:xlink="http://www.w3.org/1999/xlink" x="0px" y="0px"
	 viewBox="0 0 418.1 257.4" style="enable-background:new 0 0 418.1 257.4;" xml:space="preserve">
<style type="text/css">
	.st0{fill:#0C0C0C;}
	.st1{fill:#FFC037;}
	.st2{fill:#F7A019;}
</style>
<g>
	<g>
		<g>
			<path class="st0" d="M301.7,152c-2.8,3.5-6.5,5.7-11.5,6.8v-35.4l0.3-0.1c5.1-0.9,8.9-0.2,11.5,2.1c2.7,2.4,4,6.5,4,12.1
				C306.1,143.5,304.6,148.2,301.7,152z M315.3,110.2c-6.8-5-16.5-6.4-28.7-4l-15.5,2.9v71.3l17.7-3.3c11.5-2.1,20.7-6.9,27.1-14.1
				c6.6-7.3,9.9-16.6,9.9-27.6C325.8,123.6,322.2,115.2,315.3,110.2z M290.5,36.1c5.1-0.9,8.9-0.2,11.5,2.1c2.7,2.4,4,6.5,4,12.2
				c0,6-1.5,10.7-4.4,14.5c-2.8,3.5-6.5,5.7-11.5,6.8V36.3L290.5,36.1z M315.9,75.7c6.6-7.4,9.9-16.6,9.9-27.6
				c0-11.5-3.6-20-10.5-25c-6.8-5-16.4-6.3-28.7-4L271,21.9v71.2l17.7-3.3C300.2,87.7,309.4,82.9,315.9,75.7z M244.9,113.7v71.2
				l19.1-3.5v-71.2L244.9,113.7z M264,23.1l-19.1,3.5v71.2l19.1-3.5V23.1z M229,126.2c-0.3-0.2-0.5-0.5-0.9-0.7
				c-1.5-1.2-3-2.2-4.7-3.1l-7.4,19.8c1.1,1.2,1.9,2.6,2.4,4.3c0.5,1.2,0.8,2.6,0.9,4c0.1,0.9,0.2,1.9,0.2,3
				c0,5.5-1.5,10.2-4.5,14.3c-0.9,1.2-2,2.4-3.2,3.3c-0.9,0.8-1.9,1.5-3,2c-1.2,0.6-2.5,1.2-3.9,1.5l-1.9,0.9l-17.7,9l-5.5,2.8
				l9-26.8v-0.1c0-5.5,1.5-10.2,4.5-14.3l0.5-0.6l8.4-25.2c-9.1,1.9-17,6.9-23.2,14.6c-6.5,8.1-9.8,17.4-9.8,27.7
				c0,10.5,3.4,18.9,10.2,24.9c1.2,1,2.3,1.9,3.6,2.6l0,0c4.4,2.8,9.4,4.2,15,4.2c2.2,0,4.4-0.2,6.7-0.6c2.6-0.5,5-1.2,7.4-2.1
				c6.5-2.6,12.2-6.8,17-12.8c1.2-1.5,2.3-3.1,3.3-4.7c4-6.5,6.2-13.8,6.4-21.6c0-0.5,0.1-0.9,0.1-1.5c0-3.3-0.4-6.3-1-9.1
				C236.8,135.6,233.7,130.3,229,126.2z M179.7,100.3c0.9,0.8,1.8,1.5,2.7,2.1c4.6,3.2,9.9,4.8,15.9,4.8c2.2,0,4.4-0.2,6.7-0.6
				c9.7-1.8,17.9-6.8,24.4-14.9c1.5-1.9,2.9-3.9,4-6c3.8-6.6,5.7-13.9,5.7-21.8c0-10.5-3.4-18.9-10.2-24.9
				c-5.2-4.6-11.5-6.8-18.7-6.8c-1.2,0-2.4,0.1-3.6,0.2l-1.7,19.4c1-0.2,2-0.3,3-0.3c0.5,0,1,0.1,1.5,0.2c2.3,0.3,4.3,1.2,5.9,2.8
				c2.8,2.7,4.1,6.6,4.1,11.9c0,5.5-1.5,10.2-4.5,14.3c-2.9,4-6.7,6.3-11.3,7.1c-0.6,0.2-1.2,0.2-1.9,0.2c-0.5,0-0.9,0.1-1.2,0.1
				c-1.5,0-2.9-0.2-4.1-0.7s-2.3-1.2-3.3-2.2c-1.9-1.9-3.2-4.3-3.8-7.5c-0.2-1.3-0.4-2.8-0.4-4.4c0-5.6,1.5-10.2,4.5-14.3
				c0.5-0.8,0.5-0.8,1.2-1.4l6.2-24c-9,2-15.5,6.6-21.6,14.3c-6.5,8.1-9.8,17.4-9.8,27.7C169.5,86,172.9,94.4,179.7,100.3z
				 M143.7,158.4c-1.2,1.1-3,1.9-5.4,2.6v-10.6h0.1c1.2-0.2,2.4-0.4,3.3-0.4c1.5,0,2.2,0.3,2.6,0.5c0.9,0.5,1.1,2.1,1.1,3.3
				C145.4,155.9,144.8,157.4,143.7,158.4z M160.7,164.9c2.9-4,4.3-8.9,4.3-14.6c0-7.1-2.4-12.2-7.2-15.1c-4.5-2.9-10.8-3.5-18.8-2
				l-20,3.6V208l19.1-3.5V185l10,17.7l22.2-4.1L153,171.5C156.2,170,158.6,167.8,160.7,164.9z M138.2,63.3L138.2,63.3
				c1.3-0.2,2.5-0.4,3.4-0.4c1.5,0,2.2,0.3,2.6,0.5c0.9,0.5,1.1,2.1,1.1,3.3c0,2-0.5,3.5-1.7,4.6s-3,1.9-5.4,2.6L138.2,63.3
				L138.2,63.3z M138.2,97.9l10,17.7l22.2-4.1l-17.3-27.1c2.9-1.5,5.5-3.7,7.5-6.6c2.9-4,4.3-8.9,4.3-14.6c0-7.1-2.4-12.2-7.2-15.1
				c-4.5-2.9-10.8-3.5-18.8-2l-20,3.6v71.2l19.1-3.5L138.2,97.9z M71.8,167.9c-1.2,1.5-2.6,2.5-4.5,2.9c-0.5,0.1-0.9,0.1-1.2,0.1
				c-1.1,0-1.9-0.3-2.6-1c-1.1-1-1.5-2.6-1.5-4.6c0-2.2,0.6-4.2,1.9-5.8c1.2-1.5,2.6-2.5,4.5-2.8c0.5-0.1,0.9-0.1,1.2-0.1
				c1.1,0,1.9,0.3,2.6,1c1.1,1,1.5,2.6,1.5,4.6C73.6,164.4,73,166.3,71.8,167.9z M101.5,140.4v14.4l-9.9-12.6l-9.1,1.6v8.9
				c-0.8-1.4-1.8-2.6-3-3.7c-3.3-2.9-7.4-4-12.2-3c-4.6,0.9-8.5,3.3-11.6,7.1c-3.1,3.9-4.6,8.3-4.6,13.2c0,5,1.6,9.1,5,11.9
				c2.6,2.2,5.6,3.3,9,3.3c1,0,2.1-0.1,3.2-0.3c4.6-0.9,8.5-3.3,11.6-7.1c1.1-1.4,2-2.8,2.7-4.3v8.1l10.5-1.9v-14.5l10,12.7l9.1-1.6
				v-34.2L101.5,140.4z M76.2,75.4c5.1-0.9,8.9-0.2,11.5,2.2c2.7,2.4,4,6.5,4,12.1c0,6-1.5,10.7-4.4,14.5c-2.8,3.5-6.5,5.7-11.5,6.8
				V75.6L76.2,75.4z M74.4,129.1c11.5-2.1,20.7-6.9,27.2-14.1c6.6-7.4,9.9-16.6,9.8-27.6c0-11.5-3.6-20-10.5-25
				c-6.8-5-16.5-6.3-28.7-4l-15.5,2.9v71.2L74.4,129.1z"/>
		</g>
		<g>
			<path class="st0" d="M370.8,41.9c-2.6-3-6.7-5.5-12.7-7.7l-2.6-0.9c-2.6-0.9-6.9-2.8-6.9-5.3c0-0.5,0.1-1.3,1.1-2.3
				c0.8-0.9,1.9-1.4,3.4-1.7c5.5-1.2,10.7,3.8,10.7,3.8l10.8-13.9c0,0-4.6-5.5-11.2-7.2c-3.4-0.8-7.2-1.1-11.5-0.3
				c-6.8,1.2-12.4,4.2-16.4,8.7c-4.2,4.6-6.3,10.1-6.3,16.4c0,4.7,1.3,8.7,3.9,11.8c2.5,3,6.4,5.5,12.1,7.6c5.3,2,7.7,3.3,8.8,4.1
				c1.2,0.9,1.4,1.7,1.4,2.4c0,1.5-0.4,2.6-1.2,3.5c-0.9,0.9-2.2,1.7-4.1,1.9c-6.7,0.6-13.1-5.1-13.1-5.1l-11.2,14.7
				c0,0,5.3,5.7,11.8,7.6c2.2,0.7,4.7,1.1,7.4,1.1c2,0,4.2-0.2,6.4-0.6c7.4-1.4,13.3-4.3,17.4-8.8c4.2-4.6,6.3-10.5,6.3-17.4
				C375,49.2,373.6,45.1,370.8,41.9z"/>
		</g>
	</g>
	<g>
		<path class="st0" d="M370.8,128.8c-2.6-3-6.7-5.5-12.7-7.7l-2.6-0.9c-2.6-0.9-6.9-2.8-6.9-5.3c0-0.5,0.1-1.3,1.1-2.3
			c0.8-0.9,1.9-1.4,3.4-1.7c5.5-1.2,10.7,3.8,10.7,3.8l10.8-13.9c0,0-4.6-5.5-11.2-7.2c-3.4-0.9-7.2-1.2-11.5-0.4
			c-6.8,1.2-12.4,4.2-16.4,8.7c-4.2,4.6-6.3,10.1-6.3,16.4c0,4.7,1.3,8.7,3.9,11.8c2.5,3,6.4,5.5,12.1,7.6c5.3,2,7.7,3.3,8.8,4.1
			c1.2,0.9,1.4,1.7,1.4,2.4c0,1.5-0.4,2.6-1.2,3.5c-0.9,0.9-2.2,1.7-4.1,1.9c-6.7,0.6-13.1-5.1-13.1-5.1l-11.2,14.7
			c0,0,5.3,5.7,11.8,7.6c2.2,0.7,4.7,1.1,7.4,1.1c2,0,4.2-0.2,6.4-0.6c7.4-1.4,13.3-4.3,17.4-8.8c4.2-4.6,6.3-10.5,6.3-17.4
			C375,136,373.6,131.9,370.8,128.8z"/>
	</g>
</g>
<path class="st1" d="M209.5,0l-18.1,70.5c0,0-0.2,5.6,3.5,9.7c3.7,4.1,7.3,4.1,7.3,4.1L209.5,0z"/>
<path class="st1" d="M208.6,255l19-63.8c0,0-0.9,1-7.5,3.2c-6.7,2.1-8,2.1-8,2.1L208.6,255z"/>
<path class="st1" d="M212.7,163.4c2.7-6.9,1.5-10.7,1.5-10.7l-2.6,1.2l4.3-11.7l0,0l1.3-3.5l14-37.7l-0.4-1.2l-17,4
	c-2.9,1.2-5.9,2.2-9.1,2.8c-2.3,0.5-4.6,0.6-6.7,0.6c-3.3,0-6.4-0.5-9.2-1.5l-7.7,0.5l-6.4,22.5l20.9-6.4c2.2-0.9,4.4-1.5,6.7-2.1
	l-22.5,67l5.5-2.8l17.7-9C203.3,175.4,210,170.3,212.7,163.4z"/>
<path class="st2" d="M181.3,106.2c0,0,12.5,7.2,29.8,3.1c17.4-4.1,20.3-8.4,20.3-8.4l6.5-17.4l-4.5,2.1c-1.2,2.1-2.5,4-4,6
	c-6.5,8.1-14.7,13.2-24.4,14.9c-2.3,0.5-4.6,0.6-6.7,0.6c-5.9,0-11.2-1.6-15.9-4.8l0,0L181.3,106.2z"/>
<path class="st2" d="M194.9,80.3c-3.4-3.8-3.5-8.8-3.5-9.6l-1.9,7.1c0.6,3,1.8,5.4,3.7,7.3c1,1,2.1,1.7,3.3,2.2s2.6,0.7,4.1,0.7
	c0.4,0,0.9,0,1.2-0.1l0.3-3.4l0,0C202.2,84.4,198.6,84.4,194.9,80.3z"/>
<path class="st2" d="M214.3,152.7c0,0,1.2,3.9-1.5,10.7c-2.7,6.9-9.5,11.9-9.5,11.9l8.7-4.4c1.2-0.9,2.2-2,3.2-3.3
	c3-4,4.5-8.7,4.5-14.3c0-1.1-0.1-2.1-0.2-3L214.3,152.7z"/>
<path class="st2" d="M239.2,151.1c0,0.5,0,1-0.1,1.5l3.8-12.7l-4.7,2.1C238.8,144.8,239.2,147.8,239.2,151.1z"/>
<path class="st2" d="M220.1,194.3c6.6-2.1,7.5-3.2,7.5-3.2l0,0l5.1-17.1c-1,1.6-2.1,3.2-3.3,4.7c-4.8,6-10.5,10.2-17,12.8l-0.4,4.9
	C212.1,196.5,213.4,196.5,220.1,194.3z"/>
</svg>
