<svg xmlns="http://www.w3.org/2000/svg" width="503" height="341.217" viewBox="0 0 503 341.217">
  <g id="Group_6257" data-name="Group 6257" transform="translate(-139 -107)">
    <g id="Group_6256" data-name="Group 6256">
      <rect id="Rectangle_1523" data-name="Rectangle 1523" width="500" height="266" rx="3" transform="translate(142 107)" fill="#fbbc05"/>
      <rect id="Rectangle_1501" data-name="Rectangle 1501" width="499" height="268" rx="3" transform="translate(139 111)" fill="#fff"/>
      <g id="Group_6216" data-name="Group 6216" transform="translate(-310 -2244)">
        <g id="Rectangle_1516" data-name="Rectangle 1516" transform="translate(487 2383)" fill="#fff" stroke="#e1e0e0" stroke-width="1">
          <rect width="211" height="211" stroke="none"/>
          <rect x="0.5" y="0.5" width="210" height="210" fill="none"/>
        </g>
        <g id="Group_6215" data-name="Group 6215" transform="translate(139.51 2179.626)">
          <g id="Group_6188" data-name="Group 6188" transform="translate(345.49 201.374)">
            <g id="Group_6177" data-name="Group 6177" transform="translate(36.784 2.293)">
              <rect id="Rectangle_1502" data-name="Rectangle 1502" width="1.146" height="210.395" fill="#d1d3d4"/>
            </g>
            <g id="Group_6178" data-name="Group 6178" transform="translate(71.85 2.293)">
              <rect id="Rectangle_1503" data-name="Rectangle 1503" width="1.146" height="210.395" fill="#d1d3d4"/>
            </g>
            <g id="Group_6179" data-name="Group 6179" transform="translate(106.915 2.293)">
              <rect id="Rectangle_1504" data-name="Rectangle 1504" width="1.146" height="210.395" fill="#d1d3d4"/>
            </g>
            <g id="Group_6180" data-name="Group 6180" transform="translate(141.982 2.293)">
              <rect id="Rectangle_1505" data-name="Rectangle 1505" width="1.146" height="210.395" fill="#d1d3d4"/>
            </g>
            <g id="Group_6181" data-name="Group 6181" transform="translate(177.048 2.293)">
              <rect id="Rectangle_1506" data-name="Rectangle 1506" width="1.146" height="210.395" fill="#d1d3d4"/>
            </g>
            <g id="Group_6182" data-name="Group 6182" transform="translate(2.291 36.786)">
              <rect id="Rectangle_1507" data-name="Rectangle 1507" width="210.395" height="1.146" fill="#d1d3d4"/>
            </g>
            <g id="Group_6183" data-name="Group 6183" transform="translate(2.291 71.853)">
              <rect id="Rectangle_1508" data-name="Rectangle 1508" width="210.395" height="1.146" fill="#d1d3d4"/>
            </g>
            <g id="Group_6184" data-name="Group 6184" transform="translate(2.291 106.918)">
              <rect id="Rectangle_1509" data-name="Rectangle 1509" width="210.395" height="1.146" fill="#d1d3d4"/>
            </g>
            <g id="Group_6185" data-name="Group 6185" transform="translate(2.291 141.984)">
              <rect id="Rectangle_1510" data-name="Rectangle 1510" width="210.395" height="1.146" fill="#d1d3d4"/>
            </g>
            <g id="Group_6186" data-name="Group 6186" transform="translate(2.291 177.049)">
              <rect id="Rectangle_1511" data-name="Rectangle 1511" width="210.395" height="1.146" fill="#d1d3d4"/>
            </g>
          </g>
          <g id="Group_6198" data-name="Group 6198" transform="translate(363.126 265.153)">
            <g id="Group_6189" data-name="Group 6189" transform="translate(90.854 29.357)">
              <rect id="Rectangle_1512" data-name="Rectangle 1512" width="26.645" height="3.439" transform="translate(0 19.09) rotate(-45.764)" fill="#34a853"/>
            </g>
            <g id="Group_6190" data-name="Group 6190" transform="translate(10.865 62.873)">
              <path id="Path_13801" data-name="Path 13801" d="M360.758,304.053l-1.461-.915-1.371-1.036.069-.092,32.844-45.375,2.784,2.014Z" transform="translate(-357.926 -256.635)" fill="#00acb3"/>
            </g>
            <g id="Group_6191" data-name="Group 6191" transform="translate(55.864 53.35)">
              <rect id="Rectangle_1513" data-name="Rectangle 1513" width="24.808" height="3.437" transform="translate(0 2.471) rotate(-5.717)" fill="#34a853"/>
            </g>
            <g id="Group_6192" data-name="Group 6192" transform="translate(120.758 11.939)">
              <path id="Path_13802" data-name="Path 13802" d="M428.128,271.1l-22.254-17.264,2.108-2.717,19.871,15.418,32.483-32.127,2.417,2.444Z" transform="translate(-405.874 -234.411)" fill="#34a853"/>
            </g>
            <g id="Group_6193" data-name="Group 6193" transform="translate(0 106.319)">
              <path id="Path_13803" data-name="Path 13803" d="M361.587,292.4a8.4,8.4,0,1,1,8.4-8.4A8.413,8.413,0,0,1,361.587,292.4Zm0-13.369A4.965,4.965,0,1,0,366.554,284,4.971,4.971,0,0,0,361.587,279.029Z" transform="translate(-353.185 -275.591)" fill="#00acb3"/>
            </g>
            <g id="Group_6194" data-name="Group 6194" transform="translate(41.062 50.358)">
              <path id="Path_13804" data-name="Path 13804" d="M379.505,267.983a8.4,8.4,0,1,1,8.4-8.4A8.414,8.414,0,0,1,379.505,267.983Zm0-13.371a4.967,4.967,0,1,0,4.966,4.967A4.973,4.973,0,0,0,379.505,254.612Z" transform="translate(-371.101 -251.174)" fill="#34a853"/>
            </g>
            <g id="Group_6195" data-name="Group 6195" transform="translate(78.954 45.966)">
              <path id="Path_13805" data-name="Path 13805" d="M396.038,266.065a8.4,8.4,0,1,1,8.4-8.4A8.413,8.413,0,0,1,396.038,266.065Zm0-13.369A4.965,4.965,0,1,0,401,257.662,4.97,4.97,0,0,0,396.038,252.7Z" transform="translate(-387.634 -249.258)" fill="#34a853"/>
            </g>
            <g id="Group_6196" data-name="Group 6196" transform="translate(107.655 18.182)">
              <path id="Path_13806" data-name="Path 13806" d="M408.559,253.944a8.4,8.4,0,1,1,8.4-8.4A8.413,8.413,0,0,1,408.559,253.944Zm0-13.371a4.967,4.967,0,1,0,4.967,4.967A4.97,4.97,0,0,0,408.559,240.573Z" transform="translate(-400.157 -237.135)" fill="#34a853"/>
            </g>
            <g id="Group_6197" data-name="Group 6197" transform="translate(172.697)">
              <path id="Path_13807" data-name="Path 13807" d="M436.938,246.009a8.4,8.4,0,1,1,8.4-8.4A8.413,8.413,0,0,1,436.938,246.009Zm0-13.369A4.965,4.965,0,1,0,441.9,237.6,4.968,4.968,0,0,0,436.938,232.64Z" transform="translate(-428.536 -229.202)" fill="#34a853"/>
            </g>
          </g>
          <g id="Group_6206" data-name="Group 6206" transform="translate(406.145 324.997)">
            <g id="Group_6199" data-name="Group 6199" transform="translate(106.998)">
              <path id="Path_13808" data-name="Path 13808" d="M427.042,272.122a8.4,8.4,0,1,1,8.4-8.407A8.414,8.414,0,0,1,427.042,272.122Zm0-13.371a4.967,4.967,0,1,0,4.966,4.964A4.968,4.968,0,0,0,427.042,258.751Z" transform="translate(-418.64 -255.313)" fill="#ea4335"/>
            </g>
            <g id="Group_6200" data-name="Group 6200" transform="translate(68.086 23.13)">
              <path id="Path_13809" data-name="Path 13809" d="M410.066,282.212a8.4,8.4,0,1,1,8.4-8.4A8.412,8.412,0,0,1,410.066,282.212Zm0-13.369a4.965,4.965,0,1,0,4.966,4.967A4.972,4.972,0,0,0,410.066,268.843Z" transform="translate(-401.662 -265.405)" fill="#ea4335"/>
            </g>
            <g id="Group_6201" data-name="Group 6201" transform="translate(0 59.562)">
              <path id="Path_13810" data-name="Path 13810" d="M380.359,298.11a8.4,8.4,0,1,1,8.4-8.4A8.414,8.414,0,0,1,380.359,298.11Zm0-13.371a4.967,4.967,0,1,0,4.967,4.966A4.97,4.97,0,0,0,380.359,284.739Z" transform="translate(-371.955 -281.301)" fill="#ea4335"/>
            </g>
            <g id="Group_6202" data-name="Group 6202" transform="translate(32.964 20.105)">
              <path id="Path_13811" data-name="Path 13811" d="M394.6,280.9a8.131,8.131,0,0,1-5.725-2.354,8.527,8.527,0,0,1-2.542-6.053,8.4,8.4,0,0,1,16.806-.025h0a8.353,8.353,0,0,1-8.368,8.43Zm.135-13.373a4.97,4.97,0,0,0-4.964,4.967,5.062,5.062,0,0,0,1.508,3.594,4.987,4.987,0,0,0,8.423-3.568v0A4.971,4.971,0,0,0,394.74,267.523Z" transform="translate(-386.338 -264.085)" fill="#ea4335"/>
            </g>
            <g id="Group_6203" data-name="Group 6203" transform="translate(11.397 32.52)">
              <rect id="Rectangle_1514" data-name="Rectangle 1514" width="38.022" height="3.437" transform="translate(0 29.27) rotate(-50.339)" fill="#ea4335"/>
            </g>
            <g id="Group_6204" data-name="Group 6204" transform="translate(81.697 11.082)">
              <path id="Path_13812" data-name="Path 13812" d="M409.311,279.294l-1.71-2.981,28.174-16.164,1.7,2.99-.367.208Z" transform="translate(-407.601 -260.148)" fill="#ea4335"/>
            </g>
            <g id="Group_6205" data-name="Group 6205" transform="translate(47.858 27.347)">
              <rect id="Rectangle_1515" data-name="Rectangle 1515" width="3.438" height="21.913" transform="translate(0 3.42) rotate(-84.055)" fill="#ea4335"/>
            </g>
          </g>
          <g id="Group_6207" data-name="Group 6207" transform="translate(365.946 225.262)">
            <path id="Path_13813" data-name="Path 13813" d="M357.486,317.58l-3.071-1.544L391.323,242.7l35.148,8.9,37.788-16.334,32.094,7.548L526.8,211.8l2.453,2.408-31.8,32.394L464.58,238.87l-37.817,16.345-33.609-8.506Z" transform="translate(-354.415 -211.797)" fill="#fbbc05"/>
          </g>
          <g id="Group_6208" data-name="Group 6208" transform="translate(359.079 321.868)">
            <path id="Path_13814" data-name="Path 13814" d="M365.538,261.383a6.684,6.684,0,1,1-6.686-6.685A6.684,6.684,0,0,1,365.538,261.383Z" transform="translate(-350.45 -252.979)" fill="#f9fbfc"/>
            <path id="Path_13815" data-name="Path 13815" d="M359.821,270.755a8.4,8.4,0,1,1,8.4-8.4A8.412,8.412,0,0,1,359.821,270.755Zm0-13.369a4.965,4.965,0,1,0,4.967,4.967A4.97,4.97,0,0,0,359.821,257.386Z" transform="translate(-351.419 -253.948)" fill="#feca7a"/>
          </g>
          <g id="Group_6209" data-name="Group 6209" transform="translate(395.366 249.768)">
            <path id="Path_13816" data-name="Path 13816" d="M381.371,229.922a6.684,6.684,0,1,1-6.683-6.683A6.685,6.685,0,0,1,381.371,229.922Z" transform="translate(-366.283 -221.52)" fill="#f9fbfc"/>
            <path id="Path_13817" data-name="Path 13817" d="M375.654,239.3a8.4,8.4,0,1,1,8.4-8.4A8.413,8.413,0,0,1,375.654,239.3Zm0-13.369a4.965,4.965,0,1,0,4.967,4.964A4.969,4.969,0,0,0,375.654,225.927Z" transform="translate(-367.252 -222.489)" fill="#fbbc05"/>
          </g>
          <g id="Group_6210" data-name="Group 6210" transform="translate(429.745 258.468)">
            <path id="Path_13818" data-name="Path 13818" d="M396.371,233.72a6.684,6.684,0,1,1-6.683-6.685A6.684,6.684,0,0,1,396.371,233.72Z" transform="translate(-381.283 -225.316)" fill="#f9fbfc"/>
            <path id="Path_13819" data-name="Path 13819" d="M390.654,243.092a8.4,8.4,0,1,1,8.4-8.4A8.413,8.413,0,0,1,390.654,243.092Zm0-13.369a4.965,4.965,0,1,0,4.967,4.967A4.971,4.971,0,0,0,390.654,229.723Z" transform="translate(-382.252 -226.285)" fill="#fbbc05"/>
          </g>
          <g id="Group_6211" data-name="Group 6211" transform="translate(467.548 242.126)">
            <path id="Path_13820" data-name="Path 13820" d="M412.865,226.59a6.684,6.684,0,1,1-6.686-6.685A6.686,6.686,0,0,1,412.865,226.59Z" transform="translate(-397.777 -218.186)" fill="#f9fbfc"/>
            <path id="Path_13821" data-name="Path 13821" d="M407.148,235.964a8.4,8.4,0,1,1,8.4-8.4A8.413,8.413,0,0,1,407.148,235.964Zm0-13.371a4.967,4.967,0,1,0,4.967,4.967A4.971,4.971,0,0,0,407.148,222.593Z" transform="translate(-398.746 -219.155)" fill="#fbbc05"/>
          </g>
          <g id="Group_6212" data-name="Group 6212" transform="translate(500.031 249.768)">
            <path id="Path_13822" data-name="Path 13822" d="M427.038,229.922a6.684,6.684,0,1,1-6.685-6.683A6.685,6.685,0,0,1,427.038,229.922Z" transform="translate(-411.95 -221.52)" fill="#f9fbfc"/>
            <path id="Path_13823" data-name="Path 13823" d="M421.321,239.3a8.4,8.4,0,1,1,8.4-8.4A8.413,8.413,0,0,1,421.321,239.3Zm0-13.369a4.965,4.965,0,1,0,4.967,4.964A4.968,4.968,0,0,0,421.321,225.927Z" transform="translate(-412.919 -222.489)" fill="#fbbc05"/>
          </g>
          <g id="Group_6213" data-name="Group 6213" transform="translate(531.15 218.731)">
            <path id="Path_13824" data-name="Path 13824" d="M440.618,216.382a6.685,6.685,0,1,1-6.685-6.685A6.684,6.684,0,0,1,440.618,216.382Z" transform="translate(-425.528 -207.978)" fill="#f9fbfc"/>
            <path id="Path_13825" data-name="Path 13825" d="M434.9,225.754a8.4,8.4,0,1,1,8.4-8.4A8.413,8.413,0,0,1,434.9,225.754Zm0-13.369a4.965,4.965,0,1,0,4.964,4.967A4.972,4.972,0,0,0,434.9,212.385Z" transform="translate(-426.497 -208.947)" fill="#fbbc05"/>
          </g>
          <g id="Group_6214" data-name="Group 6214" transform="translate(497.597 303.098)">
            <path id="Path_13826" data-name="Path 13826" d="M425.978,253.191a6.685,6.685,0,1,1-6.686-6.683A6.686,6.686,0,0,1,425.978,253.191Z" transform="translate(-410.888 -244.789)" fill="#f9fbfc"/>
            <path id="Path_13827" data-name="Path 13827" d="M420.261,262.565a8.4,8.4,0,1,1,8.4-8.4A8.414,8.414,0,0,1,420.261,262.565Zm0-13.369a4.965,4.965,0,1,0,4.967,4.964A4.971,4.971,0,0,0,420.261,249.2Z" transform="translate(-411.857 -245.758)" fill="#34a853"/>
          </g>
        </g>
      </g>
      <rect id="Rectangle_1517" data-name="Rectangle 1517" width="174" height="38" rx="3" transform="translate(416 148)" fill="#34a853"/>
      <rect id="Rectangle_1518" data-name="Rectangle 1518" width="112" height="38" rx="3" transform="translate(416 198)" fill="#34a853"/>
      <rect id="Rectangle_1519" data-name="Rectangle 1519" width="174" height="8" rx="3" transform="translate(416 248)" fill="#d7d6d6"/>
      <rect id="Rectangle_1520" data-name="Rectangle 1520" width="174" height="8" rx="3" transform="translate(416 261)" fill="#d7d6d6"/>
      <rect id="Rectangle_1521" data-name="Rectangle 1521" width="174" height="8" rx="3" transform="translate(416 274)" fill="#d7d6d6"/>
      <rect id="Rectangle_1522" data-name="Rectangle 1522" width="109" height="8" rx="3" transform="translate(416 287)" fill="#d7d6d6"/>
      <circle id="Ellipse_421" data-name="Ellipse 421" cx="30" cy="30" r="30" transform="translate(443 305)" fill="#ea4335"/>
      <circle id="Ellipse_422" data-name="Ellipse 422" cx="22.5" cy="22.5" r="22.5" transform="translate(533 313)" fill="#ea4335"/>
    </g>
    <g id="Group_6217" data-name="Group 6217" transform="translate(-225 -2630)">
      <path id="Path_6748" data-name="Path 6748" d="M15.624,142.009c18.265,10.53,45.783,11.663,61.687,2.554a20.554,20.554,0,0,0,10.024-11.229,27.084,27.084,0,0,0,.193-16.265c-6.6-20-81.037-25.856-86.169-8.337a29.952,29.952,0,0,0-.6,15.663C1.817,130.612,6.853,136.925,15.624,142.009Z" transform="translate(365.747 2844.617)" fill="#f17c21"/>
      <ellipse id="Ellipse_239" data-name="Ellipse 239" cx="24.916" cy="43.59" rx="24.916" ry="43.59" transform="translate(364 2981.963) rotate(-82.91)" fill="#f8b937"/>
      <path id="Path_6749" data-name="Path 6749" d="M46.326,142.709a63.085,63.085,0,0,1-30.362-7.446C7.314,130.444,2.35,123.745,2.35,117.094c0-5.614,3.518-10.675,9.855-14.289,13.807-7.831,37.928-6.892,53.783,2.12,8.651,4.819,13.59,11.542,13.59,18.193,0,5.59-3.494,10.675-9.831,14.289a48.8,48.8,0,0,1-23.422,5.3Zm-10.6-42.024a45.085,45.085,0,0,0-21.88,4.94c-5.277,3.012-8.193,7.084-8.193,11.47,0,5.446,4.337,11.036,12.048,15.374h0c14.988,8.506,37.663,9.47,50.6,2.121,5.3-3.012,8.217-7.084,8.217-11.47,0-5.446-4.361-11.06-12.048-15.374a59.783,59.783,0,0,0-28.747-7.06Z" transform="translate(369.07 2843.435)" fill="#ffe5b7"/>
      <path id="Path_6750" data-name="Path 6750" d="M26.3,127.914c11.807,17.446,36.145,30.554,54.338,29.253a20.41,20.41,0,0,0,13.928-5.615,26.771,26.771,0,0,0,7.229-14.458C104.615,116.2,40.229,78.419,27.94,91.913a29.976,29.976,0,0,0-7.374,13.831C18.855,111.624,20.614,119.5,26.3,127.914Z" transform="translate(393.866 2831.556)" fill="#f17c21"/>
      <ellipse id="Ellipse_240" data-name="Ellipse 240" cx="24.723" cy="44.169" rx="24.723" ry="44.169" transform="translate(406.744 2947.19) rotate(-58.29)" fill="#f8b937"/>
      <path id="Path_6751" data-name="Path 6751" d="M74.339,146.07c-15.59,0-35.542-11.06-45.446-25.47h0c-5.614-8.193-7.229-16.337-4.289-22.289,2.41-5.06,7.831-8.072,15.109-8.554,15.831-1.012,37.109,10.386,47.446,25.422,5.614,8.193,7.229,16.313,4.265,22.289-2.41,5.036-7.807,8.072-15.084,8.554C75.785,146.07,75.014,146.07,74.339,146.07Zm-42.771-27.3c9.639,14.193,29.735,24.988,44.554,24.1,6.072-.386,10.482-2.771,12.41-6.723,2.41-4.819.916-11.855-4.048-19.06-9.639-14.193-29.735-24.988-44.554-24.1-6.1.386-10.482,2.771-12.41,6.723-2.41,4.819-.916,11.855,4.048,19.06Z" transform="translate(398.406 2832.436)" fill="#ffe5b7"/>
      <path id="Path_6752" data-name="Path 6752" d="M38.423,79.819l-.723-1.59L51.218,62.494,51.941,55H72.712l.892,1.976-.819,7.663L60.11,82.3,38.9,80.253a.8.8,0,0,1-.482-.434Z" transform="translate(418.901 2783.53)" fill="#4285f4"/>
      <path id="Path_6753" data-name="Path 6753" d="M37.66,79.378,50.287,61.667l.651-6.868a.651.651,0,0,1,.7-.578l21.036,2-.723,7.518L59.323,81.45Z" transform="translate(418.844 2782.429)" fill="#34a853"/>
      <rect id="Rectangle_775" data-name="Rectangle 775" width="19.398" height="4.675" rx="0.97" transform="matrix(0.995, 0.095, -0.095, 0.995, 470.75, 2837.811)" fill="#fff"/>
      <path id="Path_6754" data-name="Path 6754" d="M45.042,60.621H42.825c-.289,0-.386-.241-.217-.482l1.373-1.9a.988.988,0,0,1,.819-.386l2.217.217c.289,0,.386.241.193.482l-1.349,1.88a.964.964,0,0,1-.819.193Z" transform="translate(425.703 2787.547)" fill="#fff"/>
      <path id="Path_6755" data-name="Path 6755" d="M46.982,60.968l-2.217-.217c-.289,0-.361-.241-.193-.482l1.349-1.88a1.06,1.06,0,0,1,.843-.41l2.217.217c.289,0,.361.241.193.482l-1.349,1.88a1.108,1.108,0,0,1-.843.41Z" transform="translate(428.462 2787.73)" fill="#fff"/>
      <path id="Path_6756" data-name="Path 6756" d="M48.952,61.135l-2.217-.217c-.289,0-.386-.241-.217-.482l1.374-1.88a.94.94,0,0,1,.819-.386l2.217.193c.289,0,.386.241.193.482l-1.349,1.9A.988.988,0,0,1,48.952,61.135Z" transform="translate(431.215 2787.997)" fill="#fff"/>
      <path id="Path_6757" data-name="Path 6757" d="M50.892,61.314l-2.217-.193c-.289,0-.361-.265-.193-.506l1.349-1.88a1.06,1.06,0,0,1,.843-.386l2.217.193c.289,0,.361.241.193.506l-1.349,1.88a1.06,1.06,0,0,1-.843.386Z" transform="translate(433.974 2788.251)" fill="#fff"/>
      <path id="Path_6758" data-name="Path 6758" d="M43.812,62.454,41.6,62.261c-.289,0-.361-.241-.193-.482l1.349-1.9a1.06,1.06,0,0,1,.843-.386l2.217.217c.289,0,.361.241.193.482l-1.349,1.88a1.036,1.036,0,0,1-.843.386Z" transform="translate(423.994 2789.859)" fill="#bebebe"/>
      <path id="Path_6759" data-name="Path 6759" d="M45.778,62.658l-2.217-.217c-.289,0-.386-.241-.193-.482l1.349-1.9a1.036,1.036,0,0,1,.819-.386l2.217.217c.289,0,.386.241.217.482L46.6,62.248a1.012,1.012,0,0,1-.819.41Z" transform="translate(426.75 2790.112)" fill="#fff"/>
      <path id="Path_6760" data-name="Path 6760" d="M47.719,62.838,45.5,62.621c-.265,0-.361-.241-.193-.482l1.349-1.88a1.108,1.108,0,0,1,.843-.41l2.217.217c.289,0,.361.241.193.482l-1.349,1.88a.988.988,0,0,1-.843.41Z" transform="translate(429.509 2790.366)" fill="#fff"/>
      <path id="Path_6761" data-name="Path 6761" d="M49.688,63l-2.217-.217c-.289,0-.386-.241-.193-.482l1.349-1.88a.964.964,0,0,1,.819-.386l2.217.193c.289,0,.386.241.217.482l-1.374,1.9a.988.988,0,0,1-.819.386Z" transform="translate(432.262 2790.633)" fill="#fff"/>
      <path id="Path_6762" data-name="Path 6762" d="M42.608,64.144l-2.217-.193c-.289,0-.386-.265-.193-.506l1.349-1.88a1.036,1.036,0,0,1,.819-.386l2.217.193c.289,0,.386.265.217.506l-1.373,1.88a.988.988,0,0,1-.819.386Z" transform="translate(422.282 2792.241)" fill="#f8b937"/>
      <path id="Path_6763" data-name="Path 6763" d="M44.549,64.324l-2.217-.193c-.265,0-.361-.241-.193-.482l1.349-1.9a1.06,1.06,0,0,1,.843-.386l2.217.217c.289,0,.361.241.193.482l-1.349,1.88A1.036,1.036,0,0,1,44.549,64.324Z" transform="translate(425.04 2792.495)" fill="#f5a1c5"/>
      <path id="Path_6764" data-name="Path 6764" d="M46.518,64.528,44.3,64.311c-.289,0-.386-.241-.193-.482l1.349-1.9a1.036,1.036,0,0,1,.819-.386l2.217.217c.289,0,.386.241.217.482l-1.374,1.88a1.012,1.012,0,0,1-.819.41Z" transform="translate(427.793 2792.749)" fill="#fff"/>
      <path id="Path_6765" data-name="Path 6765" d="M41.379,65.848l-2.217-.241c-.265,0-.361-.241-.193-.482l1.349-1.88a1.06,1.06,0,0,1,.843-.386l2.217.193c.289,0,.361.241.193.482l-1.349,1.9A1.036,1.036,0,0,1,41.379,65.848Z" transform="translate(420.571 2794.609)" fill="#f8b937"/>
      <path id="Path_6766" data-name="Path 6766" d="M43.292,66.014l-2.12-.193c-.289,0-.386-.265-.193-.506l1.349-1.88a1.036,1.036,0,0,1,.843-.386l2.193.193a.289.289,0,0,1,.217.506l-1.373,1.88A.988.988,0,0,1,43.292,66.014Z" transform="translate(423.381 2794.877)" fill="#f5a1c5"/>
      <path id="Path_6767" data-name="Path 6767" d="M45.288,66.194,43.1,66c-.289,0-.386-.241-.217-.482l1.373-1.9a.988.988,0,0,1,.819-.386l2.217.217c.289,0,.386.241.193.482l-1.349,1.88a.964.964,0,0,1-.843.386Z" transform="translate(426.084 2795.13)" fill="#f5a1c5"/>
      <path id="Path_6768" data-name="Path 6768" d="M47.252,68.78l-2.217-.217c-.289,0-.361-.241-.193-.482l4.265-5.952a1.108,1.108,0,0,1,.843-.41l2.217.217c.289,0,.361.241.193.482L48.1,68.371A1.108,1.108,0,0,1,47.252,68.78Z" transform="translate(428.843 2793.002)" fill="#fff"/>
      <ellipse id="Ellipse_241" data-name="Ellipse 241" cx="46.301" cy="26.458" rx="46.301" ry="26.458" transform="translate(402.793 3025.301)" fill="#fff"/>
      <path id="Path_6769" data-name="Path 6769" d="M41.719,110.042h0l-5.229,43.374-3.229,26.771H26.418c-1.807-11.06-3.253-22.313-4-33.566a106.244,106.244,0,0,1-.217-13.566c.289-4.386,2.241-8.193,2.41-12.6a63.349,63.349,0,0,0-.723-10.482Z" transform="translate(396.881 2861.018)" fill="#fdc5ab"/>
      <path id="Path_6771" data-name="Path 6771" d="M52.333,114l-4.482,39.663-3.108,27.518h0l-.289,2.7H38.068c-1.759-11.47-3.181-23.181-3.807-34.844a98.8,98.8,0,0,1,0-12.241c.289-4.361,2.12-8.145,2.145-12.578a68.049,68.049,0,0,0-.53-9.133L35.731,114Z" transform="translate(413.785 2866.698)" fill="#fdc5ab"/>
      <path id="Path_6772" data-name="Path 6772" d="M36.606,121.327a4.265,4.265,0,0,1-1.036,0A2.94,2.94,0,0,1,36.606,121.327Z" transform="translate(415.898 2876.962)" fill="#dc9567"/>
      <path id="Path_6774" data-name="Path 6774" d="M35.536,145.315v5.542s-1.157,7.759,6.6,5.133l13.59-10.434s2.048-3.614-.434-4.626-12.458,2.819-12.458,2.819S41.367,146.375,35.536,145.315Z" transform="translate(415.764 2904.42)" fill="#444"/>
      <path id="Path_6775" data-name="Path 6775" d="M42.429,50.92S20.862,66.245,18.091,71.956s5.2,26.868,18.217,40.8,6.121-7.59,6.121-7.59L31.055,82.438c-.843-1.663.217-4.41,6.361-8.121S42.429,50.92,42.429,50.92Z" transform="translate(390.485 2777.778)" fill="#bbcae8"/>
      <path id="Path_6776" data-name="Path 6776" d="M77.708,87.076a28.265,28.265,0,0,1-3.446,3.3c-.506.434-.964.867-1.446,1.325a16.579,16.579,0,0,0-3.3,4.627,14.049,14.049,0,0,0-1.349,4.386s.843,9.88,2.747,19.277c.265,1.253.554,2.41.867,3.663,2.1,7.88,5.181,14.458,4.458,16.554-.265.747-1.639,1.59-3.9,2.41a72,72,0,0,1-25.615,1.855c-16.868-1.325-25.253-7.687-25.47-8.578a176.2,176.2,0,0,1,9.036-23.084c2.747-5.518.626-19.277-1.711-33.735a29.229,29.229,0,0,1,3.036-18.6h0a28.916,28.916,0,0,1,7.374-9.084c3.012-2.41,9.084-.867,12.361-.361,2.41.361,4.675.843,6.988,1.4.819.193,1.566.337,2.265.554a6.8,6.8,0,0,1,2.145.916,6.217,6.217,0,0,1,1.59,1.59.434.434,0,0,0,.12.169c1.181,1.783,1.783,3.9,2.819,5.783v.145c.482.867.988,1.711,1.47,2.627a96.842,96.842,0,0,0,7.229,11.663C80.118,81.51,79.684,84.594,77.708,87.076Z" transform="translate(395.712 2776.586)" fill="#d6def1"/>
      <path id="Path_6777" data-name="Path 6777" d="M47.616,42.243s2.41,14.458.867,17.229c0,0-1.374,7.494-5.06,5.157a15.108,15.108,0,0,1-5.9-4.651A55.855,55.855,0,0,1,32.17,46.484S44.218,34.628,47.616,42.243Z" transform="translate(411.105 2761.949)" fill="#fdc5ab"/>
      <path id="Path_6779" data-name="Path 6779" d="M53.13,80.5a26.866,26.866,0,0,1-3.349,3.3c.386-1.3-11.59-14.892-11.59-15.4S41.178,59.2,42.7,54.74v.145l1.229,2.193c2.41,4.337,5.036,8.578,7.88,12.675C55.515,75.15,55.033,78.114,53.13,80.5Z" transform="translate(419.591 2783.163)" fill="#bbcae8"/>
      <path id="Path_6780" data-name="Path 6780" d="M58.9,99.268a6.046,6.046,0,0,1-.265.916c-2.072,5.133-8.675,6.121-11.855,0A181.806,181.806,0,0,1,34.9,65.2a13.976,13.976,0,0,1,.434-6.843A7.783,7.783,0,0,1,38.513,54.3a3.639,3.639,0,0,1,4.12,0,6.53,6.53,0,0,1,2.482,2.578,24.1,24.1,0,0,1,1.157,4.145c.554,2.217,1.084,4.434,1.639,6.651l3.108,12.048a2.722,2.722,0,0,1,0,.289c.482,1.855.964,3.711,1.422,5.542l6.1-12.6S60.513,92.642,58.9,99.268Z" transform="translate(414.618 2781.647)" fill="#d6def1"/>
      <path id="Path_6781" data-name="Path 6781" d="M47.024,38.786a19.952,19.952,0,0,0-8.072,13.374l-.217,1.614c-1.253,8.193,1.108,12.482-4.265,19.277S17.6,79.412,14.4,88.569s2.843,18.819,15.012,14.892S43.192,96.232,49.963,98.3c5.807,1.759,18.892,6.265,19.759-3.181s-5.3-28.337-3.88-31.711,3.9-4.41,3.012-9.976c-.41-2.554,4.819-3.928,5.687-6.386,1.277-3.325-4.241-8.024-6.41-9.4C62.18,33.942,52.807,35.027,47.024,38.786Z" transform="translate(384.854 2755.84)" fill="#444"/>
      <path id="Path_6782" data-name="Path 6782" d="M73.812,90.55l-2.554,63.807c-17.711,2.41-32.988.434-45.157-7.615,0-11.133-3.9-25.277-5.807-40.651-1.181-9.639,2.892-20.072,4.819-19.711C25.233,86.381,68.776,82.574,73.812,90.55Z" transform="translate(394.066 2826.486)" fill="#4285f4"/>
      <path id="Path_6783" data-name="Path 6783" d="M23.536,141.653V147.2s-1.157,7.759,6.6,5.157L43.777,141.8s2.048-3.614-.434-4.6-12.265,2.41-12.265,2.41S29.367,142.714,23.536,141.653Z" transform="translate(398.848 2899.142)" fill="#444"/>
    </g>
  </g>
</svg>
