<svg xmlns="http://www.w3.org/2000/svg" xmlns:xlink="http://www.w3.org/1999/xlink" width="610.752" height="491.499" viewBox="0 0 610.752 491.499">
  <defs>
    <linearGradient id="linear-gradient" x1="0.89" y1="0.956" x2="0" y2="0.14" gradientUnits="objectBoundingBox">
      <stop offset="0" stop-color="#bab0b0"/>
      <stop offset="0.389" stop-color="#e0e9f9"/>
      <stop offset="0.611" stop-color="#eaf2ff"/>
      <stop offset="1" stop-color="#f1f3f4"/>
    </linearGradient>
    <linearGradient id="linear-gradient-2" x1="-0.052" y1="0.122" x2="0.987" y2="0.885" xlink:href="#linear-gradient"/>
  </defs>
  <g id="Group_6141" data-name="Group 6141" transform="translate(-10345 3118)">
    <path id="Path_6636" data-name="Path 6636" d="M365.626,71.86H342.381v1.982a8.577,8.577,0,0,1-8.577,8.57H287.081a8.577,8.577,0,0,1-8.577-8.57V71.86H255.251a12.109,12.109,0,0,0-12.1,12.1V328.548a12.094,12.094,0,0,0,12.1,12.1H365.663a12.094,12.094,0,0,0,12.094-12.087V83.961a12.109,12.109,0,0,0-12.1-12.1Z" transform="translate(10340.392 -3078.86)" fill="none"/>
    <g id="Group_4695" data-name="Group 4695" transform="translate(10238 -3273)">
      <g id="Group_4679" data-name="Group 4679" transform="translate(107 155)">
        <g id="Group_4648" data-name="Group 4648">
          <g id="Group_4461" data-name="Group 4461">
            <path id="Path_10460" data-name="Path 10460" d="M2455.53,565.67q1.453,5.089,3.177,10.1c21.311,61.948,119.9,174.378,186.157,96.45,12.259-14.42,20.576-31.514,35.262-43.562a137.081,137.081,0,0,1,47.688-25.182c23.573-7.023,45.814-2.921,69.356-5.2,49.078-4.742,95.562-17.345,130.887-53.872,34.852-36.038,53.065-85.394,48.7-133.621a151.606,151.606,0,0,0-17.294-57.985q-1.687-3.157-3.519-6.236c-17.746-29.851-44.927-54.806-76.47-69.458-36.563-16.985-74.326-14.1-113.328-9.592-29.585,3.415-61.418,5.768-89.382-6.561-14.416-6.356-28.37-14.211-41.88-22.229-13.728-8.149-25.776-18.932-40.682-25.407-24.441-10.616-50.045-7.034-71.243,8.973-102.824,77.646-99.337,231.632-67.427,343.382" transform="translate(-2366.643 -207.266)" fill="url(#linear-gradient)"/>
            <path id="Path_10461" data-name="Path 10461" d="M2912.93,675.792c-13.813,33.76-45.948,58.493-85.933,56.759-54.324-2.355-100.11-43.687-144.576-70.32-11.071-6.632-22.438-12.918-34.492-17.594-27.189-10.549-60.878-8.018-87.9,2.023-22.809,8.476-43.354,28.8-62.437,43.718-29.615,23.151-74.472,19.4-106.009,1.11-84.44-48.973-95.881-181.392-34.552-252.8,81.767-95.212,225.489-101.565,335.345-57.551,59.438,23.815,112.784,63.023,154.888,111.126,33.048,37.756,67.618,85.041,72.548,136.983a98.4,98.4,0,0,1-6.884,46.549" transform="translate(-2318.283 -266.03)" fill="url(#linear-gradient-2)"/>
          </g>
        </g>
        <path id="Path_10728" data-name="Path 10728" d="M2857.99,240.7a138.071,138.071,0,0,0-35.732-21.941,214.577,214.577,0,0,0-41.508-12.888c-20.462-4.27-41.306-4.016-63.711.779-18.03,3.858-37.157,10.654-60.2,21.391-21.4,9.97-53.46,23.619-84.735,27.035-22.357,2.439-50.177,5.476-75.4,13.068-27.765,8.357-49.085,21.2-65.183,39.261-1.982,2.227-3.875,4.488-5.625,6.722a122.317,122.317,0,0,0-12.183,18.866q3.688-3.9,7.555-7.572,3.087-4.831,6.749-9.518c1.714-2.189,3.569-4.4,5.513-6.588,28.217-31.659,69.646-42.254,108.4-47.773,10.459-1.49,20.724-2.612,30.481-3.676q2.537-.277,5.074-.638c30.009-4.277,60.075-17.114,80.49-26.629,34.809-16.22,76.553-31.514,122.256-21.978,41.491,8.66,110.666,34.376,107.749,109.335-1.04,26.777-14.017,45.744-28.167,65.439q-.817,1.134-1.635,2.273c-2.511,3.488-5.109,7.1-7.648,10.757-12.728,18.335-23.3,39.253-33.273,65.827-6.232,16.608-11.687,33.944-16.963,50.709-2.905,9.234-5.909,18.78-9.031,28.176-2.7,8.129-5.608,16.346-8.822,24.473-16.421,41.563-40.8,80.772-86.252,94.006-27.776,8.085-60.556,5.717-97.429-7.039-32.65-11.3-63.586-29.816-91-53.954q-.882.18-1.769.339.886-.159,1.769-.339a327.437,327.437,0,0,1-71.91-91.368c-27.625-51.72-51.542-124-14.574-181.834q-3.866,3.672-7.555,7.572c-11.825,22.658-16.225,48.789-13.1,77.976,3.22,30,14.27,62.843,32.85,97.625a340.9,340.9,0,0,0,30.814,47.674,322.77,322.77,0,0,0,38.281,41.538q.808.736,1.621,1.461.888-.142,1.774-.3-.885.159-1.774.3c28.443,25.465,59.97,44.292,93.734,55.97,30.45,10.535,58.19,14.069,82.728,10.574a117.586,117.586,0,0,0,16.3-3.493,106.6,106.6,0,0,0,35.869-18.375,133.271,133.271,0,0,0,26.782-28.682c10.789-15.348,19.078-32.863,25.383-48.714,3.548-8.915,6.467-17.3,8.852-24.478,3.129-9.417,6.135-18.977,9.044-28.221,5.266-16.729,10.708-34.026,16.914-50.564,9.887-26.35,20.359-47.072,32.95-65.213,2.527-3.64,5.118-7.238,7.621-10.717.453-.632.91-1.264,1.361-1.894,14.513-20.185,27.892-39.571,28.972-67.367C2891.93,286.662,2880.92,260.624,2857.99,240.7Z" transform="translate(-2337.561 -182.354)" fill="#fff"/>
      </g>
    </g>
    <g id="Group_6133" data-name="Group 6133" transform="translate(-237.1 -1876.509)">
      <path id="Path_1408" data-name="Path 1408" d="M1347.59,1029.666l12.573-4.782c44.188-16.831,74.63-70.416,74.635-131.371v-23.14" transform="translate(9585.922 -1888.957)" fill="none" stroke="#4285f4" stroke-miterlimit="10" stroke-width="5"/>
      <g id="Group_4694" data-name="Group 4694" transform="translate(10833.458 -990.41)">
        <path id="Path_11136" data-name="Path 11136" d="M947.756,649.485a16.542,16.542,0,0,1-16.542-16.517V472.542A16.542,16.542,0,0,1,947.756,456h74.816a16.542,16.542,0,0,1,16.542,16.542V632.968a16.542,16.542,0,0,1-16.542,16.517" transform="translate(-928.925 -456)" fill="#2b67cb"/>
        <path id="Path_1399" data-name="Path 1399" d="M1407.362,724.336a16.542,16.542,0,0,1-16.542-16.542V547.386a16.542,16.542,0,0,1,16.542-16.542h74.84a16.542,16.542,0,0,1,16.542,16.542V707.832a16.542,16.542,0,0,1-16.542,16.542" transform="translate(-1390.82 -528.448)" fill="#4285f4"/>
        <rect id="Rectangle_70" data-name="Rectangle 70" width="98.853" height="151.032" transform="translate(103.377 174.677) rotate(180)" fill="#bebebe"/>
        <path id="Path_1400" data-name="Path 1400" d="M1458.19,550.143h0a1.344,1.344,0,0,1,1.352-1.343h28.326a1.344,1.344,0,0,1,1.352,1.343h0a1.352,1.352,0,0,1-1.352,1.352h-28.326a1.352,1.352,0,0,1-1.352-1.352Z" transform="translate(-1419.755 -536.161)" fill="#fff"/>
        <circle id="Ellipse_180" data-name="Ellipse 180" cx="5.962" cy="5.962" r="5.962" transform="translate(46.959 189.198) rotate(-78.522)" fill="#fff"/>
        <rect id="Rectangle_71" data-name="Rectangle 71" width="98.853" height="129.97" transform="translate(4.523 44.539)" fill="#fff"/>
        <rect id="Rectangle_72" data-name="Rectangle 72" width="48.744" height="3.726" transform="translate(29.872 30.619)" fill="#fff"/>
        <rect id="Rectangle_73" data-name="Rectangle 73" width="28.103" height="2.699" transform="translate(29.872 37.317)" fill="#fff"/>
        <circle id="Ellipse_181" data-name="Ellipse 181" cx="7.725" cy="7.725" r="7.725" transform="translate(6.518 34.645) rotate(-45)" fill="#fff"/>
        <path id="Path_1401" data-name="Path 1401" d="M1546.693,593.908a1.249,1.249,0,1,1-1.25-1.249A1.249,1.249,0,0,1,1546.693,593.908Zm2.855-1.249a.579.579,0,1,0-.006-.029Zm4.091,0a.583.583,0,1,0-.006-.029Z" transform="translate(-1456.692 -554.911)" fill="#fff"/>
        <rect id="Rectangle_74" data-name="Rectangle 74" width="6.874" height="17.264" transform="translate(18.039 109.529)" fill="#ea4335"/>
        <rect id="Rectangle_75" data-name="Rectangle 75" width="6.874" height="32.417" transform="translate(33.534 94.376)" fill="#4285f4"/>
        <rect id="Rectangle_76" data-name="Rectangle 76" width="6.874" height="29.068" transform="translate(49.029 97.726)" fill="#ea4335"/>
        <rect id="Rectangle_77" data-name="Rectangle 77" width="6.874" height="40.296" transform="translate(64.525 86.497)" fill="#4285f4"/>
        <rect id="Rectangle_78" data-name="Rectangle 78" width="3.155" height="32.417" transform="translate(33.534 94.376)" fill="#4285f4" opacity="0.26"/>
        <rect id="Rectangle_79" data-name="Rectangle 79" width="3.155" height="17.264" transform="translate(18.039 109.529)" fill="#ea4335" opacity="0.26"/>
        <rect id="Rectangle_80" data-name="Rectangle 80" width="3.155" height="40.296" transform="translate(64.525 86.497)" fill="#4285f4" opacity="0.26"/>
        <rect id="Rectangle_81" data-name="Rectangle 81" width="3.155" height="29.068" transform="translate(49.029 97.726)" fill="#ea4335" opacity="0.26"/>
        <rect id="Rectangle_82" data-name="Rectangle 82" width="6.874" height="48.739" transform="translate(80.835 78.06)" fill="#ea4335"/>
        <rect id="Rectangle_83" data-name="Rectangle 83" width="3.155" height="48.739" transform="translate(80.835 78.06)" fill="#ea4335" opacity="0.26"/>
        <path id="Path_1402" data-name="Path 1402" d="M725.911,280.94H645.52V215.41h.935V280h79.456Z" transform="translate(-633.442 -148.566)" fill="#4285f4"/>
        <path id="Path_1403" data-name="Path 1403" d="M769.049,225.465l-2.219-5.9,5.979,1.118Z" transform="translate(-685.544 -150.349)" fill="#4285f4"/>
        <rect id="Rectangle_84" data-name="Rectangle 84" width="5.774" height="5.768" transform="translate(11.906 139.91)" fill="#4285f4"/>
        <rect id="Rectangle_85" data-name="Rectangle 85" width="5.774" height="5.774" transform="translate(11.906 150.019)" fill="#ea4335"/>
        <rect id="Rectangle_86" data-name="Rectangle 86" width="29.924" height="3.281" transform="translate(19.266 152.512)" fill="#bebebe" opacity="0.48"/>
        <rect id="Rectangle_87" data-name="Rectangle 87" width="29.924" height="3.281" transform="translate(19.266 142.397)" fill="#bebebe" opacity="0.48"/>
        <path id="Path_1404" data-name="Path 1404" d="M661.5,248.274l15.775-11.5,15.216,6.96,15.5-13.669,16.06-6.633" transform="translate(-640.305 -152.015)" fill="none" stroke="#4285f4" stroke-linecap="round" stroke-linejoin="round" stroke-width="1.05"/>
        <path id="Path_1405" data-name="Path 1405" d="M1564.364,615.267a3,3,0,1,1-.879-2.128,3,3,0,0,1,.879,2.128Z" transform="translate(-1462.775 -563.417)" fill="none" stroke="#fff" stroke-miterlimit="10" stroke-width="0.91"/>
      </g>
      <path id="Path_1407" data-name="Path 1407" d="M1101.984,881.436l-17.48-3.109a69.728,69.728,0,0,1-46.529-31.659,75.623,75.623,0,0,1-9.712-57.089h0" transform="translate(9735.833 -1797.752)" fill="none" stroke="#4285f4" stroke-miterlimit="10" stroke-width="5"/>
      <g id="Group_5740" data-name="Group 5740" transform="translate(215 -114)">
        <path id="Path_1406" data-name="Path 1406" d="M972.41,824.86c0,44.916,47.587,81.265,106.4,81.265" transform="translate(9741.009 -1673.034)" fill="none"/>
        <path id="Path_1436" data-name="Path 1436" d="M1055.14,1070.485s.223,9.128,4.843,9.128,13.162-5.523,14.451-5,12.175,6.219,13.351,6.013.9-1.825,2.282-2.031,16.794,8.507,19.848,1.672c1.847-4.136-6.9-5.654-6.9-5.654s10.121-11.41,12.745-20.355S1055.14,1070.485,1055.14,1070.485Z" transform="translate(9705.478 -1770.732)" fill="#d1d3d4" opacity="0.63"/>
        <path id="Path_1437" data-name="Path 1437" d="M1105.48,1058.822s10.839.468,19.055-6.846c6.561-5.878,11.41-15.7,12.8-19.969s1.98-12.871-.091-14.3-39.616,34.3-39.616,34.3Z" transform="translate(9687.231 -1755.84)" fill="#307af3"/>
        <path id="Path_1438" data-name="Path 1438" d="M1026.26,1045.255s4.524-5.135,16.739-5.106c9.51,0,40.706,8.558,40.706,8.558l-13.567,14.508Z" transform="translate(9717.881 -1765.497)" fill="#307af3"/>
        <path id="Path_1442" data-name="Path 1442" d="M1042.028,1050.02c6.909,4.21,35.451,13.789,35.451,13.789s1.062,7.342-5.135,9.534c0,0-34.419-9.7-42.56-13.447s-5.654-10.269-4.524-11.981S1033.438,1044.781,1042.028,1050.02Z" transform="translate(9718.85 -1768.162)" fill="#4285f4"/>
        <path id="Path_1443" data-name="Path 1443" d="M1080.787,963.3a3.423,3.423,0,0,1,1.495,1.552,3.883,3.883,0,0,1,.359,2.391c-.382,2.151-.856,5.511-1.374,9.06-.833,5.7-1.78,11.89-2.636,14.365-.182.57,2.385,3.514,1.272,4.9,0,.04-.336,11.519-.371,11.559s-1.141,1.107-1.176,1.141c-.433.285-2.077.958-2.921.571s-21.916,6.423-21.742,6.225c8.808-10.127,16.151-15.809,16.7-16.794,1.092-1.931.359-21.605.8-25.531a15.362,15.362,0,0,1,1.911-5.916,14.921,14.921,0,0,1,3.48-3.423C1078.167,962.119,1079,962.358,1080.787,963.3Z" transform="translate(9706.101 -1732.154)" fill="#c12e22"/>
        <path id="Path_1444" data-name="Path 1444" d="M1117.014,990.967a15.836,15.836,0,0,0-.708,9.128c1.343,6.025-.182,6.429-.182,6.429s-7.251,5.032-14.332,5.785c-6.339.679-11.69,1.084-11.57-4.29l2.031,1.621v-.941c.234-12.092-2.282-12.7-2.909-26.244-.639-13.887-3.994-15.729-.976-19.665,4.5-5.831,16.425-8.8,25.878-6.561,7.1,1.672,9.436,3.554,9.379,8.809a40.371,40.371,0,0,1-.764,6.466C1121.716,978.1,1118.912,986.015,1117.014,990.967Z" transform="translate(9691.74 -1729.134)" fill="#ea4335"/>
        <path id="Path_1445" data-name="Path 1445" d="M1119.022,942.88c-2.693,1.8-4.433,3.252-7.913,3.252-1.312,0-.8-.525-2.031-.8.6.319-.622.867-.149.97a2.06,2.06,0,0,1,1.637,1.894l.211,3.993,1.558,3.258,2.721-1.757,3.953-2.567-.388-6.19A1.62,1.62,0,0,1,1119.022,942.88Z" transform="translate(9682.424 -1723.721)" fill="#ffe1bd"/>
        <path id="Path_1446" data-name="Path 1446" d="M1110.99,950.147l.268,3.714-.514,2.054-1.558-3.258-.211-3.994a2.059,2.059,0,0,0-1.637-1.894c-1.008-.217-.525-.958-1.962-2.487a2.623,2.623,0,0,1-.252-.3c.177.1.411,1.5,3.645,1.866C1111.166,946.114,1110.822,947.745,1110.99,950.147Z" transform="translate(9684.007 -1724.194)" fill="#e8c5a0"/>
        <path id="Path_1447" data-name="Path 1447" d="M1120.545,952.26a6.389,6.389,0,0,1,1.911,1.962,25.641,25.641,0,0,0-2.448,1.284c-1.038.633-6.036,4.165-6.036,4.165l-1.466-3.018S1117.724,953.049,1120.545,952.26Z" transform="translate(9680.837 -1727.75)" fill="#fff"/>
        <path id="Path_1448" data-name="Path 1448" d="M1110.541,956.919a4.031,4.031,0,0,0-2.282,1.9s-.9-1.711.245-4.759a7.892,7.892,0,0,1,1.711-1.233Z" transform="translate(9682.808 -1727.995)" fill="#fff"/>
        <path id="Path_1449" data-name="Path 1449" d="M333.856,618.252l-33.786-.29,20.116,7.5Z" transform="translate(10467.051 -1339.765)" fill="#b3c5ce"/>
        <path id="Path_1450" data-name="Path 1450" d="M335.1,630.584l14.479-1.352.108-1.192-14.72,1.386Z" transform="translate(10452.063 -1344.094)" fill="#e8f1f8"/>
        <path id="Path_1451" data-name="Path 1451" d="M1099.6,1042l-2.75,1.512a4.732,4.732,0,0,0-5.4.159c-2.693,2.037.57,7.8,2.55,7.221s7.822-4.89,7.822-4.89Z" transform="translate(9690.323 -1766.292)" fill="#ffe1bd"/>
        <path id="Path_1452" data-name="Path 1452" d="M271.3,629.565l-3.359,1,36.907.348,16.186-4.422-34.379.359Z" transform="translate(10480.849 -1343.428)" fill="#474747" opacity="0.24"/>
        <path id="Path_1453" data-name="Path 1453" d="M1118.689,1005.6c-5.135,1.615-10.5,9.8-10.5,9.8l-.474-.756a6.651,6.651,0,0,1-3.383-3.646,21.025,21.025,0,0,1-.252-3.8s12.847-6.424,16.793-10.771c1.917-2.111,2.088-3.879,3.92-4.764-.057-.143-.108-.28-.16-.42-2-5.7-1.911-13.9-2.738-18.046a13.155,13.155,0,0,1,.159-5.951,11.486,11.486,0,0,1,1.711-3.623c1.238-1.711,2.932-3.075,5.135-2.567a4.148,4.148,0,0,1,2.082,1.2,4.325,4.325,0,0,1,1.141,2.368c.816,6.013,3.423,22.467,3.286,26.153a6.792,6.792,0,0,1-.291,1.774,5.366,5.366,0,0,1-.168.571C1133.039,998.358,1123.828,1003.984,1118.689,1005.6Z" transform="translate(9684.459 -1731.48)" fill="#c12e22"/>
        <path id="Path_1454" data-name="Path 1454" d="M1071.5,1036.73l-35.057-3.206a2.482,2.482,0,0,1-2.242-2.191l-2.771-24.418a2.082,2.082,0,0,1,2.282-2.282l32.832,3.007a2.076,2.076,0,0,1,1.876,1.837Z" transform="translate(9715.663 -1750.239)" fill="#d4dedf"/>
        <path id="Path_1455" data-name="Path 1455" d="M1096.159,923.385a4.762,4.762,0,0,1-.821,1.449,4.938,4.938,0,0,0-.816,2.658c.023-.057-1.5-4.228-1.067-5.249s1.344-1.278,1.569-.947S1096.159,923.385,1096.159,923.385Z" transform="translate(9689.056 -1714.393)" fill="#632f00"/>
        <path id="Path_1456" data-name="Path 1456" d="M1114.448,929.807a15.38,15.38,0,0,1,.069,2.978,1.63,1.63,0,0,1-.051.32c-.023.108-.04.211-.074.325-.85,3.366-5.135,8.118-8.107,8.5a7.894,7.894,0,0,1-1.141,0c-4.165-.188-6.6-3.606-7.987-7.24-.045-.137-.1-.257-.143-.382a33.4,33.4,0,0,1-1.751-8.061,2.385,2.385,0,0,0-.035-.451,6.177,6.177,0,0,1,.1-2.789q.029-.116.068-.228l.143-.04c1.141-.353,9.02-2.762,9.191-2.779s8.089.57,8.089.57a85.569,85.569,0,0,1,1.632,9.276Z" transform="translate(9688.311 -1713.878)" fill="#ffe1bd"/>
        <path id="Path_1457" data-name="Path 1457" d="M1116.48,927.17" transform="translate(9679.132 -1716.974)" fill="#4c2e1e"/>
        <path id="Path_1458" data-name="Path 1458" d="M1117,936.883a15.3,15.3,0,0,1,.063,2.973,1.742,1.742,0,0,1-.051.325c-.57,3.366-4.661,8.6-9.294,9.008a8.326,8.326,0,0,1-1.033.091c-5.015.206-6.755-3.571-8.145-7.305-.045-.137-.1-.257-.143-.382,0,0,1.746,2.784,2.613,2.855s-.211-1.008,2.151-1.923a11.952,11.952,0,0,1,4.843-.4c1.061.131,2.744.633,3.372.725a.7.7,0,0,0,.359-.034c.833-.428,2.511-3.246,2.8-5.038C1114.647,937.083,1116.335,936.768,1117,936.883Z" transform="translate(9686.898 -1721.135)" fill="#8c4200"/>
        <path id="Path_1459" data-name="Path 1459" d="M1089.244,913.227s.257,6.046,10.184,3.622,9.163,7.451,9.163,7.451,1.38-3.309,1.791-2.031-.035,4.564-.035,4.564,2.721.291,2.807-1.05c.051-.8.137-12.232-1.825-14.946s-4.313-2.59-4.313-2.59-2.482-2.094-8.336-.382-8.934-.451-8.917-.28A11.691,11.691,0,0,0,1089.244,913.227Z" transform="translate(9690.878 -1708.393)" fill="#8c4200"/>
        <path id="Path_1460" data-name="Path 1460" d="M1109.924,933.212c-.1-.411-1.905-.336-3.183-.168s-4.69.57-5.4,1.008-.69.7-1.067.741-.376-.234-1.176-.462a14.189,14.189,0,0,0-4.045.177c-1.278.177-2.5.411-2.493.833s.194,1.141.445,1.26.257.092,1.181,1.711c.514.913,1.344,1.421,3.007,1.1a3.148,3.148,0,0,0,2.519-2.855c.192-.71.354-.845.672-.884s.537,0,.907.684.57,2.208,2.733,2.219c2.8,0,4.051-.725,4.507-2.054.61-1.8.49-1.8.708-1.962.1-.084.719-.3.736-.537a2.893,2.893,0,0,0-.049-.813Zm-10.916,4.051a2.228,2.228,0,0,1-2.156,1.931c-1.295.168-1.86-.314-2.5-1.489-.57-1.027-.57-1.854-.314-2.151s.924-.314,2.528-.439,2.139-.168,2.374.331a4.57,4.57,0,0,1,.092,1.815Zm9.208-1.3c-.325,1.3-1.008,1.94-2.779,2.156-2.511.308-2.956-.394-3.286-1.249a4.519,4.519,0,0,1-.382-1.78c.1-.57.633-.633,2.219-.907s3.7-.61,3.994-.382a2.242,2.242,0,0,1,.234,2.162Z" transform="translate(9689.405 -1719.439)" fill="#282c3b"/>
        <path id="Path_1464" data-name="Path 1464" d="M1089.609,1045.963s16.214-13.191,23-20.2,11.084-13.855,19-11.114-2.031,17.465-9.271,23.226-25.106,18.45-25.106,18.45S1087.627,1052.932,1089.609,1045.963Z" transform="translate(9690.788 -1754.277)" fill="#4285f4"/>
        <circle id="Ellipse_186" data-name="Ellipse 186" cx="2.852" cy="2.852" r="2.852" transform="translate(10762.643 -732.427)" fill="#b4bcc5"/>
      </g>
      <g id="Group_5739" data-name="Group 5739" transform="translate(88 77)">
        <path id="Path_1423" data-name="Path 1423" d="M893.39,1002.054a28.993,28.993,0,0,1,.645,5.671c-.319,1.74,0,2.282,0,2.282l6.618-.57s-2.927-1.432-2.721-8.261S893.39,1002.054,893.39,1002.054Z" transform="translate(9788.946 -1882.545)" fill="#fc9"/>
        <path id="Path_1424" data-name="Path 1424" d="M893.38,1015.688a10.356,10.356,0,0,0,5.7.263,26.921,26.921,0,0,0,8.733,2.539c3.04.382,2.5,2.887-2.693,2.538a64.883,64.883,0,0,0-9.973,0c-1.141.12-3.007.274-3.081-.536S892.444,1015.419,893.38,1015.688Z" transform="translate(9789.514 -1889.986)" fill="#4285f4"/>
        <path id="Path_1425" data-name="Path 1425" d="M857.79,1002.054a28.989,28.989,0,0,1,.645,5.671c-.319,1.74,0,2.282,0,2.282l6.617-.57s-2.926-1.432-2.721-8.261S857.79,1002.054,857.79,1002.054Z" transform="translate(9804.234 -1882.545)" fill="#fc9"/>
        <path id="Path_1426" data-name="Path 1426" d="M857.779,1015.688a10.356,10.356,0,0,0,5.7.263,26.953,26.953,0,0,0,8.733,2.539c3.041.382,2.5,2.887-2.693,2.538a64.883,64.883,0,0,0-9.973,0c-1.141.12-3,.274-3.081-.536S856.844,1015.419,857.779,1015.688Z" transform="translate(9804.806 -1889.986)" fill="#4285f4"/>
        <path id="Path_1427" data-name="Path 1427" d="M888.059,834.135s4.256,44.6,4.507,50.41a82.979,82.979,0,0,1,0,11.364c-.257,3.538,1.931,33.313,1.931,33.313s-9.908,2.59-12.437.291c0,0,.42-32.474-.85-38.031s-6.21-33.7-6.21-33.7L880.7,829Z" transform="translate(9796.845 -1809.812)" fill="#307af3"/>
        <path id="Path_1428" data-name="Path 1428" d="M846.375,720.466s.411-7.765,3.617-9.847,11.756-2.855,14.388.756,5.443,19.22-7.417,21.235l-6.658,30.728s-17.315-1.774-18.641-11.039,6.561-13.6,6.561-13.6-3.779-7.8.194-13.3S846.375,720.466,846.375,720.466Z" transform="translate(9815.52 -1758.214)" fill="#213458"/>
        <path id="Path_1430" data-name="Path 1430" d="M856.337,891.69c1.008-8.33-.84-42.1-.764-49.253s20.208-3.514,20.208-3.514-6.315,41.91-7.068,47.974-1.768,7.822-2.151,13.63-3.155,33.09-3.155,33.09-11.08,1.86-11.918-.234C849.736,922.64,856.337,891.69,856.337,891.69Z" transform="translate(9807.069 -1813.676)" fill="#4285f4"/>
        <path id="Path_1431" data-name="Path 1431" d="M869.511,754.125l9.088,2.448s-1.008,7.65,0,9.927h-6.31s-1.091,3.281-1.711,4.792,4.718,26.98,5.471,31.778c0,0-13.379-2.487-23.961,2.311,0,0,1.008-10.1,4.564-17.167S846,764.669,846,764.669s4.324-13.259,11.895-14.075C863.942,749.938,863.9,752.619,869.511,754.125Z" transform="translate(9809.299 -1776.093)" fill="#34a853"/>
        <path id="Path_1432" data-name="Path 1432" d="M877.958,718s2.778,7.519,1.008,11.057-6.059,3.03-6.059,3.03v8.081a1.979,1.979,0,0,1-1.2.462c-1.323.074-4.861-2.231-4.861-2.231V719.711Z" transform="translate(9800.346 -1762.139)" fill="#fc9"/>
        <path id="Path_1433" data-name="Path 1433" d="M832.043,774.48s-13.435,15.261-12.679,17.156,15.712,10.224,17.041,11.359,5.4,5.7,5.542,5.083,2.6-2.054,2.789-3.566a3.99,3.99,0,0,0-1.141-2.855l-5.7-.756s-10.19-8.512-10.572-9.647,11.551-12.877,11.551-12.877Z" transform="translate(9820.752 -1786.396)" fill="#fc9"/>
        <path id="Path_1434" data-name="Path 1434" d="M839.44,765.249s7.793-10.976,12.62-10.606,4.564,7.445,0,12.369S846,773.829,846,773.829,840.45,771.051,839.44,765.249Z" transform="translate(9812.116 -1777.872)" fill="#34a853"/>
        <path id="Path_1435" data-name="Path 1435" d="M874.051,716.07s-1.8,8.626-5.968,10.9-1.021,7.856-4.992,12.027c-2.128,2.231-6.162-.245-6.162-.245l3.993-21.58Z" transform="translate(9804.605 -1761.31)" fill="#213458"/>
        <path id="Path_1429" data-name="Path 1429" d="M900.793,754.073s15.666,2.242,19.9,2.042c3.32.2,8.107-19.529,8.587-20.74,2.648-1.8,3.695-3.2,3.651-4.565s-3.423-2.5-3.742-1.825c.57-1.8.684-2.368.833-2.989.314-1.278-.57-2.282-1.883,2.579s-1.141,3.994-1.466,5.665c-2.088,4.353-7.479,14.514-7.844,16.054-7-.174-18.828-3.135-18.828-3.135Z" transform="translate(9786.106 -1765.121)" fill="#fc9"/>
      </g>
      <g id="Group_5621" data-name="Group 5621" transform="translate(10943.808 -1199.102)">
        <path id="Path_11136-2" data-name="Path 11136" d="M947.756,649.485a16.542,16.542,0,0,1-16.542-16.517V472.542A16.542,16.542,0,0,1,947.756,456h74.816a16.542,16.542,0,0,1,16.542,16.542V632.968a16.542,16.542,0,0,1-16.542,16.517" transform="translate(-928.925 -456)" fill="#2b67cb"/>
        <path id="Path_1399-2" data-name="Path 1399" d="M1407.362,724.336a16.542,16.542,0,0,1-16.542-16.542V547.386a16.542,16.542,0,0,1,16.542-16.542h74.84a16.542,16.542,0,0,1,16.542,16.542V707.832a16.542,16.542,0,0,1-16.542,16.542" transform="translate(-1390.82 -528.448)" fill="#4285f4"/>
        <rect id="Rectangle_70-2" data-name="Rectangle 70" width="98.853" height="151.032" transform="translate(103.377 174.677) rotate(180)" fill="#bebebe"/>
        <path id="Path_1400-2" data-name="Path 1400" d="M1458.19,550.143h0a1.344,1.344,0,0,1,1.352-1.343h28.326a1.344,1.344,0,0,1,1.352,1.343h0a1.352,1.352,0,0,1-1.352,1.352h-28.326a1.352,1.352,0,0,1-1.352-1.352Z" transform="translate(-1419.755 -536.161)" fill="#fff"/>
        <circle id="Ellipse_180-2" data-name="Ellipse 180" cx="5.962" cy="5.962" r="5.962" transform="translate(46.959 189.198) rotate(-78.522)" fill="#fff"/>
        <rect id="Rectangle_71-2" data-name="Rectangle 71" width="98.853" height="129.97" transform="translate(4.523 44.539)" fill="#fff"/>
        <rect id="Rectangle_72-2" data-name="Rectangle 72" width="48.744" height="3.726" transform="translate(29.872 30.619)" fill="#fff"/>
        <rect id="Rectangle_73-2" data-name="Rectangle 73" width="28.103" height="2.699" transform="translate(29.872 37.317)" fill="#fff"/>
        <circle id="Ellipse_181-2" data-name="Ellipse 181" cx="7.725" cy="7.725" r="7.725" transform="translate(6.518 34.645) rotate(-45)" fill="#fff"/>
        <path id="Path_1401-2" data-name="Path 1401" d="M1546.693,593.908a1.249,1.249,0,1,1-1.25-1.249A1.249,1.249,0,0,1,1546.693,593.908Zm2.855-1.249a.579.579,0,1,0-.006-.029Zm4.091,0a.583.583,0,1,0-.006-.029Z" transform="translate(-1456.692 -554.911)" fill="#fff"/>
        <rect id="Rectangle_74-2" data-name="Rectangle 74" width="6.874" height="17.264" transform="translate(18.039 109.529)" fill="#ea4335"/>
        <rect id="Rectangle_75-2" data-name="Rectangle 75" width="6.874" height="32.417" transform="translate(33.534 94.376)" fill="#4285f4"/>
        <rect id="Rectangle_76-2" data-name="Rectangle 76" width="6.874" height="29.068" transform="translate(49.029 97.726)" fill="#ea4335"/>
        <rect id="Rectangle_77-2" data-name="Rectangle 77" width="6.874" height="40.296" transform="translate(64.525 86.497)" fill="#4285f4"/>
        <rect id="Rectangle_78-2" data-name="Rectangle 78" width="3.155" height="32.417" transform="translate(33.534 94.376)" fill="#4285f4" opacity="0.26"/>
        <rect id="Rectangle_79-2" data-name="Rectangle 79" width="3.155" height="17.264" transform="translate(18.039 109.529)" fill="#ea4335" opacity="0.26"/>
        <rect id="Rectangle_80-2" data-name="Rectangle 80" width="3.155" height="40.296" transform="translate(64.525 86.497)" fill="#4285f4" opacity="0.26"/>
        <rect id="Rectangle_81-2" data-name="Rectangle 81" width="3.155" height="29.068" transform="translate(49.029 97.726)" fill="#ea4335" opacity="0.26"/>
        <rect id="Rectangle_82-2" data-name="Rectangle 82" width="6.874" height="48.739" transform="translate(80.835 78.06)" fill="#ea4335"/>
        <rect id="Rectangle_83-2" data-name="Rectangle 83" width="3.155" height="48.739" transform="translate(80.835 78.06)" fill="#ea4335" opacity="0.26"/>
        <path id="Path_1402-2" data-name="Path 1402" d="M725.911,280.94H645.52V215.41h.935V280h79.456Z" transform="translate(-633.442 -148.566)" fill="#4285f4"/>
        <path id="Path_1403-2" data-name="Path 1403" d="M769.049,225.465l-2.219-5.9,5.979,1.118Z" transform="translate(-685.544 -150.349)" fill="#4285f4"/>
        <rect id="Rectangle_84-2" data-name="Rectangle 84" width="5.774" height="5.768" transform="translate(11.906 139.91)" fill="#4285f4"/>
        <rect id="Rectangle_85-2" data-name="Rectangle 85" width="5.774" height="5.774" transform="translate(11.906 150.019)" fill="#ea4335"/>
        <rect id="Rectangle_86-2" data-name="Rectangle 86" width="29.924" height="3.281" transform="translate(19.266 152.512)" fill="#bebebe" opacity="0.48"/>
        <rect id="Rectangle_87-2" data-name="Rectangle 87" width="29.924" height="3.281" transform="translate(19.266 142.397)" fill="#bebebe" opacity="0.48"/>
        <path id="Path_1404-2" data-name="Path 1404" d="M661.5,248.274l15.775-11.5,15.216,6.96,15.5-13.669,16.06-6.633" transform="translate(-640.305 -152.015)" fill="none" stroke="#4285f4" stroke-linecap="round" stroke-linejoin="round" stroke-width="1.05"/>
        <path id="Path_1405-2" data-name="Path 1405" d="M1564.364,615.267a3,3,0,1,1-.879-2.128,3,3,0,0,1,.879,2.128Z" transform="translate(-1462.775 -563.417)" fill="none" stroke="#fff" stroke-miterlimit="10" stroke-width="0.91"/>
      </g>
      <g id="Group_5622" data-name="Group 5622" transform="translate(10720.101 -1199.491)">
        <path id="Path_11136-3" data-name="Path 11136" d="M947.756,649.485a16.542,16.542,0,0,1-16.542-16.517V472.542A16.542,16.542,0,0,1,947.756,456h74.816a16.542,16.542,0,0,1,16.542,16.542V632.968a16.542,16.542,0,0,1-16.542,16.517" transform="translate(-928.925 -456)" fill="#2b67cb"/>
        <path id="Path_1399-3" data-name="Path 1399" d="M1407.362,724.336a16.542,16.542,0,0,1-16.542-16.542V547.386a16.542,16.542,0,0,1,16.542-16.542h74.84a16.542,16.542,0,0,1,16.542,16.542V707.832a16.542,16.542,0,0,1-16.542,16.542" transform="translate(-1390.82 -528.448)" fill="#4285f4"/>
        <rect id="Rectangle_70-3" data-name="Rectangle 70" width="98.853" height="151.032" transform="translate(103.377 174.677) rotate(180)" fill="#bebebe"/>
        <path id="Path_1400-3" data-name="Path 1400" d="M1458.19,550.143h0a1.344,1.344,0,0,1,1.352-1.343h28.326a1.344,1.344,0,0,1,1.352,1.343h0a1.352,1.352,0,0,1-1.352,1.352h-28.326a1.352,1.352,0,0,1-1.352-1.352Z" transform="translate(-1419.755 -536.161)" fill="#fff"/>
        <circle id="Ellipse_180-3" data-name="Ellipse 180" cx="5.962" cy="5.962" r="5.962" transform="translate(46.959 189.198) rotate(-78.522)" fill="#fff"/>
        <rect id="Rectangle_71-3" data-name="Rectangle 71" width="98.853" height="129.97" transform="translate(4.523 44.539)" fill="#fff"/>
        <rect id="Rectangle_72-3" data-name="Rectangle 72" width="48.744" height="3.726" transform="translate(29.872 30.619)" fill="#fff"/>
        <rect id="Rectangle_73-3" data-name="Rectangle 73" width="28.103" height="2.699" transform="translate(29.872 37.317)" fill="#fff"/>
        <circle id="Ellipse_181-3" data-name="Ellipse 181" cx="7.725" cy="7.725" r="7.725" transform="translate(6.518 34.645) rotate(-45)" fill="#fff"/>
        <path id="Path_1401-3" data-name="Path 1401" d="M1546.693,593.908a1.249,1.249,0,1,1-1.25-1.249A1.249,1.249,0,0,1,1546.693,593.908Zm2.855-1.249a.579.579,0,1,0-.006-.029Zm4.091,0a.583.583,0,1,0-.006-.029Z" transform="translate(-1456.692 -554.911)" fill="#fff"/>
        <rect id="Rectangle_74-3" data-name="Rectangle 74" width="6.874" height="17.264" transform="translate(18.039 109.529)" fill="#ea4335"/>
        <rect id="Rectangle_75-3" data-name="Rectangle 75" width="6.874" height="32.417" transform="translate(33.534 94.376)" fill="#4285f4"/>
        <rect id="Rectangle_76-3" data-name="Rectangle 76" width="6.874" height="29.068" transform="translate(49.029 97.726)" fill="#ea4335"/>
        <rect id="Rectangle_77-3" data-name="Rectangle 77" width="6.874" height="40.296" transform="translate(64.525 86.497)" fill="#4285f4"/>
        <rect id="Rectangle_78-3" data-name="Rectangle 78" width="3.155" height="32.417" transform="translate(33.534 94.376)" fill="#4285f4" opacity="0.26"/>
        <rect id="Rectangle_79-3" data-name="Rectangle 79" width="3.155" height="17.264" transform="translate(18.039 109.529)" fill="#ea4335" opacity="0.26"/>
        <rect id="Rectangle_80-3" data-name="Rectangle 80" width="3.155" height="40.296" transform="translate(64.525 86.497)" fill="#4285f4" opacity="0.26"/>
        <rect id="Rectangle_81-3" data-name="Rectangle 81" width="3.155" height="29.068" transform="translate(49.029 97.726)" fill="#ea4335" opacity="0.26"/>
        <rect id="Rectangle_82-3" data-name="Rectangle 82" width="6.874" height="48.739" transform="translate(80.835 78.06)" fill="#ea4335"/>
        <rect id="Rectangle_83-3" data-name="Rectangle 83" width="3.155" height="48.739" transform="translate(80.835 78.06)" fill="#ea4335" opacity="0.26"/>
        <path id="Path_1402-3" data-name="Path 1402" d="M725.911,280.94H645.52V215.41h.935V280h79.456Z" transform="translate(-633.442 -148.566)" fill="#4285f4"/>
        <path id="Path_1403-3" data-name="Path 1403" d="M769.049,225.465l-2.219-5.9,5.979,1.118Z" transform="translate(-685.544 -150.349)" fill="#4285f4"/>
        <rect id="Rectangle_84-3" data-name="Rectangle 84" width="5.774" height="5.768" transform="translate(11.906 139.91)" fill="#4285f4"/>
        <rect id="Rectangle_85-3" data-name="Rectangle 85" width="5.774" height="5.774" transform="translate(11.906 150.019)" fill="#ea4335"/>
        <rect id="Rectangle_86-3" data-name="Rectangle 86" width="29.924" height="3.281" transform="translate(19.266 152.512)" fill="#bebebe" opacity="0.48"/>
        <rect id="Rectangle_87-3" data-name="Rectangle 87" width="29.924" height="3.281" transform="translate(19.266 142.397)" fill="#bebebe" opacity="0.48"/>
        <path id="Path_1404-3" data-name="Path 1404" d="M661.5,248.274l15.775-11.5,15.216,6.96,15.5-13.669,16.06-6.633" transform="translate(-640.305 -152.015)" fill="none" stroke="#4285f4" stroke-linecap="round" stroke-linejoin="round" stroke-width="1.05"/>
        <path id="Path_1405-3" data-name="Path 1405" d="M1564.364,615.267a3,3,0,1,1-.879-2.128,3,3,0,0,1,.879,2.128Z" transform="translate(-1462.775 -563.417)" fill="none" stroke="#fff" stroke-miterlimit="10" stroke-width="0.91"/>
      </g>
    </g>
  </g>
</svg>
