<svg xmlns="http://www.w3.org/2000/svg" width="67.927" height="70.843" viewBox="0 0 67.927 70.843">
  <g id="Group_4679" data-name="Group 4679" transform="translate(-3672 -1161.643)">
    <g id="share" transform="translate(3672 1161.643)">
      <g id="Group_791" data-name="Group 791" transform="translate(0)">
        <g id="Group_790" data-name="Group 790">
          <path id="Path_1389" data-name="Path 1389" d="M117.985,0H90a4.669,4.669,0,0,0-4.665,4.665V51.31A4.669,4.669,0,0,0,90,55.975h27.987a4.669,4.669,0,0,0,4.665-4.665V4.665A4.669,4.669,0,0,0,117.985,0Zm2.332,51.31a2.335,2.335,0,0,1-2.332,2.332H90a2.335,2.335,0,0,1-2.332-2.332V46.645h32.652V51.31Zm0-7H87.665V4.665A2.335,2.335,0,0,1,90,2.332h27.987a2.335,2.335,0,0,1,2.332,2.332Z" transform="translate(-85.333)" fill="#1a73e8"/>
          <path id="Path_1390" data-name="Path 1390" d="M235.832,45h2.332a1.166,1.166,0,1,0,0-2.332h-2.332a1.166,1.166,0,1,0,0,2.332Z" transform="translate(-218.34 -38.002)" fill="#1a73e8"/>
          <path id="Path_1391" data-name="Path 1391" d="M214.5,450.332h7a1.166,1.166,0,1,0,0-2.332h-7a1.166,1.166,0,1,0,0,2.332Z" transform="translate(-199.339 -399.022)" fill="#1a73e8"/>
          <circle id="Ellipse_178" data-name="Ellipse 178" cx="1.166" cy="1.166" r="1.166" transform="translate(30.32 4.664)" fill="#1a73e8"/>
          <g id="picture" transform="translate(8.418 16.945)">
            <path id="Path_1392" data-name="Path 1392" d="M20.011,3.84a.416.416,0,0,0-.416.416V19.6H.831V.831h19.18a.416.416,0,1,0,0-.831H.416A.416.416,0,0,0,0,.416v19.6a.416.416,0,0,0,.416.416h19.6a.416.416,0,0,0,.416-.416V4.255A.416.416,0,0,0,20.011,3.84Z" transform="translate(0 0)" fill="#1a73e8"/>
            <path id="Path_1393" data-name="Path 1393" d="M33.536,33.12a.416.416,0,0,0-.416.416V45.581a.416.416,0,0,0,.416.416H48.542a.416.416,0,0,0,.416-.416V33.536a.416.416,0,0,0-.416-.416Zm.416.831H48.126v10.6l-4.344-4.344a.415.415,0,0,0-.588,0l-1.2,1.2-2.142-2.142a.415.415,0,0,0-.588,0l-4.122,4.122a.416.416,0,0,0,.588.588l3.828-3.828L41.7,42.288a.415.415,0,0,0,.588,0l1.2-1.2,4.077,4.077H33.951Z" transform="translate(-30.825 -30.825)" fill="#1a73e8"/>
          </g>
        </g>
      </g>
    </g>
    <g id="Group_4675" data-name="Group 4675" transform="translate(3699.971 1174.063)">
      <path id="Path_10726" data-name="Path 10726" d="M12.215,3.06,27.919,4.4c6.632,0,12.009,1.22,12.009,7.87V44.682a12.024,12.024,0,0,1-12.009,12.04h-15.7c-6.632,0-7.909-5.391-7.909-12.04l-1.6-32.416C2.707,5.616,5.583,3.06,12.215,3.06Z" transform="translate(0.029 -0.063)" fill="#fff"/>
      <g id="share-2" data-name="share" transform="translate(2.64 2.448)">
        <g id="Group_791-2" data-name="Group 791" transform="translate(0)">
          <g id="Group_790-2" data-name="Group 790">
            <path id="Path_1389-2" data-name="Path 1389" d="M117.985,0H90a4.669,4.669,0,0,0-4.665,4.665V51.31A4.669,4.669,0,0,0,90,55.975h27.987a4.669,4.669,0,0,0,4.665-4.665V4.665A4.669,4.669,0,0,0,117.985,0Zm2.332,51.31a2.335,2.335,0,0,1-2.332,2.332H90a2.335,2.335,0,0,1-2.332-2.332V46.645h32.652V51.31Zm0-7H87.665V4.665A2.335,2.335,0,0,1,90,2.332h27.987a2.335,2.335,0,0,1,2.332,2.332Z" transform="translate(-85.333)" fill="#1a73e8"/>
            <path id="Path_1390-2" data-name="Path 1390" d="M235.832,45h2.332a1.166,1.166,0,1,0,0-2.332h-2.332a1.166,1.166,0,1,0,0,2.332Z" transform="translate(-218.34 -38.002)" fill="#1a73e8"/>
            <path id="Path_1391-2" data-name="Path 1391" d="M214.5,450.332h7a1.166,1.166,0,1,0,0-2.332h-7a1.166,1.166,0,1,0,0,2.332Z" transform="translate(-199.339 -399.022)" fill="#1a73e8"/>
            <circle id="Ellipse_178-2" data-name="Ellipse 178" cx="1.166" cy="1.166" r="1.166" transform="translate(30.32 4.664)" fill="#1a73e8"/>
            <g id="picture-2" data-name="picture" transform="translate(8.418 16.945)">
              <path id="Path_1392-2" data-name="Path 1392" d="M20.011,3.84a.416.416,0,0,0-.416.416V19.6H.831V.831h19.18a.416.416,0,1,0,0-.831H.416A.416.416,0,0,0,0,.416v19.6a.416.416,0,0,0,.416.416h19.6a.416.416,0,0,0,.416-.416V4.255A.416.416,0,0,0,20.011,3.84Z" transform="translate(0 0)" fill="#1a73e8"/>
              <path id="Path_1393-2" data-name="Path 1393" d="M33.536,33.12a.416.416,0,0,0-.416.416V45.581a.416.416,0,0,0,.416.416H48.542a.416.416,0,0,0,.416-.416V33.536a.416.416,0,0,0-.416-.416Zm.416.831H48.126v10.6l-4.344-4.344a.415.415,0,0,0-.588,0l-1.2,1.2-2.142-2.142a.415.415,0,0,0-.588,0l-4.122,4.122a.416.416,0,0,0,.588.588l3.828-3.828L41.7,42.288a.415.415,0,0,0,.588,0l1.2-1.2,4.077,4.077H33.951Z" transform="translate(-30.825 -30.825)" fill="#1a73e8"/>
            </g>
          </g>
        </g>
      </g>
    </g>
  </g>
</svg>
