<svg xmlns="http://www.w3.org/2000/svg" width="375.507" height="376.481" viewBox="0 0 375.507 376.481">
  <g id="Group_5760" data-name="Group 5760" transform="translate(-206.547 -1367)">
    <path id="floor" d="M187.754-3.1C291.447-3.1,375.507,10,375.507,19.241s-84.06,23.642-187.754,23.642S0,28.483,0,19.241,84.06-3.1,187.754-3.1Z" transform="translate(206.547 1700.598)" fill="#eff6ff"/>
    <g id="Group_5759" data-name="Group 5759" transform="translate(-10926 2092)">
      <path id="Rectangle_1012" data-name="Rectangle 1012" d="M20.4,0H155.032a20.661,20.661,0,0,1,20.4,20.907V342.156a20.661,20.661,0,0,1-20.4,20.907H20.4A20.661,20.661,0,0,1,0,342.155V20.907A20.661,20.661,0,0,1,20.4,0Z" transform="translate(11237.306 -725)" fill="#213458"/>
      <path id="Path_11118" data-name="Path 11118" d="M17.915,0H155.743a17.916,17.916,0,0,1,17.916,17.916V340.908a17.915,17.915,0,0,1-17.915,17.915H17.915A17.915,17.915,0,0,1,0,340.908V17.915A17.915,17.915,0,0,1,17.915,0Z" transform="translate(11235.101 -720.761)" fill="#4285f4" stroke="#34a853" stroke-width="0.2"/>
      <path id="Path_11117" data-name="Path 11117" d="M1.568,0h152.76A1.568,1.568,0,0,1,155.9,1.568v279.8a1.568,1.568,0,0,1-1.568,1.568H1.568A1.568,1.568,0,0,1,0,281.363V1.568A1.568,1.568,0,0,1,1.568,0Z" transform="translate(11244.164 -684.558)" fill="#fff" stroke="#d5d5d5" stroke-width="0.2"/>
      <path id="Path_7953" data-name="Path 7953" d="M9.982,3.847A1.923,1.923,0,1,1,9.982,0H45.609a1.923,1.923,0,1,1,0,3.847ZM3.563,0a1.923,1.923,0,1,1,0,3.847H1.924A1.923,1.923,0,1,1,1.924,0Z" transform="translate(11298.163 -701.845)" fill="#fff" fill-rule="evenodd"/>
      <path id="Path_7954" data-name="Path 7954" d="M12.585,25.169A12.584,12.584,0,1,0,0,12.585,12.584,12.584,0,0,0,12.585,25.169Z" transform="translate(11309.346 -395.083)" fill="#fff" fill-rule="evenodd"/>
      <g id="Group_1705" data-name="Group 1705" transform="translate(11253.931 -677.197)">
        <path id="Path_7967" data-name="Path 7967" d="M.465.936A.468.468,0,1,1,.465,0H10.7a.468.468,0,0,1,0,.936Zm0,6.722a.466.466,0,0,1,0-.932H10.7a.466.466,0,0,1,0,.932Zm0-3.361a.468.468,0,1,1,0-.936H10.7a.468.468,0,0,1,0,.936Z" transform="translate(0.003 0)" fill="#4285f4" fill-rule="evenodd"/>
        <path id="Path_7968" data-name="Path 7968" d="M13.725.418ZM1.419.932H7.428V5.769H1.419a.471.471,0,0,1-.341-.142.479.479,0,0,1-.147-.341V1.419A.488.488,0,0,1,1.419.932ZM12.722,0H1.419A1.424,1.424,0,0,0,0,1.419V5.286A1.424,1.424,0,0,0,1.419,6.7h11.3a1.416,1.416,0,0,0,.971-.388l.032-.029a1.419,1.419,0,0,0,.416-1V1.419A1.422,1.422,0,0,0,12.722,0Z" transform="translate(121.857 0.477)" fill="#4285f4" fill-rule="evenodd"/>
      </g>
    </g>
    <path id="Path_5823" data-name="Path 5823" d="M5528.48,1389.444h0a2.726,2.726,0,0,1-2.729-2.721v-15.552a2.725,2.725,0,0,1,2.73-2.721h0a2.724,2.724,0,0,1,2.729,2.721v15.552A2.726,2.726,0,0,1,5528.48,1389.444Z" transform="translate(-5161.22 68.517)" fill="#19203a"/>
    <path id="Path_5824" data-name="Path 5824" d="M5528.48,1637.054h0a2.725,2.725,0,0,1-2.729-2.721v-15.552a2.726,2.726,0,0,1,2.729-2.721h0a2.726,2.726,0,0,1,2.729,2.721v15.552a2.724,2.724,0,0,1-2.729,2.721Z" transform="translate(-5161.22 -155.231)" fill="#19203a"/>
    <path id="Path_5825" data-name="Path 5825" d="M5001.909,1177v249.968h139.8V1177a16.556,16.556,0,0,0-2.84-9.32H5004.749A16.556,16.556,0,0,0,5001.909,1177Z" transform="translate(-4677.49 252.329)" fill="#fff"/>
    <line id="Line_307" data-name="Line 307" x1="71" y1="7" transform="translate(262.5 1526.5)" fill="none" stroke="#4285f4" stroke-width="0.7"/>
    <line id="Line_308" data-name="Line 308" x1="83" y1="43" transform="translate(249.5 1490.5)" fill="none" stroke="#4285f4" stroke-width="0.7"/>
    <line id="Line_309" data-name="Line 309" x2="67" y2="94" transform="translate(267.5 1440.5)" fill="none" stroke="#4285f4" stroke-width="0.7"/>
    <path id="Path_5829" data-name="Path 5829" d="M5101.11,2008.615a.305.305,0,0,1-.264-.2l-15.521-38.244a.354.354,0,0,1,.153-.445.294.294,0,0,1,.4.169l15.126,37.274,7.006-40.125a.305.305,0,0,1,.121-.209.309.309,0,0,1,.235-.057.336.336,0,0,1,.24.395l-7.187,41.169a.318.318,0,0,1-.263.27A.218.218,0,0,1,5101.11,2008.615Z" transform="translate(-4766.027 -472.029)" fill="#4285f4"/>
    <path id="Path_5830" data-name="Path 5830" d="M5247.43,2637.667c-.048-1.564-.238-4.153-2.125-4.035a71.477,71.477,0,0,0-9.938,2.252c-1.777.713-1.035,3.176-.525,4.635a8.829,8.829,0,0,0,2.248,4.008l9.688-2.2A9.464,9.464,0,0,0,5247.43,2637.667Z" transform="translate(-4899.958 -1074.815)" fill="#222b54" fill-rule="evenodd"/>
    <path id="Path_5831" data-name="Path 5831" d="M5343.884,2628.04c.951.761,1.333,3.891.843,5.018-.413.951-15.669,3.721-18,4.25-2.093-1.967-2.683-5.539,1.126-8.9C5328.179,2628.119,5342.378,2626.834,5343.884,2628.04Z" transform="translate(-4980.588 -1069.315)" fill="#222b54" fill-rule="evenodd"/>
    <line id="Line_306" data-name="Line 306" x1="53" y2="20" transform="translate(281.5 1533.5)" fill="none" stroke="#4285f4" stroke-width="0.7"/>
    <path id="Path_5832" data-name="Path 5832" d="M5477.721,2846.134l2.7-.914a15.557,15.557,0,0,1-.947,4.605C5479.067,2850.5,5478.354,2848.819,5477.721,2846.134Z" transform="translate(-5118.502 -1266.074)" fill="#f7b690"/>
    <path id="Path_5833" data-name="Path 5833" d="M5473.108,2633.619c.479-2.7,2.463-3.867,3.348-3.674,1.5.327,2.43,1.807,1.975,4.367-.578,3.253-2.126,11.382-2.706,16.448l-2.9.56C5471.871,2647.281,5472.405,2637.571,5473.108,2633.619Z" transform="translate(-5113.368 -1071.386)" fill="#222b54" fill-rule="evenodd"/>
    <path id="Path_5834" data-name="Path 5834" d="M5465.25,2861.262a6.769,6.769,0,0,1,.868-1.675c.226-.184.523-.458.826-.389.344.077.468.542.716.773a1.425,1.425,0,0,0,.65.348l.274-.748c1.667.333.935,2.592,2.614,2.949a4.755,4.755,0,0,1,1.205.3,1.01,1.01,0,0,1,.57,1.085.774.774,0,0,1-.27.4l-5.423-1.2s-.285-1.07-.173-1.232a3.165,3.165,0,0,1-.657.481Z" transform="translate(-5106.928 -1278.693)" fill="#0a3c5f" fill-rule="evenodd"/>
    <path id="Path_5835" data-name="Path 5835" d="M5279.4,2667.942c.505,1.166-.508,4.121-1.422,4.851-.773.622-15.371-5.013-17.65-5.783-.99-2.833-.36-7.566,4.433-8.505C5265.177,2658.427,5278.6,2666.084,5279.4,2667.942Z" transform="translate(-4922.395 -1097.268)" fill="#0a3c5f" fill-rule="evenodd"/>
    <path id="Path_5836" data-name="Path 5836" d="M5324.634,2928.91l2.765.623a13.855,13.855,0,0,1-2.815,3.546C5323.94,2933.457,5324.032,2931.6,5324.634,2928.91Z" transform="translate(-4981.118 -1341.709)" fill="#f7b690"/>
    <path id="Path_5837" data-name="Path 5837" d="M5337.213,2749.5c1.585-2.121,3.829-2.1,4.521-1.463,1.179,1.082,1.361,2.879-.141,4.887-1.909,2.552-6.771,8.879-9.463,13.024l-2.791-1.046C5330.242,2760.853,5334.894,2752.6,5337.213,2749.5Z" transform="translate(-4984.956 -1177.804)" fill="#0a3c5f" fill-rule="evenodd"/>
    <path id="Path_5838" data-name="Path 5838" d="M5307.109,2935.212c.1-.037,1.008-.94,1.485-1.013.277-.043.657-.127.894.095.268.25.177.725.294,1.058a1.676,1.676,0,0,0,.423.65l.563-.513c1.322,1.175-.294,2.772,1.026,3.975a5.393,5.393,0,0,1,.931.9,1.082,1.082,0,0,1,.037,1.258.667.667,0,0,1-.41.209l-4.245-3.919s.213-1.09.38-1.174a2.85,2.85,0,0,1-.783.076Z" transform="translate(-4965.687 -1346.412)" fill="#0a3c5f" fill-rule="evenodd"/>
    <path id="Path_5839" data-name="Path 5839" d="M5354.339,2430.912a34.752,34.752,0,0,0,6.772,4.955c.656.366,1.471.7,2.087.257a2.221,2.221,0,0,0,.38-2.584c-1.047-2.3-3.691-5.2-6.043-7.56Z" transform="translate(-5007.623 -887.173)" fill="#f4a086"/>
    <path id="Path_5840" data-name="Path 5840" d="M5305.3,2373.239c-1.459-1.438-4.87-5.387-7.065-3.89-2.568,1.75,0,5.717,1.319,7.275a36.71,36.71,0,0,0,2.974,3.121l3.652-5.632Z" transform="translate(-4956.518 -835.693)" fill="#009e7f" fill-rule="evenodd"/>
    <path id="Path_5841" data-name="Path 5841" d="M5418.319,2350.152c.2-.545.5-1.17,1.028-1.246.779-.111,1.178,1,1.268,1.867a36.036,36.036,0,0,1-1.185,13.554c-.69,2.413-1.559,2.736-3.566,1.542C5413.651,2364.554,5417.041,2353.552,5418.319,2350.152Z" transform="translate(-5062.29 -817.468)" fill="#f7b690"/>
    <path id="Path_5842" data-name="Path 5842" d="M5446.362,2317.111a2.307,2.307,0,0,0-.862-.951l-1.483-1.1c-.2-.147-.464-.3-.66-.145a.5.5,0,0,0-.029.638,1.19,1.19,0,0,0,.545.364.818.818,0,0,0-.476.915l.607.424a1.868,1.868,0,0,0-.075,1.567c.216.856.645,1.884,1.452,1.074C5445.97,2319.309,5446.71,2318.012,5446.362,2317.111Z" transform="translate(-5087.612 -786.778)" fill="#f7b690"/>
    <path id="Path_5843" data-name="Path 5843" d="M5169.782,2389.951a21.134,21.134,0,0,1-3.548-15.439c.245-1.851.571-4.051-.667-5.327-1.046-1.082-2.7-.893-4.1-.556a43.279,43.279,0,0,0-7.083,2.428c-1.382.6-5.554,1.208-6.521,2.538-2.606,3.58,2.274,9.774,3.377,13.5.886,2.993,4.216,11.932,4.354,12.09l15.76-5.979C5171.7,2392.09,5170.619,2391.154,5169.782,2389.951Z" transform="translate(-4821.177 -834.966)" fill="#00b793" fill-rule="evenodd"/>
    <path id="Path_5844" data-name="Path 5844" d="M5203.47,2483.162a34.766,34.766,0,0,0,6.772,4.956c.657.366,1.472.7,2.085.257a2.216,2.216,0,0,0,.381-2.584c-1.046-2.3-3.691-5.2-6.043-7.56Z" transform="translate(-4872.738 -934.389)" fill="#f7b690"/>
    <path id="Path_5845" data-name="Path 5845" d="M5154.431,2425.483c-1.46-1.439-4.87-5.387-7.066-3.89-2.568,1.751,0,5.718,1.319,7.276a36.587,36.587,0,0,0,2.974,3.12l3.652-5.632Q5154.87,2425.916,5154.431,2425.483Z" transform="translate(-4821.628 -882.904)" fill="#00b793" fill-rule="evenodd"/>
    <path id="Path_5846" data-name="Path 5846" d="M5267.458,2402.4c.206-.545.5-1.17,1.027-1.246.781-.112,1.179,1,1.269,1.866a36.037,36.037,0,0,1-1.186,13.554c-.689,2.414-1.558,2.736-3.565,1.542C5262.79,2416.8,5266.179,2405.8,5267.458,2402.4Z" transform="translate(-4927.395 -864.684)" fill="#f7b690"/>
    <path id="Path_5847" data-name="Path 5847" d="M5296.161,2365.761a2.542,2.542,0,0,1,.457-1.247l.974-1.659c.13-.222.321-.476.556-.42.21.051.309.344.253.571a1.335,1.335,0,0,1-.374.571.736.736,0,0,1,.761.635l-.408.654c.442.239.56.866.625,1.408.1.881.075,2.013-.952,1.617C5297.3,2367.612,5296.16,2366.742,5296.161,2365.761Z" transform="translate(-4956.126 -829.772)" fill="#f7b690"/>
    <path id="Path_5848" data-name="Path 5848" d="M5215.381,2335.723a3.233,3.233,0,0,0-4.171.059c1.521,2.938,1.585,3.139,1.176,5.338.6,1.738,4.281.781,4.46-.239C5216.63,2338.924,5216.218,2336.333,5215.381,2335.723Z" transform="translate(-4879.952 -804.978)" fill="#f4a086"/>
    <path id="Path_5849" data-name="Path 5849" d="M5254.354,2295a1.721,1.721,0,0,1,.71.988,2.091,2.091,0,0,1-.141.969l-.381,1.216a5.221,5.221,0,0,1-.628-1.472,2.753,2.753,0,0,0-.8-1.346c-.251-.19-.588-.331-.666-.658a.449.449,0,0,1,.666-.518A9.485,9.485,0,0,1,5254.354,2295Z" transform="translate(-4917.041 -768.047)" fill="#222b56" fill-rule="evenodd"/>
    <path id="Path_5850" data-name="Path 5850" d="M5220.3,2297.955a2.408,2.408,0,0,1,4.246-.45c1.094,1.5,1.047,5.3.571,6.208-.834,1.593-3.507.713-4.042-.179C5220.292,2302.228,5219.649,2299.456,5220.3,2297.955Z" transform="translate(-4887.858 -770.115)" fill="#f7b690"/>
    <path id="Path_5851" data-name="Path 5851" d="M5206.83,2312.342a25.817,25.817,0,0,1,.215,4.017c-.353-.063-.979-.975-1.577-.779-.19.063-.429.272-.528-.156-.625-2.713-.693-2.549-.309-2.913C5205.482,2311.712,5206.606,2311.89,5206.83,2312.342Z" transform="translate(-4874.08 -784.171)" fill="#222b56" fill-rule="evenodd"/>
    <path id="Path_5852" data-name="Path 5852" d="M5209.029,2337.714a1.823,1.823,0,0,0,.6,1.148c.929.792,1.371-.721,1.029-1.5C5210.253,2336.428,5208.878,2336.491,5209.029,2337.714Z" transform="translate(-4878.282 -806.562)" fill="#f7b690"/>
    <path id="Path_5853" data-name="Path 5853" d="M5204.456,2282.676a4.426,4.426,0,0,1,1.458.752,4.243,4.243,0,0,0-2.093-2.5.143.143,0,0,0-.07.113.145.145,0,0,0,.054.122l-1.305-.441c.009.112.018.224.028.338a2.57,2.57,0,0,0-1.569-.476q.018.191.036.38a3.778,3.778,0,0,0-2.324,1.337,1.224,1.224,0,0,0-.347.79c.009.3.286.594.541.482a1.936,1.936,0,0,0-.25,1.678.666.666,0,0,1,.4-.549l.278-.31a3.581,3.581,0,0,1,1.63-.206c.155.024.337.047.443-.082.122-.149-.261-1.113-.125-1.133a30.784,30.784,0,0,0,2.893,1.225c.221-.1.277-.392.286-.646A5.643,5.643,0,0,0,5204.456,2282.676Z" transform="translate(-4868.281 -755.82)" fill="#222b56" fill-rule="evenodd"/>
    <path id="Path_5854" data-name="Path 5854" d="M5452.979,1999.779a.314.314,0,0,1-.043-.006.336.336,0,0,1-.243-.393l6.424-38.321a.305.305,0,0,1,.353-.269.336.336,0,0,1,.244.393l-6.427,38.321A.313.313,0,0,1,5452.979,1999.779Z" transform="translate(-5095.756 -466.634)" fill="#4285f4"/>
    <path id="Path_5855" data-name="Path 5855" d="M5312.792,2068.848a.321.321,0,0,1-.29-.332l-.4-33.265a.322.322,0,0,1,.3-.34.331.331,0,0,1,.308.332l.4,33.265a.323.323,0,0,1-.3.341Z" transform="translate(-4970.527 -533.641)" fill="#4285f4"/>
    <path id="Path_5856" data-name="Path 5856" d="M2005.588,975.506,1830.86,952.4l17.446-31.352Z" transform="translate(-1552.166 537.939)" fill="#fbbc05"/>
    <g id="Group_689" data-name="Group 689" transform="translate(279.472 1460.267)" opacity="0.5">
      <path id="Path_5857" data-name="Path 5857" d="M3486.57,1433.23l-.482-.065-1.449-1.1-.515.837-.252-.033.583-.944-4.474-3.389.732.254,3.868,2.929.809-1.31.223.077-.846,1.373Z" transform="translate(-3323.872 -1381.533)" fill="#376b68"/>
      <path id="Path_5859" data-name="Path 5859" d="M3433.24,1425.11l2.425-3.93.225.078-2.4,3.885Z" transform="translate(-3281.579 -1374.873)" fill="#376b68"/>
    </g>
    <path id="Path_5860" data-name="Path 5860" d="M2103.486,481.5,1939.05,375.11l14.306,103.874Z" transform="translate(-1650.064 1030.661)" fill="#fbbc05"/>
    <path id="Path_5861" data-name="Path 5861" d="M2005.588,836.392l-155.594-42.2-19.133,19.093,15.431-45.978Z" transform="translate(-1552.166 676.902)" fill="#799ea8"/>
    <g id="Group_690" data-name="Group 690" transform="translate(289.009 1405.906)" opacity="0.33">
      <path id="Path_5863" data-name="Path 5863" d="M3617.583,1467.15l.25.162.281,2,2.224-.383.309.2-2.5.429.006.038-1.544-.026,1.282-.22Z" transform="translate(-3457.041 -1363.396)" fill="#376b68"/>
      <path id="Path_5864" data-name="Path 5864" d="M1939.29,376.562l.185-.032.308.2-.459.079Z" transform="translate(-1939.29 -376.53)" fill="#376b68"/>
    </g>
    <path id="Path_5865" data-name="Path 5865" d="M2005.588,836.392l-155.594-42.2-19.133,19.093,15.431-45.978Z" transform="translate(-1552.166 676.902)" fill="#dfa403"/>
    <path id="Path_5868" data-name="Path 5868" d="M2781.8,1081.861l13.145-2.891.228,1.274-11.348,2.5Z" transform="translate(-2422.26 395.023)" fill="#ea4335"/>
    <path id="Path_5869" data-name="Path 5869" d="M5360.572,1597.728a2.193,2.193,0,0,1-1.555,2.576l-21.3,4.684a2,2,0,0,1-2.326-1.723,2.192,2.192,0,0,1,1.556-2.576l21.3-4.685A1.992,1.992,0,0,1,5360.572,1597.728Z" transform="translate(-4989.309 -137.113)" fill="#f7f6f0"/>
    <path id="Path_5870" data-name="Path 5870" d="M5119.21,1451.8l39.405-8.667a2,2,0,0,1,2.325,1.723,2.192,2.192,0,0,1-1.555,2.576l-39.405,8.668a2,2,0,0,1-2.325-1.723A2.193,2.193,0,0,1,5119.21,1451.8Z" transform="translate(-4793.187 1.042)" fill="#f7f6f0"/>
    <path id="Path_5871" data-name="Path 5871" d="M5132.912,1528.243l39.405-8.667a2,2,0,0,1,2.326,1.723,2.194,2.194,0,0,1-1.555,2.576l-38.019,8.361-3.739-1.617A2.175,2.175,0,0,1,5132.912,1528.243Z" transform="translate(-4805.422 -68.035)" fill="#f7f6f0"/>
    <path id="Path_5872" data-name="Path 5872" d="M5145.718,1371.005l-39.406,8.667a1.994,1.994,0,0,1-2.324-1.723,2.194,2.194,0,0,1,1.554-2.576l39.405-8.667a2,2,0,0,1,2.325,1.723A2.2,2.2,0,0,1,5145.718,1371.005Z" transform="translate(-4780.984 70.109)" fill="#f7f6f0"/>
    <path id="Path_5873" data-name="Path 5873" d="M5616.008,1290.2a43.689,43.689,0,0,1,4.614,7.938l-3.036.291a54.518,54.518,0,0,0-3.445-8.044Z" transform="translate(-5240.166 139.195)" fill="#f7f6f0"/>
    <path id="Path_5874" data-name="Path 5874" d="M5563.32,1301.565l1.869-.185a44,44,0,0,1,4.582,7.945l-3.005.285A54.35,54.35,0,0,0,5563.32,1301.565Z" transform="translate(-5194.727 129.092)" fill="#f7f6f0"/>
    <path id="Path_5875" data-name="Path 5875" d="M4879.847,1218.336l70.926-15.6c3.711-.816,7.313,1.854,8.05,5.964l6.326,35.3c.738,4.11-1.674,8.1-5.382,8.919l-15.187,3.34-.229-1.274-13.146,2.893-1.555.342,1.379,1.021-25,5.5-26.119-7.084-4.28-23.878-1.17-6.525C4873.727,1223.145,4876.138,1219.151,4879.847,1218.336Zm59.648,1.626a2,2,0,0,0-2.325-1.723l-39.405,8.667a2.194,2.194,0,0,0-1.555,2.576,2,2,0,0,0,2.326,1.723l39.405-8.667a2.194,2.194,0,0,0,1.553-2.576Zm-41.985,16.792a2,2,0,0,0,2.326,1.723l39.4-8.667a2.193,2.193,0,0,0,1.556-2.576,2,2,0,0,0-2.325-1.723l-39.405,8.668A2.2,2.2,0,0,0,4897.51,1236.754Zm53.679-17.894a43.691,43.691,0,0,0-4.613-7.938l-1.868.19a54.519,54.519,0,0,1,3.445,8.043Zm-4.865,1.07a43.971,43.971,0,0,0-4.582-7.945l-1.868.185a54.309,54.309,0,0,1,3.444,8.044Zm-4.477,24.422a2.193,2.193,0,0,0,1.555-2.576,2,2,0,0,0-2.325-1.723l-21.3,4.684a2.193,2.193,0,0,0-1.556,2.576,2,2,0,0,0,2.325,1.723Zm-42.112,14.735a54.608,54.608,0,0,1-3.443-8.043l-3,.285a44.04,44.04,0,0,0,4.581,7.946Zm-6.7,1.248,1.868-.186a54.591,54.591,0,0,1-3.445-8.043l-3.036.292A43.315,43.315,0,0,0,4893.039,1260.335Zm5.78-16.311a2,2,0,0,0,2.325,1.723l1.387-.306,38.018-8.361a2.2,2.2,0,0,0,1.556-2.576,2,2,0,0,0-2.326-1.723l-39.405,8.667a2.174,2.174,0,0,0-1.582,2.373,1.462,1.462,0,0,0,.024.2Z" transform="translate(-4571.361 218.499)" fill="#ea4335"/>
    <path id="Path_5876" data-name="Path 5876" d="M2793.49,1092.36l1.441,8.042,1.249,6.97-16.24-12.032,2.2-.484Z" transform="translate(-2420.345 382.97)" fill="#ea4335"/>
    <path id="Path_5877" data-name="Path 5877" d="M2766.838,1110.723l-1.377-1.021,1.555-.342,2.025.879Z" transform="translate(-2408.481 367.55)" fill="#ea4335"/>
    <path id="Path_5878" data-name="Path 5878" d="M5133.782,1637.946a2,2,0,0,1-2.325-1.723c-.013-.068-.021-.136-.027-.2l3.739,1.617Z" transform="translate(-4808.754 -173.338)" fill="#f7f6f0"/>
    <path id="Path_5879" data-name="Path 5879" d="M5076.625,1711.94a54.413,54.413,0,0,0,3.444,8.044l-1.868.19a43.928,43.928,0,0,1-4.582-7.946Z" transform="translate(-4756.865 -241.923)" fill="#f7f6f0"/>
    <path id="Path_5880" data-name="Path 5880" d="M5028.952,1731.153l-1.868.185a43.733,43.733,0,0,1-4.613-7.937l3.036-.292A54.123,54.123,0,0,0,5028.952,1731.153Z" transform="translate(-4711.128 -252.017)" fill="#f7f6f0"/>
    <rect id="Rectangle_319" data-name="Rectangle 319" width="84.543" height="22.176" rx="7.56" transform="translate(372.112 1573.375)" fill="#34a853"/>
    <path id="Path_5881" data-name="Path 5881" d="M3461.513,2280.916l-5.087,15.773-9.8-16.149Z" transform="translate(-3014.223 -690.724)" fill="#34a853"/>
    <rect id="Rectangle_320" data-name="Rectangle 320" width="9.321" height="3.042" rx="1.2" transform="translate(377.654 1579.074)" fill="#fff"/>
    <rect id="Rectangle_321" data-name="Rectangle 321" width="20.704" height="3.042" rx="1.2" transform="translate(396.481 1579.074)" fill="#fff"/>
    <rect id="Rectangle_322" data-name="Rectangle 322" width="26.395" height="3.042" rx="1.2" transform="translate(418.605 1579.074)" fill="#fff"/>
    <rect id="Rectangle_323" data-name="Rectangle 323" width="37.778" height="3.041" rx="1.2" transform="translate(386.074 1586.087)" fill="#fff"/>
    <rect id="Rectangle_324" data-name="Rectangle 324" width="9.32" height="3.041" rx="1.2" transform="translate(425.273 1586.087)" fill="#fff"/>
    <rect id="Rectangle_325" data-name="Rectangle 325" width="84.543" height="22.176" rx="7.56" transform="translate(332.736 1610.221)" fill="#fbbc05"/>
    <path id="Path_5882" data-name="Path 5882" d="M2497.37,2663.236l5.087,15.773,9.8-16.149Z" transform="translate(-2159.88 -1036.207)" fill="#fbbc05"/>
    <rect id="Rectangle_326" data-name="Rectangle 326" width="15.012" height="3.041" rx="1.2" transform="translate(336.02 1613.277)" fill="#fff"/>
    <rect id="Rectangle_327" data-name="Rectangle 327" width="9.32" height="3.041" rx="1.2" transform="translate(353.867 1613.277)" fill="#fff"/>
    <rect id="Rectangle_328" data-name="Rectangle 328" width="32.087" height="3.041" rx="1.2" transform="translate(367.952 1613.277)" fill="#fff"/>
    <rect id="Rectangle_329" data-name="Rectangle 329" width="37.778" height="3.041" rx="1.2" transform="translate(338.372 1620.291)" fill="#fff"/>
    <rect id="Rectangle_330" data-name="Rectangle 330" width="9.32" height="3.041" rx="1.2" transform="translate(379.592 1620.291)" fill="#fff"/>
    <rect id="Rectangle_331" data-name="Rectangle 331" width="9.32" height="3.041" rx="1.2" transform="translate(398.221 1620.291)" fill="#fff"/>
    <rect id="Rectangle_332" data-name="Rectangle 332" width="84.543" height="22.176" rx="7.56" transform="translate(372.112 1641.233)" fill="#34a853"/>
    <path id="Path_5883" data-name="Path 5883" d="M3461.513,2980.586l-5.087,15.773-9.8-16.149Z" transform="translate(-3014.223 -1322.693)" fill="#34a853"/>
    <rect id="Rectangle_333" data-name="Rectangle 333" width="15.012" height="3.042" rx="1.2" transform="translate(379.411 1651.355)" fill="#fff"/>
    <rect id="Rectangle_334" data-name="Rectangle 334" width="15.012" height="3.042" rx="1.2" transform="translate(403.276 1651.355)" fill="#fff"/>
    <rect id="Rectangle_335" data-name="Rectangle 335" width="26.395" height="3.042" rx="1.2" transform="translate(419.71 1651.355)" fill="#fff"/>
    <rect id="Rectangle_336" data-name="Rectangle 336" width="20.704" height="3.042" rx="1.2" transform="translate(380.328 1644.426)" fill="#fff"/>
    <rect id="Rectangle_337" data-name="Rectangle 337" width="26.395" height="3.042" rx="1.2" transform="translate(409.302 1644.426)" fill="#fff"/>
    <rect id="Rectangle_338" data-name="Rectangle 338" width="9.32" height="3.042" rx="1.2" transform="translate(437.118 1644.426)" fill="#fff"/>
    <g id="Group_5755" data-name="Group 5755" transform="translate(70 56)">
      <path id="Path_5884" data-name="Path 5884" d="M3700.948,1042.206a5.708,5.708,0,1,0-5.708-5.708A5.708,5.708,0,0,0,3700.948,1042.206Z" transform="translate(-3524.242 373.196)" fill="none"/>
      <path id="Path_5885" data-name="Path 5885" d="M3641.74,1118.664h5.861a3.142,3.142,0,1,0-5.861,0Z" transform="translate(-3476.574 297.549)" fill="none"/>
      <path id="Path_5886" data-name="Path 5886" d="M3535.558,1042.206a5.708,5.708,0,1,0-5.708-5.708A5.708,5.708,0,0,0,3535.558,1042.206Z" transform="translate(-3376.385 373.196)" fill="none"/>
      <path id="Path_5887" data-name="Path 5887" d="M3529.82,1200.588h29V1185.31h-29Z" transform="translate(-3375.875 233.376)" fill="none"/>
      <rect id="Rectangle_339" data-name="Rectangle 339" width="6.071" height="3.771" transform="translate(161.365 1424.938)" fill="#fbbc05"/>
      <path id="Path_5888" data-name="Path 5888" d="M1170.21,519.171l7.218,3.724V506.85l-7.218,3.723Z" transform="translate(-981.832 911.454)" fill="#fbbc05"/>
      <path id="Path_5889" data-name="Path 5889" d="M3581.027,1233.72h8.545a1.236,1.236,0,0,0,1.236-1.237v-6.246a1.236,1.236,0,0,0-1.236-1.237h-8.545a1.237,1.237,0,0,0-1.237,1.237v6.244a1.237,1.237,0,0,0,1.237,1.24Zm1.237-6.245h6.072v3.771h-6.072Z" transform="translate(-3421.042 197.462)" fill="#4285f4"/>
      <path id="Path_5890" data-name="Path 5890" d="M3546.852,1018.4a1.237,1.237,0,0,0-1.21-.043l-7.888,4.069v-1.793a1.236,1.236,0,0,0-1.237-1.237h-3.852a204.442,204.442,0,0,1-20.422-14.707,8.181,8.181,0,0,0-5.18,14.707h-2.011a1.237,1.237,0,0,0-1.237,1.237v17.75a1.237,1.237,0,0,0,1.237,1.237h31.47a1.237,1.237,0,0,0,1.237-1.237v-1.793l7.888,4.069a1.237,1.237,0,0,0,1.8-1.1v-20.1A1.237,1.237,0,0,0,3546.852,1018.4Zm-19.122-11.236a5.708,5.708,0,1,1-5.708,5.708,5.708,5.708,0,0,1,5.708-5.708Zm-4.937,12.232h-5.861a3.142,3.142,0,1,1,5.86,0Zm-16.508-6.522a5.708,5.708,0,1,1,5.708,5.708,5.708,5.708,0,0,1-5.708-5.708Zm29,11.582v12.691h-29v-15.276h29Zm9.69,13.074-7.218-3.722v-8.6l7.218-3.723Z" transform="translate(-3352.208 396.821)" fill="#4285f4"/>
    </g>
    <g id="Group_5757" data-name="Group 5757" transform="translate(16 -9)">
      <ellipse id="Ellipse_205" data-name="Ellipse 205" cx="12.091" cy="3.335" rx="12.091" ry="3.335" transform="translate(229.477 1531.598)" fill="#34a853"/>
      <path id="Path_5891" data-name="Path 5891" d="M2750.012,676.656h0a7.578,7.578,0,0,0-10.718,0h0a8.693,8.693,0,0,0-.7,10.705l6.063,8.752,6.063-8.752A8.688,8.688,0,0,0,2750.012,676.656Zm-5.284,7.787a2.5,2.5,0,1,1,2.5-2.5,2.5,2.5,0,0,1-2.5,2.5Z" transform="translate(-2503.158 839.649)" fill="#fbbc05"/>
    </g>
    <g id="Group_5758" data-name="Group 5758">
      <path id="Path_5892" data-name="Path 5892" d="M427.949,220.2l-6.214-6.213H409.75v23.524h18.2Z" transform="translate(-133.266 1330.479)" fill="#34a853"/>
      <path id="Path_5893" data-name="Path 5893" d="M378.4,182.639h11.984l3.995,3.995V180.42h-18.2v23.524H378.4Z" transform="translate(-101.916 1361.829)" fill="#4285f4"/>
      <path id="Path_5894" data-name="Path 5894" d="M3147.825,1016.863h11.1a.444.444,0,1,0,0-.888h-11.1a.444.444,0,0,0,0,.888Z" transform="translate(-2867.791 536.926)" fill="#fff"/>
      <path id="Path_5895" data-name="Path 5895" d="M3147.827,963.158h4.438a.444.444,0,0,0,0-.888h-4.438a.444.444,0,0,0,0,.888Z" transform="translate(-2867.792 587.081)" fill="#fff"/>
      <path id="Path_5896" data-name="Path 5896" d="M3158.689,1069.69h-11.1a.444.444,0,1,0,0,.887h11.1a.444.444,0,1,0,0-.887Z" transform="translate(-2867.558 486.763)" fill="#fff"/>
      <path id="Path_5897" data-name="Path 5897" d="M3158.922,1123.385h-11.1a.444.444,0,0,0,0,.888h11.1a.444.444,0,1,0,0-.888Z" transform="translate(-2867.791 436.618)" fill="#fff"/>
      <path id="Path_5898" data-name="Path 5898" d="M3158.922,1177.095h-11.1a.444.444,0,0,0,0,.888h11.1a.444.444,0,1,0,0-.888Z" transform="translate(-2867.791 386.459)" fill="#fff"/>
      <path id="Path_5899" data-name="Path 5899" d="M591.02,213.99V220.2h6.214Z" transform="translate(-302.552 1330.479)" fill="#fbbc05"/>
    </g>
    <g id="Group_5756" data-name="Group 5756" transform="translate(19 -25)">
      <path id="Path_5900" data-name="Path 5900" d="M4051.6,1288.12h-40.837a3.936,3.936,0,0,0-3.936,3.936v33.726a3.936,3.936,0,0,0,3.936,3.936H4051.6a3.936,3.936,0,0,0,3.935-3.936v-33.726A3.936,3.936,0,0,0,4051.6,1288.12Z" transform="translate(-3801.095 141.162)" fill="#b4b9c9"/>
      <path id="Path_5901" data-name="Path 5901" d="M4087.054,1341.936v-12.428a2.5,2.5,0,0,0-2.5-2.508h-36.3a2.5,2.5,0,0,0-2.5,2.5v22.832l4.757,4.329Z" transform="translate(-3836.22 105.997)" fill="#4285f4"/>
      <path id="Path_5902" data-name="Path 5902" d="M4045.713,1398.931a5.222,5.222,0,0,1,8.182,2.456,5.631,5.631,0,0,1,8.433,4.177,5.033,5.033,0,0,1,4.484,4.783l-6.089,5.95-15.012.122Z" transform="translate(-3837.14 41.975)" fill="#fff"/>
      <path id="Path_5903" data-name="Path 5903" d="M4057.077,1556.081a10.568,10.568,0,0,0-11.327,3.051v6.351a2.5,2.5,0,0,0,2.5,2.5l9.956-7.532Z" transform="translate(-3837.551 -100.566)" fill="#34a853"/>
      <path id="Path_5905" data-name="Path 5905" d="M4072.07,1543.166c3.323-8.82,13.74-19.224,22.41-13.35l-2.881,9.264-7.333,4.091Z" transform="translate(-3860.638 -75.77)" fill="#34a853"/>
      <path id="Path_5907" data-name="Path 5907" d="M4226.875,1499.865v-16.756c-16.676-1.658-26.6,19.257-26.6,19.257h24.1a2.5,2.5,0,0,0,2.5-2.5Z" transform="translate(-3974.991 -35.013)" fill="#34a853"/>
      <path id="Path_5908" data-name="Path 5908" d="M4226.875,1485.224v-2.115c-16.676-1.658-26.6,19.257-26.6,19.257h3.391C4206.586,1497.341,4214.776,1485.434,4226.875,1485.224Z" transform="translate(-3974.991 -35.013)" opacity="0"/>
      <ellipse id="Ellipse_206" data-name="Ellipse 206" cx="3.534" cy="3.534" rx="3.534" ry="3.534" transform="translate(236.288 1438.77)" fill="#fbbc05"/>
      <path id="Path_5909" data-name="Path 5909" d="M4314.3,1392.173a3.533,3.533,0,0,1,5.423-2.988,3.534,3.534,0,1,0-4.875,4.875A3.522,3.522,0,0,1,4314.3,1392.173Z" transform="translate(-4076.932 51.231)" opacity="0.1"/>
    </g>
  </g>
</svg>
