<svg xmlns="http://www.w3.org/2000/svg" xmlns:xlink="http://www.w3.org/1999/xlink" width="610.753" height="491.499" viewBox="0 0 610.753 491.499">
  <defs>
    <linearGradient id="linear-gradient" x1="0.89" y1="0.956" x2="0" y2="0.14" gradientUnits="objectBoundingBox">
      <stop offset="0" stop-color="#bab0b0"/>
      <stop offset="0.389" stop-color="#e0e9f9"/>
      <stop offset="0.611" stop-color="#eaf2ff"/>
      <stop offset="1" stop-color="#f1f3f4"/>
    </linearGradient>
    <linearGradient id="linear-gradient-2" x1="-0.052" y1="0.122" x2="0.987" y2="0.885" xlink:href="#linear-gradient"/>
  </defs>
  <g id="Group_6144" data-name="Group 6144" transform="translate(-12349 3118)">
    <g id="Group_4695" data-name="Group 4695" transform="translate(12242 -3273)">
      <g id="Group_4679" data-name="Group 4679" transform="translate(107 155)">
        <g id="Group_4648" data-name="Group 4648">
          <g id="Group_4461" data-name="Group 4461">
            <path id="Path_10460" data-name="Path 10460" d="M2455.53,565.67q1.453,5.089,3.177,10.1c21.311,61.948,119.9,174.378,186.157,96.45,12.259-14.42,20.576-31.514,35.262-43.562a137.081,137.081,0,0,1,47.688-25.182c23.573-7.023,45.814-2.921,69.356-5.2,49.078-4.742,95.562-17.345,130.887-53.872,34.852-36.038,53.065-85.394,48.7-133.621a151.606,151.606,0,0,0-17.294-57.985q-1.687-3.157-3.519-6.236c-17.746-29.851-44.927-54.806-76.47-69.458-36.563-16.985-74.326-14.1-113.328-9.592-29.585,3.415-61.418,5.768-89.382-6.561-14.416-6.356-28.37-14.211-41.88-22.229-13.728-8.149-25.776-18.932-40.682-25.407-24.441-10.616-50.045-7.034-71.243,8.973-102.824,77.646-99.337,231.632-67.427,343.382" transform="translate(-2366.643 -207.266)" fill="url(#linear-gradient)"/>
            <path id="Path_10461" data-name="Path 10461" d="M2912.93,675.792c-13.813,33.76-45.948,58.493-85.933,56.759-54.324-2.355-100.11-43.687-144.576-70.32-11.071-6.632-22.438-12.918-34.492-17.594-27.189-10.549-60.878-8.018-87.9,2.023-22.809,8.476-43.354,28.8-62.437,43.718-29.615,23.151-74.472,19.4-106.009,1.11-84.44-48.973-95.881-181.392-34.552-252.8,81.767-95.212,225.489-101.565,335.345-57.551,59.438,23.815,112.784,63.023,154.888,111.126,33.048,37.756,67.618,85.041,72.548,136.983a98.4,98.4,0,0,1-6.884,46.549" transform="translate(-2318.283 -266.03)" fill="url(#linear-gradient-2)"/>
          </g>
        </g>
        <path id="Path_10728" data-name="Path 10728" d="M2857.99,240.7a138.071,138.071,0,0,0-35.732-21.941,214.577,214.577,0,0,0-41.508-12.888c-20.462-4.27-41.306-4.016-63.711.779-18.03,3.858-37.157,10.654-60.2,21.391-21.4,9.97-53.46,23.619-84.735,27.035-22.357,2.439-50.177,5.476-75.4,13.068-27.765,8.357-49.085,21.2-65.183,39.261-1.982,2.227-3.875,4.488-5.625,6.722a122.317,122.317,0,0,0-12.183,18.866q3.688-3.9,7.555-7.572,3.087-4.831,6.749-9.518c1.714-2.189,3.569-4.4,5.513-6.588,28.217-31.659,69.646-42.254,108.4-47.773,10.459-1.49,20.724-2.612,30.481-3.676q2.537-.277,5.074-.638c30.009-4.277,60.075-17.114,80.49-26.629,34.809-16.22,76.553-31.514,122.256-21.978,41.491,8.66,110.666,34.376,107.749,109.335-1.04,26.777-14.017,45.744-28.167,65.439q-.817,1.134-1.635,2.273c-2.511,3.488-5.109,7.1-7.648,10.757-12.728,18.335-23.3,39.253-33.273,65.827-6.232,16.608-11.687,33.944-16.963,50.709-2.905,9.234-5.909,18.78-9.031,28.176-2.7,8.129-5.608,16.346-8.822,24.473-16.421,41.563-40.8,80.772-86.252,94.006-27.776,8.085-60.556,5.717-97.429-7.039-32.65-11.3-63.586-29.816-91-53.954q-.882.18-1.769.339.886-.159,1.769-.339a327.437,327.437,0,0,1-71.91-91.368c-27.625-51.72-51.542-124-14.574-181.834q-3.866,3.672-7.555,7.572c-11.825,22.658-16.225,48.789-13.1,77.976,3.22,30,14.27,62.843,32.85,97.625a340.9,340.9,0,0,0,30.814,47.674,322.77,322.77,0,0,0,38.281,41.538q.808.736,1.621,1.461.888-.142,1.774-.3-.885.159-1.774.3c28.443,25.465,59.97,44.292,93.734,55.97,30.45,10.535,58.19,14.069,82.728,10.574a117.586,117.586,0,0,0,16.3-3.493,106.6,106.6,0,0,0,35.869-18.375,133.271,133.271,0,0,0,26.782-28.682c10.789-15.348,19.078-32.863,25.383-48.714,3.548-8.915,6.467-17.3,8.852-24.478,3.129-9.417,6.135-18.977,9.044-28.221,5.266-16.729,10.708-34.026,16.914-50.564,9.887-26.35,20.359-47.072,32.95-65.213,2.527-3.64,5.118-7.238,7.621-10.717.453-.632.91-1.264,1.361-1.894,14.513-20.185,27.892-39.571,28.972-67.367C2891.93,286.662,2880.92,260.624,2857.99,240.7Z" transform="translate(-2337.561 -182.354)" fill="#fff"/>
      </g>
    </g>
    <g id="Group_4695-2" data-name="Group 4695" transform="translate(12242 -3273)">
      <g id="Group_4679-2" data-name="Group 4679" transform="translate(107 155)">
        <g id="Group_4648-2" data-name="Group 4648">
          <g id="Group_4461-2" data-name="Group 4461">
            <path id="Path_10460-2" data-name="Path 10460" d="M2455.53,565.67q1.453,5.089,3.177,10.1c21.311,61.948,119.9,174.378,186.157,96.45,12.259-14.42,20.576-31.514,35.262-43.562a137.081,137.081,0,0,1,47.688-25.182c23.573-7.023,45.814-2.921,69.356-5.2,49.078-4.742,95.562-17.345,130.887-53.872,34.852-36.038,53.065-85.394,48.7-133.621a151.606,151.606,0,0,0-17.294-57.985q-1.687-3.157-3.519-6.236c-17.746-29.851-44.927-54.806-76.47-69.458-36.563-16.985-74.326-14.1-113.328-9.592-29.585,3.415-61.418,5.768-89.382-6.561-14.416-6.356-28.37-14.211-41.88-22.229-13.728-8.149-25.776-18.932-40.682-25.407-24.441-10.616-50.045-7.034-71.243,8.973-102.824,77.646-99.337,231.632-67.427,343.382" transform="translate(-2366.643 -207.266)" fill="url(#linear-gradient)"/>
            <path id="Path_10461-2" data-name="Path 10461" d="M2912.93,675.792c-13.813,33.76-45.948,58.493-85.933,56.759-54.324-2.355-100.11-43.687-144.576-70.32-11.071-6.632-22.438-12.918-34.492-17.594-27.189-10.549-60.878-8.018-87.9,2.023-22.809,8.476-43.354,28.8-62.437,43.718-29.615,23.151-74.472,19.4-106.009,1.11-84.44-48.973-95.881-181.392-34.552-252.8,81.767-95.212,225.489-101.565,335.345-57.551,59.438,23.815,112.784,63.023,154.888,111.126,33.048,37.756,67.618,85.041,72.548,136.983a98.4,98.4,0,0,1-6.884,46.549" transform="translate(-2318.283 -266.03)" fill="url(#linear-gradient-2)"/>
          </g>
        </g>
        <path id="Path_10728-2" data-name="Path 10728" d="M2857.99,240.7a138.071,138.071,0,0,0-35.732-21.941,214.577,214.577,0,0,0-41.508-12.888c-20.462-4.27-41.306-4.016-63.711.779-18.03,3.858-37.157,10.654-60.2,21.391-21.4,9.97-53.46,23.619-84.735,27.035-22.357,2.439-50.177,5.476-75.4,13.068-27.765,8.357-49.085,21.2-65.183,39.261-1.982,2.227-3.875,4.488-5.625,6.722a122.317,122.317,0,0,0-12.183,18.866q3.688-3.9,7.555-7.572,3.087-4.831,6.749-9.518c1.714-2.189,3.569-4.4,5.513-6.588,28.217-31.659,69.646-42.254,108.4-47.773,10.459-1.49,20.724-2.612,30.481-3.676q2.537-.277,5.074-.638c30.009-4.277,60.075-17.114,80.49-26.629,34.809-16.22,76.553-31.514,122.256-21.978,41.491,8.66,110.666,34.376,107.749,109.335-1.04,26.777-14.017,45.744-28.167,65.439q-.817,1.134-1.635,2.273c-2.511,3.488-5.109,7.1-7.648,10.757-12.728,18.335-23.3,39.253-33.273,65.827-6.232,16.608-11.687,33.944-16.963,50.709-2.905,9.234-5.909,18.78-9.031,28.176-2.7,8.129-5.608,16.346-8.822,24.473-16.421,41.563-40.8,80.772-86.252,94.006-27.776,8.085-60.556,5.717-97.429-7.039-32.65-11.3-63.586-29.816-91-53.954q-.882.18-1.769.339.886-.159,1.769-.339a327.437,327.437,0,0,1-71.91-91.368c-27.625-51.72-51.542-124-14.574-181.834q-3.866,3.672-7.555,7.572c-11.825,22.658-16.225,48.789-13.1,77.976,3.22,30,14.27,62.843,32.85,97.625a340.9,340.9,0,0,0,30.814,47.674,322.77,322.77,0,0,0,38.281,41.538q.808.736,1.621,1.461.888-.142,1.774-.3-.885.159-1.774.3c28.443,25.465,59.97,44.292,93.734,55.97,30.45,10.535,58.19,14.069,82.728,10.574a117.586,117.586,0,0,0,16.3-3.493,106.6,106.6,0,0,0,35.869-18.375,133.271,133.271,0,0,0,26.782-28.682c10.789-15.348,19.078-32.863,25.383-48.714,3.548-8.915,6.467-17.3,8.852-24.478,3.129-9.417,6.135-18.977,9.044-28.221,5.266-16.729,10.708-34.026,16.914-50.564,9.887-26.35,20.359-47.072,32.95-65.213,2.527-3.64,5.118-7.238,7.621-10.717.453-.632.91-1.264,1.361-1.894,14.513-20.185,27.892-39.571,28.972-67.367C2891.93,286.662,2880.92,260.624,2857.99,240.7Z" transform="translate(-2337.561 -182.354)" fill="#fff"/>
      </g>
    </g>
    <g id="Group_6136" data-name="Group 6136" transform="translate(663.668 -1873)">
      <path id="Rectangle_1012" data-name="Rectangle 1012" d="M21.161,0H160.776a21.426,21.426,0,0,1,21.161,21.682V354.833a21.426,21.426,0,0,1-21.161,21.682H21.161A21.426,21.426,0,0,1,0,354.832V21.682A21.426,21.426,0,0,1,21.161,0Z" transform="translate(11920.388 -1199)" fill="#213458"/>
      <path id="Path_11118" data-name="Path 11118" d="M18.579,0H161.513a18.58,18.58,0,0,1,18.58,18.58v334.96a18.579,18.579,0,0,1-18.579,18.579H18.579A18.579,18.579,0,0,1,0,353.539V18.579A18.579,18.579,0,0,1,18.579,0Z" transform="translate(11918.101 -1194.604)" fill="#4285f4"/>
      <path id="Path_11117" data-name="Path 11117" d="M1.627,0h158.42a1.627,1.627,0,0,1,1.627,1.627V291.789a1.627,1.627,0,0,1-1.627,1.627H1.627A1.627,1.627,0,0,1,0,291.788V1.627A1.627,1.627,0,0,1,1.627,0Z" transform="translate(11927 -1157.06)" fill="#fff"/>
      <path id="Path_7953" data-name="Path 7953" d="M10.351,3.989a1.995,1.995,0,1,1,0-3.989H47.3a1.995,1.995,0,1,1,0,3.989ZM3.7,0a1.995,1.995,0,1,1,0,3.989H2A1.995,1.995,0,0,1,2,0Z" transform="translate(11983.5 -1174.987)" fill="#fff" fill-rule="evenodd"/>
      <path id="Path_7954" data-name="Path 7954" d="M13.051,26.1A13.05,13.05,0,1,0,0,13.051,13.05,13.05,0,0,0,13.051,26.1Z" transform="translate(11995.097 -856.859)" fill="#fff" fill-rule="evenodd"/>
      <g id="Group_5728" data-name="Group 5728" transform="translate(0 -2)">
        <line id="Line_298" data-name="Line 298" x2="114" transform="translate(11944.5 -1114.5)" fill="none" stroke="#daedff" stroke-linecap="round" stroke-width="6"/>
        <line id="Line_299" data-name="Line 299" x2="114" transform="translate(11944.5 -1095.5)" fill="none" stroke="#daedff" stroke-linecap="round" stroke-width="6"/>
        <line id="Line_300" data-name="Line 300" x2="114" transform="translate(11944.5 -1027.5)" fill="none" stroke="#daedff" stroke-linecap="round" stroke-width="6"/>
        <line id="Line_301" data-name="Line 301" x2="114" transform="translate(11944.5 -1008.5)" fill="none" stroke="#daedff" stroke-linecap="round" stroke-width="6"/>
        <line id="Line_302" data-name="Line 302" x2="114" transform="translate(11944.5 -989.5)" fill="none" stroke="#daedff" stroke-linecap="round" stroke-width="6"/>
        <line id="Line_303" data-name="Line 303" x2="114" transform="translate(11944.5 -939.5)" fill="none" stroke="#daedff" stroke-linecap="round" stroke-width="6"/>
        <line id="Line_304" data-name="Line 304" x2="114" transform="translate(11944.5 -920.5)" fill="none" stroke="#daedff" stroke-linecap="round" stroke-width="6"/>
        <line id="Line_305" data-name="Line 305" x2="114" transform="translate(11945.5 -901.5)" fill="none" stroke="#daedff" stroke-linecap="round" stroke-width="6"/>
      </g>
      <g id="Group_1705" data-name="Group 1705" transform="translate(11937.628 -1149.426)">
        <path id="Path_7968" data-name="Path 7968" d="M14.234.433ZM1.472.966H7.7V5.983H1.472a.489.489,0,0,1-.353-.147.5.5,0,0,1-.152-.353V1.472A.506.506,0,0,1,1.472.966ZM13.194,0H1.472A1.477,1.477,0,0,0,0,1.472v4.01A1.477,1.477,0,0,0,1.472,6.953H13.194a1.469,1.469,0,0,0,1.007-.4l.033-.03a1.472,1.472,0,0,0,.432-1.04V1.472A1.475,1.475,0,0,0,13.194,0Z" transform="translate(126.372 0.494)" fill="#4285f4" fill-rule="evenodd"/>
      </g>
      <g id="Group_5704" data-name="Group 5704" transform="translate(3007 -1473)">
        <rect id="Rectangle_1308" data-name="Rectangle 1308" width="55" height="44" transform="translate(9036 350)" fill="#e4e4e4"/>
        <path id="Path_13265" data-name="Path 13265" d="M26.988-.236l22.5,27.285H0Z" transform="translate(9063.329 344.359) rotate(90)" fill="#d1cecf"/>
        <g id="Rectangle_1304" data-name="Rectangle 1304" transform="translate(9026 338)" fill="#d74c40" stroke="#d53c34" stroke-width="1">
          <path d="M6.154,0h0A3.846,3.846,0,0,1,10,3.846V56a0,0,0,0,1,0,0H6.154A6.154,6.154,0,0,1,0,49.846V6.154A6.154,6.154,0,0,1,6.154,0Z" stroke="none"/>
          <path d="M6.125.5h0A3.375,3.375,0,0,1,9.5,3.875v51.25a.375.375,0,0,1-.375.375h-3A5.625,5.625,0,0,1,.5,49.875V6.125A5.625,5.625,0,0,1,6.125.5Z" fill="none"/>
        </g>
        <path id="Path_13266" data-name="Path 13266" d="M48.767,0,46.889,62.155H0L.313,43.26Z" transform="matrix(-0.017, -1, 1, -0.017, 9028.894, 394.943)" fill="#bbb" opacity="0.32"/>
        <path id="Polygon_53" data-name="Polygon 53" d="M34,0,68,27H0Z" transform="translate(9097 364) rotate(180)" fill="#e4e4e4"/>
        <g id="Rectangle_1305" data-name="Rectangle 1305" transform="translate(9090 338)" fill="#d74c40" stroke="#c7362f" stroke-width="1">
          <path d="M4.714,0h0A6.286,6.286,0,0,1,11,6.286V49.714A6.286,6.286,0,0,1,4.714,56H0a0,0,0,0,1,0,0V4.714A4.714,4.714,0,0,1,4.714,0Z" stroke="none"/>
          <path d="M4.731.5h0A5.769,5.769,0,0,1,10.5,6.269V49.731A5.769,5.769,0,0,1,4.731,55.5H.885A.385.385,0,0,1,.5,55.115V4.731A4.231,4.231,0,0,1,4.731.5Z" fill="none"/>
        </g>
        <g id="Union_9" data-name="Union 9" transform="translate(9025.771 336.896)" fill="#d74c40">
          <path d="M 37.32479858398438 34.30429840087891 L 2.425092220306396 8.948290824890137 C 0.3424022495746613 7.434560298919678 -0.1207577362656593 4.508240222930908 1.392712235450745 2.425090312957764 C 2.268342256546021 1.219700336456299 3.682332277297974 0.500070333480835 5.175162315368652 0.500070333480835 C 6.164782047271729 0.500070333480835 7.112552165985107 0.8084603548049927 7.916012287139893 1.391890406608582 L 37.03045272827148 22.54521942138672 L 37.3243522644043 22.75875091552734 L 37.61825180053711 22.54521942138672 L 66.73280334472656 1.391810297966003 C 67.53615570068359 0.8084603548049927 68.48392486572266 0.500070333480835 69.47354125976563 0.500070333480835 C 70.96636962890625 0.500070333480835 72.38036346435547 1.219700336456299 73.25597381591797 2.425060272216797 C 74.76946258544922 4.508240222930908 74.30630493164063 7.434560298919678 72.22354125976563 8.94834041595459 L 37.32479858398438 34.30429840087891 Z" stroke="none"/>
          <path d="M 37.32479858398438 33.68624877929688 L 37.32481002807617 33.68626022338867 L 71.92957305908203 8.54389476776123 C 73.78937530517578 7.192172527313232 74.20292663574219 4.579128265380859 72.85143280029297 2.718928098678589 C 72.06961059570313 1.64263927936554 70.80683898925781 1.000083684921265 69.47354125976563 1.000083684921265 C 68.59016418457031 1.000083684921265 67.74397277832031 1.275472521781921 67.02669525146484 1.796316981315613 L 37.91213989257813 22.94971656799316 L 37.3243522644043 23.37678337097168 L 36.73656463623047 22.94971656799316 L 7.622230052947998 1.796483635902405 C 6.90471887588501 1.275472521781921 6.058541297912598 1.000083684921265 5.17515230178833 1.000083684921265 C 3.841863393783569 1.000083684921265 2.579107761383057 1.64263927936554 1.797230005264282 2.71898365020752 C 0.4457744956016541 4.579128265380859 0.8593300580978394 7.192172527313232 2.718985557556152 8.543784141540527 L 37.32479858398438 33.68624877929688 M 37.3859977722168 34.96680450439453 L 37.32479858398438 34.92234039306641 L 37.26359558105469 34.96680450439453 L 37.1267204284668 34.77842712402344 L 2.131196737289429 9.352806091308594 C -0.178203284740448 7.67430591583252 -0.6903032660484314 4.441505908966064 0.9882078170776367 2.131205797195435 C 1.999430179595947 0.7391383647918701 3.576175212860107 8.060268737608567e-05 5.175153732299805 8.060268737608567e-05 C 6.228835105895996 8.060268737608567e-05 7.292106628417969 0.3209350109100342 8.209796905517578 0.9873058795928955 L 37.3243522644043 22.14070510864258 L 66.43891143798828 0.9873058795928955 C 67.35645294189453 0.3210374116897583 68.42002105712891 8.060268737608567e-05 69.47354888916016 8.060268737608567e-05 C 71.07269287109375 8.060268737608567e-05 72.649169921875 0.7389973998069763 73.66049957275391 2.131205797195435 C 75.33900451660156 4.441505908966064 74.826904296875 7.67430591583252 72.51750946044922 9.352806091308594 L 37.52284240722656 34.77845001220703 L 37.3859977722168 34.96680450439453 Z" stroke="none" fill="#c7362f"/>
        </g>
      </g>
      <g id="Group_5706" data-name="Group 5706" transform="translate(4232 -1397)">
        <path id="Rectangle_1309" data-name="Rectangle 1309" d="M2,0H7A2,2,0,0,1,9,2V40a4,4,0,0,1-4,4H4a4,4,0,0,1-4-4V2A2,2,0,0,1,2,0Z" transform="translate(7805.348 402.04) rotate(-45)" fill="#ea4335"/>
        <path id="Rectangle_1310" data-name="Rectangle 1310" d="M0,0H6A0,0,0,0,1,6,0V11a3,3,0,0,1-3,3H3a3,3,0,0,1-3-3V0A0,0,0,0,1,0,0Z" transform="translate(7800.055 394.333) rotate(-45)" fill="#fff"/>
        <g id="Ellipse_404" data-name="Ellipse 404" transform="translate(7767 354)" fill="#fff" stroke="#fbbc05" stroke-width="4">
          <circle cx="23" cy="23" r="23" stroke="none"/>
          <circle cx="23" cy="23" r="21" fill="none"/>
        </g>
        <g id="Group_5705" data-name="Group 5705" transform="translate(-310 -57)">
          <path id="Subtraction_1" data-name="Subtraction 1" d="M18.977,9H.023C.008,8.8,0,8.606,0,8.413A7.9,7.9,0,0,1,2.782,2.464,10.09,10.09,0,0,1,9.5,0a10.09,10.09,0,0,1,6.717,2.464A7.9,7.9,0,0,1,19,8.413c0,.2-.008.393-.023.587h0Z" transform="translate(8091 434)" fill="#4285f4"/>
          <circle id="Ellipse_406" data-name="Ellipse 406" cx="4" cy="4" r="4" transform="translate(8096 425)" fill="#4285f4"/>
        </g>
      </g>
      <g id="Group_5707" data-name="Group 5707" transform="translate(4036 -1342)">
        <g id="Group_2314" data-name="Group 2314" transform="translate(7804.332 216.597)">
          <path id="Path_9093" data-name="Path 9093" d="M1606.75,692.687h-51.188c-23.79,0-43.257,16.747-43.257,37.215s19.467,37.215,43.257,37.215h55.032c1.2,0,2.394-.054,3.573-.146,3.694,4.619,12.776,14.409,23.9,15.116,0,0-8.739-8.232-12.859-17.411,14.5-5.021,24.809-17.257,24.809-31.475v-3.308C1650.015,709.434,1630.55,692.687,1606.75,692.687Z" transform="translate(-1511.809 -692.257)" fill="#fff"/>
          <path id="Path_9094" data-name="Path 9094" d="M1638.176,782.643c-11.268-.716-20.5-10.62-24.107-15.1-1.167.083-2.263.127-3.327.127H1555.71c-24.128,0-43.758-16.888-43.758-37.647s19.631-37.647,43.758-37.647H1606.9c24.128,0,43.758,16.888,43.758,37.647v3.308c0,13.937-9.665,26.339-24.662,31.714a65.816,65.816,0,0,0,12.581,16.888l.85.8Zm-82.464-89.4c-23.576,0-42.757,16.5-42.757,36.784s19.181,36.785,42.757,36.785h55.032c1.125,0,2.281-.047,3.527-.145l.291-.023.174.209c3.271,4.091,11.818,13.474,22.265,14.809a64,64,0,0,1-12.105-16.7l-.174-.4.458-.158c14.879-5.152,24.5-17.352,24.5-31.076v-3.308c0-20.284-19.181-36.784-42.757-36.784Z" transform="translate(-1511.952 -692.381)" fill="#4285f4"/>
        </g>
        <g id="Group_2315" data-name="Group 2315" transform="translate(7835.908 232.808)">
          <path id="Path_9095" data-name="Path 9095" d="M1583.005,709.709h-45.7a2.9,2.9,0,0,1,0-5.8h45.7a2.9,2.9,0,1,1,0,5.8Z" transform="translate(-1534.397 -703.906)" fill="#4285f4"/>
          <path id="Path_9096" data-name="Path 9096" d="M1618.423,719.185H1537.3a2.9,2.9,0,1,1,0-5.8h81.12a2.9,2.9,0,1,1,0,5.8Z" transform="translate(-1534.401 -700.052)" fill="#4285f4"/>
          <path id="Path_9097" data-name="Path 9097" d="M1604.126,737.852h-66.819a2.9,2.9,0,1,1,0-5.8h66.819a2.9,2.9,0,1,1,0,5.8Z" transform="translate(-1534.399 -692.462)" fill="#4285f4"/>
          <path id="Path_9098" data-name="Path 9098" d="M1561.785,728.661H1537.3a2.9,2.9,0,0,1,0-5.8h24.481a2.9,2.9,0,1,1,0,5.8Z" transform="translate(-1534.401 -696.199)" fill="#4285f4"/>
        </g>
      </g>
      <g id="Group_5708" data-name="Group 5708" transform="translate(4141 -1370)">
        <path id="Path_13267" data-name="Path 13267" d="M5.7,0H26.859l6.328,6.579,28.021.264a5.7,5.7,0,0,1,5.7,5.7v34.6a5.7,5.7,0,0,1-5.7,5.7H5.7a5.7,5.7,0,0,1-5.7-5.7V5.7A5.7,5.7,0,0,1,5.7,0Z" transform="translate(7763 382)" fill="#fbbc05"/>
        <path id="Union_10" data-name="Union 10" d="M14.415,19H0L11.292,0l7.95,13.377,6.465-7.531L37,19Z" transform="translate(7778 406)" fill="#fff"/>
      </g>
      <g id="Group_5710" data-name="Group 5710" transform="translate(4282 -1563)">
        <g id="Group_2314-2" data-name="Group 2314" transform="translate(7778 616.597)">
          <path id="Path_9093-2" data-name="Path 9093" d="M1537.892,692.687h30.273c14.07,0,25.583,9.9,25.583,22.01s-11.513,22.01-25.583,22.01h-32.547c-.713,0-1.416-.032-2.113-.086-2.185,2.732-7.556,8.522-14.133,8.94,0,0,5.168-4.868,7.605-10.3-8.575-2.97-14.672-10.206-14.672-18.615v-1.956C1512.3,702.592,1523.816,692.687,1537.892,692.687Z" transform="translate(-1512.011 -692.433)" fill="#fff"/>
          <path id="Path_9094-2" data-name="Path 9094" d="M1519.333,745.764c6.664-.423,12.123-6.281,14.257-8.927.69.049,1.338.075,1.968.075H1568.1c14.27,0,25.879-9.988,25.879-22.265s-11.61-22.265-25.879-22.265h-30.273c-14.27,0-25.879,9.988-25.879,22.265V716.6c0,8.243,5.716,15.577,14.586,18.756a38.924,38.924,0,0,1-7.44,9.988l-.5.474Zm48.771-52.873c13.943,0,25.287,9.76,25.287,21.754S1582.047,736.4,1568.1,736.4h-32.547c-.665,0-1.349-.028-2.086-.085l-.172-.013-.1.124c-1.935,2.42-6.99,7.969-13.168,8.759a37.856,37.856,0,0,0,7.159-9.878l.1-.235-.271-.094c-8.8-3.047-14.487-10.262-14.487-18.379v-1.956c0-12,11.344-21.754,25.287-21.754Z" transform="translate(-1511.952 -692.381)" fill="#4285f4"/>
        </g>
        <g id="Group_5709" data-name="Group 5709" transform="translate(7784.657 630.209)">
          <path id="Icon_open-timer" data-name="Icon open-timer" d="M4.532,0V2.266H6.8v.068A7.937,7.937,0,1,0,15.862,10.2,7.7,7.7,0,0,0,15.3,7.365l-2.062.861A5.452,5.452,0,0,1,13.6,10.22,5.665,5.665,0,1,1,7.931,4.555a5.539,5.539,0,0,1,1.994.363l.77-2.13a9.488,9.488,0,0,0-1.632-.363V2.289H11.33V.023h-6.8Zm11.33,2.629S7.591,9,7.161,9.427a1.108,1.108,0,0,0,0,1.564,1.069,1.069,0,0,0,1.564,0c.453-.453,7.161-8.362,7.161-8.362Z" transform="translate(0 0.145)" fill="#4285f4"/>
          <path id="icons8-anonymous-mask" d="M12.319,3a.756.756,0,0,0-.095.006,22.166,22.166,0,0,0-5.75.678,7.926,7.926,0,0,0-1.591.6,2.482,2.482,0,0,0-.513.346A.882.882,0,0,0,4,5.381v6.91a8.7,8.7,0,0,0,1.969,4.738,10.613,10.613,0,0,0,6.186,4.1.756.756,0,0,0,.328,0,10.612,10.612,0,0,0,6.186-4.1,8.7,8.7,0,0,0,1.969-4.74V5.381a.882.882,0,0,0-.371-.75,2.481,2.481,0,0,0-.513-.346,7.925,7.925,0,0,0-1.591-.6,22.165,22.165,0,0,0-5.747-.678A.756.756,0,0,0,12.319,3Zm0,1.513a20.762,20.762,0,0,1,5.439.628,6.706,6.706,0,0,1,1.284.479.763.763,0,0,1,.084.053v6.617a8.345,8.345,0,0,1-1.668,3.834,9.2,9.2,0,0,1-4.382,3.233V17.342H11.563v2.015A9.2,9.2,0,0,1,7.18,16.124a8.341,8.341,0,0,1-1.668-3.833V5.672A.758.758,0,0,1,5.6,5.619,6.7,6.7,0,0,1,6.88,5.14,20.762,20.762,0,0,1,12.319,4.512ZM9.088,6.781a3.122,3.122,0,0,0-2.82,1.513,4.276,4.276,0,0,1,2.269-.756,2.058,2.058,0,0,1,1.594,1.1h0a.756.756,0,0,0,1.35-.681l0,0C11.438,7.862,11.035,6.781,9.088,6.781Zm6.461,0c-1.957,0-2.356,1.1-2.394,1.174h0a.755.755,0,0,0,1.349.679h0a2.058,2.058,0,0,1,1.594-1.1,4.276,4.276,0,0,1,2.269.756A3.122,3.122,0,0,0,15.549,6.781ZM8.916,9.05a2.606,2.606,0,0,0-1.891.756,2.606,2.606,0,0,0,1.891.756,2.606,2.606,0,0,0,1.891-.756A2.606,2.606,0,0,0,8.916,9.05Zm6.806,0a2.606,2.606,0,0,0-1.891.756,2.741,2.741,0,0,0,3.781,0A2.606,2.606,0,0,0,15.722,9.05Zm-3.4,3.292-1.541,2H9.644l-1.285-1.52L7.2,13.8l1.74,2.055h2.582l.789-1.024.775,1.024h2.6l1.74-2.055-1.155-.978-1.285,1.52H13.842Z" transform="translate(22.134 -3)" fill="#4285f4"/>
          <path id="Icon_awesome-check" data-name="Icon awesome-check" d="M5.082,15.516.219,10.653a.748.748,0,0,1,0-1.058L1.277,8.537a.748.748,0,0,1,1.058,0l3.276,3.276L12.628,4.8a.748.748,0,0,1,1.058,0l1.058,1.058a.748.748,0,0,1,0,1.058l-8.6,8.6A.748.748,0,0,1,5.082,15.516Z" transform="translate(53.015 -1.341)" fill="#4285f4"/>
        </g>
      </g>
      <g id="Group_5620" data-name="Group 5620" transform="matrix(0.998, 0.07, -0.07, 0.998, 11386.014, -1085.197)">
        <g id="Group_2562" data-name="Group 2562" transform="translate(584.742 161.602)">
          <path id="Path_9345" data-name="Path 9345" d="M673.3,161.907c-2.406,1.261-2.375,6.068.072,10.737s6.38,7.433,8.786,6.172,2.375-6.068-.071-10.738S675.707,160.646,673.3,161.907Z" transform="translate(-671.516 -161.602)" fill="#1a5fd2"/>
        </g>
        <g id="Group_2563" data-name="Group 2563" transform="translate(584.33 164.966)">
          <path id="Path_9346" data-name="Path 9346" d="M673.725,168.245a1.609,1.609,0,0,0-.766.173,6.408,6.408,0,0,0-2.247,4.746c.1,1.185,1.563,1.434,2.258,2.758,1.532,2.925.7,3.184,1.963,4.029,1.289.86,3.978.369,4.2.252.872-.456,1.1-1.766,1.157-2.308a9.512,9.512,0,0,0-1.166-5.2C677.592,169.774,675.249,168.245,673.725,168.245Z" transform="translate(-670.702 -168.245)" fill="#4285f4"/>
        </g>
        <g id="Group_2564" data-name="Group 2564" transform="translate(508.231 181.796)">
          <path id="Path_9347" data-name="Path 9347" d="M520.433,201.511c.063-.013.126-.024.191-.033-.036.007-.075.01-.109.018A.583.583,0,0,0,520.433,201.511Z" transform="translate(-520.433 -201.478)" fill="#282f39"/>
        </g>
        <g id="Group_2565" data-name="Group 2565" transform="translate(543.201 235.915)">
          <path id="Path_9348" data-name="Path 9348" d="M589.534,308.425c.022-.025.04-.055.059-.08-.035.049-.069.093-.107.14C589.5,308.464,589.519,308.447,589.534,308.425Z" transform="translate(-589.486 -308.345)" fill="#282f39"/>
        </g>
        <g id="Group_2566" data-name="Group 2566" transform="translate(515.238 169.951)">
          <path id="Path_9349" data-name="Path 9349" d="M603.374,191.311s-15.526,19.953-26.587,34.163c-6.067,7.8-10.792,13.865-10.858,13.952L534.269,188.04l19.715-3.19,41.815-6.76a12.072,12.072,0,0,1,6.158,5.474c.141.258.273.522.4.8A12.04,12.04,0,0,1,603.374,191.311Z" transform="translate(-534.269 -178.089)" fill="#fff"/>
        </g>
        <g id="Group_2567" data-name="Group 2567" transform="translate(515.238 176.711)">
          <path id="Path_9350" data-name="Path 9350" d="M576.787,232.063c-6.067,7.8-10.792,13.865-10.858,13.952l-31.661-51.387,19.715-3.19c6.715,3.216,13.187,9.749,17.618,18.206C575.486,217.063,577.314,224.984,576.787,232.063Z" transform="translate(-534.269 -191.438)" fill="#4285f4"/>
        </g>
        <g id="Group_2571" data-name="Group 2571" transform="translate(551.706 192.081)">
          <g id="Group_2568" data-name="Group 2568" transform="translate(0 28.219)">
            <path id="Path_9351" data-name="Path 9351" d="M610.036,277.51l-3.755,4.84v6.216a5.276,5.276,0,0,0,2.291,4.349l2.341,1.641a2.35,2.35,0,0,1-.727-1.927Z" transform="translate(-606.281 -277.51)" fill="#4285f4"/>
          </g>
          <g id="Group_2569" data-name="Group 2569" transform="translate(3.755 0)">
            <path id="Path_9352" data-name="Path 9352" d="M636.541,222.075a2.249,2.249,0,0,0-.9-.287l-1.183,1.525c.791-.064,1.373.536,1.419,1.622,0,0,.554,25.9.551,25.98a4.915,4.915,0,0,1-.657,2.232,4.46,4.46,0,0,1-1.47,1.624l-16.491,9.466c-1.239.778-2.3.2-2.357-1.281l-.137-15.042c-.311.4-1.4,1.8-1.623,2.093l.15,15.4a1.846,1.846,0,0,0,.974,1.779,1.926,1.926,0,0,0,1.757-.291l19.113-11.107a5.132,5.132,0,0,0,1.589-1.689,5.617,5.617,0,0,0,.88-3.048l-.642-27.2A1.772,1.772,0,0,0,636.541,222.075Z" transform="translate(-613.695 -221.788)" fill="#4285f4"/>
          </g>
          <g id="Group_2570" data-name="Group 2570" transform="translate(5.495 1.52)">
            <path id="Path_9353" data-name="Path 9353" d="M636.156,224.794l-3.414,4.386s.323,20.549.323,20.65a5.168,5.168,0,0,1-2.47,4.428l-13.464,7.587.02,2.593c.059,1.484,1.118,2.059,2.357,1.281L636,256.252a4.806,4.806,0,0,0,2.128-3.856c0-.077-.552-25.98-.552-25.98C637.53,225.33,636.948,224.731,636.156,224.794Z" transform="translate(-617.132 -224.79)" fill="#1a5fd2"/>
          </g>
        </g>
        <g id="Group_2572" data-name="Group 2572" transform="translate(576.766 168.754)">
          <path id="Path_9354" data-name="Path 9354" d="M666.872,178.12a6.871,6.871,0,0,0-2.416-2c-.086-.043-.173-.081-.26-.115-.029-.012-.052-.02-.08-.033-.059-.019-.12-.039-.178-.062-.032-.011-.062-.017-.1-.027a1.168,1.168,0,0,0-.156-.043c-.035-.01-.065-.019-.1-.025s-.092-.021-.136-.029a.022.022,0,0,1-.012,0c-.033-.006-.066-.013-.1-.016a1.3,1.3,0,0,0-.143-.019c-.034-.005-.068-.009-.1-.011l-.139-.008a.44.44,0,0,1-.092,0c-.046,0-.091.007-.136.011-.027,0-.056,0-.086,0a1.272,1.272,0,0,0-.14.019.518.518,0,0,0-.061.009l-.71.122q-2.985.516-5.972,1.034a12.052,12.052,0,0,1,6.158,5.476c.142.258.273.523.4.8a12.048,12.048,0,0,1,1.017,6.953q2.071-2.667,4.147-5.335c.143-.187.287-.37.433-.557a.009.009,0,0,0,0-.006,1.369,1.369,0,0,0,.128-.177.3.3,0,0,0,.024-.046c.03-.049.059-.1.086-.151.011-.023.024-.049.036-.072.018-.047.039-.091.059-.137.01-.029.021-.057.031-.087s.033-.093.048-.144c.008-.029.019-.061.025-.092.016-.049.029-.1.042-.15,0-.032.012-.065.017-.1a1.165,1.165,0,0,0,.026-.166.7.7,0,0,0,.015-.1c.009-.061.013-.126.016-.185,0-.033.006-.06.01-.089,0-.1.006-.191,0-.291a7.052,7.052,0,0,0-1.289-3.694C667.1,178.414,666.983,178.265,666.872,178.12Z" transform="translate(-655.766 -175.724)" fill="#e4e4e4"/>
        </g>
        <g id="Group_2573" data-name="Group 2573" transform="translate(495.712 179.372)">
          <path id="Path_9355" data-name="Path 9355" d="M505.756,198.536c-11.41,5.976-13.393,24.69-4.432,41.8s25.477,26.133,36.887,20.155,13.393-24.691,4.431-41.8S517.165,192.559,505.756,198.536Z" transform="translate(-495.712 -196.691)" fill="#1a5fd2"/>
        </g>
        <g id="Group_2574" data-name="Group 2574" transform="translate(498.683 182.347)">
          <path id="Path_9356" data-name="Path 9356" d="M516.371,202.567a13.5,13.5,0,0,0-6.339,1.5c-4.609,2.415-7.549,7.53-8.277,14.4-.776,7.318,1.036,15.639,5.1,23.4,6.394,12.205,17.056,20.425,26.531,20.425h0a13.535,13.535,0,0,0,6.34-1.524c4.609-2.416,7.548-7.54,8.277-14.415.776-7.317-1.036-15.625-5.1-23.385C536.509,210.77,525.847,202.567,516.371,202.567Z" transform="translate(-501.578 -202.567)" fill="#4285f4"/>
        </g>
        <g id="Group_2575" data-name="Group 2575" transform="translate(515.668 185.432)">
          <path id="Path_9357" data-name="Path 9357" d="M543.523,208.659a9.133,9.133,0,0,0-2.335.848c-3.308,1.732-5.42,5.4-5.944,10.339a29.994,29.994,0,0,0,3.662,16.736c4.591,8.758,12.242,14.6,19.041,14.6a9.685,9.685,0,0,0,4.554-1.034,9.361,9.361,0,0,0,2.126-1.535c.58-7.133-1.245-15.138-5.167-22.628C555.4,218.24,549.623,212.106,543.523,208.659Z" transform="translate(-535.119 -208.659)" fill="#6e6fda"/>
        </g>
        <g id="Group_2576" data-name="Group 2576" transform="translate(515.668 185.432)">
          <path id="Path_9358" data-name="Path 9358" d="M559.46,225.983a49.8,49.8,0,0,0-3.115-5.16,40,40,0,0,0-12.822-12.164,9.133,9.133,0,0,0-2.335.848c-3.308,1.732-5.42,5.4-5.944,10.339a29.994,29.994,0,0,0,3.662,16.736c4.591,8.758,12.242,14.6,19.041,14.6a9.685,9.685,0,0,0,4.554-1.034,9.361,9.361,0,0,0,2.126-1.535,38.647,38.647,0,0,0-1.81-14.557A48.721,48.721,0,0,0,559.46,225.983Z" transform="translate(-535.119 -208.659)" fill="#1a5fd2"/>
        </g>
        <g id="Group_2577" data-name="Group 2577" transform="translate(529.541 197.596)">
          <path id="Path_9359" data-name="Path 9359" d="M569.865,232.678a7.935,7.935,0,1,0,6.472,13.231,48.721,48.721,0,0,0-3.357-8.071A49.792,49.792,0,0,0,569.865,232.678Z" transform="translate(-562.512 -232.678)" fill="#fbbc05"/>
        </g>
      </g>
      <g id="Group_5713" data-name="Group 5713" transform="translate(302 -87)">
        <path id="Path_13268" data-name="Path 13268" d="M12.437,0S27.485,29.035,24.476,38.713,3.408,48.392.4,38.713,12.437,0,12.437,0Z" transform="matrix(-1, 0.017, -0.017, -1, 11754.278, -764.434)" fill="#34a853"/>
        <ellipse id="Ellipse_407" data-name="Ellipse 407" cx="7.5" cy="8" rx="7.5" ry="8" transform="translate(11734 -804)" fill="#fff"/>
        <g id="Group_5712" data-name="Group 5712" transform="translate(11735.774 -798.248)">
          <ellipse id="Ellipse_408" data-name="Ellipse 408" cx="1" cy="1.5" rx="1" ry="1.5" transform="translate(0.226 0.248)" fill="#34a853"/>
          <circle id="Ellipse_409" data-name="Ellipse 409" cx="1.5" cy="1.5" r="1.5" transform="translate(4.226 0.248)" fill="#34a853"/>
          <ellipse id="Ellipse_410" data-name="Ellipse 410" cx="1" cy="1.5" rx="1" ry="1.5" transform="translate(9.226 0.248)" fill="#34a853"/>
        </g>
      </g>
    </g>
  </g>
</svg>
