<svg xmlns="http://www.w3.org/2000/svg" width="73.762" height="62.752" viewBox="0 0 73.762 62.752">
  <g id="Group_4677" data-name="Group 4677" transform="translate(-3671.844 -1420.994)">
    <g id="speech-bubble" transform="translate(3671.844 1420.994)">
      <g id="Group_634" data-name="Group 634" transform="translate(0 0)">
        <path id="Path_1364" data-name="Path 1364" d="M101.608,36.55A6.821,6.821,0,0,0,94.8,43.358V70.441a6.821,6.821,0,0,0,6.808,6.808h30.517l8.6,9.957a2.734,2.734,0,0,0,4.805-1.777V77.265h1.943a6.821,6.821,0,0,0,6.808-6.808v-27.1a6.821,6.821,0,0,0-6.808-6.808Zm48.969,6.808V70.441a3.124,3.124,0,0,1-3.118,3.118h-3.781a1.851,1.851,0,0,0-1.853,1.853v7.426l-7.471-8.631a1.83,1.83,0,0,0-1.4-.633H101.608a3.124,3.124,0,0,1-3.118-3.118v-27.1a3.124,3.124,0,0,1,3.118-3.118h45.851A3.124,3.124,0,0,1,150.577,43.358Z" transform="translate(-80.52 -36.55)" fill="#1a73e8"/>
        <path id="Path_1365" data-name="Path 1365" d="M10.529,161.974a2.729,2.729,0,0,0,.964.181,2.691,2.691,0,0,0,2.049-.949l8.6-9.956H49.014a1.853,1.853,0,1,0,0-3.705H21.3a1.853,1.853,0,0,0-1.4.633l-7.456,8.661v-7.426a1.851,1.851,0,0,0-1.853-1.853H6.808a3.124,3.124,0,0,1-3.118-3.118V117.358a3.124,3.124,0,0,1,3.118-3.118,1.845,1.845,0,1,0,0-3.69A6.821,6.821,0,0,0,0,117.358v27.083a6.821,6.821,0,0,0,6.808,6.808H8.751v8.164A2.686,2.686,0,0,0,10.529,161.974Z" transform="translate(0 -99.404)" fill="#1a73e8"/>
        <ellipse id="Ellipse_175" data-name="Ellipse 175" cx="2.199" cy="2.199" rx="2.199" ry="2.199" transform="translate(41.814 18.798)" fill="#1a73e8"/>
        <ellipse id="Ellipse_176" data-name="Ellipse 176" cx="2.199" cy="2.199" rx="2.199" ry="2.199" transform="translate(34.449 18.798)" fill="#1a73e8"/>
        <ellipse id="Ellipse_177" data-name="Ellipse 177" cx="2.199" cy="2.199" rx="2.199" ry="2.199" transform="translate(49.18 18.798)" fill="#1a73e8"/>
      </g>
    </g>
  </g>
</svg>
