<svg xmlns="http://www.w3.org/2000/svg" xmlns:xlink="http://www.w3.org/1999/xlink" width="277.572" height="352.705" viewBox="0 0 277.572 352.705">
  <defs>
    <linearGradient id="linear-gradient" x1="0.5" x2="0.5" y2="1" gradientUnits="objectBoundingBox">
      <stop offset="0" stop-color="#e9f2fe"/>
      <stop offset="1" stop-color="#c6d9fb"/>
    </linearGradient>
  </defs>
  <g id="Group_4847" data-name="Group 4847" transform="translate(-2043.547 662.104)">
    <ellipse id="floor" cx="110.314" cy="24.838" rx="110.314" ry="24.838" transform="translate(2043.547 -406.733)" fill="url(#linear-gradient)"/>
    <g id="Group_4831" data-name="Group 4831">
      <path id="Rectangle_1012" data-name="Rectangle 1012" d="M15.828,0H120.257a16.026,16.026,0,0,1,15.828,16.218V265.407a16.027,16.027,0,0,1-15.828,16.218H15.828A16.026,16.026,0,0,1,0,265.406V16.218A16.026,16.026,0,0,1,15.828,0Z" transform="translate(2088.274 -662.104)" fill="#213458"/>
      <path id="Path_11118" data-name="Path 11118" d="M13.9,0H120.808a13.9,13.9,0,0,1,13.9,13.9V264.439a13.9,13.9,0,0,1-13.9,13.9H13.9A13.9,13.9,0,0,1,0,264.439V13.9A13.9,13.9,0,0,1,13.9,0Z" transform="translate(2086.563 -658.816)" fill="#4285f4"/>
      <path id="Path_11117" data-name="Path 11117" d="M1.217,0H119.711a1.217,1.217,0,0,1,1.217,1.217V218.252a1.217,1.217,0,0,1-1.217,1.217H1.217A1.217,1.217,0,0,1,0,218.251V1.217A1.217,1.217,0,0,1,1.217,0Z" transform="translate(2093.452 -629.986)" fill="#fff"/>
      <path id="Path_7953" data-name="Path 7953" d="M7.743,2.984A1.492,1.492,0,1,1,7.743,0H35.379a1.492,1.492,0,1,1,0,2.984ZM2.764,0a1.492,1.492,0,0,1,0,2.984H1.493A1.492,1.492,0,1,1,1.493,0Z" transform="translate(2135.48 -644.143)" fill="#e6e0de" fill-rule="evenodd"/>
      <path id="Path_7954" data-name="Path 7954" d="M9.762,19.524A9.761,9.761,0,1,0,0,9.762a9.761,9.761,0,0,0,9.762,9.762Z" transform="translate(2144.154 -406.191)" fill="#fff" fill-rule="evenodd"/>
      <g id="Group_1705" data-name="Group 1705" transform="translate(2101.169 -625.024)">
        <path id="Path_7967" data-name="Path 7967" d="M.36.726A.363.363,0,1,1,.36,0H8.3a.363.363,0,0,1,0,.726Zm0,5.214a.361.361,0,0,1,0-.723H8.3a.361.361,0,1,1,0,.723Zm0-2.607a.361.361,0,1,1,0-.723H8.3a.363.363,0,0,1,0,.726Z" transform="translate(0.003 0)" fill="#4285f4" fill-rule="evenodd"/>
        <path id="Path_7968" data-name="Path 7968" d="M10.647.324ZM1.1.723H5.762V4.475H1.1a.366.366,0,0,1-.264-.11A.372.372,0,0,1,.723,4.1v-3A.378.378,0,0,1,1.1.723ZM9.869,0H1.1A1.1,1.1,0,0,0,0,1.1v3A1.1,1.1,0,0,0,1.1,5.2H9.869a1.1,1.1,0,0,0,.753-.3l.025-.022A1.1,1.1,0,0,0,10.97,4.1v-3A1.1,1.1,0,0,0,9.869,0Z" transform="translate(94.523 0.37)" fill="#4285f4" fill-rule="evenodd"/>
      </g>
    </g>
    <g id="Group_4832" data-name="Group 4832" transform="translate(1249 -1465)">
      <ellipse id="Ellipse_2" data-name="Ellipse 2" cx="38.513" cy="22.236" rx="38.513" ry="22.236" transform="translate(995.093 1111.129)" fill="url(#linear-gradient)"/>
      <path id="Path_977" data-name="Path 977" d="M4217.088,3006.038s-9.83-29.7-9.771-30.462,9.882-3.466,9.882-3.466l7.515,36.263-3.285,3.876-4.977-4.045Z" transform="translate(-3172.993 -1885.272)" fill="#eaabad"/>
      <path id="Path_978" data-name="Path 978" d="M4238.62,3262.8a2.271,2.271,0,0,1-2.287-.179c-1.127-.8-3.347-2-4.326-1.526s-.421,6.461,1.7,7.7,5.281,1.884,6.4,2.445,3.96,3.165,6.107,2.063.667-8.635.667-8.635-4.131,3.5-7.315.264C4238.388,3263.735,4238.62,3262.8,4238.62,3262.8Z" transform="translate(-3194.524 -2142.037)" fill="#2f2755"/>
      <path id="Path_979" data-name="Path 979" d="M4014.053,3027.375s-3.813-36.687-4.038-39.911,11.593-4.2,11.593-4.2l-.684,50.64-3.5,2.139-5.406-4.627Z" transform="translate(-2997.623 -1895.184)" fill="#eaabad"/>
      <path id="Path_980" data-name="Path 980" d="M3964.514,2560.159a6.441,6.441,0,0,1-.383.846,14.419,14.419,0,0,1-2.9,3.479l.683,1.529,1.294,2.905c.022,2.023-7.921,11.423-18.041,15.637s-32.054-3.471-32.054-3.471l1.538-6.068a5.256,5.256,0,0,1-3.25-1.633v-.008a5.3,5.3,0,0,1-1.214-2.1c6.8-7.612,14.607-46.379,14.607-46.379l23.917.521c3.457,10.747,16.009,32.693,16.009,32.693A3.518,3.518,0,0,1,3964.514,2560.159Z" transform="translate(-2908.899 -1487.781)" fill="#34a853"/>
      <path id="Path_981" data-name="Path 981" d="M3967.572,3370.74a6.194,6.194,0,0,1-4.437-.345c-1.936-1.133-4.081-1.08-4.943.052s-.463,2.813.493,4.391,10.628,8.026,12.537,8.652,4.474-.129,4.617-1.963a41.884,41.884,0,0,0-.429-5.983s-3.779,2.967-6.351-.083S3967.572,3370.74,3967.572,3370.74Z" transform="translate(-2951.143 -2238.547)" fill="#2f2755"/>
      <path id="Path_982" data-name="Path 982" d="M4027.982,2493.678l-2.062,4.2s17.581,9.385,26.361-1.135l-2.308-4.295Z" transform="translate(-3011.763 -1458.939)" fill="#fbbc05"/>
      <path id="Path_983" data-name="Path 983" d="M3924.363,2722.927a5.246,5.246,0,0,1-3.253-1.634v-.009c12.868-22.346,12.717-29.975,12.717-29.975C3934.176,2698.4,3924.363,2722.927,3924.363,2722.927Z" transform="translate(-2918.605 -1635.69)" fill="#043e14"/>
      <path id="Path_984" data-name="Path 984" d="M4275.06,2702.257l.684,1.53-.059.067L4263.27,2679.9c.556.86,9.083,14.386,14.687,18.873A14.524,14.524,0,0,1,4275.06,2702.257Z" transform="translate(-3222.726 -1625.549)" fill="#043e14"/>
      <path id="Path_985" data-name="Path 985" d="M4014.906,1956.869s2.022,7.433,2.492,8.783c.384,1.105,2.195,1.223,4.447.639s1.9-9.783,1.9-9.783l-8.186-2.308A2.587,2.587,0,0,0,4014.906,1956.869Z" transform="translate(-3001.869 -980.528)" fill="#eaabad"/>
      <path id="Path_986" data-name="Path 986" d="M3970.816,2148.574l-2.306-6.53s-4.812-3.28-6.395-8.1.921-17.4,1.846-18.036,16.342-11.723,16.342-11.723l16.4,27s-3.112,14.791-3.9,16.176C3992.807,2147.346,3985.451,2157.2,3970.816,2148.574Z" transform="translate(-2954.597 -1113.835)" fill="#ea4335"/>
      <path id="Path_988" data-name="Path 988" d="M4060.64,2051.139s3.212,4.267,2.373,8.065l3.076-.274.791-9.65-5.893.859Z" transform="translate(-3042.623 -1065.038)" fill="#eaabad"/>
      <path id="Path_989" data-name="Path 989" d="M3605,2225.417s1.365-3.131,1.286-3.882-1.187-4.114-1.583-4.074-.949.792-.949.792-1.9-4-2.491-3.837-.751,1.5-1.5,1.384a2.867,2.867,0,0,0-1.937.316c-.554.316-.356.989-.912,1.187s-1.186-.119-1.5.118-.259,1.334-.675,1.583-.906-.037-1.264.5,2.492,6.226,4.192,7.495,4.194,2.89,5.261,3.954,15.342,13.452,17.087,13.764S3637.1,2226,3637.1,2226s4.269-3.48-.369-16.374c0,0-15.6,22.266-16.48,23.336S3605,2225.417,3605,2225.417Z" transform="translate(-2627.368 -1207.562)" fill="#eaabad"/>
      <path id="Path_990" data-name="Path 990" d="M4001.252,1858.273s.023-1.661,1.583-1.245,2.174,5.447.315,5.576c0,0,7.04,6.208-2.137,22.457s.445,20.755,5.762,21.235,7.607,4.746,11.088,4.35,7.782-10.081,9.188-10.7,7-.061,7.767-4.254,3.415-4.54,1.536-8.519-12.674-12.286-14.453-28.541-11.4-18.344-19.286-16.7-7.7,13.405-3.259,15.714C4001.331,1858.669,4001.252,1858.273,4001.252,1858.273Z" transform="translate(-2985.427 -880.332)" fill="#707070"/>
    </g>
    <g id="Group_4840" data-name="Group 4840" transform="translate(-72 92)">
      <g id="Group_4836" data-name="Group 4836">
        <rect id="Rectangle_1096" data-name="Rectangle 1096" width="65.08" height="47.214" rx="13" transform="translate(2263.351 -705.296)" fill="#4285f4"/>
        <path id="Path_11132" data-name="Path 11132" d="M591,268.16v34.366l17.515-14.255Z" transform="translate(1672.351 -946.349)" fill="#4285f4"/>
      </g>
      <path id="Icon_awesome-user-alt" data-name="Icon awesome-user-alt" d="M16.094,18.106A9.053,9.053,0,1,0,7.041,9.053,9.055,9.055,0,0,0,16.094,18.106Zm8.047,2.012H20.677a10.944,10.944,0,0,1-9.166,0H8.047A8.046,8.046,0,0,0,0,28.164V29.17a3.018,3.018,0,0,0,3.018,3.018H29.17a3.018,3.018,0,0,0,3.018-3.018V28.164A8.046,8.046,0,0,0,24.141,20.117Z" transform="translate(2280.129 -697.292)" fill="#fff"/>
    </g>
    <g id="Group_4841" data-name="Group 4841" transform="translate(-193 190)">
      <g id="Group_4837" data-name="Group 4837" transform="translate(112 -13)">
        <rect id="Rectangle_1096-2" data-name="Rectangle 1096" width="65.08" height="47.214" rx="13" transform="translate(2263.351 -705.296)" fill="#34a853"/>
        <path id="Path_11132-2" data-name="Path 11132" d="M591,268.16v34.366l17.515-14.255Z" transform="translate(1672.351 -946.349)" fill="#34a853"/>
      </g>
      <path id="Icon_metro-bubble" data-name="Icon metro-bubble" d="M17.995,3.856c-8.519,0-15.424,5.611-15.424,12.532S9.476,28.92,17.995,28.92a19.05,19.05,0,0,0,2.4-.152c3.313,3.313,7.268,3.907,11.091,3.995v-.811c-2.065-1.012-3.856-2.854-3.856-4.96a5.818,5.818,0,0,1,.065-.864,11.8,11.8,0,0,0,5.719-9.74c0-6.921-6.906-12.532-15.424-12.532Z" transform="translate(2389.452 -711.869)" fill="#fff"/>
    </g>
    <g id="Group_4843" data-name="Group 4843" transform="translate(21 5.693)">
      <path id="Icon_metro-user" data-name="Icon metro-user" d="M50.984,54.358V49.927c6.4-3.335,11.621-11.65,11.621-19.966,0-13.353,0-24.177-17.432-24.177S27.741,16.609,27.741,29.961c0,8.316,5.221,16.631,11.621,19.966v4.431C19.652,55.848,4.5,64.8,4.5,75.63H85.848c0-10.827-15.153-19.782-34.864-21.272Z" transform="translate(2090.339 -491.608)" fill="#fbbc05"/>
      <path id="Icon_metro-user-2" data-name="Icon metro-user" d="M50.984,52.5V48.241c6.4-3.208,11.621-11.2,11.621-19.2,0-12.843,0-23.254-17.432-23.254S27.741,16.2,27.741,29.038c0,8,5.221,16,11.621,19.2V52.5C19.652,53.935,4.5,62.548,4.5,72.962H85.848c0-10.413-15.153-19.026-34.864-20.459Z" transform="translate(2087.339 -488.94)" fill="#fbc426"/>
    </g>
    <g id="Group_4845" data-name="Group 4845" transform="translate(-291 66)">
      <g id="Group_4839" data-name="Group 4839" transform="translate(2355.351 -570.296)">
        <rect id="Rectangle_1096-3" data-name="Rectangle 1096" width="65.08" height="47.214" rx="13" transform="translate(0)" fill="#4285f4"/>
        <path id="Path_11132-3" data-name="Path 11132" d="M608.515,268.16v34.366L591,288.27Z" transform="translate(-543.436 -241.053)" fill="#4285f4"/>
      </g>
      <g id="Icon_feather-more-horizontal" data-name="Icon feather-more-horizontal" transform="translate(2366.138 -564.559)">
        <path id="Path_11133" data-name="Path 11133" d="M20.475,18.488A1.988,1.988,0,1,1,18.488,16.5,1.988,1.988,0,0,1,20.475,18.488Z" transform="translate(3.414)" fill="#fff" stroke="#fff" stroke-linecap="round" stroke-linejoin="round" stroke-width="3"/>
        <path id="Path_11134" data-name="Path 11134" d="M30.975,18.488A1.988,1.988,0,1,1,28.988,16.5,1.988,1.988,0,0,1,30.975,18.488Z" transform="translate(6.827)" fill="#fff" stroke="#fff" stroke-linecap="round" stroke-linejoin="round" stroke-width="3"/>
        <path id="Path_11135" data-name="Path 11135" d="M9.975,18.488A1.988,1.988,0,1,1,7.988,16.5,1.988,1.988,0,0,1,9.975,18.488Z" fill="#fff" stroke="#fff" stroke-linecap="round" stroke-linejoin="round" stroke-width="3"/>
      </g>
    </g>
    <path id="Icon_zocial-email" data-name="Icon zocial-email" d="M.072,47.846V8.322q0-.069.206-1.3l23.261,19.9L.346,49.218a5.815,5.815,0,0,1-.274-1.372ZM3.16,4.274a2.957,2.957,0,0,1,1.166-.206H66.974a3.885,3.885,0,0,1,1.235.206L44.879,24.241l-3.088,2.47-6.107,5.009-6.107-5.009-3.088-2.47Zm.069,47.62,23.4-22.438L35.684,36.8l9.057-7.342,23.4,22.438a3.294,3.294,0,0,1-1.166.206H4.326a3.108,3.108,0,0,1-1.1-.206Zm44.6-24.977,23.193-19.9a4.1,4.1,0,0,1,.206,1.3V47.846a5.259,5.259,0,0,1-.206,1.372Z" transform="translate(2119.799 -579.96)" fill="#fbbc05"/>
    <g id="Group_4846" data-name="Group 4846" transform="translate(-296 51)">
      <g id="Group_4838" data-name="Group 4838" transform="translate(2350.351 -644.296)">
        <rect id="Rectangle_1096-4" data-name="Rectangle 1096" width="65.08" height="47.214" rx="13" transform="translate(0)" fill="#ea4335"/>
        <path id="Path_11132-4" data-name="Path 11132" d="M608.515,268.16v34.366L591,288.27Z" transform="translate(-543.436 -241.053)" fill="#ea4335"/>
      </g>
      <path id="Icon_awesome-heart" data-name="Icon awesome-heart" d="M25.53,3.939a7.552,7.552,0,0,0-10.3.751L14.137,5.812,13.049,4.69a7.552,7.552,0,0,0-10.3-.751A7.93,7.93,0,0,0,2.2,15.421L12.884,26.455a1.731,1.731,0,0,0,2.5,0L26.072,15.421A7.925,7.925,0,0,0,25.53,3.939Z" transform="translate(2368.539 -634.557)" fill="#fff"/>
    </g>
  </g>
</svg>
