<svg xmlns="http://www.w3.org/2000/svg" xmlns:xlink="http://www.w3.org/1999/xlink" width="375.507" height="404.108" viewBox="0 0 375.507 404.108">
  <defs>
    <linearGradient id="linear-gradient" x1="0.5" x2="0.5" y2="1" gradientUnits="objectBoundingBox">
      <stop offset="0" stop-color="#eff6ff"/>
      <stop offset="1" stop-color="#c4d8fb"/>
    </linearGradient>
  </defs>
  <g id="Group_6147" data-name="Group 6147" transform="translate(-610.547 -1868)">
    <g id="Group_5729" data-name="Group 5729" transform="translate(-10529 2593)">
      <path id="Rectangle_1012" data-name="Rectangle 1012" d="M20.4,0H155.032a20.661,20.661,0,0,1,20.4,20.907V342.156a20.661,20.661,0,0,1-20.4,20.907H20.4A20.661,20.661,0,0,1,0,342.155V20.907A20.661,20.661,0,0,1,20.4,0Z" transform="translate(11237.306 -725)" fill="#213458"/>
      <path id="Path_11118" data-name="Path 11118" d="M17.915,0H155.743a17.916,17.916,0,0,1,17.916,17.916V340.908a17.915,17.915,0,0,1-17.915,17.915H17.915A17.915,17.915,0,0,1,0,340.908V17.915A17.915,17.915,0,0,1,17.915,0Z" transform="translate(11235.101 -720.761)" fill="#4285f4" stroke="#34a853" stroke-width="0.2"/>
      <path id="Path_11117" data-name="Path 11117" d="M1.568,0h152.76A1.568,1.568,0,0,1,155.9,1.568v279.8a1.568,1.568,0,0,1-1.568,1.568H1.568A1.568,1.568,0,0,1,0,281.363V1.568A1.568,1.568,0,0,1,1.568,0Z" transform="translate(11244.164 -684.558)" fill="#fff" stroke="#d5d5d5" stroke-width="0.2"/>
      <path id="Path_7953" data-name="Path 7953" d="M9.982,3.847A1.923,1.923,0,1,1,9.982,0H45.609a1.923,1.923,0,1,1,0,3.847ZM3.563,0a1.923,1.923,0,1,1,0,3.847H1.924A1.923,1.923,0,1,1,1.924,0Z" transform="translate(11298.163 -701.845)" fill="#fff" fill-rule="evenodd"/>
      <path id="Path_7954" data-name="Path 7954" d="M12.585,25.169A12.584,12.584,0,1,0,0,12.585,12.584,12.584,0,0,0,12.585,25.169Z" transform="translate(11309.346 -395.083)" fill="#fff" fill-rule="evenodd"/>
      <g id="Group_1705" data-name="Group 1705" transform="translate(11253.931 -677.197)">
        <path id="Path_7967" data-name="Path 7967" d="M.465.936A.468.468,0,1,1,.465,0H10.7a.468.468,0,0,1,0,.936Zm0,6.722a.466.466,0,0,1,0-.932H10.7a.466.466,0,0,1,0,.932Zm0-3.361a.468.468,0,1,1,0-.936H10.7a.468.468,0,0,1,0,.936Z" transform="translate(0.003 0)" fill="#4285f4" fill-rule="evenodd"/>
        <path id="Path_7968" data-name="Path 7968" d="M13.725.418ZM1.419.932H7.428V5.769H1.419a.471.471,0,0,1-.341-.142.479.479,0,0,1-.147-.341V1.419A.488.488,0,0,1,1.419.932ZM12.722,0H1.419A1.424,1.424,0,0,0,0,1.419V5.286A1.424,1.424,0,0,0,1.419,6.7h11.3a1.416,1.416,0,0,0,.971-.388l.032-.029a1.419,1.419,0,0,0,.416-1V1.419A1.422,1.422,0,0,0,12.722,0Z" transform="translate(121.857 0.477)" fill="#4285f4" fill-rule="evenodd"/>
      </g>
    </g>
    <ellipse id="floor" cx="187.754" cy="20.755" rx="187.754" ry="20.755" transform="translate(610.547 2230.598)" fill="url(#linear-gradient)"/>
    <path id="Path_5911" data-name="Path 5911" d="M735.436,285.469H663.775a1.932,1.932,0,0,1-1.821-2.554,46.716,46.716,0,0,1,2.439-5.776c6.39-12.741,17.535-21.281,24.836-19.071a7.811,7.811,0,0,1,4.751,4.236.974.974,0,0,0,.744.535,1.057,1.057,0,0,0,.923-.337c6.509-7.214,14.039-10.634,19.653-8.924,4.355,1.326,6.972,5.594,7.17,11.7a1.025,1.025,0,0,0,1.477.895c3.072-1.469,5.963-1.861,8.35-1.136h0c5.6,1.706,7.6,9.344,4.973,19a1.928,1.928,0,0,1-1.833,1.425ZM686.71,258.63c-6.81,0-15.948,7.855-21.5,18.937a45.155,45.155,0,0,0-2.376,5.662,1.018,1.018,0,0,0,.962,1.35h71.661a1.022,1.022,0,0,0,.986-.748c2.486-9.158.732-16.347-4.355-17.9-2.17-.661-4.834-.285-7.7,1.085a1.936,1.936,0,0,1-2.771-1.683c-.182-5.7-2.566-9.66-6.529-10.868-5.274-1.6-12.444,1.714-18.715,8.663a1.98,1.98,0,0,1-1.722.63,1.865,1.865,0,0,1-1.433-1.037,6.834,6.834,0,0,0-4.213-3.765A7.772,7.772,0,0,0,686.71,258.63Z" transform="translate(108.903 1719.151)" fill="#fff"/>
    <path id="Path_5915" data-name="Path 5915" d="M728.357,216.614H702.441a.455.455,0,1,1,0-.907h25.917a.455.455,0,1,1,0,.907Z" transform="translate(84.684 1741.767)" fill="#416ecb"/>
    <rect id="Rectangle_342" data-name="Rectangle 342" width="153.097" height="260.039" transform="translate(715.602 1947.833)" fill="#fff"/>
    <path id="Path_6025" data-name="Path 6025" d="M921.844,275.981H821.606a1.354,1.354,0,0,1,0-2.7H921.844a1.354,1.354,0,1,1,0,2.7Z" transform="translate(13.172 1706.99)" fill="#fff"/>
    <path id="Path_6026" data-name="Path 6026" d="M921.844,300.111H821.606a1.354,1.354,0,0,1,0-2.7H921.844a1.354,1.354,0,1,1,0,2.7Z" transform="translate(13.172 1692.413)" fill="#fff"/>
    <path id="Path_6027" data-name="Path 6027" d="M889.432,324.25H821.5a1.35,1.35,0,0,1,0-2.7h67.932a1.35,1.35,0,0,1,0,2.7Z" transform="translate(13.277 1677.828)" fill="#fff"/>
    <g id="Group_1794" data-name="Group 1794" transform="translate(1790 424)">
      <path id="Path_6142" data-name="Path 6142" d="M856.861,3903.8l-1.3,16.575,36.485-.024-1.082-5.8-18.5-1.074-12.133-12.917Z" transform="translate(-1760.493 -2103.065)" fill="#444"/>
      <path id="Path_6143" data-name="Path 6143" d="M1116.67,2325.371l-8.937,105.037-13.591.973-.191-105.845Z" transform="translate(-2000.224 -627.692)" fill="#ea4335"/>
      <path id="Path_6144" data-name="Path 6144" d="M1234.27,3323.72l-8.96,4.73.025,32.905,5.8-1.083,1.075-18.5,7.212-8.418Z" transform="translate(-2131.296 -1562.778)" fill="#444"/>
      <path id="Path_6145" data-name="Path 6145" d="M604.531,2327.98l24.987,49.929-47.466,31.22-5.127-19.576,27.35-16.129L573.84,2327.98Z" transform="translate(-1480.114 -630.137)" fill="#ea4335"/>
      <path id="Path_6146" data-name="Path 6146" d="M2461.653,1182.614l-13.283-8.707,4.326-21.787,17.968,3.568-4.93,24.827a2.929,2.929,0,0,1-4.081,2.1Z" transform="translate(-3344.406 449.665)" fill="#edbcae"/>
      <path id="Path_6147" data-name="Path 6147" d="M956.456,1053.08l1.32,7.377-2.836.256Z" transform="translate(-1832.521 563.975)" fill="#e79959"/>
      <path id="Path_6148" data-name="Path 6148" d="M2516.475,1499.091a9.563,9.563,0,0,1-5.045-1.821c.19,2.867,4.466,4.737,4.466,4.737Z" transform="translate(-3394.213 126.387)" fill="#fff"/>
      <path id="Path_6149" data-name="Path 6149" d="M2523.633,1344.749c-.233,1.175-.723,2.068-1.093,1.994s-.48-1.085-.247-2.26.722-2.068,1.092-1.995S2523.866,1343.573,2523.633,1344.749Z" transform="translate(-3402.174 271.365)" fill="#272331"/>
      <path id="Path_6150" data-name="Path 6150" d="M2410.247,1026.073c3.793.2,4.653,4.617,2.471,6.811,1.933-.184,3.628.715,3.659,2.615.04,2.319-3.033,4.869-6.463,4.654-2.122-.133-8.682-2.008-9.013-4.11-.57,1.9-1.769,4.38-3.8,5.078-.6.208-2.354,5.8-3.6,5.921-1.049.1-3.53-3.464-4.494-5.547a8.834,8.834,0,0,1-.747-4.045c.07-.984,1.327-3.766,2.662-2.058-.507-2.034-.834-4.2.253-5.9.581-.907,3.82-3.289,4.846-1.355.423-3.559,4.088-6.273,7.369-4.059a19.471,19.471,0,0,1,2.938,3.456S2409.016,1026.008,2410.247,1026.073Z" transform="translate(-3286.31 570.341)" fill="#272331"/>
      <path id="Path_6151" data-name="Path 6151" d="M2485.349,1331.884c-.728,2.12-1.624,3.732-2,3.6s-.094-1.953.634-4.072,1.624-3.733,2-3.6S2486.077,1329.765,2485.349,1331.884Z" transform="translate(-3362.098 285.114)" fill="none" stroke="#4285f4" stroke-miterlimit="10" stroke-width="0.73"/>
      <line id="Line_32" data-name="Line 32" x2="1.102" y2="0.379" transform="translate(-876.748 1616.998)" fill="none" stroke="#4285f4" stroke-miterlimit="10" stroke-width="0.73"/>
      <line id="Line_33" data-name="Line 33" x1="16.781" y1="3.768" transform="translate(-894.406 1611.643)" fill="none" stroke="#4285f4" stroke-miterlimit="10" stroke-width="0.73"/>
      <path id="Path_6152" data-name="Path 6152" d="M2747.1,1303.227c-.465,2.345-1.267,5.16-2.748,4.866s-3.076-3.588-2.611-5.93,2.042-4,3.522-3.71S2747.565,1300.884,2747.1,1303.227Z" transform="translate(-3639.557 312.636)" fill="#edbcae"/>
      <path id="Path_6153" data-name="Path 6153" d="M2259.78,1524.527c-1.5,4.908-3.739,11.017-9.079,8.677-.453-.2,1.606-8.145,5.789-12.789l.5-6.479C2259.1,1513.7,2260.193,1523.171,2259.78,1524.527Z" transform="translate(-3121.077 110.781)" fill="#edbcae"/>
      <path id="Path_6154" data-name="Path 6154" d="M2328.385,1593.283c.436-.776,1.394-2.146,2.139-2s-.9,3.447-.9,3.447l.132,2.788-1.349,4.056S2326.655,1596.356,2328.385,1593.283Z" transform="translate(-3196.808 38.345)" fill="#edbcae"/>
      <rect id="Rectangle_362" data-name="Rectangle 362" width="1.466" height="17.227" transform="matrix(0.967, 0.253, -0.253, 0.967, -863.449, 1621.863)" fill="#4285f4"/>
      <path id="Path_6155" data-name="Path 6155" d="M781.423,1435.923l-8.413-3L782.083,1402l6.921,3.494Z" transform="translate(-1652.221 237.165)" fill="#fbbc05"/>
      <line id="Line_45" data-name="Line 45" transform="translate(-867.454 1645.995)" fill="none" stroke="#fff" stroke-miterlimit="10" stroke-width="0.33" opacity="0.54"/>
      <path id="Path_6156" data-name="Path 6156" d="M1144.765,1102.434H1134.24V1085.14l10.525,3.073Z" transform="translate(-2030.873 533.947)" fill="#edbcae"/>
      <path id="Path_6157" data-name="Path 6157" d="M998.842,1405.782H968.15v-59.126l8.918-3.816,21.773,6.387Z" transform="translate(-1874.424 292.577)" fill="#fbbc05"/>
      <path id="Path_6158" data-name="Path 6158" d="M1130.052,1279.427l-12.292-4.238v-4.62l12.292,4.057Z" transform="translate(-2015.116 360.267)" fill="#fbbc05"/>
      <line id="Line_47" data-name="Line 47" y2="4.663" transform="translate(-895.495 1631.687)" fill="none" stroke="#fff" stroke-miterlimit="10" stroke-width="0.33" opacity="0.54"/>
      <line id="Line_48" data-name="Line 48" y2="4.556" transform="translate(-893.416 1632.418)" fill="none" stroke="#fff" stroke-miterlimit="10" stroke-width="0.33" opacity="0.54"/>
      <line id="Line_49" data-name="Line 49" y2="4.538" transform="translate(-891.338 1633.059)" fill="none" stroke="#fff" stroke-miterlimit="10" stroke-width="0.33" opacity="0.54"/>
      <line id="Line_50" data-name="Line 50" y2="4.476" transform="translate(-889.259 1633.745)" fill="none" stroke="#fff" stroke-miterlimit="10" stroke-width="0.33" opacity="0.54"/>
      <line id="Line_51" data-name="Line 51" y2="4.203" transform="translate(-887.181 1634.643)" fill="none" stroke="#fff" stroke-miterlimit="10" stroke-width="0.33" opacity="0.54"/>
      <path id="Path_6159" data-name="Path 6159" d="M2456.966,1577.185c.469-1.665,3.811-6.97,5.434-4.586.357.524-.38.722-.968.955-1.8.71-2.337,4.674-2.337,4.674C2458.972,1578.248,2456.274,1578.466,2456.966,1577.185Z" transform="translate(-3336.773 56.399)" fill="#edbcae"/>
      <path id="Path_6160" data-name="Path 6160" d="M2450.811,1633.67c-1.838,4.791-4.27,7.741-9.433,5.032-.438-.229,1.284-4.447,3.066-8.574a5.364,5.364,0,0,1,3.945-1.609C2450.5,1628.43,2451.319,1632.35,2450.811,1633.67Z" transform="translate(-3324.252 3.457)" fill="#edbcae"/>
      <path id="Path_6162" data-name="Path 6162" d="M1103.486,1410.35l-11.121,18.48L1084.4,1417.6" transform="translate(-1986.435 229.345)" fill="none" stroke="#fff" stroke-miterlimit="10" stroke-width="0.33" opacity="0.54"/>
      <path id="Path_6163" data-name="Path 6163" d="M1006.693,1465.53l-16.472,27.091-12.9-17.463" transform="translate(-1882.857 177.662)" fill="none" stroke="#fff" stroke-miterlimit="10" stroke-width="0.33" opacity="0.54"/>
    </g>
    <g id="Group_1793" data-name="Group 1793" transform="translate(1793 366)">
      <path id="Path_6181" data-name="Path 6181" d="M3387.67,2557.46l16.513,117.789h19.93l.515-117.789Z" transform="translate(-4511.587 -811.156)" fill="#ea4335"/>
      <path id="Path_6164" data-name="Path 6164" d="M5119.493,1459.138c3.2,4.688,6.534,9.909,5.947,15.552-.442,4.254-3.089,7.962-6.061,11.038-1.139,1.178-2.434,2.542-2.26,4.175.2,1.876,2.233,2.952,4.063,3.414a15.661,15.661,0,0,0,10.1-.649,11.528,11.528,0,0,0,6.571-7.487c1.031-4.113-.626-8.415-2.712-12.106a51.423,51.423,0,0,0-13.377-15.424Z" transform="translate(-6243.183 170.589)" fill="#3e3577"/>
      <path id="Path_6165" data-name="Path 6165" d="M5058.132,1491.855l16-10.485-5.209-26.24-21.636,4.3,5.936,29.9a3.526,3.526,0,0,0,4.914,2.532Z" transform="translate(-6173.414 172.902)" fill="#edbcae"/>
      <path id="Path_6166" data-name="Path 6166" d="M3810.61,1339.43l-1.59,8.883,3.415.308Z" transform="translate(-4933.945 306.996)" fill="#e79959"/>
      <path id="Path_6167" data-name="Path 6167" d="M5241.92,1778.563a11.521,11.521,0,0,0,6.075-2.193c-.227,3.451-5.378,5.7-5.378,5.7Z" transform="translate(-6363.242 -121.996)" fill="#fff"/>
      <path id="Path_6168" data-name="Path 6168" d="M5282.93,1635.066c.281,1.415.87,2.491,1.313,2.4s.578-1.307.3-2.722-.869-2.49-1.312-2.4S5282.649,1633.652,5282.93,1635.066Z" transform="translate(-6403.285 10.225)" fill="#272331"/>
      <path id="Path_6169" data-name="Path 6169" d="M3786.544,1292.39l-1.453.323,1.962.509Z" transform="translate(-4906.601 350.179)" fill="#272331"/>
      <path id="Path_6170" data-name="Path 6170" d="M3529.251,1390.085h12.674V1369.26l-12.674,3.7Z" transform="translate(-4640.494 279.612)" fill="#edbcae"/>
      <path id="Path_6171" data-name="Path 6171" d="M4921.982,1384.906a6.784,6.784,0,0,0,6.2,3.772c3.112-.264,5.691-3.217,8.8-2.88a6.118,6.118,0,0,1,4.061,2.631,27.321,27.321,0,0,1,2.352,4.38,7.485,7.485,0,0,0,1.7,2.46,2.964,2.964,0,0,0,2.788.708c.561-.188,1.148-.6,1.681-.343.482.234,4.8,2.144,4.751,2.677-.165,1.787-7.687,9.266-1.414,12.4.883.44,1.92-.453,2.788-.922a18.29,18.29,0,0,0,7.636-7.916,3.987,3.987,0,0,0,.492-3.085,6.8,6.8,0,0,0-1.524-1.921c-2.233-2.51-2.114-6.248-2.105-9.608.012-4.09-.389-8.364-2.564-11.831s-6.587-5.817-10.448-4.464a28.187,28.187,0,0,0-4.284,2.405,5.748,5.748,0,0,1-4.7.78,9.941,9.941,0,0,1-2.287-1.5,10.57,10.57,0,0,0-4.658-2C4923.312,1369.454,4918.444,1378.328,4921.982,1384.906Z" transform="translate(-6052.88 250.559)" fill="#444"/>
      <rect id="Rectangle_363" data-name="Rectangle 363" width="1.765" height="20.744" transform="matrix(-0.967, 0.253, -0.253, -0.967, -1134.496, 1672.984)" fill="#272331"/>
      <path id="Path_6173" data-name="Path 6173" d="M5438.644,1812.185c1.8,5.911,3.155,14.111,9.586,11.294.544-.239-4.808-6.107-6.97-15.4l-.607-7.8C5438.121,1799.992,5438.146,1810.554,5438.644,1812.185Z" transform="translate(-6579.626 -143.937)" fill="#edbcae"/>
      <path id="Path_6174" data-name="Path 6174" d="M5441.662,1886.143c-.526-.934-1.675-2.583-2.576-2.412s1.083,4.149,1.083,4.149l-1.318,4.375,5.616,7.829S5443.743,1889.845,5441.662,1886.143Z" transform="translate(-6575.862 -220.542)" fill="#edbcae"/>
      <path id="Path_6175" data-name="Path 6175" d="M3793.848,1739.661l10.131-3.618L3792.13,1705.3l-7.039-3.392Z" transform="translate(-4923.526 -25.761)" fill="#edbcae"/>
      <path id="Path_6176" data-name="Path 6176" d="M3391.6,1695.963h36.958V1622.79l-8.834-3.78-15.451.346-12.674,11.006-3.933,11.109,3.933,9.887Z" transform="translate(-4515.521 50.341)" fill="#fff"/>
      <path id="Path_6177" data-name="Path 6177" d="M5030.378,1950.738s-4.607,4.264-11.854,11.352H5004.66l10.267-11.006s8.125-.879,12.675-1.084Z" transform="translate(-6126.17 -281.388)" fill="#edbcae"/>
      <path id="Path_6178" data-name="Path 6178" d="M5262.205,1851.134c.929,6.446,3.107,10.781,10.258,8.88.607-.164-7.207-8.336-8.011-11.017l.931-7.752C5262.792,1840.54,5261.948,1849.354,5262.205,1851.134Z" transform="translate(-6389.404 -181.513)" fill="#edbcae"/>
      <path id="Path_6179" data-name="Path 6179" d="M4949.69,2015.666l7.6,17.522,9.686-12.662,9.136,5.727L4954.008,2050s-9.125-28.644-13.718-39.24Z" transform="translate(-6066.631 -337.166)" fill="#edbcae"/>
      <path id="Path_6180" data-name="Path 6180" d="M3416.514,3993.91l-5.9,7.716-16.665,2.541v6.881h35.743V3993.91Z" transform="translate(-4517.168 -2129.817)" fill="#444"/>
    </g>
    <g id="Group_1791" data-name="Group 1791" transform="translate(1227 358)">
      <path id="Path_8269" data-name="Path 8269" d="M22.927,0A22.927,22.927,0,1,1,0,22.927,22.927,22.927,0,0,1,22.927,0Z" transform="translate(-507.028 1667.93)" fill="#ffc023"/>
      <ellipse id="Ellipse_209" data-name="Ellipse 209" cx="2.541" cy="6.621" rx="2.541" ry="6.621" transform="translate(-479.166 1684.236)" fill="#3e3577"/>
      <path id="Path_6182" data-name="Path 6182" d="M4681.432,2092.714c0-1.158-1.422-4.194-3.176-4.194s-3.176,3.034-3.176,4.194,1.421,0,3.176,0S4681.432,2093.871,4681.432,2092.714Z" transform="translate(-5169.198 -400.55)" fill="#3e3577"/>
      <path id="Path_6183" data-name="Path 6183" d="M4521.561,2242.39c0,1.582,3.995,5.727,8.922,5.727s8.923-4.145,8.923-5.727-4,0-8.923,0S4521.561,2240.81,4521.561,2242.39Z" transform="translate(-5014.584 -541.157)" fill="#3e3577"/>
      <path id="Path_6184" data-name="Path 6184" d="M4567.441,2280.9c0,5.361,2.311,9.708,5.16,9.708s5.161-4.346,5.161-9.708Z" transform="translate(-5056.702 -577.154)" fill="#e79959"/>
    </g>
    <g id="Group_1789" data-name="Group 1789" transform="translate(1270 406)">
      <ellipse id="Ellipse_210" data-name="Ellipse 210" cx="14.775" cy="14.775" rx="14.775" ry="14.775" transform="translate(-498.876 1559.437)" fill="#ffc023"/>
      <ellipse id="Ellipse_211" data-name="Ellipse 211" cx="1.638" cy="4.267" rx="1.638" ry="4.267" transform="translate(-479.989 1569.944)" fill="#3e3577"/>
      <ellipse id="Ellipse_212" data-name="Ellipse 212" cx="1.638" cy="4.267" rx="1.638" ry="4.267" transform="translate(-491.489 1569.944)" fill="#3e3577"/>
      <path id="Path_6185" data-name="Path 6185" d="M4560.261,779.079c0,1.019,2.575,3.69,5.75,3.69s5.75-2.672,5.75-3.69-2.574,0-5.75,0S4560.261,778.059,4560.261,779.079Z" transform="translate(-5050.111 801.934)" fill="#3e3577"/>
    </g>
    <g id="Group_5787" data-name="Group 5787" transform="translate(806.112 1971.233)">
      <rect id="Rectangle_1318" data-name="Rectangle 1318" width="142.576" height="37.398" rx="7.56" transform="translate(0)" fill="#34a853"/>
      <path id="Path_13270" data-name="Path 13270" d="M3446.63,2980.843l8.579,26.6,16.52-27.233Z" transform="translate(-3430.837 -2952.749)" fill="#34a853"/>
      <g id="Group_5786" data-name="Group 5786" transform="translate(15.543 10.444)">
        <rect id="Rectangle_1319" data-name="Rectangle 1319" width="25.317" height="5.131" rx="1.2" transform="translate(87.721 11.686)" fill="#fff"/>
        <rect id="Rectangle_1320" data-name="Rectangle 1320" width="25.317" height="5.131" rx="1.2" transform="translate(47.473 11.686)" fill="#fff"/>
        <rect id="Rectangle_1321" data-name="Rectangle 1321" width="44.513" height="5.131" rx="1.2" transform="translate(0.563 11.686)" fill="#fff"/>
        <rect id="Rectangle_1322" data-name="Rectangle 1322" width="34.916" height="5.131" rx="1.2" transform="translate(76.575)" fill="#fff"/>
        <rect id="Rectangle_1323" data-name="Rectangle 1323" width="44.513" height="5.131" rx="1.2" transform="translate(18.115)" fill="#fff"/>
        <rect id="Rectangle_1324" data-name="Rectangle 1324" width="15.718" height="5.131" rx="1.2" transform="translate(0)" fill="#fff"/>
      </g>
    </g>
    <g id="Group_1790" data-name="Group 1790" transform="translate(1198 395)">
      <circle id="Ellipse_214" data-name="Ellipse 214" cx="13.422" cy="13.422" r="13.422" transform="translate(-370.18 1647.188) rotate(-135)" fill="#ffc023"/>
      <path id="Path_6189" data-name="Path 6189" d="M3159.231,1316.306c0,2.141.666,3.877,1.488,3.877s1.487-1.736,1.487-3.877-.666-3.876-1.487-3.876S3159.231,1314.165,3159.231,1316.306Z" transform="translate(-3525.673 311.901)" fill="#3e3577"/>
      <path id="Path_6190" data-name="Path 6190" d="M3286.63,1316.306c0,2.141.666,3.877,1.487,3.877s1.488-1.736,1.488-3.877-.666-3.876-1.488-3.876S3286.63,1314.165,3286.63,1316.306Z" transform="translate(-3663.52 311.901)" fill="#3e3577"/>
      <ellipse id="Ellipse_215" data-name="Ellipse 215" cx="2.293" cy="2.293" rx="2.293" ry="2.293" transform="translate(-372.471 1632.084)" fill="#3e3577"/>
    </g>
    <g id="Group_5788" data-name="Group 5788" transform="translate(670.112 1924.233)">
      <rect id="Rectangle_1318-2" data-name="Rectangle 1318" width="142.576" height="37.398" rx="7.56" transform="translate(0)" fill="#fbbc05"/>
      <path id="Path_13270-2" data-name="Path 13270" d="M3471.729,2980.843l-8.579,26.6-16.52-27.233Z" transform="translate(-3344.946 -2952.749)" fill="#fbbc05"/>
      <g id="Group_5786-2" data-name="Group 5786" transform="translate(13.996 10.444)">
        <rect id="Rectangle_1319-2" data-name="Rectangle 1319" width="25.317" height="5.131" rx="1.2" transform="translate(0 11.686)" fill="#fff"/>
        <rect id="Rectangle_1320-2" data-name="Rectangle 1320" width="25.317" height="5.131" rx="1.2" transform="translate(40.248 11.686)" fill="#fff"/>
        <rect id="Rectangle_1321-2" data-name="Rectangle 1321" width="44.513" height="5.131" rx="1.2" transform="translate(67.962 11.686)" fill="#fff"/>
        <rect id="Rectangle_1322-2" data-name="Rectangle 1322" width="34.916" height="5.131" rx="1.2" transform="translate(1.547)" fill="#fff"/>
        <rect id="Rectangle_1323-2" data-name="Rectangle 1323" width="44.513" height="5.131" rx="1.2" transform="translate(50.41)" fill="#fff"/>
        <rect id="Rectangle_1324-2" data-name="Rectangle 1324" width="15.718" height="5.131" rx="1.2" transform="translate(97.32)" fill="#fff"/>
      </g>
    </g>
    <g id="Group_5789" data-name="Group 5789" transform="translate(806.112 1971.233)">
      <rect id="Rectangle_1318-3" data-name="Rectangle 1318" width="142.576" height="37.398" rx="7.56" transform="translate(0)" fill="#34a853"/>
      <path id="Path_13270-3" data-name="Path 13270" d="M3446.63,2980.843l8.579,26.6,16.52-27.233Z" transform="translate(-3430.837 -2952.749)" fill="#34a853"/>
      <g id="Group_5786-3" data-name="Group 5786" transform="translate(15.543 10.444)">
        <rect id="Rectangle_1319-3" data-name="Rectangle 1319" width="25.317" height="5.131" rx="1.2" transform="translate(87.721 11.686)" fill="#fff"/>
        <rect id="Rectangle_1320-3" data-name="Rectangle 1320" width="25.317" height="5.131" rx="1.2" transform="translate(47.473 11.686)" fill="#fff"/>
        <rect id="Rectangle_1321-3" data-name="Rectangle 1321" width="44.513" height="5.131" rx="1.2" transform="translate(0.563 11.686)" fill="#fff"/>
        <rect id="Rectangle_1322-3" data-name="Rectangle 1322" width="34.916" height="5.131" rx="1.2" transform="translate(76.575)" fill="#fff"/>
        <rect id="Rectangle_1323-3" data-name="Rectangle 1323" width="44.513" height="5.131" rx="1.2" transform="translate(18.115)" fill="#fff"/>
        <rect id="Rectangle_1324-3" data-name="Rectangle 1324" width="15.718" height="5.131" rx="1.2" transform="translate(0)" fill="#fff"/>
      </g>
    </g>
    <g id="Group_5790" data-name="Group 5790" transform="translate(683.112 2141.233)">
      <rect id="Rectangle_1318-4" data-name="Rectangle 1318" width="142.576" height="37.398" rx="7.56" transform="translate(0)" fill="#fbbc05"/>
      <path id="Path_13270-4" data-name="Path 13270" d="M3471.729,2980.843l-8.579,26.6-16.52-27.233Z" transform="translate(-3344.946 -2952.749)" fill="#fbbc05"/>
      <g id="Group_5786-4" data-name="Group 5786" transform="translate(13.996 10.444)">
        <rect id="Rectangle_1319-4" data-name="Rectangle 1319" width="25.317" height="5.131" rx="1.2" transform="translate(0 11.686)" fill="#fff"/>
        <rect id="Rectangle_1320-4" data-name="Rectangle 1320" width="25.317" height="5.131" rx="1.2" transform="translate(40.248 11.686)" fill="#fff"/>
        <rect id="Rectangle_1321-4" data-name="Rectangle 1321" width="44.513" height="5.131" rx="1.2" transform="translate(67.962 11.686)" fill="#fff"/>
        <rect id="Rectangle_1322-4" data-name="Rectangle 1322" width="34.916" height="5.131" rx="1.2" transform="translate(1.547)" fill="#fff"/>
        <rect id="Rectangle_1323-4" data-name="Rectangle 1323" width="44.513" height="5.131" rx="1.2" transform="translate(50.41)" fill="#fff"/>
        <rect id="Rectangle_1324-4" data-name="Rectangle 1324" width="15.718" height="5.131" rx="1.2" transform="translate(97.32)" fill="#fff"/>
      </g>
    </g>
    <g id="Group_1792" data-name="Group 1792" transform="translate(1173 341)">
      <path id="Path_8270" data-name="Path 8270" d="M22.927,0A22.927,22.927,0,1,1,0,22.927,22.927,22.927,0,0,1,22.927,0Z" transform="translate(-383.628 1765.608)" fill="#ffc023"/>
      <path id="Path_6186" data-name="Path 6186" d="M2946.879,3241.229c1.266-.441,3.2,1.794,4.4,5.032,1.29-3.2,3.287-5.382,4.541-4.906,1.295.492,1.3,3.627.022,7s-3.28,5.238-4.667,5.219-3.331-1.939-4.517-5.348S2945.57,3241.684,2946.879,3241.229Z" transform="translate(-3302.766 -1458.686)" fill="#3e3577"/>
      <path id="Path_6187" data-name="Path 6187" d="M3175.238,3241.229c1.268-.441,3.2,1.794,4.4,5.032,1.29-3.2,3.287-5.382,4.541-4.906,1.295.492,1.3,3.627.022,7s-3.28,5.238-4.667,5.219-3.331-1.939-4.517-5.348S3173.93,3241.684,3175.238,3241.229Z" transform="translate(-3549.852 -1458.686)" fill="#3e3577"/>
      <path id="Path_6188" data-name="Path 6188" d="M3016.68,3424.83c0,1.582,4,5.728,8.923,5.728s8.922-4.146,8.922-5.728-4,0-8.922,0S3016.68,3423.25,3016.68,3424.83Z" transform="translate(-3386.304 -1626.637)" fill="#3e3577"/>
    </g>
  </g>
</svg>
