<svg xmlns="http://www.w3.org/2000/svg" xmlns:xlink="http://www.w3.org/1999/xlink" width="338.9" height="305.117" viewBox="0 0 338.9 305.117">
  <defs>
    <linearGradient id="linear-gradient" x1="0.5" x2="0.5" y2="1" gradientUnits="objectBoundingBox">
      <stop offset="0" stop-color="#e9f2fe"/>
      <stop offset="1" stop-color="#c6d9fb"/>
    </linearGradient>
  </defs>
  <g id="Group_4898" data-name="Group 4898" transform="translate(-1860.396 679.104)">
    <ellipse id="floor" cx="167.666" cy="22.999" rx="167.666" ry="22.999" transform="translate(1863.963 -419.986)" fill="url(#linear-gradient)"/>
    <g id="Group_4870" data-name="Group 4870" transform="translate(25 962)">
      <path id="Rectangle_1012" data-name="Rectangle 1012" d="M15.828,0H120.257a16.026,16.026,0,0,1,15.828,16.218V265.407a16.027,16.027,0,0,1-15.828,16.218H15.828A16.026,16.026,0,0,1,0,265.406V16.218A16.026,16.026,0,0,1,15.828,0Z" transform="translate(1933.274 -1641.104)" fill="#213458"/>
      <path id="Path_11118" data-name="Path 11118" d="M13.9,0H120.808a13.9,13.9,0,0,1,13.9,13.9V264.439a13.9,13.9,0,0,1-13.9,13.9H13.9A13.9,13.9,0,0,1,0,264.439V13.9A13.9,13.9,0,0,1,13.9,0Z" transform="translate(1931.563 -1637.816)" fill="#4285f4"/>
      <path id="Path_11117" data-name="Path 11117" d="M1.217,0H119.711a1.217,1.217,0,0,1,1.217,1.217V218.252a1.217,1.217,0,0,1-1.217,1.217H1.217A1.217,1.217,0,0,1,0,218.251V1.217A1.217,1.217,0,0,1,1.217,0Z" transform="translate(1938.452 -1608.986)" fill="#fff"/>
      <path id="Path_7953" data-name="Path 7953" d="M7.743,2.984A1.492,1.492,0,1,1,7.743,0H35.379a1.492,1.492,0,1,1,0,2.984ZM2.764,0a1.492,1.492,0,0,1,0,2.984H1.493A1.492,1.492,0,1,1,1.493,0Z" transform="translate(1980.48 -1623.143)" fill="#e6e0de" fill-rule="evenodd"/>
      <path id="Path_7954" data-name="Path 7954" d="M9.762,19.524A9.761,9.761,0,1,0,0,9.762a9.761,9.761,0,0,0,9.762,9.762Z" transform="translate(1989.154 -1385.191)" fill="#fff" fill-rule="evenodd"/>
      <g id="Group_1705" data-name="Group 1705" transform="translate(1946.169 -1604.024)">
        <path id="Path_7967" data-name="Path 7967" d="M.36.726A.363.363,0,1,1,.36,0H8.3a.363.363,0,0,1,0,.726Zm0,5.214a.361.361,0,0,1,0-.723H8.3a.361.361,0,1,1,0,.723Zm0-2.607a.361.361,0,1,1,0-.723H8.3a.363.363,0,0,1,0,.726Z" transform="translate(0.003 0)" fill="#4285f4" fill-rule="evenodd"/>
        <path id="Path_7968" data-name="Path 7968" d="M10.647.324ZM1.1.723H5.762V4.475H1.1a.366.366,0,0,1-.264-.11A.372.372,0,0,1,.723,4.1v-3A.378.378,0,0,1,1.1.723ZM9.869,0H1.1A1.1,1.1,0,0,0,0,1.1v3A1.1,1.1,0,0,0,1.1,5.2H9.869a1.1,1.1,0,0,0,.753-.3l.025-.022A1.1,1.1,0,0,0,10.97,4.1v-3A1.1,1.1,0,0,0,9.869,0Z" transform="translate(94.523 0.37)" fill="#4285f4" fill-rule="evenodd"/>
      </g>
    </g>
    <g id="Group_4897" data-name="Group 4897" transform="translate(-17 31)">
      <rect id="Rectangle_1103" data-name="Rectangle 1103" width="108.08" height="40.214" rx="18.15" transform="translate(1914.746 -680.049)" fill="#bab0b0"/>
      <path id="Path_11234" data-name="Path 11234" d="M478.305,161.38v34.362L460.79,181.487Z" transform="translate(1544.524 -821.322)" fill="#bab0b0"/>
      <path id="Path_11235" data-name="Path 11235" d="M524.51,168.911H435a1.206,1.206,0,0,1,0-2.411H524.51a1.206,1.206,0,1,1,0,2.411Z" transform="translate(1489.035 -836.179)" fill="#fff"/>
      <path id="Path_11236" data-name="Path 11236" d="M524.51,193.041H435a1.206,1.206,0,0,1,0-2.411H524.51a1.206,1.206,0,1,1,0,2.411Z" transform="translate(1489.035 -851.777)" fill="#fff"/>
      <path id="Path_11237" data-name="Path 11237" d="M461.537,217.171H435a1.206,1.206,0,0,1,0-2.411h26.542a1.206,1.206,0,1,1,0,2.411Z" transform="translate(1489.035 -867.376)" fill="#fff"/>
    </g>
    <rect id="Rectangle_1104" data-name="Rectangle 1104" width="108.08" height="40.214" rx="18.15" transform="translate(2051.351 -642.296)" fill="#bab0b0"/>
    <path id="Path_11238" data-name="Path 11238" d="M910.983,275.692H821.469a1.209,1.209,0,0,1,0-2.415h89.514a1.209,1.209,0,1,1,0,2.415Z" transform="translate(1239.163 -905.202)" fill="#fff"/>
    <path id="Path_11239" data-name="Path 11239" d="M910.983,299.822H821.469a1.209,1.209,0,0,1,0-2.415h89.514a1.209,1.209,0,1,1,0,2.415Z" transform="translate(1239.163 -920.801)" fill="#fff"/>
    <path id="Path_11240" data-name="Path 11240" d="M882.02,323.961H821.356a1.206,1.206,0,1,1,0-2.411H882.02a1.206,1.206,0,0,1,0,2.411Z" transform="translate(1239.276 -936.409)" fill="#fff"/>
    <path id="Path_11241" data-name="Path 11241" d="M591,268.16v34.366l17.515-14.255Z" transform="translate(1460.351 -890.349)" fill="#bab0b0"/>
    <rect id="Rectangle_1105" data-name="Rectangle 1105" width="108.08" height="40.214" rx="18.15" transform="translate(1934.591 -495.682)" fill="#bab0b0"/>
    <path id="Path_11242" data-name="Path 11242" d="M534.425,682.84V717.2L516.91,702.947Z" transform="translate(1508.245 -1158.415)" fill="#bab0b0"/>
    <path id="Path_11243" data-name="Path 11243" d="M580.64,690.371H491.126a1.206,1.206,0,0,1,0-2.411H580.64a1.206,1.206,0,0,1,0,2.411Z" transform="translate(1452.75 -1173.272)" fill="#fff"/>
    <path id="Path_11244" data-name="Path 11244" d="M580.64,714.5H491.126a1.206,1.206,0,1,1,0-2.411H580.64a1.206,1.206,0,0,1,0,2.411Z" transform="translate(1452.75 -1188.87)" fill="#fff"/>
    <path id="Path_11245" data-name="Path 11245" d="M566.522,738.591h-75.4a1.206,1.206,0,0,1,0-2.411h75.4a1.206,1.206,0,1,1,0,2.411Z" transform="translate(1452.75 -1204.443)" fill="#fff"/>
    <path id="Path_11287" data-name="Path 11287" d="M785.131,604.7l-2.659-10.437h0a3.016,3.016,0,0,0-2.924-2.27,1.13,1.13,0,0,0-.187,0l-5.943.94-5.926-.94a1.085,1.085,0,0,0-.187,0,3.012,3.012,0,0,0-2.92,2.27L761.721,604.7a1.2,1.2,0,0,0,1.163,1.5h21.083a1.206,1.206,0,0,0,.948-.463A1.192,1.192,0,0,0,785.131,604.7Z" transform="translate(1277.071 -1111.232)" fill="#383943"/>
    <path id="Path_11288" data-name="Path 11288" d="M768,652.962a1.191,1.191,0,0,0-1.531-.707l-9.79,3.5a1.2,1.2,0,0,0,.407,2.33,1.152,1.152,0,0,0,.4-.071l9.786-3.5a1.2,1.2,0,0,0,.725-1.549Z" transform="translate(1280.824 -1150.143)" fill="#383943"/>
    <path id="Path_11289" data-name="Path 11289" d="M810.766,655.68l-9.772-3.5a1.2,1.2,0,1,0-.806,2.256l9.786,3.5a1.14,1.14,0,0,0,.4.071,1.2,1.2,0,0,0,.4-2.33Z" transform="translate(1252.722 -1150.088)" fill="#1e1f24"/>
    <path id="Path_11290" data-name="Path 11290" d="M791.7,662.2h-2.645a1.2,1.2,0,0,0,0,2.4H791.7a1.2,1.2,0,0,0,0-2.4Z" transform="translate(1260.114 -1156.619)" fill="#1e1f24"/>
    <path id="Path_11291" data-name="Path 11291" d="M765.9,662.2H754.853a2.556,2.556,0,0,0-2.553,2.549V669.2a4.413,4.413,0,0,0,4.409,4.405h1.824a9.98,9.98,0,0,0,5.915-1.665,6.464,6.464,0,0,0,2.652-5.455v-3.069a1.2,1.2,0,0,0-1.2-1.216Z" transform="translate(1283.137 -1156.619)" fill="#383943"/>
    <path id="Path_11292" data-name="Path 11292" d="M807.868,662.2H796.809a1.2,1.2,0,0,0-1.2,1.2v3.069a6.455,6.455,0,0,0,2.652,5.455,9.966,9.966,0,0,0,5.915,1.665H806a4.409,4.409,0,0,0,4.416-4.388v-4.451A2.553,2.553,0,0,0,807.868,662.2Z" transform="translate(1255.14 -1156.619)" fill="#1e1f24"/>
    <path id="Path_11293" data-name="Path 11293" d="M806.583,604.7l-2.659-10.437h0a3.016,3.016,0,0,0-2.924-2.27,1.143,1.143,0,0,0-.187,0l-5.943.94v13.248h10.54a1.206,1.206,0,0,0,.948-.463A1.192,1.192,0,0,0,806.583,604.7Z" transform="translate(1255.618 -1111.232)" fill="#1e1f24"/>
    <path id="Path_11294" data-name="Path 11294" d="M774.294,625.58H740.649A3.652,3.652,0,0,0,737,629.225v.057a3.652,3.652,0,0,0,3.649,3.649h33.645a3.652,3.652,0,0,0,3.649-3.649v-.057A3.652,3.652,0,0,0,774.294,625.58Z" transform="translate(1293.027 -1132.947)" fill="#2680eb"/>
    <path id="Path_11295" data-name="Path 11295" d="M811.7,625.58H794.87v7.35H811.7a3.652,3.652,0,0,0,3.649-3.649v-.057A3.652,3.652,0,0,0,811.7,625.58Z" transform="translate(1255.618 -1132.947)" fill="#4285f4"/>
    <path id="Path_11296" data-name="Path 11296" d="M785.1,594.262h0a3.016,3.016,0,0,0-2.924-2.27,1.131,1.131,0,0,0-.187,0l-5.943.94-5.926-.94a1.087,1.087,0,0,0-.187,0,3.012,3.012,0,0,0-2.92,2.27l-1.262,4.95h20.595Z" transform="translate(1274.442 -1111.232)" fill="#2680eb"/>
    <path id="Path_11297" data-name="Path 11297" d="M794.855,599.2h10.289l-1.259-4.95h0a3.016,3.016,0,0,0-2.924-2.27,1.143,1.143,0,0,0-.187,0l-5.943.94Z" transform="translate(1255.644 -1111.226)" fill="#4285f4"/>
    <g id="Group_4896" data-name="Group 4896" transform="translate(3 -3)">
      <path id="Path_11229" data-name="Path 11229" d="M998.124,518.621a8.768,8.768,0,1,0,12.152,2.475A8.768,8.768,0,0,0,998.124,518.621Z" transform="translate(1115.768 -1054.864)" fill="#707070"/>
      <path id="Path_11246" data-name="Path 11246" d="M1036.364,686.1c11.477,7.584,8.888,16.168,21.744,41.133,1.987,3.861,5.01,7.3-1.824,6.159-2.9-.484-33.44-43.134-38.072-57.188-2.758-8.355-9.193-19.227-8.726-27.871.354-6.251,1.117-25.181,12.767-18.251C1039.111,640.112,1028.7,666.661,1036.364,686.1Z" transform="translate(1105.897 -1126.885)" fill="#fbbc05"/>
      <path id="Path_11247" data-name="Path 11247" d="M931.417,520.787c-.5,0-.8,0-1.174-.028l-1.061-.06c-.707-.042-1.365-.1-2.04-.159-1.347-.117-2.677-.279-4-.456q-3.967-.544-7.845-1.414a80.485,80.485,0,0,1-15.076-4.925,55.481,55.481,0,0,1-13.389-8.326,42.431,42.431,0,0,1-5.424-5.59,41.3,41.3,0,0,1-4.207-6.364,1.662,1.662,0,0,1,.728-2.284,1.8,1.8,0,0,1,2.2.449l.057.071a36.77,36.77,0,0,0,10.345,9.009,48.715,48.715,0,0,0,12.728,5.127,70.171,70.171,0,0,0,13.715,1.991c2.312.117,4.632.134,6.933.057,1.149-.046,2.295-.1,3.426-.2l1.672-.156.813-.1c.24-.035.562-.074.679-.106A7.17,7.17,0,0,1,939.337,512a6.833,6.833,0,0,1-4.844,8.521,7.427,7.427,0,0,1-1.927.276Z" transform="translate(1191.525 -1037.938)" fill="#ea4335"/>
      <path id="Path_11248" data-name="Path 11248" d="M1008.685,574.043l-12.855-.909c-1.308-2.966-8.977-37.078,8.906-38.443,11.1-.845,12.728,8.425,12.615,16.5C1017.209,562.644,1008.685,574.043,1008.685,574.043Z" transform="translate(1116.488 -1066.158)" fill="#ea4335"/>
      <path id="Path_11249" data-name="Path 11249" d="M1031.123,540.373c.933,1.039,1.63,1.9,2.39,2.846s1.457,1.856,2.15,2.8c1.414,1.87,2.726,3.78,4.006,5.714a116.536,116.536,0,0,1,6.909,11.982,88.924,88.924,0,0,1,5.151,12.728,67.376,67.376,0,0,1,2.7,13.343,1.711,1.711,0,0,1-1.57,1.853,1.768,1.768,0,0,1-1.856-1.192l-.025-.085a63.508,63.508,0,0,0-4.929-11.71,83.464,83.464,0,0,0-6.986-10.607,109.266,109.266,0,0,0-8.4-9.613c-1.492-1.51-3.019-2.988-4.6-4.4q-1.174-1.061-2.369-2.079c-.771-.658-1.641-1.372-2.312-1.867a6.636,6.636,0,0,1-1.333-9.521,7.223,7.223,0,0,1,9.879-1.287,7.112,7.112,0,0,1,1.025.919Z" transform="translate(1099.983 -1068.254)" fill="#ea4335"/>
      <path id="Path_11250" data-name="Path 11250" d="M1017.309,651.827c0-12.647-5.7-19-5.7-19H994.745c-4.639,11.745,1.386,43.958,1.994,60.423,0,1.315.049,2.63.06,3.942.085,7.881-.025,15.748-.23,23.625s-.654,15.733-1.245,23.6v.057a3.679,3.679,0,0,0,2.408,3.889,3.129,3.129,0,0,0,4.031-2.613c3.486-34.3,13.722-44.9,7.778-58.337C1014.088,667.892,1017.288,664.477,1017.309,651.827Z" transform="translate(1116.537 -1129.633)" fill="#fbbc05"/>
      <path id="Path_11251" data-name="Path 11251" d="M989.66,945.689c.173,2.945-14.931,3.776-15.108.831s5.088-5.629,9.26-5.859S989.486,942.744,989.66,945.689Z" transform="translate(1128.467 -1328.618)" fill="#4285f4"/>
      <path id="Path_11252" data-name="Path 11252" d="M1130.363,916.374c.965,2.8-13.4,7.393-14.362,4.6s3.391-6.718,7.358-7.98S1129.4,913.573,1130.363,916.374Z" transform="translate(1037.114 -1310.478)" fill="#4285f4"/>
      <path id="Path_11253" data-name="Path 11253" d="M1021.272,510.195h0q-.294-4.777-.93-9.49-.318-2.362-.735-4.7c-.138-.785-.286-1.566-.453-2.355-.085-.4-.173-.792-.269-1.2l-.163-.633-.106-.371c-.025-.074-.049-.163-.1-.3l-.064-.156s-.039-.085-.071-.145a1.584,1.584,0,0,0-.117-.187,1.909,1.909,0,0,0-.654-.583,1.994,1.994,0,0,0-.746-.219,1.959,1.959,0,0,0-.824.11,1.682,1.682,0,0,0-.417.216,1.856,1.856,0,0,0-.6.689l-.057.12a2.381,2.381,0,0,0-.081.255,1.683,1.683,0,0,0,.081,1.089v.127l.025.513.025,1.107v2.259c-.035,1.517-.106,3.037-.2,4.554-.195,3.034-.5,6.06-.919,9.048a3.7,3.7,0,1,0,7.379.251Z" transform="translate(1103.052 -1037.206)" fill="#bab0b0"/>
      <path id="Path_11254" data-name="Path 11254" d="M1011.4,535.756c-.29,2.553,5.229,3.921,6.64-.986l1.368,4.967-3.511,4.66-5.2-1.814-1.294-3.019Z" transform="translate(1105.937 -1066.243)" fill="#fff"/>
      <path id="Path_11255" data-name="Path 11255" d="M1013.8,478.513c-1.22,4.971-6.247,8.485-9.589,7.722s-3.727-5.5-2.51-10.476,4.915-8.383,8.256-7.623S1015.019,473.542,1013.8,478.513Z" transform="translate(1111.321 -1023.1)" fill="#bab0b0"/>
      <path id="Path_11256" data-name="Path 11256" d="M1009.506,464.165c.792-2.217.863-8.871-8.224-8.553s-8.012-9.779-1.287-10.557c4.557-.53,5.657,3.133,7.276,4.6.849.771,5.851,1.488,7.223,4.6,2.691,6.11-4.419,16.108-7.092,16.137-1.814,0-.541-1.8-.541-1.8Z" transform="translate(1115.434 -1008.214)" fill="#707070"/>
      <path id="Path_11257" data-name="Path 11257" d="M1032.329,501.8a2.508,2.508,0,0,1-3.15-.134c-.544-.707.138-1.676,1.174-2.422s2.323-.778,2.867-.071S1033.365,501.061,1032.329,501.8Z" transform="translate(1093.275 -1042.905)" fill="#bab0b0"/>
      <path id="Path_11258" data-name="Path 11258" d="M1015.192,518.907a.644.644,0,0,1-.615-.445.615.615,0,0,1,.439-.764,7.852,7.852,0,0,0,1.994-.894.654.654,0,0,1,.884.191.6.6,0,0,1-.194.849,9.193,9.193,0,0,1-2.33,1.039A.612.612,0,0,1,1015.192,518.907Z" transform="translate(1102.606 -1054.566)" fill="#707070"/>
      <path id="Path_11259" data-name="Path 11259" d="M871.829,480.283c-1.124.863-2.556,1.623-4.048-2.284-.831-2.167-2.475-3.412-1.344-4.271s3.242-.088,4.731,1.722S872.953,479.424,871.829,480.283Z" transform="translate(1198.603 -1026.556)" fill="#c4d2f1"/>
      <path id="Path_11260" data-name="Path 11260" d="M865.7,485.082c.354.244.76.495,1.131.707a11.774,11.774,0,0,0,1.124.615,6.977,6.977,0,0,0,1.107.4,6.336,6.336,0,0,1,1.146.4l.081.035a.449.449,0,0,1,.226.612.425.425,0,0,1-.12.152,2.161,2.161,0,0,1-1.694.385,4.949,4.949,0,0,1-1.549-.615,5.962,5.962,0,0,1-1.213-.969,5.587,5.587,0,0,1-.9-1.22.414.414,0,0,1,.184-.566.452.452,0,0,1,.449.025Z" transform="translate(1199.287 -1034.053)" fill="#c4d2f1"/>
      <path id="Path_11261" data-name="Path 11261" d="M1112.67,685.257c-1.414.18-2.988.643-1.121,4.395,1.036,2.082.824,4.084,2.245,3.889s2.326-2.181,2.015-4.473S1114.092,685.08,1112.67,685.257Z" transform="translate(1040.455 -1163.516)" fill="#c4d2f1"/>
      <path id="Path_11262" data-name="Path 11262" d="M1108.312,691.666a5.348,5.348,0,0,1-.279-1.471,5.43,5.43,0,0,1,.124-1.52,4.509,4.509,0,0,1,.619-1.5,2.121,2.121,0,0,1,1.464-.905.47.47,0,0,1,.52.41.431.431,0,0,1-.021.191l-.032.085a5.6,5.6,0,0,1-.5,1.061,6.7,6.7,0,0,0-.474,1.061,12,12,0,0,0-.325,1.206c-.085.414-.177.863-.248,1.283v.035a.44.44,0,0,1-.849.06Z" transform="translate(1042.183 -1164.18)" fill="#c4d2f1"/>
      <path id="Path_11263" data-name="Path 11263" d="M918.949,540.9a.636.636,0,0,1-.619-.463c-2.33-8.659-1.545-18.961-1.3-21.465-.891-.173-1.768-.354-2.662-.559a80.631,80.631,0,0,1-15.2-4.95,56.069,56.069,0,0,1-13.548-8.422,42.851,42.851,0,0,1-5.512-5.657,40.576,40.576,0,0,1-4.292-7.149.6.6,0,0,1,.025-.552.626.626,0,0,1,.47-.311,3.431,3.431,0,0,0,2.224-1.393.651.651,0,0,1,1.061-.078c.049.06,4.833,5.912,8.8,8.461a.6.6,0,0,1,.177.856.658.658,0,0,1-.887.173c-3.394-2.185-7.2-6.488-8.574-8.1a4.724,4.724,0,0,1-1.807,1.1,37.615,37.615,0,0,0,3.811,6.233,41.694,41.694,0,0,0,5.339,5.48,54.924,54.924,0,0,0,13.241,8.231,79.6,79.6,0,0,0,14.948,4.883q1.591.354,3.182.658a.622.622,0,0,1,.513.675c0,.117-1.382,11.922,1.213,21.567a.636.636,0,0,1-.619.774Z" transform="translate(1192.332 -1037.087)" fill="#de3122"/>
      <path id="Path_11264" data-name="Path 11264" d="M1063.487,619.456a.637.637,0,0,1-.612-.428l-.028-.085a62.66,62.66,0,0,0-4.879-11.607,82.243,82.243,0,0,0-6.93-10.533,108.993,108.993,0,0,0-8.344-9.546c-1.633-1.651-3.125-3.083-4.561-4.377a.6.6,0,0,1-.028-.87.654.654,0,0,1,.9-.032c1.453,1.312,2.963,2.758,4.6,4.427a109.812,109.812,0,0,1,8.439,9.652,83.313,83.313,0,0,1,7.039,10.7,63.2,63.2,0,0,1,4.787,11.222,9.365,9.365,0,0,1,3.03-.41.615.615,0,1,1,0,1.23,5.886,5.886,0,0,0-3.033.534A.665.665,0,0,1,1063.487,619.456Z" transform="translate(1087.493 -1096.654)" fill="#de3122"/>
      <path id="Path_11265" data-name="Path 11265" d="M1044.46,612.526a.654.654,0,0,1-.354-.1.6.6,0,0,1-.191-.852c2.033-3.055,4.487-10.607,4.511-10.677a.644.644,0,0,1,.8-.4.608.608,0,0,1,.417.771c-.1.315-2.531,7.778-4.656,10.96A.643.643,0,0,1,1044.46,612.526Z" transform="translate(1083.69 -1108.711)" fill="#de3122"/>
      <path id="Path_11298" data-name="Path 11298" d="M804.486,385h-28.4A5.084,5.084,0,0,0,771,390.07v28.4a5.084,5.084,0,0,0,5.084,5.084h28.4a5.084,5.084,0,0,0,5.084-5.084v-28.4A5.084,5.084,0,0,0,804.486,385Z" transform="translate(1260.048 -969.426)" fill="#4285f4"/>
      <path id="Path_11299" data-name="Path 11299" d="M811.607,399.52H787.869a2.259,2.259,0,0,0-2.259,2.259v23.756a2.259,2.259,0,0,0,2.259,2.259h23.756a2.259,2.259,0,0,0,2.259-2.259V401.779a2.259,2.259,0,0,0-2.277-2.259Z" transform="translate(1250.604 -978.812)" fill="#fff"/>
      <path id="Path_11300" data-name="Path 11300" d="M787.869,404.088a2.259,2.259,0,0,1,2.259-2.259h23.738a2.259,2.259,0,0,0-2.259-2.259H787.869a2.259,2.259,0,0,0-2.259,2.259v23.738a2.259,2.259,0,0,0,2.259,2.259h0Z" transform="translate(1250.604 -978.845)" opacity="0.1"/>
      <path id="Path_11301" data-name="Path 11301" d="M809.936,415.676a3.553,3.553,0,0,1-2.475-1L795.85,403.358a3.542,3.542,0,1,1,4.95-5.066l8.485,8.273a80.72,80.72,0,0,1,22.561-21.086,3.537,3.537,0,1,1,3.815,5.957c-16.211,10.381-22.522,22.228-22.585,22.345a3.536,3.536,0,0,1-2.577,1.856A3.333,3.333,0,0,1,809.936,415.676Z" transform="translate(1244.674 -969.374)" fill="#34a853"/>
    </g>
    <g id="Group_4895" data-name="Group 4895" transform="translate(18 -5)">
      <path id="Path_11230" data-name="Path 11230" d="M394.063,650.282a.537.537,0,0,1-.534-.5,5.659,5.659,0,0,1,5.607-6.385.538.538,0,0,1,.566.5,6.767,6.767,0,0,1-1.365,4.465h0a6.6,6.6,0,0,1-4.243,1.916Zm4.579-5.731a4.412,4.412,0,0,0-4.038,4.579,5.243,5.243,0,0,0,2.938-1.478h0A5.22,5.22,0,0,0,398.641,644.551Z" transform="translate(1515.065 -1144.465)" fill="#f0c965"/>
      <path id="Path_11266" data-name="Path 11266" d="M367.631,489.12c-5.342-6.223-19.973-10.363-23.02,10.808s-16.879,11.519-16.617,24.838c.308,15.4,36.321,20.192,43.516-5.48C375.208,506.094,373.39,495.83,367.631,489.12Z" transform="translate(1557.428 -1041.484)" fill="#707070"/>
      <path id="Path_11267" data-name="Path 11267" d="M403.537,503.426a80.468,80.468,0,0,0,14.849-1.831,39.98,39.98,0,0,0,3.826-1.223,23.557,23.557,0,0,0,3.723-1.877,19.256,19.256,0,0,0,6.049-5.83c2.977-4.7,3.992-9.762,4.635-14.591l.375-3.638.166-3.617c.134-2.408.05-4.794.085-7.184a1.669,1.669,0,0,0-3.327-.2v.088a108.354,108.354,0,0,1-1.952,13.75c-1.047,4.43-2.475,8.715-4.932,11.809s-5.982,4.547-10.161,5.166a71.8,71.8,0,0,1-13.35.286h-.028a4.456,4.456,0,0,0-.392,8.9,3.733,3.733,0,0,0,.435-.007Z" transform="translate(1511.626 -1027.169)" fill="#ea4335"/>
      <path id="Path_11268" data-name="Path 11268" d="M402.082,505.99h.29a81.074,81.074,0,0,0,14.97-1.849c1.29-.371,2.6-.742,3.889-1.248l.912-.407a16.163,16.163,0,0,0,2.949-1.545,19.8,19.8,0,0,0,6.208-5.986c3.076-4.858,4.1-10.02,4.745-14.878l.375-3.659.17-3.652c.088-1.573.085-3.161.081-4.7v-2.5a.647.647,0,0,0-.633-.654h0a.647.647,0,0,0-.643.633c0,.841,0,1.687,0,2.528,0,1.517,0,3.087-.074,4.632l-.17,3.62-.371,3.6c-.626,4.7-1.609,9.691-4.54,14.316a18.611,18.611,0,0,1-5.823,5.618,15.558,15.558,0,0,1-2.775,1.453c-.3.127-.6.262-.9.4-1.216.47-2.5.838-3.734,1.191a79.718,79.718,0,0,1-14.712,1.807h-.382a3.815,3.815,0,0,1-2.408-6.626,3.762,3.762,0,0,1,2.744-.993l.088-1.283h-.046a5.089,5.089,0,1,0-.435,10.168Z" transform="translate(1512.826 -1029.083)" fill="#ec2e1e"/>
      <path id="Path_11269" data-name="Path 11269" d="M455.258,496.988a.8.8,0,0,0,.156,0,14.716,14.716,0,0,0,8.181-4.925c2.185-2.754,3.84-6.718,5.063-12.07l.686-3.38.506-3.468c.23-1.489.378-3.023.52-4.508.078-.82.156-1.644.247-2.475l-.626-.18-.636-.071v.11c-.092.824-.173,1.655-.251,2.475-.138,1.464-.283,2.977-.513,4.437l-.5,3.44-.679,3.327c-1.174,5.165-2.747,8.941-4.8,11.537a13.475,13.475,0,0,1-7.5,4.483.643.643,0,0,0,.159,1.266Z" transform="translate(1475.561 -1029.729)" fill="#ec2e1e"/>
      <path id="Path_11270" data-name="Path 11270" d="M385.752,580.768l11.116.449s15.309-26.443,0-30.47c-7.425-1.959-12.537,5.346-13.241,11.614C382.623,571.25,385.752,580.768,385.752,580.768Z" transform="translate(1521.591 -1084.363)" fill="#ea4335"/>
      <path id="Path_11271" data-name="Path 11271" d="M283.163,636.25c-15.68,8.2-18.675,24.714-19.63,54.307-7-9.4-25.17-3.288-37.035-10.253l-1.768,3.928S265.389,706.506,269.7,696.9c5.855-13.082,19.3-36.9,24.572-60.222Z" transform="translate(1624.179 -1139.844)" fill="#fbbc05"/>
      <path id="Path_11272" data-name="Path 11272" d="M384.014,636.7s2.5,59.677,2.5,111.679h-3.2c-8.722-31.014-13.612-44.425-6.1-54.522,0,0-27.6-34.3-4.32-57.605Z" transform="translate(1534.43 -1139.844)" fill="#fbbc05"/>
      <path id="Path_11273" data-name="Path 11273" d="M417.444,945.684c-.728,2.5,11.639,6.1,12.375,3.6s-3.111-5.82-6.541-6.813S418.172,943.181,417.444,945.684Z" transform="translate(1499.622 -1337.613)" fill="#4285f4"/>
      <path id="Path_11274" data-name="Path 11274" d="M214.864,758.966c-2-1.665-10.253,8.231-8.245,9.9s6.573-.52,8.839-3.253S216.865,760.624,214.864,758.966Z" transform="translate(1636.089 -1219.051)" fill="#4285f4"/>
      <path id="Path_11275" data-name="Path 11275" d="M409.752,510.4a41.15,41.15,0,0,0,8.047,3.327,25.631,25.631,0,0,0,9.076,1.032,19.954,19.954,0,0,0,8.945-2.828,23.236,23.236,0,0,0,6.576-6.134,42.222,42.222,0,0,0,6.555-15.242A86.48,86.48,0,0,0,451,474.727a1.672,1.672,0,0,0-3.324-.308h0a82.727,82.727,0,0,1-3.277,14.85,37.092,37.092,0,0,1-6.781,12.7,16.658,16.658,0,0,1-5.116,4.006,12.728,12.728,0,0,1-5.919,1.294c-4.126-.06-8.4-1.966-12.307-4.519a4.455,4.455,0,1,0-4.872,7.457A3.88,3.88,0,0,0,409.752,510.4Z" transform="translate(1506.16 -1034.318)" fill="#ea4335"/>
      <path id="Path_11276" data-name="Path 11276" d="M409.237,507.417c1.234,4.165,5.519,6.916,8.22,6.113s2.786-4.847,1.552-9.012-4.427-6.891-7.124-6.092S408,503.252,409.237,507.417Z" transform="translate(1505.222 -1050.659)" fill="#bab0b0"/>
      <path id="Path_11277" data-name="Path 11277" d="M407.617,527.635a2.011,2.011,0,0,0,2.57-.258c.41-.612-.191-1.414-1.078-2a1.709,1.709,0,0,0-2.351.074C406.345,526.072,406.737,527.052,407.617,527.635Z" transform="translate(1506.616 -1067.897)" fill="#bab0b0"/>
      <path id="Path_11278" data-name="Path 11278" d="M411.759,495.105s-1.6,7.722-4.762,9.224l-1.715-1.609-.152-7.481,3.274-2.21,3.327.746Z" transform="translate(1507.562 -1047.261)" fill="#707070"/>
      <path id="Path_11279" data-name="Path 11279" d="M408.963,538.847a3.034,3.034,0,0,0,3.574-2.365,2.933,2.933,0,0,0,.06-.58c.021-2.556.134-5.13.354-7.7.1-1.283.226-2.567.378-3.843.078-.64.163-1.276.255-1.9l.152-.923.081-.428.021-.106a1.5,1.5,0,0,0,.194-.905,1.538,1.538,0,0,0-.035-.223l-.032-.11a1.535,1.535,0,0,0-.233-.453,1.29,1.29,0,0,0-.17-.194,1.493,1.493,0,0,0-.311-.23,1.623,1.623,0,0,0-.658-.187,1.592,1.592,0,0,0-.626.1,1.617,1.617,0,0,0-.6.414l-.117.145c-.032.05-.071.106-.074.117l-.071.12c-.057.11-.088.18-.117.237l-.131.3-.205.513c-.127.332-.247.654-.354.976-.23.643-.442,1.28-.651,1.923q-.615,1.927-1.153,3.865-1.061,3.889-1.881,7.86h0A3.037,3.037,0,0,0,408.963,538.847Z" transform="translate(1506.641 -1063.852)" fill="#bab0b0"/>
      <path id="Path_11280" data-name="Path 11280" d="M523.794,463.581c-1.266-.17-2.655-.6-.986-4.055.93-1.92.742-3.765,2.008-3.6s2.061,2.019,1.768,4.133S525.073,463.751,523.794,463.581Z" transform="translate(1431.986 -1023.271)" fill="#c4d2f1"/>
      <path id="Path_11281" data-name="Path 11281" d="M520.74,462.167c.06.389.141.8.219,1.184a10.178,10.178,0,0,0,.283,1.11,6.014,6.014,0,0,0,.421.965,5.835,5.835,0,0,1,.442.993l.025.078a.424.424,0,0,1-.265.534.453.453,0,0,1-.18.021,1.867,1.867,0,0,1-1.3-.841,4.266,4.266,0,0,1-.548-1.382,5.221,5.221,0,0,1-.106-1.414,5.056,5.056,0,0,1,.255-1.358.385.385,0,0,1,.488-.244.378.378,0,0,1,.258.3Z" transform="translate(1433.485 -1027.069)" fill="#c4d2f1"/>
      <path id="Path_11282" data-name="Path 11282" d="M441.323,510.33a13.4,13.4,0,0,0,6.145-1.365,17.4,17.4,0,0,0,5.3-4.154,37.559,37.559,0,0,0,6.905-12.919,82.7,82.7,0,0,0,3.306-14.949l-1.273-.173v.018a81.157,81.157,0,0,1-3.249,14.7,36.239,36.239,0,0,1-6.651,12.477,16.149,16.149,0,0,1-4.918,3.857,12.374,12.374,0,0,1-5.632,1.223,18.584,18.584,0,0,1-7.241-1.8,19.191,19.191,0,0,1-2.984-1.757.647.647,0,0,0-.9.145.64.64,0,0,0,.141.895,20.352,20.352,0,0,0,3.232,1.874,19.805,19.805,0,0,0,7.75,1.913Z" transform="translate(1491.476 -1036.75)" fill="#ec2e1e"/>
      <path id="Path_11283" data-name="Path 11283" d="M450.832,517.4c.6,0,1.2-.021,1.768-.071a20.465,20.465,0,0,0,9.231-2.938,23.667,23.667,0,0,0,6.753-6.3,42.614,42.614,0,0,0,6.658-15.468,86.926,86.926,0,0,0,2.068-15.949.636.636,0,0,0-.594-.675.647.647,0,0,0-.672.612,85.856,85.856,0,0,1-2.033,15.709,41.421,41.421,0,0,1-6.449,15.009,22.4,22.4,0,0,1-6.4,5.972,19.144,19.144,0,0,1-8.659,2.751,22.132,22.132,0,0,1-4.784-.148.643.643,0,0,0-.173,1.273A24.3,24.3,0,0,0,450.832,517.4Z" transform="translate(1480.478 -1036.251)" fill="#ec2e1e"/>
      <path id="Path_11284" data-name="Path 11284" d="M407.769,551.373c-.24,4.02-6.028,3.331-5.024-.4l-3.925,5.356,1.916,3.444,7.626.675,1.365-6.785Z" transform="translate(1511.641 -1084.716)" fill="#fff"/>
      <path id="Path_11285" data-name="Path 11285" d="M419.863,539.637a.643.643,0,0,0,.248-1.237,7.685,7.685,0,0,1-2.029-1.262.643.643,0,0,0-.831.979,9.071,9.071,0,0,0,2.369,1.471A.6.6,0,0,0,419.863,539.637Z" transform="translate(1499.854 -1075.691)" fill="#707070"/>
      <path id="Path_11286" data-name="Path 11286" d="M382.277,792.736h3.2a.643.643,0,0,0,0-1.283h-2.712q-1.153-4.091-2.206-7.778c-7.2-25.283-10.49-36.82-3.864-45.722a.647.647,0,0,0,0-.785c-.127-.156-12.505-15.726-13.453-32.679a.658.658,0,0,0-.679-.608.64.64,0,0,0-.6.679c.884,15.857,11.494,30.477,13.435,33.023-6.619,9.345-3.27,21.1,3.946,46.447q1.114,3.889,2.337,8.238a.644.644,0,0,0,.6.47Z" transform="translate(1535.471 -1183.562)" fill="#ebb004"/>
      <path id="Path_11302" data-name="Path 11302" d="M534.425,381.459H514V367.546c0-5.257,4.6-9.546,10.218-9.546s10.214,4.278,10.214,9.546Zm-17.406-3.026H531.4V367.546c0-3.589-3.224-6.509-7.188-6.509s-7.191,2.92-7.191,6.509Z" transform="translate(1437.184 -959.972)" fill="#c6c8c5" stroke="#c6c8c5" stroke-miterlimit="10" stroke-width="2"/>
      <rect id="Rectangle_1106" data-name="Rectangle 1106" width="31.781" height="24.215" transform="translate(1945.88 -583.053)" fill="#53ac6b"/>
      <rect id="Rectangle_1107" data-name="Rectangle 1107" width="15.893" height="24.215" transform="translate(1961.773 -583.053)" fill="#34a853"/>
      <path id="Path_11303" data-name="Path 11303" d="M354.02,431.366l4.854-4.854V423.8H354.65l-7.57,7.566Z" transform="translate(1618.03 -990.961)" fill="#fbbc05"/>
      <path id="Path_11304" data-name="Path 11304" d="M294.83,423.8v5.738l5.742-5.738Z" transform="translate(1651.807 -990.961)" fill="#639bf8"/>
      <path id="Path_11305" data-name="Path 11305" d="M328.34,431.366l7.566-7.566h-6.94l-7.566,7.566Z" transform="translate(1634.631 -990.961)" fill="#2373f8"/>
      <path id="Path_11306" data-name="Path 11306" d="M515.961,456.46h-6.94l-7.347,7.343a.742.742,0,0,1-.534.223H508.4Z" transform="translate(1445.497 -1023.621)" fill="#fbbc05"/>
      <path id="Path_11307" data-name="Path 11307" d="M375.482,440.235V437.52l-2.712,2.715Z" transform="translate(1601.423 -999.83)" fill="#2373f8"/>
      <path id="Path_11308" data-name="Path 11308" d="M327.142,428.96,321.4,434.7h5.742Z" transform="translate(1634.631 -994.296)" fill="#639bf8"/>
    </g>
  </g>
</svg>
