<svg xmlns="http://www.w3.org/2000/svg" xmlns:xlink="http://www.w3.org/1999/xlink" width="494.558" height="387.35" viewBox="0 0 494.558 387.35">
  <defs>
    <linearGradient id="linear-gradient" y1="0.5" x2="1" y2="0.5" gradientUnits="objectBoundingBox">
      <stop offset="0" stop-color="#eff6ff"/>
      <stop offset="1" stop-color="#c4d8fb"/>
    </linearGradient>
  </defs>
  <g id="Group_5971" data-name="Group 5971" transform="translate(-125.152 -112)">
    <path id="Path_10976" data-name="Path 10976" d="M339.492,191.3c-81.123,0-184.841,6.385-184.841,14.263,0,5.283,29.593,9.9,73.565,12.362-60.333,2.551-100.148,6.935-100.148,11.913,0,5.639,51.07,10.515,125.183,12.829-3.667,1.249-5.633,2.564-5.633,3.928,0,7.876,65.763,14.263,146.887,14.263,139.163,0,228.121-22.889,228.121-38.6C622.626,202.756,559.329,191.3,339.492,191.3Z" transform="translate(-2.916 238.493)" fill="url(#linear-gradient)"/>
    <g id="Group_5028" data-name="Group 5028" transform="translate(183.224 277.513)">
      <ellipse id="Ellipse_391" data-name="Ellipse 391" cx="21.324" cy="13.928" rx="21.324" ry="13.928" transform="translate(0 141.466)" fill="#030504" opacity="0.05"/>
      <g id="Group_5027" data-name="Group 5027" transform="translate(1.805)">
        <g id="Group_5026" data-name="Group 5026">
          <g id="Group_5025" data-name="Group 5025">
            <path id="Path_11961" data-name="Path 11961" d="M3624.768,1936.542s-6.671,1.748-3.738,10.109c0,0,.466,8.625,6.3,10.674s.553-14.912.553-14.912S3624.768,1938.112,3624.768,1936.542Z" transform="translate(-3613.399 -1809.213)" fill="#030504"/>
            <path id="Path_11962" data-name="Path 11962" d="M3657.774,1632.51s10.765,21.467,10.532,22.7c-.422,2.229-19.281,18.7-19.281,18.7s-.542,7.166,3.771,7.564c0,0,24.462-14.47,27.007-22.958.864-2.883-2.654-31.054-2.654-31.054s-14.5,7.32-20.056,5.054Z" transform="translate(-3637.657 -1548.145)" fill="#262626"/>
            <path id="Path_11963" data-name="Path 11963" d="M3659.762,2056.424s-2.583,7.07,3.074,9.1c0,0,3.689,9.53,11.62,8.546s-5.226-13.353-5.226-13.353l-.062-3.124S3663.45,2059.56,3659.762,2056.424Z" transform="translate(-3646.247 -1910.471)" fill="#030504"/>
            <path id="Path_11964" data-name="Path 11964" d="M3649.145,1659.986s3.027,28.532,1.88,39.517c0,0-2.44,19.51-.81,22.625,0,0,4.935,6.886,10.66,1.967l4.406-63.283S3653,1665.23,3649.145,1659.986Z" transform="translate(-3637.776 -1575.621)" fill="#353535"/>
            <path id="Path_11965" data-name="Path 11965" d="M3579.981,1642.381s-3.145,8.157,3.2,11.094c0,0,6.583,4.07,2.175-10.212C3585.359,1643.263,3581.167,1643.877,3579.981,1642.381Z" transform="translate(-3578.699 -1560.751)" fill="#fdc5ab"/>
            <path id="Path_11966" data-name="Path 11966" d="M3902.128,1515.372s7.3,5.737,3.976,10.647c-.768,1.132-3.1,2.518-5.16-.485a13.774,13.774,0,0,1-2.068-6.909S3900.314,1515.56,3902.128,1515.372Z" transform="translate(-3848.71 -1453.473)" fill="#fdc5ab"/>
            <path id="Path_11967" data-name="Path 11967" d="M3657.435,1338.726c-10.909,12.434-28.416,4.949-28.416,4.949-1.4-10.53,5.072-20.047.885-31.465q-.368-1-.7-2-.391-1.177-.735-2.341a90.606,90.606,0,0,1-3.385-18.491l10.565-5.965.218-.124a34.743,34.743,0,0,1,9.891-2.119,24.149,24.149,0,0,1,6.949.439C3661.286,1306.45,3657.435,1338.726,3657.435,1338.726Z" transform="translate(-3617.455 -1255.588)" fill="#030504"/>
            <path id="Path_11968" data-name="Path 11968" d="M3711.932,1305.407a83.654,83.654,0,0,1-.841,11.033c.385-3.044-.889-7.3-2.862-11.771a152.452,152.452,0,0,0-11.6-21.042l-.012-.055a32.3,32.3,0,0,1,9.561-1.99C3711.047,1287.564,3712.031,1297.621,3711.932,1305.407Z" transform="translate(-3677.869 -1256.004)" fill="#ecebeb"/>
            <path id="Path_11969" data-name="Path 11969" d="M3743.017,1292.449s0-4.371-2.548-5.755l-1.184,2.877Z" transform="translate(-3713.912 -1260.321)" fill="#fff"/>
            <path id="Path_11970" data-name="Path 11970" d="M3590.382,1342.981s-.15.436-.408,1.179c-.723,2.095-2.286,6.633-3.689,10.8-1.3,3.853-2.46,7.385-2.69,8.357-.508,2.14-.107,17.292-.015,20.467.008.377.015.583.015.583a8.7,8.7,0,0,1-7.49-.559s0-.29-.016-.813c-.055-3.508-.262-17.439.016-23.825.322-7.335,7.49-24.754,7.49-24.754C3591.64,1334.46,3590.382,1342.981,3590.382,1342.981Z" transform="translate(-3575.965 -1300.626)" fill="#030504"/>
            <path id="Path_11971" data-name="Path 11971" d="M3804.953,1322s-4.647,1.127-5.068,3.1c0,0-.131-.107-.361-.31-1.925-1.655-10.914-9.66-12.731-16.161-2.032-7.283-5.207-19.316-5.207-19.316l3.311-4.895s7.81,17.738,10.346,21.961c2.294,3.826,8.4,13.537,9.533,15.335Z" transform="translate(-3749.641 -1258.392)" fill="#030504"/>
            <path id="Path_11972" data-name="Path 11972" d="M3789.76,1506.021c0-.02,0-.04.008-.06C3789.764,1506,3789.76,1506.021,3789.76,1506.021Z" transform="translate(-3756.546 -1445.524)" fill="#030504"/>
            <path id="Path_11973" data-name="Path 11973" d="M3702.07,1157.283s-1.165-.2-2.214-.485l-.014,0a7.8,7.8,0,0,1-1.133-.386,2.009,2.009,0,0,1-.234-.123v6.525s-7.19-.332-8.255-2.863l.466-7.324-3.063-6.991,3.861-9.388s3.4,1.331,3.6,1.331,3.529.8,3.529.8l5.126,1.531S3706.065,1150.958,3702.07,1157.283Z" transform="translate(-3670.276 -1133.243)" fill="#fdc5ab"/>
            <path id="Path_11974" data-name="Path 11974" d="M3678.757,1138.242s-8.722-7.258-3.862-15.913c0,0,.932-12.318,19.775.266,0,0-4.794,4.661-14.182,2.4l1.065,8.523s-1.665-4.794-3.529-3.2,1.531,4.927,1.531,4.927Z" transform="translate(-3658.281 -1116.933)" fill="#1c1511"/>
            <path id="Path_11975" data-name="Path 11975" d="M3741.535,1306.029l1.183-.11.8,2.961-1.764.51-1.754-1.407Z" transform="translate(-3714.52 -1276.559)" fill="#ea4335"/>
            <path id="Path_11976" data-name="Path 11976" d="M3699.065,1280.991s5.522,3.831,7,3.983l-1.632,3.2-6.423-4.994Z" transform="translate(-3679.046 -1255.504)" fill="#fff"/>
            <path id="Path_11977" data-name="Path 11977" d="M3757.271,1353.1c.385-3.044-.889-7.3-2.862-11.771l-3.123-15.835,1.766-.508,5.06,17.082A83.747,83.747,0,0,1,3757.271,1353.1Z" transform="translate(-3724.049 -1292.665)" fill="#ea4335"/>
            <path id="Path_11978" data-name="Path 11978" d="M3902.485,1524.772s-4.647,1.127-5.068,3.1c0,0-.131-.107-.361-.31.449-.877,1.726-2.469,5.251-3.076Z" transform="translate(-3847.173 -1461.168)" fill="#fff"/>
            <path id="Path_11979" data-name="Path 11979" d="M3584.281,1648.48a8.694,8.694,0,0,1-7.489-.56s0-.29-.016-.814a8.8,8.8,0,0,0,7.489.79C3584.273,1648.274,3584.281,1648.48,3584.281,1648.48Z" transform="translate(-3576.65 -1564.743)" fill="#fff"/>
          </g>
          <path id="Path_11980" data-name="Path 11980" d="M3730.277,1248.846v.883a8.329,8.329,0,0,1-5-3.941A13.289,13.289,0,0,0,3730.277,1248.846Z" transform="translate(-3702.078 -1225.77)" fill="#030504" opacity="0.05"/>
          <path id="Path_11981" data-name="Path 11981" d="M3760.118,1266.427a7.785,7.785,0,0,1-1.133-.386C3759.6,1266.27,3760.037,1266.4,3760.118,1266.427Z" transform="translate(-3730.552 -1242.877)" fill="#fdc5ab"/>
        </g>
        <path id="Path_11982" data-name="Path 11982" d="M3691.15,1132.1s4.512-7.646,17.021.405c0,0-2,1.621-6.754,0C3701.417,1132.505,3696.364,1128.993,3691.15,1132.1Z" transform="translate(-3673.256 -1126.972)" fill="#fff" opacity="0.1"/>
        <path id="Path_11983" data-name="Path 11983" d="M3649.869,1397.161c0,3.381-1.516,8.683-2.26,11.084q-.391-1.177-.735-2.341C3648.07,1402.379,3649.264,1398.914,3649.869,1397.161Z" transform="translate(-3635.859 -1353.627)" fill="#fff" opacity="0.05"/>
      </g>
    </g>
    <g id="Group_5792" data-name="Group 5792" transform="translate(-1369 -831)">
      <g id="Group_5761" data-name="Group 5761" transform="translate(-9566 1668)">
        <path id="Rectangle_1012" data-name="Rectangle 1012" d="M20.4,0H155.032a20.661,20.661,0,0,1,20.4,20.907V342.156a20.661,20.661,0,0,1-20.4,20.907H20.4A20.661,20.661,0,0,1,0,342.155V20.907A20.661,20.661,0,0,1,20.4,0Z" transform="translate(11237.306 -725)" fill="#213458"/>
        <path id="Path_11118" data-name="Path 11118" d="M17.915,0H155.743a17.916,17.916,0,0,1,17.916,17.916V340.908a17.915,17.915,0,0,1-17.915,17.915H17.915A17.915,17.915,0,0,1,0,340.908V17.915A17.915,17.915,0,0,1,17.915,0Z" transform="translate(11235.101 -720.761)" fill="#4285f4" stroke="#34a853" stroke-width="0.2"/>
        <path id="Path_11117" data-name="Path 11117" d="M1.568,0h152.76A1.568,1.568,0,0,1,155.9,1.568v279.8a1.568,1.568,0,0,1-1.568,1.568H1.568A1.568,1.568,0,0,1,0,281.363V1.568A1.568,1.568,0,0,1,1.568,0Z" transform="translate(11244.164 -684.558)" fill="#fff" stroke="#d5d5d5" stroke-width="0.2"/>
        <path id="Path_7953" data-name="Path 7953" d="M9.982,3.847A1.923,1.923,0,1,1,9.982,0H45.609a1.923,1.923,0,1,1,0,3.847ZM3.563,0a1.923,1.923,0,1,1,0,3.847H1.924A1.923,1.923,0,1,1,1.924,0Z" transform="translate(11298.163 -701.845)" fill="#fff" fill-rule="evenodd"/>
        <path id="Path_7954" data-name="Path 7954" d="M12.585,25.169A12.584,12.584,0,1,0,0,12.585,12.584,12.584,0,0,0,12.585,25.169Z" transform="translate(11309.346 -395.083)" fill="#fff" fill-rule="evenodd"/>
        <g id="Group_1705" data-name="Group 1705" transform="translate(11253.931 -677.197)">
          <path id="Path_7967" data-name="Path 7967" d="M.465.936A.468.468,0,1,1,.465,0H10.7a.468.468,0,0,1,0,.936Zm0,6.722a.466.466,0,0,1,0-.932H10.7a.466.466,0,0,1,0,.932Zm0-3.361a.468.468,0,1,1,0-.936H10.7a.468.468,0,0,1,0,.936Z" transform="translate(0.003 0)" fill="#4285f4" fill-rule="evenodd"/>
          <path id="Path_7968" data-name="Path 7968" d="M13.725.418ZM1.419.932H7.428V5.769H1.419a.471.471,0,0,1-.341-.142.479.479,0,0,1-.147-.341V1.419A.488.488,0,0,1,1.419.932ZM12.722,0H1.419A1.424,1.424,0,0,0,0,1.419V5.286A1.424,1.424,0,0,0,1.419,6.7h11.3a1.416,1.416,0,0,0,.971-.388l.032-.029a1.419,1.419,0,0,0,.416-1V1.419A1.422,1.422,0,0,0,12.722,0Z" transform="translate(121.857 0.477)" fill="#4285f4" fill-rule="evenodd"/>
        </g>
      </g>
    </g>
    <g id="Group_5039" data-name="Group 5039" transform="translate(243.767 316.94)">
      <ellipse id="Ellipse_392" data-name="Ellipse 392" cx="21.324" cy="11.92" rx="21.324" ry="11.92" transform="translate(9.033 158.571)" fill="#030504" opacity="0.05"/>
      <g id="Group_5038" data-name="Group 5038">
        <g id="Group_5037" data-name="Group 5037">
          <g id="Group_5036" data-name="Group 5036">
            <g id="Group_5031" data-name="Group 5031" transform="translate(45.404 37.212)">
              <path id="Path_11984" data-name="Path 11984" d="M4169.071,1545.214c5.751,8.421,9.377,8.541,9.377,8.541s11.475-7.812,18.03-13.222c.612-.5,1.2-.987,1.736-1.448.75-.634,1.425-1.221,2-1.738,0,0,7.863-.733,5.243-8.175s-9.537,3.461-9.537,3.461l-.654.425-1.761,1.133-.7.465-.01.008-13.346,8.934-3.572-5.458a3.9,3.9,0,0,1-1.081,2.3A29.12,29.12,0,0,1,4169.071,1545.214Z" transform="translate(-4169.071 -1526.573)" fill="#fdc5ab"/>
              <g id="Group_5029" data-name="Group 5029" transform="translate(24.43 6.485)">
                <path id="Path_11985" data-name="Path 11985" d="M4326.325,1569.45c1.32,1.483,2.365,4.269,2.978,6.343.612-.5,1.2-.987,1.737-1.449a19.419,19.419,0,0,0-2.953-6.026Z" transform="translate(-4326.325 -1568.317)" fill="#1a1818"/>
              </g>
              <g id="Group_5030" data-name="Group 5030" transform="translate(25.819 8.943)">
                <circle id="Ellipse_393" data-name="Ellipse 393" cx="1.221" cy="1.221" r="1.221" transform="translate(0 0.391) rotate(-9.217)" fill="#fff"/>
                <path id="Path_11986" data-name="Path 11986" d="M4337.5,1587.62a1.247,1.247,0,1,1,1.247-1.247A1.249,1.249,0,0,1,4337.5,1587.62Zm0-2.442a1.195,1.195,0,1,0,1.195,1.2A1.2,1.2,0,0,0,4337.5,1585.178Z" transform="translate(-4336.102 -1584.972)" fill="#1a1818"/>
              </g>
            </g>
            <path id="Path_11987" data-name="Path 11987" d="M4205.922,1584.43l4.654,4.079,13.346-9.854-13.346,8.934L4207,1582.13A3.9,3.9,0,0,1,4205.922,1584.43Z" transform="translate(-4154.793 -1533.352)" fill="#030504" opacity="0.05"/>
            <path id="Path_11988" data-name="Path 11988" d="M3890.226,1623.867c2.337,5.888,5.009,4.484,7.438,1.867s-3.645-5.888-3.645-5.888l-.229-.394-7.9-13.627,1.632-3.067a4.925,4.925,0,0,0-.161-1.615c-1.08-3.9-6.939-4.531-6.939-4.531s-3.226,6.968-3.6,8.931S3887.89,1617.977,3890.226,1623.867Z" transform="translate(-3876.81 -1548.519)" fill="#fdc5ab"/>
            <path id="Path_11989" data-name="Path 11989" d="M3930.729,1630.4l8.408,13.888.2-.205-7.9-13.627,1.632-3.067a4.918,4.918,0,0,0-.161-1.615Z" transform="translate(-3922.353 -1573.153)" fill="#030504" opacity="0.05"/>
            <path id="Path_11990" data-name="Path 11990" d="M3898.4,1468.064s6.963,2.882,7.355,5.46c0,0,1.112-1.578,2.578-3.923a82.779,82.779,0,0,0,4.614-8.329,22.676,22.676,0,0,0,2.357-7.488c.387-6.709-5.272-10.174-5.272-10.174S3906.182,1446.866,3898.4,1468.064Z" transform="translate(-3895.048 -1419.287)" fill="#fbbc05"/>
            <path id="Path_11991" data-name="Path 11991" d="M3955.77,1533.408a82.831,82.831,0,0,0,4.615-8.329l-5.556-5.926C3953.879,1524.958,3955.77,1533.408,3955.77,1533.408Z" transform="translate(-3942.483 -1483.094)" fill="#030504" opacity="0.05"/>
            <g id="Group_5033" data-name="Group 5033" transform="translate(26.501 163.303)">
              <g id="Group_5032" data-name="Group 5032">
                <path id="Path_11992" data-name="Path 11992" d="M4048.137,2348.678c.675,1.437,1.945,2.407,4.3,1.666,5.855-1.841,17.229-8.454,16.367-11-.013-.033-.025-.062-.038-.092-.483-1.024-2.645-1.154-5.018-.953a52.684,52.684,0,0,0-6.847,1.158l-.371.092-9.079,3.694A12.253,12.253,0,0,0,4048.137,2348.678Z" transform="translate(-4047.395 -2338.216)" fill="#1d1e1e"/>
                <path id="Path_11993" data-name="Path 11993" d="M4108.571,2339.885a8.9,8.9,0,0,1,1.861,2.7l6.771-2.328a3.823,3.823,0,0,0-1.787-1.528A52.756,52.756,0,0,0,4108.571,2339.885Z" transform="translate(-4099.067 -2338.648)" fill="#fff" opacity="0.1"/>
              </g>
              <path id="Path_11994" data-name="Path 11994" d="M4052.169,2354.793c.674,1.437,1.945,2.407,4.3,1.666,5.855-1.841,17.229-8.454,16.367-11A31.909,31.909,0,0,1,4052.169,2354.793Z" transform="translate(-4051.427 -2344.331)" fill="#fff"/>
            </g>
            <g id="Group_5035" data-name="Group 5035" transform="translate(12.749 158.68)">
              <g id="Group_5034" data-name="Group 5034">
                <path id="Path_11995" data-name="Path 11995" d="M3959.615,2318.916c.675,1.437,1.945,2.407,4.3,1.666,5.855-1.841,17.229-8.454,16.367-11-.012-.033-.025-.062-.038-.092-.483-1.024-2.644-1.154-5.018-.953a52.651,52.651,0,0,0-6.847,1.157l-.371.092-9.079,3.694A12.254,12.254,0,0,0,3959.615,2318.916Z" transform="translate(-3958.874 -2308.455)" fill="#1d1e1e"/>
                <path id="Path_11996" data-name="Path 11996" d="M4020.049,2310.124a8.9,8.9,0,0,1,1.862,2.7l6.771-2.328a3.827,3.827,0,0,0-1.787-1.529A52.742,52.742,0,0,0,4020.049,2310.124Z" transform="translate(-4010.545 -2308.887)" fill="#fff" opacity="0.1"/>
              </g>
              <path id="Path_11997" data-name="Path 11997" d="M3963.647,2325.031c.675,1.437,1.945,2.407,4.3,1.666,5.855-1.841,17.229-8.454,16.367-11A31.907,31.907,0,0,1,3963.647,2325.031Z" transform="translate(-3962.906 -2314.569)" fill="#fff"/>
            </g>
            <path id="Path_11998" data-name="Path 11998" d="M3970.275,1824.426s-3.08,31.821-4.517,43.112-2.258,34.695-2.258,34.695-3.7,7.185-10.47,2.669c0,0-1.848-31.821-.821-40.443s1.227-35.311-.31-38.185Z" transform="translate(-3940.233 -1740.942)" fill="#ea4335"/>
            <path id="Path_11999" data-name="Path 11999" d="M4056.2,1850.855s-3.08,31.821-4.517,43.112-2.258,34.695-2.258,34.695-3.7,7.185-10.47,2.669c0,0-1.848-31.821-.821-40.443s1.226-35.311-.311-38.185Z" transform="translate(-4012.805 -1763.265)" fill="#ea4335"/>
            <path id="Path_12000" data-name="Path 12000" d="M4026.074,1346.989c1.2,4.093,8.668,3.05,8.668,3.05l2.46-7.588.349-1.076v0a44.536,44.536,0,0,0,4.415.723c3.646-10.759.283-19,.283-19l-6.729.546-8,8.664Z" transform="translate(-4002.885 -1317.491)" fill="#fdc5ab"/>
            <path id="Path_12001" data-name="Path 12001" d="M4014.554,1294.549s8.347-.642,5.458-4.735-20.466-3.933-19.663,2.368c0,0-6.5,4.615,3.531,18.018C4003.88,1310.2,4017.363,1310.28,4014.554,1294.549Z" transform="translate(-3979.407 -1287.042)" fill="#1e1e1e"/>
            <path id="Path_12002" data-name="Path 12002" d="M3947.22,1501.222s22.8,15.613,32.684,1.354l-1.387-29.044-.279-5.826,0,.008a62.342,62.342,0,0,0,6.492,6.139,17.881,17.881,0,0,0,6.081-8.49c-2.445-5.2-7.713-16.423-11.952-18.889-2.211-1.287-6.3-3.373-10.64-5.385-2.012-.933-5.139-1.05-7.1-1.87-3.4-1.424-2.428-2.166-2.428-2.166-3.194-1.183-5.705-1.849-6.584-1.487-2.707,1.12-7.621,2.915-2.707,27.145.97,4.773,1.145,13.01-2.187,19.357S3947.22,1501.222,3947.22,1501.222Z" transform="translate(-3935.033 -1412.41)" fill="#fbbc05"/>
            <path id="Path_12003" data-name="Path 12003" d="M4127.068,1581.292s.629,11.115,4.606,15.409l-.279-5.826Z" transform="translate(-4088.189 -1535.579)" fill="#030504" opacity="0.05"/>
          </g>
          <path id="Path_12004" data-name="Path 12004" d="M4087.187,1426.276a5.232,5.232,0,0,0,1.634,3.329l.349-1.076A6.19,6.19,0,0,1,4087.187,1426.276Z" transform="translate(-4054.504 -1404.646)" fill="#030504" opacity="0.05"/>
        </g>
        <path id="Path_12005" data-name="Path 12005" d="M4035.334,1294.986s-9.874-6.252-17.463.28C4017.871,1295.266,4022.312,1292.7,4035.334,1294.986Z" transform="translate(-3995.957 -1291.473)" fill="#fff" opacity="0.1"/>
      </g>
    </g>
    <g id="Group_5966" data-name="Group 5966" transform="translate(-628 -2364)">
      <g id="Group_5964" data-name="Group 5964" transform="translate(944.845 2566.677)">
        <path id="Path_13530" data-name="Path 13530" d="M790.008,1433.55c0,5.373-13.5,9.729-30.158,9.729s-30.158-4.356-30.158-9.729,13.5-9.728,30.158-9.728S790.008,1428.178,790.008,1433.55Z" transform="translate(-729.691 -1264.497)" fill="#ffd2aa" style="mix-blend-mode: multiply;isolation: isolate"/>
        <g id="Group_5909" data-name="Group 5909" transform="translate(3.11)">
          <rect id="Rectangle_1430" data-name="Rectangle 1430" width="26.393" height="69.557" transform="translate(14.015 41.728)" fill="#ada6a5"/>
          <path id="Path_13533" data-name="Path 13533" d="M852.192,669.463l-26.611-.109-2.29-41.061,4.2-8.071,6.517-2.271h11.07l5.808,2.38,3.817,8.016Z" transform="translate(-811.676 -585.406)" fill="#4285f4"/>
          <path id="Path_13534" data-name="Path 13534" d="M884.4,444.823c0,2.846-6.473,9.065-8.191,9.065h-3.045c-2.306,0-8.561-6.383-8.488-9.047V433.873a6.092,6.092,0,0,1,6.091-6.092h7.542a6.091,6.091,0,0,1,6.092,6.092Z" transform="translate(-846.549 -425.154)" fill="#fdc5ab"/>
          <path id="Path_13535" data-name="Path 13535" d="M910.714,582.365h-6.737c.293,1.59.649,4.419-.241,5.626-.141.192-.3,2.808,3.623,2.808,3.593,0,3.728-2.655,3.622-2.808C910.034,586.624,910.4,583.906,910.714,582.365Z" transform="translate(-879.42 -555.419)" fill="#fdc5ab"/>
          <path id="Path_13536" data-name="Path 13536" d="M865.577,458.463a6.582,6.582,0,0,1-.094,3.67c-.443,1.119-1.694,1.505-1.756,4.485-.013.6-.508,2.035-1.229,2.129,0,0-.952-3.481.136-10.661Z" transform="translate(-844.389 -450.692)" fill="#0d153d"/>
          <path id="Path_13537" data-name="Path 13537" d="M969.858,459.85a6.582,6.582,0,0,0,.095,3.67c.443,1.121,1.693,1.507,1.756,4.485.013.6.508,2.035,1.229,2.129,0,0,.952-3.48-.136-10.66Z" transform="translate(-934.995 -451.861)" fill="#0d153d"/>
          <path id="Path_13538" data-name="Path 13538" d="M860.5,419.54c1.958,2.62,6.962,2.62,12.537.734,6.128-2.072,6.472-.68,6.472-.68s-.408-5.556-5.376-6.1-10.571.983-12.328-1.269c-1.8-2.311-2.649-.715-2.937,1.3A7.54,7.54,0,0,0,860.5,419.54Z" transform="translate(-841.579 -411.084)" fill="#0d153d"/>
          <g id="Group_5901" data-name="Group 5901" transform="translate(15.934 15.672)">
            <path id="Path_13539" data-name="Path 13539" d="M853.931,513.383c0,1.483.976,2.684-.506,2.684a2.684,2.684,0,0,1,0-5.367C854.907,510.7,853.931,511.9,853.931,513.383Z" transform="translate(-850.742 -510.699)" fill="#fdc5ab"/>
            <path id="Path_13540" data-name="Path 13540" d="M857.306,519.489c0,.853.561,1.544-.291,1.544a1.544,1.544,0,1,1,0-3.088C857.868,517.945,857.306,518.636,857.306,519.489Z" transform="translate(-854.727 -516.805)" fill="#fac1b9" style="mix-blend-mode: multiply;isolation: isolate"/>
          </g>
          <g id="Group_5902" data-name="Group 5902" transform="translate(36.21 15.672)">
            <path id="Path_13541" data-name="Path 13541" d="M979.94,513.383c0,1.483-.976,2.684.506,2.684a2.684,2.684,0,0,0,0-5.367C978.964,510.7,979.94,511.9,979.94,513.383Z" transform="translate(-979.625 -510.699)" fill="#fdc5ab"/>
            <path id="Path_13542" data-name="Path 13542" d="M984.537,519.489c0,.853-.561,1.544.291,1.544a1.544,1.544,0,1,0,0-3.088C983.976,517.945,984.537,518.636,984.537,519.489Z" transform="translate(-983.612 -516.805)" fill="#fac1b9" style="mix-blend-mode: multiply;isolation: isolate"/>
          </g>
          <path id="Path_13543" data-name="Path 13543" d="M860.77,940.3H834.122a193.551,193.551,0,0,0,.509,35.917c.582,4.726,3.2,44.824,3.2,44.824h6.908s.581-33.7,1.236-41.7a172.574,172.574,0,0,0-.073-25.594l1.42-3.708h.821l2.63,71h6.761s.109-31.083,1.907-43.294C861.911,960.964,860.77,940.3,860.77,940.3Z" transform="translate(-820.29 -857.04)" fill="#004d9e"/>
          <path id="Path_13544" data-name="Path 13544" d="M821.355,1451.9a6.777,6.777,0,0,1-2.508,2.508c-3.064,1.67-5.76,4.919-4.617,6.144,1.527,1.637,4.145,1.236,6-.437,2.552-2.3,4.055-4.006,6.326-5.071,1.745-.818,1.727-3.144,1.727-3.144Z" transform="translate(-803.815 -1288.161)" fill="#0d153d"/>
          <path id="Path_13545" data-name="Path 13545" d="M949.895,1452.7a6.773,6.773,0,0,0,2.508,2.508c3.064,1.671,5.76,4.919,4.617,6.144-1.527,1.636-4.145,1.236-6-.436-2.551-2.3-4.063-3.99-6.326-5.071-1.713-.818-1.513-3.19-1.513-3.19Z" transform="translate(-912.7 -1288.794)" fill="#0d153d"/>
          <path id="Path_13546" data-name="Path 13546" d="M816.678,617.95l-6.517,2.272-4.2,8.071-3.235,67.853s12.935,4.1,13.814.728C818.76,688.365,816.678,617.95,816.678,617.95Z" transform="translate(-794.348 -585.405)" fill="#dbd8d7"/>
          <path id="Path_13547" data-name="Path 13547" d="M954.337,620.331l-5.808-2.381s-4.081,65.109-1.754,79.8c.415,2.617,12.8-1.564,12.8-1.564l-1.417-67.835Z" transform="translate(-915.129 -585.406)" fill="#dbd8d7"/>
          <path id="Path_13548" data-name="Path 13548" d="M827.453,953.289v6.762a2.364,2.364,0,0,0,2.365,2.365l4.322.246A2.365,2.365,0,0,0,836.5,960.3v-6.762Z" transform="translate(-815.183 -867.989)" fill="#4285f4"/>
          <path id="Path_13549" data-name="Path 13549" d="M968.909,950.977v6.762a2.365,2.365,0,0,1-2.365,2.365l-4.322.247a2.365,2.365,0,0,1-2.365-2.365v-6.763Z" transform="translate(-926.757 -866.04)" fill="#4285f4"/>
          <g id="Group_5905" data-name="Group 5905" transform="translate(0 34.642)">
            <g id="Group_5904" data-name="Group 5904" transform="translate(12.074 46.807)">
              <g id="Group_5903" data-name="Group 5903">
                <path id="Path_13550" data-name="Path 13550" d="M826.209,930.122s.106,1.712,2.174,5.408c.562,1.005,2.5,2.981,4.206,2.607.234-.05.742-.408.738-.638-.005-.3-.16-.465-.785-.721a3.692,3.692,0,0,1-2.03-1.73c-.6-1.072-.914-2.3-.514-2.525s1.185.662,1.525.845c1.121.606,1.656-.549.617-1.247a11.427,11.427,0,0,1-3.578-3.316Z" transform="translate(-826.209 -928.805)" fill="#fdc5ab"/>
              </g>
            </g>
            <path id="Path_13551" data-name="Path 13551" d="M756.278,659.577l4.444-13.314a14.756,14.756,0,0,0,1.145-3.163,25.142,25.142,0,0,1,3.445-11.623c-2.113-.777-7.453.772-9.034,5.162-1.037,2.878-6.435,20.321-6.435,20.321a4.75,4.75,0,0,0,.582,4.726l10.4,18.213c.368.678,4.141-1.478,3.853-1.963Z" transform="translate(-749.461 -631.284)" fill="#c3bebc"/>
          </g>
          <g id="Group_5908" data-name="Group 5908" transform="translate(35.045 34.622)">
            <g id="Group_5907" data-name="Group 5907" transform="translate(0 46.827)">
              <g id="Group_5906" data-name="Group 5906">
                <path id="Path_13552" data-name="Path 13552" d="M979.337,930.122s-.106,1.712-2.174,5.408c-.562,1.005-2.5,2.981-4.206,2.607-.233-.05-.742-.408-.738-.638.005-.3.159-.465.785-.721a3.691,3.691,0,0,0,2.03-1.73c.6-1.072.915-2.3.515-2.525-.385-.216-1.185.662-1.525.845-1.122.606-1.655-.549-.617-1.247a11.423,11.423,0,0,0,3.578-3.316Z" transform="translate(-972.219 -928.805)" fill="#fdc5ab"/>
              </g>
            </g>
            <path id="Path_13553" data-name="Path 13553" d="M1004.652,659.47l-4.281-13.73a17.182,17.182,0,0,1-1.287-3.183,28.619,28.619,0,0,0-3.063-11.261c2.173-.682,7.071,1.145,8.631,5.235,1.09,2.858,6.435,20.321,6.435,20.321a4.751,4.751,0,0,1-.582,4.726l-10.4,18.213c-.367.678-4.14-1.478-3.854-1.963Z" transform="translate(-992.276 -631.156)" fill="#c3bebc"/>
          </g>
          <path id="Path_13554" data-name="Path 13554" d="M889.864,495.785l.233-.6a7.515,7.515,0,0,0-3.632.668C884.857,496.557,888.48,495.671,889.864,495.785Z" transform="translate(-864.571 -481.935)" fill="#0d153d"/>
          <path id="Path_13555" data-name="Path 13555" d="M939.955,495.785l-.233-.6a7.516,7.516,0,0,1,3.632.668C944.963,496.557,941.339,495.671,939.955,495.785Z" transform="translate(-909.79 -481.935)" fill="#0d153d"/>
          <path id="Path_13556" data-name="Path 13556" d="M923.83,577.326a1.194,1.194,0,0,0,.474.123,1.851,1.851,0,0,0,.489-.1.543.543,0,0,1-.491.311A.5.5,0,0,1,923.83,577.326Z" transform="translate(-896.398 -551.173)" fill="#e6c4b0" style="mix-blend-mode: multiply;isolation: isolate"/>
          <path id="Path_13557" data-name="Path 13557" d="M921.885,540.734a2.362,2.362,0,0,0-.939-.241,3.721,3.721,0,0,0-.968.2,1.073,1.073,0,0,1,.97-.618A.978.978,0,0,1,921.885,540.734Z" transform="translate(-893.152 -519.781)" fill="#e6c4b0" style="mix-blend-mode: multiply;isolation: isolate"/>
          <path id="Path_13558" data-name="Path 13558" d="M895.11,511.254c0,.839-.46,1.52-1.028,1.52s-1.029-.681-1.029-1.52.461-1.52,1.029-1.52S895.11,510.415,895.11,511.254Z" transform="translate(-870.463 -494.214)" fill="#0d153d"/>
          <path id="Path_13559" data-name="Path 13559" d="M945.58,511.254c0,.839-.461,1.52-1.029,1.52s-1.028-.681-1.028-1.52.46-1.52,1.028-1.52S945.58,510.415,945.58,511.254Z" transform="translate(-912.993 -494.214)" fill="#0d153d"/>
          <path id="Path_13562" data-name="Path 13562" d="M907.7,559.1s3.587.986,5.714-.14c0,0-1.155,2.322-2.8,2.322S907.7,559.1,907.7,559.1Z" transform="translate(-882.807 -535.692)" fill="#fff"/>
        </g>
      </g>
      <path id="Path_13532" data-name="Path 13532" d="M1807.861,1486.886c0,5.373-13.5,9.729-30.159,9.729s-30.157-4.356-30.157-9.729,13.5-9.728,30.157-9.728S1807.861,1481.514,1807.861,1486.886Z" transform="translate(-724.173 1246.015)" fill="#ffd2aa" style="mix-blend-mode: multiply;isolation: isolate"/>
      <g id="Group_5925" data-name="Group 5925" transform="translate(1005.223 2575.17)">
        <g id="Group_5923" data-name="Group 5923">
          <g id="Group_5922" data-name="Group 5922">
            <path id="Path_13595" data-name="Path 13595" d="M1638.076,544.88s-1.539-.552-4.372-3.43c-.77-.781-2.063-3.081-1.268-4.544.109-.2.572-.57.781-.505.271.084.383.269.451.91a3.522,3.522,0,0,0,1.043,2.318c.821.834,1.863,1.45,2.175,1.143s-.291-1.261-.369-1.622c-.256-1.188.944-1.368,1.307-.233a10.888,10.888,0,0,0,2.083,4.158Z" transform="translate(-1632.186 -536.394)" fill="#fdc5ab"/>
          </g>
        </g>
        <g id="Group_5924" data-name="Group 5924" transform="translate(5.536 6.32)">
          <path id="Path_13596" data-name="Path 13596" d="M1667.442,578.4l11.315,14.067a2.727,2.727,0,0,0,1.593,1.384l17.25,5.208a2.646,2.646,0,1,0,1.849-4.957l-16.612-4.716-13.416-12.59C1668.916,575.989,1666.988,577.481,1667.442,578.4Z" transform="translate(-1667.373 -576.566)" fill="#fdc5ab"/>
        </g>
        <path id="Path_13597" data-name="Path 13597" d="M1834.833,674.617s1.155.188,6.445.629c7.512.626,8.058,2.27,8.046,3.67-.021,2.269-1.087,6.129-8.805,4.156-1.909-.488-7.616-2.034-7.616-2.034Z" transform="translate(-1801.325 -652.872)" fill="#dbd8d7"/>
      </g>
      <path id="Path_13598" data-name="Path 13598" d="M1878.928,976.413c0-.033,0-.05,0-.05a36.98,36.98,0,0,0-1.028-5.644l-26.61-.109a41.94,41.94,0,0,0-1.167,6.29h-.012a202.423,202.423,0,0,0,1.505,32.791c.581,4.726,4.077,44.723,4.077,44.723l6.03.1s.581-33.7,1.236-41.7c1.052-12.851.037-29.446.037-29.446l.928-2.423q.675-.012,1.351-.031l2.484,73.6,5.858-.1s.71-31.036,2.81-43.2C1878.929,996.7,1878.971,976.976,1878.928,976.413Z" transform="translate(-810.485 1672.872)" fill="#fdc5ab"/>
      <path id="Path_13599" data-name="Path 13599" d="M1849.755,1016.038l25.312-.114c.412-4.033,2.594-21.788,2.417-39.511,0-.033,0-.05,0-.05a36.989,36.989,0,0,0-1.028-5.644l-26.61-.109a41.934,41.934,0,0,0-1.167,6.29h-.012A221.654,221.654,0,0,0,1849.755,1016.038Z" transform="translate(-809.043 1672.872)" fill="#004d9e"/>
      <rect id="Rectangle_1432" data-name="Rectangle 1432" width="17.012" height="26.321" transform="translate(1045.565 2576.591)" fill="#000526"/>
      <path id="Path_13600" data-name="Path 13600" d="M1852.133,725.795l28.247-.137c-5.975-20.6-2.006-31.689-.682-40.527,1.17-7.815-1.377-11.424-1.377-11.424l-2.29-3.709-3.539-1.635h-11.07l-3.387.981-3.163,4.035s-2.6,3.574-1.511,12.569C1854.589,696.1,1855.531,706.144,1852.133,725.795Z" transform="translate(-812.307 1927.569)" fill="#4285f4"/>
      <path id="Path_13601" data-name="Path 13601" d="M1871.455,685.776c.913-7.848-2.31-12.069-2.31-12.069l-2.29-3.709-3.539-1.635-5.792,16.785s-4.447-13.748-5.252-16.785l-3.572.916-3,4.1s-3.474,3.711-2.234,12.687c2.906,21.033-3.671,42.464-1.915,58.7h31.071C1874.479,730.706,1869.021,706.69,1871.455,685.776Z" transform="translate(-803.132 1927.569)" fill="#dbd8d7"/>
      <path id="Path_13602" data-name="Path 13602" d="M1940.526,762s-.312-.964-.784-2.436v62.052h1.5V759.926Z" transform="translate(-886.133 1850.714)" fill="#c3bebc"/>
      <path id="Path_13603" data-name="Path 13603" d="M1910.3,504.637c-.337,2.725-7.27,7.911-8.915,7.708l-2.916-.361c-2.208-.273-7.439-7.123-7.054-9.666l1.163-9.407a5.877,5.877,0,0,1,6.553-5.109l7.22.893a5.876,5.876,0,0,1,5.11,6.553Z" transform="translate(-845.392 2079.762)" fill="#fdc5ab"/>
      <path id="Path_13604" data-name="Path 13604" d="M1930.491,632.777h-6.736c.294,1.59.649,4.419-.24,5.626-.142.192-.3,2.808,3.623,2.808,3.592,0,3.728-2.655,3.622-2.808C1929.811,637.037,1930.178,634.318,1930.491,632.777Z" transform="translate(-872.413 1957.556)" fill="#fdc5ab"/>
      <g id="Group_5932" data-name="Group 5932" transform="translate(1049.347 2577.896)">
        <g id="Group_5930" data-name="Group 5930" transform="translate(0)">
          <g id="Group_5927" data-name="Group 5927">
            <g id="Group_5926" data-name="Group 5926">
              <path id="Path_13605" data-name="Path 13605" d="M1915.788,554.264c-.276-.055-.526-.116-.785-.148a7.57,7.57,0,0,0-.767-.114,3.866,3.866,0,0,0-1.557.286.017.017,0,0,1-.022-.009.018.018,0,0,1,.006-.02,3.483,3.483,0,0,1,1.569-.518,2.194,2.194,0,0,1,.846.057,1.639,1.639,0,0,1,.726.44.017.017,0,0,1,0,.024A.02.02,0,0,1,1915.788,554.264Z" transform="translate(-1912.656 -553.725)" fill="#0d153d"/>
            </g>
          </g>
          <g id="Group_5929" data-name="Group 5929" transform="translate(7.777 0.839)">
            <g id="Group_5928" data-name="Group 5928">
              <path id="Path_13606" data-name="Path 13606" d="M1962.1,559.3a1.772,1.772,0,0,1,.848-.245,2.386,2.386,0,0,1,.868.154,3.731,3.731,0,0,1,1.469.895.017.017,0,0,1,0,.023.015.015,0,0,1-.021,0,4.157,4.157,0,0,0-1.516-.667c-.269-.054-.54-.053-.807-.081s-.54-.036-.833-.051a.017.017,0,0,1-.016-.017A.02.02,0,0,1,1962.1,559.3Z" transform="translate(-1962.088 -559.058)" fill="#0d153d"/>
            </g>
          </g>
        </g>
        <path id="Path_13607" data-name="Path 13607" d="M1938.3,597.8a2.159,2.159,0,0,0-.822-.323,3.4,3.4,0,0,0-.9.071.98.98,0,0,1,.948-.451A.891.891,0,0,1,1938.3,597.8Z" transform="translate(-1932.815 -590.27)" fill="#e6c4b0" style="mix-blend-mode: multiply;isolation: isolate"/>
        <path id="Path_13608" data-name="Path 13608" d="M1916.74,568.156c-.094.76-.587,1.325-1.1,1.261s-.855-.731-.761-1.49.587-1.325,1.1-1.262S1916.834,567.4,1916.74,568.156Z" transform="translate(-1914.515 -564.625)" fill="#0d153d"/>
        <path id="Path_13609" data-name="Path 13609" d="M1962.435,573.81c-.094.76-.587,1.325-1.1,1.261s-.855-.731-.761-1.491.588-1.324,1.1-1.261S1962.529,573.051,1962.435,573.81Z" transform="translate(-1953.021 -569.39)" fill="#0d153d"/>
        <g id="Group_5931" data-name="Group 5931" transform="translate(3.26 9.591)">
          <path id="Path_13612" data-name="Path 13612" d="M1935.842,625.473a1.484,1.484,0,0,0,.561.222,2.27,2.27,0,0,0,.614-.046.668.668,0,0,1-.648.305A.609.609,0,0,1,1935.842,625.473Z" transform="translate(-1935.455 -623.776)" fill="#e6c4b0" style="mix-blend-mode: multiply;isolation: isolate"/>
          <path id="Path_13613" data-name="Path 13613" d="M1930.975,614.847a3.918,3.918,0,0,1-1.543.24,3.591,3.591,0,0,1-1.421-.4" transform="translate(-1928.012 -614.688)" fill="none" stroke="#000526" stroke-linecap="round" stroke-linejoin="round" stroke-width="2.08"/>
        </g>
      </g>
      <path id="Path_13614" data-name="Path 13614" d="M1869.555,929.629v6.6a2.306,2.306,0,0,0,2.307,2.306l4.214.24a2.307,2.307,0,0,0,2.307-2.307v-6.595Z" transform="translate(-826.989 1707.405)" fill="#4285f4"/>
      <path id="Path_13615" data-name="Path 13615" d="M1973.158,931.018v6.594a2.306,2.306,0,0,1-2.306,2.306l-4.215.241a2.306,2.306,0,0,1-2.306-2.306v-6.6Z" transform="translate(-906.853 1706.235)" fill="#4285f4"/>
      <g id="Group_5933" data-name="Group 5933" transform="translate(1036.953 2727.246)">
        <path id="Path_13616" data-name="Path 13616" d="M1842.137,1503.052a14.8,14.8,0,0,1-3.378,2.283c-3.064,1.67-5.761,4.918-4.616,6.143,1.526,1.635,4.144,1.235,6-.436,2.552-2.3,4.02-4.088,6.326-5.071,1.332-.569,1.636-2.427,1.687-2.816Z" transform="translate(-1833.873 -1503.052)" fill="#fdc5ab"/>
        <path id="Path_13617" data-name="Path 13617" d="M1845.808,1505.89a18.884,18.884,0,0,0-2.429,1.334,11.667,11.667,0,0,0-2.281,1.9,5.636,5.636,0,0,1-4.073,1.987c-1.255-.054-2.152-.354-2.484-1.443-.669,1-.9,1.917-.4,2.45,1.526,1.635,4.144,1.235,6-.436,2.552-2.3,4.02-4.088,6.326-5.071,1.332-.569,1.636-2.41,1.687-2.8A5.18,5.18,0,0,1,1845.808,1505.89Z" transform="translate(-1833.873 -1503.694)" fill="#0d153d"/>
      </g>
      <g id="Group_5934" data-name="Group 5934" transform="translate(1057.268 2727.212)">
        <path id="Path_13618" data-name="Path 13618" d="M1968.866,1502.832a16.621,16.621,0,0,0,3.544,2.278c3.065,1.67,5.76,4.918,4.616,6.144-1.526,1.635-4.144,1.235-6-.436-2.55-2.3-4.019-4.088-6.325-5.071-1.332-.569-1.648-2.429-1.7-2.818Z" transform="translate(-1963.003 -1502.832)" fill="#fdc5ab"/>
        <path id="Path_13619" data-name="Path 13619" d="M1965.356,1505.542a23.233,23.233,0,0,1,2.431,1.333,11.669,11.669,0,0,1,2.28,1.9,5.635,5.635,0,0,0,4.074,1.986c1.254-.052,2.152-.354,2.482-1.443.668,1,.9,1.917.4,2.449-1.527,1.635-4.144,1.235-6-.436-2.55-2.3-4.018-4.088-6.325-5.071a3.414,3.414,0,0,1-1.7-2.817A6.3,6.3,0,0,0,1965.356,1505.542Z" transform="translate(-1963 -1503.35)" fill="#0d153d"/>
      </g>
      <path id="Path_13620" data-name="Path 13620" d="M1950.517,668.363l2.122,4.929-2.387,1.569.409,2.286-5.935,8Z" transform="translate(-890.332 1927.568)" fill="#c3bebc"/>
      <path id="Path_13621" data-name="Path 13621" d="M1897.075,668.363l-2.663,4.588,2.321,1.467-.444,2.525,6.038,8.2Z" transform="translate(-847.935 1927.568)" fill="#c3bebc"/>
      <path id="Path_13622" data-name="Path 13622" d="M1882.8,516.923c-2.234-.827,8.971-23.925-1.732-28.618-2.326-1.019-8.3-2.063-10.644-1.091-10.144,4.2-6.578,26.091-8.914,26.56-2.912.584-.694,5.109.568,6,0,0,1.535-2.5,2.65-3.127a14.217,14.217,0,0,1,3.388-1.256c1.382-5.664-1.581-9.691-1.783-11.593-.223-2.09.022-4.225,1.243-5.151,1.442-1.094,1.95-4.365,1.95-4.365,1.88,1.195,4.015.576,5.567.257,1.427.688,3.575,1.7,5.8.942,0,0,.245,3.525,1.166,4.751.8,1.061,1.011,2.3.428,4.315-.843,2.921-8.017,8.6-7.078,15.453s7.557.591,9.435-.689S1885.038,517.749,1882.8,516.923Z" transform="translate(-819.002 2080.545)" fill="#0d153d"/>
      <g id="Group_5935" data-name="Group 5935" transform="translate(1061.639 2581.262)">
        <path id="Path_13623" data-name="Path 13623" d="M1991.354,577.678c-.178,1.44-1.271,2.49.169,2.668a2.627,2.627,0,1,0,.645-5.213C1990.728,574.954,1991.532,576.238,1991.354,577.678Z" transform="translate(-1990.789 -575.116)" fill="#fdc5ab"/>
        <path id="Path_13624" data-name="Path 13624" d="M1996.406,583.973c-.1.828-.731,1.432.1,1.535a1.511,1.511,0,0,0,.371-3C1996.046,582.405,1996.508,583.144,1996.406,583.973Z" transform="translate(-1995.249 -581.337)" fill="#fac1b9" style="mix-blend-mode: multiply;isolation: isolate"/>
      </g>
      <g id="Group_5939" data-name="Group 5939" transform="translate(1061.883 2663.894) rotate(-104)">
        <g id="Group_5937" data-name="Group 5937" transform="matrix(0.819, -0.574, 0.574, 0.819, 1.241, 15.78)">
          <g id="Group_5936" data-name="Group 5936">
            <path id="Path_13625" data-name="Path 13625" d="M1661.262,641.227s-1.675-.472-4.9-3.312c-.877-.773-2.422-3.116-1.687-4.729.1-.221.563-.649.791-.6.295.069.427.258.548.933a3.745,3.745,0,0,0,1.281,2.383c.935.823,2.087,1.4,2.4,1.049s-.4-1.316-.514-1.694c-.36-1.242.9-1.524,1.37-.345a11.6,11.6,0,0,0,2.523,4.257Z" transform="translate(-1654.484 -632.586)" fill="#fdc5ab"/>
          </g>
        </g>
        <g id="Group_5938" data-name="Group 5938" transform="translate(13.117 5.705)">
          <path id="Path_13626" data-name="Path 13626" d="M1692.417,685.459l17.606,1.573c.113.023,2.993.18,3.814.25l17.152-.9a2.31,2.31,0,0,0,2.235-2.43,2.284,2.284,0,0,0-2.406-2.235l-19.531,1.178-18.8-.542C1691.817,681.861,1691.751,684.863,1692.417,685.459Z" transform="translate(-1695.001 -672.201)" fill="#fdc5ab"/>
        </g>
        <path id="Path_13627" data-name="Path 13627" d="M1933.779,713.31s1.139-.271,6.193-1.9c7.174-2.308,8.312-1,8.838.3.853,2.1,1.353,6.076-6.531,7.222-1.95.283-7.813,1.049-7.813,1.049Z" transform="translate(-1889.84 -697.944)" fill="#dbd8d7"/>
      </g>
      <path id="Path_13628" data-name="Path 13628" d="M1906.394,497.186c1.183-4.458-.152-11.936-5.913-12.782l-6.686-1.046c-4.735-.469-9.052,5.413-9.279,9.961,0,0,3.935-3.4,11.218-2.334C1903.359,492.105,1906.394,497.186,1906.394,497.186Z" transform="translate(-839.596 2083.49)" fill="#dbd8d7"/>
    </g>
    <g id="Group_5968" data-name="Group 5968" transform="translate(-1155 -2338)">
      <g id="Group_4978" data-name="Group 4978" transform="translate(1608.744 2548.322)" opacity="0.8">
        <path id="Path_11810" data-name="Path 11810" d="M5635.4,1145.22a1.134,1.134,0,0,0,1.133-1.133v-5.094a3.546,3.546,0,0,0,2.4-3.326v-10a3.531,3.531,0,0,0-7.061,0v10a3.546,3.546,0,0,0,2.4,3.326v5.094A1.134,1.134,0,0,0,5635.4,1145.22Zm-2.694-9.553v-10a2.694,2.694,0,0,1,5.389,0v10a2.707,2.707,0,0,1-2.075,2.617c-.012,0-.021.011-.033.015a.427.427,0,0,0-.076.035.414.414,0,0,0-.064.043.426.426,0,0,0-.054.059.387.387,0,0,0-.043.065.453.453,0,0,0-.028.073.4.4,0,0,0-.017.084c0,.012-.007.022-.007.034v5.4a.3.3,0,1,1-.592,0v-5.4c0-.012-.006-.023-.007-.034a.437.437,0,0,0-.017-.084.41.41,0,0,0-.028-.073.393.393,0,0,0-.044-.065.373.373,0,0,0-.054-.059.414.414,0,0,0-.064-.043.394.394,0,0,0-.076-.035c-.012,0-.021-.012-.033-.015A2.707,2.707,0,0,1,5632.706,1135.668Z" transform="translate(-5631.869 -1122.139)" fill="#4285f4"/>
        <path id="Path_11811" data-name="Path 11811" d="M5645.465,1149.974v-6.9a2.058,2.058,0,0,0-4.115,0v6.9a2.058,2.058,0,0,0,4.115,0Zm-2.058-8.122a1.223,1.223,0,0,1,1.222,1.221v3.078h-2.443v-3.078A1.223,1.223,0,0,1,5643.407,1141.852Zm-1.221,8.122v-2.986h2.443v2.986a1.221,1.221,0,0,1-2.443,0Z" transform="translate(-5639.877 -1138.083)" fill="#4285f4"/>
      </g>
      <g id="Group_4988" data-name="Group 4988" transform="translate(1580.459 2509.878)" opacity="0.8">
        <path id="Path_11853" data-name="Path 11853" d="M5504.41,939.378h-.837v2.768H5500.8v.836h2.768v2.768h.837v-2.768h2.769v-.836h-2.769Z" transform="translate(-5492.88 -929.327)" fill="#4285f4"/>
        <path id="Path_11854" data-name="Path 11854" d="M5467.848,878.294h-1.765a5.553,5.553,0,0,0-5.168-3.616,5.5,5.5,0,0,0-5.176,3.616h-1.769a4.177,4.177,0,0,0-4.172,4.172v11.173a4.177,4.177,0,0,0,4.172,4.172h13.877a4.177,4.177,0,0,0,4.172-4.172V882.466A4.177,4.177,0,0,0,5467.848,878.294Zm-6.933-2.78a4.716,4.716,0,0,1,4.271,2.78h-8.549A4.667,4.667,0,0,1,5460.915,875.514Zm10.269,18.125a3.34,3.34,0,0,1-3.336,3.336H5453.97a3.34,3.34,0,0,1-3.336-3.336V882.466a3.34,3.34,0,0,1,3.336-3.336h13.877a3.34,3.34,0,0,1,3.336,3.336Z" transform="translate(-5449.798 -874.678)" fill="#4285f4"/>
      </g>
      <path id="Path_11804" data-name="Path 11804" d="M5491.092,1326.6h-12.6a.418.418,0,0,0,0,.836h1.5v17.476a4.8,4.8,0,0,0,9.607,0V1327.44h1.493a.418.418,0,1,0,0-.836Zm-2.33,6.4h-3.967a.418.418,0,0,0,0,.836h3.967v2.323h-1.774a.418.418,0,1,0,0,.836h1.774v2.322h-1.774a.418.418,0,1,0,0,.836h1.774v2.323h-3.967a.418.418,0,0,0,0,.836h3.967v1.6a3.967,3.967,0,1,1-7.935,0V1327.44h7.935Z" transform="translate(-3884.225 1410.482)" fill="#4285f4"/>
      <path id="Path_11808" data-name="Path 11808" d="M4996.965,1005.543c.22-1.953-.834-4.154-3.046-6.367-.169-.169-.324-.329-.479-.488,2.747-2.972,2.988-4.388,2.988-5.984h-.836a5,5,0,0,1-.408,2.185h-4.638a5.005,5.005,0,0,1-.408-2.185h-.836c0,1.6.241,3.011,2.988,5.984-.155.16-.31.319-.479.488-2.212,2.212-3.266,4.414-3.046,6.367a5.928,5.928,0,0,0,3.119,4.263c.1.063.186.127.28.19-3.1,2.564-2.868,5.318-2.854,5.447l.831-.086a4.559,4.559,0,0,1,.438-2.023h4.578a4.464,4.464,0,0,1,.428,2.024l.417.042.416.043c.014-.129.247-2.883-2.854-5.447.095-.063.18-.128.28-.19A5.927,5.927,0,0,0,4996.965,1005.543Zm-.944-1.55h-6.31a6.356,6.356,0,0,1,.615-1.539h5.08A6.356,6.356,0,0,1,4996.021,1003.993Zm-6.424,1.456a3.9,3.9,0,0,1-.016-.62h6.569a3.9,3.9,0,0,1-.016.62,3.7,3.7,0,0,1-.225.9h-6.087A3.721,3.721,0,0,1,4989.6,1005.449Zm1.4-9.724h3.74a1.92,1.92,0,1,1-3.74,0Zm1.408,4.042c.163-.163.312-.317.462-.473.15.155.3.309.463.473a13.47,13.47,0,0,1,1.558,1.851h-4.041A13.446,13.446,0,0,1,4992.4,999.767Zm2.308,12.73h-3.683a1.847,1.847,0,1,1,3.683,0Zm-2.381-3.4a6.768,6.768,0,0,1-2.071-1.912h5.213a6.757,6.757,0,0,1-2.071,1.912c-.19.12-.361.242-.535.365C4992.691,1009.341,4992.521,1009.218,4992.33,1009.1Z" transform="translate(-3447.238 1724.509)" fill="#4285f4"/>
      <g id="Group_5967" data-name="Group 5967" transform="translate(14 13)">
        <path id="Path_11815" data-name="Path 11815" d="M5097.685,1335.334a.418.418,0,0,0-.418.418v2.085h-20.5v-4.118a.418.418,0,1,0-.836,0v8.61a.418.418,0,1,0,.836,0v-3.655h20.5v3.655a.418.418,0,0,0,.836,0v-6.577A.418.418,0,0,0,5097.685,1335.334Z" transform="translate(-3535.075 1404.825)" fill="#4285f4"/>
        <path id="Path_11816" data-name="Path 11816" d="M5125.205,1346.39a.418.418,0,0,0,0,.836h6.157a.418.418,0,0,0,0-.836Z" transform="translate(-3576.342 1393.77)" fill="#4285f4"/>
      </g>
      <g id="Group_4967" data-name="Group 4967" transform="translate(1535.034 2608.204)" opacity="0.8">
        <path id="Path_11797" data-name="Path 11797" d="M3309.631,1265.353h-5.206a3.382,3.382,0,0,0-6.446,0h-5.206v21.291h16.858Zm-8.43-1.521a2.573,2.573,0,0,1,2.566,2.435h-5.131A2.572,2.572,0,0,1,3301.2,1263.832Zm7.594,21.975h-15.186v-19.618h4.209c0,.071-.021.139-.021.211a3,3,0,0,0,.013.331l.042.372h6.7l.042-.372a2.938,2.938,0,0,0,.013-.331c0-.072-.017-.14-.021-.211h4.209Z" transform="translate(-3292.773 -1262.996)" fill="#4285f4"/>
        <path id="Path_11798" data-name="Path 11798" d="M3329.285,1304.753h.836v-2.768h2.769v-.836h-2.769v-2.769h-.836v2.769h-2.768v.836h2.768Z" transform="translate(-3321.274 -1292.883)" fill="#4285f4"/>
        <rect id="Rectangle_1201" data-name="Rectangle 1201" width="9.565" height="0.836" transform="translate(3.647 14.067)" fill="#4285f4"/>
        <rect id="Rectangle_1202" data-name="Rectangle 1202" width="9.565" height="0.836" transform="translate(3.647 16.576)" fill="#4285f4"/>
        <rect id="Rectangle_1203" data-name="Rectangle 1203" width="9.565" height="0.836" transform="translate(3.647 19.085)" fill="#4285f4"/>
      </g>
      <g id="Group_4972" data-name="Group 4972" transform="translate(1526.324 2523.928)" opacity="0.8">
        <path id="Path_11803" data-name="Path 11803" d="M3086.844,1149.141a4.638,4.638,0,0,0,4.633-4.633V1144a6.948,6.948,0,1,0,0-12.814v-.509a4.629,4.629,0,1,0-9.257,0v13.832A4.634,4.634,0,0,0,3086.844,1149.141Zm13.429-11.549a6.109,6.109,0,0,1-9.962,4.743l8.594-8.594A6.084,6.084,0,0,1,3100.273,1137.593Zm-1.942-4.46-8.629,8.629a6.1,6.1,0,0,1,8.629-8.629Zm-11.487-6.253a3.807,3.807,0,0,1,3.8,3.8v.937a6.943,6.943,0,0,0-3.405,5.56h-4.179v-6.5A3.8,3.8,0,0,1,3086.844,1126.88Zm-3.788,11.13h4.179a6.943,6.943,0,0,0,3.429,5.575.4.4,0,0,0-.024.118v.8a3.792,3.792,0,1,1-7.584,0Z" transform="translate(-3084.22 -1142.044)" fill="#4285f4"/>
      </g>
      <g id="Group_4985" data-name="Group 4985" transform="translate(1536.122 2669.755)" opacity="0.8">
        <path id="Path_11834" data-name="Path 11834" d="M5298.526,1124.93h-2.993a2.393,2.393,0,0,0-2.39,2.39v16.6a2.393,2.393,0,0,0,2.39,2.39h2.993a2.393,2.393,0,0,0,2.39-2.39v-16.6A2.393,2.393,0,0,0,5298.526,1124.93Zm-4.547,2.39a1.556,1.556,0,0,1,1.554-1.554h2.993a1.556,1.556,0,0,1,1.554,1.554v5.161h-6.1Zm5.984,6v4.6h-5.984v-4.6Zm-1.437,12.153h-2.993a1.556,1.556,0,0,1-1.554-1.554v-5.161h6.1v5.161A1.556,1.556,0,0,1,5298.526,1145.471Z" transform="translate(-5293.143 -1124.93)" fill="#4285f4"/>
        <path id="Path_11835" data-name="Path 11835" d="M5312.823,1157.1a.982.982,0,1,0,.981.982A.983.983,0,0,0,5312.823,1157.1Zm0,1.546a.564.564,0,1,1,.563-.564A.565.565,0,0,1,5312.823,1158.648Z" transform="translate(-5308.936 -1152.104)" fill="#4285f4"/>
        <path id="Path_11836" data-name="Path 11836" d="M5312.823,1139.907a.982.982,0,1,0,.981.982A.984.984,0,0,0,5312.823,1139.907Zm0,1.546a.564.564,0,1,1,.563-.563A.565.565,0,0,1,5312.823,1141.453Z" transform="translate(-5308.936 -1137.58)" fill="#4285f4"/>
        <path id="Path_11837" data-name="Path 11837" d="M5312.823,1139.907a.982.982,0,1,0,.981.982A.984.984,0,0,0,5312.823,1139.907Zm0,1.546a.564.564,0,1,1,.563-.563A.565.565,0,0,1,5312.823,1141.453Z" transform="translate(-5308.936 -1137.58)" fill="#4285f4"/>
        <path id="Path_11838" data-name="Path 11838" d="M5312.823,1157.1a.982.982,0,1,0,.981.982A.983.983,0,0,0,5312.823,1157.1Zm0,1.546a.564.564,0,1,1,.563-.564A.565.565,0,0,1,5312.823,1158.648Z" transform="translate(-5308.936 -1152.104)" fill="#4285f4"/>
        <path id="Path_11839" data-name="Path 11839" d="M5312.823,1234.829a.982.982,0,1,0,.981.983A.984.984,0,0,0,5312.823,1234.829Zm0,1.547a.564.564,0,1,1,.563-.564A.565.565,0,0,1,5312.823,1236.376Z" transform="translate(-5308.936 -1217.756)" fill="#4285f4"/>
        <path id="Path_11840" data-name="Path 11840" d="M5312.823,1217.634a.982.982,0,1,0,.981.982A.984.984,0,0,0,5312.823,1217.634Zm0,1.547a.564.564,0,1,1,.563-.564A.565.565,0,0,1,5312.823,1219.181Z" transform="translate(-5308.936 -1203.232)" fill="#4285f4"/>
        <path id="Path_11841" data-name="Path 11841" d="M5312.823,1217.634a.982.982,0,1,0,.981.982A.984.984,0,0,0,5312.823,1217.634Zm0,1.547a.564.564,0,1,1,.563-.564A.565.565,0,0,1,5312.823,1219.181Z" transform="translate(-5308.936 -1203.232)" fill="#4285f4"/>
        <path id="Path_11842" data-name="Path 11842" d="M5312.823,1234.829a.982.982,0,1,0,.981.983A.984.984,0,0,0,5312.823,1234.829Zm0,1.547a.564.564,0,1,1,.563-.564A.565.565,0,0,1,5312.823,1236.376Z" transform="translate(-5308.936 -1217.756)" fill="#4285f4"/>
      </g>
      <g id="Group_4989" data-name="Group 4989" transform="translate(1467.014 2551.708)" opacity="0.8">
        <path id="Path_11855" data-name="Path 11855" d="M3810.435,1113.311a1.559,1.559,0,1,0-1.978,1.495v.493a4.889,4.889,0,0,0,4.466,4.863v4.938a6.958,6.958,0,0,0,13.916,0v-3.186a2.368,2.368,0,1,0-.836,0v3.186a6.122,6.122,0,0,1-12.244,0v-4.938a4.889,4.889,0,0,0,4.466-4.863v-.493a1.559,1.559,0,1,0-.836,0v.492a4.047,4.047,0,1,1-8.095,0v-.493A1.556,1.556,0,0,0,3810.435,1113.311Zm14.454,6.277a1.532,1.532,0,1,1,1.532,1.532A1.535,1.535,0,0,1,3824.889,1119.588Zm-7.806-6.277a.723.723,0,1,1,.723.723A.724.724,0,0,1,3817.083,1113.311Zm-8.929,0a.723.723,0,1,1,.723.723A.724.724,0,0,1,3808.153,1113.311Z" transform="translate(-3807.317 -1111.752)" fill="#4285f4"/>
      </g>
      <g id="Group_4975" data-name="Group 4975" transform="translate(1500.673 2737.455)" opacity="0.8">
        <path id="Path_11807" data-name="Path 11807" d="M5150.176,908.151h14.583a2.853,2.853,0,0,0,2.392-4.41l-5.118-7.841v-2.286s0-.005,0-.008,0-.005,0-.008v-3.143s0-.005,0-.008,0-.005,0-.008v-2.766s0-.005,0-.008,0-.005,0-.008v-1.992h1.5a.418.418,0,0,0,0-.836h-12.6a.418.418,0,1,0,0,.836h1.493V895.91l-4.715,7.886a2.876,2.876,0,0,0,2.467,4.355Zm-1.75-3.925,4.775-7.986a.408.408,0,0,0,.052-.215h.007v-10.36h7.936v1.582h-1.772a.418.418,0,1,0,0,.836h1.772v1.946h-3.965a.418.418,0,0,0,0,.836h3.965v2.323h-1.772a.418.418,0,1,0,0,.836h1.772v2h.008a.407.407,0,0,0,.061.229l5.185,7.944a2.017,2.017,0,0,1-1.69,3.117h-14.583a2.04,2.04,0,0,1-1.75-3.089Z" transform="translate(-5147.293 -884.829)" fill="#4285f4"/>
      </g>
      <g id="Group_4979" data-name="Group 4979" transform="translate(1475.338 2723.134)" opacity="0.8">
        <path id="Path_11812" data-name="Path 11812" d="M4516.148,878.8h-1.1a.418.418,0,0,0,0,.836h.686v13.906a.418.418,0,0,0,.418.418h1.9v4.983h.836v-4.983h1.905a.418.418,0,0,0,.418-.418V879.641h.686a.418.418,0,1,0,0-.836h-3.009v-1.641h1.312a.418.418,0,1,0,0-.836h-3.458a.418.418,0,1,0,0,.836h1.311V878.8Zm4.228,3.29h-1.905v.836h1.905v2.509h-1.905v.836h1.905v2.509h-1.905v.836h1.905v3.508h-3.81V879.641h3.81Z" transform="translate(-4514.627 -876.328)" fill="#4285f4"/>
      </g>
    </g>
  </g>
</svg>
