<svg xmlns="http://www.w3.org/2000/svg" xmlns:xlink="http://www.w3.org/1999/xlink" width="536.859" height="393.038" viewBox="0 0 536.859 393.038">
  <defs>
    <linearGradient id="linear-gradient" y1="0.5" x2="1" y2="0.5" gradientUnits="objectBoundingBox">
      <stop offset="0" stop-color="#eff6ff"/>
      <stop offset="1" stop-color="#c4d8fb"/>
    </linearGradient>
    <linearGradient id="linear-gradient-2" x1="9.118" y1="-4.483" x2="9.423" y2="-4.922" gradientUnits="objectBoundingBox">
      <stop offset="0.104" stop-color="#fff"/>
      <stop offset="0.206" stop-color="#fbfbfb"/>
      <stop offset="0.297" stop-color="#f0f0f0"/>
      <stop offset="0.383" stop-color="#dedede"/>
      <stop offset="0.467" stop-color="#c4c4c4"/>
      <stop offset="0.549" stop-color="#a3a3a3"/>
      <stop offset="0.63" stop-color="#7a7a7a"/>
      <stop offset="0.71" stop-color="#4a4a4a"/>
      <stop offset="0.787" stop-color="#141414"/>
      <stop offset="0.813"/>
    </linearGradient>
  </defs>
  <g id="Group_6132" data-name="Group 6132" transform="translate(-1404.768 -602)">
    <path id="Path_13122" data-name="Path 13122" d="M357.576,191.3c-88.062,0-200.651,8.559-200.651,19.12,0,7.083,32.124,13.268,79.857,16.572-65.493,3.419-108.714,9.3-108.714,15.97,0,7.559,55.438,14.1,135.891,17.2-3.981,1.674-6.115,3.437-6.115,5.265,0,10.558,71.388,19.12,159.45,19.12,151.066,0,247.633-30.683,247.633-51.746C664.927,206.657,596.216,191.3,357.576,191.3Z" transform="translate(1276.7 710.493)" fill="url(#linear-gradient)"/>
    <g id="Group_5419" data-name="Group 5419" transform="translate(1768.051 827.56)">
      <path id="Path_13029" data-name="Path 13029" d="M133.46,162.333c21.608,0,39.124,14.311,39.124,31.969,0,9.145-4.724,17.372-12.259,23.2l4.624,19.268L150.1,223.206a46.29,46.29,0,0,1-16.636,3.064c-21.611,0-39.127-14.311-39.127-31.969S111.849,162.333,133.46,162.333Z" transform="translate(-94.333 -162.333)" fill="#fbbc05"/>
      <g id="Group_5418" data-name="Group 5418" transform="translate(23.663 18.86)">
        <path id="Path_13030" data-name="Path 13030" d="M112.29,174.982a3.665,3.665,0,0,0-3.9-3.9,6.12,6.12,0,0,0-4.618,2.331l-1.889-1.729a8.84,8.84,0,0,1,6.748-3.333c4.139,0,6.871,2.45,6.871,6.429,0,5.26-6.466,7.394-5.824,13.017h-2.895C105.9,181.533,112.29,179.24,112.29,174.982Zm-3.976,16.191a2.535,2.535,0,0,1,0,5.063,2.537,2.537,0,0,1,0-5.063Z" transform="translate(-101.886 -168.353)" fill="#fff"/>
        <path id="Path_13031" data-name="Path 13031" d="M110.349,190.845a2.535,2.535,0,1,1-2.409,2.572A2.425,2.425,0,0,1,110.349,190.845Zm-1.607-18.563-.078-3.775H112l-.078,3.775-.445,15.189h-2.29Z" transform="translate(-88.973 -168.025)" fill="#fff"/>
      </g>
    </g>
    <g id="Group_6128" data-name="Group 6128" transform="translate(-99 -341)">
      <g id="Group_5761" data-name="Group 5761" transform="translate(-9566 1668)">
        <path id="Rectangle_1012" data-name="Rectangle 1012" d="M20.4,0H155.032a20.661,20.661,0,0,1,20.4,20.907V342.156a20.661,20.661,0,0,1-20.4,20.907H20.4A20.661,20.661,0,0,1,0,342.155V20.907A20.661,20.661,0,0,1,20.4,0Z" transform="translate(11237.306 -725)" fill="#213458"/>
        <path id="Path_11118" data-name="Path 11118" d="M17.915,0H155.743a17.916,17.916,0,0,1,17.916,17.916V340.908a17.915,17.915,0,0,1-17.915,17.915H17.915A17.915,17.915,0,0,1,0,340.908V17.915A17.915,17.915,0,0,1,17.915,0Z" transform="translate(11235.101 -720.761)" fill="#4285f4" stroke="#34a853" stroke-width="0.2"/>
        <path id="Path_11117" data-name="Path 11117" d="M1.568,0h152.76A1.568,1.568,0,0,1,155.9,1.568v279.8a1.568,1.568,0,0,1-1.568,1.568H1.568A1.568,1.568,0,0,1,0,281.363V1.568A1.568,1.568,0,0,1,1.568,0Z" transform="translate(11244.164 -684.558)" fill="#fff" stroke="#d5d5d5" stroke-width="0.2"/>
        <path id="Path_7953" data-name="Path 7953" d="M9.982,3.847A1.923,1.923,0,1,1,9.982,0H45.609a1.923,1.923,0,1,1,0,3.847ZM3.563,0a1.923,1.923,0,1,1,0,3.847H1.924A1.923,1.923,0,1,1,1.924,0Z" transform="translate(11298.163 -701.845)" fill="#fff" fill-rule="evenodd"/>
        <path id="Path_7954" data-name="Path 7954" d="M12.585,25.169A12.584,12.584,0,1,0,0,12.585,12.584,12.584,0,0,0,12.585,25.169Z" transform="translate(11309.346 -395.083)" fill="#fff" fill-rule="evenodd"/>
        <g id="Group_1705" data-name="Group 1705" transform="translate(11253.931 -677.197)">
          <path id="Path_7967" data-name="Path 7967" d="M.465.936A.468.468,0,1,1,.465,0H10.7a.468.468,0,0,1,0,.936Zm0,6.722a.466.466,0,0,1,0-.932H10.7a.466.466,0,0,1,0,.932Zm0-3.361a.468.468,0,1,1,0-.936H10.7a.468.468,0,0,1,0,.936Z" transform="translate(0.003 0)" fill="#4285f4" fill-rule="evenodd"/>
          <path id="Path_7968" data-name="Path 7968" d="M13.725.418ZM1.419.932H7.428V5.769H1.419a.471.471,0,0,1-.341-.142.479.479,0,0,1-.147-.341V1.419A.488.488,0,0,1,1.419.932ZM12.722,0H1.419A1.424,1.424,0,0,0,0,1.419V5.286A1.424,1.424,0,0,0,1.419,6.7h11.3a1.416,1.416,0,0,0,.971-.388l.032-.029a1.419,1.419,0,0,0,.416-1V1.419A1.422,1.422,0,0,0,12.722,0Z" transform="translate(121.857 0.477)" fill="#4285f4" fill-rule="evenodd"/>
        </g>
      </g>
    </g>
    <g id="Group_5437" data-name="Group 5437" transform="translate(1586.187 754.285)">
      <g id="Group_5426" data-name="Group 5426" transform="translate(78.12 5.913)">
        <g id="Group_5425" data-name="Group 5425" transform="translate(0 0.62)">
          <g id="Group_5422" data-name="Group 5422">
            <path id="Path_13033" data-name="Path 13033" d="M92.611,232.379l32.248,15.77,2.986,17.133L90.266,251.463Z" transform="translate(-90.266 -140.833)" fill="#b2cdfb"/>
            <path id="Path_13034" data-name="Path 13034" d="M154.36,255.218A132.3,132.3,0,0,1,150.2,241.5c-.418-2.494.832-1.869,1.246-6.44.381-4.172-2.524-13.7-3.984-17.227a4.641,4.641,0,0,1,2.459,1.862c1.248-1.246-.44-6.718-2.948-12.293-2.644-5.876-14.23-12.037-26.909-13.7a39.226,39.226,0,0,0-8.384-.094c5.456,4.069,5.585,9.036,5.585,9.036.938,1.046,2.336,2.776,4.205,9.144.921,3.187,2.828,12.994,2.828,12.994a50.174,50.174,0,0,0-1.862,8.408c-.125,2.705,3.965,10.07,5.648,13.33,2.144,2.788-2.148,5.7-4.182,5.587-.809-.038-2.55,2.412-.212,6.043a1.935,1.935,0,0,1,.327,1.239,24.066,24.066,0,0,0,9.524,4.353,5.063,5.063,0,0,1,3.589-1.551c2.44-.122,4.48,1.192,4.56,2.924s-1.824,3.234-4.259,3.352c-2.4.111-4.4-1.152-4.548-2.842a107.77,107.77,0,0,1-10.366-4,3.663,3.663,0,0,1-.877.468c-.428.143.931.444.637,2.353-.355,2.327-3.032,1.749-2.865,4.525.143,2.266.531,6.715-1.723,8.128-1.728,1.086-5.606,1.758-12.1,1.241-2.736-.226-9.945,2.611-12.963,9.976l26.324,11.231c-.348-10.171,7.844-12.216,9.637-12.952,3.991-1.631,7.484-.414,11.433-.414s4.156-1.457,5.195-4.574-.414-4.988-.414-6.861.414-2.487,1.45-3.114a5.748,5.748,0,0,0,2.083-1.662c.618-.832-.832-2.7-.832-2.7a4.281,4.281,0,0,0,1.662-1.455c.414-.835-1.251-2.91-1.251-4.567s1.457-1.669,3.326-2.083S155.195,257.3,154.36,255.218Z" transform="translate(-87.076 -193.432)" fill="#fea987"/>
          </g>
          <g id="Group_5424" data-name="Group 5424" transform="translate(23.139 58.02)">
            <g id="Group_5423" data-name="Group 5423">
              <path id="Path_13035" data-name="Path 13035" d="M104.106,218.116c4,4.906,9.05,9.393,17.965,11.421a6.393,6.393,0,0,1,4.515-1.956c3.067-.146,5.634,1.5,5.738,3.683s-2.3,4.066-5.359,4.215c-3.013.143-5.528-1.448-5.719-3.573-4.769-1.57-15.561-5.413-21.136-9.555C101.05,222.077,104.106,218.116,104.106,218.116Z" transform="translate(-100.11 -218.116)" fill="#4285f4"/>
            </g>
          </g>
        </g>
        <path id="Path_13036" data-name="Path 13036" d="M99.692,193.995c7.482-2.4,19.025.947,25.066,3.385,5.333,2.151,11.934,5.742,13.706,9.644,4.407,9.7,2.938,15.424,2.938,15.424l-3.476-4.259s-2.5-2.376-5.338-1.323c-11.9,4.407-14.186,12.07-16.893,14.1s-8.549-7.167-8.549-7.167Z" transform="translate(-77.536 -193.169)" fill="#434343"/>
      </g>
      <g id="Group_5436" data-name="Group 5436">
        <path id="Path_13037" data-name="Path 13037" d="M113.064,190.673l-10.756.338S86.133,220.734,86.133,222.26s-11.179,18.8-7.113,26.423,12.7,13.21,20.831,14.226,26.423,9.654,31.5,10.671,10.669-8.131,6.605-15.751-3.049-.51-8.128-9.146-9.654-18.294-11.177-30.487A252.074,252.074,0,0,0,113.064,190.673Z" transform="translate(-28.536 -190.626)" fill="#34a853"/>
        <g id="Group_5435" data-name="Group 5435">
          <path id="Path_13038" data-name="Path 13038" d="M139.343,235.115,98.054,270.192l-18.8-15.279L111.3,225.477Z" transform="translate(-25.023 -144.622)" opacity="0.4" fill="url(#linear-gradient-2)"/>
          <g id="Group_5434" data-name="Group 5434">
            <g id="Group_5427" data-name="Group 5427" transform="translate(0.44 0.341)">
              <path id="Path_13039" data-name="Path 13039" d="M174.32,256.957c2.127.108,6.624-2.934,4.381-5.851-1.765-3.406-6.041-11.116-5.909-13.946.136-2.863,1.944-8.8,1.944-8.8s-1.993-10.258-2.957-13.593c-1.956-6.666-3.418-8.471-4.4-9.567,0,0-.564-13.37-24.972-14.362-.418-.016-.881-.031-1.361-.045-9.879,7.543-10.368,29.525-10.129,40.209a15.406,15.406,0,0,1,13.462,15.015,14.7,14.7,0,0,1-2.529,8.227,26.454,26.454,0,0,0,15.572,9.9,5.543,5.543,0,0,1,3.916-1.695c2.656-.127,4.884,1.3,4.974,3.194s-1.991,3.523-4.647,3.65c-2.611.125-4.793-1.255-4.957-3.1-4.135-1.363-13.49-4.694-18.325-8.286a16.176,16.176,0,0,1-9.851,3.31c-8.753,0-16.538-6.579-16.538-14.975,0-6.314,4.7-11.955,10.411-14.254.075-24.488,5.355-35.688,8.533-40.954-12.352,1.053-29.3,4.332-35.569,15.514-1.479,2.633-3.042,7.505-3.928,9.886C80.7,203.775,60.706,210,57.765,227.8c-2.635,15.937,4.2,22.42,21.7,58.684C84.677,297.268,99.3,310.9,90.2,304.294l52.495,6.074c-1.356-2.983-4.16-6.708-3.392-11.113a38.322,38.322,0,0,1,2.275-5.011c4.285-7.7,10.655-10.082,13.581-9.839,6.8.538,10.852-.16,12.662-1.3,2.36-1.474,1.953-6.133,1.8-8.5-.174-2.9,2.626-2.3,3-4.729.308-2-1.112-2.32-.665-2.468,1.159-.383,3.375-2.238,2.144-4.132C171.656,259.476,173.473,256.914,174.32,256.957ZM104.3,290.062l-1.26,2.292-7.2,7.635c-.033-.3-.693-2.635-.736-2.938-3.216-24.363-11.123-39.43-5.872-49.479.108-.207,2.118-.125,2.226-.331,3.277,17.848,14.371,22.18,14.7,29.13C106.459,282.476,105.636,286.639,104.3,290.062Z" transform="translate(-57.218 -190.798)" fill="#ffc3ab"/>
              <path id="Path_13040" data-name="Path 13040" d="M104.734,220.123a10.918,10.918,0,1,1-10.909-10.467A10.693,10.693,0,0,1,104.734,220.123Z" transform="translate(-22.512 -165.329)" fill="#4285f4"/>
            </g>
            <g id="Group_5433" data-name="Group 5433">
              <g id="Group_5432" data-name="Group 5432">
                <g id="Group_5430" data-name="Group 5430" transform="translate(73.661)">
                  <path id="Path_13042" data-name="Path 13042" d="M105.749,222.221c1.761-7.635,5.872-9.249,10.57-12.775a27.207,27.207,0,0,1,9.691-4.551s-1.479-13.205-25.887-14.2c-.418-.016-.879-.031-1.359-.045-9.882,7.543-10.6,30.014-10.361,40.7a15.6,15.6,0,0,1,13.055,11.638l1.793-1.533S103.986,229.855,105.749,222.221Z" transform="translate(-88.369 -190.653)" fill="#434343"/>
                </g>
                <g id="Group_5431" data-name="Group 5431" transform="translate(0 0.413)">
                  <path id="Path_13043" data-name="Path 13043" d="M96.325,296.778c-.035-.3-.054-.571-.094-.874-3.218-24.366-10.5-37.957-5.256-48,.113-.207.19-.355.3-.559,3.279,17.845,14.374,22.18,14.7,29.133.035.705.343.7.931-.771,2.057-2.792,11.988-14.153,13.269-17.018-4.233-2.729-6.607-8.1-6.607-13.358,0-6.314,4.421-11.8,10.131-14.1.075-24.486,4.9-35.113,8.077-40.378-12.775-.439-30.327,4.626-36.6,15.808a47.774,47.774,0,0,0-3.519,7.4C80.924,201.4,60.519,210.106,57.579,227.9c-2.637,15.939,4.2,22.422,21.7,58.684,5.2,10.782,2.8,18.109-6.3,11.5,0,0,1.467,10.422,12.625,9.98,0,0,11.92-1.354,13.574-2.837C101.884,302.8,96.325,296.778,96.325,296.778Z" transform="translate(-57.031 -190.829)" fill="#434343"/>
                </g>
              </g>
            </g>
            <path id="Path_13044" data-name="Path 13044" d="M69.691,251.183l67.964,26.4-8.669-24.519L86.121,232.94l-16.43,18.243Z" transform="translate(-39.933 -133.542)" fill="#b2cdfb"/>
          </g>
        </g>
      </g>
    </g>
    <g id="Group_6131" data-name="Group 6131">
      <g id="Group_6129" data-name="Group 6129" transform="translate(1485.051 687.56)">
        <path id="Path_13029-2" data-name="Path 13029" d="M133.457,162.333c-21.608,0-39.124,14.311-39.124,31.969,0,9.145,4.724,17.372,12.259,23.2l-4.624,19.268,14.853-13.563a46.291,46.291,0,0,0,16.636,3.064c21.611,0,39.127-14.311,39.127-31.969S155.068,162.333,133.457,162.333Z" transform="translate(-94.333 -162.333)" fill="#fbbc05"/>
        <g id="Group_5418-2" data-name="Group 5418" transform="translate(23.663 18.86)">
          <path id="Path_13030-2" data-name="Path 13030" d="M112.29,174.982a3.665,3.665,0,0,0-3.9-3.9,6.12,6.12,0,0,0-4.618,2.331l-1.889-1.729a8.84,8.84,0,0,1,6.748-3.333c4.139,0,6.871,2.45,6.871,6.429,0,5.26-6.466,7.394-5.824,13.017h-2.895C105.9,181.533,112.29,179.24,112.29,174.982Zm-3.976,16.191a2.535,2.535,0,0,1,0,5.063,2.537,2.537,0,0,1,0-5.063Z" transform="translate(-101.886 -168.353)" fill="#fff"/>
          <path id="Path_13031-2" data-name="Path 13031" d="M110.349,190.845a2.535,2.535,0,1,1-2.409,2.572A2.425,2.425,0,0,1,110.349,190.845Zm-1.607-18.563-.078-3.775H112l-.078,3.775-.445,15.189h-2.29Z" transform="translate(-88.973 -168.025)" fill="#fff"/>
        </g>
      </g>
    </g>
    <g id="Group_6130" data-name="Group 6130">
      <path id="Path_13028" data-name="Path 13028" d="M163.651,194.333c23.644,0,42.815,15.662,42.815,34.986,0,10.007-5.169,19.011-13.415,25.389l5.06,21.082-16.254-14.841a50.7,50.7,0,0,1-18.205,3.352c-23.651,0-42.818-15.662-42.818-34.983S140,194.333,163.651,194.333Z" transform="translate(1633.167 459.481)" fill="#fbbc05"/>
      <text id="Help" transform="translate(1768 697)" fill="#fff" font-size="26" font-family="Poppins-Regular, Poppins"><tspan x="0" y="0">Help</tspan></text>
    </g>
    <g id="Group_5441" data-name="Group 5441" transform="translate(1585.957 687.594)">
      <g id="Group_5440" data-name="Group 5440" transform="translate(7 3)">
        <g id="Group_5438" data-name="Group 5438">
          <path id="Path_13045" data-name="Path 13045" d="M55.681,175.892a110.544,110.544,0,0,1,18.347-1.419c8.982,0,12.779,6.344,12.779,13.306,0,10.6-14.305,21.79-18.441,24.894H86.807v6.579H56.126v-6.216c5.984-4.045,23.641-17.175,23.641-25.274,0-4.151-2.149-6.654-7.472-6.654H55.681Z" transform="translate(-55.681 -174.473)" fill="#4285f4"/>
          <path id="Path_13046" data-name="Path 13046" d="M82.633,174.665h7.845L75.628,201.79h13.19V190.843l2.021-4.593H95.82V201.79h4.8v5.464l-4.8,1.357v10.11h-7V208.61H67.636l-2.052-3.286Z" transform="translate(-34.558 -174.064)" fill="#4285f4"/>
        </g>
        <g id="Group_5439" data-name="Group 5439" transform="translate(73.289 0.52)">
          <path id="Path_13047" data-name="Path 13047" d="M79.074,174.639h4.562V186.9c1.98-1.294,3.86-2.66,7.055-2.66,4.624,0,6.335,3.318,6.335,7.121v14.183H92.449V191.309c0-2.278-1.128-3.186-2.766-3.186-2.56,0-3.894.655-6.034,1.974v15.449H79.074Z" transform="translate(-79.074 -174.639)" fill="#4285f4"/>
        </g>
      </g>
    </g>
  </g>
</svg>
