<svg xmlns="http://www.w3.org/2000/svg" xmlns:xlink="http://www.w3.org/1999/xlink" width="438.941" height="387.528" viewBox="0 0 438.941 387.528">
  <defs>
    <linearGradient id="linear-gradient" y1="0.5" x2="1" y2="0.5" gradientUnits="objectBoundingBox">
      <stop offset="0" stop-color="#eff6ff"/>
      <stop offset="1" stop-color="#c4d8fb"/>
    </linearGradient>
  </defs>
  <g id="Group_5979" data-name="Group 5979" transform="translate(-1132.768 -60)">
    <path id="Path_10976" data-name="Path 10976" d="M315.716,191.3c-72,0-164.054,5.667-164.054,12.659,0,4.689,26.265,8.784,65.292,10.972-53.548,2.264-88.885,6.156-88.885,10.573,0,5,45.327,9.333,111.106,11.386-3.255,1.108-5,2.276-5,3.486,0,6.99,58.368,12.659,130.368,12.659,123.513,0,202.467-20.315,202.467-34.26C567.009,201.467,510.831,191.3,315.716,191.3Z" transform="translate(1004.7 194.493)" fill="url(#linear-gradient)"/>
    <g id="Group_5973" data-name="Group 5973" transform="translate(-411 -883)">
      <g id="Group_5761" data-name="Group 5761" transform="translate(-9566 1668)">
        <path id="Rectangle_1012" data-name="Rectangle 1012" d="M20.4,0H155.032a20.661,20.661,0,0,1,20.4,20.907V342.156a20.661,20.661,0,0,1-20.4,20.907H20.4A20.661,20.661,0,0,1,0,342.155V20.907A20.661,20.661,0,0,1,20.4,0Z" transform="translate(11237.306 -725)" fill="#213458"/>
        <path id="Path_11118" data-name="Path 11118" d="M17.915,0H155.743a17.916,17.916,0,0,1,17.916,17.916V340.908a17.915,17.915,0,0,1-17.915,17.915H17.915A17.915,17.915,0,0,1,0,340.908V17.915A17.915,17.915,0,0,1,17.915,0Z" transform="translate(11235.101 -720.761)" fill="#4285f4" stroke="#34a853" stroke-width="0.2"/>
        <path id="Path_11117" data-name="Path 11117" d="M1.568,0h152.76A1.568,1.568,0,0,1,155.9,1.568v279.8a1.568,1.568,0,0,1-1.568,1.568H1.568A1.568,1.568,0,0,1,0,281.363V1.568A1.568,1.568,0,0,1,1.568,0Z" transform="translate(11244.164 -684.558)" fill="#d5d5d5" stroke="#d5d5d5" stroke-width="0.2"/>
        <path id="Path_7953" data-name="Path 7953" d="M9.982,3.847A1.923,1.923,0,1,1,9.982,0H45.609a1.923,1.923,0,1,1,0,3.847ZM3.563,0a1.923,1.923,0,1,1,0,3.847H1.924A1.923,1.923,0,1,1,1.924,0Z" transform="translate(11298.163 -701.845)" fill="#fff" fill-rule="evenodd"/>
        <path id="Path_7954" data-name="Path 7954" d="M12.585,25.169A12.584,12.584,0,1,0,0,12.585,12.584,12.584,0,0,0,12.585,25.169Z" transform="translate(11309.346 -395.083)" fill="#fff" fill-rule="evenodd"/>
        <g id="Group_1705" data-name="Group 1705" transform="translate(11253.931 -677.197)">
          <path id="Path_7967" data-name="Path 7967" d="M.465.936A.468.468,0,1,1,.465,0H10.7a.468.468,0,0,1,0,.936Zm0,6.722a.466.466,0,0,1,0-.932H10.7a.466.466,0,0,1,0,.932Zm0-3.361a.468.468,0,1,1,0-.936H10.7a.468.468,0,0,1,0,.936Z" transform="translate(0.003 0)" fill="#4285f4" fill-rule="evenodd"/>
          <path id="Path_7968" data-name="Path 7968" d="M13.725.418ZM1.419.932H7.428V5.769H1.419a.471.471,0,0,1-.341-.142.479.479,0,0,1-.147-.341V1.419A.488.488,0,0,1,1.419.932ZM12.722,0H1.419A1.424,1.424,0,0,0,0,1.419V5.286A1.424,1.424,0,0,0,1.419,6.7h11.3a1.416,1.416,0,0,0,.971-.388l.032-.029a1.419,1.419,0,0,0,.416-1V1.419A1.422,1.422,0,0,0,12.722,0Z" transform="translate(121.857 0.477)" fill="#4285f4" fill-rule="evenodd"/>
        </g>
      </g>
    </g>
    <path id="Rectangle_1434" data-name="Rectangle 1434" d="M2,0H154a2,2,0,0,1,2,2V28a0,0,0,0,1,0,0H0a0,0,0,0,1,0,0V2A2,2,0,0,1,2,0Z" transform="translate(1267 100)" fill="#fff"/>
    <g id="Group_4965" data-name="Group 4965" transform="translate(1267.155 221.251)">
      <path id="Icon_material-comment" data-name="Icon material-comment" d="M3,3.638A.637.637,0,0,1,3.638,3h5.1a.639.639,0,0,1,.638.638V7.463a.639.639,0,0,1-.638.638H4.275S3,9.318,3,8.73,3,3.638,3,3.638ZM4.275,6.825H8.1V6.188H4.275Zm0-.956H8.1V5.231H4.275Zm0-.956H8.1V4.275H4.275Z" transform="translate(10.103 5.586)" fill="#fff"/>
      <path id="Icon_ionic-ios-person" data-name="Icon ionic-ios-person" d="M10.925,10.409c-.121-.5-.809-.747-1.046-.826a8.221,8.221,0,0,0-.872-.158.911.911,0,0,1-.4-.175,3.138,3.138,0,0,1-.027-.778,2.3,2.3,0,0,0,.191-.343,4.2,4.2,0,0,0,.141-.6s.137,0,.186-.227a2.128,2.128,0,0,0,.124-.529C9.208,6.594,9.1,6.6,9.1,6.6a2.624,2.624,0,0,0,.114-.81A1.346,1.346,0,0,0,7.716,4.5a1.34,1.34,0,0,0-1.5,1.288,2.737,2.737,0,0,0,.112.81s-.105,0-.116.177a2.128,2.128,0,0,0,.124.529c.047.227.186.227.186.227a4.2,4.2,0,0,0,.141.6,2.3,2.3,0,0,0,.191.343,3.138,3.138,0,0,1-.027.778.911.911,0,0,1-.4.175,8.221,8.221,0,0,0-.872.158c-.238.079-.926.324-1.046.826a.128.128,0,0,0,.132.153h6.158A.128.128,0,0,0,10.925,10.409Z" transform="translate(-2.96 4.086)" fill="#fff"/>
      <path id="Icon_awesome-bell" data-name="Icon awesome-bell" d="M3.012,6.886a.861.861,0,0,0,.86-.861H2.152A.861.861,0,0,0,3.012,6.886Zm2.9-2.013A2.5,2.5,0,0,1,5.163,2.8,2.124,2.124,0,0,0,3.443.711V.43a.43.43,0,1,0-.86,0v.28A2.124,2.124,0,0,0,.862,2.8,2.5,2.5,0,0,1,.116,4.872.42.42,0,0,0,0,5.164a.431.431,0,0,0,.432.43H5.593a.431.431,0,0,0,.432-.43.42.42,0,0,0-.116-.292Z" transform="translate(36.923 8.726)" fill="#fff"/>
      <path id="Icon_material-send" data-name="Icon material-send" d="M.01,3.51C0,3.8,4.12,2.095,4.068,1.77S.041-.246.01.03.034,1.139.021,1.476s1.6.172,1.6.326-1.558-.108-1.59.21S.02,3.217.01,3.51Z" transform="matrix(0.951, -0.309, 0.309, 0.951, 126.644, 10.484)" fill="#fff"/>
      <g id="Group_4964" data-name="Group 4964" transform="translate(0 24.31)">
        <path id="Path_11796" data-name="Path 11796" d="M837.92,276.753V386h155.9V276.753Z" transform="translate(-837.92 -276.753)" fill="#fff"/>
        <g id="Group_5482" data-name="Group 5482" transform="translate(1.541 114.842)">
          <path id="Icon_material-comment-2" data-name="Icon material-comment" d="M3,3.611A.61.61,0,0,1,3.612,3H8.5a.613.613,0,0,1,.611.611V7.279A.613.613,0,0,1,8.5,7.89H4.223S3,9.058,3,8.494,3,3.611,3,3.611Zm1.22,3.056H7.891V6.056H4.223Zm0-.917H7.891V5.14H4.223Zm0-.917H7.891V4.223H4.223Z" transform="translate(8.086 -2.017)" fill="#fff"/>
          <path id="Icon_ionic-ios-person-2" data-name="Icon ionic-ios-person" d="M10.66,10.166c-.116-.481-.775-.716-1-.792a7.882,7.882,0,0,0-.836-.151.873.873,0,0,1-.387-.168,3.009,3.009,0,0,1-.026-.746,2.207,2.207,0,0,0,.183-.328,4.03,4.03,0,0,0,.135-.574s.132,0,.178-.218a2.041,2.041,0,0,0,.119-.507c-.01-.174-.111-.17-.111-.17a2.516,2.516,0,0,0,.109-.777A1.291,1.291,0,0,0,7.584,4.5a1.285,1.285,0,0,0-1.44,1.235,2.624,2.624,0,0,0,.108.777s-.1,0-.111.17a2.041,2.041,0,0,0,.119.507c.045.218.178.218.178.218a4.03,4.03,0,0,0,.135.574,2.207,2.207,0,0,0,.183.328,3.009,3.009,0,0,1-.026.746.873.873,0,0,1-.387.168,7.882,7.882,0,0,0-.836.151c-.228.076-.888.31-1,.792a.123.123,0,0,0,.127.147h5.9A.123.123,0,0,0,10.66,10.166Z" transform="translate(-4.501 -3.517)" fill="#fff"/>
          <path id="Icon_awesome-bell-2" data-name="Icon awesome-bell" d="M2.888,6.6a.825.825,0,0,0,.825-.825H2.063A.825.825,0,0,0,2.888,6.6Zm2.777-1.93A2.4,2.4,0,0,1,4.95,2.682a2.036,2.036,0,0,0-1.65-2V.413a.412.412,0,1,0-.825,0V.681a2.036,2.036,0,0,0-1.65,2A2.4,2.4,0,0,1,.111,4.672.4.4,0,0,0,0,4.951a.413.413,0,0,0,.414.413H5.363a.413.413,0,0,0,.414-.413.4.4,0,0,0-.111-.28Z" transform="translate(35.204 1.118)" fill="#fff"/>
          <path id="Icon_material-send-2" data-name="Icon material-send" d="M.016,5.893C0,6.384,6.915,3.516,6.828,2.972S.068-.414.016.051s.041,1.86.019,2.427,2.685.289,2.693.547S.113,2.844.06,3.377.033,5.4.016,5.893Z" transform="matrix(0.951, -0.309, 0.309, 0.951, 145.018, 2.11)" fill="#fff"/>
        </g>
      </g>
    </g>
    <path id="Path_13675" data-name="Path 13675" d="M837.92,276.753v92.554H993.439V276.753Z" transform="translate(428.946 -149.192)" fill="#fff"/>
    <g id="Group_1705-2" data-name="Group 1705" transform="translate(1276.931 107.803)">
      <path id="Path_7967-2" data-name="Path 7967" d="M.465.936A.468.468,0,1,1,.465,0H10.7a.468.468,0,0,1,0,.936Zm0,6.722a.466.466,0,0,1,0-.932H10.7a.466.466,0,0,1,0,.932Zm0-3.361a.468.468,0,1,1,0-.936H10.7a.468.468,0,0,1,0,.936Z" transform="translate(0.003 0)" fill="#4285f4" fill-rule="evenodd"/>
      <path id="Path_7968-2" data-name="Path 7968" d="M13.725.418ZM1.419.932H7.428V5.769H1.419a.471.471,0,0,1-.341-.142.479.479,0,0,1-.147-.341V1.419A.488.488,0,0,1,1.419.932ZM12.722,0H1.419A1.424,1.424,0,0,0,0,1.419V5.286A1.424,1.424,0,0,0,1.419,6.7h11.3a1.416,1.416,0,0,0,.971-.388l.032-.029a1.419,1.419,0,0,0,.416-1V1.419A1.422,1.422,0,0,0,12.722,0Z" transform="translate(121.857 0.477)" fill="#4285f4" fill-rule="evenodd"/>
    </g>
    <g id="Group_5975" data-name="Group 5975" transform="translate(1262.653 180.251)">
      <g id="Group_4951" data-name="Group 4951">
        <path id="Path_11734" data-name="Path 11734" d="M383.606,518.037l-11.31,2.516a6.892,6.892,0,0,0,2.99,13.455l11.311-2.514a38.378,38.378,0,0,0-2.992-13.456Z" transform="translate(-366.9 -484.486)" fill="#2059b7"/>
        <path id="Path_11735" data-name="Path 11735" d="M373.856,517.291c-2.761.612-3.992,5.644-2.749,11.238s4.491,9.63,7.252,9.017l15.619-.353a130.86,130.86,0,0,1-3.343-27.294Z" transform="translate(-366.567 -485.214)" fill="#2059b7"/>
        <path id="Rectangle_1200" data-name="Rectangle 1200" d="M1.128,0h3.6A1.127,1.127,0,0,1,5.85,1.127V17.986a1.128,1.128,0,0,1-1.128,1.128H1.127A1.127,1.127,0,0,1,0,17.987V1.128A1.128,1.128,0,0,1,1.128,0Z" transform="translate(25.67 54.52) rotate(-12.531)" fill="#2059b7"/>
        <path id="Path_11736" data-name="Path 11736" d="M384.678,508.821c-4.653,1.034-6.727,9.514-4.631,18.939s6.967,15.3,12.218,15.194l35.847-.81-10.62-47.776Z" transform="translate(-365.797 -486.603)" fill="#4285f4"/>
        <path id="Path_11737" data-name="Path 11737" d="M417.474,487.79c-8.233,1.829-11.9,16.833-8.195,33.508s13.385,28.712,21.618,26.881,11.9-16.831,8.193-33.508S425.706,485.96,417.474,487.79Z" transform="translate(-363.239 -487.207)" fill="#b0bfdd"/>
        <path id="Path_11738" data-name="Path 11738" d="M419.118,487.424c-8.232,1.831-11.9,16.833-8.195,33.508s13.386,28.711,21.617,26.883,11.9-16.833,8.2-33.51S427.351,485.594,419.118,487.424Z" transform="translate(-363.092 -487.24)" fill="#eff0f2"/>
        <path id="Path_11739" data-name="Path 11739" d="M419.763,490.753c-7.243,1.61-10.471,14.809-7.21,29.482s11.778,25.261,19.02,23.652,10.473-14.81,7.21-29.483S427.007,489.143,419.763,490.753Z" transform="translate(-362.931 -486.94)" fill="#d9d6d6"/>
        <path id="Path_11740" data-name="Path 11740" d="M413.2,509.026l-1.827.407a52.229,52.229,0,0,0,1.176,9.173,52.941,52.941,0,0,0,2.672,8.548l1.913-.426a9.067,9.067,0,1,0-3.934-17.7Z" transform="translate(-362.923 -485.311)" fill="#4285f4"/>
      </g>
    </g>
    <g id="Group_4900" data-name="Group 4900" transform="translate(1272.615 300.958)">
      <path id="Path_11228" data-name="Path 11228" d="M468.421,474.963H462.7l-1.448,7.22h-4.427l1.458-7.22h-5.739l-1.447,7.22h-6.035v5.566h4.918l-1.027,5.123h-3.891v5.567h2.774l-1.423,7.1h5.7l1.434-7.1H458l-1.423,7.1h5.737l1.42-7.1h6.043v-5.567h-4.931l1.024-5.123h3.907v-5.566h-2.794Zm-9.309,17.91h-4.441l1.034-5.123h4.434Z" transform="translate(-445.066 -474.963)" fill="#4285f4"/>
    </g>
    <g id="Group_4905" data-name="Group 4905" transform="translate(1410.246 130.752)">
      <path id="Rectangle_1175" data-name="Rectangle 1175" d="M3.739,0H37.667a3.739,3.739,0,0,1,3.739,3.739V44.044a3.738,3.738,0,0,1-3.738,3.738H3.738A3.738,3.738,0,0,1,0,44.044V3.739A3.739,3.739,0,0,1,3.739,0Z" transform="translate(0 0)" fill="#fff"/>
      <path id="Path_11234" data-name="Path 11234" d="M531.266,544.733a1.048,1.048,0,0,1-1.642,0,1.055,1.055,0,0,0-.647,1.892v0l.026.017c.024.017.049.033.075.049l1.368.9,1.368-.9c.025-.016.05-.032.075-.049l.027-.017v0a1.055,1.055,0,0,0-.647-1.892Z" transform="translate(-525.731 -513.481)" fill="#4285f4"/>
      <path id="Path_11235" data-name="Path 11235" d="M540.716,544.733a1.047,1.047,0,0,1-1.641,0,1.055,1.055,0,0,0-.647,1.892v0l.027.017c.024.017.049.033.075.049l1.368.9,1.368-.9c.026-.016.05-.032.075-.049l.027-.017,0,0a1.055,1.055,0,0,0-.648-1.892Z" transform="translate(-530.484 -513.481)" fill="#4285f4"/>
      <path id="Rectangle_1176" data-name="Rectangle 1176" d="M1.816,0H15.353a1.817,1.817,0,0,1,1.817,1.817V16.854a1.817,1.817,0,0,1-1.817,1.817H1.816A1.816,1.816,0,0,1,0,16.855V1.816A1.816,1.816,0,0,1,1.816,0Z" transform="translate(2.706 10.75)" fill="#1a8dff" opacity="0.85"/>
      <rect id="Rectangle_1177" data-name="Rectangle 1177" width="17.171" height="0.67" transform="translate(21.865 28.725)" fill="#1a8dff" opacity="0.85"/>
      <rect id="Rectangle_1178" data-name="Rectangle 1178" width="17.171" height="0.67" transform="translate(21.865 30.916)" fill="#1a8dff" opacity="0.85"/>
      <rect id="Rectangle_1179" data-name="Rectangle 1179" width="6.891" height="0.67" transform="translate(12.985 30.916)" fill="#1a8dff" opacity="0.85"/>
      <rect id="Rectangle_1180" data-name="Rectangle 1180" width="6.891" height="0.671" transform="translate(12.985 33.082)" fill="#1a8dff" opacity="0.85"/>
      <rect id="Rectangle_1181" data-name="Rectangle 1181" width="6.891" height="0.671" transform="translate(12.985 35.248)" fill="#1a8dff" opacity="0.85"/>
      <rect id="Rectangle_1182" data-name="Rectangle 1182" width="6.891" height="0.67" transform="translate(12.985 37.414)" fill="#1a8dff" opacity="0.85"/>
      <rect id="Rectangle_1183" data-name="Rectangle 1183" width="6.891" height="0.671" transform="translate(12.985 39.579)" fill="#1a8dff" opacity="0.85"/>
      <rect id="Rectangle_1184" data-name="Rectangle 1184" width="6.891" height="0.67" transform="translate(12.985 41.745)" fill="#1a8dff" opacity="0.85"/>
      <rect id="Rectangle_1185" data-name="Rectangle 1185" width="6.891" height="0.67" transform="translate(12.985 43.911)" fill="#1a8dff" opacity="0.85"/>
      <rect id="Rectangle_1186" data-name="Rectangle 1186" width="6.891" height="0.67" transform="translate(2.706 43.911)" fill="#3ec7c9" opacity="0.85"/>
      <rect id="Rectangle_1187" data-name="Rectangle 1187" width="6.891" height="0.67" transform="translate(2.706 41.777)" fill="#3ec7c9" opacity="0.85"/>
      <rect id="Rectangle_1188" data-name="Rectangle 1188" width="6.891" height="0.671" transform="translate(2.706 39.642)" fill="#3ec7c9" opacity="0.85"/>
      <rect id="Rectangle_1189" data-name="Rectangle 1189" width="6.891" height="0.671" transform="translate(2.706 37.508)" fill="#3ec7c9" opacity="0.85"/>
      <rect id="Rectangle_1190" data-name="Rectangle 1190" width="6.891" height="0.67" transform="translate(2.706 35.374)" fill="#3ec7c9" opacity="0.85"/>
      <rect id="Rectangle_1191" data-name="Rectangle 1191" width="17.171" height="0.671" transform="translate(21.865 33.108)" fill="#1a8dff" opacity="0.85"/>
      <rect id="Rectangle_1192" data-name="Rectangle 1192" width="17.171" height="0.671" transform="translate(21.865 35.3)" fill="#1a8dff" opacity="0.85"/>
      <rect id="Rectangle_1193" data-name="Rectangle 1193" width="17.171" height="0.671" transform="translate(21.865 37.491)" fill="#1a8dff" opacity="0.85"/>
      <rect id="Rectangle_1194" data-name="Rectangle 1194" width="17.171" height="0.67" transform="translate(21.865 39.684)" fill="#1a8dff" opacity="0.85"/>
      <rect id="Rectangle_1195" data-name="Rectangle 1195" width="17.171" height="0.67" transform="translate(21.865 41.875)" fill="#1a8dff" opacity="0.85"/>
      <rect id="Rectangle_1196" data-name="Rectangle 1196" width="17.171" height="0.671" transform="translate(21.865 44.067)" fill="#1a8dff" opacity="0.85"/>
      <rect id="Rectangle_1197" data-name="Rectangle 1197" width="17.171" height="3.834" transform="translate(22.028 10.75)" fill="#1a8dff"/>
      <rect id="Rectangle_1198" data-name="Rectangle 1198" width="17.171" height="3.834" transform="translate(22.028 16.518)" fill="#1a8dff"/>
      <rect id="Rectangle_1199" data-name="Rectangle 1199" width="17.171" height="3.833" transform="translate(22.028 22.286)" fill="#1a8dff"/>
      <path id="Path_11236" data-name="Path 11236" d="M562.381,481.86H524.753a1.889,1.889,0,0,0-1.889,1.889V487.6h41.407v-3.851A1.889,1.889,0,0,0,562.381,481.86Z" transform="translate(-522.864 -481.86)" fill="#4285f4"/>
      <path id="Path_11237" data-name="Path 11237" d="M526.171,487.165a.707.707,0,1,0,.707.707A.707.707,0,0,0,526.171,487.165Z" transform="translate(-524.172 -484.528)" fill="#ea4335"/>
      <path id="Path_11238" data-name="Path 11238" d="M531,487.165a.707.707,0,1,0,.707.707A.707.707,0,0,0,531,487.165Z" transform="translate(-526.599 -484.528)" fill="#fbbc05"/>
      <g id="Group_4904" data-name="Group 4904" transform="translate(3.861 11.463)">
        <g id="Group_4902" data-name="Group 4902">
          <path id="Path_11239" data-name="Path 11239" d="M531.579,505.111a.536.536,0,1,0-.82.691l13.4,15.871a.536.536,0,0,0,.82-.692Z" transform="translate(-530.632 -504.921)" fill="#fff"/>
        </g>
        <g id="Group_4903" data-name="Group 4903">
          <path id="Path_11240" data-name="Path 11240" d="M544.161,505.111l-13.4,15.87a.536.536,0,1,0,.82.692l13.4-15.871a.536.536,0,0,0-.82-.691Z" transform="translate(-530.632 -504.921)" fill="#fff"/>
        </g>
      </g>
    </g>
    <g id="Group_4946" data-name="Group 4946" transform="translate(1422.15 197.704)">
      <path id="Path_11722" data-name="Path 11722" d="M559.567,671.122l-18.3,18.687,38.92-.049-18.349-18.64A1.589,1.589,0,0,0,559.567,671.122Z" transform="translate(-541.043 -670.643)" fill="#1a8dff"/>
      <g id="Group_4944" data-name="Group 4944" transform="translate(0 18.293)">
        <path id="Path_11723" data-name="Path 11723" d="M579.849,689.7a1.872,1.872,0,0,0-1.252-.482l-35.7.046a1.862,1.862,0,0,0-1.859,1.861l.026,19.8a.593.593,0,0,0,.6.592l38.232-.049a.593.593,0,0,0,.593-.593l-.026-19.8A1.872,1.872,0,0,0,579.849,689.7Z" transform="translate(-541.04 -689.215)" fill="#b3c8eb"/>
        <path id="Path_11724" data-name="Path 11724" d="M542.908,689.261a1.874,1.874,0,0,0-1.25.485l15.084,11.994a6.484,6.484,0,0,0,8.062-.012L579.858,689.7a1.867,1.867,0,0,0-1.249-.481Z" transform="translate(-541.049 -689.215)" fill="#1a8dff"/>
      </g>
      <g id="Group_4945" data-name="Group 4945" transform="translate(4.603 6.281)">
        <path id="Path_11725" data-name="Path 11725" d="M574.769,677.02l-27.932.035a1.126,1.126,0,0,0-1.124,1.126l.018,14.576,11.072,8.8a6.484,6.484,0,0,0,8.062-.012l11.05-8.828-.02-14.576A1.124,1.124,0,0,0,574.769,677.02Z" transform="translate(-545.713 -677.02)" fill="#fff"/>
      </g>
    </g>
    <g id="Group_4947" data-name="Group 4947" transform="translate(1396.809 254.675)">
      <path id="Path_11726" data-name="Path 11726" d="M446.15,566.046a7.994,7.994,0,1,0,7.993,7.994A7.994,7.994,0,0,0,446.15,566.046Z" transform="translate(-438.156 -566.046)" fill="#ea4335"/>
      <path id="Path_11727" data-name="Path 11727" d="M449.772,577.662c-.04-1.606-4.726-2.54-4.706,1.036.015,2.8,4.541,5.073,4.541,5.073s4.536-2.271,4.54-5.073C454.152,575.348,449.732,576.056,449.772,577.662Z" transform="translate(-441.613 -571.144)" fill="#fff"/>
    </g>
    <g id="Group_4948" data-name="Group 4948" transform="translate(1330.815 130.518)">
      <path id="Path_11728" data-name="Path 11728" d="M521.077,617.663H468.264a7.767,7.767,0,1,0,0,15.533h41.423l3.753,3.753,3.755-3.753h3.883a7.767,7.767,0,1,0,0-15.533Z" transform="translate(-460.497 -617.663)" fill="#d2dbea"/>
      <path id="Path_11729" data-name="Path 11729" d="M518.464,626.3H483.712a.869.869,0,1,0,0,1.739h34.752a.869.869,0,1,0,0-1.739Z" transform="translate(-460.832 -617.793)" fill="#fff"/>
      <path id="Path_11730" data-name="Path 11730" d="M518.629,621.446H494.737a.869.869,0,0,0,0,1.738h23.892a.869.869,0,1,0,0-1.738Z" transform="translate(-460.998 -617.72)" fill="#fff"/>
    </g>
    <g id="Group_4949" data-name="Group 4949" transform="translate(1334.982 259.623)">
      <path id="Path_11731" data-name="Path 11731" d="M529.276,557.146l-5.7,5.637.053-10.16a3.721,3.721,0,0,0-3.7-3.742l-27.964-.148a3.725,3.725,0,0,0-3.743,3.7l-.147,27.964a3.722,3.722,0,0,0,3.7,3.742l27.963.147a3.718,3.718,0,0,0,3.741-3.7l.055-10.159,5.636,5.7a2.22,2.22,0,0,0,3.8-1.55l.082-15.836A2.219,2.219,0,0,0,529.276,557.146Z" transform="translate(-488.078 -548.734)" fill="#ea4335"/>
      <path id="Path_11732" data-name="Path 11732" d="M511.994,580.693l8.294-8.208-8.208-8.292Z" transform="translate(-497.276 -554.679)" fill="#fff"/>
    </g>
    <g id="Group_4955" data-name="Group 4955" transform="translate(1485.28 164.264)">
      <g id="Group_4954" data-name="Group 4954" transform="translate(0 0)">
        <ellipse id="Ellipse_383" data-name="Ellipse 383" cx="9.398" cy="9.398" rx="9.398" ry="9.398" fill="#ea4335"/>
        <path id="Path_11745" data-name="Path 11745" d="M631.974,551.48l-4.949-3.582a1.577,1.577,0,0,0-2.5,1.277v7.165a1.577,1.577,0,0,0,2.5,1.276l4.949-3.582A1.575,1.575,0,0,0,631.974,551.48Z" transform="translate(-618.423 -543.358)" fill="#fff"/>
      </g>
    </g>
    <g id="Group_5978" data-name="Group 5978" transform="translate(-53 -59.819)">
      <g id="Group_4958" data-name="Group 4958" transform="translate(1552.635 453.517)">
        <path id="Path_11756" data-name="Path 11756" d="M640.744,713.141c-.056-.389-7.671-2.55-7.829.012-.137,2.188.439,5.575-1.475,7.313-2.2,1.992-10.34,6.219-14.067,6.767-.189.553.455,1.014,1.007,1.2,2.755.931,5.756.525,8.649.225q5.03-.525,10.093-.576c1.5-.016,3.28-.15,4.042-1.442.568-.965.308-2.176.175-3.287C640.933,719.966,641.229,716.517,640.744,713.141Z" transform="translate(-615.438 -711.919)" fill="#ffa578"/>
        <path id="Path_11757" data-name="Path 11757" d="M638.3,713.106a10.376,10.376,0,0,0-3.713-1.075c.122.24.251.473.355.722,3.01,7.3-3.449,12.957-9.628,15.812,3.113-.3,6.238-.486,9.364-.517,1.5-.016,3.28-.15,4.042-1.442.568-.965.308-2.176.175-3.287C638.49,719.932,638.786,716.483,638.3,713.106Z" transform="translate(-612.995 -711.884)" fill="#e68969"/>
        <path id="Path_11758" data-name="Path 11758" d="M641.727,719.495c-.938-.7-6.909,3.915-13.761,3.915,0-.909-.865-2.451-1.995-2.06-3.011,1.044-8.315,2.938-8.909,3.188-1.922.8-1.168,4.035-.031,4.035h10.635c2.025,0,5.255-1.862,8.513-1.862,3.643,0,4.72-.121,5.172-.325C644.8,724.835,643.46,720.787,641.727,719.495Z" transform="translate(-615.884 -709.62)" fill="#444"/>
        <path id="Path_11759" data-name="Path 11759" d="M635.895,724.322c-2.425.127-10.047,1.049-11.335,1.4a11.044,11.044,0,0,1-5.68.017,8.081,8.081,0,0,1-2.4-1.1c-1.154,1.151-.455,3.646.546,3.646h10.635c2.025,0,5.255-1.862,8.513-1.862,3.643,0,4.72-.122,5.172-.325,2.716-1.223,2.449-3.98,1.37-5.734A8.226,8.226,0,0,1,635.895,724.322Z" transform="translate(-615.884 -709.332)" fill="#444"/>
        <path id="Path_11760" data-name="Path 11760" d="M630.489,727.432h6.69l1.684-4.286-7.911,2.277A3.863,3.863,0,0,1,630.489,727.432Z" transform="translate(-611.41 -708.479)" fill="#444"/>
      </g>
      <g id="Group_4959" data-name="Group 4959" transform="translate(1510.679 453.517)">
        <path id="Path_11761" data-name="Path 11761" d="M608.627,713.141c-.055-.389-7.671-2.55-7.829.012-.136,2.188.438,5.575-1.475,7.312-2.2,1.993-10.34,6.221-14.067,6.768-.19.551.454,1.014,1.007,1.2,2.755.933,5.756.526,8.649.226,3.352-.35,6.722-.543,10.093-.576,1.5-.016,3.28-.15,4.042-1.442.568-.964.307-2.175.175-3.287C608.817,719.966,609.112,716.517,608.627,713.141Z" transform="translate(-583.32 -711.919)" fill="#ffa578"/>
        <path id="Path_11762" data-name="Path 11762" d="M606.184,713.106a10.375,10.375,0,0,0-3.712-1.075c.121.24.251.473.354.722,3.011,7.3-3.447,12.957-9.626,15.812,3.113-.3,6.238-.486,9.364-.517,1.5-.016,3.28-.15,4.042-1.442.568-.964.307-2.175.175-3.287C606.373,719.932,606.669,716.483,606.184,713.106Z" transform="translate(-580.877 -711.884)" fill="#e68969"/>
        <path id="Path_11763" data-name="Path 11763" d="M609.61,719.495c-.938-.7-6.909,3.915-13.761,3.915,0-.909-.865-2.452-1.995-2.061-3.011,1.045-8.315,2.938-8.909,3.188-1.923.8-1.169,4.035-.031,4.035h10.635c2.025,0,5.255-1.862,8.513-1.862,3.643,0,4.72-.121,5.172-.325C612.679,724.835,611.344,720.787,609.61,719.495Z" transform="translate(-583.766 -709.62)" fill="#444"/>
        <path id="Path_11764" data-name="Path 11764" d="M603.778,724.322c-2.424.127-10.047,1.049-11.335,1.4a11.045,11.045,0,0,1-5.68.017,8.083,8.083,0,0,1-2.4-1.1c-1.153,1.15-.454,3.645.546,3.645h10.635c2.025,0,5.255-1.862,8.513-1.862,3.643,0,4.72-.122,5.172-.325,2.716-1.223,2.449-3.98,1.37-5.734A8.226,8.226,0,0,1,603.778,724.322Z" transform="translate(-583.766 -709.332)" fill="#444"/>
        <path id="Path_11765" data-name="Path 11765" d="M598.372,727.432h6.688l1.685-4.286-7.911,2.277A3.876,3.876,0,0,1,598.372,727.432Z" transform="translate(-579.292 -708.479)" fill="#444"/>
      </g>
      <g id="Group_4957" data-name="Group 4957" transform="translate(1488.548 350.574) rotate(-48)">
        <path id="Path_11746" data-name="Path 11746" d="M43.573.017c-6.818-.35-37.7,4.722-40.94,5.164-4.333.59-2.392,7.722-.7,8.832,2.213,1.451,6.848,2.447,14.959,2.546,9.3.116,18.131-.2,21.272-5.133C40.056,8.451,50.914.394,43.573.017Z" transform="translate(28.922 12.979)" fill="#fbbc05"/>
        <path id="Path_11747" data-name="Path 11747" d="M11.278,3.111C8.745,2.537,1.815,1.053.076.242-.31,2.583.845,5.688,1.915,6.392,4.128,7.843,8.763,8.839,16.874,8.938c9.305.116,18.131-.2,21.271-5.133A4.367,4.367,0,0,0,38.633,0C36.57.788,20.247,5.138,11.278,3.111Z" transform="translate(28.939 20.6)" fill="#fbbc05"/>
        <path id="Path_11748" data-name="Path 11748" d="M10.1,5.436A16.486,16.486,0,0,0,4.8,1.521C3.756,1,1.719-.115.775.01-.1.127-.362,1.39.666,2.011A1.2,1.2,0,0,0,.645,3.833a1.708,1.708,0,0,0,.3,2.151c-.517.84-.17,1.715,1.01,2.247,1.259.568,2.589,1.541,5.962,3.143.56.268,1.553,1.032,2.059,1.295a39.285,39.285,0,0,1,2.87-5.654A8.062,8.062,0,0,1,10.1,5.436Z" transform="translate(0.592 0.436)" fill="#ffa578" fill-rule="evenodd"/>
        <path id="Path_11749" data-name="Path 11749" d="M.408,0C.575.811.76,1.621.976,2.44A4.293,4.293,0,0,1,0,6.447c.076.042.145.085.229.123,1.024.462,2.114,1.2,4.293,2.319.187-.2.371-.392.562-.58A20.256,20.256,0,0,1,7.172,6.445a2.474,2.474,0,0,0-.444-2.668C4.993,2.005,2.5,1.308.408,0Z" transform="translate(2.318 2.098)" fill="#e68969" fill-rule="evenodd"/>
        <path id="Path_11750" data-name="Path 11750" d="M20.931,9.1C16.428,7.22,3.6,0,3.6,0A61.834,61.834,0,0,0,0,7.524s15.794,9.937,21.5,13.188c8.65,4.925,10.346-3.83,8.618-6.494C28.533,11.765,23.788,10.289,20.931,9.1Z" transform="translate(7.731 5.537)" fill="#fbbc05"/>
        <path id="Path_11751" data-name="Path 11751" d="M0,3.284s15.794,9.939,21.5,13.187c6.1,3.472,9.366.394,9.415-2.952C25.742,12.994,3.933.789,1.428,0,.976.971.49,2.073,0,3.284Z" transform="translate(7.731 9.778)" fill="#fbbc05"/>
        <g id="Group_4956" data-name="Group 4956">
          <path id="Path_11752" data-name="Path 11752" d="M1.034.117A.659.659,0,1,0,.284,1.2S3.063,3.206,3.913,3.032c.227-.046.486-.468.188-.676Z" transform="translate(0.214 6.137)" fill="#ffa578" fill-rule="evenodd"/>
          <path id="Path_11753" data-name="Path 11753" d="M1.3.083A.917.917,0,0,0,.535,1.75s4.3,2.076,5.419,1.633c.3-.119.554-.759.094-.971Z" transform="translate(0.266)" fill="#ffa578" fill-rule="evenodd"/>
          <path id="Path_11754" data-name="Path 11754" d="M1.3.084A.916.916,0,1,0,.535,1.75S4.829,3.826,5.953,3.383c.3-.119.554-.759.094-.971Z" transform="translate(0 2.024)" fill="#ffa578" fill-rule="evenodd"/>
          <path id="Path_11755" data-name="Path 11755" d="M1.185.076A.836.836,0,1,0,.488,1.6S4.4,3.488,5.427,3.084c.276-.108.505-.692.086-.884Z" transform="translate(0.326 4.052)" fill="#ffa578" fill-rule="evenodd"/>
        </g>
      </g>
      <path id="Path_11766" data-name="Path 11766" d="M609.764,634.059c-3.449,19.846-5.466,39.2-7.588,54.429-2.084,14.948-4.43,36.093-6.779,52.047,2.98,1.5,7.1,3.139,11.368,1.969,2.491-5.469,11.612-43.243,13.945-54.011,3.432-15.84,8.447-29.988,11.82-49.262C632.656,638.51,615.64,634.023,609.764,634.059Z" transform="translate(930.475 -282.253)" fill="#4285f4"/>
      <path id="Path_11768" data-name="Path 11768" d="M640.222,643.481c-4.586-.833-25.8-5.88-28.023-1.783-3.348,6.178.571,6.971,1.829,14.265,3.9,22.631,17.109,78.3,19.087,85,3.98,1.546,7.886.17,10.675-.529-.643-17.475-3.872-31.315-4.429-46.461C638.7,676.011,640.73,657.278,640.222,643.481Z" transform="translate(935.218 -280.398)" fill="#4285f4"/>
      <path id="Path_11770" data-name="Path 11770" d="M643.225,616.779c.131-9.4-5.011-21.656-18.143-21.656-12.469,0-13.74,4.865-15.449,7.741-5.577,9.394-7.174,62.381-6.593,63.992,1.163,3.229,41.279,3.183,41.626.895C645.068,665.116,643.08,627.264,643.225,616.779Z" transform="translate(932.782 -294.18)" fill="#fbbc05"/>
      <path id="Path_11772" data-name="Path 11772" d="M620.055,591.109c-.329,3.039-4.536,4.15-4.536,7.717,0,3,12.969,4.082,13.129-.222s.531-12.358.531-12.358S620.384,588.071,620.055,591.109Z" transform="translate(936.639 -296.898)" fill="#e68969"/>
      <path id="Path_11773" data-name="Path 11773" d="M628.782,575.893a8.987,8.987,0,0,0-5.446-2.775c-2.056-.312-8.492.546-10.144,1.811s-1.181,4.964-1.873,6.341c-1.335,2.652-.988,4.394-.766,8.032.137,2.243-.47,4.575.375,6.657,1.361,3.351,5.453,6.063,8.893,4.942,7.812-2.543,11.069-10.217,11.048-10.985-.068-2.422.261-4.844.17-7.266A10.738,10.738,0,0,0,628.782,575.893Z" transform="translate(935.053 -300.94)" fill="#ffa578"/>
      <path id="Path_11774" data-name="Path 11774" d="M628.286,575.911a8.987,8.987,0,0,0-5.446-2.775,15,15,0,0,0-3.8-.043c-2.6.573-3.865,7.083-3.865,7.083s-1.163,4.285-2.845,6.246,2.849,7.534,4.05,9.762a13.042,13.042,0,0,1,1.649,4.981,5.2,5.2,0,0,0,1.3-.246c7.812-2.543,11.069-10.217,11.048-10.985-.068-2.422.261-4.844.17-7.266A10.745,10.745,0,0,0,628.286,575.911Z" transform="translate(935.549 -300.958)" fill="#e68969"/>
      <path id="Path_11775" data-name="Path 11775" d="M623.4,571.522c-7.361-1.007-10.308,3.816-12.315,4.291,5.454,4.022,14.048,1.957,13.9,3.312-.926,8.714,2.149,9.085,2.625,10.581a9.184,9.184,0,0,0,3.415,4.188C636.643,579.793,632.123,572.716,623.4,571.522Z" transform="translate(935.283 -301.451)" fill="#194866"/>
      <path id="Path_11777" data-name="Path 11777" d="M623.1,581.577c-3.041,1.014-1.025,4.759-1.05,7.253-.013,1.4,1.966.186,3.091-.657a5.264,5.264,0,0,0,1.719-2.517,3.483,3.483,0,0,0-.5-3.675A3.31,3.31,0,0,0,623.1,581.577Z" transform="translate(938.448 -298.402)" fill="#ffa578"/>
      <path id="Path_11778" data-name="Path 11778" d="M622.1,583.369a4.051,4.051,0,0,1,1.121,1.163,7.431,7.431,0,0,1,.313,1.877s3.42-1.511,2.293-3.024S622.1,583.369,622.1,583.369Z" transform="translate(938.655 -297.983)" fill="#e68969"/>
      <path id="Path_11779" data-name="Path 11779" d="M620.084,590.557a3.715,3.715,0,0,0-2.874-3.321c-1.574-.456-5.33-1.279-5.99-.568-1.539,1.662-.625,3.118-1.084,4.306-1.026,2.639-2.2,4.082-1.849,5.885,1.037,5.275,8.05,9.214,14.235,5.536,6.018-3.577,3.355-10.994,2.977-13.038-.87-4.709,3.263-8.5,3.263-8.5l-2.05-2.882S623.307,589.765,620.084,590.557Z" transform="translate(934.405 -299.433)" fill="#194866"/>
      <path id="Path_11782" data-name="Path 11782" d="M609.342,631.165c-.829,4.294,5.13,4.643,7.042,3.983,2.5-.862,6.814-4.128,11.392-10.824,8.082-11.821,10.07-15.062,10.07-15.062l-11.279-7.5S610.175,626.872,609.342,631.165Z" transform="translate(934.723 -292.145)" fill="#ffce40"/>
      <path id="Path_11783" data-name="Path 11783" d="M610.014,632.315c1.624,1.437,4.831,1.461,6.141,1.009,2.5-.862,6.814-4.128,11.393-10.824,8.082-11.821,10.07-15.062,10.07-15.062l-3.03-1.834C632.4,614.551,620.476,626.24,610.014,632.315Z" transform="translate(934.953 -290.321)" fill="#ffce40"/>
      <g id="Group_4961" data-name="Group 4961" transform="translate(1544.017 294.366)">
        <path id="Path_11784" data-name="Path 11784" d="M616.772,592c-.636-.8-2.046-.31-2.05,1.078a1.391,1.391,0,0,0-1.823,1.061,1.974,1.974,0,0,0-1.955,1.574c-1.141-.016-1.8.849-1.63,2.336.182,1.586.005,3.483.415,7.782.068.713-.269,7.4-.231,8.052a47.741,47.741,0,0,1,7.385-1c-.038-.773-.4-7.208.038-8.4a19.116,19.116,0,0,0,.742-7.581C617.553,595.545,617.457,592.858,616.772,592Z" transform="translate(-609.287 -589.62)" fill="#ffa578" fill-rule="evenodd"/>
        <path id="Path_11785" data-name="Path 11785" d="M616.275,592c-.636-.8-2.046-.31-2.05,1.078a1.391,1.391,0,0,0-1.822,1.061,1.962,1.962,0,0,0-1.493.653,5.045,5.045,0,0,1,3.931,5.972c-.153,1.223-.809,2.264-1.066,3.462a11.874,11.874,0,0,0,.331,5.04,15.327,15.327,0,0,1,.221,3.752,14.417,14.417,0,0,1,2.06-.137c-.038-.773-.4-7.208.038-8.4a19.113,19.113,0,0,0,.742-7.581C617.056,595.545,616.96,592.858,616.275,592Z" transform="translate(-608.79 -589.62)" fill="#e68969" fill-rule="evenodd"/>
        <path id="Path_11786" data-name="Path 11786" d="M616.059,592.106l-4.677-1.952a.862.862,0,0,0-1.129.464c-.184.439.532,1.326.972,1.509l4.17,1.572a.863.863,0,1,0,.664-1.593Z" transform="translate(-609 -590.088)" fill="#e68969" fill-rule="evenodd"/>
      </g>
      <path id="Path_11787" data-name="Path 11787" d="M616.6,602.75a20.58,20.58,0,0,0-6.862.288.274.274,0,0,0-.216.213,7.59,7.59,0,0,0-.057,2.031.273.273,0,0,0,.344.233,16.774,16.774,0,0,1,6.763-.24.271.271,0,0,0,.324-.235,12.106,12.106,0,0,0-.055-2.043A.282.282,0,0,0,616.6,602.75Z" transform="translate(934.773 -291.896)" fill="#2d5eea" fill-rule="evenodd"/>
      <path id="Path_11788" data-name="Path 11788" d="M609.742,606.167s-1.083,11.216-1.454,16.081a24.51,24.51,0,0,0,1.237,9.325c1,3.012,10.16,5.206,9.7-4.736-.307-6.566-1.807-20.98-1.807-20.98A25.191,25.191,0,0,0,609.742,606.167Z" transform="translate(934.407 -290.931)" fill="#ffce40"/>
      <path id="Path_11789" data-name="Path 11789" d="M616.6,605.857c-1.093-.1-2.08-.129-2.96-.128a4.506,4.506,0,0,1,.763,1.928c1.058,7.561,4.479,16.46-.357,23.434a6.538,6.538,0,0,1-3.151,2.49c3,1.312,7.852.562,7.511-6.745C618.1,620.271,616.6,605.857,616.6,605.857Z" transform="translate(935.223 -290.931)" fill="#ffce40"/>
      <path id="Path_11790" data-name="Path 11790" d="M613.247,601.748a2.234,2.234,0,1,0,2.337,2.128A2.235,2.235,0,0,0,613.247,601.748Z" transform="translate(935.291 -292.151)" fill="#2d5eea" fill-rule="evenodd"/>
      <path id="Path_11791" data-name="Path 11791" d="M613.138,602.2a1.643,1.643,0,1,0,1.716,1.564A1.644,1.644,0,0,0,613.138,602.2Z" transform="translate(935.429 -292.012)" fill="#d2dbea" fill-rule="evenodd"/>
      <path id="Path_11792" data-name="Path 11792" d="M611.86,603.914a1.543,1.543,0,0,1,1.468-1.613,1.523,1.523,0,0,1,1,.334,1.645,1.645,0,1,0-1.04,2.849,1.623,1.623,0,0,0,1.055-.461,1.5,1.5,0,0,1-.875.359A1.542,1.542,0,0,1,611.86,603.914Z" transform="translate(935.429 -292.012)" fill="#194866" fill-rule="evenodd"/>
    </g>
    <g id="Group_5976" data-name="Group 5976" transform="translate(-426 -99)">
      <g id="Group_4950" data-name="Group 4950" transform="translate(1693.289 229.865)">
        <path id="Path_11733" data-name="Path 11733" d="M555.08,613.954a12.883,12.883,0,1,0,12.883,12.884A12.883,12.883,0,0,0,555.08,613.954Z" transform="translate(-542.197 -613.954)" fill="#ea4335"/>
      </g>
      <path id="Path_11794" data-name="Path 11794" d="M559.388,629.96c-.051-2.034-5.986-3.217-5.961,1.313.019,3.55,5.752,6.426,5.752,6.426s5.746-2.876,5.751-6.426C564.936,627.029,559.337,627.926,559.388,629.96Z" transform="translate(1146.971 -389.301)" fill="#fff"/>
    </g>
    <g id="Group_5977" data-name="Group 5977" transform="translate(28 -36)">
      <path id="Path_11793" data-name="Path 11793" d="M505.556,706.771A10.027,10.027,0,1,0,515.587,716.8,10.025,10.025,0,0,0,505.556,706.771Z" transform="translate(924.128 -354.241)" fill="#ea4335"/>
      <path id="Path_11795" data-name="Path 11795" d="M505.818,714.653c-.045-1.924-5.215-3.043-5.194,1.242.017,3.356,5.011,6.076,5.011,6.076s5.006-2.72,5.01-6.076C510.65,711.88,505.773,712.729,505.818,714.653Z" transform="translate(924.052 -354.334)" fill="#fff"/>
    </g>
  </g>
</svg>
