<svg xmlns="http://www.w3.org/2000/svg" xmlns:xlink="http://www.w3.org/1999/xlink" width="548.827" height="407.983" viewBox="0 0 548.827 407.983">
  <defs>
    <linearGradient id="linear-gradient" y1="0.5" x2="1" y2="0.5" gradientUnits="objectBoundingBox">
      <stop offset="0" stop-color="#eff6ff"/>
      <stop offset="1" stop-color="#c4d8fb"/>
    </linearGradient>
    <linearGradient id="linear-gradient-2" y1="0.5" x2="1" y2="0.5" gradientUnits="objectBoundingBox">
      <stop offset="0.046" stop-color="#262262"/>
      <stop offset="0.15" stop-color="#203676"/>
      <stop offset="0.432" stop-color="#1269aa"/>
      <stop offset="0.678" stop-color="#088ecf"/>
      <stop offset="0.875" stop-color="#02a5e6"/>
      <stop offset="1" stop-color="#00aeef"/>
    </linearGradient>
    <linearGradient id="linear-gradient-3" y1="0.5" x2="1" y2="0.5" gradientUnits="objectBoundingBox">
      <stop offset="0.202" stop-color="#ff6363"/>
      <stop offset="1" stop-color="#ef4136"/>
    </linearGradient>
  </defs>
  <g id="Group_6127" data-name="Group 6127" transform="translate(-735.768 -852)">
    <path id="Path_10976" data-name="Path 10976" d="M362.692,191.3c-90.025,0-205.124,7.085-205.124,15.828,0,5.863,32.84,10.983,81.637,13.719-66.953,2.831-111.137,7.7-111.137,13.22,0,6.258,56.674,11.669,138.92,14.236-4.07,1.386-6.251,2.846-6.251,4.359,0,8.74,72.979,15.828,163,15.828,154.434,0,253.153-25.4,253.153-42.837C676.895,204.013,606.653,191.3,362.692,191.3Z" transform="translate(607.7 991.493)" fill="url(#linear-gradient)"/>
    <g id="Group_6126" data-name="Group 6126" transform="translate(-741 -91)">
      <g id="Group_5761" data-name="Group 5761" transform="translate(-9566 1668)">
        <path id="Rectangle_1012" data-name="Rectangle 1012" d="M20.4,0H155.032a20.661,20.661,0,0,1,20.4,20.907V342.156a20.661,20.661,0,0,1-20.4,20.907H20.4A20.661,20.661,0,0,1,0,342.155V20.907A20.661,20.661,0,0,1,20.4,0Z" transform="translate(11237.306 -725)" fill="#213458"/>
        <path id="Path_11118" data-name="Path 11118" d="M17.915,0H155.743a17.916,17.916,0,0,1,17.916,17.916V340.908a17.915,17.915,0,0,1-17.915,17.915H17.915A17.915,17.915,0,0,1,0,340.908V17.915A17.915,17.915,0,0,1,17.915,0Z" transform="translate(11235.101 -720.761)" fill="#4285f4" stroke="#34a853" stroke-width="0.2"/>
        <path id="Path_11117" data-name="Path 11117" d="M1.568,0h152.76A1.568,1.568,0,0,1,155.9,1.568v279.8a1.568,1.568,0,0,1-1.568,1.568H1.568A1.568,1.568,0,0,1,0,281.363V1.568A1.568,1.568,0,0,1,1.568,0Z" transform="translate(11244.164 -684.558)" fill="#fff" stroke="#d5d5d5" stroke-width="0.2"/>
        <path id="Path_7953" data-name="Path 7953" d="M9.982,3.847A1.923,1.923,0,1,1,9.982,0H45.609a1.923,1.923,0,1,1,0,3.847ZM3.563,0a1.923,1.923,0,1,1,0,3.847H1.924A1.923,1.923,0,1,1,1.924,0Z" transform="translate(11298.163 -701.845)" fill="#fff" fill-rule="evenodd"/>
        <path id="Path_7954" data-name="Path 7954" d="M12.585,25.169A12.584,12.584,0,1,0,0,12.585,12.584,12.584,0,0,0,12.585,25.169Z" transform="translate(11309.346 -395.083)" fill="#fff" fill-rule="evenodd"/>
        <g id="Group_1705" data-name="Group 1705" transform="translate(11253.931 -677.197)">
          <path id="Path_7967" data-name="Path 7967" d="M.465.936A.468.468,0,1,1,.465,0H10.7a.468.468,0,0,1,0,.936Zm0,6.722a.466.466,0,0,1,0-.932H10.7a.466.466,0,0,1,0,.932Zm0-3.361a.468.468,0,1,1,0-.936H10.7a.468.468,0,0,1,0,.936Z" transform="translate(0.003 0)" fill="#4285f4" fill-rule="evenodd"/>
          <path id="Path_7968" data-name="Path 7968" d="M13.725.418ZM1.419.932H7.428V5.769H1.419a.471.471,0,0,1-.341-.142.479.479,0,0,1-.147-.341V1.419A.488.488,0,0,1,1.419.932ZM12.722,0H1.419A1.424,1.424,0,0,0,0,1.419V5.286A1.424,1.424,0,0,0,1.419,6.7h11.3a1.416,1.416,0,0,0,.971-.388l.032-.029a1.419,1.419,0,0,0,.416-1V1.419A1.422,1.422,0,0,0,12.722,0Z" transform="translate(121.857 0.477)" fill="#4285f4" fill-rule="evenodd"/>
        </g>
      </g>
    </g>
    <path id="Path_8127" data-name="Path 8127" d="M1022.3,1573.18s3.723,5.74-1.764,5.918-21.434-2.355-21.434-2.355-21.773-20.165-21.424-30.124,11.487-3.429,14.795,4.4,7.035,17.59,13.877,19.628A82.57,82.57,0,0,0,1022.3,1573.18Z" transform="translate(-76.771 -456.156)" fill="#fbbc05"/>
    <g id="Group_1761" data-name="Group 1761" transform="translate(952.187 1041.089)">
      <g id="Group_1760" data-name="Group 1760">
        <g id="Group_1758" data-name="Group 1758" transform="translate(0 30.056)">
          <g id="Group_1750" data-name="Group 1750">
            <g id="Group_1748" data-name="Group 1748">
              <path id="Path_8142" data-name="Path 8142" d="M1061.553,1555.836h-.014a16.519,16.519,0,1,1,.235-33.037h.035a16.519,16.519,0,0,1-.255,33.037Zm.22-30.923a14.488,14.488,0,0,0-10.3,4.2,14.417,14.417,0,0,0,10.061,24.61l.014,1.054v-1.054a14.406,14.406,0,0,0,.252-28.81Z" transform="translate(-1045.14 -1522.799)" fill="#ea4335"/>
              <path id="Path_8143" data-name="Path 8143" d="M1067.492,1549.006l-2.585-.011h-3.522a1.474,1.474,0,0,1-1.625-1.6q-.006-2.518,0-5.035a1.419,1.419,0,0,1,1.376-1.565c.014,0,.021-.008.032-.008v-.064c0-.18,0-.363,0-.54a9.218,9.218,0,0,1,.064-1.437,2.863,2.863,0,0,1,2.848-2.474c.712-.015,1.412-.015,2.119-.012a2.92,2.92,0,0,1,2.952,2.927c.008.556.008,1.039,0,1.494,0,.051,0,.08,0,.094s.039.006.075.013a1.41,1.41,0,0,1,1.334,1.491c.01,1.7.006,3.45,0,5.192a1.45,1.45,0,0,1-1.529,1.54Zm-2.059-.526h2.059c.511,0,1.028,0,1.544,0a.924.924,0,0,0,1-1.014c.01-1.739.01-3.485,0-5.185a.885.885,0,0,0-.861-.968.552.552,0,0,1-.548-.642c.008-.448.008-.929,0-1.477a2.4,2.4,0,0,0-2.429-2.4c-.7-.006-1.4-.006-2.1.008a2.348,2.348,0,0,0-2.337,2.021,8.668,8.668,0,0,0-.057,1.358v.556a.526.526,0,0,1-.5.59.9.9,0,0,0-.906,1.039q-.011,2.518,0,5.035c0,.734.348,1.073,1.095,1.073h4.047Zm-.519-1.082h0c-.6,0-.6-.362-.6-.828v-.182c0-.148,0-.3,0-.452a1.074,1.074,0,0,0-.335-1.023,1.314,1.314,0,0,1-.465-1.015,1.694,1.694,0,0,1,.576-1.251,1.618,1.618,0,0,1,2.666,1.365,1.489,1.489,0,0,1-.564,1.038.522.522,0,0,0-.214.513c.015.236.011.47.011.7,0,.092,0,.191,0,.291,0,.693-.119.81-.818.839C1065.062,1547.394,1064.981,1547.4,1064.913,1547.4Zm-.061-.529h.061c.061,0,.138,0,.23,0,.118-.008.242-.015.306-.022.008-.065.008-.181.008-.292s0-.2,0-.3c0-.22,0-.448-.008-.665a1.041,1.041,0,0,1,.412-.949.971.971,0,0,0,.366-.676,1.1,1.1,0,0,0-.277-.819,1.08,1.08,0,0,0-.807-.369,1.1,1.1,0,0,0-.705.266,1.138,1.138,0,0,0-.394.855.791.791,0,0,0,.274.615,1.612,1.612,0,0,1,.523,1.444c0,.141,0,.284,0,.43l0,.185C1064.846,1546.68,1064.846,1546.8,1064.853,1546.869Zm-1.433-5.56a.586.586,0,0,1-.43-.148.64.64,0,0,1-.146-.469c.008-.236,0-.474,0-.708,0-.26,0-.516.008-.772a1.251,1.251,0,0,1,1.241-1.26c.714-.021,1.439-.013,2.166.014a1.223,1.223,0,0,1,1.191,1.216c.007.289.007.584.007.865q-.006.331,0,.661a.519.519,0,0,1-.569.588c-.263,0-.513,0-.757,0l-.708,0-.268.013-1-.007c-.234,0-.477,0-.714.007Zm-.046-.526h.046c.253-.007.5-.007.74-.007h.748l.247-.014h.976c.249,0,.5,0,.746.008h0c.024,0,.038,0,.05,0s0-.026,0-.046c0-.224,0-.452,0-.676,0-.277,0-.562,0-.84a.706.706,0,0,0-.695-.7c-.707-.033-1.422-.04-2.123-.021a.722.722,0,0,0-.729.745c-.01.253-.01.5-.007.755s0,.483,0,.724A.46.46,0,0,0,1063.373,1540.783Z" transform="translate(-1048.646 -1526.026)" fill="#ea4335"/>
              <path id="Path_8144" data-name="Path 8144" d="M1063.838,1552.8l-.007,0a.851.851,0,0,1-.22-.032,10.882,10.882,0,0,1-4.193-2.188,13.18,13.18,0,0,1-3.919-5.963,24.682,24.682,0,0,1-1.228-9.332l0-.563a1.043,1.043,0,0,1,1.042-1.041h1.558a9.921,9.921,0,0,0,6.772-3.853l.2-.242.207.242a9.9,9.9,0,0,0,6.775,3.853h1.551a1.043,1.043,0,0,1,1.042,1.041v.577a24.725,24.725,0,0,1-1.231,9.318,13.156,13.156,0,0,1-3.918,5.963,10.864,10.864,0,0,1-4.194,2.188.841.841,0,0,1-.22.032Zm0-22.4a10.145,10.145,0,0,1-6.967,3.806h-1.561a.513.513,0,0,0-.511.511v.577a24.147,24.147,0,0,0,1.2,9.142,12.629,12.629,0,0,0,3.766,5.738,10.391,10.391,0,0,0,3.986,2.081.323.323,0,0,0,.089.014.29.29,0,0,0,.089-.014,10.466,10.466,0,0,0,4-2.081,12.679,12.679,0,0,0,3.76-5.738,24.265,24.265,0,0,0,1.2-9.135v-.585a.517.517,0,0,0-.516-.511h-1.551A10.15,10.15,0,0,1,1063.838,1530.4Z" transform="translate(-1047.323 -1524.425)" fill="#ea4335"/>
            </g>
            <g id="Group_1749" data-name="Group 1749" transform="translate(1.721 37.995)">
              <path id="Path_8145" data-name="Path 8145" d="M1048.49,1573.061a2.258,2.258,0,0,1,1.316.324,1.119,1.119,0,0,1,.466.979,1.314,1.314,0,0,1-.129.6,1,1,0,0,1-.363.41,1.687,1.687,0,0,1-.579.228,4.005,4.005,0,0,1-.772.068h-.451v1.515h-.574v-4.02a3.009,3.009,0,0,1,.537-.078C1048.141,1573.067,1048.322,1573.061,1048.49,1573.061Zm.046.5c-.242,0-.434.008-.558.017v1.6h.422a3.047,3.047,0,0,0,.534-.043,1.048,1.048,0,0,0,.4-.129.587.587,0,0,0,.249-.248.863.863,0,0,0,.089-.4.773.773,0,0,0-.093-.391.71.71,0,0,0-.245-.243,1.049,1.049,0,0,0-.363-.128A2.842,2.842,0,0,0,1048.536,1573.561Z" transform="translate(-1047.404 -1572.849)" fill="#ea4335"/>
              <path id="Path_8146" data-name="Path 8146" d="M1053.384,1574.373a1.266,1.266,0,0,1,.163.008l.185.02.161.033c.046.009.081.018.106.024l-.1.477c-.046-.013-.112-.035-.209-.056a1.957,1.957,0,0,0-.388-.03,1.37,1.37,0,0,0-.3.03c-.1.021-.167.035-.2.046v2.572h-.547v-2.93a3.343,3.343,0,0,1,.483-.132A2.964,2.964,0,0,1,1053.384,1574.373Z" transform="translate(-1048.568 -1573.164)" fill="#ea4335"/>
              <path id="Path_8147" data-name="Path 8147" d="M1058.083,1575.962a1.944,1.944,0,0,1-.1.657,1.508,1.508,0,0,1-.3.509,1.322,1.322,0,0,1-.454.326,1.554,1.554,0,0,1-1.153,0,1.378,1.378,0,0,1-.455-.326,1.535,1.535,0,0,1-.3-.509,1.907,1.907,0,0,1-.107-.657,1.952,1.952,0,0,1,.107-.658,1.509,1.509,0,0,1,.3-.508,1.322,1.322,0,0,1,.455-.329,1.544,1.544,0,0,1,1.153,0,1.271,1.271,0,0,1,.454.329,1.483,1.483,0,0,1,.3.508A1.989,1.989,0,0,1,1058.083,1575.962Zm-.568,0a1.346,1.346,0,0,0-.233-.825.823.823,0,0,0-1.27,0,1.35,1.35,0,0,0-.227.825,1.318,1.318,0,0,0,.227.817.812.812,0,0,0,1.27,0A1.314,1.314,0,0,0,1057.515,1575.962Z" transform="translate(-1049.277 -1573.159)" fill="#ea4335"/>
              <path id="Path_8148" data-name="Path 8148" d="M1060.7,1574.158h1.155v.455H1060.7v1.41a1.819,1.819,0,0,0,.033.382.666.666,0,0,0,.106.234.376.376,0,0,0,.179.121.753.753,0,0,0,.246.037,1.03,1.03,0,0,0,.4-.058c.1-.036.171-.063.211-.075l.106.452a1.982,1.982,0,0,1-.758.163,1.46,1.46,0,0,1-.519-.078.7.7,0,0,1-.323-.243.854.854,0,0,1-.175-.389,2.681,2.681,0,0,1-.049-.535V1573.3l.547-.1Z" transform="translate(-1050.462 -1572.884)" fill="#ea4335"/>
              <path id="Path_8149" data-name="Path 8149" d="M1063.2,1575.968a1.962,1.962,0,0,1,.12-.712,1.618,1.618,0,0,1,.31-.5,1.3,1.3,0,0,1,.445-.3,1.476,1.476,0,0,1,.519-.1,1.181,1.181,0,0,1,.948.382,1.765,1.765,0,0,1,.331,1.175V1576c0,.036,0,.072,0,.1h-2.1a1.128,1.128,0,0,0,.281.722,1.012,1.012,0,0,0,.758.249,1.836,1.836,0,0,0,.48-.05,1.38,1.38,0,0,0,.3-.1l.076.463a1.905,1.905,0,0,1-.348.113,2.737,2.737,0,0,1-.569.058,1.858,1.858,0,0,1-.694-.122,1.371,1.371,0,0,1-.48-.334,1.49,1.49,0,0,1-.277-.5A2.279,2.279,0,0,1,1063.2,1575.968Zm2.1-.3a.917.917,0,0,0-.189-.609.639.639,0,0,0-.526-.234.724.724,0,0,0-.335.071.793.793,0,0,0-.242.189.82.82,0,0,0-.156.27,1.53,1.53,0,0,0-.071.312Z" transform="translate(-1051.193 -1573.159)" fill="#ea4335"/>
              <path id="Path_8150" data-name="Path 8150" d="M1069.22,1577.562a1.684,1.684,0,0,1-.648-.122,1.237,1.237,0,0,1-.468-.326,1.355,1.355,0,0,1-.288-.505,2.009,2.009,0,0,1-.093-.641,1.956,1.956,0,0,1,.1-.648,1.569,1.569,0,0,1,.288-.511,1.353,1.353,0,0,1,.465-.334,1.5,1.5,0,0,1,.609-.12,2.818,2.818,0,0,1,.412.034,1.943,1.943,0,0,1,.4.111l-.128.465a1.3,1.3,0,0,0-.281-.091,1.751,1.751,0,0,0-.345-.036.864.864,0,0,0-.7.288,1.264,1.264,0,0,0-.242.842,1.76,1.76,0,0,0,.058.452.857.857,0,0,0,.171.352.794.794,0,0,0,.313.228,1.223,1.223,0,0,0,.458.078,1.66,1.66,0,0,0,.391-.043,1.492,1.492,0,0,0,.277-.084l.075.458a.442.442,0,0,1-.132.053,1.123,1.123,0,0,1-.2.049c-.075.015-.151.027-.239.037S1069.3,1577.562,1069.22,1577.562Z" transform="translate(-1052.277 -1573.159)" fill="#ea4335"/>
              <path id="Path_8151" data-name="Path 8151" d="M1072.242,1574.158h1.159v.455h-1.159v1.41a1.877,1.877,0,0,0,.033.382.592.592,0,0,0,.106.234.345.345,0,0,0,.177.121.773.773,0,0,0,.246.037,1.045,1.045,0,0,0,.4-.058c.1-.036.17-.063.21-.075l.1.452a1.7,1.7,0,0,1-.289.1,1.6,1.6,0,0,1-.47.064,1.44,1.44,0,0,1-.515-.078.767.767,0,0,1-.327-.243.939.939,0,0,1-.171-.389,2.414,2.414,0,0,1-.053-.535V1573.3l.551-.1Z" transform="translate(-1053.229 -1572.884)" fill="#ea4335"/>
              <path id="Path_8152" data-name="Path 8152" d="M1075.29,1573.5a.368.368,0,0,1-.253-.1.393.393,0,0,1,0-.52.366.366,0,0,1,.253-.1.345.345,0,0,1,.249.1.379.379,0,0,1,0,.52A.347.347,0,0,1,1075.29,1573.5Zm.277,3.613h-.548v-3.058h.548Z" transform="translate(-1054.008 -1572.782)" fill="#ea4335"/>
              <path id="Path_8153" data-name="Path 8153" d="M1079.845,1575.962a2,2,0,0,1-.106.657,1.565,1.565,0,0,1-.3.509,1.337,1.337,0,0,1-.455.326,1.489,1.489,0,0,1-.581.111,1.455,1.455,0,0,1-.573-.111,1.4,1.4,0,0,1-.458-.326,1.6,1.6,0,0,1-.3-.509,1.926,1.926,0,0,1-.11-.657,1.974,1.974,0,0,1,.11-.658,1.572,1.572,0,0,1,.3-.508,1.346,1.346,0,0,1,.458-.329,1.47,1.47,0,0,1,.573-.112,1.5,1.5,0,0,1,.581.112,1.285,1.285,0,0,1,.455.329,1.538,1.538,0,0,1,.3.508A2.054,2.054,0,0,1,1079.845,1575.962Zm-.573,0a1.351,1.351,0,0,0-.23-.825.769.769,0,0,0-.638-.3.754.754,0,0,0-.629.3,1.332,1.332,0,0,0-.235.825,1.3,1.3,0,0,0,.235.817.744.744,0,0,0,.629.306.758.758,0,0,0,.638-.306A1.319,1.319,0,0,0,1079.273,1575.962Z" transform="translate(-1054.495 -1573.159)" fill="#ea4335"/>
              <path id="Path_8154" data-name="Path 8154" d="M1081.96,1574.521c.125-.028.292-.064.5-.1a4.324,4.324,0,0,1,.718-.049,1.638,1.638,0,0,1,.6.1,1.026,1.026,0,0,1,.389.29,1.084,1.084,0,0,1,.2.444,2.406,2.406,0,0,1,.064.573v1.718h-.547v-1.6a3.086,3.086,0,0,0-.04-.483.759.759,0,0,0-.128-.323.509.509,0,0,0-.237-.182,1.025,1.025,0,0,0-.36-.05h-.181c-.068.008-.129.01-.182.018a1.315,1.315,0,0,0-.153.018.4.4,0,0,0-.1.021v2.582h-.548Z" transform="translate(-1055.692 -1573.164)" fill="#ea4335"/>
            </g>
          </g>
          <g id="Group_1753" data-name="Group 1753" transform="translate(46.44)">
            <g id="Group_1751" data-name="Group 1751" transform="translate(4.29 37.76)">
              <path id="Path_8155" data-name="Path 8155" d="M1111.875,1577.2v-4.076h2.489v.482h-1.916v1.214h1.7v.48h-1.7v1.412h2.062v.488Z" transform="translate(-1111.875 -1572.628)" fill="#ea4335"/>
              <path id="Path_8156" data-name="Path 8156" d="M1118.233,1572.565l.548-.092v4.478c-.128.035-.286.071-.484.106a4.2,4.2,0,0,1-.676.054,1.8,1.8,0,0,1-.635-.114,1.3,1.3,0,0,1-.481-.316,1.42,1.42,0,0,1-.312-.5,1.977,1.977,0,0,1-.107-.668,2.213,2.213,0,0,1,.089-.648,1.462,1.462,0,0,1,.274-.5,1.109,1.109,0,0,1,.43-.331,1.37,1.37,0,0,1,.587-.117,1.305,1.305,0,0,1,.462.071,1.527,1.527,0,0,1,.306.133Zm0,2.063a.951.951,0,0,0-.287-.16,1.01,1.01,0,0,0-.413-.075.9.9,0,0,0-.4.085.677.677,0,0,0-.273.236.972.972,0,0,0-.153.356,1.875,1.875,0,0,0-.05.441,1.177,1.177,0,0,0,.267.825.91.91,0,0,0,.7.292,2.568,2.568,0,0,0,.377-.021c.1-.015.178-.029.231-.042Z" transform="translate(-1112.885 -1572.473)" fill="#ea4335"/>
              <path id="Path_8157" data-name="Path 8157" d="M1123.488,1577.427c-.128.031-.3.06-.494.1a4.3,4.3,0,0,1-.723.051,1.6,1.6,0,0,1-.589-.1.984.984,0,0,1-.388-.295,1.232,1.232,0,0,1-.214-.444,2.174,2.174,0,0,1-.064-.569v-1.713h.548v1.6a1.378,1.378,0,0,0,.178.8.676.676,0,0,0,.59.243h.186l.178-.023a.972.972,0,0,0,.149-.018.515.515,0,0,0,.1-.017v-2.582h.547Z" transform="translate(-1114.068 -1572.949)" fill="#ea4335"/>
              <path id="Path_8158" data-name="Path 8158" d="M1126.972,1577.562a1.671,1.671,0,0,1-.647-.122,1.232,1.232,0,0,1-.469-.326,1.365,1.365,0,0,1-.288-.505,2.146,2.146,0,0,1-.091-.641,1.794,1.794,0,0,1,.106-.648,1.516,1.516,0,0,1,.288-.511,1.294,1.294,0,0,1,.463-.334,1.517,1.517,0,0,1,.607-.12,2.908,2.908,0,0,1,.417.034,1.9,1.9,0,0,1,.391.111l-.125.465a1.266,1.266,0,0,0-.284-.091,1.511,1.511,0,0,0-.349-.036.859.859,0,0,0-.7.288,1.26,1.26,0,0,0-.245.842,1.839,1.839,0,0,0,.057.452.854.854,0,0,0,.182.352.7.7,0,0,0,.306.228,1.217,1.217,0,0,0,.455.078,1.685,1.685,0,0,0,.394-.043,1.587,1.587,0,0,0,.281-.084l.072.458a.415.415,0,0,1-.132.053,1.2,1.2,0,0,1-.2.049c-.077.015-.157.027-.241.037S1127.055,1577.562,1126.972,1577.562Z" transform="translate(-1115.137 -1572.924)" fill="#ea4335"/>
              <path id="Path_8159" data-name="Path 8159" d="M1130.413,1574.355a1.587,1.587,0,0,1,.554.084.921.921,0,0,1,.366.243.9.9,0,0,1,.192.369,1.654,1.654,0,0,1,.061.474v1.913c-.043.007-.113.017-.192.032s-.185.025-.291.039-.217.025-.341.032-.245.015-.37.015a2.029,2.029,0,0,1-.477-.051,1.1,1.1,0,0,1-.372-.171.76.76,0,0,1-.25-.3,1.056,1.056,0,0,1-.088-.448.819.819,0,0,1,.384-.734,1.4,1.4,0,0,1,.413-.162,2.2,2.2,0,0,1,.49-.059,1.5,1.5,0,0,1,.175.016,1.539,1.539,0,0,1,.167.021c.053.01.1.017.139.028a.826.826,0,0,0,.081.015v-.151a.975.975,0,0,0-.032-.269.583.583,0,0,0-.1-.236.555.555,0,0,0-.211-.162.771.771,0,0,0-.344-.065,2.6,2.6,0,0,0-.469.039,1.606,1.606,0,0,0-.306.083l-.064-.456a1.961,1.961,0,0,1,.351-.093A3.3,3.3,0,0,1,1130.413,1574.355Zm.045,2.741c.133,0,.243,0,.346-.011a1.6,1.6,0,0,0,.249-.027v-.914a.709.709,0,0,0-.192-.053,2.658,2.658,0,0,0-.319-.019,2.4,2.4,0,0,0-.263.019.925.925,0,0,0-.252.071.593.593,0,0,0-.188.156.394.394,0,0,0-.079.258.429.429,0,0,0,.192.4A.926.926,0,0,0,1130.458,1577.1Z" transform="translate(-1116.031 -1572.924)" fill="#ea4335"/>
              <path id="Path_8160" data-name="Path 8160" d="M1134.227,1574.158h1.157v.455h-1.157v1.41a1.879,1.879,0,0,0,.033.382.6.6,0,0,0,.106.234.345.345,0,0,0,.177.121.764.764,0,0,0,.246.037,1.063,1.063,0,0,0,.4-.058c.1-.036.171-.063.209-.075l.106.452a2,2,0,0,1-.756.163,1.54,1.54,0,0,1-.52-.078.743.743,0,0,1-.323-.243.9.9,0,0,1-.175-.389,2.481,2.481,0,0,1-.052-.535V1573.3l.55-.1Z" transform="translate(-1117.104 -1572.649)" fill="#ea4335"/>
              <path id="Path_8161" data-name="Path 8161" d="M1137.279,1573.5a.367.367,0,0,1-.253-.1.377.377,0,0,1,0-.52.365.365,0,0,1,.253-.1.346.346,0,0,1,.245.1.371.371,0,0,1,0,.52A.348.348,0,0,1,1137.279,1573.5Zm.277,3.613H1137v-3.058h.551Z" transform="translate(-1117.882 -1572.547)" fill="#ea4335"/>
              <path id="Path_8162" data-name="Path 8162" d="M1141.829,1575.962a1.987,1.987,0,0,1-.1.657,1.576,1.576,0,0,1-.3.509,1.326,1.326,0,0,1-.455.326,1.551,1.551,0,0,1-1.152,0,1.365,1.365,0,0,1-.458-.326,1.727,1.727,0,0,1-.3-.509,1.987,1.987,0,0,1-.1-.657,2.034,2.034,0,0,1,.1-.658,1.7,1.7,0,0,1,.3-.508,1.31,1.31,0,0,1,.458-.329,1.542,1.542,0,0,1,1.152,0,1.274,1.274,0,0,1,.455.329,1.548,1.548,0,0,1,.3.508A2.034,2.034,0,0,1,1141.829,1575.962Zm-.569,0a1.327,1.327,0,0,0-.231-.825.819.819,0,0,0-1.266,0,1.332,1.332,0,0,0-.234.825,1.3,1.3,0,0,0,.234.817.809.809,0,0,0,1.266,0A1.3,1.3,0,0,0,1141.259,1575.962Z" transform="translate(-1118.371 -1572.924)" fill="#ea4335"/>
              <path id="Path_8163" data-name="Path 8163" d="M1143.941,1574.521c.128-.028.3-.064.5-.1a4.326,4.326,0,0,1,.719-.049,1.7,1.7,0,0,1,.609.1,1.038,1.038,0,0,1,.384.29,1.127,1.127,0,0,1,.2.444,2.592,2.592,0,0,1,.061.573v1.718h-.547v-1.6a2.638,2.638,0,0,0-.04-.483.722.722,0,0,0-.128-.323.521.521,0,0,0-.236-.182,1.02,1.02,0,0,0-.362-.053c-.064,0-.121,0-.181,0s-.128.01-.185.018-.1.011-.15.018a.5.5,0,0,0-.1.021v2.582h-.548Z" transform="translate(-1119.566 -1572.929)" fill="#ea4335"/>
            </g>
            <g id="Group_1752" data-name="Group 1752">
              <path id="Path_8164" data-name="Path 8164" d="M1122.648,1555.836h-.014a16.519,16.519,0,1,1,.238-33.037h.032a16.519,16.519,0,0,1-.256,33.037Zm.224-30.923a14.51,14.51,0,0,0-10.3,4.2,14.42,14.42,0,0,0,10.066,24.61l.014,1.054v-1.054a14.406,14.406,0,0,0,.253-28.81Z" transform="translate(-1106.232 -1522.799)" fill="#ea4335"/>
              <path id="Path_8165" data-name="Path 8165" d="M1135.228,1548.745c-.027-.517-.057-1.056-.114-1.583a9.126,9.126,0,0,0-.477-2.184.242.242,0,0,1,.011-.2,1.179,1.179,0,0,0-.423-1.51c-.056-.029-.061-.05-.061-.11V1539.4a.451.451,0,0,0-.34-.505l-3.241-1.259q-2.983-1.158-5.96-2.311a.633.633,0,0,0-.469-.008q-3.367,1.313-6.736,2.61l-2.5.968a.437.437,0,0,0-.334.434.442.442,0,0,0,.359.423l3.47,1.092a.672.672,0,0,0-.013.1v.379q0,1.125,0,2.245a.436.436,0,0,0,.437.448l.259.022c.282.017.57.041.851.084a8.745,8.745,0,0,1,4.16,1.665.424.424,0,0,0,.587-.037,4.693,4.693,0,0,1,1-.721,9.614,9.614,0,0,1,4.157-1.07c.366-.018.512-.171.512-.527v-2.592l2.667-.847v3.2c0,.027,0,.042-.049.071a1.16,1.16,0,0,0-.467,1.444.517.517,0,0,1,0,.385,13.087,13.087,0,0,0-.562,3.822.542.542,0,0,0,.122.4.53.53,0,0,0,.4.128h2.23a.538.538,0,0,0,.419-.135.518.518,0,0,0,.111-.411Zm-2.243-3.374c.027-.09.06-.178.1-.263.024-.064.046-.129.068-.2a.255.255,0,0,0-.017-.2.656.656,0,0,1,.363-1.092l.065-.024v-4.232a.145.145,0,0,1,.028.006c.039.016.046.021.046.076,0,.617,0,1.238,0,1.855,0,.693,0,1.394,0,2.088a.258.258,0,0,0,.192.274.624.624,0,0,1,.388.408.635.635,0,0,1-.1.58.284.284,0,0,0-.035.324,7.541,7.541,0,0,1,.462,1.9c.056.466.1.944.128,1.407.014.2.029.4.042.6v.015h-2.211A13.169,13.169,0,0,1,1132.985,1545.371Zm-8.646-3.225q-4.006-1.261-8-2.523l-1-.321q4.491-1.739,8.984-3.469a.232.232,0,0,1,.135,0q2.385.918,4.762,1.842l4.211,1.632v0c-.2.057-.388.118-.577.179l-3.154,1c-1.736.55-3.468,1.1-5.211,1.643A.257.257,0,0,1,1124.339,1542.146Zm-5.392-1.079,1.024.335c1.415.465,2.831.931,4.243,1.386a.521.521,0,0,0,.306,0c1.34-.433,2.686-.866,4.023-1.308l1.222-.4a.36.36,0,0,0,.054-.018v2.351l-.085,0c-.146.014-.3.022-.445.042a9.9,9.9,0,0,0-3.532.929,5.636,5.636,0,0,0-1.377.913,9.917,9.917,0,0,0-5.434-1.827Z" transform="translate(-1108.235 -1525.791)" fill="#ea4335"/>
            </g>
          </g>
          <g id="Group_1757" data-name="Group 1757" transform="translate(92.887)">
            <g id="Group_1754" data-name="Group 1754" transform="translate(2.345 38.254)">
              <path id="Path_8166" data-name="Path 8166" d="M1170.42,1573.123h.569v4.08h-.569Z" transform="translate(-1170.42 -1573.123)" fill="#ea4335"/>
              <path id="Path_8167" data-name="Path 8167" d="M1172.649,1574.531c.124-.033.291-.066.5-.1a4.167,4.167,0,0,1,.715-.054,1.552,1.552,0,0,1,.608.1.9.9,0,0,1,.381.29,1.06,1.06,0,0,1,.206.443,2.6,2.6,0,0,1,.061.569v1.721h-.548v-1.6a2.35,2.35,0,0,0-.039-.484.769.769,0,0,0-.125-.328.609.609,0,0,0-.238-.177,1.09,1.09,0,0,0-.367-.057c-.052,0-.113.008-.177.008s-.125.01-.181.014l-.153.021c-.047.007-.079.015-.1.017v2.587h-.547Z" transform="translate(-1170.955 -1573.424)" fill="#ea4335"/>
              <path id="Path_8168" data-name="Path 8168" d="M1179.43,1574.461a15.315,15.315,0,0,1-.537,1.647c-.206.526-.406,1-.594,1.415h-.5c-.192-.42-.395-.889-.6-1.415a15.344,15.344,0,0,1-.537-1.647h.587c.046.192.1.4.171.615s.129.436.206.648.142.42.22.618.146.381.21.541c.067-.16.139-.338.213-.541s.146-.4.217-.618.145-.431.207-.648.121-.423.171-.615Z" transform="translate(-1171.918 -1573.444)" fill="#ea4335"/>
              <path id="Path_8169" data-name="Path 8169" d="M1180.906,1575.97a1.951,1.951,0,0,1,.121-.7,1.527,1.527,0,0,1,.309-.505,1.249,1.249,0,0,1,.447-.3,1.48,1.48,0,0,1,.521-.1,1.181,1.181,0,0,1,.945.382,1.77,1.77,0,0,1,.331,1.175v.093a.583.583,0,0,1-.006.1h-2.1a1.088,1.088,0,0,0,.277.721.993.993,0,0,0,.75.249,1.725,1.725,0,0,0,.491-.053,1.315,1.315,0,0,0,.294-.1l.075.462a1.614,1.614,0,0,1-.351.11,2.38,2.38,0,0,1-.562.058,1.765,1.765,0,0,1-.694-.122,1.328,1.328,0,0,1-.483-.33,1.409,1.409,0,0,1-.277-.505A2.243,2.243,0,0,1,1180.906,1575.97Zm2.1-.3a.932.932,0,0,0-.185-.612.65.65,0,0,0-.53-.234.7.7,0,0,0-.331.078.756.756,0,0,0-.245.185.969.969,0,0,0-.157.27,1.308,1.308,0,0,0-.075.313Z" transform="translate(-1172.935 -1573.421)" fill="#ea4335"/>
              <path id="Path_8170" data-name="Path 8170" d="M1186.292,1577.1a1.1,1.1,0,0,0,.5-.085.3.3,0,0,0,.157-.285.373.373,0,0,0-.154-.316,2.5,2.5,0,0,0-.527-.267c-.117-.043-.227-.093-.338-.143a1.18,1.18,0,0,1-.277-.17.821.821,0,0,1-.188-.242.752.752,0,0,1-.071-.349.778.778,0,0,1,.3-.646,1.3,1.3,0,0,1,.822-.235,1.768,1.768,0,0,1,.257.014,2.17,2.17,0,0,1,.242.035c.07.014.138.027.195.042a1.108,1.108,0,0,1,.132.044l-.1.468a1.185,1.185,0,0,0-.274-.1,1.871,1.871,0,0,0-.452-.047.879.879,0,0,0-.4.086.3.3,0,0,0-.167.284.348.348,0,0,0,.036.177.379.379,0,0,0,.119.14.913.913,0,0,0,.195.115,2.315,2.315,0,0,0,.284.109c.143.057.274.112.388.163a1.217,1.217,0,0,1,.288.185.689.689,0,0,1,.188.256.92.92,0,0,1,.062.368.731.731,0,0,1-.313.642,1.578,1.578,0,0,1-.9.217,2.333,2.333,0,0,1-.636-.068,2.71,2.71,0,0,1-.309-.1l.1-.476a2.639,2.639,0,0,0,.3.106A1.651,1.651,0,0,0,1186.292,1577.1Z" transform="translate(-1174 -1573.421)" fill="#ea4335"/>
              <path id="Path_8171" data-name="Path 8171" d="M1189.8,1574.162h1.156v.459H1189.8v1.416a1.623,1.623,0,0,0,.033.377.64.64,0,0,0,.1.235.381.381,0,0,0,.177.12.622.622,0,0,0,.245.036,1.207,1.207,0,0,0,.4-.058c.1-.035.17-.064.206-.077l.107.455c-.058.025-.15.057-.289.1a1.587,1.587,0,0,1-.474.064,1.523,1.523,0,0,1-.511-.078.8.8,0,0,1-.326-.245.863.863,0,0,1-.172-.388,2.455,2.455,0,0,1-.052-.538v-2.729l.55-.1Z" transform="translate(-1174.937 -1573.145)" fill="#ea4335"/>
              <path id="Path_8172" data-name="Path 8172" d="M1192.6,1574.531c.125-.033.291-.066.5-.1a4.125,4.125,0,0,1,.711-.054,1.306,1.306,0,0,1,.494.078.9.9,0,0,1,.335.231l.131-.078a1.349,1.349,0,0,1,.217-.106,2.421,2.421,0,0,1,.291-.086,1.268,1.268,0,0,1,.338-.04,1.391,1.391,0,0,1,.576.1.831.831,0,0,1,.351.291,1.216,1.216,0,0,1,.171.449,3.439,3.439,0,0,1,.048.562v1.721h-.549v-1.6a2.963,2.963,0,0,0-.028-.467.815.815,0,0,0-.1-.323.453.453,0,0,0-.2-.192.731.731,0,0,0-.331-.065,1.234,1.234,0,0,0-.456.078.951.951,0,0,0-.237.128,1.893,1.893,0,0,1,.064.335,2.773,2.773,0,0,1,.028.385v1.721h-.547v-1.6a3.006,3.006,0,0,0-.032-.467.963.963,0,0,0-.1-.323.478.478,0,0,0-.2-.192.714.714,0,0,0-.321-.065c-.057,0-.117.008-.177.008s-.125.01-.178.014l-.157.021c-.046.007-.078.015-.1.017v2.587h-.548Z" transform="translate(-1175.74 -1573.424)" fill="#ea4335"/>
              <path id="Path_8173" data-name="Path 8173" d="M1199.242,1575.97a1.886,1.886,0,0,1,.116-.7,1.368,1.368,0,0,1,.313-.505,1.161,1.161,0,0,1,.448-.3,1.419,1.419,0,0,1,.516-.1,1.2,1.2,0,0,1,.949.382,1.786,1.786,0,0,1,.328,1.175v.093a.872.872,0,0,1-.008.1h-2.095a1.127,1.127,0,0,0,.274.721,1.017,1.017,0,0,0,.755.249,1.726,1.726,0,0,0,.487-.053,1.118,1.118,0,0,0,.3-.1l.074.462a1.444,1.444,0,0,1-.349.11,2.423,2.423,0,0,1-.565.058,1.784,1.784,0,0,1-.693-.122,1.235,1.235,0,0,1-.477-.33,1.427,1.427,0,0,1-.285-.505A2.171,2.171,0,0,1,1199.242,1575.97Zm2.1-.3a.94.94,0,0,0-.185-.612.646.646,0,0,0-.526-.234.732.732,0,0,0-.334.078.866.866,0,0,0-.245.185,1.11,1.11,0,0,0-.154.27,1.323,1.323,0,0,0-.071.313Z" transform="translate(-1177.333 -1573.421)" fill="#ea4335"/>
              <path id="Path_8174" data-name="Path 8174" d="M1203.984,1574.531c.122-.033.292-.066.5-.1a4.236,4.236,0,0,1,.718-.054,1.578,1.578,0,0,1,.607.1.91.91,0,0,1,.385.29,1.126,1.126,0,0,1,.2.443,2.561,2.561,0,0,1,.056.569v1.721h-.544v-1.6a2.572,2.572,0,0,0-.04-.484.923.923,0,0,0-.124-.328.65.65,0,0,0-.234-.177,1.094,1.094,0,0,0-.366-.057c-.06,0-.121.008-.189.008s-.116.01-.174.014l-.153.021c-.046.007-.078.015-.095.017v2.587h-.549Z" transform="translate(-1178.47 -1573.424)" fill="#ea4335"/>
              <path id="Path_8175" data-name="Path 8175" d="M1209.121,1574.162h1.16v.459h-1.16v1.416a1.623,1.623,0,0,0,.033.377.765.765,0,0,0,.1.235.419.419,0,0,0,.182.12.619.619,0,0,0,.246.036,1.207,1.207,0,0,0,.4-.058c.1-.035.167-.064.207-.077l.1.455a2.784,2.784,0,0,1-.284.1,1.631,1.631,0,0,1-.474.064,1.5,1.5,0,0,1-.512-.078.8.8,0,0,1-.33-.245.953.953,0,0,1-.171-.388,2.419,2.419,0,0,1-.05-.538v-2.729l.547-.1Z" transform="translate(-1179.571 -1573.145)" fill="#ea4335"/>
            </g>
            <g id="Group_1756" data-name="Group 1756">
              <path id="Path_8176" data-name="Path 8176" d="M1183.751,1555.836h-.017a16.519,16.519,0,1,1,.236-33.037h.036a16.519,16.519,0,0,1-.255,33.037Zm.219-30.923a14.519,14.519,0,0,0-10.3,4.2,14.421,14.421,0,0,0,10.066,24.61l.017,1.054v-1.054a14.406,14.406,0,0,0,.249-28.81Z" transform="translate(-1167.335 -1522.799)" fill="#ea4335"/>
              <g id="Group_1755" data-name="Group 1755" transform="translate(8.432 10.136)">
                <path id="Path_8177" data-name="Path 8177" d="M1195.081,1536.472h-2.709c-.1,0-.2-.008-.3-.008a8.877,8.877,0,0,0-2.676.414.472.472,0,0,1-.255,0c-.647-.185-1.282-.42-1.948-.561a8.165,8.165,0,0,0-3.3-.03c-.964.2-1.924.456-2.888.69-.281.064-.345.172-.295.47a1.56,1.56,0,0,0,.533.917c-.6.194-1.174.385-1.746.54-.285.083-.352.144-.285.435a1.44,1.44,0,0,0,1.121,1.234,5.477,5.477,0,0,1-1.586.423c-.277,0-.363.1-.306.385a2.139,2.139,0,0,0,.452.972,1,1,0,0,0,.843.393,2.518,2.518,0,0,0,.622-.141c.409-.157.8-.343,1.242-.534a3.924,3.924,0,0,0-.114,1.962,4.8,4.8,0,0,1,.007,1.061c-.05.377-.05.423.316.489a.5.5,0,0,1,.1.03,3.092,3.092,0,0,0,1.807,4.088,3.02,3.02,0,0,0,3.983-2.168,4.132,4.132,0,0,0,.58.149c.2.036.288-.053.331-.249a3.027,3.027,0,0,1,.746-1.516,4.158,4.158,0,0,0,1.216-2.289,2.33,2.33,0,0,1,.092-.47,1.675,1.675,0,0,1,.719-1.061,4.863,4.863,0,0,1,1.135-.5h2.563a1.08,1.08,0,0,0,1.078-1.079v-2.97A1.084,1.084,0,0,0,1195.081,1536.472Zm-10.348,12.775a2.358,2.358,0,1,1,2.361-2.362A2.361,2.361,0,0,1,1184.733,1549.247Zm-1.3-5.143c-.011-.359-.033-.676-.025-1a.669.669,0,0,1,.4-.626,7.844,7.844,0,0,1,2.7-.961,2.346,2.346,0,0,1,.867.028,1.22,1.22,0,0,1,.924,1.494,4.166,4.166,0,0,1-.724,1.888c-.08.121-.157.238-.246.377A3.02,3.02,0,0,0,1183.433,1544.1Zm12.185-3.584a.538.538,0,0,1-.537.533h-.917v-.01h-1.518c-.09.024-.185.049-.274.081a9.784,9.784,0,0,0-1.067.428,1.977,1.977,0,0,0-1.057,1.209c-.085.245-.123.5-.192.748a3.38,3.38,0,0,1-.242.852,6.045,6.045,0,0,1-.79,1.149,3.38,3.38,0,0,0-.9,1.611.725.725,0,0,1-.59-.6,1.589,1.589,0,0,1,.067-.731,5.732,5.732,0,0,1,.473-.883,3.914,3.914,0,0,0,.655-2.255,1.6,1.6,0,0,0-1.38-1.643,3.509,3.509,0,0,0-1.2.007,8.438,8.438,0,0,0-2.71,1.014.809.809,0,0,0-.48.544c-.057.363-.046.739-.071,1.116a5.956,5.956,0,0,1-.1.924.654.654,0,0,1-.779.477c-.036-.5-.056-1-.107-1.5a2.2,2.2,0,0,1,.573-1.984.346.346,0,0,0,0-.317.33.33,0,0,0-.3-.053c-.669.29-1.324.607-2,.921a.814.814,0,0,1-1.234-.655,17.585,17.585,0,0,0,4.315-1.767.236.236,0,0,0,.144-.328.254.254,0,0,0-.337-.121c-.214.08-.431.143-.638.217-.623.189-1.226.405-1.859.573a.7.7,0,0,1-.851-.634c.7-.255,1.389-.5,2.084-.761.143-.049.261-.121.261-.289s-.129-.229-.271-.273a.842.842,0,0,1-.591-.683c.708-.17,1.419-.327,2.119-.5a8.714,8.714,0,0,1,5.745.483.459.459,0,0,0,.291,0,8.122,8.122,0,0,1,2.9-.42h.1v.018h2.709a.535.535,0,0,1,.537.533Z" transform="translate(-1178.427 -1536.133)" fill="#ea4335"/>
                <path id="Path_8178" data-name="Path 8178" d="M1187.108,1549.874a.777.777,0,0,0-.2-.128,2.2,2.2,0,0,0-.245-.106c-.064-.022-.118-.042-.163-.063s-.089-.043-.125-.062a.321.321,0,0,1-.074-.078.218.218,0,0,1-.025-.1.194.194,0,0,1,.085-.17.451.451,0,0,1,.257-.064,1.024,1.024,0,0,1,.281.035,1.464,1.464,0,0,1,.22.067l.078-.315c-.045-.016-.109-.036-.192-.058a1.276,1.276,0,0,0-.27-.043v-.342h-.328v.357a.636.636,0,0,0-.4.2.561.561,0,0,0-.128.372.432.432,0,0,0,.049.222.409.409,0,0,0,.125.156.92.92,0,0,0,.17.111,1.006,1.006,0,0,0,.2.073c.064.03.131.051.188.081a.717.717,0,0,1,.154.074.346.346,0,0,1,.1.094.206.206,0,0,1,.03.124.2.2,0,0,1-.08.175.536.536,0,0,1-.3.062,1.133,1.133,0,0,1-.327-.04,1.427,1.427,0,0,1-.243-.091l-.106.3a1.289,1.289,0,0,0,.211.085,1.954,1.954,0,0,0,.366.064v.38h.328v-.394a.632.632,0,0,0,.423-.195.531.531,0,0,0,.132-.36.576.576,0,0,0-.046-.242A.56.56,0,0,0,1187.108,1549.874Z" transform="translate(-1180.203 -1539.086)" fill="#ea4335"/>
                <path id="Path_8179" data-name="Path 8179" d="M1186.071,1547.573a2.059,2.059,0,1,0,2.055,2.056A2.061,2.061,0,0,0,1186.071,1547.573Zm0,3.919a1.86,1.86,0,1,1,1.86-1.863A1.865,1.865,0,0,1,1186.071,1551.492Z" transform="translate(-1179.766 -1538.877)" fill="#ea4335"/>
              </g>
            </g>
          </g>
        </g>
        <g id="Group_1759" data-name="Group 1759" transform="translate(6.555)">
          <path id="Path_8180" data-name="Path 8180" d="M1063.283,1493.957l-.014-6.277-3.081,5.172H1059.1l-3.063-5.038v6.144h-2.272v-10.463h2l3.916,6.5,3.858-6.5h1.989l.028,10.463Z" transform="translate(-1053.763 -1483.316)" fill="#ea4335"/>
          <path id="Path_8181" data-name="Path 8181" d="M1071.681,1488.67a5.735,5.735,0,1,1,5.725,5.411A5.413,5.413,0,0,1,1071.681,1488.67Zm9,0a3.274,3.274,0,1,0-3.273,3.348A3.193,3.193,0,0,0,1080.68,1488.67Z" transform="translate(-1058.06 -1483.26)" fill="#ea4335"/>
          <path id="Path_8182" data-name="Path 8182" d="M1098.746,1491.1c0,1.812-1.433,2.855-4.185,2.855h-5.409v-10.463h5.11c2.619,0,3.963,1.091,3.963,2.721a2.515,2.515,0,0,1-1.391,2.3A2.58,2.58,0,0,1,1098.746,1491.1Zm-7.187-5.784v2.466h2.4c1.181,0,1.824-.417,1.824-1.241s-.643-1.225-1.824-1.225Zm4.751,5.532c0-.882-.673-1.3-1.928-1.3h-2.823v2.585h2.823C1095.637,1492.133,1096.31,1491.746,1096.31,1490.849Z" transform="translate(-1062.25 -1483.316)" fill="#ea4335"/>
          <path id="Path_8183" data-name="Path 8183" d="M1104.2,1483.494h2.422v10.463H1104.2Z" transform="translate(-1065.859 -1483.316)" fill="#ea4335"/>
          <path id="Path_8184" data-name="Path 8184" d="M1110.653,1483.494h2.422v8.489h5.247v1.973h-7.668Z" transform="translate(-1067.408 -1483.316)" fill="#ea4335"/>
          <path id="Path_8185" data-name="Path 8185" d="M1130.633,1492.014v1.943h-8.1v-10.463h7.906v1.942h-5.5v2.273h4.858v1.884h-4.858v2.421Z" transform="translate(-1070.257 -1483.316)" fill="#ea4335"/>
          <path id="Path_8186" data-name="Path 8186" d="M1140.431,1488.67a5.764,5.764,0,0,1,9.986-3.559l-1.557,1.435a3.358,3.358,0,0,0-2.629-1.224,3.348,3.348,0,1,0,0,6.7,3.325,3.325,0,0,0,2.629-1.241l1.557,1.436a5.753,5.753,0,0,1-9.986-3.542Z" transform="translate(-1074.55 -1483.26)" fill="#ea4335"/>
          <path id="Path_8187" data-name="Path 8187" d="M1155.717,1483.494h2.422v8.489h5.245v1.973h-7.667Z" transform="translate(-1078.216 -1483.316)" fill="#ea4335"/>
          <path id="Path_8188" data-name="Path 8188" d="M1174.175,1491.716h-4.862l-.924,2.241h-2.483l4.666-10.463h2.391l4.68,10.463H1175.1Zm-.765-1.839-1.658-4.007-1.66,4.007Z" transform="translate(-1080.66 -1483.316)" fill="#ea4335"/>
          <path id="Path_8189" data-name="Path 8189" d="M1182.781,1483.494h2.423v10.463h-2.423Z" transform="translate(-1084.707 -1483.316)" fill="#ea4335"/>
          <path id="Path_8190" data-name="Path 8190" d="M1198.753,1493.957l-.014-6.277-3.079,5.172h-1.092l-3.062-5.038v6.144h-2.273v-10.463h2l3.916,6.5,3.859-6.5H1201l.028,10.463Z" transform="translate(-1086.255 -1483.316)" fill="#ea4335"/>
        </g>
      </g>
    </g>
    <g id="Group_1764" data-name="Group 1764" transform="translate(993.399 1138.376)">
      <path id="Path_8191" data-name="Path 8191" d="M1146.893,1622.576a3.254,3.254,0,0,1-3.251,3.251h-39.676a3.252,3.252,0,0,1-3.25-3.251v-6.51a3.254,3.254,0,0,1,3.25-3.256h39.676a3.255,3.255,0,0,1,3.251,3.256Z" transform="translate(-1099.682 -1611.619)" opacity="0.2" fill="url(#linear-gradient-2)"/>
      <g id="Group_1763" data-name="Group 1763">
        <path id="Path_8192" data-name="Path 8192" d="M1145.535,1621.006a3.255,3.255,0,0,1-3.25,3.254h-39.675a3.258,3.258,0,0,1-3.254-3.254V1614.5a3.256,3.256,0,0,1,3.254-3.255h39.675a3.253,3.253,0,0,1,3.25,3.255Z" transform="translate(-1099.355 -1611.243)" fill="#ea4335"/>
        <g id="Group_1762" data-name="Group 1762" transform="translate(9.335 3.76)">
          <path id="Path_8193" data-name="Path 8193" d="M1111.636,1620.872l.4-.888a3.012,3.012,0,0,0,1.683.53c.7,0,.981-.232.981-.544,0-.954-2.962-.3-2.962-2.192,0-.864.7-1.589,2.147-1.589a3.412,3.412,0,0,1,1.767.455l-.362.9a2.883,2.883,0,0,0-1.412-.405c-.7,0-.968.262-.968.583,0,.938,2.963.291,2.963,2.162,0,.854-.708,1.579-2.163,1.579A3.631,3.631,0,0,1,1111.636,1620.872Z" transform="translate(-1111.636 -1616.189)" fill="#fff"/>
          <path id="Path_8194" data-name="Path 8194" d="M1118.223,1619.162v-2.855h1.177v2.813c0,.967.423,1.365,1.138,1.365s1.134-.4,1.134-1.365v-2.812h1.163v2.855a2.306,2.306,0,1,1-4.613,0Z" transform="translate(-1113.216 -1616.217)" fill="#fff"/>
          <path id="Path_8195" data-name="Path 8195" d="M1130.5,1620.013c0,.877-.7,1.39-2.039,1.39h-2.635v-5.1h2.49c1.273,0,1.927.53,1.927,1.326a1.218,1.218,0,0,1-.675,1.119A1.26,1.26,0,0,1,1130.5,1620.013Zm-3.5-2.817v1.2h1.174c.575,0,.889-.2.889-.6s-.313-.6-.889-.6Zm2.315,2.693c0-.428-.328-.633-.939-.633H1127v1.259h1.376C1128.984,1620.514,1129.311,1620.324,1129.311,1619.888Z" transform="translate(-1115.039 -1616.217)" fill="#fff"/>
          <path id="Path_8196" data-name="Path 8196" d="M1137.795,1621.4l-.008-3.059-1.5,2.518h-.53l-1.492-2.455v3h-1.107v-5.1h.975l1.907,3.168,1.88-3.168h.968l.015,5.1Z" transform="translate(-1116.798 -1616.217)" fill="#fff"/>
          <path id="Path_8197" data-name="Path 8197" d="M1142.308,1616.307h1.177v5.1h-1.177Z" transform="translate(-1118.993 -1616.217)" fill="#fff"/>
          <path id="Path_8198" data-name="Path 8198" d="M1146.327,1617.27h-1.633v-.963h4.442v.963H1147.5v4.132h-1.177Z" transform="translate(-1119.565 -1616.217)" fill="#fff"/>
        </g>
      </g>
    </g>
    <g id="Group_1768" data-name="Group 1768" transform="translate(977.666 914.528)">
      <g id="Group_1766" data-name="Group 1766">
        <g id="Group_1765" data-name="Group 1765">
          <path id="Path_8199" data-name="Path 8199" d="M1152.445,1335.935v56.743a15.847,15.847,0,0,1-7.421,13.431.023.023,0,0,1-.018,0l-1.081.632a.051.051,0,0,0-.032.015l-28.337,16.362-28.383-16.385-1.067-.614a15.855,15.855,0,0,1-7.447-13.445v-56.743c0-4.549,16.526-8.243,36.9-8.243S1152.445,1331.386,1152.445,1335.935Z" transform="translate(-1078.658 -1319.388)" fill="#34a853"/>
          <path id="Path_8200" data-name="Path 8200" d="M1152.445,1327.716v11.417h-73.787v-11.417s2.435.486,7.425-1.56c4.019-1.66,11.69-6.895,24.494-8.835,1.578-.238,3.239-.427,4.978-.553,1.735.126,3.4.316,4.975.553,12.8,1.94,20.474,7.174,24.493,8.835C1150.009,1328.2,1152.445,1327.716,1152.445,1327.716Z" transform="translate(-1078.658 -1316.768)" fill="#34a853"/>
          <path id="Path_8201" data-name="Path 8201" d="M1150.111,1332v59.138a12.374,12.374,0,0,1-5.757,10.5l-.274.163h-.487l-.708.689-26.253,15.159-27.687-15.986a12.393,12.393,0,0,1-5.8-10.521V1332a26.756,26.756,0,0,0,5.307-1.611c1.041-.427,2.2-1.016,3.534-1.706a62.918,62.918,0,0,1,20.175-6.908c1.438-.223,2.938-.392,4.471-.514,1.532.122,3.029.291,4.463.514a62.892,62.892,0,0,1,20.175,6.908c1.338.689,2.494,1.279,3.526,1.706a26.842,26.842,0,0,0,5.313,1.611Z" transform="translate(-1079.734 -1317.845)" fill="#ea4335"/>
          <path id="Path_8202" data-name="Path 8202" d="M1136.467,1375.388H1125.02v-11.443a3.912,3.912,0,1,0-7.825,0v11.443h-11.449a3.917,3.917,0,0,0,0,7.833h11.449v11.44a3.912,3.912,0,1,0,7.825,0v-11.44h11.447a3.917,3.917,0,0,0,0-7.833Z" transform="translate(-1084.217 -1327.144)" fill="#fff"/>
        </g>
      </g>
      <g id="Group_1767" data-name="Group 1767" transform="translate(13.571 20.846)">
        <path id="Path_8204" data-name="Path 8204" d="M1096.511,1344.353h1.212v5.375h-1.212Z" transform="translate(-1096.511 -1344.23)" fill="#fff"/>
        <path id="Path_8205" data-name="Path 8205" d="M1103.851,1349.728c-.345-.616-.718-1.222-1.125-1.823a17.718,17.718,0,0,0-1.286-1.7v3.522h-1.191v-5.375h.984c.172.173.355.381.566.628s.415.513.63.8.426.573.641.88.412.591.6.87v-3.173h1.2v5.375Z" transform="translate(-1097.407 -1344.23)" fill="#fff"/>
        <path id="Path_8206" data-name="Path 8206" d="M1109.828,1348.767a1.67,1.67,0,0,0,.424-.045.741.741,0,0,0,.265-.117.374.374,0,0,0,.139-.173.568.568,0,0,0,.039-.224.509.509,0,0,0-.249-.437,3.4,3.4,0,0,0-.853-.378c-.175-.062-.352-.133-.527-.211a1.8,1.8,0,0,1-.469-.306,1.412,1.412,0,0,1-.345-.439,1.4,1.4,0,0,1-.132-.631,1.546,1.546,0,0,1,.143-.67,1.386,1.386,0,0,1,.391-.508,1.892,1.892,0,0,1,.623-.325,2.781,2.781,0,0,1,.822-.111,3.251,3.251,0,0,1,1.589.373l-.344.953a3.816,3.816,0,0,0-.5-.2,2.121,2.121,0,0,0-.666-.092,1.226,1.226,0,0,0-.622.124.413.413,0,0,0-.188.369.425.425,0,0,0,.067.247.7.7,0,0,0,.2.18,1.552,1.552,0,0,0,.293.149c.113.044.231.088.372.135.275.1.52.2.725.3a2.015,2.015,0,0,1,.516.355,1.376,1.376,0,0,1,.31.473,2,2,0,0,1,.1.659,1.409,1.409,0,0,1-.527,1.168,2.546,2.546,0,0,1-1.589.414,4.1,4.1,0,0,1-.644-.045,4.36,4.36,0,0,1-.509-.1,3.492,3.492,0,0,1-.38-.132c-.1-.048-.195-.09-.267-.134l.342-.961a2.926,2.926,0,0,0,.6.235A3.012,3.012,0,0,0,1109.828,1348.767Z" transform="translate(-1099.273 -1344.191)" fill="#fff"/>
        <path id="Path_8207" data-name="Path 8207" d="M1116.993,1349.836a2.764,2.764,0,0,1-.978-.157,1.879,1.879,0,0,1-.68-.443,1.8,1.8,0,0,1-.395-.675,2.781,2.781,0,0,1-.128-.864v-3.344h1.21v3.242a1.792,1.792,0,0,0,.074.555,1.047,1.047,0,0,0,.2.372.731.731,0,0,0,.313.207,1.272,1.272,0,0,0,.4.06.981.981,0,0,0,.719-.27,1.283,1.283,0,0,0,.27-.924v-3.242h1.216v3.344a2.7,2.7,0,0,1-.135.87,1.783,1.783,0,0,1-.4.677,1.83,1.83,0,0,1-.689.437A2.891,2.891,0,0,1,1116.993,1349.836Z" transform="translate(-1100.9 -1344.23)" fill="#fff"/>
        <path id="Path_8208" data-name="Path 8208" d="M1124.212,1344.272a3.336,3.336,0,0,1,1.853.432,1.493,1.493,0,0,1,.643,1.338,1.517,1.517,0,0,1-.26.92,1.76,1.76,0,0,1-.75.553c.11.132.221.288.341.463s.239.353.353.541.229.385.338.589.21.406.3.6h-1.355c-.093-.176-.2-.355-.3-.536s-.2-.356-.313-.526-.21-.332-.317-.483a4.343,4.343,0,0,0-.309-.417h-.6v1.963h-1.206v-5.3a6.831,6.831,0,0,1,.814-.108C1123.738,1344.283,1123.992,1344.272,1124.212,1344.272Zm.068,1.033a2.245,2.245,0,0,0-.236.008l-.2.014v1.459h.345a2.029,2.029,0,0,0,.971-.172.613.613,0,0,0,.295-.58.6.6,0,0,0-.3-.564A1.85,1.85,0,0,0,1124.28,1345.305Z" transform="translate(-1102.778 -1344.21)" fill="#fff"/>
        <path id="Path_8209" data-name="Path 8209" d="M1133.7,1349.728c-.056-.187-.124-.379-.187-.576s-.144-.394-.207-.585h-2.1c-.068.192-.135.39-.2.586s-.131.388-.19.575h-1.254q.3-.869.575-1.607c.182-.488.353-.951.531-1.387s.342-.846.515-1.236.337-.771.523-1.146h1.146c.178.374.352.755.518,1.146s.349.8.519,1.236.357.9.538,1.387.369,1.028.575,1.607Zm-1.45-4.156c-.024.077-.068.183-.121.319s-.106.289-.174.465-.139.371-.224.581-.167.434-.249.667h1.533c-.078-.235-.16-.457-.238-.669s-.146-.409-.217-.585-.128-.328-.185-.461S1132.275,1345.648,1132.247,1345.572Z" transform="translate(-1104.437 -1344.23)" fill="#fff"/>
        <path id="Path_8210" data-name="Path 8210" d="M1141.733,1349.728c-.346-.616-.724-1.222-1.125-1.823a19.016,19.016,0,0,0-1.284-1.7v3.522h-1.2v-5.375h.985c.175.173.363.381.569.628s.417.513.633.8.427.573.64.88.412.591.594.87v-3.173h1.2v5.375Z" transform="translate(-1106.492 -1344.23)" fill="#fff"/>
        <path id="Path_8211" data-name="Path 8211" d="M1148.728,1349.8a2.618,2.618,0,0,1-2-.73,2.915,2.915,0,0,1-.682-2.071,3.036,3.036,0,0,1,.21-1.188,2.532,2.532,0,0,1,.573-.884,2.4,2.4,0,0,1,.867-.547,3.133,3.133,0,0,1,1.1-.186,3.767,3.767,0,0,1,.618.049,4.054,4.054,0,0,1,.489.119,2.444,2.444,0,0,1,.348.134c.1.047.16.083.206.108l-.353.981a2.716,2.716,0,0,0-.576-.226,2.765,2.765,0,0,0-.75-.092,1.659,1.659,0,0,0-.548.092,1.208,1.208,0,0,0-.47.3,1.423,1.423,0,0,0-.334.528,2.332,2.332,0,0,0-.125.791,2.72,2.72,0,0,0,.085.7,1.458,1.458,0,0,0,.26.553,1.27,1.27,0,0,0,.48.368,1.664,1.664,0,0,0,.711.135,3.758,3.758,0,0,0,.478-.03c.137-.024.263-.045.369-.074a2.861,2.861,0,0,0,.288-.095c.082-.039.156-.072.225-.1l.334.968a2.766,2.766,0,0,1-.722.278A4.156,4.156,0,0,1,1148.728,1349.8Z" transform="translate(-1108.392 -1344.191)" fill="#fff"/>
        <path id="Path_8212" data-name="Path 8212" d="M1153.471,1349.728v-5.375h3.631v1.017h-2.423v1.054h2.147v.993h-2.147v1.295h2.6v1.016Z" transform="translate(-1110.172 -1344.23)" fill="#fff"/>
      </g>
    </g>
    <g id="Group_1784" data-name="Group 1784" transform="translate(1030.561 1045.174)">
      <g id="Group_1771" data-name="Group 1771" transform="translate(0)">
        <path id="Path_8213" data-name="Path 8213" d="M1237.679,1723.5l-.736,7.895h-6.992l.479-9.267Z" transform="translate(-1167.84 -1544.637)" fill="#eae0b7"/>
        <path id="Path_8214" data-name="Path 8214" d="M1224.767,1736.938l3.421-5.292h8.863s.654,3.908-.892,6.557c-1.552,2.632-5.292,2.553-5.292,2.553Z" transform="translate(-1166.597 -1546.919)" fill="#444"/>
        <path id="Path_8215" data-name="Path 8215" d="M1229.282,1742.016s-.163-5.12-6.1-5.12-4.961,5.12-4.961,5.12Z" transform="translate(-1165.013 -1548.178)" fill="#444"/>
        <path id="Path_8216" data-name="Path 8216" d="M1283.87,1723.5l-.722,7.895h-7l.491-9.267Z" transform="translate(-1178.92 -1544.637)" fill="#eae0b7"/>
        <path id="Path_8217" data-name="Path 8217" d="M1270.972,1736.938l3.411-5.292h8.87s.65,3.908-.889,6.557c-1.544,2.632-5.3,2.553-5.3,2.553Z" transform="translate(-1177.679 -1546.919)" fill="#444"/>
        <path id="Path_8218" data-name="Path 8218" d="M1275.482,1742.016s-.164-5.12-6.095-5.12-4.962,5.12-4.962,5.12Z" transform="translate(-1176.094 -1548.178)" fill="#444"/>
        <path id="Path_8219" data-name="Path 8219" d="M1231.611,1604.741l-1.913,89.183s5.453,3.624,8.674,1.52,8.6-66.775,8.6-66.775l16.655,64.862s6.183,5.7,9.4,1.482c1.622-2.122-2.286-29.528-4.154-53.6-1.83-23.562-1.507-43.765-10.008-49.217C1252.555,1588.146,1231.611,1604.741,1231.611,1604.741Z" transform="translate(-1167.779 -1513.32)" fill="#3687e0"/>
        <path id="Path_8220" data-name="Path 8220" d="M1197.572,1533.516s-10.3,14.375-21.452,27.174c-8.355,9.58-18.213,18.6-18.942,18.3-2.347-.964-3.816-1.338-3.937-.354-.107.827,1.438,2.675,1.438,2.675s-7.818,5.868-6.221,7.839c1.074,1.331,5.345-4.007,7.024-2.61a4.629,4.629,0,0,0,5.907-.493c1.216-1.263,1.316-2.626,3.347-4.379,5.516-4.765,10.054-7.81,13.183-10.67,5.3-4.829,19.488-21.032,19.488-21.032Z" transform="translate(-1148.243 -1499.399)" fill="#eae0b7"/>
        <path id="Path_8221" data-name="Path 8221" d="M1206.533,1535.1s-9.932,9.036-10.918,13.208c-.875,3.684-.266,13.788,3.4,14.766,2.879.768,8.109-8.739,8.109-8.739Z" transform="translate(-1159.52 -1499.779)" fill="#ea4335"/>
        <path id="Path_8222" data-name="Path 8222" d="M1202.637,1532.684l-1.333-4.771,6.518-3.881,3.216,4.311S1212.275,1533.186,1202.637,1532.684Z" transform="translate(-1160.969 -1497.124)" fill="#eae0b7"/>
        <path id="Path_8223" data-name="Path 8223" d="M1243.715,1537.511a10.3,10.3,0,0,1-.31,1.231,16.177,16.177,0,0,1-2.318,4.442c-.381.547-.74.986-1.01,1.309-.309.373-.5.569-.5.569s-6.277-4.3-6.024-1.139c.122,1.5,13.656,21.915,14.648,20.677,3.535,5.541,5.95,10.825,4.6,13.909-2.557,5.775-11.5,12.82-18.465,15.519-2.81,1.084-5.317,1.463-6.934.768-5.615-2.432-17.9-27.475-21.059-34.2s-7.773-14.734-8.023-20.279c-.124-2.895,2.572-10.74,2.572-10.74a3.077,3.077,0,0,0,.391.157c6.554,2.545,7.46-5.345,7.46-5.345,9.233-8.02,29.906,1.553,33.926,7.467A7.29,7.29,0,0,1,1243.715,1537.511Z" transform="translate(-1160.252 -1496.474)" fill="#ea4335"/>
        <path id="Path_8224" data-name="Path 8224" d="M1244.634,1537.511a10.3,10.3,0,0,1-.31,1.231c-1.425-1.035-6.2-4.312-5.821-1.3.1.821,1.479,2.913,3.5,5.741-.381.547-.74.986-1.01,1.309-.309.373-.5.569-.5.569s-6.277-4.3-6.024-1.139c.122,1.5,13.656,21.915,14.648,20.677,3.535,5.541,5.95,10.825,4.6,13.909-2.557,5.775-11.5,12.82-18.465,15.519-.1-.05-.2-.089-.294-.138-5.894-3.016-19.852-31.645-23.456-39.319s-8.781-16.872-9.332-23.075a10.283,10.283,0,0,1,.029-1.762c6.554,2.545,7.46-5.345,7.46-5.345,9.233-8.02,29.906,1.553,33.926,7.467A7.29,7.29,0,0,1,1244.634,1537.511Z" transform="translate(-1161.171 -1496.474)" fill="#ea4335"/>
        <path id="Path_8225" data-name="Path 8225" d="M1201.706,1529.307l.249.74s2.877.291,4.078-.833a37.349,37.349,0,0,0,3.02-3.528l-.847-1.16Z" transform="translate(-1161.066 -1497.242)" fill="#dbcd93"/>
        <g id="Group_1770" data-name="Group 1770" transform="translate(21.131 6.714)">
          <path id="Path_8226" data-name="Path 8226" d="M1186.269,1505.988s-2.248,3.848-4.873,3.473-5.354-3.979-5.354-3.979a4.78,4.78,0,0,0,2.666-.3s-.9.766-2.271-1.2,3.563.842,5.242.332c0,0-2.8-.489-3.225-1.744s1.937.211,2.819-.3,1.487-2.447,5.307-3.882,8.649,2.683,10-.154,2.927,2.865,3.72,4.768,6,10.7,1.676,10.929-9.489-6.218-9.489-6.218Z" transform="translate(-1176.041 -1497.467)" fill="#213347"/>
        </g>
        <path id="Path_8227" data-name="Path 8227" d="M1198.65,1524.841s-4.339,2.841-8.147-3.144-7.291-8.2-7.611-11.169c-.306-2.971,2.8-4.942,7.775-5.473s8.258.24,8.707,2.654c0,0,5.209-.354,2.745,4.389,0,0,4.027,7.433,1.01,10.132S1198.65,1524.841,1198.65,1524.841Z" transform="translate(-1156.548 -1492.534)" fill="#eae0b7"/>
        <path id="Path_8228" data-name="Path 8228" d="M1202.143,1512.438c5.157-18.4-5.542-23.293-8.518-23.677-6.885-.888-11.191,3.033-13.766,7.068-4.125,2.138-3.673,6.911-3.329,7.766.448,1.108,3.9,2.011,3.9,2.011s1.4,2.052,4.218.012,2.279-1.82,5.551-2.882,5.367,2.917,6.967,5.333-1.077-2.8.964-4.072c1.17-.721.75-1.584.185-2.2,4.955,2.608,3.892,6.936,3.892,6.936Z" transform="translate(-1154.976 -1488.634)" fill="#213347"/>
      </g>
      <g id="Group_1782" data-name="Group 1782" transform="translate(53.234 59.42)">
        <g id="Group_1774" data-name="Group 1774">
          <g id="Group_1772" data-name="Group 1772">
            <path id="Path_8229" data-name="Path 8229" d="M1234.366,1566.8l16.647,21.089-15.089,11.929-17.651-22.349,10.4-8.219Z" transform="translate(-1218.273 -1566.803)" fill="#fff"/>
          </g>
          <g id="Group_1773" data-name="Group 1773" transform="translate(10.039)">
            <path id="Path_8230" data-name="Path 8230" d="M1237.534,1566.8l.1.128-.754,2.941-5.4-.335.363-.284Z" transform="translate(-1231.48 -1566.803)" fill="#fff"/>
            <path id="Path_8231" data-name="Path 8231" d="M1232.211,1569.464l4.694.288.669-2.6Z" transform="translate(-1231.655 -1566.886)" fill="url(#linear-gradient-3)"/>
          </g>
        </g>
        <g id="Group_1781" data-name="Group 1781" transform="translate(2.977 5.506)">
          <g id="Group_1775" data-name="Group 1775" transform="translate(0 2.795)">
            <path id="Path_8232" data-name="Path 8232" d="M1225.642,1578.006l-3.193,2.526a.161.161,0,0,1-.225-.026h0a.165.165,0,0,1,.025-.227l3.2-2.524a.163.163,0,0,1,.224.027h0A.159.159,0,0,1,1225.642,1578.006Z" transform="translate(-1222.19 -1577.722)" fill="#595a5c"/>
            <path id="Path_8233" data-name="Path 8233" d="M1226.435,1579.007l-3.2,2.517a.164.164,0,0,1-.22-.021h0a.167.167,0,0,1,.025-.229l3.2-2.524a.156.156,0,0,1,.224.027h0A.175.175,0,0,1,1226.435,1579.007Z" transform="translate(-1222.378 -1577.96)" fill="#595a5c"/>
            <path id="Path_8234" data-name="Path 8234" d="M1227.213,1579.994l-3.2,2.521a.161.161,0,0,1-.224-.021h0a.167.167,0,0,1,.024-.229l3.2-2.528a.161.161,0,0,1,.224.033h0A.158.158,0,0,1,1227.213,1579.994Z" transform="translate(-1222.566 -1578.198)" fill="#595a5c"/>
          </g>
          <g id="Group_1776" data-name="Group 1776" transform="translate(21.01 13.291)">
            <path id="Path_8235" data-name="Path 8235" d="M1253.289,1591.818l-3.2,2.518a.16.16,0,0,1-.224-.021h0a.161.161,0,0,1,.032-.228l3.2-2.517a.164.164,0,0,1,.23.02h0A.186.186,0,0,1,1253.289,1591.818Z" transform="translate(-1249.829 -1591.531)" fill="#595a5c"/>
            <path id="Path_8236" data-name="Path 8236" d="M1254.074,1592.808l-3.2,2.522a.157.157,0,0,1-.224-.025h0a.16.16,0,0,1,.025-.23l3.2-2.519a.15.15,0,0,1,.22.026h0A.163.163,0,0,1,1254.074,1592.808Z" transform="translate(-1250.017 -1591.768)" fill="#595a5c"/>
            <path id="Path_8237" data-name="Path 8237" d="M1254.852,1593.8l-3.193,2.521a.146.146,0,0,1-.217-.024h0a.158.158,0,0,1,.017-.224l3.2-2.521a.15.15,0,0,1,.225.028h0A.15.15,0,0,1,1254.852,1593.8Z" transform="translate(-1250.206 -1592.007)" fill="#595a5c"/>
          </g>
          <g id="Group_1777" data-name="Group 1777" transform="translate(2.682)">
            <path id="Path_8238" data-name="Path 8238" d="M1237.012,1574.337l-11.029,8.713a.178.178,0,0,1-.231-.026h0a.165.165,0,0,1,.029-.231l11.024-8.713a.165.165,0,0,1,.232.03h0A.171.171,0,0,1,1237.012,1574.337Z" transform="translate(-1225.717 -1574.046)" fill="#595a5c"/>
            <path id="Path_8239" data-name="Path 8239" d="M1237.793,1575.331l-11.032,8.713a.164.164,0,0,1-.23-.033h0a.174.174,0,0,1,.029-.224l11.034-8.705a.163.163,0,0,1,.228.021h0A.16.16,0,0,1,1237.793,1575.331Z" transform="translate(-1225.906 -1574.286)" fill="#595a5c"/>
            <path id="Path_8240" data-name="Path 8240" d="M1238.58,1576.322l-11.032,8.714a.157.157,0,0,1-.224-.029h0a.159.159,0,0,1,.024-.22l11.033-8.718a.161.161,0,0,1,.224.025h0A.165.165,0,0,1,1238.58,1576.322Z" transform="translate(-1226.095 -1574.523)" fill="#595a5c"/>
          </g>
          <g id="Group_1778" data-name="Group 1778" transform="translate(5.084 3.04)">
            <path id="Path_8241" data-name="Path 8241" d="M1240.167,1578.333l-11.028,8.706a.16.16,0,0,1-.228-.024h0a.159.159,0,0,1,.029-.224l11.028-8.714a.166.166,0,0,1,.227.027h0A.172.172,0,0,1,1240.167,1578.333Z" transform="translate(-1228.877 -1578.045)" fill="#595a5c"/>
            <path id="Path_8242" data-name="Path 8242" d="M1240.953,1579.325l-11.032,8.707a.155.155,0,0,1-.224-.021h0a.167.167,0,0,1,.025-.228l11.032-8.713a.169.169,0,0,1,.227.032h0A.173.173,0,0,1,1240.953,1579.325Z" transform="translate(-1229.066 -1578.283)" fill="#595a5c"/>
            <path id="Path_8243" data-name="Path 8243" d="M1241.735,1580.313l-11.032,8.718a.154.154,0,0,1-.217-.026h0a.162.162,0,0,1,.017-.224l11.029-8.72a.167.167,0,0,1,.228.027h0A.166.166,0,0,1,1241.735,1580.313Z" transform="translate(-1229.254 -1578.521)" fill="#595a5c"/>
          </g>
          <g id="Group_1779" data-name="Group 1779" transform="translate(7.477 6.075)">
            <path id="Path_8244" data-name="Path 8244" d="M1243.323,1582.324l-11.031,8.71a.172.172,0,0,1-.233-.021h0a.163.163,0,0,1,.036-.23l11.029-8.711a.156.156,0,0,1,.221.028h0A.156.156,0,0,1,1243.323,1582.324Z" transform="translate(-1232.026 -1582.037)" fill="#595a5c"/>
            <path id="Path_8245" data-name="Path 8245" d="M1244.1,1583.319l-11.028,8.711a.172.172,0,0,1-.231-.025h0a.168.168,0,0,1,.028-.229l11.028-8.713a.159.159,0,0,1,.225.029h0A.161.161,0,0,1,1244.1,1583.319Z" transform="translate(-1232.215 -1582.275)" fill="#595a5c"/>
            <path id="Path_8246" data-name="Path 8246" d="M1244.884,1584.312l-11.024,8.709a.169.169,0,0,1-.228-.024h0a.163.163,0,0,1,.033-.227l11.025-8.714a.158.158,0,0,1,.224.029h0A.16.16,0,0,1,1244.884,1584.312Z" transform="translate(-1232.403 -1582.513)" fill="#595a5c"/>
          </g>
          <g id="Group_1780" data-name="Group 1780" transform="translate(9.88 9.114)">
            <path id="Path_8247" data-name="Path 8247" d="M1246.474,1586.324l-11.025,8.705a.164.164,0,0,1-.227-.02h0a.161.161,0,0,1,.025-.228l11.032-8.714a.166.166,0,0,1,.226.029h0A.169.169,0,0,1,1246.474,1586.324Z" transform="translate(-1235.187 -1586.036)" fill="#595a5c"/>
            <path id="Path_8248" data-name="Path 8248" d="M1247.264,1587.308l-11.031,8.712a.161.161,0,0,1-.224-.021h0a.16.16,0,0,1,.029-.228l11.021-8.714a.156.156,0,0,1,.223.029h0A.158.158,0,0,1,1247.264,1587.308Z" transform="translate(-1235.375 -1586.273)" fill="#595a5c"/>
            <path id="Path_8249" data-name="Path 8249" d="M1248.041,1588.3l-11.031,8.709a.154.154,0,0,1-.217-.021h0a.163.163,0,0,1,.022-.228l11.036-8.705a.145.145,0,0,1,.22.021h0A.156.156,0,0,1,1248.041,1588.3Z" transform="translate(-1235.563 -1586.511)" fill="#595a5c"/>
          </g>
        </g>
        <path id="Path_8250" data-name="Path 8250" d="M1249.549,1593.279a2.035,2.035,0,1,1-2.855-.337A2.023,2.023,0,0,1,1249.549,1593.279Z" transform="translate(-1224.903 -1572.966)" fill="#595a5c"/>
      </g>
      <path id="Path_8251" data-name="Path 8251" d="M1267.046,1556.331c1.358,3.555-2.978,10.03-6.228,14.063-1,1.244-1.9,2.247-2.5,2.883-2.589,2.711-4.148-2.435-4.148-2.435s1.142-3.4,2.245-6.793c.889-2.71,1.749-5.428,1.963-6.381.338-1.482-3.336-5.2-5.686-7.381a16.334,16.334,0,0,0,3.641-6.979C1259.748,1546.722,1265.787,1553.042,1267.046,1556.331Z" transform="translate(-1173.294 -1501.747)" fill="#eae0b7"/>
      <g id="Group_1783" data-name="Group 1783" transform="translate(70.246 68.593)">
        <path id="Path_8252" data-name="Path 8252" d="M1245.21,1582.563a3.373,3.373,0,0,1-3.315-.042.5.5,0,0,1,.171-.908c.726-.16,1.23-1.3,3.123-1.256a15.138,15.138,0,0,0,6.771-1.489l2.511,2.92s-1.07,4.306-2.87,5.856c-1.7,1.456-5.3,5.865-10.3,4.243a.933.933,0,0,1-.569-1.263c.683-1.532,2.144-4.637,3.55-6.084a10.289,10.289,0,0,0,1.293-1.587A.28.28,0,0,0,1245.21,1582.563Z" transform="translate(-1240.653 -1578.869)" fill="#ffdcb0"/>
      </g>
    </g>
    <g id="Group_1786" data-name="Group 1786" transform="translate(866.094 1054.952)">
      <g id="Group_1785" data-name="Group 1785">
        <path id="Path_8253" data-name="Path 8253" d="M963.294,1542.412l2.17-1.2a16.218,16.218,0,0,1,10.5-.3l-.49,6.873-4.78,3.287-6.5-1.494Z" transform="translate(-939.417 -1510.786)" fill="#fdd0cd"/>
        <path id="Path_8254" data-name="Path 8254" d="M970.625,1501.543s-10.235-1.57-13.3,13.9,3.137,16.289,3.137,16.289l20.321.572s4.784-7.737,2.613-15.4S984.52,1503.41,970.625,1501.543Z" transform="translate(-937.782 -1501.498)" fill="#213347"/>
        <path id="Path_8255" data-name="Path 8255" d="M963.884,1548.211s6.612,6.837,12.219,0l-2.244,31.271h-7.735Z" transform="translate(-939.558 -1512.702)" fill="#1a8dff"/>
        <path id="Path_8256" data-name="Path 8256" d="M968.6,1533.129v7.791h6.33l.563-7Z" transform="translate(-940.69 -1509.085)" fill="#fdd0cd"/>
        <path id="Path_8257" data-name="Path 8257" d="M972.051,1536.353a3.516,3.516,0,0,0,3.408-1.955l-6.854-1.269S969.565,1536.688,972.051,1536.353Z" transform="translate(-940.69 -1509.085)" fill="#003a76" opacity="0.1"/>
        <path id="Path_8258" data-name="Path 8258" d="M978.27,1515.972c-.9-.785-1.515-2.911-2.131-4.592s-4.54-1.4-4.54-1.4-3.919-.279-4.534,1.4-1.234,3.807-2.131,4.592-2.859.563-2.749,2.188a2.271,2.271,0,0,0,1.8,1.96v3.808s2.987,5.315,7.351,5.478v.015c.043,0,.089-.006.132-.006s.092.006.131.006v-.015c4.374-.163,7.624-5.478,7.624-5.478v-3.808a2.262,2.262,0,0,0,1.793-1.96C981.13,1516.534,979.162,1516.756,978.27,1515.972Z" transform="translate(-939.149 -1503.527)" fill="#fdd0cd"/>
        <path id="Path_8259" data-name="Path 8259" d="M968.6,1508.346s7.319,6.649,11.206,6.8c0,0,2.727.86,2.746,2.188s-1.921,2.22-1.921,2.22,2.236,1.722,3.286-1.718S979.284,1501.844,968.6,1508.346Z" transform="translate(-940.69 -1502.699)" fill="#213347"/>
        <path id="Path_8260" data-name="Path 8260" d="M940.771,1712.557q-1.311,1.894-2.62,3.8c-.641.929-1.469,1.968-2.661,2.007a3.515,3.515,0,0,0-1.032.058c-.724.268-.711,1.2-.562,1.916.754,3.631,1.64,7.507,4.5,10.071a2.21,2.21,0,0,0,1.817.734c.68-.14,1.018-1.164.374-1.406a.644.644,0,0,1,.761.106c.708-.4.648-1.362.434-2.1-.445-1.358-1.191-2.608-1.648-3.951a4.882,4.882,0,0,1,.165-4.118,16.931,16.931,0,0,1,2.546-2.473c.812-.845,1.334-2.2.577-3.106-.74-.881-2.191-.778-3.38-.58" transform="translate(-932.346 -1552.119)" fill="#eae0b7"/>
        <path id="Path_8261" data-name="Path 8261" d="M939.764,1722.014l-2.547-3.632s-4.5,1.591-5.278,2.956c-.554.966,3.062,7.482,4.919,10.915.764,1.416,7,.773,7,.773s.192.192,1.105-1.088-4.058-2.088-4.62-5.615C940,1724.087,939.764,1722.014,939.764,1722.014Z" transform="translate(-931.883 -1553.516)" fill="#444"/>
        <path id="Path_8262" data-name="Path 8262" d="M983.67,1717.9v4.515c0,1.1-.1,2.387-1.078,3.022a3.151,3.151,0,0,0-.851.555c-.451.588.111,1.377.648,1.906,2.739,2.68,5.722,5.507,9.624,6.237a2.294,2.294,0,0,0,1.959-.3c.487-.45.175-1.481-.515-1.37a.646.646,0,0,1,.712-.3c.367-.68-.234-1.467-.864-1.977-1.134-.925-2.5-1.6-3.656-2.506a5.147,5.147,0,0,1-2.248-3.553,15.846,15.846,0,0,1,.7-3.355c.2-1.126-.142-2.531-1.3-2.907s-2.3.438-3.183,1.194" transform="translate(-943.802 -1553.372)" fill="#eae0b7"/>
        <path id="Path_8263" data-name="Path 8263" d="M972.274,1611.265c-.778,9.2-4.94,17.824-6.879,26.871-.857,4.021-1.28,8.115-2.137,12.13-1.952,9.147-6.12,17.722-10.264,26.2-1.743,3.578-3.585,7.269-6.693,9.889-1.2,1.01-3.126,1.809-4.3.769a2.85,2.85,0,0,1-.686-2.473c.385-3.741,3.215-6.783,4.88-10.194,2.28-4.631,2.389-9.911,2.514-15.02.328-13.9-2.326-26.994-1.377-40.871.285-4.236-1.316-12.4.733-16.173s2.675-12.554,7.113-12.051c2.539.288,8.607-1.693,11.146-1.826,8.67-.457,6.939,9.353,11.167,7.669,1.136,14.825,6.992,34.942,5.758,49.75-.281,3.4-.572,6.793-.857,10.2q-1.213,14.461-2.429,28.926c-.21,2.494-1.124,5.678-3.756,5.8-2.45.113-3.783-2.668-4.246-4.96-1.981-9.795-.537-19.866.111-29.812.632-9.959-.157-14.483-4.67-29.172" transform="translate(-934.138 -1522.365)" fill="#ea4335"/>
        <path id="Path_8264" data-name="Path 8264" d="M988.091,1726.1l-5.355-.736s-1.849,2.692-1.726,4.228c.085,1.092,6.205,4.631,9.752,6.6,1.465.806,3.884.031,3.884.031s.28.072.3-1.472c.046-1.542-2.575-4.177-4.677-5.3A4.166,4.166,0,0,1,988.091,1726.1Z" transform="translate(-943.664 -1555.192)" fill="#444"/>
        <path id="Path_8265" data-name="Path 8265" d="M961.669,1541.31l4.182,48.713-18.379-1.8s6.124-8.815,3.884-24.951,1.2-20.324,1.2-20.324S958.978,1539.068,961.669,1541.31Z" transform="translate(-935.622 -1510.88)" fill="#fbbc05"/>
        <path id="Path_8266" data-name="Path 8266" d="M978.544,1540.544s-5.459,42.984-4.108,48.139c0,0,14.339-1.122,15.314-.6,0,0-3.439-4.258-2.693-11.583s1.494-14.568,1.646-17.181,1.483-13.246-1.4-16.675C985.8,1540.861,981.382,1539.848,978.544,1540.544Z" transform="translate(-942.038 -1510.81)" fill="#fbbc05"/>
      </g>
    </g>
    <g id="Group_1787" data-name="Group 1787" transform="translate(877.051 1086.786)">
      <path id="Path_8267" data-name="Path 8267" d="M1020.124,1571.768l6.465-3.367s1.708-2.632,2.651-2.461-.036,2.013-.036,2.013-.068,1.111.754.669c.8-.434,5.6-3.22,5.242-1.537s-3.443,2.61-3.443,2.61,7.195-.877,5.5.74-5.544,1.13-5.544,1.13,5.035.179,5.573,1.871-5.579-.355-5.579-.355,4.727,2.091,3.386,2.258a21.277,21.277,0,0,1-4.8-.623l-8.685.623Z" transform="translate(-964.004 -1548.786)" fill="#f3dfc3"/>
      <path id="Path_8268" data-name="Path 8268" d="M1003.478,1564.662s5.881,5.008,0,6.967-23.947,4.354-23.947,4.354-30.038-14.8-32.865-25.689,11.32-7.4,17.416,0,13.269,16.764,21.328,16.764S1003.478,1564.662,1003.478,1564.662Z" transform="translate(-946.297 -1543.376)" fill="#fbbc05"/>
    </g>
  </g>
</svg>
