<svg xmlns="http://www.w3.org/2000/svg" xmlns:xlink="http://www.w3.org/1999/xlink" width="548.827" height="427.983" viewBox="0 0 548.827 427.983">
  <defs>
    <linearGradient id="linear-gradient" y1="0.5" x2="1" y2="0.5" gradientUnits="objectBoundingBox">
      <stop offset="0" stop-color="#eff6ff"/>
      <stop offset="1" stop-color="#c4d8fb"/>
    </linearGradient>
    <linearGradient id="linear-gradient-2" y1="0.5" x2="1" y2="0.5" gradientUnits="objectBoundingBox">
      <stop offset="0" stop-color="#0e62ef"/>
      <stop offset="0.38" stop-color="#2b74ee"/>
      <stop offset="1" stop-color="#4285f4"/>
    </linearGradient>
    <linearGradient id="linear-gradient-3" y1="0.5" x2="1" y2="0.5" gradientUnits="objectBoundingBox">
      <stop offset="0" stop-color="#035ff8"/>
      <stop offset="1" stop-color="#4285f4"/>
    </linearGradient>
    <clipPath id="clip-path">
      <path id="SVGID" d="M123.194,155.111l7.223-38.593-23.782-12.861L99.412,142.25Z" transform="translate(-99.412 -103.657)" fill="none"/>
    </clipPath>
  </defs>
  <g id="Group_6304" data-name="Group 6304" transform="translate(-195.768 -1764)">
    <path id="Path_14647" data-name="Path 14647" d="M362.692,191.3c-90.025,0-205.124,7.085-205.124,15.828,0,5.863,32.84,10.983,81.637,13.719-66.953,2.831-111.137,7.7-111.137,13.22,0,6.258,56.674,11.669,138.92,14.236-4.07,1.386-6.251,2.846-6.251,4.359,0,8.74,72.979,15.828,163,15.828,154.434,0,253.153-25.4,253.153-42.837C676.895,204.013,606.653,191.3,362.692,191.3Z" transform="translate(67.7 1923.493)" fill="url(#linear-gradient)"/>
    <g id="Group_6303" data-name="Group 6303" transform="translate(-1271.101 821)">
      <g id="Group_5761" data-name="Group 5761" transform="translate(-9566 1668)">
        <path id="Rectangle_1012" data-name="Rectangle 1012" d="M20.4,0H155.032a20.661,20.661,0,0,1,20.4,20.907V342.156a20.661,20.661,0,0,1-20.4,20.907H20.4A20.661,20.661,0,0,1,0,342.155V20.907A20.661,20.661,0,0,1,20.4,0Z" transform="translate(11237.306 -725)" fill="#213458"/>
        <path id="Path_11118" data-name="Path 11118" d="M17.915,0H155.743a17.916,17.916,0,0,1,17.916,17.916V340.908a17.915,17.915,0,0,1-17.915,17.915H17.915A17.915,17.915,0,0,1,0,340.908V17.915A17.915,17.915,0,0,1,17.915,0Z" transform="translate(11235.101 -720.761)" fill="#4285f4" stroke="#34a853" stroke-width="0.2"/>
        <path id="Path_11117" data-name="Path 11117" d="M1.568,0h152.76A1.568,1.568,0,0,1,155.9,1.568v279.8a1.568,1.568,0,0,1-1.568,1.568H1.568A1.568,1.568,0,0,1,0,281.363V1.568A1.568,1.568,0,0,1,1.568,0Z" transform="translate(11244.164 -684.558)" fill="#fff" stroke="#d5d5d5" stroke-width="0.2"/>
        <path id="Path_7953" data-name="Path 7953" d="M9.982,3.847A1.923,1.923,0,1,1,9.982,0H45.609a1.923,1.923,0,1,1,0,3.847ZM3.563,0a1.923,1.923,0,1,1,0,3.847H1.924A1.923,1.923,0,1,1,1.924,0Z" transform="translate(11298.163 -701.845)" fill="#fff" fill-rule="evenodd"/>
        <path id="Path_7954" data-name="Path 7954" d="M12.585,25.169A12.584,12.584,0,1,0,0,12.585,12.584,12.584,0,0,0,12.585,25.169Z" transform="translate(11309.346 -395.083)" fill="#fff" fill-rule="evenodd"/>
        <g id="Group_1705" data-name="Group 1705" transform="translate(11253.931 -677.197)">
          <path id="Path_7967" data-name="Path 7967" d="M.465.936A.468.468,0,1,1,.465,0H10.7a.468.468,0,0,1,0,.936Zm0,6.722a.466.466,0,0,1,0-.932H10.7a.466.466,0,0,1,0,.932Zm0-3.361a.468.468,0,1,1,0-.936H10.7a.468.468,0,0,1,0,.936Z" transform="translate(0.003 0)" fill="#4285f4" fill-rule="evenodd"/>
          <path id="Path_7968" data-name="Path 7968" d="M13.725.418ZM1.419.932H7.428V5.769H1.419a.471.471,0,0,1-.341-.142.479.479,0,0,1-.147-.341V1.419A.488.488,0,0,1,1.419.932ZM12.722,0H1.419A1.424,1.424,0,0,0,0,1.419V5.286A1.424,1.424,0,0,0,1.419,6.7h11.3a1.416,1.416,0,0,0,.971-.388l.032-.029a1.419,1.419,0,0,0,.416-1V1.419A1.422,1.422,0,0,0,12.722,0Z" transform="translate(121.857 0.477)" fill="#4285f4" fill-rule="evenodd"/>
        </g>
      </g>
    </g>
    <g id="presentation" transform="translate(414.157 1829.478)">
      <rect id="Rectangle_1108" data-name="Rectangle 1108" width="130.281" height="100.784" transform="translate(6.48 14.749)" fill="#f1f3f4"/>
      <path id="Path_11310" data-name="Path 11310" d="M14.946,43.767a2.394,2.394,0,0,1-1.694-4.088l6.926-6.923a2.394,2.394,0,0,1,3.386,3.386l-6.922,6.923a2.378,2.378,0,0,1-1.7.7Z" transform="translate(17.512 43.758)" fill="#bab0b0"/>
      <path id="Path_11311" data-name="Path 11311" d="M29.875,43.767a2.388,2.388,0,0,1-1.694-.7l-6.926-6.923a2.394,2.394,0,0,1,3.386-3.386l6.926,6.923a2.394,2.394,0,0,1-1.694,4.088Z" transform="translate(28.67 43.758)" fill="#bab0b0"/>
      <path id="Path_11312" data-name="Path 11312" d="M29.516,51.779a2.394,2.394,0,0,1-1.694-4.088L47.76,27.757a2.394,2.394,0,1,1,3.386,3.386L31.209,51.077A2.388,2.388,0,0,1,29.516,51.779Z" transform="translate(37.83 36.785)" fill="#bab0b0"/>
      <path id="Path_11313" data-name="Path 11313" d="M57.059,45.951a2.388,2.388,0,0,1-1.694-.7L41.256,31.142a2.394,2.394,0,1,1,3.386-3.386l14.11,14.1a2.394,2.394,0,0,1-1.694,4.088Z" transform="translate(56.566 36.784)" fill="#bab0b0"/>
      <rect id="Rectangle_1109" data-name="Rectangle 1109" width="138.885" height="14.749" transform="translate(1.563 0)" fill="#707070"/>
      <path id="Path_11314" data-name="Path 11314" d="M35.737,21.293H9.395a2.4,2.4,0,0,1,0-4.793H35.737a2.4,2.4,0,0,1,0,4.793Z" transform="translate(9.765 22.063)" fill="#bab0b0"/>
      <path id="Path_11315" data-name="Path 11315" d="M21.37,17.293H9.395a2.4,2.4,0,0,1,0-4.793H21.368a2.4,2.4,0,0,1,0,4.793Z" transform="translate(9.765 16.484)" fill="#bab0b0"/>
      <path id="Path_11316" data-name="Path 11316" d="M35.737,25.293H9.395a2.4,2.4,0,0,1,0-4.793H35.737a2.4,2.4,0,0,1,0,4.793Z" transform="translate(9.765 27.643)" fill="#bab0b0"/>
      <circle id="Ellipse_410" data-name="Ellipse 410" cx="7.374" cy="7.374" r="7.374" transform="translate(38.435 66.37)" fill="#34a853"/>
      <circle id="Ellipse_411" data-name="Ellipse 411" cx="7.374" cy="7.374" r="7.374" transform="translate(86.369 55.308)" fill="#34a853"/>
      <circle id="Ellipse_412" data-name="Ellipse 412" cx="7.374" cy="7.374" r="7.374" transform="translate(109.721 79.889)" fill="#fbbc05"/>
      <ellipse id="Ellipse_413" data-name="Ellipse 413" cx="6.76" cy="7.374" rx="6.76" ry="7.374" transform="translate(55.642 84.806)" fill="#fbbc05"/>
      <circle id="Ellipse_414" data-name="Ellipse 414" cx="7.374" cy="7.374" r="7.374" transform="translate(21.228 84.806)" fill="#fbbc05"/>
      <path id="Path_11317" data-name="Path 11317" d="M141.292,52.293H2.395a2.4,2.4,0,0,1,0-4.793h138.9a2.4,2.4,0,0,1,0,4.793Z" transform="translate(0.002 65.301)" fill="#707070"/>
      <path id="Path_11318" data-name="Path 11318" d="M31.394,59.474A2.394,2.394,0,0,1,29,57.08V49.895a2.4,2.4,0,1,1,4.793,0v7.184a2.394,2.394,0,0,1-2.4,2.4Z" transform="translate(40.451 65.301)" fill="#707070"/>
      <path id="Path_11319" data-name="Path 11319" d="M35.579,70.659a9.579,9.579,0,1,1,9.579-9.579A9.579,9.579,0,0,1,35.579,70.659Zm0-14.369a4.793,4.793,0,1,0,4.793,4.793,4.793,4.793,0,0,0-4.793-4.793Z" transform="translate(36.267 70.881)" fill="#707070"/>
    </g>
    <g id="Group_4908" data-name="Group 4908" transform="translate(343.203 1840.685)">
      <path id="Path_1382" data-name="Path 1382" d="M629.657,838.974a10.305,10.305,0,0,0-2.469,5.586c-.188,2.387-.8,8.18-.369,8.7s6.836,1.229,7.071.949-.123-1.767.66-1.508,5.08,2.48,8.35,2.64,14.143.276,15.592-.194,5.634-1.974,5.634-2.522-1.067-3.424-3.073-3.583-5.633-.042-7.172-1.067-7.95-9.057-9.175-9.369S629.657,838.974,629.657,838.974Z" transform="translate(-618.116 -612.56)" fill="url(#linear-gradient-2)"/>
      <path id="Path_1383" data-name="Path 1383" d="M631.428,647.5c-.725,9.069,1.361,49.753,1.862,53.761s-3.63,45.174-3.63,48.433-.342,10.984,1.332,14.1c.949,1.767,7.6-3.618,10.831-3.336s5.3.359,5.457-1.362-2.729-18.6-1.291-22.186,8.2-29.553,9.057-40.489,7.252-43.607,7.931-48.145S631.428,647.5,631.428,647.5Z" transform="translate(-619.331 -533.504)" fill="#246ce4"/>
      <path id="Path_1384" data-name="Path 1384" d="M620.628,847.554a10.223,10.223,0,0,0-2.458,5.586c-.194,2.358-.8,8.174-.369,8.7s6.836,1.229,7.071.949-.123-1.768.666-1.508,5.08,2.48,8.344,2.64,14.143.277,15.592-.2,5.634-1.967,5.634-2.516-1.061-3.429-3.073-3.583-5.634-.042-7.166-1.067-7.956-9.057-9.175-9.369S620.628,847.554,620.628,847.554Z" transform="translate(-614.406 -616.083)" fill="url(#linear-gradient-3)"/>
      <path id="Path_1385" data-name="Path 1385" d="M622.4,656.074c-.725,9.069,1.362,49.753,1.862,53.761s-3.625,45.174-3.625,48.425-.348,10.99,1.326,14.107c.955,1.767,7.6-3.625,10.831-3.336s5.3.359,5.463-1.362-2.735-18.6-1.3-22.192,8.2-29.547,9.057-40.484,7.252-43.607,7.931-48.15S622.4,656.074,622.4,656.074Z" transform="translate(-615.625 -537.023)" fill="#246ce4"/>
      <path id="Path_1386" data-name="Path 1386" d="M704.57,573.111c.825-.536,3.907-3.536,4.938-4.272s4.793-4.072,5.179-4.455,1.278-.9,1.767-.289-.483,3.205-2.081,4.2-2.882,2.239-2.469,2.882a5.665,5.665,0,0,0,5.7,1.538c3.135-.737,7.207-2.18,7.743-2.275s1.892-.418,2.357.542,1.438.1,1.7,1.025-6.535,4.125-8.481,5-9.795,4.8-11.621,4.991S704.57,573.111,704.57,573.111Z" transform="translate(-650.109 -499.734)" fill="#f2bd9c"/>
      <path id="Path_1387" data-name="Path 1387" d="M651.092,461.877c1.508,1.261,6.268,6.324,5.786,7.165s-1.143,2.652-.418,3.319,4.125,4.4,3.612,5.238-2.41.3-2.652,1.208.9,6.145,0,7.471-6.391,3.37-7.172,4.036-2.168,5.777-2.652,5.12-4.82-5.362-6.807-6.447-5.6-2.051-5.662-2.593,0-5.963-1.267-7.714-4.715-5.777-3.441-10.607,3.918-8.074,10.967-8.5S651.092,461.877,651.092,461.877Z" transform="translate(-619.542 -456.904)" fill="#f2bd9c"/>
      <path id="Path_1388" data-name="Path 1388" d="M628.987,459.849c5.4-4.319,13.671-6.229,17.822-3.536s3.983,5.628.436,6.235-6.317,1.556-6.406,3.459,3.636,2.95,3.81,3.636-2.069,4.4-1.126,5.422a17.034,17.034,0,0,1,2.723,4.608c.147,1-.506,2.7.289,2.669s2.593-1.8,4.289-1.438,3.606,3.312,4,3.17-.972-1.8.253-2.2,2.846,3.353,2.2,4.65-2.95,4.974-6.417,3.748-7.437-3.783-7.937-4.9a5.008,5.008,0,0,1,.283-3.854c.589-1.084.548-4.761-.89-6.023s-3.429-2.022-4.831-1.475-2.089,1.533-1.385,3.406,2.275,2.357,1.874,2.811a21,21,0,0,1-3.494,2.994c-1.12.59-2.887.59-3.176.071s-.213-2.95-1.656-4.466-4.637-4.407-4.85-8.934a12.057,12.057,0,0,1,4.191-10.05Z" transform="translate(-617.333 -455.07)" fill="#707070"/>
      <path id="Path_1389" data-name="Path 1389" d="M628.022,504.643c-.843-.165-2.387-.637-2.416-.123a35.985,35.985,0,0,1-2.212,6.547c-.66,1.008-9.688,9.647-11,18.386s3.2,31.856,3.665,38.433-.472,24.72-.56,28.2,5.539.66,9.487.66,26.365,3.659,28.244,2.528,3.943-4.226,2.817-10.99-6.582-37.487-6.695-40.436-4.367-19.328-4.8-20.307-.492-4.909-1.179-6.748-2.722-8.112-4.056-9.375S633.513,505.715,628.022,504.643Z" transform="translate(-612.153 -475.285)" fill="#ea4335"/>
      <path id="Path_1390" data-name="Path 1390" d="M627.03,526.492c-5.438.194-9.069,8.928-8.249,15.609s10.548,37.048,15.817,38.3,34.449-8.367,35.787-9.069,4.9-2.187,4.715-3.146-2.722-8.291-3.6-9.428-1.426-2.05-2.64-1.55-24.3,10.636-26.447,7.9-3.642-14.011-3.088-18.769S640.737,526,627.03,526.492Z" transform="translate(-614.826 -484.4)" fill="#f65245"/>
    </g>
    <g id="Group_4907" data-name="Group 4907" transform="translate(353.037 1994.242)">
      <g id="Group_4906" data-name="Group 4906" transform="translate(0 0)">
        <path id="Path_11309" data-name="Path 11309" d="M59.106.056H207.59l58.369,59.38H0Z" transform="translate(0 -0.056)" fill="#bab0b0"/>
        <rect id="Rectangle_1110" data-name="Rectangle 1110" width="265.479" height="8.603" transform="translate(0 58.926)" fill="#707070"/>
      </g>
    </g>
    <path id="Path_12646" data-name="Path 12646" d="M163.24,122.217l-17.453-11.5c-3.4-1.738-5.262.423-5.531,1.362l-2.014,20.3c-.912,2.468-.607,3.262.449,4.056,8.252,6.245,16.989,12.674,24.27,16,.917.418,2.269.037,2.8-2.7,0,0,.361-17,1.116-20.872C167.663,124.949,165.968,124.032,163.24,122.217Zm.685,5.124-1.19,19.88a1.1,1.1,0,0,1-1.678.658l-18.829-12.669a1.093,1.093,0,0,1-.444-1.2l1.556-19.569a1.1,1.1,0,0,1,1.663-.615l18.463,12.358a1.1,1.1,0,0,1,.461,1.158Z" transform="translate(480.665 1948.504)" fill="#707070"/>
    <path id="Path_12647" data-name="Path 12647" d="M131.7,128.3c-.177.306-.631,2.184-.027,2.95a20.819,20.819,0,0,0,6.138,4.084,2.614,2.614,0,0,0,2.386-1.778c.369-.835-.587-1.648-1.213-2.32a13.4,13.4,0,0,0-4.452-3.207,4.084,4.084,0,0,0-1.475-.418C132.548,127.584,131.7,128.3,131.7,128.3Z" transform="translate(457.65 2012.255)" fill="#707070"/>
    <path id="Path_12648" data-name="Path 12648" d="M148.076,131.513a16.184,16.184,0,0,1-6.1,3.641,2.957,2.957,0,0,1-2.356-2.136c-.291-.86.728-1.584,1.412-2.2a13.485,13.485,0,0,1,4.731-2.779,4.229,4.229,0,0,1,1.509-.279,1.483,1.483,0,0,1,1.238.575,7.367,7.367,0,0,1-.429,3.18Z" transform="translate(487.409 2012.785)" fill="#707070"/>
    <path id="Path_12649" data-name="Path 12649" d="M141.649,138.036c-.922-.229-2.913-.458-2.711-5.294.894.485,1.755,1,2.65,1.5a5.558,5.558,0,0,0,.087,3.715Z" transform="translate(485.086 2030.888)" fill="#707070"/>
    <path id="Path_12650" data-name="Path 12650" d="M150.213,131.9a12.5,12.5,0,0,1-.682,5.825c-2.581,2.555-8.551,4.35-9.626,3.274-.607-.607-.587-3.177-.485-4.022.134-1.173,7.953-2.284,9.963-4Z" transform="translate(486.683 2027.825)" fill="#707070"/>
    <path id="Path_12651" data-name="Path 12651" d="M133.909,137.8c1.036-.306,2.52-.886,2.427-5.155-.894.485-1.755,1-2.65,1.5a5.869,5.869,0,0,1-.463,3.8S133.739,137.85,133.909,137.8Z" transform="translate(464.367 2030.533)" fill="#707070"/>
    <path id="Path_12652" data-name="Path 12652" d="M131.265,131.788c-.587,4.951.328,5.777,1,6.4,2.581,2.381,8.01,3.718,9.079,2.645a5.483,5.483,0,0,0,.6-3.4c-.134-1.168-7.856-2.913-9.861-4.629Z" transform="translate(456.582 2027.423)" fill="#707070"/>
    <path id="Path_12653" data-name="Path 12653" d="M164.823,143.554c6.706-4.288,12.378-8.01,14.348-9.31a6.31,6.31,0,0,0-1.362-5.1,6.8,6.8,0,0,0-4.721-2.834c-2.061,1.367-9.2,6.088-17.084,11.259-7.8-5.285-14.9-10.06-16.989-11.43a6.133,6.133,0,0,0-4.747,2.67,6.883,6.883,0,0,0-1.653,4.835c2.065,1.386,7.98,5.294,14.577,9.676-6.674,4.35-13.3,7.306-16.081,8.98a11.22,11.22,0,0,0,5.053,4.956,10.922,10.922,0,0,0,5.618.815c2.769-1.668,8.252-5.109,14.2-8.892,5.7,3.817,10.861,7.318,13.419,9.161a13.5,13.5,0,0,0,5.582-.631,7.422,7.422,0,0,0,5.192-4.916C177.592,150.927,171.265,147.93,164.823,143.554Z" transform="translate(456.717 2006.903)" fill="#707070"/>
    <path id="Path_12654" data-name="Path 12654" d="M164.486,143.262c6.706-4.288,12.414-7.9,14.4-9.208a8.541,8.541,0,0,0-1.9-5.053,6.98,6.98,0,0,0-4.228-2.988c-2.061,1.367-9.2,6.088-17.084,11.262-7.8-5.285-14.9-10.06-16.989-11.43a6.133,6.133,0,0,0-4.748,2.67,6.8,6.8,0,0,0-1.6,4.905c2.065,1.381,7.929,5.226,14.526,9.606-6.674,4.35-12.863,8.412-15.652,10.089a9.5,9.5,0,0,0,4.611,3.854,10.922,10.922,0,0,0,5.618.816c2.769-1.668,8.252-5.109,14.2-8.892,5.7,3.818,10.861,7.318,13.419,9.161a12.515,12.515,0,0,0,5.582-.631,6.637,6.637,0,0,0,4.641-3.933C176.692,151.614,170.916,147.644,164.486,143.262Z" transform="translate(457.064 2005.832)" fill="#707070"/>
    <path id="Path_12655" data-name="Path 12655" d="M146.067,123.669l-.2,24.554a.992.992,0,0,1-.369.769,8.961,8.961,0,0,1-9.71.541.983.983,0,0,1-.52-.876l-.177-24.243c.356-.356.728,1.213,1.085.847h9.432Z" transform="translate(471.16 1997.934)" fill="#707070"/>
    <path id="Path_12656" data-name="Path 12656" d="M196.854,117.6a13.608,13.608,0,0,1-.5,8.2,12.562,12.562,0,0,1-3.364,3.942,64.6,64.6,0,0,1-5.9,5.027c-4.126,2.844-7.725,5.531-11.8,8.422-5.825,4.126-12.478,7.694-20.047,3.835a108.008,108.008,0,0,1-13.165-7.866c-4.206-3.015-8.143-5.956-12.266-9.086-1-.755-.485-2.293.2-3.344,4.711,2.427,9.38,5.012,14.077,7.438a80.069,80.069,0,0,0,11.075,5.022,26.729,26.729,0,0,0,11.972,1.456,30.434,30.434,0,0,0,12.475-5.247A60.861,60.861,0,0,0,196.162,118.6Z" transform="translate(449.975 1975.896)" fill="#707070"/>
    <path id="Path_12657" data-name="Path 12657" d="M130.879,135.412c-.971,5.162-.536,2.212-1.5,7.374q9.97,6.247,19.936,12.5c4.226,2.65,8.825,5.4,13.8,5.067,4.507-.3,8.412-3.08,12.052-5.762l11.942-8.79a24.326,24.326,0,0,0,7.735-7.749,8.332,8.332,0,0,0,1.568-6.415c-.328-3.135-1.381-2.473-3.519-4.278-2.95-2.233-21.509-15.346-26.339-13.74-6.7,2.233-29.353,17.717-35.355,21.576" transform="translate(450.428 1960.927)" fill="#34a853"/>
    <path id="Path_12662" data-name="Path 12662" d="M129.214,126.619a7.55,7.55,0,0,0-2.08.423c-.468.157-.638.264-.638.755a1.213,1.213,0,0,0,.682,1.005,3.49,3.49,0,0,0,1.229.326l.728-2.447Z" transform="translate(439.944 2008.644)" fill="#707070"/>
    <g id="Group_5289" data-name="Group 5289" transform="translate(567.568 2085.926)">
      <path id="Path_12663" data-name="Path 12663" d="M135.908,116.008c-7.913,16.28-.894,36.459-9.166,52.557a10.846,10.846,0,0,1,10.391-2.153c-1.056-5.206,7.545-23.086,9.444-36.163a13.349,13.349,0,0,0,.037-6.466c-1.19-4.318-6-6.359-10.227-7.821Z" transform="translate(-126.738 -115.963)" fill="#e09671"/>
      <g id="Group_5288" data-name="Group 5288" transform="translate(0 0.007)">
        <path id="Path_12664" data-name="Path 12664" d="M141.375,118.057a33.768,33.768,0,0,0-4.988-2.089l-.479.039c-7.913,16.28-.894,36.459-9.166,52.557a9.136,9.136,0,0,1,3.919-2.212c3.7-3.915,4.151-16.5,4.368-20C136.721,119.033,141.375,118.057,141.375,118.057Z" transform="translate(-126.742 -115.968)" fill="#f2bd9c" opacity="0.32"/>
      </g>
    </g>
    <g id="Group_5290" data-name="Group 5290" transform="translate(576.526 2064.841)">
      <path id="Path_12665" data-name="Path 12665" d="M136.219,122.61a7.907,7.907,0,0,0-2.408.677,10.717,10.717,0,0,0-3.14,2.458,8.08,8.08,0,0,0-1.529,7.948c3.053,6.776,14.512,13.965,18.8,17.686,5.262,4.562,11.584,10.3,18.55,10.177a28.588,28.588,0,0,0,18.351-8.01,31.209,31.209,0,0,0,10.124-18.035,11.307,11.307,0,0,0-3.381-10.7c-2.458-1.9-5.842-1.867-8.944-2.044a50.225,50.225,0,0,1-23.254-7.281,34.221,34.221,0,0,0-6.07-3.369,7.989,7.989,0,0,0-6.725.259C141.983,115.12,142.284,121.594,136.219,122.61Z" transform="translate(-128.639 -111.125)" fill="#fbbc05"/>
      <path id="Path_12666" data-name="Path 12666" d="M129.16,133.888a8.471,8.471,0,0,1,1.738-6.637,8.112,8.112,0,0,1,6.2-2.57,14.011,14.011,0,0,0,8.638-1.524,31.051,31.051,0,0,1,2.612-1.793,3.564,3.564,0,0,1,3.043-.316,3.774,3.774,0,0,1,1.9,3.172,25.657,25.657,0,0,1,.107,3.869c-.274,6.206,3.2,7.669,6.8,8.225,4.776.737,7.743-1.143,11.242-2.866-2.759-1.743-6.944.087-9.38-2.089a5.907,5.907,0,0,1-1.381-5.162,26.915,26.915,0,0,0,.638-5.512,9.189,9.189,0,0,0-3.884-6.24,29.865,29.865,0,0,0-6.934-3.028c-3.835,4.368-7.3,8.769-12.378,11.574-.184.1-.152.123-.338.07a6.694,6.694,0,0,0-5.786,1.681,8.31,8.31,0,0,0-3,8.862Z" transform="translate(-128.679 -111.416)" fill="#d49e02" opacity="0.4"/>
    </g>
    <g id="Group_5291" data-name="Group 5291" transform="translate(612.098 2018.787)">
      <path id="Path_12667" data-name="Path 12667" d="M150.758,102.007a23.145,23.145,0,0,0-1.417,9.218,1.306,1.306,0,0,1-.037.3A8.834,8.834,0,0,1,136.6,111.4a5.488,5.488,0,0,0-.246-4.276,12.077,12.077,0,0,0,14.337-5.654Z" transform="translate(-136.352 -101.474)" fill="#f2bd9c"/>
      <path id="Path_12668" data-name="Path 12668" d="M150.758,102.007a23.145,23.145,0,0,0-1.417,9.218,1.306,1.306,0,0,1-.037.3A8.834,8.834,0,0,1,136.6,111.4a5.488,5.488,0,0,0-.246-4.276,12.077,12.077,0,0,0,14.337-5.654Z" transform="translate(-136.352 -101.474)" fill="#f2bd9c" opacity="0.32"/>
    </g>
    <path id="Path_12669" data-name="Path 12669" d="M140.882,106.734a17.031,17.031,0,0,0-5.4,6.609h0a21.482,21.482,0,0,1-.944,18.5,45.63,45.63,0,0,1,1.857,21.115c-.291,2.065-.971,8.252-.134,8.7,6.1,3.228,23.081-1.31,29.729-6.541,4.462-15.082,6.347-32.522-1.213-46.305a14.037,14.037,0,0,0-5.027-5.242Z" transform="translate(469.174 1924.925)" fill="#ea4335"/>
    <path id="Path_12670" data-name="Path 12670" d="M140.281,104.306c-2.238,1.681-3.942,5.541-1.973,6.347,8.8,1.663,7.039,11.177,3.9,15.739a12.774,12.774,0,0,0-1.509,9.968,71.359,71.359,0,0,1,1.051,12.363,40.682,40.682,0,0,1-1.029,11.339h0a7.5,7.5,0,0,1-5.15-1.245,7.83,7.83,0,0,1-.246-2.539c-.02-5.548,1.213-8.2.983-13.747a55.1,55.1,0,0,0-1.412-9.995c-1.245-2.7,3.715-9.385,4.179-12.33,1.3-8.235-4.179-9.315-4.179-9.273a15.11,15.11,0,0,1,5.415-6.66S140.33,104.273,140.281,104.306Z" transform="translate(469.739 1927.488)" fill="#ea4335" opacity="0.4"/>
    <g id="Group_5287" data-name="Group 5287" transform="translate(586.188 2027.777)">
      <path id="Path_12659" data-name="Path 12659" d="M146.268,115.4a29.129,29.129,0,0,1-15.508-3.626,15.062,15.062,0,0,0,4.3-8.358c5.446,1.653,11.616,1.407,17.305,1.641a16.435,16.435,0,0,1,4.126.485,4.771,4.771,0,0,1,3.125,2.548c-3.91.643-12.045,7.806-12.62,7.453Z" transform="translate(-130.76 -103.412)" fill="#ea4335"/>
      <path id="Path_12660" data-name="Path 12660" d="M148.391,105.766a6.6,6.6,0,0,0-5.434,2.956,41.371,41.371,0,0,1-4.126,5.162c-2.184,1.927-4.233,1.88-7.9,2.52a22.431,22.431,0,0,0,9.759-1.041c2.325-1.005,1.544-2.1,3.2-4.024s2.784-3.687,4.478-5.568Z" transform="translate(-130.149 -94.884)" fill="#252262" opacity="0.4"/>
    </g>
    <path id="Path_12671" data-name="Path 12671" d="M154.907,105.712a10.03,10.03,0,0,1-8.524,5.961,19.972,19.972,0,0,1-10.488-2.442,4.975,4.975,0,0,1,2.52-3.956,8.494,8.494,0,0,0,6.75,1.738,8.887,8.887,0,0,0,5.884-4.049,7.706,7.706,0,0,1,3.859,2.747Z" transform="translate(474.086 1922.758)" fill="#fff"/>
    <path id="Path_12672" data-name="Path 12672" d="M173.275,115.741a6.837,6.837,0,0,0,.077-7.7,6.927,6.927,0,0,0-8.01-1.825c-4.818,1.483-16.907,11.7-21.73,16.4-.139.134-.184.172-.209.144-3.048-3.687-10.135-6.76-12.572-10.784a11.614,11.614,0,0,0-5.1,6.16c3.053,2.866,8.708,13.591,11.213,15.533,3.381,2.65,6.25,1.534,9.815,0a105.877,105.877,0,0,0,14.45-7.612,45.722,45.722,0,0,0,9.992-7.458,15.7,15.7,0,0,0,2.07-2.851Z" transform="translate(437.177 1932.509)" fill="#ea4335"/>
    <g id="Group_4905" data-name="Group 4905" transform="translate(534.272 1990.627)">
      <g id="Group_5285" data-name="Group 5285" transform="translate(0 0)">
        <g id="Group_5284" data-name="Group 5284" transform="translate(0 0)">
          <g id="Group_5085" data-name="Group 5085" transform="translate(0 0)">
            <path id="Path_12092" data-name="Path 12092" d="M151.151,94.538v22.483a1.738,1.738,0,0,1-.868,1.506L118.842,136.7a.9.9,0,0,1-1.352-.776V113.582a2.3,2.3,0,0,1,1.151-1.992l31.01-17.925a.994.994,0,0,1,1.5.871Z" transform="translate(-117.49 -93.53)" fill="#4285f4"/>
            <path id="Path_12094" data-name="Path 12094" d="M151.225,94.57v22.483a1.748,1.748,0,0,1-.868,1.509l-31.441,18.164a.9.9,0,0,1-1.352-.776V113.614a2.3,2.3,0,0,1,1.152-1.992l31.009-17.914a.993.993,0,0,1,1.5.86Z" transform="translate(-117.306 -93.433)" fill="#4285f4"/>
          </g>
          <path id="Path_12095" data-name="Path 12095" d="M118.082,112.329v.011a.914.914,0,0,0,.369,1.179l16,9.248a1.94,1.94,0,0,0,1.936,0l31.892-18.436a.537.537,0,0,0,.157-.788.686.686,0,0,1-.157,1.141L136.4,123.119a1.937,1.937,0,0,1-1.936,0l-16-8.651C117.176,113.78,118.082,112.329,118.082,112.329Z" transform="translate(-116.804 -68.632)" fill="#4285f4"/>
          <g id="Group_5086" data-name="Group 5086" transform="translate(1.201 24.947)">
            <path id="Path_12096" data-name="Path 12096" d="M151.59,100.958l16.543,9.541a.537.537,0,0,1,0,.932l-31.9,18.436a1.939,1.939,0,0,1-1.936,0l-16-9.248a.927.927,0,0,1,0-1.6l31.247-18.067A2.044,2.044,0,0,1,151.59,100.958Z" transform="translate(-117.842 -100.683)" fill="#707070"/>
          </g>
          <path id="Path_12097" data-name="Path 12097" d="M124.587,110.173l9.368-5.46,4.9,2.827L129.491,113Z" transform="translate(-99.843 -65.704)" fill="#f1f3f4"/>
          <path id="Path_12098" data-name="Path 12098" d="M148.784,116.007V94.072l-30.805,17.8v21.929Z" transform="translate(-116.287 -92.192)" fill="#f1f3f4"/>
        </g>
      </g>
      <path id="Path_11320" data-name="Path 11320" d="M-5.2,12.638,26.272-5.625,36.8.482,5.329,18.714Z" transform="translate(8.08 31.756)" fill="#f1f3f4"/>
    </g>
    <path id="Path_12673" data-name="Path 12673" d="M146.123,138.018a3.734,3.734,0,0,1-1.793,0,9.762,9.762,0,0,0-.485-4.073c-1.456.167-6.225,3-10.289,2.386a10.8,10.8,0,0,1-8.575-5.541,2.913,2.913,0,0,1-.2-1.835c.551-2.153,3.67-2.153,5.313-1.775a14.524,14.524,0,0,0,5.145.264.842.842,0,0,1,.3.015,3.788,3.788,0,0,0-1.611.621.939.939,0,0,0,.782,1.706,3.657,3.657,0,0,0,.983-.536,15.971,15.971,0,0,1,8.79-2.866c3.6,2.381,1.82,10.958,1.648,11.6Z" transform="translate(433.478 2007.798)" fill="#4a4a4a"/>
    <path id="Path_12674" data-name="Path 12674" d="M136.419,99.26l-1.19,9.417a21.725,21.725,0,0,0,.991,10.538,11.006,11.006,0,0,0,9.825,7.067,10.613,10.613,0,0,0,9.742-6.771,7.524,7.524,0,0,1-2.57-5.6c-.147-1.992.157-4-.02-5.99a12.473,12.473,0,0,0-15.152-11.075c-1.009.229-2.228,1.163-1.668,2.034Z" transform="translate(470.767 1899.43)" fill="#f2bd9c"/>
    <path id="Path_12675" data-name="Path 12675" d="M153.084,105.278a13.429,13.429,0,0,0,5.735,10.324,11.484,11.484,0,0,1-9.529.575,11.257,11.257,0,0,1-6.155-7.169c-.6.737-.281,1.876-.269,2.493a8.946,8.946,0,0,1-2.769-7.179Z" transform="translate(489.259 1927.642)" fill="#323236" opacity="0.35"/>
    <path id="Path_12676" data-name="Path 12676" d="M140.7,97.466a9.363,9.363,0,0,1,11.616,1.009,15.533,15.533,0,0,1,4.492,11.461,50.282,50.282,0,0,1-2.089,12.46,39.915,39.915,0,0,0-1.678,12.5,14.434,14.434,0,0,0,5.563,10.921,10.874,10.874,0,0,1-15.229-7.3c-.922.787-.685,2.1-.667,2.719a9.133,9.133,0,0,1-2.655-7.3,30.655,30.655,0,0,1,1.82-7.8,48.654,48.654,0,0,0,2.759-14.257,22.111,22.111,0,0,0-4.47-14Z" transform="translate(489.085 1897.079)" fill="#707070"/>
    <path id="Path_12677" data-name="Path 12677" d="M143.884,104.741A11.133,11.133,0,0,0,141.7,96.9a2.714,2.714,0,0,0-.76-.694.876.876,0,0,0-.876.167c.05.117.728.971.774,1.08,1.213,2.794,2.973,4.385,2.95,7.435" transform="translate(489.212 1897.973)" fill="#e61724"/>
    <path id="Path_12678" data-name="Path 12678" d="M161.9,107.206a19.1,19.1,0,0,1-.939,12.378c-.842,2-5.8,10.13-9.161,9.061a11.43,11.43,0,0,1-4.854-6.108c-.157-.376-.8-2.335-.485-2.67A5.777,5.777,0,0,0,148,114.809a2.488,2.488,0,0,0-.8-1.529,1.611,1.611,0,0,0-1.728-.134,1.844,1.844,0,0,0-.908,1.631,18.313,18.313,0,0,0-9-10.983c-.939-.485.07-2.581.408-3.212a11.856,11.856,0,0,1,9.833-5.339,15.583,15.583,0,0,1,10.907,3.564,14.929,14.929,0,0,1,1.213,1.141,16.989,16.989,0,0,1,3.967,7.258Z" transform="translate(471.485 1894.589)" fill="#707070"/>
    <path id="Path_12679" data-name="Path 12679" d="M135.286,98.817a20.722,20.722,0,0,1,8.832,10.242,15.878,15.878,0,0,0-8.7-12.313,6.662,6.662,0,0,0-.112,1.755Z" transform="translate(471.863 1900.15)" fill="#f2bd9c" opacity="0.32"/>
    <path id="Path_12680" data-name="Path 12680" d="M142.173,166.316s-4.155-1.475-4.465-3.564V123.441a22.535,22.535,0,0,1,9.57-18.458l.134-.092a24.6,24.6,0,0,1,16.018-3.9c2.427.224,9.833,1.967,9.38,8.626l-25.453,3.053c2.827,18.482-.764,34.783-4.776,53.036Z" transform="translate(480.666 1915.115)" fill="#34a853"/>
    <path id="Path_12681" data-name="Path 12681" d="M154.942,126.954l-17.453-11.5c-3.4-1.743-5.257.418-5.521,1.362l-2.014,20.3c-.913,2.468-.607,3.257.449,4.056,8.252,6.24,16.989,12.669,24.27,16,.917.418,2.269.037,2.8-2.7,0,0,.361-17,1.116-20.872C159.365,129.691,157.666,128.769,154.942,126.954Zm.685,5.124-1.19,19.88a1.1,1.1,0,0,1-1.678.662L133.93,139.951a1.1,1.1,0,0,1-.444-1.213l1.556-19.564a1.093,1.093,0,0,1,1.658-.615l18.468,12.358a1.09,1.09,0,0,1,.461,1.163Z" transform="translate(450.537 1965.715)" fill="#707070"/>
    <path id="Path_12682" data-name="Path 12682" d="M170.012,151.793h0c-.092-.092-.157-36.619-.172-45.067a3.06,3.06,0,0,0-1.584-2.692,20.045,20.045,0,0,0-16.332-1.168c-5.849,2.184-10.585,5.859-12.181,11.892a52.3,52.3,0,0,0-.825,11.145l-.388,36.163c0,1.034,1.061,2.029,3.182,2.483,5.23,1.121,9.041-.015,14.077-1.967A32.015,32.015,0,0,0,169.961,151.9Z" transform="translate(483.64 1917.983)" fill="#707070"/>
    <path id="Path_12683" data-name="Path 12683" d="M135.257,129.595c-1.106,1.187,1.815,2.386,2.774,2.525a13.4,13.4,0,0,0,5.446-.047c1.056-.291,4.368-1.793,2.595-3.2a11.165,11.165,0,0,1-9.833.454A2.733,2.733,0,0,0,135.257,129.595Z" transform="translate(470.875 2016.848)" fill="#323236" opacity="0.31"/>
    <path id="Path_12684" data-name="Path 12684" d="M150.516,114.428a16.307,16.307,0,0,1-6.614,2.891.831.831,0,0,0-.565.269.705.705,0,0,0-.092.444c.43,6.857,3.08,26.753-2.473,29.639a19.56,19.56,0,0,0,5.543-1.857,7.766,7.766,0,0,0,4.165-4.548c.76-4.126.144-24.372,0-26.518Z" transform="translate(491.8 1964.372)" fill="#707070"/>
    <path id="Path_12658" data-name="Path 12658" d="M143.861,107.545c-1.988-3.062-6.109-5.213-10.943-5.178a6.086,6.086,0,0,0-2.645.376,2.913,2.913,0,0,0-1.844,3.349c.728,2.255,6.369,1.342,7.077,4.238.615,2.483-4.271.369-3.884,2.065.615,2.729,6.87,3.836,9.249,2.22C142.211,113.7,143.468,110.212,143.861,107.545Z" transform="translate(446.677 1920.498)" fill="#e09671"/>
    <g id="Group_5307" data-name="Group 5307" transform="translate(318.622 1984.959)">
      <path id="Path_12685" data-name="Path 12685" d="M102.191,132.965a7.169,7.169,0,0,1,2.045.417c.461.154.627.258.632.745a1.2,1.2,0,0,1-.671.983,3.579,3.579,0,0,1-1.208.317c-.236-.8-.473-1.6-.709-2.405Z" transform="translate(-19.047 10.186)" fill="#e9b008"/>
      <path id="Path_12686" data-name="Path 12686" d="M97.43,129.864a6.914,6.914,0,0,1,2.045.442c.461.159.627.272.632.785a1.263,1.263,0,0,1-.671,1.043,3.41,3.41,0,0,1-1.208.338q-.359-1.272-.709-2.544Z" transform="translate(-35.776 -0.708)" fill="#e9b008"/>
      <g id="Group_5294" data-name="Group 5294" transform="translate(43.502 80.663)">
        <path id="Path_12687" data-name="Path 12687" d="M104.319,119.161c7.786,16.028.88,35.881,9.023,51.73a10.681,10.681,0,0,0-10.223-2.129c1.039-5.123-7.424-22.716-9.294-35.589a13.038,13.038,0,0,1-.036-6.364c1.169-4.243,5.9-6.256,10.066-7.692Z" transform="translate(-93.412 -119.118)" fill="#fec08d"/>
      </g>
      <path id="Path_12688" data-name="Path 12688" d="M95.669,141.092a3.744,3.744,0,0,0,1.764,0,9.6,9.6,0,0,1,.473-4c1.45.163,6.126,2.95,10.125,2.346a10.642,10.642,0,0,0,8.441-5.451,2.864,2.864,0,0,0,.194-1.8c-.547-2.129-3.611-2.129-5.227-1.748a14.276,14.276,0,0,1-5.069.263.932.932,0,0,0-.294,0,3.8,3.8,0,0,1,1.584.615.923.923,0,0,1-.766,1.679,3.687,3.687,0,0,1-.97-.527,15.689,15.689,0,0,0-8.654-2.819c-3.547,2.335-1.788,10.783-1.62,11.416Z" transform="translate(-44.079 -1.488)" fill="#fbbc05"/>
      <g id="Group_5295" data-name="Group 5295" transform="translate(64.776 94.597)">
        <path id="Path_12689" data-name="Path 12689" d="M109.033,122.252c7.786,16.023.88,35.878,9.018,51.725a10.678,10.678,0,0,0-10.223-2.129c1.039-5.123-7.424-22.716-9.294-35.589A13.151,13.151,0,0,1,98.5,129.9c1.169-4.243,5.9-6.256,10.066-7.692Z" transform="translate(-98.124 -122.204)" fill="#fec08d"/>
      </g>
      <path id="Path_12690" data-name="Path 12690" d="M100.384,144.182a3.751,3.751,0,0,0,1.765,0,9.524,9.524,0,0,1,.473-4c1.445.163,6.121,2.95,10.12,2.346a10.643,10.643,0,0,0,8.441-5.451,2.838,2.838,0,0,0,.194-1.8c-.542-2.129-3.606-2.129-5.227-1.748a14.244,14.244,0,0,1-5.064.263.955.955,0,0,0-.3,0,3.84,3.84,0,0,1,1.589.615.924.924,0,0,1-.771,1.679,3.688,3.688,0,0,1-.97-.527,15.687,15.687,0,0,0-8.654-2.827c-3.547,2.335-1.793,10.783-1.625,11.416Z" transform="translate(-27.524 9.358)" fill="#fbbc05"/>
      <path id="Path_12694" data-name="Path 12694" d="M89.66,144.355c.9-.236,2.856-.452,2.663-5.2-.88.492-1.729.983-2.6,1.475a5.477,5.477,0,0,1-.09,3.661Z" transform="translate(-63.178 31.921)" fill="#bebebe"/>
      <g id="Group_5296" data-name="Group 5296" transform="translate(52.103 170.626)">
        <path id="Path_12696" data-name="Path 12696" d="M97.7,144.13c-1.019-.3-2.483-.87-2.384-5.077.88.492,1.729.983,2.6,1.475a5.777,5.777,0,0,0,.456,3.741S97.868,144.171,97.7,144.13Z" transform="translate(-95.314 -139.053)" fill="#bebebe"/>
      </g>
      <path id="Path_12698" data-name="Path 12698" d="M102.528,149.622c-6.594-4.219-12.168-7.866-14.12-9.158a6.213,6.213,0,0,1,1.341-5.028,6.653,6.653,0,0,1,4.645-2.786c2.032,1.341,9.053,5.986,16.812,11.075,7.672-5.2,14.663-9.9,16.709-11.248a6.04,6.04,0,0,1,4.67,2.638,6.76,6.76,0,0,1,1.63,4.759c-2.037,1.362-7.859,5.2-14.343,9.524,6.568,4.278,13.086,7.185,15.824,8.843a11.073,11.073,0,0,1-4.967,4.879,10.8,10.8,0,0,1-5.531.8c-2.727-1.656-8.112-5.033-13.975-8.751-5.609,3.761-10.693,7.2-13.206,9.018a13.274,13.274,0,0,1-5.489-.615,7.311,7.311,0,0,1-5.113-4.839C89.977,156.891,96.2,153.933,102.528,149.622Z" transform="translate(-70.946 8.48)" fill="#bebebe"/>
      <path id="Path_12700" data-name="Path 12700" d="M91.711,129.986l.2,24.161a.946.946,0,0,0,.361.755,8.8,8.8,0,0,0,9.565.537.972.972,0,0,0,.511-.86l.172-23.862c-.348-.343-.709,1.182-1.064.839h-9.3Z" transform="translate(-55.87 -0.275)" fill="#707070"/>
      <path id="Path_12702" data-name="Path 12702" d="M149.823,141.282c.946,5.077-.615,2.089.338,7.173-6.54,4.1-11.939,8.278-18.478,12.385-4.158,2.6-8.68,5.312-13.578,4.988-4.437-.3-8.278-3.032-11.861-5.676L94.492,151.5a24.045,24.045,0,0,1-7.62-7.628,8.221,8.221,0,0,1-1.535-6.315c.324-3.073,1.352-2.438,3.467-4.212,2.907-2.2,21.165-15.1,25.916-13.52,6.594,2.2,28.891,17.434,34.794,21.229" transform="translate(-78.647 -36.436)" fill="#34a853"/>
      <path id="Path_12691" data-name="Path 12691" d="M85.24,134.75c.737,3.8,1.1,20.533,1.1,20.533.517,2.694,1.844,3.073,2.753,2.658,7.185-3.278,15.784-9.6,23.9-15.748,1.039-.785,1.336-1.561.442-3.994l-1.986-19.972c-.263-.929-2.089-3.055-5.44-1.341L88.838,128.2C86.155,129.993,84.481,130.9,85.24,134.75Zm3.373-2.644,18.173-12.158a1.077,1.077,0,0,1,1.638.606l1.525,19.256a1.074,1.074,0,0,1-.433,1.182L90.985,153.462a1.077,1.077,0,0,1-1.656-.65L88.16,133.251a1.074,1.074,0,0,1,.45-1.139Z" transform="translate(-79.252 -48.573)" fill="#707070"/>
      <g id="Group_5300" data-name="Group 5300" transform="translate(5.479 0)">
        <path id="Path_12703" data-name="Path 12703" d="M97.987,115.164a13.007,13.007,0,0,1,11.468-6.7,6.146,6.146,0,0,1,2.6.369,2.869,2.869,0,0,1,1.809,3.294c-.726,2.221-6.268,1.322-6.965,4.179a1.106,1.106,0,0,0,.018.737l-.975,4.02a7.828,7.828,0,0,1-4.967-.671c-1.318-.9-2.41-2.807-3.784-3.637Z" transform="translate(-42.06 -75.936)" fill="#fec08d"/>
        <g id="Group_5297" data-name="Group 5297" transform="translate(32.505 37.37)">
          <path id="Path_12704" data-name="Path 12704" d="M105.325,121.322a28.7,28.7,0,0,0,15.264-3.572,14.805,14.805,0,0,1-4.233-8.224c-5.361,1.63-11.43,1.386-17.028,1.615a16.142,16.142,0,0,0-4.068.473,4.713,4.713,0,0,0-3.073,2.5c3.851.632,11.858,7.682,12.421,7.331Z" transform="translate(-92.187 -109.527)" fill="#fbbc05"/>
        </g>
        <g id="Group_5298" data-name="Group 5298" transform="translate(4.876 73.837)">
          <path id="Path_12705" data-name="Path 12705" d="M144.117,128.641a7.948,7.948,0,0,1,2.365.665,10.591,10.591,0,0,1,3.091,2.415,7.963,7.963,0,0,1,1.5,7.825c-3,6.666-14.281,13.743-18.5,17.4-5.182,4.493-11.4,10.136-18.258,10.016a28.145,28.145,0,0,1-18.067-7.876A30.745,30.745,0,0,1,86.3,141.334,11.116,11.116,0,0,1,89.622,130.8c2.429-1.863,5.745-1.844,8.8-2.013a49.364,49.364,0,0,0,22.889-7.175,33.939,33.939,0,0,1,5.977-3.311,7.833,7.833,0,0,1,6.622.258C138.441,121.267,138.155,127.634,144.117,128.641Z" transform="translate(-86.041 -117.325)" fill="#ea4335"/>
          <path id="Path_12706" data-name="Path 12706" d="M132.869,139.735a8.327,8.327,0,0,0-1.7-6.535,7.989,7.989,0,0,0-6.106-2.533,13.766,13.766,0,0,1-8.514-1.5,29.089,29.089,0,0,0-2.569-1.764,3.508,3.508,0,0,0-3-.307,3.7,3.7,0,0,0-1.863,3.119,26.115,26.115,0,0,0-.1,3.81c.272,6.111-3.145,7.551-6.684,8.1-4.7.731-7.62-1.123-11.068-2.827,2.722-1.721,6.837.085,9.218-2.057a5.794,5.794,0,0,0,1.352-5.082,26.393,26.393,0,0,1-.627-5.425,9.051,9.051,0,0,1,3.822-6.145,29.339,29.339,0,0,1,6.82-2.981c3.784,4.293,7.185,8.626,12.187,11.392.179.1.149.123.333.064a6.6,6.6,0,0,1,5.7,1.656,8.173,8.173,0,0,1,2.95,8.72Z" transform="translate(-67.802 -117.607)" fill="#d42b1d" opacity="0.4"/>
        </g>
        <g id="Group_5299" data-name="Group 5299" transform="translate(21.228 28.517)">
          <path id="Path_12707" data-name="Path 12707" d="M89.687,108.1a22.738,22.738,0,0,1,1.4,9.072,1.344,1.344,0,0,0,.036.3,8.693,8.693,0,0,0,12.5-.13,5.408,5.408,0,0,1,.236-4.207,11.891,11.891,0,0,1-14.11-5.565Z" transform="translate(-89.687 -107.566)" fill="#f2bd9c"/>
          <path id="Path_12708" data-name="Path 12708" d="M89.687,108.1a22.738,22.738,0,0,1,1.4,9.072,1.344,1.344,0,0,0,.036.3,8.693,8.693,0,0,0,12.5-.13,5.408,5.408,0,0,1,.236-4.207,11.891,11.891,0,0,1-14.11-5.565Z" transform="translate(-89.687 -107.566)" fill="#fec08d"/>
        </g>
        <path id="Path_12709" data-name="Path 12709" d="M120.422,163.86c.059,1.54-.018,2.8-.369,2.992a6.933,6.933,0,0,1-1.251.492c-.123.041-.236.076-.369.123a1.977,1.977,0,0,1-.208.054c-.1.031-.208.054-.317.076-.348.076-.709.13-1.088.184l-.324.036h-.064a44.632,44.632,0,0,1-25.642-7.4c-4.391-14.841-6.241-32,1.182-45.569a13.857,13.857,0,0,1,4.948-5.162l18.587,3.124c.123.095.258.194.383.3l.031.023a16.917,16.917,0,0,1,4.67,5.714.32.32,0,0,1,.049.113c.064.123.123.236.175.361l-.015.031c-.023.049-.041.09-.059.135a19.136,19.136,0,0,0-1.554,7.331,16.758,16.758,0,0,0,1.034,5.763,21.117,21.117,0,0,0,1.52,3.33,53.309,53.309,0,0,0-2.32,15.709v.551c0,.64.031,1.282.074,1.922l.015.168q.109,2.018.4,4.04c.163,1.133.438,3.529.511,5.506Z" transform="translate(-78.091 -71.618)" fill="#fbbc05"/>
        <path id="Path_12710" data-name="Path 12710" d="M100.7,151.737c.236,3.2.885,5.638.908,9.545v.3a7.835,7.835,0,0,1-.236,2.5,3.4,3.4,0,0,1-1.748.86,2,2,0,0,1-.208.054c-.1.031-.208.054-.317.076a8.651,8.651,0,0,1-1.088.184l-.324.036h-.064a8.087,8.087,0,0,1-1.322,0h0a40.113,40.113,0,0,1-1.01-11.162,70.446,70.446,0,0,1,1.021-12.159,12.593,12.593,0,0,0-1.485-9.813c-3.1-4.493-4.824-13.852,3.841-15.486,1.937-.8.258-4.6-1.947-6.246l-.031-.036a1.721,1.721,0,0,1,.379.2l.031.023a16.4,16.4,0,0,1,4.67,5.714.318.318,0,0,1,.049.113c.059.135.123.267.163.392l.041.123a.391.391,0,0,0-.1.018c-.726.154-5.2,1.656-4.02,9.112.222,1.42,1.949,2.717,3.493,3.971a21.114,21.114,0,0,0,1.52,3.33,53.309,53.309,0,0,0-2.32,15.706v.551c0,.681.026,1.313.074,1.922Z" transform="translate(-59.273 -69.105)" fill="#fbbc05" opacity="0.6"/>
        <path id="Path_12711" data-name="Path 12711" d="M89.145,111.782a9.86,9.86,0,0,0,8.386,5.868,19.611,19.611,0,0,0,10.324-2.4,4.893,4.893,0,0,0-2.479-3.895,8.358,8.358,0,0,1-6.643,1.71,8.751,8.751,0,0,1-5.788-3.981,7.551,7.551,0,0,0-3.8,2.7Z" transform="translate(-70.365 -73.719)" fill="#fff"/>
        <path id="Path_12712" data-name="Path 12712" d="M108.74,105.261q.581,4.637,1.169,9.271a21.377,21.377,0,0,1-.975,10.373,10.847,10.847,0,0,1-9.668,6.949,10.461,10.461,0,0,1-9.587-6.666,7.38,7.38,0,0,0,2.533-5.51c.144-1.958-.154-3.933.018-5.891a12.272,12.272,0,0,1,14.914-10.9c.993.22,2.19,1.142,1.643,2Z" transform="translate(-68.497 -96.517)" fill="#fec08d"/>
        <path id="Path_12713" data-name="Path 12713" d="M90.627,111.388a13.222,13.222,0,0,1-5.643,10.156,11.315,11.315,0,0,0,9.375.568,11.087,11.087,0,0,0,6.057-7.06c.6.731.279,1.844.267,2.451a8.8,8.8,0,0,0,2.727-7.065Z" transform="translate(-84.984 -68.959)" fill="#323236" opacity="0.35"/>
        <path id="Path_12714" data-name="Path 12714" d="M102.682,103.487a9.218,9.218,0,0,0-11.43.983,15.307,15.307,0,0,0-4.417,11.284,49.106,49.106,0,0,0,2.053,12.257,39.274,39.274,0,0,1,1.656,12.3,14.207,14.207,0,0,1-5.471,10.742,10.706,10.706,0,0,0,14.995-7.185c.9.78.667,2.072.655,2.677a8.972,8.972,0,0,0,2.6-7.18,30.1,30.1,0,0,0-1.793-7.677,47.894,47.894,0,0,1-2.717-14.031,21.782,21.782,0,0,1,4.4-13.766Z" transform="translate(-84.691 -98.811)" fill="#707070"/>
        <path id="Path_12715" data-name="Path 12715" d="M88.293,110.645a10.97,10.97,0,0,1,2.167-7.722,2.746,2.746,0,0,1,.745-.681.868.868,0,0,1,.86.163c-.049.123-.709.946-.764,1.062-1.2,2.748-2.925,4.319-2.9,7.331" transform="translate(-73.557 -97.94)" fill="#fe6181"/>
        <path id="Path_12716" data-name="Path 12716" d="M88.665,113.046a18.759,18.759,0,0,0,.919,12.178c.83,1.966,5.714,9.971,9.013,8.918a11.259,11.259,0,0,0,4.785-6.022c.159-.369.79-2.3.473-2.618a5.676,5.676,0,0,1-1.515-4.967,2.469,2.469,0,0,1,.785-1.507,1.577,1.577,0,0,1,1.7-.13,1.807,1.807,0,0,1,.894,1.6,18.052,18.052,0,0,1,8.849-10.806c.929-.492-.069-2.54-.4-3.16a11.655,11.655,0,0,0-9.678-5.258,15.339,15.339,0,0,0-10.737,3.511,14.1,14.1,0,0,0-1.2,1.123A16.619,16.619,0,0,0,88.665,113.046Z" transform="translate(-74.205 -101.243)" fill="#707070"/>
        <path id="Path_12717" data-name="Path 12717" d="M100.672,104.83a20.379,20.379,0,0,0-8.689,10.078,15.609,15.609,0,0,1,8.557-12.119,6.25,6.25,0,0,1,.109,1.729Z" transform="translate(-60.395 -95.817)" fill="#f2bd9c" opacity="0.32"/>
      </g>
      <path id="Path_12718" data-name="Path 12718" d="M113.974,171.371s4.084-1.45,4.391-3.508V129.177a22.172,22.172,0,0,0-9.415-18.163l-.13-.095a24.213,24.213,0,0,0-15.775-3.846c-2.391.222-9.678,1.937-9.218,8.49l25.041,3.012c-2.786,18.19.75,34.222,4.7,52.2Z" transform="translate(-83.66 -81.2)" fill="#34a853"/>
      <g id="Group_5518" data-name="Group 5518" transform="translate(0 29.357)">
        <path id="Path_12692" data-name="Path 12692" d="M104.361,134.643c.172.3.615,2.147.023,2.907a20.377,20.377,0,0,1-6.04,4.02A2.564,2.564,0,0,1,96,139.82c-.369-.816.576-1.62,1.182-2.285a13.274,13.274,0,0,1,4.383-3.155,4.037,4.037,0,0,1,1.45-.412C103.516,133.945,104.361,134.643,104.361,134.643Z" transform="translate(-41.084 -15.645)" fill="#707070"/>
        <path id="Path_12693" data-name="Path 12693" d="M88.078,137.809a15.9,15.9,0,0,0,6.008,3.583,2.915,2.915,0,0,0,2.32-2.1c.289-.849-.726-1.561-1.39-2.162a13.2,13.2,0,0,0-4.659-2.736,4.08,4.08,0,0,0-1.475-.274,1.49,1.49,0,0,0-1.223.565,7.223,7.223,0,0,0,.419,3.127Z" transform="translate(-70.205 -15.123)" fill="#707070"/>
        <path id="Path_12695" data-name="Path 12695" d="M87.481,138.3a12.263,12.263,0,0,0,.667,5.719c2.533,2.518,8.413,4.283,9.474,3.229.6-.6.578-3.129.473-3.959-.135-1.152-7.825-2.247-9.8-3.933Z" transform="translate(-70.996 -0.43)" fill="#707070"/>
        <path id="Path_12697" data-name="Path 12697" d="M106.332,138.185c.578,4.874-.324,5.676-.983,6.29-2.528,2.346-7.866,3.666-8.933,2.6a5.408,5.408,0,0,1-.586-3.334c.135-1.157,7.731-2.871,9.71-4.56Z" transform="translate(-41.576 -0.826)" fill="#707070"/>
        <path id="Path_12699" data-name="Path 12699" d="M102.107,149.319c-6.594-4.219-12.218-7.771-14.169-9.058a8.4,8.4,0,0,1,1.873-4.967,6.858,6.858,0,0,1,4.163-2.937c2.032,1.341,9.053,5.986,16.812,11.075,7.672-5.2,14.663-9.9,16.709-11.248a6.041,6.041,0,0,1,4.67,2.638,6.679,6.679,0,0,1,1.579,4.824c-2.037,1.362-7.8,5.141-14.294,9.464,6.568,4.278,12.659,8.278,15.4,9.933a9.358,9.358,0,0,1-4.548,3.784,10.8,10.8,0,0,1-5.531.8c-2.727-1.643-8.112-5.033-13.975-8.751-5.609,3.761-10.693,7.2-13.206,9.018a12.324,12.324,0,0,1-5.489-.615,6.536,6.536,0,0,1-4.567-3.872C90.093,157.545,95.781,153.63,102.107,149.319Z" transform="translate(-70.523 -21.916)" fill="#707070"/>
        <path id="Path_12701" data-name="Path 12701" d="M85.565,123.857a13.439,13.439,0,0,0,.492,8.07,19.068,19.068,0,0,0,4.65,5.1,33.62,33.62,0,0,0,4.332,3.637c4.108,2.827,7.692,5.494,11.75,8.372,5.732,4.068,12.282,7.569,19.724,3.784a105.83,105.83,0,0,0,12.953-7.743c4.143-2.966,8.015-5.858,12.073-8.941a1.892,1.892,0,0,0,.317-2.29,1.016,1.016,0,0,0-1.42-.537c-4.328,2.257-8.631,4.621-12.963,6.858a78.215,78.215,0,0,1-10.9,4.938,26.319,26.319,0,0,1-11.784,1.42,30.036,30.036,0,0,1-12.277-5.162,59.89,59.89,0,0,1-16.28-16.533Z" transform="translate(-78.858 -51.167)" fill="#707070"/>
        <path id="Path_12719" data-name="Path 12719" d="M93.618,139.542c.745,3.8,1.106,20.533,1.106,20.533.515,2.689,1.844,3.073,2.748,2.654,7.185-3.278,15.784-9.6,23.9-15.744,1.039-.79,1.341-1.566.442-3.994l-2-19.977c-.258-.924-2.089-3.051-5.44-1.341L97.2,132.989C94.535,134.773,92.859,135.681,93.618,139.542Zm3.373-2.649,18.175-12.158a1.077,1.077,0,0,1,1.635.606l1.529,19.251a1.069,1.069,0,0,1-.438,1.182L99.365,158.246a1.078,1.078,0,0,1-1.656-.65l-1.169-19.561a1.08,1.08,0,0,1,.447-1.144Z" transform="translate(-49.813 -61.113)" fill="#707070"/>
        <path id="Path_12720" data-name="Path 12720" d="M83.77,157.1h0c.09-.09.154-36.036.168-44.351A3,3,0,0,1,85.5,110.1a19.724,19.724,0,0,1,16.082-1.152c5.755,2.157,10.407,5.768,11.988,11.712a51.375,51.375,0,0,1,.809,10.965l.383,35.584c.015,1.013-1.043,1.991-3.129,2.438-5.146,1.106-8.9-.015-13.847-1.932a31.579,31.579,0,0,1-13.954-10.527Z" transform="translate(-83.77 -107.752)" fill="#707070"/>
        <path id="Path_12721" data-name="Path 12721" d="M86.493,120.653a16.2,16.2,0,0,0,6.514,2.838.806.806,0,0,1,.56.267.686.686,0,0,1,.085.433c-.419,6.748-3.03,26.328,2.438,29.169a19.3,19.3,0,0,1-5.456-1.828,7.667,7.667,0,0,1-4.1-4.473c-.75-4.056-.14-23.986,0-26.1Z" transform="translate(-75.352 -62.425)" fill="#707070"/>
      </g>
      <g id="Group_5306" data-name="Group 5306" transform="translate(70.603 10.886)">
        <g id="Group_5305" data-name="Group 5305" transform="translate(0 0)">
          <g id="Group_5304" data-name="Group 5304" clip-path="url(#clip-path)">
            <g id="Group_5303" data-name="Group 5303" transform="translate(0 0.005)">
              <path id="Path_12754" data-name="Path 12754" d="M106.634,103.661l-7.221,38.593L123.2,155.115l7.223-38.593Z" transform="translate(-99.413 -103.661)" fill="#dcefff"/>
              <path id="Path_12755" data-name="Path 12755" d="M106.132,139.84c-.272-.144-.547.018-.615.358l-.045.236a.882.882,0,0,0,.369.885l14.467,7.821c.274.149.546-.015.615-.353l.045-.236a.88.88,0,0,0-.379-.89l-14.458-7.821m-5.494-5.913c-.324-.175-.645.015-.721.422a1.036,1.036,0,0,0,.447,1.052l20.366,11.014c.322.175.645-.018.721-.419a1.048,1.048,0,0,0-.447-1.052l-20.366-11.014m.5-2.677c-.324-.175-.65.018-.721.419a1.046,1.046,0,0,0,.442,1.057l20.369,11.014c.322.172.645-.018.721-.423a1.05,1.05,0,0,0-.447-1.052l-20.366-11.014m.492-2.672c-.32-.175-.64,0-.709.422a1.034,1.034,0,0,0,.442,1.052l20.369,11.014c.317.175.64,0,.709-.419A1.031,1.031,0,0,0,122,139.6L101.63,128.584m2.581-9.375c-.731-.4-1.475.036-1.643.946l-.766,4.1a2.365,2.365,0,0,0,1.01,2.405l18.88,10.21c.731.392,1.466-.036,1.643-.97l.766-4.1a2.365,2.365,0,0,0-1.014-2.391L104.212,119.2m9.218.8c-.328-.179-.645,0-.721.423a1.029,1.029,0,0,0,.442,1.052l11.116,6.011c.322.171.645-.018.721-.423a1.039,1.039,0,0,0-.442-1.057L113.43,120m.5-2.682c-.328-.179-.645.018-.726.433a1.039,1.039,0,0,0,.447,1.052l11.116,6.008c.322.175.645-.018.721-.422a1.052,1.052,0,0,0-.442-1.064l-11.116-6.008m-3.976,1.475-5.182-2.8a.828.828,0,0,1-.343-.89,2.5,2.5,0,0,1,3.711-1.855,5.418,5.418,0,0,1,2.4,5.153c-.041.361-.312.537-.581.388m-1.689-6.229a3.385,3.385,0,0,1-1.454-3.429c.236-1.326,1.305-1.942,2.365-1.372a3.38,3.38,0,0,1,1.45,3.429c-.236,1.327-1.3,1.942-2.351,1.372m-1.63-8.015c-.578-.312-1.157.023-1.292.745l-1.788,9.55a1.967,1.967,0,0,0,.328,1.45,1.313,1.313,0,0,0,.473.438l5.693,3.073a.773.773,0,0,0,.522.1.946.946,0,0,0,.771-.854l1.788-9.55a1.844,1.844,0,0,0-.8-1.878l-5.693-3.073" transform="translate(-97.703 -100.965)" fill="#9dc7f6"/>
              <path id="Path_12756" data-name="Path 12756" d="M103.83,105.332a3.38,3.38,0,0,1,1.45,3.429c-.236,1.326-1.3,1.942-2.351,1.372a3.385,3.385,0,0,1-1.454-3.429c.236-1.326,1.305-1.942,2.365-1.372" transform="translate(-92.358 -98.537)" fill="#dcefff"/>
              <path id="Path_12757" data-name="Path 12757" d="M104.634,106.639a5.418,5.418,0,0,1,2.4,5.153c-.041.361-.312.537-.581.388l-5.179-2.8a.827.827,0,0,1-.343-.89,2.5,2.5,0,0,1,3.711-1.855" transform="translate(-94.192 -94.356)" fill="#dcefff"/>
            </g>
          </g>
        </g>
      </g>
      <path id="Path_12758" data-name="Path 12758" d="M104.2,111.647c-.328,1.466-2.838,2.458-5.136,2.763l1.326-4.056C100.93,111.586,104.528,110.2,104.2,111.647Z" transform="translate(-30.041 -69.252)" fill="#fec08d"/>
      <path id="Path_12759" data-name="Path 12759" d="M106.366,126.174a13.718,13.718,0,0,0,11.1-7.971,6.094,6.094,0,0,0,.645-2.549,2.866,2.866,0,0,0-2.365-2.925c-2.335-.172-3.6,5.3-6.5,4.865-2.488-.369,1.256-4.02-.433-4.316-2.713-.456-5.962,5.891-5.371,8.661.333,1.561,1.475,2.876,1.721,4.45Z" transform="translate(-14.899 -60.926)" fill="#fec08d"/>
      <path id="Path_12760" data-name="Path 12760" d="M93.25,120.783a6.733,6.733,0,0,1,1.54-7.424,6.825,6.825,0,0,1,8.088-.08c4.323,2.438,13.816,14.786,17.468,20.31.1.159.144.2.172.184,3.7-2.907,16.628-8.2,19.809-11.566a11.438,11.438,0,0,1,3.611,6.986c-3.534,2.129-16.678,15.065-19.5,16.43-3.81,1.844-6.328.163-9.439-2.057a103.913,103.913,0,0,1-12.3-10.34,44.957,44.957,0,0,1-8.041-9.256,15.348,15.348,0,0,1-1.412-3.188Z" transform="translate(-52.218 -63.502)" fill="#fbbc05"/>
    </g>
    <path id="Path_12661" data-name="Path 12661" d="M133.255,120.327a13.939,13.939,0,0,1-9.3-10.311,6.111,6.111,0,0,1-.087-2.67,2.913,2.913,0,0,1,2.978-2.4c2.35.337,2.427,6.041,5.408,6.24,2.548.167-.381-4.276,1.352-4.191,2.794.123,5.26,5.514,4.075,8.144-.667,1.475-3.143,2.353-3.733,3.862Z" transform="translate(430 1929.912)" fill="#e09671"/>
  </g>
</svg>
