<svg xmlns="http://www.w3.org/2000/svg" xmlns:xlink="http://www.w3.org/1999/xlink" width="610.752" height="491.499" viewBox="0 0 610.752 491.499">
  <defs>
    <linearGradient id="linear-gradient" x1="0.89" y1="0.956" x2="0" y2="0.14" gradientUnits="objectBoundingBox">
      <stop offset="0" stop-color="#bab0b0"/>
      <stop offset="0.389" stop-color="#e0e9f9"/>
      <stop offset="0.611" stop-color="#eaf2ff"/>
      <stop offset="1" stop-color="#f1f3f4"/>
    </linearGradient>
    <linearGradient id="linear-gradient-2" x1="-0.052" y1="0.122" x2="0.987" y2="0.885" xlink:href="#linear-gradient"/>
  </defs>
  <g id="Group_6233" data-name="Group 6233" transform="translate(-10345 2492)">
    <g id="Group_4695" data-name="Group 4695" transform="translate(10238 -2647)">
      <g id="Group_4679" data-name="Group 4679" transform="translate(107 155)">
        <g id="Group_4648" data-name="Group 4648">
          <g id="Group_4461" data-name="Group 4461">
            <path id="Path_10460" data-name="Path 10460" d="M2455.53,565.67q1.453,5.089,3.177,10.1c21.311,61.948,119.9,174.378,186.157,96.45,12.259-14.42,20.576-31.514,35.262-43.562a137.081,137.081,0,0,1,47.688-25.182c23.573-7.023,45.814-2.921,69.356-5.2,49.078-4.742,95.562-17.345,130.887-53.872,34.852-36.038,53.065-85.394,48.7-133.621a151.606,151.606,0,0,0-17.294-57.985q-1.687-3.157-3.519-6.236c-17.746-29.851-44.927-54.806-76.47-69.458-36.563-16.985-74.326-14.1-113.328-9.592-29.585,3.415-61.418,5.768-89.382-6.561-14.416-6.356-28.37-14.211-41.88-22.229-13.728-8.149-25.776-18.932-40.682-25.407-24.441-10.616-50.045-7.034-71.243,8.973-102.824,77.646-99.337,231.632-67.427,343.382" transform="translate(-2366.643 -207.266)" fill="url(#linear-gradient)"/>
            <path id="Path_10461" data-name="Path 10461" d="M2912.93,675.792c-13.813,33.76-45.948,58.493-85.933,56.759-54.324-2.355-100.11-43.687-144.576-70.32-11.071-6.632-22.438-12.918-34.492-17.594-27.189-10.549-60.878-8.018-87.9,2.023-22.809,8.476-43.354,28.8-62.437,43.718-29.615,23.151-74.472,19.4-106.009,1.11-84.44-48.973-95.881-181.392-34.552-252.8,81.767-95.212,225.489-101.565,335.345-57.551,59.438,23.815,112.784,63.023,154.888,111.126,33.048,37.756,67.618,85.041,72.548,136.983a98.4,98.4,0,0,1-6.884,46.549" transform="translate(-2318.283 -266.03)" fill="url(#linear-gradient-2)"/>
          </g>
        </g>
        <path id="Path_10728" data-name="Path 10728" d="M2857.99,240.7a138.071,138.071,0,0,0-35.732-21.941,214.577,214.577,0,0,0-41.508-12.888c-20.462-4.27-41.306-4.016-63.711.779-18.03,3.858-37.157,10.654-60.2,21.391-21.4,9.97-53.46,23.619-84.735,27.035-22.357,2.439-50.177,5.476-75.4,13.068-27.765,8.357-49.085,21.2-65.183,39.261-1.982,2.227-3.875,4.488-5.625,6.722a122.317,122.317,0,0,0-12.183,18.866q3.688-3.9,7.555-7.572,3.087-4.831,6.749-9.518c1.714-2.189,3.569-4.4,5.513-6.588,28.217-31.659,69.646-42.254,108.4-47.773,10.459-1.49,20.724-2.612,30.481-3.676q2.537-.277,5.074-.638c30.009-4.277,60.075-17.114,80.49-26.629,34.809-16.22,76.553-31.514,122.256-21.978,41.491,8.66,110.666,34.376,107.749,109.335-1.04,26.777-14.017,45.744-28.167,65.439q-.817,1.134-1.635,2.273c-2.511,3.488-5.109,7.1-7.648,10.757-12.728,18.335-23.3,39.253-33.273,65.827-6.232,16.608-11.687,33.944-16.963,50.709-2.905,9.234-5.909,18.78-9.031,28.176-2.7,8.129-5.608,16.346-8.822,24.473-16.421,41.563-40.8,80.772-86.252,94.006-27.776,8.085-60.556,5.717-97.429-7.039-32.65-11.3-63.586-29.816-91-53.954q-.882.18-1.769.339.886-.159,1.769-.339a327.437,327.437,0,0,1-71.91-91.368c-27.625-51.72-51.542-124-14.574-181.834q-3.866,3.672-7.555,7.572c-11.825,22.658-16.225,48.789-13.1,77.976,3.22,30,14.27,62.843,32.85,97.625a340.9,340.9,0,0,0,30.814,47.674,322.77,322.77,0,0,0,38.281,41.538q.808.736,1.621,1.461.888-.142,1.774-.3-.885.159-1.774.3c28.443,25.465,59.97,44.292,93.734,55.97,30.45,10.535,58.19,14.069,82.728,10.574a117.586,117.586,0,0,0,16.3-3.493,106.6,106.6,0,0,0,35.869-18.375,133.271,133.271,0,0,0,26.782-28.682c10.789-15.348,19.078-32.863,25.383-48.714,3.548-8.915,6.467-17.3,8.852-24.478,3.129-9.417,6.135-18.977,9.044-28.221,5.266-16.729,10.708-34.026,16.914-50.564,9.887-26.35,20.359-47.072,32.95-65.213,2.527-3.64,5.118-7.238,7.621-10.717.453-.632.91-1.264,1.361-1.894,14.513-20.185,27.892-39.571,28.972-67.367C2891.93,286.662,2880.92,260.624,2857.99,240.7Z" transform="translate(-2337.561 -182.354)" fill="#fff"/>
      </g>
    </g>
    <g id="Group_6232" data-name="Group 6232" transform="translate(-93.022 -2285.597)">
      <g id="Group_6228" data-name="Group 6228" transform="translate(-43 53)">
        <g id="Group_6225" data-name="Group 6225" transform="translate(-676 -103)">
          <g id="Group_6220" data-name="Group 6220" transform="translate(192.899 633)">
            <path id="Rectangle_1012" data-name="Rectangle 1012" d="M20.4,0H155.032a20.661,20.661,0,0,1,20.4,20.907V342.156a20.661,20.661,0,0,1-20.4,20.907H20.4A20.661,20.661,0,0,1,0,342.155V20.907A20.661,20.661,0,0,1,20.4,0Z" transform="translate(11237.306 -725)" fill="#213458"/>
            <path id="Path_11118" data-name="Path 11118" d="M17.915,0H155.743a17.916,17.916,0,0,1,17.916,17.916V340.908a17.915,17.915,0,0,1-17.915,17.915H17.915A17.915,17.915,0,0,1,0,340.908V17.915A17.915,17.915,0,0,1,17.915,0Z" transform="translate(11235.101 -720.761)" fill="#4285f4" stroke="#34a853" stroke-width="0.2"/>
            <path id="Path_11117" data-name="Path 11117" d="M1.568,0h152.76A1.568,1.568,0,0,1,155.9,1.568v279.8a1.568,1.568,0,0,1-1.568,1.568H1.568A1.568,1.568,0,0,1,0,281.363V1.568A1.568,1.568,0,0,1,1.568,0Z" transform="translate(11244.164 -684.558)" fill="#fff" stroke="#d5d5d5" stroke-width="0.2"/>
            <path id="Path_7953" data-name="Path 7953" d="M9.982,3.847A1.923,1.923,0,1,1,9.982,0H45.609a1.923,1.923,0,1,1,0,3.847ZM3.563,0a1.923,1.923,0,1,1,0,3.847H1.924A1.923,1.923,0,1,1,1.924,0Z" transform="translate(11298.163 -701.845)" fill="#fff" fill-rule="evenodd"/>
            <path id="Path_7954" data-name="Path 7954" d="M12.585,25.169A12.584,12.584,0,1,0,0,12.585,12.584,12.584,0,0,0,12.585,25.169Z" transform="translate(11309.346 -395.083)" fill="#fff" fill-rule="evenodd"/>
            <g id="Group_1705" data-name="Group 1705" transform="translate(11253.931 -677.197)">
              <path id="Path_7967" data-name="Path 7967" d="M.465.936A.468.468,0,1,1,.465,0H10.7a.468.468,0,0,1,0,.936Zm0,6.722a.466.466,0,0,1,0-.932H10.7a.466.466,0,0,1,0,.932Zm0-3.361a.468.468,0,1,1,0-.936H10.7a.468.468,0,0,1,0,.936Z" transform="translate(0.003 0)" fill="#4285f4" fill-rule="evenodd"/>
              <path id="Path_7968" data-name="Path 7968" d="M13.725.418ZM1.419.932H7.428V5.769H1.419a.471.471,0,0,1-.341-.142.479.479,0,0,1-.147-.341V1.419A.488.488,0,0,1,1.419.932ZM12.722,0H1.419A1.424,1.424,0,0,0,0,1.419V5.286A1.424,1.424,0,0,0,1.419,6.7h11.3a1.416,1.416,0,0,0,.971-.388l.032-.029a1.419,1.419,0,0,0,.416-1V1.419A1.422,1.422,0,0,0,12.722,0Z" transform="translate(121.857 0.477)" fill="#4285f4" fill-rule="evenodd"/>
            </g>
          </g>
          <g id="Group_6224" data-name="Group 6224" transform="translate(1521.388 1858)">
            <g id="Group_5691" data-name="Group 5691">
              <circle id="Ellipse_383" data-name="Ellipse 383" cx="15.964" cy="15.964" r="15.964" transform="translate(9979.705 -1667)" fill="#ea4335"/>
              <path id="Path_10758" data-name="Path 10758" d="M918.539,813.663s-2.731-4.482-9.319-4.509-9.594,3.553-9.929,4.127a3.741,3.741,0,0,0,.318,3.06,1.1,1.1,0,0,0,1.2.548l3.479-.742a.854.854,0,0,0,.66-.941l-.262-1.87a5.8,5.8,0,0,1,4.232-1.309,7.153,7.153,0,0,1,4.107,1.359l-.155,1.87a.954.954,0,0,0,.779,1.01l3.329.592a.954.954,0,0,0,1.016-.517C918.359,815.6,918.857,814.362,918.539,813.663Z" transform="translate(9086.794 -2463.813)" fill="#fff"/>
            </g>
            <g id="Group_5690" data-name="Group 5690" transform="translate(3)">
              <circle id="Ellipse_385" data-name="Ellipse 385" cx="15.964" cy="15.964" r="15.964" transform="translate(10027.023 -1667)" fill="#34a853"/>
              <path id="Path_10761" data-name="Path 10761" d="M991.176,821.808a4.234,4.234,0,0,0,4.234-4.234v-6.692a4.234,4.234,0,1,0-8.444,0v6.692a4.234,4.234,0,0,0,4.209,4.234Zm-2.8-10.919a2.826,2.826,0,1,1,5.652,0v6.692a2.825,2.825,0,1,1-5.651,0Z" transform="translate(9052.174 -2467.594)" fill="#fff"/>
              <path id="Path_10762" data-name="Path 10762" d="M992.287,822.568a5.347,5.347,0,0,0,5.335-5.335.713.713,0,0,0-1.424,0,3.922,3.922,0,0,1-3.91,3.922h-1.752a3.933,3.933,0,0,1-3.922-3.922.713.713,0,1,0-1.414,0,5.346,5.346,0,0,0,5.335,5.335h.169v1.2h-2.5a.712.712,0,1,0,0,1.413h6.408a.713.713,0,1,0,0-1.413h-2.5v-1.2Z" transform="translate(9051.945 -2466.251)" fill="#fff"/>
            </g>
            <g id="Group_5689" data-name="Group 5689" transform="translate(0 -0.612)">
              <circle id="Ellipse_383-2" data-name="Ellipse 383" cx="15.964" cy="15.964" r="15.964" transform="translate(9929.612 -1666.388)" fill="#34a853"/>
              <g id="Icon_ionic-md-person-add" data-name="Icon ionic-md-person-add" transform="translate(9935 -1659)">
                <path id="Path_13262" data-name="Path 13262" d="M16.311,12.936a4.218,4.218,0,1,1,4.218-4.218A4.23,4.23,0,0,1,16.311,12.936Zm0,2.109c2.794,0,8.436,1.424,8.436,4.218v2.109H7.875V19.263C7.875,16.469,13.517,15.045,16.311,15.045Z" transform="translate(-7.875 -4.5)" fill="#fff"/>
                <path id="Path_13263" data-name="Path 13263" d="M3.937,14.062V11.25H5.343v2.812H8.155v1.406H5.343V18.28H3.937V15.468H1.125V14.062Z" transform="translate(12.935 -7.032)" fill="#fff"/>
              </g>
            </g>
          </g>
          <g id="Group_1734" data-name="Group 1734" transform="translate(11450.828 -22.555)">
            <path id="Path_8078" data-name="Path 8078" d="M558.914,301.576s-6.418,31.131-14.348,52.954c-1.092,3.024-2.218,5.851-3.343,8.4-.5,1.092-.991,2.133-1.479,3.125-.051.118-.118.217-.168.32-.387.723-.739,1.428-1.126,2.083a30.254,30.254,0,0,1-1.882,2.956,42,42,0,0,1-5.36,6.081c-2.419,2.251-11.407,7.779-18.951,6.334a10.737,10.737,0,0,1-3.881-1.479V361.385a236.707,236.707,0,0,1,20.477-31c8.786-11.257,17.64-20.547,24.31-25.469a30.252,30.252,0,0,1,3.881-2.5c0-.017,0-.017.017-.017A15.392,15.392,0,0,1,558.914,301.576Z" transform="translate(-506.664 -225.737)" fill="#e3ad10"/>
            <path id="Path_8079" data-name="Path 8079" d="M626.276,358.275c-1.142,12.113-2.806,24.965-4.2,36.491H521.039c.168-1.865.353-4,.6-6.367.254-2.672.573-5.611.958-8.77.542-4.62,1.211-9.66,2.035-14.9.065-.5.134-1.008.235-1.517.085-.6.185-1.209.286-1.815.555-3.444,1.176-6.934,1.882-10.416,4.148-20.866,10.684-41.211,20.715-46.117.84-.4,1.7-.806,2.552-1.159a65.342,65.342,0,0,1,16.349-4.452c1.227-.185,2.451-.32,3.684-.454a87.518,87.518,0,0,1,21.722.758c1.107.168,2.2.37,3.276.571,11.24,2.234,21.116,6.519,27.267,11.978a8.807,8.807,0,0,1,2,2.722l.033.034C628.494,322.473,628.039,339.491,626.276,358.275Z" transform="translate(-498.055 -227.864)" fill="#fbbc05"/>
            <g id="Group_1732" data-name="Group 1732" transform="translate(64.356 0)">
              <path id="Path_8080" data-name="Path 8080" d="M551.007,294.226a48.224,48.224,0,0,1-1.265,18.44s5.083,8.171,22.8-.225c0,0-.475-17.635,2.831-24.846l-1.072-2C564.741,297.343,551.007,294.226,551.007,294.226Z" transform="translate(-542.893 -236.603)" fill="#d86"/>
              <path id="Path_8081" data-name="Path 8081" d="M553.894,262.395c7.246-11.761,33.586,6.515,32.965,15.5s-7.77,36.381-28.239,35.694C537.206,312.874,547.312,273.079,553.894,262.395Z" transform="translate(-545.665 -254.984)" fill="#f3a17a"/>
              <path id="Path_8082" data-name="Path 8082" d="M559.584,275.568c-.4,1.456-1.416,2.461-2.267,2.245s-1.218-1.574-.818-3.034,1.415-2.463,2.266-2.245S559.981,274.11,559.584,275.568Z" transform="translate(-538.407 -245.506)" fill="#1a4850"/>
              <path id="Path_8083" data-name="Path 8083" d="M551.057,274.1c-.4,1.456-1.415,2.463-2.267,2.246s-1.218-1.576-.817-3.034,1.415-2.463,2.267-2.246S551.457,272.639,551.057,274.1Z" transform="translate(-544.205 -246.506)" fill="#1a4850"/>
              <g id="Group_1730" data-name="Group 1730" transform="translate(19.419 19.15)">
                <path id="Path_8085" data-name="Path 8085" d="M562.953,271.6a.62.62,0,0,1-.492-.241c-1.531-1.974-4.642-2.285-4.674-2.286a.623.623,0,0,1-.561-.677.637.637,0,0,1,.677-.563c.15.015,3.684.37,5.541,2.764a.621.621,0,0,1-.491,1Z" transform="translate(-557.224 -267.834)" fill="#1a4850"/>
              </g>
              <g id="Group_1731" data-name="Group 1731" transform="translate(3.352 17.64)">
                <path id="Path_8086" data-name="Path 8086" d="M548.283,269.281a.593.593,0,0,1-.2-.034.624.624,0,0,1-.388-.791c.742-2.167,4.232-1.415,4.628-1.324a.622.622,0,1,1-.282,1.211c-.906-.21-2.868-.358-3.169.518A.625.625,0,0,1,548.283,269.281Z" transform="translate(-547.66 -266.933)" fill="#1a4850"/>
              </g>
              <path id="Path_8087" data-name="Path 8087" d="M547.66,280.678s4.875,3.561,14.419,2.676c0,0-1.569,9.076-7.9,7.584C547.873,289.455,547.66,280.678,547.66,280.678Z" transform="translate(-544.309 -239.949)" fill="#1a4850"/>
              <path id="Path_8088" data-name="Path 8088" d="M548.462,276.231s-4.748-3.538-4.758-1.415,4.158,3.972,4.158,3.972A4.014,4.014,0,0,0,548.462,276.231Z" transform="translate(-540.351 -242.536)" fill="#dd774e"/>
              <path id="Path_8089" data-name="Path 8089" d="M577.595,268.876s-13.4,1.611-17.356-.18,3.677-1.94,3.677-1.94-14.15.885-17.024-.494,5.2-4.875,5.2-4.875-3.285-1.041-1.727-2.13,12.134-5.424,26.338-.568S596.061,276.216,590.4,291.6c-4.225,11.463-12.654,15.818-12.654,15.818l-1.072-2s1.3-8.246.424-11.108C575.932,290.525,574.673,272.724,577.595,268.876Z" transform="translate(-545.252 -256.434)" fill="#145b6b"/>
              <path id="Path_8090" data-name="Path 8090" d="M565.41,281.433s6.43-8.247,9.342-1.625-7.623,12.481-10.019,11.474S565.41,281.433,565.41,281.433Z" transform="translate(-533.32 -242.289)" fill="#f3a17a"/>
            </g>
            <path id="Path_8091" data-name="Path 8091" d="M600.414,317.738v23.6a94.637,94.637,0,0,1-3.075,10.718c-5.729,16.431-15.187,31.3-18.683,36.491h-5.494c-4.62-2.806-11.24-9.055-9.19-21.2v-.017c.1-.622.235-1.277.387-1.983.168-.84.387-1.733.622-2.654l.05-.2c.252-.991.542-2.032.84-3.108,6.233-21.487,23.537-58.465,29.787-50.77l.034.034A27.17,27.17,0,0,1,600.414,317.738Z" transform="translate(-469.119 -221.655)" fill="#e3ad10"/>
            <path id="Path_8092" data-name="Path 8092" d="M609.534,375.269H579.476a211.062,211.062,0,0,1-20.328-10.215l-.017-.017c-9.039-5.107-24.394-14.919-30.8-19.522,0,0-4.7.94-7.712-1.192a5.55,5.55,0,0,1-1.192-1.159c-2.437-3.225-3.462-15.725,1.848-16.044,2.05-.118,4.687,1.293,7.106,3.041a55.248,55.248,0,0,1,6.754,5.913c.857.3,1.95.65,3.259,1.092,9.005,3.024,28.074,9.156,43.865,12.617.6.134,1.192.269,1.8.387h.017a113.261,113.261,0,0,0,11.66,1.9,30.409,30.409,0,0,1,4.049,1.983v.017C605.2,357.191,613.667,364.1,609.534,375.269Z" transform="translate(-500.499 -208.372)" fill="#f3a17a"/>
            <path id="Path_8093" data-name="Path 8093" d="M552.351,296.684s6.463,5.042,21.429,0c0,0,4.536-6.013,2.7,12.115,0,0-10.3,9.1-27.177,1.537C549.3,310.336,545.188,296.89,552.351,296.684Z" transform="translate(-479.635 -229.714)" fill="#fbbc05"/>
            <path id="Path_8094" data-name="Path 8094" d="M528.389,330.16c-4.906.217-8.279,7.5-7.762,14.162a5.547,5.547,0,0,1-1.192-1.159c-2.437-3.225-3.462-15.725,1.848-16.044C523.331,327,525.969,328.412,528.389,330.16Z" transform="translate(-500.499 -208.372)" fill="#d86"/>
            <path id="Path_8095" data-name="Path 8095" d="M533.231,293.836v.1c-.134,1.58-1.714,21.438-3.684,41.712-.454,4.754-.924,9.525-1.408,14.1-.622,5.851-1.243,11.358-1.848,16.044a119.587,119.587,0,0,1-2.149,12.841c-1.9,6.888-6.569,10.819-11.189,10.467a7.959,7.959,0,0,1-3.881-1.361,10.306,10.306,0,0,1-1.714-1.445,10.433,10.433,0,0,0,1.714,1.327s-3.617-2.484-4.487-8.988,1.009-17.03,1.009-17.03l3.478-15.329c4.855-18.245,11.391-38.237,13.961-45.965.705-2.1,1.109-3.292,1.109-3.292Z" transform="translate(-507.358 -231.001)" fill="#f3a17a"/>
            <g id="Group_1733" data-name="Group 1733" transform="translate(1.712 34.007)">
              <path id="Path_8096" data-name="Path 8096" d="M532.538,305.607a7.655,7.655,0,0,1-6.215,6.553,8.276,8.276,0,0,1-3.982-.185c-5.309-1.408-11.051-6.826-13.961-9.859V276.676c3.041.758,2.335,5.376,6.166,10.8,1.126,1.58,4.856,3.528,6.569,4.821a34.6,34.6,0,0,0,3.105,2.117c.823.5,1.378.806,1.378.806v-.017a48.622,48.622,0,0,1,1.647-7.308c.891-2.335,1.965-.772,1.965-.772a73.455,73.455,0,0,0,2.52,10.5,16.267,16.267,0,0,1,.808,7.981Z" transform="translate(-508.376 -276.676)" fill="#f3a17a"/>
              <path id="Path_8097" data-name="Path 8097" d="M516.427,288.358s-2.218,14.41-4.586,11.425c-2.384-2.99-1.378-5.04-1.5-6.485a3.984,3.984,0,0,0-1.58-2.5.615.615,0,0,0-.387.067v-.873a2.247,2.247,0,0,1,.907.2A8.237,8.237,0,0,0,509.1,287a.988.988,0,0,0-.723-.672v-.891a2.616,2.616,0,0,1,.772-.252c1.294-.217,1.092,2.436,1.327,1.126.252-1.294-1.394-4.72-1.95-5.393l-.152-.152v-1.378a.584.584,0,0,1,.37.152c.857.65,1.625,1.848,1.58,4.435C510.278,286.543,514.31,291.113,516.427,288.358Z" transform="translate(-508.376 -274.833)" fill="#d86"/>
              <path id="Path_8098" data-name="Path 8098" d="M521.037,288.9s-3.976,1.381-2.633,5.22-1.332,5.055-1.332,5.055-4.117-8.476-.521-13.2h.009A40.63,40.63,0,0,0,521.037,288.9Z" transform="translate(-503.82 -270.353)" fill="#d86"/>
            </g>
          </g>
        </g>
        <g id="Group_4803" data-name="Group 4803" transform="translate(10643.021 -105.045)">
          <g id="Group_1736" data-name="Group 1736" transform="translate(98.179 31.916)">
            <path id="Path_8103" data-name="Path 8103" d="M483.193,212.888a13.266,13.266,0,0,1,4.758-2.149c1.572-.214,1.438-1.487,2.533-1.735a2.128,2.128,0,0,1,.744,0,3.851,3.851,0,0,1,1.239-.446l.3.049s1.269-.982,1.885-.793c1.19.363-1.736,3.024-3.769,4.413S483.193,212.888,483.193,212.888Z" transform="translate(-480.409 -207.79)" fill="#d86"/>
            <path id="Path_8104" data-name="Path 8104" d="M480.86,216.744s-.113-2.436.595-3.216c2.183-2.4,4.025-1.5,4.025-1.5a15.111,15.111,0,0,0,2.818-.5c1.578-.51,5.356-1.689,6.4-2.875a1.5,1.5,0,0,1,2.231,0,40.167,40.167,0,0,1-5.653,4.878c-2.083,1.22-6.328,4.43-6.328,4.43Z" transform="translate(-480.853 -207.736)" fill="#f3a17a"/>
            <path id="Path_8105" data-name="Path 8105" d="M487.308,214.217s1.689-1.289,2.628-1.835a10.152,10.152,0,0,0,2.034-1.834s.2-.794-1.141-.3-1.982,1.09-3.173,1.239-3.868.9-4.463,1.835c0,0,.893-2.181,4.66-2.133,0,0,3.443-1.636,4.126-1.339S491.92,211.688,487.308,214.217Z" transform="translate(-480.409 -207.402)" fill="#d86"/>
          </g>
          <path id="Path_8106" data-name="Path 8106" d="M417.717,215.015c-7.953-.335-19.358,33.088-19.358,39.626s26.183,20.523,26.183,20.523a4.9,4.9,0,0,0,3.57-4.765l-17.437-18.74s12.479-12.261,11.982-17.139S417.717,215.015,417.717,215.015Z" transform="translate(-398.359 -174.499)" fill="#34a853"/>
          <path id="Path_8107" data-name="Path 8107" d="M482.491,433.885a14.8,14.8,0,0,1-2.1-2.74,5.035,5.035,0,0,0-4.989-2.114c-1.015.886-1.178,4.928-1.206,5.88H472.92c-.444-1.137-1.991-6.352-1.523-8.3.389-1.57,1.563-5.2,2.072-6.938a5.779,5.779,0,0,0,.282-1.407c-1.418-5.936-6.289-26.2-14.755-42.53-6.725-12.97-8.893-18.126-10.225-29.755s-11.934-40.7-11.934-40.7,14.889-40.434,21.02-15.288,6.953,55.988,7.982,62.145,10.247,49.3,15.733,67.378c1.046,3.448,6.133,10.307,8.115,11.91a.149.149,0,0,0,.051.02,7.256,7.256,0,0,1,2.637,1.4,5.751,5.751,0,0,1,.943,1.046Z" transform="translate(-391.043 -161.81)" fill="#f3a17a"/>
          <path id="Path_8108" data-name="Path 8108" d="M415.309,295.484c-1.642,25.634,3.216,31.99,5.1,42.531,1.427,7.973-2.634,19.527,1.463,32.37,2.727,8.551,8.787,44.8,8.787,44.8v15.049h10.131s-3.991-16.655-3.991-22.915c0-27.021-3.728-59.235-3.173-71.482.537-11.973,4.56-35.571,4.56-35.571Z" transform="translate(-395.2 -159.199)" fill="#d86"/>
          <path id="Path_8109" data-name="Path 8109" d="M416.462,328.2h0c1.256,6.51,3.037,10.864,4.018,16.341,1.427,7.973-2.634,19.527,1.463,32.37,1.939,6.079,5.561,26.152,7.493,37.253h7.437c0-.1-.006-.214-.006-.314,0-27.021-3.728-59.235-3.173-71.482.23-5.163,1.113-12.487,2.038-19.149,0-.032,3.54-22.777,6.33-24.43,1.681-1,15.254-37.621,15.254-37.621l-29.338,1.365s-17.089,14.2-12.6,39.477c0,0-.018.259-.041.713C414.619,314.62,415.323,322.3,416.462,328.2Z" transform="translate(-395.267 -165.724)" fill="#4285f4"/>
          <g id="Group_1737" data-name="Group 1737" transform="translate(19.776 2.591)">
            <path id="Path_8110" data-name="Path 8110" d="M420.63,184.531s17.385-5.821,20.886,6.419-.037,25.031-9.395,24.722C420.582,215.289,407.126,191.417,420.63,184.531Z" transform="translate(-414.976 -183.148)" fill="#f3a17a"/>
            <path id="Path_8111" data-name="Path 8111" d="M433.061,211.372s-.746,3.563,1.506,5.515c0,0,1.52,1.522-.787,3.091-7.236,4.921-15-.537-15-.537A28.187,28.187,0,0,0,419.264,204C420.727,204.965,425.318,203.274,433.061,211.372Z" transform="translate(-414.253 -179.184)" fill="#d86"/>
          </g>
          <path id="Path_8112" data-name="Path 8112" d="M426.765,412.848c-.255-2.149.3-5.891.3-7.7a26.042,26.042,0,0,1,1.458-6.294c2.325-2.4,6.4.149,6.4.149,1.814,2.857,2.06,5.12,3.639,6.511,1.114.981,1.228,5.412,1.2,7.34Z" transform="translate(-392.971 -139.744)" fill="#164353"/>
          <path id="Path_8113" data-name="Path 8113" d="M427.093,403.97l2.8,7.7h2.232s2.379-7.1,3.273-6.831,4.4,6.831,4.4,6.831h-13S426.078,405.8,427.093,403.97Z" transform="translate(-393 -138.574)" fill="#11393d"/>
          <path id="Path_8114" data-name="Path 8114" d="M480,412.973c-5.351-20.59-11.973-51.762-12.836-56.925-.556-3.336-1.053-13.925-2.366-26.925-.344-14.824-2.052-48.716-10.377-67.956l-19.6.46c.794,15.278-14.02,31.767,4.017,49.436,2.349,6.6,10.131,28.975,11.262,38.83,1.333,11.629,3.5,16.784,10.225,29.755,5.821,11.229,9.942,24.316,12.41,33.326Z" transform="translate(-392.373 -165.724)" fill="#4285f4"/>
          <path id="Path_8115" data-name="Path 8115" d="M476.983,412.908c-1.09,0-3.2-2.273-4.675-3.421a3.75,3.75,0,0,0-2.18-1.027c-1.016.886-1.414,3.5-1.441,4.448h-1.275c-.444-1.137-1.991-6.352-1.523-8.3a36.193,36.193,0,0,0,1.569-6.71c3.985-2.267,7.4,5.405,12.535,9.726,2.579,2.172,4.18,1.8,4.18,1.8a.314.314,0,0,0,.051.02,13.991,13.991,0,0,1,3.174.989,5.057,5.057,0,0,1,2.46,2.481Z" transform="translate(-385.535 -139.806)" fill="#164353"/>
          <path id="Path_8116" data-name="Path 8116" d="M445.516,212.655s-8.033,1.051-17.115,3.156-12.861-3.424-17.5,2.429c-6.97,8.787,4.369,24.986,10.333,33.38,2.226,3.129,6.918,11.809,7.867,20.136,0,0,15.753,4.576,29.338-1.365l1.014-19.326S469.7,229.651,445.516,212.655Z" transform="translate(-396.39 -174.947)" fill="#34a853"/>
          <path id="Path_8117" data-name="Path 8117" d="M440.329,212.68c-6.213,1.778-5.323,15,0,20.233s31.812,21.6,38.5,22.2,14.643-38,14.643-38a11.382,11.382,0,0,0-4.085-1.214l-12.794,24.039S449.364,210.1,440.329,212.68Z" transform="translate(-391.203 -174.973)" fill="#34a853"/>
          <path id="Path_8118" data-name="Path 8118" d="M439.764,183.562s7.03-1.878,8.48,3.767.7,17.065-8.826,21.355a73.551,73.551,0,0,0,.345,25.481c2.678,13.555-8.826,23.968-18.843,20.7s-8.65-11.982-8.65-11.982-6.159-7.5-4.491-20.119,8.2-17.733,8.2-17.733-4.8-10.474,0-17.7C423.7,175.717,439.764,183.562,439.764,183.562Z" transform="translate(-396.622 -180.971)" fill="#444"/>
        </g>
        <g id="Group_6226" data-name="Group 6226" transform="translate(844.387 1758)">
          <g id="Group_5720" data-name="Group 5720">
            <circle id="Ellipse_383-3" data-name="Ellipse 383" cx="15.964" cy="15.964" r="15.964" transform="translate(9952.612 -1706)" fill="#34a853"/>
            <g id="Group_5718" data-name="Group 5718" transform="translate(-219.233 -40.203)">
              <g id="Group_5715" data-name="Group 5715" transform="translate(10180 -1660)">
                <g id="Rectangle_1312" data-name="Rectangle 1312" transform="translate(0.233 0.203)" fill="#fff" stroke="#fff" stroke-width="0.2">
                  <rect width="10" height="18" rx="2" stroke="none"/>
                  <rect x="0.1" y="0.1" width="9.8" height="17.8" rx="1.9" fill="none"/>
                </g>
                <g id="Rectangle_1313" data-name="Rectangle 1313" transform="translate(1.233 2.203)" fill="#fff" stroke="#34a853" stroke-width="0.1">
                  <rect width="8" height="14" stroke="none"/>
                  <rect x="0.05" y="0.05" width="7.9" height="13.9" fill="none"/>
                </g>
                <g id="Group_5714" data-name="Group 5714" transform="translate(2.47 4.666)">
                  <line id="Line_291" data-name="Line 291" x2="3.842" fill="none" stroke="#34a853" stroke-width="1"/>
                  <line id="Line_292" data-name="Line 292" x2="3.842" transform="translate(0 1.647)" fill="none" stroke="#34a853" stroke-width="1"/>
                  <line id="Line_293" data-name="Line 293" x2="3.842" transform="translate(0 3.293)" fill="none" stroke="#34a853" stroke-width="1"/>
                  <line id="Line_294" data-name="Line 294" x2="3.293" transform="translate(0 4.94)" fill="none" stroke="#34a853" stroke-width="1"/>
                </g>
              </g>
              <g id="Group_5716" data-name="Group 5716" transform="translate(10186.038 -1656.707)">
                <g id="Rectangle_1312-2" data-name="Rectangle 1312" transform="translate(0.195 -0.09)" fill="#fff" stroke="#fff" stroke-width="0.2">
                  <rect width="10" height="18" rx="2" stroke="none"/>
                  <rect x="0.1" y="0.1" width="9.8" height="17.8" rx="1.9" fill="none"/>
                </g>
                <g id="Rectangle_1313-2" data-name="Rectangle 1313" transform="translate(1.195 1.91)" fill="#fff" stroke="#34a853" stroke-width="0.1">
                  <rect width="8" height="14" stroke="none"/>
                  <rect x="0.05" y="0.05" width="7.9" height="13.9" fill="none"/>
                </g>
                <g id="Group_5714-2" data-name="Group 5714" transform="translate(2.47 4.666)">
                  <line id="Line_291-2" data-name="Line 291" x2="3.842" fill="none" stroke="#34a853" stroke-width="1"/>
                  <line id="Line_292-2" data-name="Line 292" x2="3.842" transform="translate(0 1.647)" fill="none" stroke="#34a853" stroke-width="1"/>
                  <line id="Line_293-2" data-name="Line 293" x2="3.842" transform="translate(0 3.293)" fill="none" stroke="#34a853" stroke-width="1"/>
                  <line id="Line_294-2" data-name="Line 294" x2="3.293" transform="translate(0 4.94)" fill="none" stroke="#34a853" stroke-width="1"/>
                </g>
              </g>
            </g>
          </g>
          <g id="Group_5722" data-name="Group 5722">
            <circle id="Ellipse_383-4" data-name="Ellipse 383" cx="15.964" cy="15.964" r="15.964" transform="translate(10009 -1706)" fill="#34a853"/>
            <g id="Group_5721" data-name="Group 5721" transform="translate(0 1)">
              <g id="Group_5719" data-name="Group 5719" transform="translate(0 2)">
                <path id="Union_11" data-name="Union 11" d="M3,4,6,6ZM3,4V4L0,6Z" transform="translate(10021.5 -1690.5)" fill="none" stroke="#fff" stroke-linecap="round" stroke-linejoin="round" stroke-width="1"/>
              </g>
              <g id="Rectangle_1314" data-name="Rectangle 1314" transform="translate(10016 -1700)" fill="#fff" stroke="#fff" stroke-width="1">
                <rect width="18" height="13" stroke="none"/>
                <rect x="0.5" y="0.5" width="17" height="12" fill="none"/>
              </g>
            </g>
          </g>
        </g>
        <g id="Group_6227" data-name="Group 6227" transform="translate(2854 -412)">
          <g id="Group_2314" data-name="Group 2314" transform="translate(7804.332 216.597)">
            <path id="Path_9093" data-name="Path 9093" d="M1606.75,692.687h-51.188c-23.79,0-43.257,16.747-43.257,37.215s19.467,37.215,43.257,37.215h55.032c1.2,0,2.394-.054,3.573-.146,3.694,4.619,12.776,14.409,23.9,15.116,0,0-8.739-8.232-12.859-17.411,14.5-5.021,24.809-17.257,24.809-31.475v-3.308C1650.015,709.434,1630.55,692.687,1606.75,692.687Z" transform="translate(-1511.809 -692.257)" fill="#fff"/>
            <path id="Path_9094" data-name="Path 9094" d="M1638.176,782.643c-11.268-.716-20.5-10.62-24.107-15.1-1.167.083-2.263.127-3.327.127H1555.71c-24.128,0-43.758-16.888-43.758-37.647s19.631-37.647,43.758-37.647H1606.9c24.128,0,43.758,16.888,43.758,37.647v3.308c0,13.937-9.665,26.339-24.662,31.714a65.816,65.816,0,0,0,12.581,16.888l.85.8Zm-82.464-89.4c-23.576,0-42.757,16.5-42.757,36.784s19.181,36.785,42.757,36.785h55.032c1.125,0,2.281-.047,3.527-.145l.291-.023.174.209c3.271,4.091,11.818,13.474,22.265,14.809a64,64,0,0,1-12.105-16.7l-.174-.4.458-.158c14.879-5.152,24.5-17.352,24.5-31.076v-3.308c0-20.284-19.181-36.784-42.757-36.784Z" transform="translate(-1511.952 -692.381)" fill="#4285f4"/>
          </g>
          <g id="Group_2315" data-name="Group 2315" transform="translate(7835.908 232.808)">
            <path id="Path_9095" data-name="Path 9095" d="M1583.005,709.709h-45.7a2.9,2.9,0,0,1,0-5.8h45.7a2.9,2.9,0,1,1,0,5.8Z" transform="translate(-1534.397 -703.906)" fill="#4285f4"/>
            <path id="Path_9096" data-name="Path 9096" d="M1618.423,719.185H1537.3a2.9,2.9,0,1,1,0-5.8h81.12a2.9,2.9,0,1,1,0,5.8Z" transform="translate(-1534.401 -700.052)" fill="#4285f4"/>
            <path id="Path_9097" data-name="Path 9097" d="M1604.126,737.852h-66.819a2.9,2.9,0,1,1,0-5.8h66.819a2.9,2.9,0,1,1,0,5.8Z" transform="translate(-1534.399 -692.462)" fill="#4285f4"/>
            <path id="Path_9098" data-name="Path 9098" d="M1561.785,728.661H1537.3a2.9,2.9,0,0,1,0-5.8h24.481a2.9,2.9,0,1,1,0,5.8Z" transform="translate(-1534.401 -696.199)" fill="#4285f4"/>
          </g>
        </g>
      </g>
      <path id="Path_13828" data-name="Path 13828" d="M312.954,74.582l-2.26,4.13-4.13,2.26,4.13,2.257,2.26,4.13,2.26-4.13,4.13-2.257-4.13-2.26Z" transform="translate(10516.992 -173.582)" fill="#4285f4"/>
      <path id="Path_13829" data-name="Path 13829" d="M138.984,170.269l-2.26,4.13-4.13,2.26,4.13,2.257,2.26,4.13,2.26-4.13,4.13-2.257-4.13-2.26Z" transform="translate(10623.342 -249.953)" fill="#4285f4"/>
      <path id="Path_13830" data-name="Path 13830" d="M327.536,90.357l-1.39,2.54-2.535,1.387,2.535,1.388,1.39,2.537,1.39-2.537,2.535-1.388L328.926,92.9Z" transform="translate(10535.542 -120.72)" fill="#4285f4"/>
    </g>
  </g>
</svg>
