<svg xmlns="http://www.w3.org/2000/svg" width="77.121" height="68.988" viewBox="0 0 77.121 68.988">
  <g id="Group_4681" data-name="Group 4681" transform="translate(-3672 -916.602)">
    <g id="Group_4674" data-name="Group 4674" transform="translate(2615.473 87)">
      <g id="video-call" transform="translate(1056.527 829.602)">
        <g id="Group_636" data-name="Group 636" transform="translate(0 0)">
          <g id="Group_635" data-name="Group 635">
            <path id="Path_1375" data-name="Path 1375" d="M66.577,27H10.544A10.556,10.556,0,0,0,0,37.544V73.695A10.556,10.556,0,0,0,10.544,84.239H25.833a1.506,1.506,0,0,0,0-3.013H10.544a7.54,7.54,0,0,1-7.531-7.531V37.544a7.54,7.54,0,0,1,7.531-7.531H66.577a7.54,7.54,0,0,1,7.531,7.531V73.695a7.54,7.54,0,0,1-7.531,7.531H55.561a1.506,1.506,0,0,0-1.506,1.506v8.113l-9.178-9.178a1.507,1.507,0,0,0-1.065-.441H40.218a1.506,1.506,0,1,0,0,3.013h2.971L54.5,95.546a1.506,1.506,0,0,0,2.571-1.065V84.239h9.51A10.556,10.556,0,0,0,77.121,73.695V37.544A10.556,10.556,0,0,0,66.577,27Z" transform="translate(0 -27)" fill="#1a73e8"/>
          </g>
        </g>
        <g id="Group_638" data-name="Group 638" transform="translate(30.909 54.226)">
          <g id="Group_637" data-name="Group 637">
            <path id="Path_1376" data-name="Path 1376" d="M207.771,387.441a1.505,1.505,0,1,0,.441,1.065A1.517,1.517,0,0,0,207.771,387.441Z" transform="translate(-205.2 -387)" fill="#1a73e8"/>
          </g>
        </g>
        <g id="Group_640" data-name="Group 640" transform="translate(8.045 12.05)">
          <g id="Group_639" data-name="Group 639">
            <path id="Path_1377" data-name="Path 1377" d="M113.527,107.21a1.507,1.507,0,0,0-1.491-.025L97.4,115.206v-.629a6.982,6.982,0,0,0-6.974-6.974H60.386a6.982,6.982,0,0,0-6.974,6.974v17.985a6.982,6.982,0,0,0,6.974,6.974H90.421a6.982,6.982,0,0,0,6.974-6.974v-.629l14.64,8.021a1.506,1.506,0,0,0,2.23-1.321V108.506A1.507,1.507,0,0,0,113.527,107.21ZM94.383,117.749v14.813a3.966,3.966,0,0,1-3.961,3.961H60.386a3.966,3.966,0,0,1-3.961-3.961v-.256H67.789a1.506,1.506,0,1,0,0-3.013H56.425V114.576a3.966,3.966,0,0,1,3.961-3.961H90.421a3.966,3.966,0,0,1,3.961,3.961Zm16.87,18.34L97.4,128.5v-9.856l13.858-7.592Z" transform="translate(-53.412 -107)" fill="#1a73e8"/>
          </g>
        </g>
        <g id="Group_642" data-name="Group 642" transform="translate(26.145 34.343)">
          <g id="Group_641" data-name="Group 641">
            <path id="Path_1378" data-name="Path 1378" d="M175.089,255h-.015a1.514,1.514,0,1,0,.015,0Z" transform="translate(-173.575 -255)" fill="#1a73e8"/>
          </g>
        </g>
      </g>
    </g>
  </g>
</svg>
