<svg xmlns="http://www.w3.org/2000/svg" xmlns:xlink="http://www.w3.org/1999/xlink" width="375.507" height="299.212" viewBox="0 0 375.507 299.212">
  <defs>
    <linearGradient id="linear-gradient" x1="0.5" x2="0.5" y2="1" gradientUnits="objectBoundingBox">
      <stop offset="0" stop-color="#e9f2fe"/>
      <stop offset="1" stop-color="#c6d9fb"/>
    </linearGradient>
    <linearGradient id="linear-gradient-2" y1="0.5" x2="1" y2="0.5" gradientUnits="objectBoundingBox">
      <stop offset="0" stop-color="#0e62ef"/>
      <stop offset="0.38" stop-color="#2b74ee"/>
      <stop offset="1" stop-color="#4285f4"/>
    </linearGradient>
    <linearGradient id="linear-gradient-3" y1="0.5" x2="1" y2="0.5" gradientUnits="objectBoundingBox">
      <stop offset="0" stop-color="#035ff8"/>
      <stop offset="1" stop-color="#4285f4"/>
    </linearGradient>
    <linearGradient id="linear-gradient-4" x1="0.5" x2="0.5" y2="1" gradientUnits="objectBoundingBox">
      <stop offset="0" stop-color="#fbbc05"/>
      <stop offset="1" stop-color="#ebb109"/>
    </linearGradient>
    <linearGradient id="linear-gradient-5" x1="-0.147" y1="0.264" x2="0.707" y2="0.574" gradientUnits="objectBoundingBox">
      <stop offset="0" stop-color="#f2bfad"/>
      <stop offset="1" stop-color="#f2dad4"/>
    </linearGradient>
    <linearGradient id="linear-gradient-6" x1="0.312" y1="0.459" x2="0.781" y2="0.753" gradientUnits="objectBoundingBox">
      <stop offset="0" stop-color="#56af6e"/>
      <stop offset="1" stop-color="#34a853"/>
    </linearGradient>
  </defs>
  <g id="Group_4882" data-name="Group 4882" transform="translate(-2372.547 1168.104)">
    <ellipse id="floor" cx="187.754" cy="26.755" rx="187.754" ry="26.755" transform="translate(2372.547 -922.402)" fill="url(#linear-gradient)"/>
    <g id="Group_4881" data-name="Group 4881" transform="translate(0 13)">
      <path id="Path_1382" data-name="Path 1382" d="M628.954,838.867a7.871,7.871,0,0,0-1.886,4.267c-.144,1.823-.607,6.247-.279,6.643s5.221.936,5.4.725-.094-1.35.5-1.152,3.879,1.895,6.377,2.016,10.8.212,11.909-.149,4.3-1.508,4.3-1.926-.815-2.615-2.345-2.736-4.3-.032-5.477-.815-6.071-6.917-7.007-7.156S628.954,838.867,628.954,838.867Z" transform="translate(1801.861 -1764.457)" fill="url(#linear-gradient-2)"/>
      <path id="Path_1383" data-name="Path 1383" d="M631,647.155c-.554,6.926,1.04,38,1.422,41.059s-2.772,34.5-2.772,36.99-.261,8.389,1.017,10.77c.725,1.35,5.806-2.763,8.272-2.547s4.051.274,4.168-1.04-2.084-14.2-.986-16.945,6.26-22.57,6.917-30.923,5.536-33.3,6.058-36.77S631,647.155,631,647.155Z" transform="translate(1800.235 -1658.602)" fill="#ea4335"/>
      <path id="Path_1384" data-name="Path 1384" d="M619.924,847.447a7.808,7.808,0,0,0-1.881,4.266c-.149,1.8-.612,6.242-.284,6.643s5.221.936,5.4.725-.094-1.35.509-1.152,3.88,1.895,6.373,2.016,10.8.211,11.909-.153,4.3-1.5,4.3-1.922-.81-2.619-2.345-2.736-4.3-.031-5.473-.815-6.076-6.917-7.007-7.156S619.924,847.447,619.924,847.447Z" transform="translate(1806.827 -1769.175)" fill="url(#linear-gradient-3)"/>
      <path id="Path_1385" data-name="Path 1385" d="M621.978,655.729c-.554,6.926,1.04,38,1.422,41.059s-2.768,34.5-2.768,36.986-.266,8.394,1.013,10.774c.729,1.35,5.806-2.768,8.272-2.547s4.051.275,4.172-1.04-2.088-14.2-.99-16.949,6.26-22.566,6.917-30.919,5.536-33.3,6.058-36.774S621.978,655.729,621.978,655.729Z" transform="translate(1805.196 -1663.314)" fill="#ea4335"/>
      <path id="Path_1386" data-name="Path 1386" d="M704.57,570.915c.63-.41,2.984-2.7,3.772-3.263s3.663-3.11,3.956-3.4.977-.684,1.35-.221-.369,2.448-1.589,3.2-2.2,1.71-1.886,2.2a4.326,4.326,0,0,0,4.352,1.175c2.394-.563,5.5-1.665,5.918-1.737s1.445-.32,1.8.414,1.1.077,1.3.783-4.991,3.15-6.481,3.816-7.48,3.668-8.875,3.812S704.57,570.915,704.57,570.915Z" transform="translate(1759.023 -1613.384)" fill="#f2dad4"/>
      <path id="Path_1387" data-name="Path 1387" d="M646.142,461.323c1.152.963,4.789,4.829,4.42,5.473s-.873,2.025-.32,2.534,3.15,3.357,2.759,4-1.841.23-2.025.923.689,4.694,0,5.707-4.879,2.574-5.477,3.083-1.656,4.415-2.025,3.911-3.682-4.1-5.2-4.924-4.28-1.566-4.325-1.98,0-4.555-.968-5.891-3.6-4.415-2.624-8.1,2.993-6.166,8.376-6.49S646.142,461.323,646.142,461.323Z" transform="translate(1799.952 -1556.035)" fill="#f2dad4"/>
      <path id="Path_1388" data-name="Path 1388" d="M627.99,458.72c4.122-3.3,10.441-4.757,13.614-2.7s3.042,4.3.333,4.762-4.825,1.188-4.892,2.642,2.777,2.25,2.907,2.777-1.58,3.362-.86,4.141a13.013,13.013,0,0,1,2.079,3.519c.112.761-.387,2.066.221,2.039s1.98-1.377,3.276-1.1,2.754,2.529,3.056,2.421-.743-1.377.194-1.679,2.174,2.561,1.679,3.551-2.25,3.8-4.9,2.862-5.68-2.889-6.062-3.744a3.826,3.826,0,0,1,.216-2.943c.45-.828.419-3.636-.68-4.6s-2.619-1.544-3.69-1.13-1.6,1.17-1.058,2.6,1.737,1.8,1.431,2.147a16.03,16.03,0,0,1-2.669,2.286c-.855.45-2.205.45-2.426.054s-.162-2.25-1.265-3.411-3.542-3.366-3.7-6.823A9.208,9.208,0,0,1,627.99,458.72Z" transform="translate(1802.911 -1553.58)" fill="#707070"/>
      <path id="Path_1389" data-name="Path 1389" d="M624.272,504.559c-.644-.126-1.823-.486-1.845-.09a27.477,27.477,0,0,1-1.688,5c-.5.77-7.4,7.367-8.4,14.042s2.439,24.33,2.8,29.353-.36,18.88-.428,21.535,4.231.5,7.246.5,20.136,2.795,21.571,1.931,3.011-3.227,2.151-8.394-5.027-28.633-5.113-30.883S637.23,522.8,636.9,522.048s-.374-3.749-.9-5.153-2.079-6.193-3.1-7.16S628.467,505.378,624.272,504.559Z" transform="translate(1809.846 -1580.648)" fill="#fbbc05"/>
      <path id="Path_1390" data-name="Path 1390" d="M625.053,526.49c-4.154.148-6.926,6.818-6.3,11.922s8.056,28.3,12.08,29.254,26.31-6.391,27.332-6.926,3.744-1.67,3.6-2.4a44.674,44.674,0,0,0-2.75-7.2c-.671-.869-1.089-1.566-2.016-1.184s-18.556,8.124-20.2,6.031-2.781-10.7-2.358-14.334S635.522,526.116,625.053,526.49Z" transform="translate(1806.266 -1592.852)" fill="url(#linear-gradient-4)"/>
    </g>
    <rect id="Rectangle_268" data-name="Rectangle 268" width="12.678" height="5.468" rx="2.734" transform="translate(2520.741 -1117.566) rotate(180)" fill="#22377a"/>
    <rect id="Rectangle_269" data-name="Rectangle 269" width="12.678" height="5.468" rx="2.734" transform="translate(2463.957 -1117.566) rotate(180)" fill="#4285f4"/>
    <path id="Path_1391" data-name="Path 1391" d="M719.226,400.58H747.58a2.736,2.736,0,0,1,2.732,2.736h0a2.732,2.732,0,0,1-2.732,2.732H719.226a2.736,2.736,0,0,1-2.736-2.732h0A2.736,2.736,0,0,1,719.226,400.58Z" transform="translate(1752.467 -1523.614)" fill="#fbbc05"/>
    <path id="Path_1392" data-name="Path 1392" d="M2.736,0h25.2a2.732,2.732,0,0,1,2.732,2.732h0A2.732,2.732,0,0,1,27.94,5.468H2.736A2.736,2.736,0,0,1,0,2.732H0A2.732,2.732,0,0,1,2.732,0Z" transform="translate(2513.868 -1126.981) rotate(180)" fill="#4285f4"/>
    <path id="Path_1393" data-name="Path 1393" d="M2.736,0H19.172A2.732,2.732,0,0,1,21.9,2.732h0a2.736,2.736,0,0,1-2.736,2.736H2.736A2.736,2.736,0,0,1,0,2.732H0A2.736,2.736,0,0,1,2.736,0Z" transform="translate(2476.82 -1126.985) rotate(180)" fill="#fbbc05"/>
    <rect id="Rectangle_270" data-name="Rectangle 270" width="12.678" height="5.468" rx="2.734" transform="translate(2663.314 -1082.556) rotate(180)" fill="#4285f4"/>
    <path id="Path_1394" data-name="Path 1394" d="M2.732,0h7.2a2.736,2.736,0,0,1,2.736,2.736h0A2.736,2.736,0,0,1,9.933,5.473h-7.2A2.732,2.732,0,0,1,0,2.741H0A2.732,2.732,0,0,1,2.732,0Z" transform="translate(2606.531 -1082.556) rotate(180)" fill="#22377a"/>
    <path id="Path_1395" data-name="Path 1395" d="M1036.032,478.37h28.354a2.736,2.736,0,0,1,2.736,2.736h0a2.736,2.736,0,0,1-2.736,2.732h-28.354a2.732,2.732,0,0,1-2.732-2.732h0A2.736,2.736,0,0,1,1036.032,478.37Z" transform="translate(1578.24 -1566.394)" fill="#fbbc05"/>
    <path id="Path_1396" data-name="Path 1396" d="M2.736,0h25.2a2.736,2.736,0,0,1,2.736,2.736h0A2.736,2.736,0,0,1,27.94,5.473H2.736A2.736,2.736,0,0,1,0,2.736H0A2.732,2.732,0,0,1,2.732,0Z" transform="translate(2656.46 -1091.975) rotate(180)" fill="#4285f4"/>
    <path id="Path_1397" data-name="Path 1397" d="M2.741,0H19.177a2.732,2.732,0,0,1,2.732,2.732h0a2.736,2.736,0,0,1-2.736,2.736H2.736A2.736,2.736,0,0,1,0,2.736H0A2.736,2.736,0,0,1,2.736,0Z" transform="translate(2619.402 -1091.971) rotate(180)" fill="#ffb028"/>
    <g id="Group_4868" data-name="Group 4868" transform="translate(562 473)">
      <path id="Rectangle_1012" data-name="Rectangle 1012" d="M15.828,0H120.257a16.026,16.026,0,0,1,15.828,16.218V265.407a16.027,16.027,0,0,1-15.828,16.218H15.828A16.026,16.026,0,0,1,0,265.406V16.218A16.026,16.026,0,0,1,15.828,0Z" transform="translate(1933.274 -1641.104)" fill="#213458"/>
      <path id="Path_11118" data-name="Path 11118" d="M13.9,0H120.808a13.9,13.9,0,0,1,13.9,13.9V264.439a13.9,13.9,0,0,1-13.9,13.9H13.9A13.9,13.9,0,0,1,0,264.439V13.9A13.9,13.9,0,0,1,13.9,0Z" transform="translate(1931.563 -1637.816)" fill="#4285f4"/>
      <path id="Path_11117" data-name="Path 11117" d="M1.217,0H119.711a1.217,1.217,0,0,1,1.217,1.217V218.252a1.217,1.217,0,0,1-1.217,1.217H1.217A1.217,1.217,0,0,1,0,218.251V1.217A1.217,1.217,0,0,1,1.217,0Z" transform="translate(1938.452 -1608.986)" fill="#fff"/>
      <path id="Path_7953" data-name="Path 7953" d="M7.743,2.984A1.492,1.492,0,1,1,7.743,0H35.379a1.492,1.492,0,1,1,0,2.984ZM2.764,0a1.492,1.492,0,0,1,0,2.984H1.493A1.492,1.492,0,1,1,1.493,0Z" transform="translate(1980.48 -1623.143)" fill="#e6e0de" fill-rule="evenodd"/>
      <path id="Path_7954" data-name="Path 7954" d="M9.762,19.524A9.761,9.761,0,1,0,0,9.762a9.761,9.761,0,0,0,9.762,9.762Z" transform="translate(1989.154 -1385.191)" fill="#fff" fill-rule="evenodd"/>
      <g id="Group_1705" data-name="Group 1705" transform="translate(1946.169 -1604.024)">
        <path id="Path_7967" data-name="Path 7967" d="M.36.726A.363.363,0,1,1,.36,0H8.3a.363.363,0,0,1,0,.726Zm0,5.214a.361.361,0,0,1,0-.723H8.3a.361.361,0,1,1,0,.723Zm0-2.607a.361.361,0,1,1,0-.723H8.3a.363.363,0,0,1,0,.726Z" transform="translate(0.003 0)" fill="#4285f4" fill-rule="evenodd"/>
        <path id="Path_7968" data-name="Path 7968" d="M10.647.324ZM1.1.723H5.762V4.475H1.1a.366.366,0,0,1-.264-.11A.372.372,0,0,1,.723,4.1v-3A.378.378,0,0,1,1.1.723ZM9.869,0H1.1A1.1,1.1,0,0,0,0,1.1v3A1.1,1.1,0,0,0,1.1,5.2H9.869a1.1,1.1,0,0,0,.753-.3l.025-.022A1.1,1.1,0,0,0,10.97,4.1v-3A1.1,1.1,0,0,0,9.869,0Z" transform="translate(94.523 0.37)" fill="#4285f4" fill-rule="evenodd"/>
      </g>
    </g>
    <path id="Path_11196" data-name="Path 11196" d="M834.892,573.86c-2.178-.333-10,4.433-10.063,6.35s4.834,10.527,5.365,11.913,8.6,19.528,11.647,21.247,4.7-21.378,3.641-22.7a32.878,32.878,0,0,1-5.428-8.011C838.07,578.356,837.057,574.188,834.892,573.86Z" transform="translate(1692.887 -1618.899)" fill="#e93626"/>
    <path id="Path_11197" data-name="Path 11197" d="M889.889,770.772H914.72c-.634-11.945-3-38.562-4.517-45.429-1.9-8.721-3.643-26.321-6.974-26.8s-45.81,3.489-45.81,3.489c-2.166,4.911-3.806,23.307-1.113,36.947,1.678,8.49,4.774,22.087,7.021,31.789h24.583c-1.006-6.816-2.141-14.95-1.644-15.139S888.3,763.948,889.889,770.772Z" transform="translate(1677.879 -1687.457)" fill="#6ea0f2"/>
    <path id="Path_11198" data-name="Path 11198" d="M893.512,484.107c1.755.162,4.474-.743,4.847,0s2.664,4.9,4.051,6.233,10.351,2.349,13.34,5.59c3.677,3.974-4.015,68.652-2.7,74.836s5.23,13.835,1.926,13.835S880,591.059,871.891,590s-23.569.639-22.953-2.25,5.707-23.889,6.008-30.041,2.345-27.336,4.357-36.059,8.628-16.684,9-17.449-1.148-1.8-.288-3.357,10.738-10.927,13.137-12.269S893.512,484.107,893.512,484.107Z" transform="translate(1679.638 -1569.386)" fill="#ea4335"/>
    <path id="Path_11199" data-name="Path 11199" d="M948.944,413.055c2.493-2.579,11.22,1.413,11.22,10.171,0,7.156-5.324,10.009-7.489,10.4s-4.253.774-5.257,0S944.385,417.758,948.944,413.055Z" transform="translate(1626.2 -1530.049)" fill="#707070"/>
    <path id="Path_11200" data-name="Path 11200" d="M906.24,458.953c.689.824,3.7,6.629,4.208,9.546s.171,3.65.563,3.425,13.925-11.4,14.6-11.9-.4-2.975-.788-3.816-.054-5.612,0-6.571-.743-11.251-4.411-10.518S906.24,458.953,906.24,458.953Z" transform="translate(1648.116 -1544.785)" fill="url(#linear-gradient-5)"/>
    <path id="Path_11201" data-name="Path 11201" d="M901.817,387.634c7.34.369,14.114,6.989,15.414,12.57,2.25,9.64-1.148,16.81-2.664,18.9s-2.439,2.786-2.439,4.262-3.083-1.89-3.15-3.456-7.966-6.881-10.468-7.894-9.294-12.093-11.544-12.732a7.712,7.712,0,0,1-4.118-3.114C882.725,395.757,886.645,386.873,901.817,387.634Z" transform="translate(1660.982 -1516.469)" fill="#707070"/>
    <path id="Path_11202" data-name="Path 11202" d="M878.367,405.681c-2.061.338-4.424,12.624-4.294,14.478s3.97,21.657,7.241,22.746,14.285-3.524,16.72-7.75.833-6.985,1.922-6.6,4.807-1.409,5.707-5.315.509-8.011-2.759-7.881-5.059,5.828-6.085,5.765-3.267-5.063-5.257-5.576-1.665-6.148-4.226-7.43S881.891,405.1,878.367,405.681Z" transform="translate(1665.808 -1526.356)" fill="#f2dad4"/>
    <path id="Path_11203" data-name="Path 11203" d="M886.256,403.552c-3.4,3.065-16.909,11.954-17.246,11.584s4.559-11.458,7.61-14.991C879.379,396.954,886.256,403.552,886.256,403.552Z" transform="translate(1668.599 -1522.896)" fill="#707070"/>
    <path id="Path_11204" data-name="Path 11204" d="M830.283,554.342s-2.385-4.861-.941-7.138,9.807-9.676,13.268-11.382,5.428-3.15,8.272-2.889,7.336.671,7.336.936-.306,2.133-1.35,2.4a9.969,9.969,0,0,1-3.884-.112c-.761-.23-3.547-.608-3.6-.23s5.18,4.343,5.9,5.374,1.674,2.439,1.35,3.087-4.726,4.343-6.17,4.19-4.537-2.057-6.022-2.021-6.634,2.286-6.841,3.15-.423,1.625-.423,1.625C835.233,551.245,831.093,553.734,830.283,554.342Z" transform="translate(1690.661 -1596.383)" fill="#f2dad4"/>
    <path id="Path_11205" data-name="Path 11205" d="M917.874,728.84c0,1.287.059,6.44-1.062,8.551s-4.2,7.935-4.37,10.662-.261,8.488.977,10.131,4.361,4.757,5.239,4.757,5.32-1.517,5.563-3.119-2.2-2.88-2.2-4.4-.041-5.356.158-5.4,1,5.239,1.08,5.72.563,2.439,2.043,2.358.558-3.519.477-4.762-.081-6.116.6-8.16a32.854,32.854,0,0,0,1.35-7.651c.117-2.4.36-6.04,0-6.679S917.874,728.84,917.874,728.84Z" transform="translate(1644.758 -1704.138)" fill="#f2dad4"/>
    <path id="Path_11206" data-name="Path 11206" d="M954.773,510.275c1.121,1.935,7.952,18.956,3.92,33.484s-21.927,76-24.569,75.326-11.607-3.906-14.019-4.023,18.682-90.777,19.924-93.652C943.2,514.056,953.653,508.34,954.773,510.275Z" transform="translate(1640.596 -1583.731)" fill="#e93626"/>
    <path id="Path_11208" data-name="Path 11208" d="M837.43,807.573h-2.354l-.45-.662a.274.274,0,0,0-.229-.121h-3.6a.283.283,0,0,0-.234.121l-.45.662h-2.358a.284.284,0,0,0-.284.284v6.382a.284.284,0,0,0,.284.284h9.676a.284.284,0,0,0,.279-.284v-6.382a.284.284,0,0,0-.279-.284Zm-.27,6.382h-9.127V808.14h2.219a.288.288,0,0,0,.229-.122l.45-.666h3.294l.45.666a.3.3,0,0,0,.234.122h2.25Z" transform="translate(1691.435 -1747.006)" fill="#fff"/>
    <path id="Path_11209" data-name="Path 11209" d="M836.208,810.59a2.156,2.156,0,1,0,1.152,3.974.279.279,0,0,0,.086-.387.284.284,0,0,0-.387-.09,1.593,1.593,0,1,1,.693-1.7l-.279-.356a.284.284,0,0,0-.4-.045.279.279,0,0,0-.045.4l.842,1.067a.284.284,0,0,0,.221.108.274.274,0,0,0,.225-.112l.81-1.067a.283.283,0,0,0-.45-.342l-.347.45A2.147,2.147,0,0,0,836.208,810.59Z" transform="translate(1687.818 -1749.096)" fill="#fff"/>
    <rect id="Rectangle_1100" data-name="Rectangle 1100" width="52.387" height="40.19" rx="10.72" transform="translate(2588.609 -1018.288)" fill="#f1f3f4" stroke="#4285f4" stroke-width="3"/>
    <path id="Path_11212" data-name="Path 11212" d="M1012.635,617.069s-4.262,4.663-4.631,6.269,1.323,1.661.311,2.8-3.474,3.38-3.15,4.159,1.508.747,1.665,1.1a9.441,9.441,0,0,1,.288,4.28c-.41,1.418-1.283,4.132.108,4.465s6.539.356,7.2,2.057,2.345,5.522,2.345,5.522c.972,0,6.616-10.014,8.173-10.293s1.827-.689,1.931-1.35,2.417-15.622,1.076-17.345S1015.642,613.878,1012.635,617.069Z" transform="translate(1593.729 -1643.914)" fill="#f2dad4"/>
    <path id="Path_11213" data-name="Path 11213" d="M1033.746,621.707c.558-3.461.086-5.585-5.131-9.631s-13.7-2.178-15.2-1.35a1.8,1.8,0,0,0-.378,3.02,2.066,2.066,0,0,0,1.04.171h.36c.5,0,1.094-.041,1.688-.063h1.98a1.109,1.109,0,0,1,.3.027h.059l.239.036h.049l.239.054h.045l.18.068h.027a.827.827,0,0,1,.148.094l.027.027a.419.419,0,0,1,.1.122c.527,1.044-.977,3.065-2.061,4.114s.491,1.8,1.35,3.4-.7,6.247-1.67,8.443-2.588,1.193-3.893,1.2-1.53.842-2.25,1.292a3.259,3.259,0,0,1-1.8,0,.6.6,0,0,0-.7.45c-.4,1.449-.792,3.339.356,3.6s4.748.338,6.422,1.265a.594.594,0,0,0,.563,0,20.025,20.025,0,0,0,3.776-2.858c1.287-1.229,1.089-3.222.99-4.24a22.4,22.4,0,0,1,.6-5.743c.45-1.413,2.538-2.831,4.136-2.25s1.625,6.035.932,7.16-.234,2.826.531,2.952a2.932,2.932,0,0,0,2.016-.666c.077-.45-.058-.968,2.021-3.335S1033.188,625.163,1033.746,621.707Z" transform="translate(1592.101 -1640.545)" fill="#707070"/>
    <path id="Path_11214" data-name="Path 11214" d="M1041.228,689.536c-.391-3.175-.792-6.029-1.179-8.214-1.886-10.683-7.579-15.118-8.808-15.965s-1.413-2.556-2.48-3.427-2.286,0-3.6.751-5.3,8.113-5.486,9.062-2.376-1.773-2.376-1.773c-1.26.655-1.737,2.139-3.038,3.3s-4.672,8.878-5.756,14.2a19.118,19.118,0,0,0-.274,2.052Z" transform="translate(1590.027 -1669.141)" fill="url(#linear-gradient-6)"/>
    <path id="Path_11215" data-name="Path 11215" d="M1039.255,704.042a9.576,9.576,0,0,0,.869-2.277c1.242-5.482-.3-10.585-2.574-11.9s-5.851-1.773-9.9,1.125c-3.673,2.651-6.247,9.514-8.218,13.052Z" transform="translate(1583.868 -1683.647)" fill="url(#linear-gradient-6)"/>
    <rect id="Rectangle_1101" data-name="Rectangle 1101" width="52.387" height="40.19" rx="10.72" transform="translate(2526.871 -1018.288)" fill="#f1f3f4" stroke="#4285f4" stroke-width="3"/>
    <path id="Path_11216" data-name="Path 11216" d="M894.2,701.686c-.05-.927-.108-1.853-.207-2.779-1.157-10.9-8.583-15.286-8.583-15.286s-10.419,2.511-12.151,3.669c-1.458.977-6,9.7-8.479,14.406Z" transform="translate(1670.916 -1681.27)" fill="#fbbc05"/>
    <path id="Path_11217" data-name="Path 11217" d="M903.189,705.738a7.65,7.65,0,0,0,.347-2.016c.248-6.049-1.112-10.171-7.79-11.7-2.624-.558-5.126,1.283-6.134,5.221-.315,1.224-1.13,4.5-2.25,8.52Z" transform="translate(1658.499 -1685.322)" fill="#f2dad4"/>
    <path id="Path_11218" data-name="Path 11218" d="M860.143,623.2a12.338,12.338,0,0,0-.491,6.359s-2.066,5.05-1.9,5.594,2.282.378,2.282.977,1.9,4.348,1.742,5.378.486,2.174,2.174,2.12,2.984-.869,3.69,1.35,2.727,6.031,2.421,6.895-2.552,5.4-2.651,6.994c0,0,1.274-.36,3.416-4.051s11.337-5.23,10.716-5.792-1.683-3.317-2.4-5.563-1.427-9.285-1.17-10.563,1.17-9.951-4.087-11.328S861.246,620.339,860.143,623.2Z" transform="translate(1674.788 -1646.68)" fill="#f2dad4"/>
    <path id="Path_11219" data-name="Path 11219" d="M862.433,617.534c-.765-1.989.117-2.8,1.454-4.654s3.186-1.53,4.681-2.318a9.266,9.266,0,0,1,6.917-1.3c3.614.63,5.747,3.812,7.264,5.581a11.611,11.611,0,0,1,3.317,8.628c-.072,4.577-2.057,8.731-3.735,8.938s-5.648-.873-4.834-2.8c3.227-7.651-2.147-7.592-3.727-6.827S864.369,622.17,862.433,617.534Z" transform="translate(1672.363 -1640.279)" fill="#707070"/>
    <path id="Path_11220" data-name="Path 11220" d="M906.41,624.214a1.449,1.449,0,0,1,1.638-1.652,14.869,14.869,0,0,1,4.609,1.206c1.544.977,4.5,3.7,4.5,9.258s-1.422,17.552-.383,22.467a26.784,26.784,0,0,0,2.439,6.863.45.45,0,0,1-.6.63c-2.516-1.161-7.989-4.37-8.628-10.513-.833-8.011,2.187-24.654.315-26.1a4.168,4.168,0,0,0-2.511-.9,1.431,1.431,0,0,1-1.382-1.229Z" transform="translate(1648.031 -1647.683)" fill="#707070"/>
    <rect id="Rectangle_1102" data-name="Rectangle 1102" width="52.387" height="40.19" rx="10.72" transform="translate(2651.032 -1018.288)" fill="#f1f3f4" stroke="#4285f4" stroke-width="3"/>
    <path id="Path_11221" data-name="Path 11221" d="M1148.917,629.034s-.45,6.787.189,7.971-1.247,5.234-1.062,5.666,2.25,0,2.367.747,1.931,6.791,3.988,6.854,4.3-1.931,4.3-1.931l1.494,2.8s5.545-5.851,9.9-6.917c0,0,0-.684-.189-2.988S1161.227,619,1148.917,629.034Z" transform="translate(1512.144 -1649.708)" fill="#f2dad4"/>
    <path id="Path_11222" data-name="Path 11222" d="M1136.67,614.114a8.359,8.359,0,0,0,5.482.189c2.615-.995,13.83-7.975,18.749-3.551s4.235,13.268,3.362,15.82.252,6.413-.122,6.355-6.17-1.062-6.6-4.177-1.994-7.786-4.613-7.16-.644,7.016-1.742,7.1-1.058-6.224-2.615-6.539-3.177-.684-2.93-1.557-2.988-.495-4.357-1.184S1135.86,616.292,1136.67,614.114Z" transform="translate(1518.45 -1640.396)" fill="#707070"/>
    <path id="Path_11223" data-name="Path 11223" d="M1188.6,692.077c-.027-.61-.063-1.2-.1-1.758-.788-12.224-9-19.657-9.451-20.222s.617-1.689.617-1.689l-1.643-2.152s-.585-.592-4.051,1.464c-3.15,1.881-8.2,6.846-9.573,9.549-.49.959-1.733,7.108-3.069,14.807Z" transform="translate(1504.831 -1671.677)" fill="#fbbc05"/>
    <path id="Path_11224" data-name="Path 11224" d="M1185.929,702.936h14.294c-.635-6.269-1.616-10.8-3.578-12.948-2.912-3.15-6.409-3.744-8.74-2.664a7.37,7.37,0,0,0-3.483,8.484S1185.168,699.007,1185.929,702.936Z" transform="translate(1492.267 -1682.537)" fill="#fbbc05"/>
  </g>
</svg>
