<svg xmlns="http://www.w3.org/2000/svg" width="70.085" height="58.805" viewBox="0 0 70.085 58.805">
  <g id="Group_4676" data-name="Group 4676" transform="translate(-3807 -1312.789)">
    <path id="Path_10733" data-name="Path 10733" d="M22.477,70.688H24.53v39.469H22.477Zm0,0" transform="translate(3787.6 1251.777)" fill="#1a73e8"/>
    <path id="Path_10734" data-name="Path 10734" d="M474.523,70.688h2.053v39.469h-2.053Zm0,0" transform="translate(3397.432 1251.777)" fill="#1a73e8"/>
    <path id="Path_10735" data-name="Path 10735" d="M334.8,266.448a4.669,4.669,0,1,0-4.67-4.669A4.674,4.674,0,0,0,334.8,266.448Zm0-7.285a2.616,2.616,0,1,1-2.616,2.616A2.619,2.619,0,0,1,334.8,259.163Zm0,0" transform="translate(3522.061 1090.874)" fill="#1a73e8"/>
    <path id="Path_10736" data-name="Path 10736" d="M104.583,150.285a4.67,4.67,0,1,0,4.67,4.67A4.675,4.675,0,0,0,104.583,150.285Zm0,7.286a2.616,2.616,0,1,1,2.616-2.616A2.619,2.619,0,0,1,104.583,157.571Zm0,0" transform="translate(3720.763 1183.076)" fill="#1a73e8"/>
    <path id="Path_10737" data-name="Path 10737" d="M333.777,156.289l3.679-3.679,3.679,3.679,1.452-1.452-3.679-3.679,3.679-3.679-1.452-1.452-3.679,3.679-3.679-3.679-1.452,1.452L336,151.158l-3.679,3.679Zm0,0" transform="translate(3520.166 1186.751)" fill="#1a73e8"/>
    <path id="Path_10738" data-name="Path 10738" d="M149.746,163.1a28.923,28.923,0,0,0-4.011,8.477l1.992.5a27.376,27.376,0,0,1,3.75-7.87,19.985,19.985,0,0,1,13.509-8.891l-2.855,4.623,1.747,1.079,4.653-7.535L161,148.832l-1.078,1.747,4.467,2.759a22.294,22.294,0,0,0-14.638,9.765Zm0,0" transform="translate(3681.215 1184.33)" fill="#1a73e8"/>
    <path id="Path_10739" data-name="Path 10739" d="M0,0V7.965H70.089V0ZM68.036,5.912H2.057V2.053H68.036Zm0,0" transform="translate(3806.997 1312.789)" fill="#1a73e8"/>
    <path id="Path_10740" data-name="Path 10740" d="M0,379.372H70.085v-7.965H0Zm2.053-5.912H68.032v3.858H2.053Zm0,0" transform="translate(3807 992.222)" fill="#1a73e8"/>
    <path id="Path_10741" data-name="Path 10741" d="M218.466,82.655h-7.305V80.6h7.305Zm-8.674,0h-2.053V80.6h2.053Zm-3.422,0h-2.053V80.6h2.053Zm0,0" transform="translate(3630.651 1243.22)" fill="#1a73e8"/>
  </g>
</svg>
